<?xml version="1.0" standalone="no"?>
 <!DOCTYPE svg PUBLIC "-//W3C//DTD SVG 1.1//EN" 
 "http://www.w3.org/Graphics/SVG/1.1/DTD/svg11.dtd"> 
<svg
  xmlns:svg="http://www.w3.org/2000/svg"
  xmlns="http://www.w3.org/2000/svg"
  xmlns:xlink="http://www.w3.org/1999/xlink"
  version="1.1"
  width="48.3870mm" height="54.1782mm" viewBox="0.0000 0.0000 48.3870 54.1782">
<title>SVG Image created as Plato_A1-B_Adhesive.svg date 2024/04/29 03:21:22 </title>
  <desc>Image generated by PCBNEW </desc>
<g style="fill:#000000; fill-opacity:1.0000;stroke:#000000; stroke-opacity:1.0000;
stroke-linecap:round; stroke-linejoin:round;"
 transform="translate(0 0) scale(1 1)">
</g>
<g style="fill:none; 
stroke:#000000; stroke-width:0.2000; stroke-opacity:1; 
stroke-linecap:round; stroke-linejoin:round;">
<path d="M3.6553 4.8229
L3.7440 4.8683
" />
<path d="M2.7878 4.8445
L2.8787 4.8035
" />
<path d="M3.1693 50.0328
L3.0704 50.0204
" />
<path d="M41.7328 27.2360
L41.7428 27.3352
" />
<path d="M3.1693 4.7372
L3.2689 4.7347
" />
<path d="M3.7440 49.9017
L3.6553 49.9471
" />
<path d="M41.2440 26.5190
L41.3277 26.5731
" />
<path d="M3.5625 49.9836
L3.4665 50.0106
" />
<path d="M3.2689 4.7347
L3.3683 4.7421
" />
<path d="M2.5458 49.7515
L2.4780 49.6784
" />
<path d="M2.2638 5.5362
L2.2884 5.4396
" />
<path d="M3.0704 50.0204
L2.9732 49.9983
" />
<path d="M2.7878 49.9255
L2.7015 49.8757
" />
<path d="M2.5458 5.0185
L2.6205 4.9525
" />
<path d="M3.6553 49.9471
L3.5625 49.9836
" />
<path d="M2.2884 49.3304
L2.2638 49.2338
" />
<path d="M2.3225 5.3459
L2.3658 5.2561
" />
<path d="M41.6837 27.7270
L41.6450 27.8189
" />
<path d="M3.3683 4.7421
L3.4665 4.7594
" />
<path d="M3.2689 50.0353
L3.1693 50.0328
" />
<path d="M41.6450 26.9511
L41.6837 27.0430
" />
<path d="M3.4665 50.0106
L3.3683 50.0279
" />
<path d="M41.4057 28.1348
L41.3277 28.1969
" />
<path d="M2.3225 49.4241
L2.2884 49.3304
" />
<path d="M41.5973 27.9064
L41.5411 27.9888
" />
<path d="M2.2884 5.4396
L2.3225 5.3459
" />
<path d="M3.3683 50.0279
L3.2689 50.0353
" />
<path d="M2.3658 49.5139
L2.3225 49.4241
" />
<path d="M3.7440 4.8683
L41.2440 26.5190
" />
<path d="M41.3277 26.5731
L41.4057 26.6352
" />
<path d="M41.7131 27.6318
L41.6837 27.7270
" />
<path d="M41.3277 28.1969
L41.2440 28.2510
" />
<path d="M2.2638 49.2338
L2.2490 49.1352
" />
<path d="M2.6205 4.9525
L2.7015 4.8943
" />
<path d="M41.4057 26.6352
L41.4771 26.7048
" />
<path d="M2.2490 5.6348
L2.2638 5.5362
" />
<path d="M2.8787 49.9665
L2.7878 49.9255
" />
<path d="M2.8787 4.8035
L2.9732 4.7717
" />
<path d="M41.7428 27.4348
L41.7328 27.5340
" />
<path d="M2.2440 49.0356
L2.2440 5.7344
" />
<path d="M41.6837 27.0430
L41.7131 27.1382
" />
<path d="M2.9732 4.7717
L3.0704 4.7496
" />
<path d="M2.9732 49.9983
L2.8787 49.9665
" />
<path d="M41.7328 27.5340
L41.7131 27.6318
" />
<path d="M2.4178 49.5990
L2.3658 49.5139
" />
<path d="M2.2490 49.1352
L2.2440 49.0356
" />
<path d="M41.5411 27.9888
L41.4771 28.0652
" />
<path d="M2.2440 5.7344
L2.2490 5.6348
" />
<path d="M41.4771 28.0652
L41.4057 28.1348
" />
<path d="M2.3658 5.2561
L2.4178 5.1710
" />
<path d="M41.6450 27.8189
L41.5973 27.9064
" />
<path d="M2.7015 49.8757
L2.6205 49.8175
" />
<path d="M41.7428 27.3352
L41.7428 27.4348
" />
<path d="M2.4780 49.6784
L2.4178 49.5990
" />
<path d="M41.5973 26.8636
L41.6450 26.9511
" />
<path d="M3.5625 4.7864
L3.6553 4.8229
" />
<path d="M2.4780 5.0916
L2.5458 5.0185
" />
<path d="M41.4771 26.7048
L41.5411 26.7812
" />
<path d="M2.6205 49.8175
L2.5458 49.7515
" />
<path d="M41.7131 27.1382
L41.7328 27.2360
" />
<path d="M3.0704 4.7496
L3.1693 4.7372
" />
<path d="M41.5411 26.7812
L41.5973 26.8636
" />
<path d="M2.7015 4.8943
L2.7878 4.8445
" />
<path d="M41.2440 28.2510
L3.7440 49.9017
" />
<path d="M2.4178 5.1710
L2.4780 5.0916
" />
<path d="M3.4665 4.7594
L3.5625 4.7864
" />
</g> 
</svg>
