<?xml version="1.0" standalone="no"?>
 <!DOCTYPE svg PUBLIC "-//W3C//DTD SVG 1.1//EN" 
 "http://www.w3.org/Graphics/SVG/1.1/DTD/svg11.dtd"> 
<svg
  xmlns:svg="http://www.w3.org/2000/svg"
  xmlns="http://www.w3.org/2000/svg"
  xmlns:xlink="http://www.w3.org/1999/xlink"
  version="1.1"
  width="48.3870mm" height="54.1782mm" viewBox="0.0000 0.0000 48.3870 54.1782">
<title>SVG Image created as Plato_A1-F_Courtyard.svg date 2024/04/29 03:21:22 </title>
  <desc>Image generated by PCBNEW </desc>
<g style="fill:#000000; fill-opacity:1.0000;stroke:#000000; stroke-opacity:1.0000;
stroke-linecap:round; stroke-linejoin:round;"
 transform="translate(0 0) scale(1 1)">
</g>
<g style="fill:none; 
stroke:#000000; stroke-width:0.0500; stroke-opacity:1; 
stroke-linecap:round; stroke-linejoin:round;">
<path d="M32.5600 27.6300
L34.4200 27.6300
" />
<path d="M32.5600 28.5700
L32.5600 27.6300
" />
<path d="M34.4200 27.6300
L34.4200 28.5700
" />
<path d="M34.4200 28.5700
L32.5600 28.5700
" />
<path d="M21.8913 34.7759
L23.6591 36.5437
" />
<path d="M23.6591 36.5437
L25.8087 34.3941
" />
<path d="M24.0409 32.6263
L21.8913 34.7759
" />
<path d="M25.8087 34.3941
L24.0409 32.6263
" />
<path d="M37.7400 26.8900
L38.6600 26.8900
" />
<path d="M37.7400 28.7100
L37.7400 26.8900
" />
<path d="M38.6600 26.8900
L38.6600 28.7100
" />
<path d="M38.6600 28.7100
L37.7400 28.7100
" />
<path d="M10.1292 25.8650
L10.1292 28.9050
" />
<path d="M10.1292 28.9050
L12.6292 28.9050
" />
<path d="M12.6292 25.8650
L10.1292 25.8650
" />
<path d="M12.6292 28.9050
L12.6292 25.8650
" />
<path d="M3.5907 7.6451
L5.0816 6.6012
" />
<path d="M4.1184 8.3988
L3.5907 7.6451
" />
<path d="M5.0816 6.6012
L5.6093 7.3549
" />
<path d="M5.6093 7.3549
L4.1184 8.3988
" />
<path d="M21.9154 19.8241
L23.8695 22.1529
" />
<path d="M23.8305 18.2171
L21.9154 19.8241
" />
<path d="M23.8695 22.1529
L25.7846 20.5459
" />
<path d="M25.7846 20.5459
L23.8305 18.2171
" />
<path d="M3.2020 25.6088
L3.4401 24.7201
" />
<path d="M3.4401 24.7201
L5.1980 25.1912
" />
<path d="M4.9599 26.0799
L3.2020 25.6088
" />
<path d="M5.1980 25.1912
L4.9599 26.0799
" />
<path d="M9.5250 19.6869
L11.2687 22.1771
" />
<path d="M11.2687 22.1771
L13.3165 20.7431
" />
<path d="M11.5729 18.2529
L9.5250 19.6869
" />
<path d="M13.3165 20.7431
L11.5729 18.2529
" />
<path d="M14.9014 30.6047
L15.7352 30.2159
" />
<path d="M15.6705 32.2542
L14.9014 30.6047
" />
<path d="M15.7352 30.2159
L16.5043 31.8654
" />
<path d="M16.5043 31.8654
L15.6705 32.2542
" />
<path d="M3.2880 30.3303
L4.1430 32.6795
" />
<path d="M4.1430 32.6795
L6.9997 31.6397
" />
<path d="M6.1447 29.2905
L3.2880 30.3303
" />
<path d="M6.9997 31.6397
L6.1447 29.2905
" />
<path d="M15.2890 16.5163
L15.6050 14.7239
" />
<path d="M15.6050 14.7239
L16.5110 14.8837
" />
<path d="M16.1950 16.6761
L15.2890 16.5163
" />
<path d="M16.5110 14.8837
L16.1950 16.6761
" />
<path d="M16.1197 17.8648
L18.5817 18.2990
" />
<path d="M16.6476 14.8710
L16.1197 17.8648
" />
<path d="M18.5817 18.2990
L19.1096 15.3052
" />
<path d="M19.1096 15.3052
L16.6476 14.8710
" />
<path d="M28.2937 31.7990
L31.2301 32.5858
" />
<path d="M28.9407 29.3842
L28.2937 31.7990
" />
<path d="M31.2301 32.5858
L31.8771 30.1710
" />
<path d="M31.8771 30.1710
L28.9407 29.3842
" />
<path d="M16.2369 36.7797
L16.5019 39.8082
" />
<path d="M16.5019 39.8082
L18.9923 39.5903
" />
<path d="M18.7274 36.5618
L16.2369 36.7797
" />
<path d="M18.9923 39.5903
L18.7274 36.5618
" />
<path d="M15.8394 30.1357
L17.1241 32.8909
" />
<path d="M17.1241 32.8909
L19.3899 31.8343
" />
<path d="M18.1051 29.0791
L15.8394 30.1357
" />
<path d="M19.3899 31.8343
L18.1051 29.0791
" />
<path d="M27.6056 22.8110
L28.5116 22.6512
" />
<path d="M27.9217 24.6033
L27.6056 22.8110
" />
<path d="M28.5116 22.6512
L28.8277 24.4436
" />
<path d="M28.8277 24.4436
L27.9217 24.6033
" />
<path d="M4.2875 32.7790
L5.9978 32.1565
" />
<path d="M4.6022 33.6435
L4.2875 32.7790
" />
<path d="M5.9978 32.1565
L6.3125 33.0210
" />
<path d="M6.3125 33.0210
L4.6022 33.6435
" />
<path d="M3.1760 38.1655
L5.5048 40.1196
" />
<path d="M4.7829 36.2504
L3.1760 38.1655
" />
<path d="M5.5048 40.1196
L7.1117 38.2045
" />
<path d="M7.1117 38.2045
L4.7829 36.2504
" />
<path d="M12.5565 12.1022
L13.4210 11.7875
" />
<path d="M13.1790 13.8125
L12.5565 12.1022
" />
<path d="M13.4210 11.7875
L14.0435 13.4978
" />
<path d="M14.0435 13.4978
L13.1790 13.8125
" />
<path d="M28.5904 22.5052
L29.1183 25.4990
" />
<path d="M29.1183 25.4990
L31.5803 25.0648
" />
<path d="M31.0524 22.0710
L28.5904 22.5052
" />
<path d="M31.5803 25.0648
L31.0524 22.0710
" />
<path d="M11.2020 40.3088
L11.4401 39.4201
" />
<path d="M11.4401 39.4201
L13.1980 39.8912
" />
<path d="M12.9599 40.7799
L11.2020 40.3088
" />
<path d="M13.1980 39.8912
L12.9599 40.7799
" />
<path d="M12.4012 19.1184
L13.1549 18.5907
" />
<path d="M13.1549 18.5907
L14.1988 20.0816
" />
<path d="M13.4451 20.6093
L12.4012 19.1184
" />
<path d="M14.1988 20.0816
L13.4451 20.6093
" />
<path d="M3.1818 9.2329
L4.6157 11.2808
" />
<path d="M4.6157 11.2808
L7.1059 9.5371
" />
<path d="M5.6720 7.4892
L3.1818 9.2329
" />
<path d="M7.1059 9.5371
L5.6720 7.4892
" />
<path d="M3.2025 45.7075
L5.8352 47.2275
" />
<path d="M4.4525 43.5425
L3.2025 45.7075
" />
<path d="M5.8352 47.2275
L7.0852 45.0625
" />
<path d="M7.0852 45.0625
L4.4525 43.5425
" />
<path d="M12.8400 27.0100
L13.7600 27.0100
" />
<path d="M12.8400 28.8300
L12.8400 27.0100
" />
<path d="M13.7600 27.0100
L13.7600 28.8300
" />
<path d="M13.7600 28.8300
L12.8400 28.8300
" />
<path d="M2.6072 39.0674
L3.1986 38.3627
" />
<path d="M3.1986 38.3627
L4.5928 39.5326
" />
<path d="M4.0014 40.2373
L2.6072 39.0674
" />
<path d="M4.5928 39.5326
L4.0014 40.2373
" />
<path d="M2.9819 46.6434
L3.4419 45.8466
" />
<path d="M3.4419 45.8466
L5.0181 46.7566
" />
<path d="M4.5581 47.5534
L2.9819 46.6434
" />
<path d="M5.0181 46.7566
L4.5581 47.5534
" />
<path d="M25.1000 28.9050
L25.1000 25.8650
" />
<path d="M25.1000 25.8650
L22.6000 25.8650
" />
<path d="M22.6000 28.9050
L25.1000 28.9050
" />
<path d="M22.6000 25.8650
L22.6000 28.9050
" />
<path d="M15.1206 36.9554
L16.0371 36.8752
" />
<path d="M15.2792 38.7685
L15.1206 36.9554
" />
<path d="M16.0371 36.8752
L16.1957 38.6883
" />
<path d="M16.1957 38.6883
L15.2792 38.7685
" />
<path d="M9.4379 34.9075
L12.0706 36.4275
" />
<path d="M10.6879 32.7425
L9.4379 34.9075
" />
<path d="M12.0706 36.4275
L13.3206 34.2625
" />
<path d="M13.3206 34.2625
L10.6879 32.7425
" />
<path d="M3.1852 16.7759
L4.9529 18.5437
" />
<path d="M4.9529 18.5437
L7.1025 16.3941
" />
<path d="M5.3348 14.6263
L3.1852 16.7759
" />
<path d="M7.1025 16.3941
L5.3348 14.6263
" />
<path d="M11.8662 33.1034
L12.3262 32.3066
" />
<path d="M12.3262 32.3066
L13.9024 33.2166
" />
<path d="M13.4424 34.0134
L11.8662 33.1034
" />
<path d="M13.9024 33.2166
L13.4424 34.0134
" />
<path d="M28.1383 32.8846
L28.3764 31.9959
" />
<path d="M28.3764 31.9959
L30.1344 32.4670
" />
<path d="M29.8963 33.3556
L28.1383 32.8846
" />
<path d="M30.1344 32.4670
L29.8963 33.3556
" />
<path d="M15.6733 24.1075
L18.3060 25.6275
" />
<path d="M16.9233 21.9425
L15.6733 24.1075
" />
<path d="M18.3060 25.6275
L19.5560 23.4625
" />
<path d="M19.5560 23.4625
L16.9233 21.9425
" />
<path d="M9.6905 12.0200
L10.7303 14.8766
" />
<path d="M10.7303 14.8766
L13.0795 14.0216
" />
<path d="M12.0397 11.1649
L9.6905 12.0200
" />
<path d="M13.0795 14.0216
L12.0397 11.1649
" />
<path d="M15.2662 25.0034
L15.7262 24.2066
" />
<path d="M15.7262 24.2066
L17.3024 25.1166
" />
<path d="M16.8424 25.9134
L15.2662 25.0034
" />
<path d="M17.3024 25.1166
L16.8424 25.9134
" />
<path d="M35.0708 25.8650
L35.0708 28.9050
" />
<path d="M35.0708 28.9050
L37.5708 28.9050
" />
<path d="M37.5708 25.8650
L35.0708 25.8650
" />
<path d="M37.5708 28.9050
L37.5708 25.8650
" />
<path d="M24.7627 19.0986
L25.4674 18.5072
" />
<path d="M25.4674 18.5072
L26.6373 19.9014
" />
<path d="M25.9326 20.4928
L24.7627 19.0986
" />
<path d="M26.6373 19.9014
L25.9326 20.4928
" />
<path d="M5.1313 18.6182
L6.4182 17.3313
" />
<path d="M5.7818 19.2687
L5.1313 18.6182
" />
<path d="M6.4182 17.3313
L7.0687 17.9818
" />
<path d="M7.0687 17.9818
L5.7818 19.2687
" />
<path d="M21.8919 33.3182
L23.1788 32.0313
" />
<path d="M22.5424 33.9687
L21.8919 33.3182
" />
<path d="M23.1788 32.0313
L23.8293 32.6818
" />
<path d="M23.8293 32.6818
L22.5424 33.9687
" />
<path d="M9.5875 42.5990
L12.5239 43.3858
" />
<path d="M10.2346 40.1842
L9.5875 42.5990
" />
<path d="M12.5239 43.3858
L13.1710 40.9710
" />
<path d="M13.1710 40.9710
L10.2346 40.1842
" />
<path d="M25.2400 27.0900
L26.1600 27.0900
" />
<path d="M25.2400 28.9100
L25.2400 27.0900
" />
<path d="M26.1600 27.0900
L26.1600 28.9100
" />
<path d="M26.1600 28.9100
L25.2400 28.9100
" />
<path d="M3.3521 24.5990
L6.2885 25.3858
" />
<path d="M3.9992 22.1842
L3.3521 24.5990
" />
<path d="M6.2885 25.3858
L6.9356 22.9710
" />
<path d="M6.9356 22.9710
L3.9992 22.1842
" />
</g>
<g style="fill:none; 
stroke:#000000; stroke-width:0.2000; stroke-opacity:1; 
stroke-linecap:round; stroke-linejoin:round;">
<path d="M3.6553 4.8229
L3.7440 4.8683
" />
<path d="M2.7878 4.8445
L2.8787 4.8035
" />
<path d="M3.1693 50.0328
L3.0704 50.0204
" />
<path d="M41.7328 27.2360
L41.7428 27.3352
" />
<path d="M3.1693 4.7372
L3.2689 4.7347
" />
<path d="M3.7440 49.9017
L3.6553 49.9471
" />
<path d="M41.2440 26.5190
L41.3277 26.5731
" />
<path d="M3.5625 49.9836
L3.4665 50.0106
" />
<path d="M3.2689 4.7347
L3.3683 4.7421
" />
<path d="M2.5458 49.7515
L2.4780 49.6784
" />
<path d="M2.2638 5.5362
L2.2884 5.4396
" />
<path d="M3.0704 50.0204
L2.9732 49.9983
" />
<path d="M2.7878 49.9255
L2.7015 49.8757
" />
<path d="M2.5458 5.0185
L2.6205 4.9525
" />
<path d="M3.6553 49.9471
L3.5625 49.9836
" />
<path d="M2.2884 49.3304
L2.2638 49.2338
" />
<path d="M2.3225 5.3459
L2.3658 5.2561
" />
<path d="M41.6837 27.7270
L41.6450 27.8189
" />
<path d="M3.3683 4.7421
L3.4665 4.7594
" />
<path d="M3.2689 50.0353
L3.1693 50.0328
" />
<path d="M41.6450 26.9511
L41.6837 27.0430
" />
<path d="M3.4665 50.0106
L3.3683 50.0279
" />
<path d="M41.4057 28.1348
L41.3277 28.1969
" />
<path d="M2.3225 49.4241
L2.2884 49.3304
" />
<path d="M41.5973 27.9064
L41.5411 27.9888
" />
<path d="M2.2884 5.4396
L2.3225 5.3459
" />
<path d="M3.3683 50.0279
L3.2689 50.0353
" />
<path d="M2.3658 49.5139
L2.3225 49.4241
" />
<path d="M3.7440 4.8683
L41.2440 26.5190
" />
<path d="M41.3277 26.5731
L41.4057 26.6352
" />
<path d="M41.7131 27.6318
L41.6837 27.7270
" />
<path d="M41.3277 28.1969
L41.2440 28.2510
" />
<path d="M2.2638 49.2338
L2.2490 49.1352
" />
<path d="M2.6205 4.9525
L2.7015 4.8943
" />
<path d="M41.4057 26.6352
L41.4771 26.7048
" />
<path d="M2.2490 5.6348
L2.2638 5.5362
" />
<path d="M2.8787 49.9665
L2.7878 49.9255
" />
<path d="M2.8787 4.8035
L2.9732 4.7717
" />
<path d="M41.7428 27.4348
L41.7328 27.5340
" />
<path d="M2.2440 49.0356
L2.2440 5.7344
" />
<path d="M41.6837 27.0430
L41.7131 27.1382
" />
<path d="M2.9732 4.7717
L3.0704 4.7496
" />
<path d="M2.9732 49.9983
L2.8787 49.9665
" />
<path d="M41.7328 27.5340
L41.7131 27.6318
" />
<path d="M2.4178 49.5990
L2.3658 49.5139
" />
<path d="M2.2490 49.1352
L2.2440 49.0356
" />
<path d="M41.5411 27.9888
L41.4771 28.0652
" />
<path d="M2.2440 5.7344
L2.2490 5.6348
" />
<path d="M41.4771 28.0652
L41.4057 28.1348
" />
<path d="M2.3658 5.2561
L2.4178 5.1710
" />
<path d="M41.6450 27.8189
L41.5973 27.9064
" />
<path d="M2.7015 49.8757
L2.6205 49.8175
" />
<path d="M41.7428 27.3352
L41.7428 27.4348
" />
<path d="M2.4780 49.6784
L2.4178 49.5990
" />
<path d="M41.5973 26.8636
L41.6450 26.9511
" />
<path d="M3.5625 4.7864
L3.6553 4.8229
" />
<path d="M2.4780 5.0916
L2.5458 5.0185
" />
<path d="M41.4771 26.7048
L41.5411 26.7812
" />
<path d="M2.6205 49.8175
L2.5458 49.7515
" />
<path d="M41.7131 27.1382
L41.7328 27.2360
" />
<path d="M3.0704 4.7496
L3.1693 4.7372
" />
<path d="M41.5411 26.7812
L41.5973 26.8636
" />
<path d="M2.7015 4.8943
L2.7878 4.8445
" />
<path d="M41.2440 28.2510
L3.7440 49.9017
" />
<path d="M2.4178 5.1710
L2.4780 5.0916
" />
<path d="M3.4665 4.7594
L3.5625 4.7864
" />
</g> 
</svg>
