<?xml version="1.0" standalone="no"?>
 <!DOCTYPE svg PUBLIC "-//W3C//DTD SVG 1.1//EN" 
 "http://www.w3.org/Graphics/SVG/1.1/DTD/svg11.dtd"> 
<svg
  xmlns:svg="http://www.w3.org/2000/svg"
  xmlns="http://www.w3.org/2000/svg"
  xmlns:xlink="http://www.w3.org/1999/xlink"
  version="1.1"
  width="31.1912mm" height="35.8394mm" viewBox="0.0000 0.0000 31.1912 35.8394">
<title>SVG Image created as Plato_A1-F_Fab.svg date 2024/04/29 00:24:34 </title>
  <desc>Image generated by PCBNEW </desc>
<g style="fill:#000000; fill-opacity:1.0000;stroke:#000000; stroke-opacity:1.0000;
stroke-linecap:round; stroke-linejoin:round;"
 transform="translate(0 0) scale(1 1)">
</g>
<g style="fill:none; 
stroke:#000000; stroke-width:0.1500; stroke-opacity:1; 
stroke-linecap:round; stroke-linejoin:round;">
<g transform="rotate(-90.000000 2.1872 7.1650)">
<text x="2.1872" y="7.6650"
textLength="1.9643" font-size="1.3333" lengthAdjust="spacingAndGlyphs"
text-anchor="middle" opacity="0">J1</text>
</g>
<g class="stroked-text"><desc>J1</desc>
<path d="M1.6420 7.4984
L2.3563 7.4984
" />
<path d="M2.3563 7.4984
L2.4992 7.5460
" />
<path d="M2.4992 7.5460
L2.5944 7.6412
" />
<path d="M2.5944 7.6412
L2.6420 7.7841
" />
<path d="M2.6420 7.7841
L2.6420 7.8793
" />
<path d="M2.6420 6.4984
L2.6420 7.0698
" />
<path d="M2.6420 6.7841
L1.6420 6.7841
" />
<path d="M1.6420 6.7841
L1.7849 6.8793
" />
<path d="M1.7849 6.8793
L1.8801 6.9746
" />
<path d="M1.8801 6.9746
L1.9278 7.0698
" />
</g><g transform="rotate(-90.000000 2.1872 28.3650)">
<text x="2.1872" y="28.8650"
textLength="1.9643" font-size="1.3333" lengthAdjust="spacingAndGlyphs"
text-anchor="middle" opacity="0">J2</text>
</g>
<g class="stroked-text"><desc>J2</desc>
<path d="M1.6420 28.6984
L2.3563 28.6984
" />
<path d="M2.3563 28.6984
L2.4992 28.7460
" />
<path d="M2.4992 28.7460
L2.5944 28.8412
" />
<path d="M2.5944 28.8412
L2.6420 28.9841
" />
<path d="M2.6420 28.9841
L2.6420 29.0793
" />
<path d="M1.7373 28.2698
L1.6897 28.2222
" />
<path d="M1.6897 28.2222
L1.6420 28.1269
" />
<path d="M1.6420 28.1269
L1.6420 27.8888
" />
<path d="M1.6420 27.8888
L1.6897 27.7936
" />
<path d="M1.6897 27.7936
L1.7373 27.7460
" />
<path d="M1.7373 27.7460
L1.8325 27.6984
" />
<path d="M1.8325 27.6984
L1.9278 27.6984
" />
<path d="M1.9278 27.6984
L2.0706 27.7460
" />
<path d="M2.0706 27.7460
L2.6420 28.3174
" />
<path d="M2.6420 28.3174
L2.6420 27.6984
" />
</g></g>
<g style="fill:none; 
stroke:#000000; stroke-width:0.0750; stroke-opacity:1; 
stroke-linecap:round; stroke-linejoin:round;">
<g transform="rotate(-15.000000 13.2207 23.8345)">
<text x="13.2207" y="24.0845"
textLength="1.5774" font-size="0.6667" lengthAdjust="spacingAndGlyphs"
text-anchor="middle" opacity="0">D10</text>
</g>
<g class="stroked-text"><desc>D10</desc>
<path d="M12.6931 24.2113
L12.5637 23.7283
" />
<path d="M12.5637 23.7283
L12.6787 23.6975
" />
<path d="M12.6787 23.6975
L12.7539 23.7020
" />
<path d="M12.7539 23.7020
L12.8122 23.7357
" />
<path d="M12.8122 23.7357
L12.8475 23.7755
" />
<path d="M12.8475 23.7755
L12.8952 23.8614
" />
<path d="M12.8952 23.8614
L12.9137 23.9304
" />
<path d="M12.9137 23.9304
L12.9153 24.0285
" />
<path d="M12.9153 24.0285
L12.9046 24.0807
" />
<path d="M12.9046 24.0807
L12.8710 24.1390
" />
<path d="M12.8710 24.1390
L12.8081 24.1805
" />
<path d="M12.8081 24.1805
L12.6931 24.2113
" />
<path d="M13.4291 24.0141
L13.1531 24.0881
" />
<path d="M13.2911 24.0511
L13.1617 23.5681
" />
<path d="M13.1617 23.5681
L13.1342 23.6494
" />
<path d="M13.1342 23.6494
L13.1005 23.7078
" />
<path d="M13.1005 23.7078
L13.0607 23.7431
" />
<path d="M13.5987 23.4510
L13.6447 23.4387
" />
<path d="M13.6447 23.4387
L13.6968 23.4494
" />
<path d="M13.6968 23.4494
L13.7260 23.4662
" />
<path d="M13.7260 23.4662
L13.7613 23.5061
" />
<path d="M13.7613 23.5061
L13.8089 23.5919
" />
<path d="M13.8089 23.5919
L13.8398 23.7069
" />
<path d="M13.8398 23.7069
L13.8414 23.8050
" />
<path d="M13.8414 23.8050
L13.8307 23.8572
" />
<path d="M13.8307 23.8572
L13.8139 23.8864
" />
<path d="M13.8139 23.8864
L13.7741 23.9217
" />
<path d="M13.7741 23.9217
L13.7281 23.9340
" />
<path d="M13.7281 23.9340
L13.6759 23.9233
" />
<path d="M13.6759 23.9233
L13.6467 23.9065
" />
<path d="M13.6467 23.9065
L13.6114 23.8667
" />
<path d="M13.6114 23.8667
L13.5638 23.7808
" />
<path d="M13.5638 23.7808
L13.5330 23.6658
" />
<path d="M13.5330 23.6658
L13.5313 23.5677
" />
<path d="M13.5313 23.5677
L13.5420 23.5155
" />
<path d="M13.5420 23.5155
L13.5588 23.4864
" />
<path d="M13.5588 23.4864
L13.5987 23.4510
" />
</g><g transform="rotate(10.000000 10.2566 25.8345)">
<text x="10.2566" y="26.0845"
textLength="1.5774" font-size="0.6667" lengthAdjust="spacingAndGlyphs"
text-anchor="middle" opacity="0">D11</text>
</g>
<g class="stroked-text"><desc>D11</desc>
<path d="M9.6192 25.9530
L9.7061 25.4606
" />
<path d="M9.7061 25.4606
L9.8233 25.4813
" />
<path d="M9.8233 25.4813
L9.8895 25.5171
" />
<path d="M9.8895 25.5171
L9.9281 25.5723
" />
<path d="M9.9281 25.5723
L9.9433 25.6233
" />
<path d="M9.9433 25.6233
L9.9502 25.7213
" />
<path d="M9.9502 25.7213
L9.9378 25.7916
" />
<path d="M9.9378 25.7916
L9.8978 25.8813
" />
<path d="M9.8978 25.8813
L9.8661 25.9240
" />
<path d="M9.8661 25.9240
L9.8110 25.9627
" />
<path d="M9.8110 25.9627
L9.7365 25.9737
" />
<path d="M9.7365 25.9737
L9.6192 25.9530
" />
<path d="M10.3696 26.0853
L10.0882 26.0357
" />
<path d="M10.2289 26.0605
L10.3157 25.5681
" />
<path d="M10.3157 25.5681
L10.2564 25.6302
" />
<path d="M10.2564 25.6302
L10.2012 25.6688
" />
<path d="M10.2012 25.6688
L10.1502 25.6840
" />
<path d="M10.8385 26.1680
L10.5571 26.1184
" />
<path d="M10.6978 26.1432
L10.7847 25.6508
" />
<path d="M10.7847 25.6508
L10.7254 25.7129
" />
<path d="M10.7254 25.7129
L10.6702 25.7515
" />
<path d="M10.6702 25.7515
L10.6192 25.7667
" />
</g><g transform="rotate(-90.000000 23.6130 17.8345)">
<text x="23.6130" y="18.0845"
textLength="1.1012" font-size="0.6667" lengthAdjust="spacingAndGlyphs"
text-anchor="middle" opacity="0">D1</text>
</g>
<g class="stroked-text"><desc>D1</desc>
<path d="M23.8405 18.2036
L23.3405 18.2036
" />
<path d="M23.3405 18.2036
L23.3405 18.0845
" />
<path d="M23.3405 18.0845
L23.3643 18.0131
" />
<path d="M23.3643 18.0131
L23.4119 17.9655
" />
<path d="M23.4119 17.9655
L23.4595 17.9416
" />
<path d="M23.4595 17.9416
L23.5547 17.9178
" />
<path d="M23.5547 17.9178
L23.6262 17.9178
" />
<path d="M23.6262 17.9178
L23.7214 17.9416
" />
<path d="M23.7214 17.9416
L23.7690 17.9655
" />
<path d="M23.7690 17.9655
L23.8166 18.0131
" />
<path d="M23.8166 18.0131
L23.8405 18.0845
" />
<path d="M23.8405 18.0845
L23.8405 18.2036
" />
<path d="M23.8405 17.4416
L23.8405 17.7274
" />
<path d="M23.8405 17.5845
L23.3405 17.5845
" />
<path d="M23.3405 17.5845
L23.4119 17.6321
" />
<path d="M23.4119 17.6321
L23.4595 17.6797
" />
<path d="M23.4595 17.6797
L23.4833 17.7274
" />
</g><g transform="rotate(40.000000 6.7925 23.8345)">
<text x="6.7925" y="24.0845"
textLength="1.5774" font-size="0.6667" lengthAdjust="spacingAndGlyphs"
text-anchor="middle" opacity="0">D20</text>
</g>
<g class="stroked-text"><desc>D20</desc>
<path d="M6.1813 23.6184
L6.5027 23.2354
" />
<path d="M6.5027 23.2354
L6.5939 23.3119
" />
<path d="M6.5939 23.3119
L6.6333 23.3761
" />
<path d="M6.6333 23.3761
L6.6391 23.4432
" />
<path d="M6.6391 23.4432
L6.6268 23.4950
" />
<path d="M6.6268 23.4950
L6.5838 23.5832
" />
<path d="M6.5838 23.5832
L6.5379 23.6379
" />
<path d="M6.5379 23.6379
L6.4584 23.6956
" />
<path d="M6.4584 23.6956
L6.4096 23.7168
" />
<path d="M6.4096 23.7168
L6.3425 23.7226
" />
<path d="M6.3425 23.7226
L6.2725 23.6950
" />
<path d="M6.2725 23.6950
L6.1813 23.6184
" />
<path d="M6.8368 23.5780
L6.8704 23.5751
" />
<path d="M6.8704 23.5751
L6.9222 23.5874
" />
<path d="M6.9222 23.5874
L7.0134 23.6639
" />
<path d="M7.0134 23.6639
L7.0345 23.7128
" />
<path d="M7.0345 23.7128
L7.0375 23.7463
" />
<path d="M7.0375 23.7463
L7.0251 23.7981
" />
<path d="M7.0251 23.7981
L6.9945 23.8346
" />
<path d="M6.9945 23.8346
L6.9303 23.8740
" />
<path d="M6.9303 23.8740
L6.5278 23.9092
" />
<path d="M6.5278 23.9092
L6.7649 24.1082
" />
<path d="M7.3234 23.9241
L7.3599 23.9547
" />
<path d="M7.3599 23.9547
L7.3811 24.0036
" />
<path d="M7.3811 24.0036
L7.3840 24.0371
" />
<path d="M7.3840 24.0371
L7.3716 24.0889
" />
<path d="M7.3716 24.0889
L7.3287 24.1772
" />
<path d="M7.3287 24.1772
L7.2521 24.2684
" />
<path d="M7.2521 24.2684
L7.1727 24.3260
" />
<path d="M7.1727 24.3260
L7.1238 24.3472
" />
<path d="M7.1238 24.3472
L7.0903 24.3501
" />
<path d="M7.0903 24.3501
L7.0385 24.3378
" />
<path d="M7.0385 24.3378
L7.0020 24.3071
" />
<path d="M7.0020 24.3071
L6.9809 24.2583
" />
<path d="M6.9809 24.2583
L6.9779 24.2248
" />
<path d="M6.9779 24.2248
L6.9903 24.1730
" />
<path d="M6.9903 24.1730
L7.0333 24.0847
" />
<path d="M7.0333 24.0847
L7.1098 23.9935
" />
<path d="M7.1098 23.9935
L7.1892 23.9359
" />
<path d="M7.1892 23.9359
L7.2381 23.9147
" />
<path d="M7.2381 23.9147
L7.2716 23.9118
" />
<path d="M7.2716 23.9118
L7.3234 23.9241
" />
</g><g transform="rotate(25.000000 6.7925 27.8345)">
<text x="6.7925" y="28.0845"
textLength="1.5774" font-size="0.6667" lengthAdjust="spacingAndGlyphs"
text-anchor="middle" opacity="0">D21</text>
</g>
<g class="stroked-text"><desc>D21</desc>
<path d="M6.1462 27.7840
L6.3575 27.3309
" />
<path d="M6.3575 27.3309
L6.4654 27.3812
" />
<path d="M6.4654 27.3812
L6.5201 27.4329
" />
<path d="M6.5201 27.4329
L6.5431 27.4962
" />
<path d="M6.5431 27.4962
L6.5445 27.5494
" />
<path d="M6.5445 27.5494
L6.5259 27.6458
" />
<path d="M6.5259 27.6458
L6.4957 27.7106
" />
<path d="M6.4957 27.7106
L6.4339 27.7868
" />
<path d="M6.4339 27.7868
L6.3922 27.8199
" />
<path d="M6.3922 27.8199
L6.3289 27.8429
" />
<path d="M6.3289 27.8429
L6.2541 27.8343
" />
<path d="M6.2541 27.8343
L6.1462 27.7840
" />
<path d="M6.7689 27.5753
L6.8006 27.5638
" />
<path d="M6.8006 27.5638
L6.8538 27.5623
" />
<path d="M6.8538 27.5623
L6.9617 27.6126
" />
<path d="M6.9617 27.6126
L6.9948 27.6543
" />
<path d="M6.9948 27.6543
L7.0063 27.6860
" />
<path d="M7.0063 27.6860
L7.0078 27.7392
" />
<path d="M7.0078 27.7392
L6.9876 27.7823
" />
<path d="M6.9876 27.7823
L6.9359 27.8370
" />
<path d="M6.9359 27.8370
L6.5562 27.9752
" />
<path d="M6.5562 27.9752
L6.8367 28.1060
" />
<path d="M7.2683 28.3073
L7.0093 28.1865
" />
<path d="M7.1388 28.2469
L7.3501 27.7937
" />
<path d="M7.3501 27.7937
L7.2768 27.8383
" />
<path d="M7.2768 27.8383
L7.2135 27.8614
" />
<path d="M7.2135 27.8614
L7.1603 27.8628
" />
</g></g>
<g style="fill:none; 
stroke:#000000; stroke-width:0.1000; stroke-opacity:1; 
stroke-linecap:round; stroke-linejoin:round;">
<path d="M0.9172 3.9900
L1.5522 3.3550
" />
<path d="M0.9172 10.9750
L0.9172 3.9900
" />
<path d="M1.5522 3.3550
L3.4572 3.3550
" />
<path d="M3.4572 3.3550
L3.4572 10.9750
" />
<path d="M3.4572 10.9750
L0.9172 10.9750
" />
<path d="M5.1149 7.9948
L5.8399 9.2505
" />
<path d="M5.3162 7.2435
L5.1149 7.9948
" />
<path d="M5.8399 9.2505
L7.7452 8.1505
" />
<path d="M6.7452 6.4185
L5.3162 7.2435
" />
<path d="M6.7452 6.4185
L7.7452 8.1505
" />
<path style="fill:#000000; fill-opacity:1.0000; 
stroke:#000000; stroke-width:0.1000; stroke-opacity:1; 
stroke-linecap:round; stroke-linejoin:round;fill-rule:evenodd;"
d="M 6.0242,7.4698
5.6345,7.6948
5.3595,7.2185
5.7492,6.9935
Z" /> 
<path style="fill:#000000; fill-opacity:1.0000; 
stroke:#000000; stroke-width:0.1000; stroke-opacity:1; 
stroke-linecap:round; stroke-linejoin:round;fill-rule:evenodd;"
d="M 6.7492,8.7255
6.3595,8.9505
6.0595,8.4309
6.4492,8.2059
Z" /> 
</g>
<g style="fill:none; 
stroke:#000000; stroke-width:0.1000; stroke-opacity:1; 
stroke-linecap:round; stroke-linejoin:round;">
<path d="M0.9172 25.1900
L1.5522 24.5550
" />
<path d="M0.9172 32.1750
L0.9172 25.1900
" />
<path d="M1.5522 24.5550
L3.4572 24.5550
" />
<path d="M3.4572 24.5550
L3.4572 32.1750
" />
<path d="M3.4572 32.1750
L0.9172 32.1750
" />
<path d="M12.0418 23.6845
L12.4170 25.0851
" />
<path d="M12.4170 25.0851
L14.5421 24.5157
" />
<path d="M12.4307 23.0109
L12.0418 23.6845
" />
<path d="M14.0244 22.5839
L12.4307 23.0109
" />
<path d="M14.0244 22.5839
L14.5421 24.5157
" />
<path style="fill:#000000; fill-opacity:1.0000; 
stroke:#000000; stroke-width:0.1000; stroke-opacity:1; 
stroke-linecap:round; stroke-linejoin:round;fill-rule:evenodd;"
d="M 13.0560,23.4128
12.6213,23.5292
12.4790,22.9980
12.9136,22.8815
Z" /> 
<path style="fill:#000000; fill-opacity:1.0000; 
stroke:#000000; stroke-width:0.1000; stroke-opacity:1; 
stroke-linecap:round; stroke-linejoin:round;fill-rule:evenodd;"
d="M 13.4313,24.8134
12.9966,24.9298
12.8413,24.3503
13.2760,24.2338
Z" /> 
</g>
<g style="fill:none; 
stroke:#000000; stroke-width:0.1000; stroke-opacity:1; 
stroke-linecap:round; stroke-linejoin:round;">
<path d="M11.7358 15.7638
L12.9025 16.9305
" />
<path d="M11.7358 15.7638
L13.1500 14.3496
" />
<path d="M12.9025 16.9305
L13.6804 16.9305
" />
<path d="M13.6804 16.9305
L14.7057 15.9052
" />
<path d="M14.7057 15.9052
L13.1500 14.3496
" />
<path style="fill:#000000; fill-opacity:1.0000; 
stroke:#000000; stroke-width:0.1000; stroke-opacity:1; 
stroke-linecap:round; stroke-linejoin:round;fill-rule:evenodd;"
d="M 13.2561,16.5063
12.8672,16.8952
12.5490,16.5770
12.9379,16.1881
Z" /> 
<path style="fill:#000000; fill-opacity:1.0000; 
stroke:#000000; stroke-width:0.1000; stroke-opacity:1; 
stroke-linecap:round; stroke-linejoin:round;fill-rule:evenodd;"
d="M 14.2814,15.4810
13.8571,15.9052
13.5389,15.5870
13.9632,15.1628
Z" /> 
</g>
<g style="fill:none; 
stroke:#000000; stroke-width:0.1000; stroke-opacity:1; 
stroke-linecap:round; stroke-linejoin:round;">
<path d="M8.7566 16.7345
L8.7566 18.9345
" />
<path d="M10.2066 16.7345
L8.7566 16.7345
" />
<path d="M10.7566 17.2845
L10.2066 16.7345
" />
<path d="M10.7566 18.9345
L8.7566 18.9345
" />
<path d="M10.7566 18.9345
L10.7566 17.2845
" />
<path style="fill:#000000; fill-opacity:1.0000; 
stroke:#000000; stroke-width:0.1000; stroke-opacity:1; 
stroke-linecap:round; stroke-linejoin:round;fill-rule:evenodd;"
d="M 9.3566,17.3345
8.7566,17.3345
8.7566,17.7845
9.3566,17.7845
Z" /> 
<path style="fill:#000000; fill-opacity:1.0000; 
stroke:#000000; stroke-width:0.1000; stroke-opacity:1; 
stroke-linecap:round; stroke-linejoin:round;fill-rule:evenodd;"
d="M 10.7566,17.3345
10.2066,17.3345
10.2066,17.7845
10.7566,17.7845
Z" /> 
</g>
<g style="fill:none; 
stroke:#000000; stroke-width:0.1000; stroke-opacity:1; 
stroke-linecap:round; stroke-linejoin:round;">
<path d="M8.4997 26.6283
L10.6663 27.0103
" />
<path d="M8.7515 25.2003
L8.4997 26.6283
" />
<path d="M9.3886 24.7542
L8.7515 25.2003
" />
<path d="M11.0136 25.0407
L9.3886 24.7542
" />
<path d="M11.0136 25.0407
L10.6663 27.0103
" />
<path style="fill:#000000; fill-opacity:1.0000; 
stroke:#000000; stroke-width:0.1000; stroke-opacity:1; 
stroke-linecap:round; stroke-linejoin:round;fill-rule:evenodd;"
d="M 9.6379,26.2197
9.5338,26.8106
9.0906,26.7325
9.1948,26.1416
Z" /> 
<path style="fill:#000000; fill-opacity:1.0000; 
stroke:#000000; stroke-width:0.1000; stroke-opacity:1; 
stroke-linecap:round; stroke-linejoin:round;fill-rule:evenodd;"
d="M 9.8811,24.8410
9.7855,25.3827
9.3424,25.3045
9.4379,24.7629
Z" /> 
</g>
<g style="fill:none; 
stroke:#000000; stroke-width:0.1000; stroke-opacity:1; 
stroke-linecap:round; stroke-linejoin:round;">
<path d="M4.9214 19.2602
L5.6187 20.7556
" />
<path d="M4.9214 19.2602
L6.7340 18.4149
" />
<path d="M5.6187 20.7556
L6.3496 21.0216
" />
<path d="M6.3496 21.0216
L7.6637 20.4088
" />
<path d="M7.6637 20.4088
L6.7340 18.4149
" />
<path style="fill:#000000; fill-opacity:1.0000; 
stroke:#000000; stroke-width:0.1000; stroke-opacity:1; 
stroke-linecap:round; stroke-linejoin:round;fill-rule:evenodd;"
d="M 6.0960,20.4778
5.5975,20.7103
5.4074,20.3024
5.9058,20.0700
Z" /> 
<path style="fill:#000000; fill-opacity:1.0000; 
stroke:#000000; stroke-width:0.1000; stroke-opacity:1; 
stroke-linecap:round; stroke-linejoin:round;fill-rule:evenodd;"
d="M 7.4102,19.8650
6.8664,20.1186
6.6762,19.7108
7.2200,19.4572
Z" /> 
</g>
<g style="fill:none; 
stroke:#000000; stroke-width:0.1000; stroke-opacity:1; 
stroke-linecap:round; stroke-linejoin:round;">
<path d="M19.0407 20.1069
L19.4296 20.7806
" />
<path d="M19.4296 20.7806
L20.8302 21.1558
" />
<path d="M19.4677 18.5132
L19.0407 20.1069
" />
<path d="M19.4677 18.5132
L21.3996 19.0308
" />
<path d="M20.8302 21.1558
L21.3996 19.0308
" />
<path style="fill:#000000; fill-opacity:1.0000; 
stroke:#000000; stroke-width:0.1000; stroke-opacity:1; 
stroke-linecap:round; stroke-linejoin:round;fill-rule:evenodd;"
d="M 19.7013,19.7663
19.5849,20.2010
19.0536,20.0586
19.1701,19.6240
Z" /> 
<path style="fill:#000000; fill-opacity:1.0000; 
stroke:#000000; stroke-width:0.1000; stroke-opacity:1; 
stroke-linecap:round; stroke-linejoin:round;fill-rule:evenodd;"
d="M 21.1019,20.1416
20.9855,20.5763
20.4059,20.4210
20.5224,19.9863
Z" /> 
</g>
<g style="fill:none; 
stroke:#000000; stroke-width:0.1000; stroke-opacity:1; 
stroke-linecap:round; stroke-linejoin:round;">
<path d="M22.6130 16.7345
L22.6130 18.3845
" />
<path d="M22.6130 16.7345
L24.6130 16.7345
" />
<path d="M22.6130 18.3845
L23.1630 18.9345
" />
<path d="M23.1630 18.9345
L24.6130 18.9345
" />
<path d="M24.6130 18.9345
L24.6130 16.7345
" />
<path style="fill:#000000; fill-opacity:1.0000; 
stroke:#000000; stroke-width:0.1000; stroke-opacity:1; 
stroke-linecap:round; stroke-linejoin:round;fill-rule:evenodd;"
d="M 23.1630,18.3345
22.6130,18.3345
22.6130,17.8845
23.1630,17.8845
Z" /> 
<path style="fill:#000000; fill-opacity:1.0000; 
stroke:#000000; stroke-width:0.1000; stroke-opacity:1; 
stroke-linecap:round; stroke-linejoin:round;fill-rule:evenodd;"
d="M 24.6130,18.3345
24.0130,18.3345
24.0130,17.8845
24.6131,17.8845
Z" /> 
</g>
<g style="fill:none; 
stroke:#000000; stroke-width:0.1000; stroke-opacity:1; 
stroke-linecap:round; stroke-linejoin:round;">
<path d="M11.8451 12.3980
L13.9124 13.1504
" />
<path d="M12.3410 11.0354
L11.8451 12.3980
" />
<path d="M13.0459 10.7067
L12.3410 11.0354
" />
<path d="M14.5964 11.2710
L13.0459 10.7067
" />
<path d="M14.5964 11.2710
L13.9124 13.1504
" />
<path style="fill:#000000; fill-opacity:1.0000; 
stroke:#000000; stroke-width:0.1000; stroke-opacity:1; 
stroke-linecap:round; stroke-linejoin:round;fill-rule:evenodd;"
d="M 13.0370,12.1933
12.8317,12.7571
12.4089,12.6032
12.6141,12.0394
Z" /> 
<path style="fill:#000000; fill-opacity:1.0000; 
stroke:#000000; stroke-width:0.1000; stroke-opacity:1; 
stroke-linecap:round; stroke-linejoin:round;fill-rule:evenodd;"
d="M 13.5158,10.8777
13.3277,11.3945
12.9048,11.2406
13.0929,10.7238
Z" /> 
</g>
<g style="fill:none; 
stroke:#000000; stroke-width:0.1000; stroke-opacity:1; 
stroke-linecap:round; stroke-linejoin:round;">
<path d="M6.2218 13.3194
L4.8076 11.9052
" />
<path d="M6.2218 13.3194
L7.3886 12.1527
" />
<path d="M6.3633 10.3496
L4.8076 11.9052
" />
<path d="M7.3886 11.3749
L6.3633 10.3496
" />
<path d="M7.3886 12.1527
L7.3886 11.3749
" />
<path style="fill:#000000; fill-opacity:1.0000; 
stroke:#000000; stroke-width:0.1000; stroke-opacity:1; 
stroke-linecap:round; stroke-linejoin:round;fill-rule:evenodd;"
d="M 6.3633,11.1981
6.0451,11.5163
5.6208,11.0920
5.9390,10.7738
Z" /> 
<path style="fill:#000000; fill-opacity:1.0000; 
stroke:#000000; stroke-width:0.1000; stroke-opacity:1; 
stroke-linecap:round; stroke-linejoin:round;fill-rule:evenodd;"
d="M 7.3532,12.1881
7.0350,12.5063
6.6461,12.1173
6.9643,11.7991
Z" /> 
</g>
<g style="fill:none; 
stroke:#000000; stroke-width:0.1000; stroke-opacity:1; 
stroke-linecap:round; stroke-linejoin:round;">
<path d="M8.5777 9.6845
L8.9529 11.0851
" />
<path d="M8.9529 11.0851
L11.0780 10.5157
" />
<path d="M8.9666 9.0109
L8.5777 9.6845
" />
<path d="M10.5603 8.5839
L8.9666 9.0109
" />
<path d="M10.5603 8.5839
L11.0780 10.5157
" />
<path style="fill:#000000; fill-opacity:1.0000; 
stroke:#000000; stroke-width:0.1000; stroke-opacity:1; 
stroke-linecap:round; stroke-linejoin:round;fill-rule:evenodd;"
d="M 9.5919,9.4128
9.1572,9.5292
9.0149,8.9980
9.4495,8.8815
Z" /> 
<path style="fill:#000000; fill-opacity:1.0000; 
stroke:#000000; stroke-width:0.1000; stroke-opacity:1; 
stroke-linecap:round; stroke-linejoin:round;fill-rule:evenodd;"
d="M 9.9672,10.8134
9.5325,10.9298
9.3772,10.3503
9.8119,10.2338
Z" /> 
</g>
<g style="fill:none; 
stroke:#000000; stroke-width:0.1000; stroke-opacity:1; 
stroke-linecap:round; stroke-linejoin:round;">
<path d="M5.1647 16.0093
L5.4935 16.7143
" />
<path d="M5.4935 16.7143
L6.8560 17.2102
" />
<path d="M5.7291 14.4588
L5.1647 16.0093
" />
<path d="M5.7291 14.4588
L7.6085 15.1429
" />
<path d="M6.8560 17.2102
L7.6085 15.1429
" />
<path style="fill:#000000; fill-opacity:1.0000; 
stroke:#000000; stroke-width:0.1000; stroke-opacity:1; 
stroke-linecap:round; stroke-linejoin:round;fill-rule:evenodd;"
d="M 5.8526,15.7276
5.6987,16.1504
5.1818,15.9623
5.3357,15.5395
Z" /> 
<path style="fill:#000000; fill-opacity:1.0000; 
stroke:#000000; stroke-width:0.1000; stroke-opacity:1; 
stroke-linecap:round; stroke-linejoin:round;fill-rule:evenodd;"
d="M 7.2151,16.2235
7.0612,16.6464
6.4974,16.4412
6.6513,16.0183
Z" /> 
</g>
<g style="fill:none; 
stroke:#000000; stroke-width:0.1000; stroke-opacity:1; 
stroke-linecap:round; stroke-linejoin:round;">
<path d="M18.9731 14.9249
L19.2596 16.5498
" />
<path d="M18.9731 14.9249
L20.9427 14.5776
" />
<path d="M19.2596 16.5498
L19.8968 16.9959
" />
<path d="M19.8968 16.9959
L21.3248 16.7441
" />
<path d="M21.3248 16.7441
L20.9427 14.5776
" />
<path style="fill:#000000; fill-opacity:1.0000; 
stroke:#000000; stroke-width:0.1000; stroke-opacity:1; 
stroke-linecap:round; stroke-linejoin:round;fill-rule:evenodd;"
d="M 19.7926,16.4050
19.2510,16.5006
19.1728,16.0574
19.7145,15.9619
Z" /> 
<path style="fill:#000000; fill-opacity:1.0000; 
stroke:#000000; stroke-width:0.1000; stroke-opacity:1; 
stroke-linecap:round; stroke-linejoin:round;fill-rule:evenodd;"
d="M 21.2206,16.1533
20.6297,16.2574
20.5516,15.8143
21.1424,15.7101
Z" /> 
</g>
<g style="fill:none; 
stroke:#000000; stroke-width:0.1000; stroke-opacity:1; 
stroke-linecap:round; stroke-linejoin:round;">
<path d="M8.3855 13.2602
L9.3152 15.2541
" />
<path d="M9.6996 12.6474
L8.3855 13.2602
" />
<path d="M10.4305 12.9134
L9.6996 12.6474
" />
<path d="M11.1278 14.4088
L9.3152 15.2541
" />
<path d="M11.1278 14.4088
L10.4305 12.9134
" />
<path style="fill:#000000; fill-opacity:1.0000; 
stroke:#000000; stroke-width:0.1000; stroke-opacity:1; 
stroke-linecap:round; stroke-linejoin:round;fill-rule:evenodd;"
d="M 9.3730,13.9582
8.8292,14.2118
8.6390,13.8040
9.1828,13.5504
Z" /> 
<path style="fill:#000000; fill-opacity:1.0000; 
stroke:#000000; stroke-width:0.1000; stroke-opacity:1; 
stroke-linecap:round; stroke-linejoin:round;fill-rule:evenodd;"
d="M 10.6418,13.3666
10.1434,13.5990
9.9532,13.1912
10.4516,12.9587
Z" /> 
</g>
<g style="fill:none; 
stroke:#000000; stroke-width:0.1000; stroke-opacity:1; 
stroke-linecap:round; stroke-linejoin:round;">
<path d="M4.8071 23.8935
L6.0711 24.9541
" />
<path d="M4.8071 23.8935
L6.0927 22.3614
" />
<path d="M6.0711 24.9541
L6.8459 24.8863
" />
<path d="M6.8459 24.8863
L7.7780 23.7755
" />
<path d="M7.7780 23.7755
L6.0927 22.3614
" />
<path style="fill:#000000; fill-opacity:1.0000; 
stroke:#000000; stroke-width:0.1000; stroke-opacity:1; 
stroke-linecap:round; stroke-linejoin:round;fill-rule:evenodd;"
d="M 6.3863,24.5006
6.0328,24.9219
5.6881,24.6327
6.0416,24.2114
Z" /> 
<path style="fill:#000000; fill-opacity:1.0000; 
stroke:#000000; stroke-width:0.1000; stroke-opacity:1; 
stroke-linecap:round; stroke-linejoin:round;fill-rule:evenodd;"
d="M 7.3184,23.3899
6.9327,23.8495
6.5880,23.5602
6.9736,23.1006
Z" /> 
</g>
<g style="fill:none; 
stroke:#000000; stroke-width:0.1000; stroke-opacity:1; 
stroke-linecap:round; stroke-linejoin:round;">
<path d="M15.2348 13.5070
L16.4966 15.3091
" />
<path d="M16.4225 12.6753
L15.2348 13.5070
" />
<path d="M17.1885 12.8104
L16.4225 12.6753
" />
<path d="M18.1349 14.1620
L16.4966 15.3091
" />
<path d="M18.1349 14.1620
L17.1885 12.8104
" />
<path style="fill:#000000; fill-opacity:1.0000; 
stroke:#000000; stroke-width:0.1000; stroke-opacity:1; 
stroke-linecap:round; stroke-linejoin:round;fill-rule:evenodd;"
d="M 16.3285,14.0230
15.8370,14.3671
15.5789,13.9985
16.0704,13.6544
Z" /> 
<path style="fill:#000000; fill-opacity:1.0000; 
stroke:#000000; stroke-width:0.1000; stroke-opacity:1; 
stroke-linecap:round; stroke-linejoin:round;fill-rule:evenodd;"
d="M 17.4753,13.2200
17.0248,13.5354
16.7667,13.1668
17.2172,12.8514
Z" /> 
</g>
<g style="fill:none; 
stroke:#000000; stroke-width:0.1000; stroke-opacity:1; 
stroke-linecap:round; stroke-linejoin:round;">
<path d="M8.3810 22.3980
L10.4483 23.1504
" />
<path d="M8.8769 21.0354
L8.3810 22.3980
" />
<path d="M9.5818 20.7067
L8.8769 21.0354
" />
<path d="M11.1323 21.2710
L9.5818 20.7067
" />
<path d="M11.1323 21.2710
L10.4483 23.1504
" />
<path style="fill:#000000; fill-opacity:1.0000; 
stroke:#000000; stroke-width:0.1000; stroke-opacity:1; 
stroke-linecap:round; stroke-linejoin:round;fill-rule:evenodd;"
d="M 9.5729,22.1933
9.3676,22.7571
8.9448,22.6032
9.1500,22.0394
Z" /> 
<path style="fill:#000000; fill-opacity:1.0000; 
stroke:#000000; stroke-width:0.1000; stroke-opacity:1; 
stroke-linecap:round; stroke-linejoin:round;fill-rule:evenodd;"
d="M 10.0517,20.8777
9.8636,21.3945
9.4407,21.2406
9.6288,20.7238
Z" /> 
</g>
<g style="fill:none; 
stroke:#000000; stroke-width:0.1000; stroke-opacity:1; 
stroke-linecap:round; stroke-linejoin:round;">
<path d="M15.6848 16.7345
L15.6848 18.9345
" />
<path d="M17.1348 16.7345
L15.6848 16.7345
" />
<path d="M17.6848 17.2845
L17.1348 16.7345
" />
<path d="M17.6848 18.9345
L15.6848 18.9345
" />
<path d="M17.6848 18.9345
L17.6848 17.2845
" />
<path style="fill:#000000; fill-opacity:1.0000; 
stroke:#000000; stroke-width:0.1000; stroke-opacity:1; 
stroke-linecap:round; stroke-linejoin:round;fill-rule:evenodd;"
d="M 16.2848,17.7845
15.6848,17.7845
15.6848,17.3345
16.2848,17.3345
Z" /> 
<path style="fill:#000000; fill-opacity:1.0000; 
stroke:#000000; stroke-width:0.1000; stroke-opacity:1; 
stroke-linecap:round; stroke-linejoin:round;fill-rule:evenodd;"
d="M 17.6848,17.7845
17.1348,17.7845
17.1348,17.3345
17.6848,17.3345
Z" /> 
</g>
<g style="fill:none; 
stroke:#000000; stroke-width:0.1000; stroke-opacity:1; 
stroke-linecap:round; stroke-linejoin:round;">
<path d="M15.1994 21.8935
L16.8847 23.3076
" />
<path d="M16.1315 20.7827
L15.1994 21.8935
" />
<path d="M16.9063 20.7149
L16.1315 20.7827
" />
<path d="M18.1703 21.7755
L16.8847 23.3076
" />
<path d="M18.1703 21.7755
L16.9063 20.7149
" />
<path style="fill:#000000; fill-opacity:1.0000; 
stroke:#000000; stroke-width:0.1000; stroke-opacity:1; 
stroke-linecap:round; stroke-linejoin:round;fill-rule:evenodd;"
d="M 16.3894,22.1088
16.0038,22.5684
15.6590,22.2792
16.0447,21.8195
Z" /> 
<path style="fill:#000000; fill-opacity:1.0000; 
stroke:#000000; stroke-width:0.1000; stroke-opacity:1; 
stroke-linecap:round; stroke-linejoin:round;fill-rule:evenodd;"
d="M 17.2893,21.0363
16.9358,21.4576
16.5911,21.1684
16.9446,20.7471
Z" /> 
</g>
<g style="fill:none; 
stroke:#000000; stroke-width:0.1000; stroke-opacity:1; 
stroke-linecap:round; stroke-linejoin:round;">
<path d="M4.8730 28.2759
L5.7182 26.4633
" />
<path d="M4.8730 28.2759
L6.3684 28.9733
" />
<path d="M6.3684 28.9733
L7.0993 28.7072
" />
<path d="M7.0993 28.7072
L7.7121 27.3931
" />
<path d="M7.7121 27.3931
L5.7182 26.4633
" />
<path style="fill:#000000; fill-opacity:1.0000; 
stroke:#000000; stroke-width:0.1000; stroke-opacity:1; 
stroke-linecap:round; stroke-linejoin:round;fill-rule:evenodd;"
d="M 6.5555,28.4537
6.3231,28.9521
5.9152,28.7619
6.1477,28.2635
Z" /> 
<path style="fill:#000000; fill-opacity:1.0000; 
stroke:#000000; stroke-width:0.1000; stroke-opacity:1; 
stroke-linecap:round; stroke-linejoin:round;fill-rule:evenodd;"
d="M 7.1683,27.1395
6.9147,27.6833
6.5069,27.4931
6.7605,26.9493
Z" /> 
</g>
<g style="fill:none; 
stroke:#000000; stroke-width:0.1000; stroke-opacity:1; 
stroke-linecap:round; stroke-linejoin:round;">
<path d="M12.0888 20.1968
L13.0209 21.3076
" />
<path d="M12.1566 19.4220
L12.0888 20.1968
" />
<path d="M13.0209 21.3076
L14.7062 19.8935
" />
<path d="M13.4206 18.3614
L12.1566 19.4220
" />
<path d="M13.4206 18.3614
L14.7062 19.8935
" />
<path style="fill:#000000; fill-opacity:1.0000; 
stroke:#000000; stroke-width:0.1000; stroke-opacity:1; 
stroke-linecap:round; stroke-linejoin:round;fill-rule:evenodd;"
d="M 12.8932,19.5219
12.5485,19.8112
12.1949,19.3899
12.5397,19.1006
Z" /> 
<path style="fill:#000000; fill-opacity:1.0000; 
stroke:#000000; stroke-width:0.1000; stroke-opacity:1; 
stroke-linecap:round; stroke-linejoin:round;fill-rule:evenodd;"
d="M 13.8252,20.6327
13.4805,20.9219
13.0948,20.4623
13.4396,20.1731
Z" /> 
</g>
<g style="fill:none; 
stroke:#000000; stroke-width:0.2000; stroke-opacity:1; 
stroke-linecap:round; stroke-linejoin:round;">
<path d="M31.0505 17.7034
L31.0698 17.7493
" />
<path d="M0.4646 35.7222
L0.4173 35.7063
" />
<path d="M31.0266 17.6596
L31.0505 17.7034
" />
<path d="M31.0845 17.7970
L31.0944 17.8458
" />
<path d="M0.5132 35.7333
L0.4646 35.7222
" />
<path d="M0.6125 0.1000
L0.6622 0.1037
" />
<path d="M30.9986 17.6185
L31.0266 17.6596
" />
<path d="M0.6125 35.7407
L0.5626 35.7395
" />
<path d="M0.1000 0.5998
L0.1025 0.5501
" />
<path d="M0.1099 35.3399
L0.1025 35.2906
" />
<path d="M0.1025 35.2906
L0.1000 35.2409
" />
<path d="M0.3719 0.1549
L0.4173 0.1344
" />
<path d="M30.9665 17.5803
L30.9986 17.6185
" />
<path d="M30.8919 17.5144
L30.9308 17.5455
" />
<path d="M31.0698 17.7493
L31.0845 17.7970
" />
<path d="M31.0994 17.9453
L31.0944 17.9949
" />
<path d="M0.1025 0.5501
L0.1099 0.5008
" />
<path d="M0.7113 0.1124
L0.7592 0.1259
" />
<path d="M31.0944 17.9949
L31.0845 18.0437
" />
<path d="M0.5132 0.1074
L0.5626 0.1012
" />
<path d="M0.8056 35.6966
L0.7592 35.7148
" />
<path d="M0.1393 35.4351
L0.1222 35.3882
" />
<path d="M0.8500 0.1668
L30.8500 17.4873
" />
<path d="M31.0994 17.8954
L31.0994 17.9453
" />
<path d="M0.8056 0.1441
L0.8500 0.1668
" />
<path d="M0.7592 35.7148
L0.7113 35.7283
" />
<path d="M0.3719 35.6858
L0.3287 35.6609
" />
<path d="M0.1869 35.5225
L0.1609 35.4800
" />
<path d="M31.0944 17.8458
L31.0994 17.8954
" />
<path d="M31.0505 18.1373
L31.0266 18.1811
" />
<path d="M30.8919 18.3263
L30.8500 18.3534
" />
<path d="M0.5626 35.7395
L0.5132 35.7333
" />
<path d="M0.6622 35.7370
L0.6125 35.7407
" />
<path d="M0.8500 35.6739
L0.8056 35.6966
" />
<path d="M30.9986 18.2223
L30.9665 18.2604
" />
<path d="M0.4173 0.1344
L0.4646 0.1185
" />
<path d="M31.0845 18.0437
L31.0698 18.0914
" />
<path d="M0.1393 0.4056
L0.1609 0.3607
" />
<path d="M0.6622 0.1037
L0.7113 0.1124
" />
<path d="M0.2170 0.2785
L0.2509 0.2419
" />
<path d="M31.0266 18.1811
L30.9986 18.2223
" />
<path d="M0.5626 0.1012
L0.6125 0.1000
" />
<path d="M0.1869 0.3182
L0.2170 0.2785
" />
<path d="M0.1222 35.3882
L0.1099 35.3399
" />
<path d="M30.8500 18.3534
L0.8500 35.6739
" />
<path d="M0.3287 35.6609
L0.2883 35.6318
" />
<path d="M0.3287 0.1798
L0.3719 0.1549
" />
<path d="M0.1000 35.2409
L0.1000 0.5998
" />
<path d="M30.9308 18.2952
L30.8919 18.3263
" />
<path d="M0.7113 35.7283
L0.6622 35.7370
" />
<path d="M0.1099 0.5008
L0.1222 0.4525
" />
<path d="M0.2509 35.5988
L0.2170 35.5623
" />
<path d="M0.2883 35.6318
L0.2509 35.5988
" />
<path d="M0.7592 0.1259
L0.8056 0.1441
" />
<path d="M31.0698 18.0914
L31.0505 18.1373
" />
<path d="M30.9308 17.5455
L30.9665 17.5803
" />
<path d="M0.2509 0.2419
L0.2883 0.2089
" />
<path d="M0.1609 35.4800
L0.1393 35.4351
" />
<path d="M30.9665 18.2604
L30.9308 18.2952
" />
<path d="M0.1609 0.3607
L0.1869 0.3182
" />
<path d="M0.2170 35.5623
L0.1869 35.5225
" />
<path d="M0.4646 0.1185
L0.5132 0.1074
" />
<path d="M0.2883 0.2089
L0.3287 0.1798
" />
<path d="M30.8500 17.4873
L30.8919 17.5144
" />
<path d="M0.4173 35.7063
L0.3719 35.6858
" />
<path d="M0.1222 0.4525
L0.1393 0.4056
" />
</g> 
</svg>
