<?xml version="1.0" standalone="no"?>
 <!DOCTYPE svg PUBLIC "-//W3C//DTD SVG 1.1//EN" 
 "http://www.w3.org/Graphics/SVG/1.1/DTD/svg11.dtd"> 
<svg
  xmlns:svg="http://www.w3.org/2000/svg"
  xmlns="http://www.w3.org/2000/svg"
  xmlns:xlink="http://www.w3.org/1999/xlink"
  version="1.1"
  width="48.3870mm" height="54.1782mm" viewBox="0.0000 0.0000 48.3870 54.1782">
<title>SVG Image created as Plato_A1-F_Silkscreen.svg date 2024/04/29 03:21:22 </title>
  <desc>Image generated by PCBNEW </desc>
<g style="fill:#000000; fill-opacity:1.0000;stroke:#000000; stroke-opacity:1.0000;
stroke-linecap:round; stroke-linejoin:round;"
 transform="translate(0 0) scale(1 1)">
</g>
<g style="fill:none; 
stroke:#000000; stroke-width:0.1500; stroke-opacity:1; 
stroke-linecap:round; stroke-linejoin:round;">
<text x="33.4900" y="27.4300"
textLength="2.2024" font-size="1.3333" lengthAdjust="spacingAndGlyphs"
text-anchor="middle" opacity="0">R1</text>
<g class="stroked-text"><desc>R1</desc>
<path d="M33.3233 27.3848
L32.9900 26.9086
" />
<path d="M32.7519 27.3848
L32.7519 26.3848
" />
<path d="M32.7519 26.3848
L33.1329 26.3848
" />
<path d="M33.1329 26.3848
L33.2281 26.4324
" />
<path d="M33.2281 26.4324
L33.2757 26.4801
" />
<path d="M33.2757 26.4801
L33.3233 26.5753
" />
<path d="M33.3233 26.5753
L33.3233 26.7182
" />
<path d="M33.3233 26.7182
L33.2757 26.8134
" />
<path d="M33.2757 26.8134
L33.2281 26.8610
" />
<path d="M33.2281 26.8610
L33.1329 26.9086
" />
<path d="M33.1329 26.9086
L32.7519 26.9086
" />
<path d="M34.2757 27.3848
L33.7043 27.3848
" />
<path d="M33.9900 27.3848
L33.9900 26.3848
" />
<path d="M33.9900 26.3848
L33.8948 26.5277
" />
<path d="M33.8948 26.5277
L33.7995 26.6229
" />
<path d="M33.7995 26.6229
L33.7043 26.6705
" />
</g><g transform="rotate(-45.000000 22.4358 33.1708)">
<text x="22.4358" y="33.6708"
textLength="2.2024" font-size="1.3333" lengthAdjust="spacingAndGlyphs"
text-anchor="middle" opacity="0">D4</text>
</g>
<g class="stroked-text"><desc>D4</desc>
<path d="M22.2355 34.0143
L21.5284 33.3072
" />
<path d="M21.5284 33.3072
L21.6967 33.1388
" />
<path d="M21.6967 33.1388
L21.8314 33.0715
" />
<path d="M21.8314 33.0715
L21.9661 33.0715
" />
<path d="M21.9661 33.0715
L22.0671 33.1052
" />
<path d="M22.0671 33.1052
L22.2355 33.2062
" />
<path d="M22.2355 33.2062
L22.3365 33.3072
" />
<path d="M22.3365 33.3072
L22.4375 33.4756
" />
<path d="M22.4375 33.4756
L22.4712 33.5766
" />
<path d="M22.4712 33.5766
L22.4712 33.7113
" />
<path d="M22.4712 33.7113
L22.4038 33.8459
" />
<path d="M22.4038 33.8459
L22.2355 34.0143
" />
<path d="M22.7742 32.5327
L23.2456 33.0041
" />
<path d="M22.3365 32.4317
L22.6732 33.1052
" />
<path d="M22.6732 33.1052
L23.1109 32.6674
" />
</g><g transform="rotate(-90.000000 36.9600 27.8050)">
<text x="36.9600" y="28.3050"
textLength="2.2024" font-size="1.3333" lengthAdjust="spacingAndGlyphs"
text-anchor="middle" opacity="0">C1</text>
</g>
<g class="stroked-text"><desc>C1</desc>
<path d="M37.3196 27.9717
L37.3672 28.0193
" />
<path d="M37.3672 28.0193
L37.4148 28.1621
" />
<path d="M37.4148 28.1621
L37.4148 28.2574
" />
<path d="M37.4148 28.2574
L37.3672 28.4002
" />
<path d="M37.3672 28.4002
L37.2720 28.4955
" />
<path d="M37.2720 28.4955
L37.1767 28.5431
" />
<path d="M37.1767 28.5431
L36.9862 28.5907
" />
<path d="M36.9862 28.5907
L36.8434 28.5907
" />
<path d="M36.8434 28.5907
L36.6529 28.5431
" />
<path d="M36.6529 28.5431
L36.5577 28.4955
" />
<path d="M36.5577 28.4955
L36.4624 28.4002
" />
<path d="M36.4624 28.4002
L36.4148 28.2574
" />
<path d="M36.4148 28.2574
L36.4148 28.1621
" />
<path d="M36.4148 28.1621
L36.4624 28.0193
" />
<path d="M36.4624 28.0193
L36.5101 27.9717
" />
<path d="M37.4148 27.0193
L37.4148 27.5907
" />
<path d="M37.4148 27.3050
L36.4148 27.3050
" />
<path d="M36.4148 27.3050
L36.5577 27.4002
" />
<path d="M36.5577 27.4002
L36.6529 27.4955
" />
<path d="M36.6529 27.4955
L36.7005 27.5907
" />
</g></g>
<g style="fill:none; 
stroke:#000000; stroke-width:0.1000; stroke-opacity:1; 
stroke-linecap:round; stroke-linejoin:round;">
<text x="12.8254" y="36.6902"
textLength="3.4333" font-size="1.3333" lengthAdjust="spacingAndGlyphs"
text-anchor="middle" opacity="0">VIN3</text>
<g class="stroked-text"><desc>VIN3</desc>
<path d="M11.2540 35.6476
L11.5873 36.6476
" />
<path d="M11.5873 36.6476
L11.9206 35.6476
" />
<path d="M12.2540 36.6476
L12.2540 35.6476
" />
<path d="M12.7302 36.6476
L12.7302 35.6476
" />
<path d="M12.7302 35.6476
L13.3016 36.6476
" />
<path d="M13.3016 36.6476
L13.3016 35.6476
" />
<path d="M13.6825 35.6476
L14.3016 35.6476
" />
<path d="M14.3016 35.6476
L13.9683 36.0286
" />
<path d="M13.9683 36.0286
L14.1111 36.0286
" />
<path d="M14.1111 36.0286
L14.2064 36.0762
" />
<path d="M14.2064 36.0762
L14.2540 36.1238
" />
<path d="M14.2540 36.1238
L14.3016 36.2190
" />
<path d="M14.3016 36.2190
L14.3016 36.4571
" />
<path d="M14.3016 36.4571
L14.2540 36.5524
" />
<path d="M14.2540 36.5524
L14.2064 36.6000
" />
<path d="M14.2064 36.6000
L14.1111 36.6476
" />
<path d="M14.1111 36.6476
L13.8254 36.6476
" />
<path d="M13.8254 36.6476
L13.7302 36.6000
" />
<path d="M13.7302 36.6000
L13.6825 36.5524
" />
</g><g transform="rotate(-90.000000 29.3000 27.2000)">
<text x="29.3000" y="27.7000"
textLength="3.5762" font-size="1.3333" lengthAdjust="spacingAndGlyphs"
text-anchor="middle" opacity="0">DIN1</text>
</g>
<g class="stroked-text"><desc>DIN1</desc>
<path d="M29.7574 28.7000
L28.7574 28.7000
" />
<path d="M28.7574 28.7000
L28.7574 28.4619
" />
<path d="M28.7574 28.4619
L28.8050 28.3190
" />
<path d="M28.8050 28.3190
L28.9003 28.2238
" />
<path d="M28.9003 28.2238
L28.9955 28.1762
" />
<path d="M28.9955 28.1762
L29.1860 28.1286
" />
<path d="M29.1860 28.1286
L29.3288 28.1286
" />
<path d="M29.3288 28.1286
L29.5193 28.1762
" />
<path d="M29.5193 28.1762
L29.6146 28.2238
" />
<path d="M29.6146 28.2238
L29.7098 28.3190
" />
<path d="M29.7098 28.3190
L29.7574 28.4619
" />
<path d="M29.7574 28.4619
L29.7574 28.7000
" />
<path d="M29.7574 27.7000
L28.7574 27.7000
" />
<path d="M29.7574 27.2238
L28.7574 27.2238
" />
<path d="M28.7574 27.2238
L29.7574 26.6524
" />
<path d="M29.7574 26.6524
L28.7574 26.6524
" />
<path d="M29.7574 25.6524
L29.7574 26.2238
" />
<path d="M29.7574 25.9381
L28.7574 25.9381
" />
<path d="M28.7574 25.9381
L28.9003 26.0333
" />
<path d="M28.9003 26.0333
L28.9955 26.1286
" />
<path d="M28.9955 26.1286
L29.0431 26.2238
" />
</g></g>
<g style="fill:none; 
stroke:#000000; stroke-width:0.1500; stroke-opacity:1; 
stroke-linecap:round; stroke-linejoin:round;">
<g transform="rotate(-90.000000 13.3792 27.3850)">
<text x="13.3792" y="27.8850"
textLength="3.1548" font-size="1.3333" lengthAdjust="spacingAndGlyphs"
text-anchor="middle" opacity="0">D13</text>
</g>
<g class="stroked-text"><desc>D13</desc>
<path d="M13.8341 28.5993
L12.8341 28.5993
" />
<path d="M12.8341 28.5993
L12.8341 28.3612
" />
<path d="M12.8341 28.3612
L12.8817 28.2183
" />
<path d="M12.8817 28.2183
L12.9769 28.1231
" />
<path d="M12.9769 28.1231
L13.0721 28.0755
" />
<path d="M13.0721 28.0755
L13.2626 28.0279
" />
<path d="M13.2626 28.0279
L13.4055 28.0279
" />
<path d="M13.4055 28.0279
L13.5960 28.0755
" />
<path d="M13.5960 28.0755
L13.6912 28.1231
" />
<path d="M13.6912 28.1231
L13.7864 28.2183
" />
<path d="M13.7864 28.2183
L13.8341 28.3612
" />
<path d="M13.8341 28.3612
L13.8341 28.5993
" />
<path d="M13.8341 27.0755
L13.8341 27.6469
" />
<path d="M13.8341 27.3612
L12.8341 27.3612
" />
<path d="M12.8341 27.3612
L12.9769 27.4564
" />
<path d="M12.9769 27.4564
L13.0721 27.5517
" />
<path d="M13.0721 27.5517
L13.1198 27.6469
" />
<path d="M12.8341 26.7421
L12.8341 26.1231
" />
<path d="M12.8341 26.1231
L13.2150 26.4564
" />
<path d="M13.2150 26.4564
L13.2150 26.3136
" />
<path d="M13.2150 26.3136
L13.2626 26.2183
" />
<path d="M13.2626 26.2183
L13.3102 26.1707
" />
<path d="M13.3102 26.1707
L13.4055 26.1231
" />
<path d="M13.4055 26.1231
L13.6436 26.1231
" />
<path d="M13.6436 26.1231
L13.7388 26.1707
" />
<path d="M13.7388 26.1707
L13.7864 26.2183
" />
<path d="M13.7864 26.2183
L13.8341 26.3136
" />
<path d="M13.8341 26.3136
L13.8341 26.5993
" />
<path d="M13.8341 26.5993
L13.7864 26.6945
" />
<path d="M13.7864 26.6945
L13.7388 26.7421
" />
</g><g transform="rotate(-35.000000 3.7000 6.6000)">
<text x="3.7000" y="7.1000"
textLength="3.1548" font-size="1.3333" lengthAdjust="spacingAndGlyphs"
text-anchor="middle" opacity="0">C16</text>
</g>
<g class="stroked-text"><desc>C16</desc>
<path d="M3.3796 7.2633
L3.3680 7.3296
" />
<path d="M3.3680 7.3296
L3.2782 7.4505
" />
<path d="M3.2782 7.4505
L3.2002 7.5052
" />
<path d="M3.2002 7.5052
L3.0559 7.5481
" />
<path d="M3.0559 7.5481
L2.9233 7.5247
" />
<path d="M2.9233 7.5247
L2.8296 7.4740
" />
<path d="M2.8296 7.4740
L2.6814 7.3453
" />
<path d="M2.6814 7.3453
L2.5994 7.2283
" />
<path d="M2.5994 7.2283
L2.5292 7.0449
" />
<path d="M2.5292 7.0449
L2.5136 6.9396
" />
<path d="M2.5136 6.9396
L2.5369 6.8070
" />
<path d="M2.5369 6.8070
L2.6267 6.6860
" />
<path d="M2.6267 6.6860
L2.7047 6.6314
" />
<path d="M2.7047 6.6314
L2.8490 6.5885
" />
<path d="M2.8490 6.5885
L2.9153 6.6002
" />
<path d="M4.2144 6.7950
L3.7463 7.1228
" />
<path d="M3.9804 6.9589
L3.4068 6.1398
" />
<path d="M3.4068 6.1398
L3.4107 6.3114
" />
<path d="M3.4107 6.3114
L3.3873 6.4440
" />
<path d="M3.3873 6.4440
L3.3366 6.5377
" />
<path d="M4.3430 5.4842
L4.1869 5.5935
" />
<path d="M4.1869 5.5935
L4.1362 5.6871
" />
<path d="M4.1362 5.6871
L4.1246 5.7534
" />
<path d="M4.1246 5.7534
L4.1285 5.9251
" />
<path d="M4.1285 5.9251
L4.1987 6.1084
" />
<path d="M4.1987 6.1084
L4.4172 6.4205
" />
<path d="M4.4172 6.4205
L4.5109 6.4712
" />
<path d="M4.5109 6.4712
L4.5772 6.4829
" />
<path d="M4.5772 6.4829
L4.6825 6.4673
" />
<path d="M4.6825 6.4673
L4.8385 6.3580
" />
<path d="M4.8385 6.3580
L4.8892 6.2644
" />
<path d="M4.8892 6.2644
L4.9009 6.1981
" />
<path d="M4.9009 6.1981
L4.8853 6.0927
" />
<path d="M4.8853 6.0927
L4.7487 5.8977
" />
<path d="M4.7487 5.8977
L4.6551 5.8470
" />
<path d="M4.6551 5.8470
L4.5888 5.8353
" />
<path d="M4.5888 5.8353
L4.4835 5.8509
" />
<path d="M4.4835 5.8509
L4.3274 5.9602
" />
<path d="M4.3274 5.9602
L4.2767 6.0538
" />
<path d="M4.2767 6.0538
L4.2650 6.1201
" />
<path d="M4.2650 6.1201
L4.2807 6.2255
" />
</g><g transform="rotate(50.000000 22.2000 21.5000)">
<text x="22.2000" y="22.0000"
textLength="2.2024" font-size="1.3333" lengthAdjust="spacingAndGlyphs"
text-anchor="middle" opacity="0">D6</text>
</g>
<g class="stroked-text"><desc>D6</desc>
<path d="M21.3772 21.2269
L22.1432 20.5842
" />
<path d="M22.1432 20.5842
L22.2962 20.7665
" />
<path d="M22.2962 20.7665
L22.3516 20.9066
" />
<path d="M22.3516 20.9066
L22.3398 21.0408
" />
<path d="M22.3398 21.0408
L22.2975 21.1385
" />
<path d="M22.2975 21.1385
L22.1822 21.2974
" />
<path d="M22.1822 21.2974
L22.0728 21.3892
" />
<path d="M22.0728 21.3892
L21.8962 21.4752
" />
<path d="M21.8962 21.4752
L21.7927 21.4999
" />
<path d="M21.7927 21.4999
L21.6585 21.4882
" />
<path d="M21.6585 21.4882
L21.5302 21.4093
" />
<path d="M21.5302 21.4093
L21.3772 21.2269
" />
<path d="M23.0615 21.6785
L22.9390 21.5326
" />
<path d="M22.9390 21.5326
L22.8413 21.4902
" />
<path d="M22.8413 21.4902
L22.7742 21.4844
" />
<path d="M22.7742 21.4844
L22.6036 21.5032
" />
<path d="M22.6036 21.5032
L22.4271 21.5892
" />
<path d="M22.4271 21.5892
L22.1352 21.8341
" />
<path d="M22.1352 21.8341
L22.0929 21.9318
" />
<path d="M22.0929 21.9318
L22.0870 21.9989
" />
<path d="M22.0870 21.9989
L22.1118 22.1024
" />
<path d="M22.1118 22.1024
L22.2342 22.2483
" />
<path d="M22.2342 22.2483
L22.3319 22.2907
" />
<path d="M22.3319 22.2907
L22.3990 22.2965
" />
<path d="M22.3990 22.2965
L22.5025 22.2718
" />
<path d="M22.5025 22.2718
L22.6849 22.1188
" />
<path d="M22.6849 22.1188
L22.7273 22.0211
" />
<path d="M22.7273 22.0211
L22.7332 21.9540
" />
<path d="M22.7332 21.9540
L22.7084 21.8504
" />
<path d="M22.7084 21.8504
L22.5860 21.7045
" />
<path d="M22.5860 21.7045
L22.4883 21.6622
" />
<path d="M22.4883 21.6622
L22.4212 21.6563
" />
<path d="M22.4212 21.6563
L22.3176 21.6810
" />
</g><g transform="rotate(15.000000 4.5002 24.2795)">
<text x="4.5002" y="24.7795"
textLength="3.1548" font-size="1.3333" lengthAdjust="spacingAndGlyphs"
text-anchor="middle" opacity="0">C18</text>
</g>
<g class="stroked-text"><desc>C18</desc>
<path d="M3.7862 24.4605
L3.7279 24.4941
" />
<path d="M3.7279 24.4941
L3.5776 24.5032
" />
<path d="M3.5776 24.5032
L3.4856 24.4785
" />
<path d="M3.4856 24.4785
L3.3599 24.3955
" />
<path d="M3.3599 24.3955
L3.2926 24.2789
" />
<path d="M3.2926 24.2789
L3.2712 24.1746
" />
<path d="M3.2712 24.1746
L3.2745 23.9783
" />
<path d="M3.2745 23.9783
L3.3115 23.8403
" />
<path d="M3.3115 23.8403
L3.4068 23.6686
" />
<path d="M3.4068 23.6686
L3.4774 23.5890
" />
<path d="M3.4774 23.5890
L3.5941 23.5216
" />
<path d="M3.5941 23.5216
L3.7444 23.5126
" />
<path d="M3.7444 23.5126
L3.8364 23.5372
" />
<path d="M3.8364 23.5372
L3.9621 23.6202
" />
<path d="M3.9621 23.6202
L3.9957 23.6785
" />
<path d="M4.6815 24.7990
L4.1295 24.6511
" />
<path d="M4.4055 24.7250
L4.6643 23.7591
" />
<path d="M4.6643 23.7591
L4.5354 23.8724
" />
<path d="M4.5354 23.8724
L4.4187 23.9398
" />
<path d="M4.4187 23.9398
L4.3144 23.9611
" />
<path d="M5.3813 24.3949
L5.3017 24.3243
" />
<path d="M5.3017 24.3243
L5.2680 24.2659
" />
<path d="M5.2680 24.2659
L5.2467 24.1616
" />
<path d="M5.2467 24.1616
L5.2590 24.1156
" />
<path d="M5.2590 24.1156
L5.3296 24.0359
" />
<path d="M5.3296 24.0359
L5.3880 24.0023
" />
<path d="M5.3880 24.0023
L5.4923 23.9809
" />
<path d="M5.4923 23.9809
L5.6763 24.0302
" />
<path d="M5.6763 24.0302
L5.7559 24.1009
" />
<path d="M5.7559 24.1009
L5.7896 24.1592
" />
<path d="M5.7896 24.1592
L5.8109 24.2635
" />
<path d="M5.8109 24.2635
L5.7986 24.3095
" />
<path d="M5.7986 24.3095
L5.7280 24.3892
" />
<path d="M5.7280 24.3892
L5.6696 24.4228
" />
<path d="M5.6696 24.4228
L5.5653 24.4442
" />
<path d="M5.5653 24.4442
L5.3813 24.3949
" />
<path d="M5.3813 24.3949
L5.2770 24.4162
" />
<path d="M5.2770 24.4162
L5.2187 24.4499
" />
<path d="M5.2187 24.4499
L5.1481 24.5296
" />
<path d="M5.1481 24.5296
L5.0988 24.7136
" />
<path d="M5.0988 24.7136
L5.1201 24.8179
" />
<path d="M5.1201 24.8179
L5.1538 24.8762
" />
<path d="M5.1538 24.8762
L5.2334 24.9469
" />
<path d="M5.2334 24.9469
L5.4174 24.9962
" />
<path d="M5.4174 24.9962
L5.5218 24.9748
" />
<path d="M5.5218 24.9748
L5.5801 24.9411
" />
<path d="M5.5801 24.9411
L5.6507 24.8615
" />
<path d="M5.6507 24.8615
L5.7000 24.6775
" />
<path d="M5.7000 24.6775
L5.6787 24.5732
" />
<path d="M5.6787 24.5732
L5.6450 24.5148
" />
<path d="M5.6450 24.5148
L5.5653 24.4442
" />
</g><g transform="rotate(55.000000 9.7000 21.4000)">
<text x="9.7000" y="21.9000"
textLength="3.1548" font-size="1.3333" lengthAdjust="spacingAndGlyphs"
text-anchor="middle" opacity="0">D14</text>
</g>
<g class="stroked-text"><desc>D14</desc>
<path d="M8.6309 20.6662
L9.4501 20.0926
" />
<path d="M9.4501 20.0926
L9.5867 20.2876
" />
<path d="M9.5867 20.2876
L9.6296 20.4320
" />
<path d="M9.6296 20.4320
L9.6062 20.5646
" />
<path d="M9.6062 20.5646
L9.5555 20.6583
" />
<path d="M9.5555 20.6583
L9.4268 20.8065
" />
<path d="M9.4268 20.8065
L9.3098 20.8885
" />
<path d="M9.3098 20.8885
L9.1264 20.9587
" />
<path d="M9.1264 20.9587
L9.0211 20.9743
" />
<path d="M9.0211 20.9743
L8.8885 20.9509
" />
<path d="M8.8885 20.9509
L8.7675 20.8612
" />
<path d="M8.7675 20.8612
L8.6309 20.6662
" />
<path d="M9.5050 21.9144
L9.1772 21.4463
" />
<path d="M9.3411 21.6804
L10.1602 21.1068
" />
<path d="M10.1602 21.1068
L9.9886 21.1107
" />
<path d="M9.9886 21.1107
L9.8560 21.0873
" />
<path d="M9.8560 21.0873
L9.7623 21.0366
" />
<path d="M10.5427 22.2342
L9.9966 22.6166
" />
<path d="M10.7182 21.8206
L9.9965 22.0353
" />
<path d="M9.9965 22.0353
L10.3516 22.5424
" />
</g><g transform="rotate(65.000000 14.6000 31.8000)">
<text x="14.6000" y="32.3000"
textLength="2.2024" font-size="1.3333" lengthAdjust="spacingAndGlyphs"
text-anchor="middle" opacity="0">C9</text>
</g>
<g class="stroked-text"><desc>C9</desc>
<path d="M14.2037 31.8009
L14.1404 31.7779
" />
<path d="M14.1404 31.7779
L14.0369 31.6685
" />
<path d="M14.0369 31.6685
L13.9966 31.5822
" />
<path d="M13.9966 31.5822
L13.9794 31.4326
" />
<path d="M13.9794 31.4326
L14.0255 31.3061
" />
<path d="M14.0255 31.3061
L14.0916 31.2226
" />
<path d="M14.0916 31.2226
L14.2442 31.0990
" />
<path d="M14.2442 31.0990
L14.3736 31.0386
" />
<path d="M14.3736 31.0386
L14.5664 31.0013
" />
<path d="M14.5664 31.0013
L14.6728 31.0042
" />
<path d="M14.6728 31.0042
L14.7994 31.0503
" />
<path d="M14.7994 31.0503
L14.9029 31.1596
" />
<path d="M14.9029 31.1596
L14.9432 31.2459
" />
<path d="M14.9432 31.2459
L14.9604 31.3955
" />
<path d="M14.9604 31.3955
L14.9373 31.4588
" />
<path d="M14.3186 32.2727
L14.3991 32.4454
" />
<path d="M14.3991 32.4454
L14.4825 32.5116
" />
<path d="M14.4825 32.5116
L14.5458 32.5346
" />
<path d="M14.5458 32.5346
L14.7155 32.5605
" />
<path d="M14.7155 32.5605
L14.9083 32.5232
" />
<path d="M14.9083 32.5232
L15.2535 32.3622
" />
<path d="M15.2535 32.3622
L15.3197 32.2788
" />
<path d="M15.3197 32.2788
L15.3428 32.2155
" />
<path d="M15.3428 32.2155
L15.3457 32.1091
" />
<path d="M15.3457 32.1091
L15.2652 31.9364
" />
<path d="M15.2652 31.9364
L15.1818 31.8702
" />
<path d="M15.1818 31.8702
L15.1185 31.8472
" />
<path d="M15.1185 31.8472
L15.0120 31.8443
" />
<path d="M15.0120 31.8443
L14.7962 31.9449
" />
<path d="M14.7962 31.9449
L14.7301 32.0283
" />
<path d="M14.7301 32.0283
L14.7070 32.0916
" />
<path d="M14.7070 32.0916
L14.7041 32.1981
" />
<path d="M14.7041 32.1981
L14.7846 32.3707
" />
<path d="M14.7846 32.3707
L14.8680 32.4369
" />
<path d="M14.8680 32.4369
L14.9313 32.4599
" />
<path d="M14.9313 32.4599
L15.0377 32.4628
" />
</g><g transform="rotate(-20.000000 3.3289 29.4411)">
<text x="3.3289" y="29.9411"
textLength="3.1548" font-size="1.3333" lengthAdjust="spacingAndGlyphs"
text-anchor="middle" opacity="0">D19</text>
</g>
<g class="stroked-text"><desc>D19</desc>
<path d="M2.3434 30.2838
L2.0013 29.3442
" />
<path d="M2.0013 29.3442
L2.2251 29.2627
" />
<path d="M2.2251 29.2627
L2.3756 29.2586
" />
<path d="M2.3756 29.2586
L2.4977 29.3155
" />
<path d="M2.4977 29.3155
L2.5750 29.3887
" />
<path d="M2.5750 29.3887
L2.6849 29.5514
" />
<path d="M2.6849 29.5514
L2.7337 29.6857
" />
<path d="M2.7337 29.6857
L2.7541 29.8810
" />
<path d="M2.7541 29.8810
L2.7420 29.9867
" />
<path d="M2.7420 29.9867
L2.6850 30.1088
" />
<path d="M2.6850 30.1088
L2.5671 30.2024
" />
<path d="M2.5671 30.2024
L2.3434 30.2838
" />
<path d="M3.7753 29.7627
L3.2383 29.9581
" />
<path d="M3.5068 29.8604
L3.1648 28.9207
" />
<path d="M3.1648 28.9207
L3.1241 29.0875
" />
<path d="M3.1241 29.0875
L3.0672 29.2096
" />
<path d="M3.0672 29.2096
L2.9940 29.2869
" />
<path d="M4.2227 29.5998
L4.4017 29.5347
" />
<path d="M4.4017 29.5347
L4.4749 29.4573
" />
<path d="M4.4749 29.4573
L4.5034 29.3963
" />
<path d="M4.5034 29.3963
L4.5440 29.2295
" />
<path d="M4.5440 29.2295
L4.5236 29.0342
" />
<path d="M4.5236 29.0342
L4.3933 28.6762
" />
<path d="M4.3933 28.6762
L4.3160 28.6030
" />
<path d="M4.3160 28.6030
L4.2550 28.5746
" />
<path d="M4.2550 28.5746
L4.1492 28.5624
" />
<path d="M4.1492 28.5624
L3.9702 28.6275
" />
<path d="M3.9702 28.6275
L3.8970 28.7049
" />
<path d="M3.8970 28.7049
L3.8685 28.7659
" />
<path d="M3.8685 28.7659
L3.8564 28.8717
" />
<path d="M3.8564 28.8717
L3.9378 29.0954
" />
<path d="M3.9378 29.0954
L4.0151 29.1686
" />
<path d="M4.0151 29.1686
L4.0762 29.1971
" />
<path d="M4.0762 29.1971
L4.1819 29.2093
" />
<path d="M4.1819 29.2093
L4.3609 29.1441
" />
<path d="M4.3609 29.1441
L4.4341 29.0668
" />
<path d="M4.4341 29.0668
L4.4626 29.0058
" />
<path d="M4.4626 29.0058
L4.4748 28.9000
" />
</g><g transform="rotate(-80.000000 19.8000 17.5000)">
<text x="19.8000" y="18.0000"
textLength="2.2024" font-size="1.3333" lengthAdjust="spacingAndGlyphs"
text-anchor="middle" opacity="0">D7</text>
</g>
<g class="stroked-text"><desc>D7</desc>
<path d="M20.1197 18.3059
L19.1349 18.1322
" />
<path d="M19.1349 18.1322
L19.1763 17.8977
" />
<path d="M19.1763 17.8977
L19.2480 17.7653
" />
<path d="M19.2480 17.7653
L19.3583 17.6881
" />
<path d="M19.3583 17.6881
L19.4604 17.6577
" />
<path d="M19.4604 17.6577
L19.6562 17.6439
" />
<path d="M19.6562 17.6439
L19.7969 17.6687
" />
<path d="M19.7969 17.6687
L19.9762 17.7487
" />
<path d="M19.9762 17.7487
L20.0617 17.8121
" />
<path d="M20.0617 17.8121
L20.1390 17.9224
" />
<path d="M20.1390 17.9224
L20.1611 18.0714
" />
<path d="M20.1611 18.0714
L20.1197 18.3059
" />
<path d="M19.2920 17.2412
L19.4078 16.5847
" />
<path d="M19.4078 16.5847
L20.3182 17.1804
" />
</g><g transform="rotate(15.000000 29.5677 32.9169)">
<text x="29.5677" y="33.4169"
textLength="2.2024" font-size="1.3333" lengthAdjust="spacingAndGlyphs"
text-anchor="middle" opacity="0">D3</text>
</g>
<g class="stroked-text"><desc>D3</desc>
<path d="M28.7371 33.1651
L28.9959 32.1992
" />
<path d="M28.9959 32.1992
L29.2259 32.2608
" />
<path d="M29.2259 32.2608
L29.3515 32.3438
" />
<path d="M29.3515 32.3438
L29.4189 32.4605
" />
<path d="M29.4189 32.4605
L29.4402 32.5648
" />
<path d="M29.4402 32.5648
L29.4369 32.7611
" />
<path d="M29.4369 32.7611
L29.4000 32.8991
" />
<path d="M29.4000 32.8991
L29.3047 33.0707
" />
<path d="M29.3047 33.0707
L29.2340 33.1504
" />
<path d="M29.2340 33.1504
L29.1174 33.2177
" />
<path d="M29.1174 33.2177
L28.9671 33.2268
" />
<path d="M28.9671 33.2268
L28.7371 33.1651
" />
<path d="M29.8698 32.4334
L30.4678 32.5936
" />
<path d="M30.4678 32.5936
L30.0472 32.8753
" />
<path d="M30.0472 32.8753
L30.1852 32.9123
" />
<path d="M30.1852 32.9123
L30.2649 32.9829
" />
<path d="M30.2649 32.9829
L30.2985 33.0412
" />
<path d="M30.2985 33.0412
L30.3199 33.1456
" />
<path d="M30.3199 33.1456
L30.2583 33.3755
" />
<path d="M30.2583 33.3755
L30.1876 33.4552
" />
<path d="M30.1876 33.4552
L30.1293 33.4889
" />
<path d="M30.1293 33.4889
L30.0250 33.5102
" />
<path d="M30.0250 33.5102
L29.7490 33.4363
" />
<path d="M29.7490 33.4363
L29.6693 33.3656
" />
<path d="M29.6693 33.3656
L29.6357 33.3073
" />
</g><g transform="rotate(85.000000 19.7000 38.0000)">
<text x="19.7000" y="38.5000"
textLength="3.1548" font-size="1.3333" lengthAdjust="spacingAndGlyphs"
text-anchor="middle" opacity="0">D10</text>
</g>
<g class="stroked-text"><desc>D10</desc>
<path d="M19.1411 36.8300
L20.1373 36.7428
" />
<path d="M20.1373 36.7428
L20.1580 36.9800
" />
<path d="M20.1580 36.9800
L20.1230 37.1265
" />
<path d="M20.1230 37.1265
L20.0365 37.2296
" />
<path d="M20.0365 37.2296
L19.9457 37.2854
" />
<path d="M19.9457 37.2854
L19.7601 37.3494
" />
<path d="M19.7601 37.3494
L19.6178 37.3619
" />
<path d="M19.6178 37.3619
L19.4239 37.3310
" />
<path d="M19.4239 37.3310
L19.3249 37.2919
" />
<path d="M19.3249 37.2919
L19.2217 37.2053
" />
<path d="M19.2217 37.2053
L19.1618 37.0672
" />
<path d="M19.1618 37.0672
L19.1411 36.8300
" />
<path d="M19.2739 38.3480
L19.2241 37.7787
" />
<path d="M19.2490 38.0634
L20.2452 37.9762
" />
<path d="M20.2452 37.9762
L20.0946 37.8938
" />
<path d="M20.0946 37.8938
L19.9914 37.8072
" />
<path d="M19.9914 37.8072
L19.9357 37.7165
" />
<path d="M20.3240 38.8775
L20.3323 38.9724
" />
<path d="M20.3323 38.9724
L20.2932 39.0714
" />
<path d="M20.2932 39.0714
L20.2499 39.1230
" />
<path d="M20.2499 39.1230
L20.1592 39.1788
" />
<path d="M20.1592 39.1788
L19.9736 39.2428
" />
<path d="M19.9736 39.2428
L19.7364 39.2635
" />
<path d="M19.7364 39.2635
L19.5425 39.2327
" />
<path d="M19.5425 39.2327
L19.4435 39.1936
" />
<path d="M19.4435 39.1936
L19.3919 39.1503
" />
<path d="M19.3919 39.1503
L19.3361 39.0596
" />
<path d="M19.3361 39.0596
L19.3278 38.9647
" />
<path d="M19.3278 38.9647
L19.3670 38.8657
" />
<path d="M19.3670 38.8657
L19.4103 38.8141
" />
<path d="M19.4103 38.8141
L19.5010 38.7583
" />
<path d="M19.5010 38.7583
L19.6866 38.6943
" />
<path d="M19.6866 38.6943
L19.9238 38.6735
" />
<path d="M19.9238 38.6735
L20.1177 38.7044
" />
<path d="M20.1177 38.7044
L20.2167 38.7435
" />
<path d="M20.2167 38.7435
L20.2683 38.7868
" />
<path d="M20.2683 38.7868
L20.3240 38.8775
" />
</g><g transform="rotate(65.000000 19.5000 30.2000)">
<text x="19.5000" y="30.7000"
textLength="2.2024" font-size="1.3333" lengthAdjust="spacingAndGlyphs"
text-anchor="middle" opacity="0">D9</text>
</g>
<g class="stroked-text"><desc>D9</desc>
<path d="M18.7759 29.7233
L19.6822 29.3007
" />
<path d="M19.6822 29.3007
L19.7828 29.5164
" />
<path d="M19.7828 29.5164
L19.8000 29.6660
" />
<path d="M19.8000 29.6660
L19.7539 29.7926
" />
<path d="M19.7539 29.7926
L19.6878 29.8760
" />
<path d="M19.6878 29.8760
L19.5352 29.9997
" />
<path d="M19.5352 29.9997
L19.4058 30.0600
" />
<path d="M19.4058 30.0600
L19.2130 30.0974
" />
<path d="M19.2130 30.0974
L19.1066 30.0945
" />
<path d="M19.1066 30.0945
L18.9800 30.0484
" />
<path d="M18.9800 30.0484
L18.8765 29.9391
" />
<path d="M18.8765 29.9391
L18.7759 29.7233
" />
<path d="M19.2186 30.6727
L19.2991 30.8454
" />
<path d="M19.2991 30.8454
L19.3825 30.9116
" />
<path d="M19.3825 30.9116
L19.4458 30.9346
" />
<path d="M19.4458 30.9346
L19.6155 30.9605
" />
<path d="M19.6155 30.9605
L19.8083 30.9232
" />
<path d="M19.8083 30.9232
L20.1535 30.7622
" />
<path d="M20.1535 30.7622
L20.2197 30.6788
" />
<path d="M20.2197 30.6788
L20.2428 30.6155
" />
<path d="M20.2428 30.6155
L20.2457 30.5091
" />
<path d="M20.2457 30.5091
L20.1652 30.3364
" />
<path d="M20.1652 30.3364
L20.0818 30.2702
" />
<path d="M20.0818 30.2702
L20.0185 30.2472
" />
<path d="M20.0185 30.2472
L19.9120 30.2443
" />
<path d="M19.9120 30.2443
L19.6962 30.3449
" />
<path d="M19.6962 30.3449
L19.6301 30.4283
" />
<path d="M19.6301 30.4283
L19.6070 30.4916
" />
<path d="M19.6070 30.4916
L19.6041 30.5981
" />
<path d="M19.6041 30.5981
L19.6846 30.7707
" />
<path d="M19.6846 30.7707
L19.7680 30.8369
" />
<path d="M19.7680 30.8369
L19.8313 30.8599
" />
<path d="M19.8313 30.8599
L19.9377 30.8628
" />
</g><g transform="rotate(80.000000 29.3590 23.4259)">
<text x="29.3590" y="23.9259"
textLength="2.2024" font-size="1.3333" lengthAdjust="spacingAndGlyphs"
text-anchor="middle" opacity="0">C2</text>
</g>
<g class="stroked-text"><desc>C2</desc>
<path d="M28.9760 23.3242
L28.9208 23.2855
" />
<path d="M28.9208 23.2855
L28.8491 23.1531
" />
<path d="M28.8491 23.1531
L28.8326 23.0593
" />
<path d="M28.8326 23.0593
L28.8546 22.9104
" />
<path d="M28.8546 22.9104
L28.9319 22.8000
" />
<path d="M28.9319 22.8000
L29.0174 22.7366
" />
<path d="M29.0174 22.7366
L29.1967 22.6566
" />
<path d="M29.1967 22.6566
L29.3374 22.6318
" />
<path d="M29.3374 22.6318
L29.5333 22.6457
" />
<path d="M29.5333 22.6457
L29.6353 22.6760
" />
<path d="M29.6353 22.6760
L29.7457 22.7533
" />
<path d="M29.7457 22.7533
L29.8174 22.8857
" />
<path d="M29.8174 22.8857
L29.8339 22.9795
" />
<path d="M29.8339 22.9795
L29.8118 23.1284
" />
<path d="M29.8118 23.1284
L29.7732 23.1836
" />
<path d="M29.8393 23.5588
L29.8945 23.5974
" />
<path d="M29.8945 23.5974
L29.9579 23.6829
" />
<path d="M29.9579 23.6829
L29.9993 23.9174
" />
<path d="M29.9993 23.9174
L29.9689 24.0194
" />
<path d="M29.9689 24.0194
L29.9303 24.0746
" />
<path d="M29.9303 24.0746
L29.8448 24.1380
" />
<path d="M29.8448 24.1380
L29.7510 24.1546
" />
<path d="M29.7510 24.1546
L29.6020 24.1325
" />
<path d="M29.6020 24.1325
L28.9401 23.6690
" />
<path d="M28.9401 23.6690
L29.0476 24.2786
" />
</g><g transform="rotate(-20.000000 6.0489 33.8642)">
<text x="6.0489" y="34.3642"
textLength="3.1548" font-size="1.3333" lengthAdjust="spacingAndGlyphs"
text-anchor="middle" opacity="0">C19</text>
</g>
<g class="stroked-text"><desc>C19</desc>
<path d="M5.5678 34.4219
L5.5394 34.4830
" />
<path d="M5.5394 34.4830
L5.4214 34.5766
" />
<path d="M5.4214 34.5766
L5.3319 34.6091
" />
<path d="M5.3319 34.6091
L5.1814 34.6133
" />
<path d="M5.1814 34.6133
L5.0593 34.5563
" />
<path d="M5.0593 34.5563
L4.9820 34.4831
" />
<path d="M4.9820 34.4831
L4.8721 34.3204
" />
<path d="M4.8721 34.3204
L4.8233 34.1862
" />
<path d="M4.8233 34.1862
L4.8029 33.9909
" />
<path d="M4.8029 33.9909
L4.8150 33.8851
" />
<path d="M4.8150 33.8851
L4.8720 33.7631
" />
<path d="M4.8720 33.7631
L4.9899 33.6695
" />
<path d="M4.9899 33.6695
L5.0794 33.6369
" />
<path d="M5.0794 33.6369
L5.2299 33.6328
" />
<path d="M5.2299 33.6328
L5.2910 33.6612
" />
<path d="M6.4954 34.1857
L5.9584 34.3811
" />
<path d="M6.2269 34.2834
L5.8849 33.3437
" />
<path d="M5.8849 33.3437
L5.8442 33.5105
" />
<path d="M5.8442 33.5105
L5.7873 33.6326
" />
<path d="M5.7873 33.6326
L5.7141 33.7099
" />
<path d="M6.9428 34.0228
L7.1218 33.9577
" />
<path d="M7.1218 33.9577
L7.1950 33.8804
" />
<path d="M7.1950 33.8804
L7.2235 33.8193
" />
<path d="M7.2235 33.8193
L7.2641 33.6525
" />
<path d="M7.2641 33.6525
L7.2437 33.4572
" />
<path d="M7.2437 33.4572
L7.1134 33.0993
" />
<path d="M7.1134 33.0993
L7.0361 33.0261
" />
<path d="M7.0361 33.0261
L6.9751 32.9976
" />
<path d="M6.9751 32.9976
L6.8693 32.9854
" />
<path d="M6.8693 32.9854
L6.6903 33.0506
" />
<path d="M6.6903 33.0506
L6.6171 33.1279
" />
<path d="M6.6171 33.1279
L6.5886 33.1889
" />
<path d="M6.5886 33.1889
L6.5765 33.2947
" />
<path d="M6.5765 33.2947
L6.6579 33.5184
" />
<path d="M6.6579 33.5184
L6.7352 33.5916
" />
<path d="M6.7352 33.5916
L6.7963 33.6201
" />
<path d="M6.7963 33.6201
L6.9020 33.6323
" />
<path d="M6.9020 33.6323
L7.0810 33.5671
" />
<path d="M7.0810 33.5671
L7.1542 33.4898
" />
<path d="M7.1542 33.4898
L7.1827 33.4288
" />
<path d="M7.1827 33.4288
L7.1949 33.3230
" />
</g><g transform="rotate(40.000000 6.8000 36.7000)">
<text x="6.8000" y="37.2000"
textLength="3.1548" font-size="1.3333" lengthAdjust="spacingAndGlyphs"
text-anchor="middle" opacity="0">D20</text>
</g>
<g class="stroked-text"><desc>D20</desc>
<path d="M5.5775 36.2679
L6.2202 35.5018
" />
<path d="M6.2202 35.5018
L6.4026 35.6549
" />
<path d="M6.4026 35.6549
L6.4815 35.7832
" />
<path d="M6.4815 35.7832
L6.4932 35.9174
" />
<path d="M6.4932 35.9174
L6.4685 36.0209
" />
<path d="M6.4685 36.0209
L6.3825 36.1975
" />
<path d="M6.3825 36.1975
L6.2907 36.3069
" />
<path d="M6.2907 36.3069
L6.1318 36.4222
" />
<path d="M6.1318 36.4222
L6.0341 36.4645
" />
<path d="M6.0341 36.4645
L5.8999 36.4763
" />
<path d="M5.8999 36.4763
L5.7598 36.4209
" />
<path d="M5.7598 36.4209
L5.5775 36.2679
" />
<path d="M6.8886 36.1870
L6.9557 36.1811
" />
<path d="M6.9557 36.1811
L7.0592 36.2058
" />
<path d="M7.0592 36.2058
L7.2416 36.3589
" />
<path d="M7.2416 36.3589
L7.2840 36.4566
" />
<path d="M7.2840 36.4566
L7.2898 36.5237
" />
<path d="M7.2898 36.5237
L7.2651 36.6272
" />
<path d="M7.2651 36.6272
L7.2039 36.7002
" />
<path d="M7.2039 36.7002
L7.0756 36.7790
" />
<path d="M7.0756 36.7790
L6.2705 36.8495
" />
<path d="M6.2705 36.8495
L6.7448 37.2474
" />
<path d="M7.8618 36.8792
L7.9347 36.9405
" />
<path d="M7.9347 36.9405
L7.9771 37.0382
" />
<path d="M7.9771 37.0382
L7.9829 37.1052
" />
<path d="M7.9829 37.1052
L7.9582 37.2088
" />
<path d="M7.9582 37.2088
L7.8722 37.3853
" />
<path d="M7.8722 37.3853
L7.7192 37.5677
" />
<path d="M7.7192 37.5677
L7.5603 37.6830
" />
<path d="M7.5603 37.6830
L7.4626 37.7254
" />
<path d="M7.4626 37.7254
L7.3955 37.7312
" />
<path d="M7.3955 37.7312
L7.2919 37.7065
" />
<path d="M7.2919 37.7065
L7.2190 37.6453
" />
<path d="M7.2190 37.6453
L7.1766 37.5476
" />
<path d="M7.1766 37.5476
L7.1708 37.4805
" />
<path d="M7.1708 37.4805
L7.1955 37.3769
" />
<path d="M7.1955 37.3769
L7.2815 37.2004
" />
<path d="M7.2815 37.2004
L7.4345 37.0180
" />
<path d="M7.4345 37.0180
L7.5934 36.9027
" />
<path d="M7.5934 36.9027
L7.6911 36.8604
" />
<path d="M7.6911 36.8604
L7.7582 36.8545
" />
<path d="M7.7582 36.8545
L7.8618 36.8792
" />
</g><g transform="rotate(-20.000000 14.1000 14.4000)">
<text x="14.1000" y="14.9000"
textLength="3.1548" font-size="1.3333" lengthAdjust="spacingAndGlyphs"
text-anchor="middle" opacity="0">C15</text>
</g>
<g class="stroked-text"><desc>C15</desc>
<path d="M13.6189 14.9578
L13.5904 15.0188
" />
<path d="M13.5904 15.0188
L13.4725 15.1124
" />
<path d="M13.4725 15.1124
L13.3830 15.1450
" />
<path d="M13.3830 15.1450
L13.2325 15.1491
" />
<path d="M13.2325 15.1491
L13.1104 15.0922
" />
<path d="M13.1104 15.0922
L13.0331 15.0190
" />
<path d="M13.0331 15.0190
L12.9232 14.8563
" />
<path d="M12.9232 14.8563
L12.8743 14.7220
" />
<path d="M12.8743 14.7220
L12.8539 14.5267
" />
<path d="M12.8539 14.5267
L12.8661 14.4210
" />
<path d="M12.8661 14.4210
L12.9230 14.2989
" />
<path d="M12.9230 14.2989
L13.0410 14.2053
" />
<path d="M13.0410 14.2053
L13.1305 14.1727
" />
<path d="M13.1305 14.1727
L13.2810 14.1686
" />
<path d="M13.2810 14.1686
L13.3420 14.1971
" />
<path d="M14.5464 14.7215
L14.0094 14.9170
" />
<path d="M14.2779 14.8192
L13.9359 13.8796
" />
<path d="M13.9359 13.8796
L13.8953 14.0464
" />
<path d="M13.8953 14.0464
L13.8384 14.1684
" />
<path d="M13.8384 14.1684
L13.7651 14.2458
" />
<path d="M15.0546 13.4724
L14.6071 13.6353
" />
<path d="M14.6071 13.6353
L14.7252 14.0990
" />
<path d="M14.7252 14.0990
L14.7537 14.0380
" />
<path d="M14.7537 14.0380
L14.8269 13.9607
" />
<path d="M14.8269 13.9607
L15.0506 13.8792
" />
<path d="M15.0506 13.8792
L15.1564 13.8914
" />
<path d="M15.1564 13.8914
L15.2175 13.9199
" />
<path d="M15.2175 13.9199
L15.2948 13.9931
" />
<path d="M15.2948 13.9931
L15.3762 14.2168
" />
<path d="M15.3762 14.2168
L15.3640 14.3226
" />
<path d="M15.3640 14.3226
L15.3356 14.3836
" />
<path d="M15.3356 14.3836
L15.2624 14.4609
" />
<path d="M15.2624 14.4609
L15.0386 14.5424
" />
<path d="M15.0386 14.5424
L14.9329 14.5302
" />
<path d="M14.9329 14.5302
L14.8718 14.5017
" />
</g><g transform="rotate(80.000000 32.2000 23.3000)">
<text x="32.2000" y="23.8000"
textLength="2.2024" font-size="1.3333" lengthAdjust="spacingAndGlyphs"
text-anchor="middle" opacity="0">D2</text>
</g>
<g class="stroked-text"><desc>D2</desc>
<path d="M31.6239 22.6521
L32.6087 22.4784
" />
<path d="M32.6087 22.4784
L32.6501 22.7129
" />
<path d="M32.6501 22.7129
L32.6280 22.8619
" />
<path d="M32.6280 22.8619
L32.5507 22.9722
" />
<path d="M32.5507 22.9722
L32.4652 23.0356
" />
<path d="M32.4652 23.0356
L32.2859 23.1156
" />
<path d="M32.2859 23.1156
L32.1452 23.1404
" />
<path d="M32.1452 23.1404
L31.9494 23.1266
" />
<path d="M31.9494 23.1266
L31.8473 23.0962
" />
<path d="M31.8473 23.0962
L31.7370 23.0190
" />
<path d="M31.7370 23.0190
L31.6653 22.8866
" />
<path d="M31.6653 22.8866
L31.6239 22.6521
" />
<path d="M32.6803 23.4329
L32.7355 23.4715
" />
<path d="M32.7355 23.4715
L32.7989 23.5570
" />
<path d="M32.7989 23.5570
L32.8403 23.7915
" />
<path d="M32.8403 23.7915
L32.8099 23.8936
" />
<path d="M32.8099 23.8936
L32.7713 23.9488
" />
<path d="M32.7713 23.9488
L32.6858 24.0122
" />
<path d="M32.6858 24.0122
L32.5920 24.0287
" />
<path d="M32.5920 24.0287
L32.4430 24.0066
" />
<path d="M32.4430 24.0066
L31.7810 23.5431
" />
<path d="M31.7810 23.5431
L31.8885 24.1528
" />
</g></g>
<g style="fill:none; 
stroke:#000000; stroke-width:0.1000; stroke-opacity:1; 
stroke-linecap:round; stroke-linejoin:round;">
<text x="13.3746" y="15.1254"
textLength="4.1000" font-size="1.3333" lengthAdjust="spacingAndGlyphs"
text-anchor="middle" opacity="0">GND2</text>
<g class="stroked-text"><desc>GND2</desc>
<path d="M12.1365 14.1304
L12.0413 14.0828
" />
<path d="M12.0413 14.0828
L11.8984 14.0828
" />
<path d="M11.8984 14.0828
L11.7556 14.1304
" />
<path d="M11.7556 14.1304
L11.6603 14.2257
" />
<path d="M11.6603 14.2257
L11.6127 14.3209
" />
<path d="M11.6127 14.3209
L11.5651 14.5114
" />
<path d="M11.5651 14.5114
L11.5651 14.6542
" />
<path d="M11.5651 14.6542
L11.6127 14.8447
" />
<path d="M11.6127 14.8447
L11.6603 14.9400
" />
<path d="M11.6603 14.9400
L11.7556 15.0352
" />
<path d="M11.7556 15.0352
L11.8984 15.0828
" />
<path d="M11.8984 15.0828
L11.9936 15.0828
" />
<path d="M11.9936 15.0828
L12.1365 15.0352
" />
<path d="M12.1365 15.0352
L12.1841 14.9876
" />
<path d="M12.1841 14.9876
L12.1841 14.6542
" />
<path d="M12.1841 14.6542
L11.9936 14.6542
" />
<path d="M12.6127 15.0828
L12.6127 14.0828
" />
<path d="M12.6127 14.0828
L13.1841 15.0828
" />
<path d="M13.1841 15.0828
L13.1841 14.0828
" />
<path d="M13.6603 15.0828
L13.6603 14.0828
" />
<path d="M13.6603 14.0828
L13.8984 14.0828
" />
<path d="M13.8984 14.0828
L14.0413 14.1304
" />
<path d="M14.0413 14.1304
L14.1365 14.2257
" />
<path d="M14.1365 14.2257
L14.1841 14.3209
" />
<path d="M14.1841 14.3209
L14.2317 14.5114
" />
<path d="M14.2317 14.5114
L14.2317 14.6542
" />
<path d="M14.2317 14.6542
L14.1841 14.8447
" />
<path d="M14.1841 14.8447
L14.1365 14.9400
" />
<path d="M14.1365 14.9400
L14.0413 15.0352
" />
<path d="M14.0413 15.0352
L13.8984 15.0828
" />
<path d="M13.8984 15.0828
L13.6603 15.0828
" />
<path d="M14.6127 14.1781
L14.6603 14.1304
" />
<path d="M14.6603 14.1304
L14.7556 14.0828
" />
<path d="M14.7556 14.0828
L14.9936 14.0828
" />
<path d="M14.9936 14.0828
L15.0889 14.1304
" />
<path d="M15.0889 14.1304
L15.1365 14.1781
" />
<path d="M15.1365 14.1781
L15.1841 14.2733
" />
<path d="M15.1841 14.2733
L15.1841 14.3685
" />
<path d="M15.1841 14.3685
L15.1365 14.5114
" />
<path d="M15.1365 14.5114
L14.5651 15.0828
" />
<path d="M14.5651 15.0828
L15.1841 15.0828
" />
</g></g>
<g style="fill:none; 
stroke:#000000; stroke-width:0.1500; stroke-opacity:1; 
stroke-linecap:round; stroke-linejoin:round;">
<g transform="rotate(15.000000 14.7000 40.8000)">
<text x="14.7000" y="41.3000"
textLength="3.1548" font-size="1.3333" lengthAdjust="spacingAndGlyphs"
text-anchor="middle" opacity="0">C11</text>
</g>
<g class="stroked-text"><desc>C11</desc>
<path d="M13.9860 40.9809
L13.9277 41.0146
" />
<path d="M13.9277 41.0146
L13.7773 41.0236
" />
<path d="M13.7773 41.0236
L13.6854 40.9990
" />
<path d="M13.6854 40.9990
L13.5597 40.9160
" />
<path d="M13.5597 40.9160
L13.4923 40.7994
" />
<path d="M13.4923 40.7994
L13.4710 40.6951
" />
<path d="M13.4710 40.6951
L13.4743 40.4987
" />
<path d="M13.4743 40.4987
L13.5113 40.3608
" />
<path d="M13.5113 40.3608
L13.6066 40.1891
" />
<path d="M13.6066 40.1891
L13.6772 40.1094
" />
<path d="M13.6772 40.1094
L13.7939 40.0421
" />
<path d="M13.7939 40.0421
L13.9442 40.0331
" />
<path d="M13.9442 40.0331
L14.0362 40.0577
" />
<path d="M14.0362 40.0577
L14.1618 40.1407
" />
<path d="M14.1618 40.1407
L14.1955 40.1990
" />
<path d="M14.8813 41.3194
L14.3293 41.1715
" />
<path d="M14.6053 41.2455
L14.8641 40.2796
" />
<path d="M14.8641 40.2796
L14.7351 40.3929
" />
<path d="M14.7351 40.3929
L14.6185 40.4602
" />
<path d="M14.6185 40.4602
L14.5142 40.4816
" />
<path d="M15.8012 41.5659
L15.2492 41.4180
" />
<path d="M15.5252 41.4920
L15.7840 40.5261
" />
<path d="M15.7840 40.5261
L15.6551 40.6394
" />
<path d="M15.6551 40.6394
L15.5384 40.7067
" />
<path d="M15.5384 40.7067
L15.4341 40.7281
" />
</g><g transform="rotate(55.000000 14.1000 18.7000)">
<text x="14.1000" y="19.2000"
textLength="3.1548" font-size="1.3333" lengthAdjust="spacingAndGlyphs"
text-anchor="middle" opacity="0">C14</text>
</g>
<g class="stroked-text"><desc>C14</desc>
<path d="M13.4367 18.3796
L13.3704 18.3680
" />
<path d="M13.3704 18.3680
L13.2495 18.2782
" />
<path d="M13.2495 18.2782
L13.1948 18.2002
" />
<path d="M13.1948 18.2002
L13.1519 18.0559
" />
<path d="M13.1519 18.0559
L13.1753 17.9233
" />
<path d="M13.1753 17.9233
L13.2260 17.8296
" />
<path d="M13.2260 17.8296
L13.3547 17.6814
" />
<path d="M13.3547 17.6814
L13.4717 17.5994
" />
<path d="M13.4717 17.5994
L13.6551 17.5292
" />
<path d="M13.6551 17.5292
L13.7604 17.5136
" />
<path d="M13.7604 17.5136
L13.8930 17.5369
" />
<path d="M13.8930 17.5369
L14.0140 17.6267
" />
<path d="M14.0140 17.6267
L14.0686 17.7047
" />
<path d="M14.0686 17.7047
L14.1115 17.8490
" />
<path d="M14.1115 17.8490
L14.0998 17.9153
" />
<path d="M13.9050 19.2144
L13.5772 18.7463
" />
<path d="M13.7411 18.9804
L14.5602 18.4068
" />
<path d="M14.5602 18.4068
L14.3886 18.4107
" />
<path d="M14.3886 18.4107
L14.2560 18.3873
" />
<path d="M14.2560 18.3873
L14.1623 18.3366
" />
<path d="M14.9427 19.5342
L14.3966 19.9166
" />
<path d="M15.1182 19.1206
L14.3965 19.3353
" />
<path d="M14.3965 19.3353
L14.7516 19.8424
" />
</g><g transform="rotate(-35.000000 8.0000 9.9000)">
<text x="8.0000" y="10.4000"
textLength="3.1548" font-size="1.3333" lengthAdjust="spacingAndGlyphs"
text-anchor="middle" opacity="0">D16</text>
</g>
<g class="stroked-text"><desc>D16</desc>
<path d="M7.2662 10.9691
L6.6926 10.1499
" />
<path d="M6.6926 10.1499
L6.8876 10.0133
" />
<path d="M6.8876 10.0133
L7.0320 9.9704
" />
<path d="M7.0320 9.9704
L7.1646 9.9938
" />
<path d="M7.1646 9.9938
L7.2583 10.0445
" />
<path d="M7.2583 10.0445
L7.4065 10.1732
" />
<path d="M7.4065 10.1732
L7.4885 10.2902
" />
<path d="M7.4885 10.2902
L7.5587 10.4736
" />
<path d="M7.5587 10.4736
L7.5743 10.5789
" />
<path d="M7.5743 10.5789
L7.5509 10.7115
" />
<path d="M7.5509 10.7115
L7.4612 10.8325
" />
<path d="M7.4612 10.8325
L7.2662 10.9691
" />
<path d="M8.5144 10.0950
L8.0463 10.4228
" />
<path d="M8.2804 10.2589
L7.7068 9.4398
" />
<path d="M7.7068 9.4398
L7.7107 9.6114
" />
<path d="M7.7107 9.6114
L7.6873 9.7440
" />
<path d="M7.6873 9.7440
L7.6366 9.8377
" />
<path d="M8.6430 8.7842
L8.4869 8.8935
" />
<path d="M8.4869 8.8935
L8.4362 8.9871
" />
<path d="M8.4362 8.9871
L8.4245 9.0534
" />
<path d="M8.4245 9.0534
L8.4285 9.2251
" />
<path d="M8.4285 9.2251
L8.4987 9.4084
" />
<path d="M8.4987 9.4084
L8.7172 9.7205
" />
<path d="M8.7172 9.7205
L8.8109 9.7712
" />
<path d="M8.8109 9.7712
L8.8772 9.7829
" />
<path d="M8.8772 9.7829
L8.9825 9.7673
" />
<path d="M8.9825 9.7673
L9.1385 9.6580
" />
<path d="M9.1385 9.6580
L9.1892 9.5644
" />
<path d="M9.1892 9.5644
L9.2009 9.4981
" />
<path d="M9.2009 9.4981
L9.1853 9.3927
" />
<path d="M9.1853 9.3927
L9.0487 9.1977
" />
<path d="M9.0487 9.1977
L8.9551 9.1470
" />
<path d="M8.9551 9.1470
L8.8888 9.1353
" />
<path d="M8.8888 9.1353
L8.7835 9.1509
" />
<path d="M8.7835 9.1509
L8.6274 9.2602
" />
<path d="M8.6274 9.2602
L8.5767 9.3538
" />
<path d="M8.5767 9.3538
L8.5650 9.4201
" />
<path d="M8.5650 9.4201
L8.5807 9.5255
" />
</g><g transform="rotate(30.000000 6.4000 43.7000)">
<text x="6.4000" y="44.2000"
textLength="3.1548" font-size="1.3333" lengthAdjust="spacingAndGlyphs"
text-anchor="middle" opacity="0">D21</text>
</g>
<g class="stroked-text"><desc>D21</desc>
<path d="M5.1210 43.4867
L5.6210 42.6207
" />
<path d="M5.6210 42.6207
L5.8272 42.7398
" />
<path d="M5.8272 42.7398
L5.9271 42.8524
" />
<path d="M5.9271 42.8524
L5.9620 42.9825
" />
<path d="M5.9620 42.9825
L5.9556 43.0888
" />
<path d="M5.9556 43.0888
L5.9016 43.2776
" />
<path d="M5.9016 43.2776
L5.8301 43.4013
" />
<path d="M5.8301 43.4013
L5.6937 43.5424
" />
<path d="M5.6937 43.5424
L5.6048 43.6011
" />
<path d="M5.6048 43.6011
L5.4747 43.6360
" />
<path d="M5.4747 43.6360
L5.3272 43.6058
" />
<path d="M5.3272 43.6058
L5.1210 43.4867
" />
<path d="M6.3982 43.1794
L6.4632 43.1620
" />
<path d="M6.4632 43.1620
L6.5695 43.1683
" />
<path d="M6.5695 43.1683
L6.7757 43.2874
" />
<path d="M6.7757 43.2874
L6.8344 43.3762
" />
<path d="M6.8344 43.3762
L6.8518 43.4413
" />
<path d="M6.8518 43.4413
L6.8454 43.5476
" />
<path d="M6.8454 43.5476
L6.7978 43.6301
" />
<path d="M6.7978 43.6301
L6.6851 43.7300
" />
<path d="M6.6851 43.7300
L5.9045 43.9391
" />
<path d="M5.9045 43.9391
L6.4406 44.2486
" />
<path d="M7.2654 44.7248
L6.7706 44.4391
" />
<path d="M7.0180 44.5820
L7.5180 43.7160
" />
<path d="M7.5180 43.7160
L7.3641 43.7921
" />
<path d="M7.3641 43.7921
L7.2340 43.8269
" />
<path d="M7.2340 43.8269
L7.1277 43.8205
" />
</g><g transform="rotate(-90.000000 12.1400 27.9200)">
<text x="12.1400" y="28.4200"
textLength="3.1548" font-size="1.3333" lengthAdjust="spacingAndGlyphs"
text-anchor="middle" opacity="0">C13</text>
</g>
<g class="stroked-text"><desc>C13</desc>
<path d="M12.4996 28.5629
L12.5472 28.6105
" />
<path d="M12.5472 28.6105
L12.5948 28.7533
" />
<path d="M12.5948 28.7533
L12.5948 28.8486
" />
<path d="M12.5948 28.8486
L12.5472 28.9914
" />
<path d="M12.5472 28.9914
L12.4520 29.0867
" />
<path d="M12.4520 29.0867
L12.3567 29.1343
" />
<path d="M12.3567 29.1343
L12.1662 29.1819
" />
<path d="M12.1662 29.1819
L12.0234 29.1819
" />
<path d="M12.0234 29.1819
L11.8329 29.1343
" />
<path d="M11.8329 29.1343
L11.7377 29.0867
" />
<path d="M11.7377 29.0867
L11.6424 28.9914
" />
<path d="M11.6424 28.9914
L11.5948 28.8486
" />
<path d="M11.5948 28.8486
L11.5948 28.7533
" />
<path d="M11.5948 28.7533
L11.6424 28.6105
" />
<path d="M11.6424 28.6105
L11.6901 28.5629
" />
<path d="M12.5948 27.6105
L12.5948 28.1819
" />
<path d="M12.5948 27.8962
L11.5948 27.8962
" />
<path d="M11.5948 27.8962
L11.7377 27.9914
" />
<path d="M11.7377 27.9914
L11.8329 28.0867
" />
<path d="M11.8329 28.0867
L11.8805 28.1819
" />
<path d="M11.5948 27.2771
L11.5948 26.6581
" />
<path d="M11.5948 26.6581
L11.9758 26.9914
" />
<path d="M11.9758 26.9914
L11.9758 26.8486
" />
<path d="M11.9758 26.8486
L12.0234 26.7533
" />
<path d="M12.0234 26.7533
L12.0710 26.7057
" />
<path d="M12.0710 26.7057
L12.1662 26.6581
" />
<path d="M12.1662 26.6581
L12.4043 26.6581
" />
<path d="M12.4043 26.6581
L12.4996 26.7057
" />
<path d="M12.4996 26.7057
L12.5472 26.7533
" />
<path d="M12.5472 26.7533
L12.5948 26.8486
" />
<path d="M12.5948 26.8486
L12.5948 27.1343
" />
<path d="M12.5948 27.1343
L12.5472 27.2295
" />
<path d="M12.5472 27.2295
L12.4996 27.2771
" />
</g></g>
<g style="fill:none; 
stroke:#000000; stroke-width:0.1000; stroke-opacity:1; 
stroke-linecap:round; stroke-linejoin:round;">
<text x="22.6000" y="31.6000"
textLength="4.1000" font-size="1.3333" lengthAdjust="spacingAndGlyphs"
text-anchor="middle" opacity="0">GND1</text>
<g class="stroked-text"><desc>GND1</desc>
<path d="M21.3619 30.6050
L21.2667 30.5574
" />
<path d="M21.2667 30.5574
L21.1238 30.5574
" />
<path d="M21.1238 30.5574
L20.9810 30.6050
" />
<path d="M20.9810 30.6050
L20.8857 30.7003
" />
<path d="M20.8857 30.7003
L20.8381 30.7955
" />
<path d="M20.8381 30.7955
L20.7905 30.9860
" />
<path d="M20.7905 30.9860
L20.7905 31.1288
" />
<path d="M20.7905 31.1288
L20.8381 31.3193
" />
<path d="M20.8381 31.3193
L20.8857 31.4146
" />
<path d="M20.8857 31.4146
L20.9810 31.5098
" />
<path d="M20.9810 31.5098
L21.1238 31.5574
" />
<path d="M21.1238 31.5574
L21.2190 31.5574
" />
<path d="M21.2190 31.5574
L21.3619 31.5098
" />
<path d="M21.3619 31.5098
L21.4095 31.4622
" />
<path d="M21.4095 31.4622
L21.4095 31.1288
" />
<path d="M21.4095 31.1288
L21.2190 31.1288
" />
<path d="M21.8381 31.5574
L21.8381 30.5574
" />
<path d="M21.8381 30.5574
L22.4095 31.5574
" />
<path d="M22.4095 31.5574
L22.4095 30.5574
" />
<path d="M22.8857 31.5574
L22.8857 30.5574
" />
<path d="M22.8857 30.5574
L23.1238 30.5574
" />
<path d="M23.1238 30.5574
L23.2667 30.6050
" />
<path d="M23.2667 30.6050
L23.3619 30.7003
" />
<path d="M23.3619 30.7003
L23.4095 30.7955
" />
<path d="M23.4095 30.7955
L23.4571 30.9860
" />
<path d="M23.4571 30.9860
L23.4571 31.1288
" />
<path d="M23.4571 31.1288
L23.4095 31.3193
" />
<path d="M23.4095 31.3193
L23.3619 31.4146
" />
<path d="M23.3619 31.4146
L23.2667 31.5098
" />
<path d="M23.2667 31.5098
L23.1238 31.5574
" />
<path d="M23.1238 31.5574
L22.8857 31.5574
" />
<path d="M24.4095 31.5574
L23.8381 31.5574
" />
<path d="M24.1238 31.5574
L24.1238 30.5574
" />
<path d="M24.1238 30.5574
L24.0286 30.7003
" />
<path d="M24.0286 30.7003
L23.9333 30.7955
" />
<path d="M23.9333 30.7955
L23.8381 30.8431
" />
</g><text x="7.3000" y="40.6744"
textLength="4.9095" font-size="1.3333" lengthAdjust="spacingAndGlyphs"
text-anchor="middle" opacity="0">DOUT1</text>
<g class="stroked-text"><desc>DOUT1</desc>
<path d="M5.1333 40.6318
L5.1333 39.6318
" />
<path d="M5.1333 39.6318
L5.3714 39.6318
" />
<path d="M5.3714 39.6318
L5.5143 39.6794
" />
<path d="M5.5143 39.6794
L5.6095 39.7747
" />
<path d="M5.6095 39.7747
L5.6571 39.8699
" />
<path d="M5.6571 39.8699
L5.7048 40.0604
" />
<path d="M5.7048 40.0604
L5.7048 40.2032
" />
<path d="M5.7048 40.2032
L5.6571 40.3937
" />
<path d="M5.6571 40.3937
L5.6095 40.4890
" />
<path d="M5.6095 40.4890
L5.5143 40.5842
" />
<path d="M5.5143 40.5842
L5.3714 40.6318
" />
<path d="M5.3714 40.6318
L5.1333 40.6318
" />
<path d="M6.3238 39.6318
L6.5143 39.6318
" />
<path d="M6.5143 39.6318
L6.6095 39.6794
" />
<path d="M6.6095 39.6794
L6.7048 39.7747
" />
<path d="M6.7048 39.7747
L6.7524 39.9652
" />
<path d="M6.7524 39.9652
L6.7524 40.2985
" />
<path d="M6.7524 40.2985
L6.7048 40.4890
" />
<path d="M6.7048 40.4890
L6.6095 40.5842
" />
<path d="M6.6095 40.5842
L6.5143 40.6318
" />
<path d="M6.5143 40.6318
L6.3238 40.6318
" />
<path d="M6.3238 40.6318
L6.2286 40.5842
" />
<path d="M6.2286 40.5842
L6.1333 40.4890
" />
<path d="M6.1333 40.4890
L6.0857 40.2985
" />
<path d="M6.0857 40.2985
L6.0857 39.9652
" />
<path d="M6.0857 39.9652
L6.1333 39.7747
" />
<path d="M6.1333 39.7747
L6.2286 39.6794
" />
<path d="M6.2286 39.6794
L6.3238 39.6318
" />
<path d="M7.1810 39.6318
L7.1810 40.4413
" />
<path d="M7.1810 40.4413
L7.2286 40.5366
" />
<path d="M7.2286 40.5366
L7.2762 40.5842
" />
<path d="M7.2762 40.5842
L7.3714 40.6318
" />
<path d="M7.3714 40.6318
L7.5619 40.6318
" />
<path d="M7.5619 40.6318
L7.6571 40.5842
" />
<path d="M7.6571 40.5842
L7.7048 40.5366
" />
<path d="M7.7048 40.5366
L7.7524 40.4413
" />
<path d="M7.7524 40.4413
L7.7524 39.6318
" />
<path d="M8.0857 39.6318
L8.6571 39.6318
" />
<path d="M8.3714 40.6318
L8.3714 39.6318
" />
<path d="M9.5143 40.6318
L8.9429 40.6318
" />
<path d="M9.2286 40.6318
L9.2286 39.6318
" />
<path d="M9.2286 39.6318
L9.1333 39.7747
" />
<path d="M9.1333 39.7747
L9.0381 39.8699
" />
<path d="M9.0381 39.8699
L8.9429 39.9175
" />
</g></g>
<g style="fill:none; 
stroke:#000000; stroke-width:0.1500; stroke-opacity:1; 
stroke-linecap:round; stroke-linejoin:round;">
<g transform="rotate(40.000000 3.9000 41.3000)">
<text x="3.9000" y="41.8000"
textLength="3.1548" font-size="1.3333" lengthAdjust="spacingAndGlyphs"
text-anchor="middle" opacity="0">C20</text>
</g>
<g class="stroked-text"><desc>C20</desc>
<path d="M3.1764 41.1622
L3.1093 41.1681
" />
<path d="M3.1093 41.1681
L2.9693 41.1128
" />
<path d="M2.9693 41.1128
L2.8963 41.0515
" />
<path d="M2.8963 41.0515
L2.8175 40.9232
" />
<path d="M2.8175 40.9232
L2.8058 40.7891
" />
<path d="M2.8058 40.7891
L2.8305 40.6855
" />
<path d="M2.8305 40.6855
L2.9165 40.5090
" />
<path d="M2.9165 40.5090
L3.0083 40.3995
" />
<path d="M3.0083 40.3995
L3.1672 40.2842
" />
<path d="M3.1672 40.2842
L3.2649 40.2419
" />
<path d="M3.2649 40.2419
L3.3991 40.2301
" />
<path d="M3.3991 40.2301
L3.5391 40.2855
" />
<path d="M3.5391 40.2855
L3.6121 40.3467
" />
<path d="M3.6121 40.3467
L3.6909 40.4750
" />
<path d="M3.6909 40.4750
L3.6968 40.5421
" />
<path d="M3.9886 40.7870
L4.0557 40.7811
" />
<path d="M4.0557 40.7811
L4.1592 40.8058
" />
<path d="M4.1592 40.8058
L4.3416 40.9589
" />
<path d="M4.3416 40.9589
L4.3840 41.0566
" />
<path d="M4.3840 41.0566
L4.3898 41.1237
" />
<path d="M4.3898 41.1237
L4.3651 41.2272
" />
<path d="M4.3651 41.2272
L4.3039 41.3002
" />
<path d="M4.3039 41.3002
L4.1756 41.3790
" />
<path d="M4.1756 41.3790
L3.3705 41.4495
" />
<path d="M3.3705 41.4495
L3.8448 41.8474
" />
<path d="M4.9618 41.4792
L5.0347 41.5405
" />
<path d="M5.0347 41.5405
L5.0771 41.6382
" />
<path d="M5.0771 41.6382
L5.0829 41.7052
" />
<path d="M5.0829 41.7052
L5.0582 41.8088
" />
<path d="M5.0582 41.8088
L4.9722 41.9853
" />
<path d="M4.9722 41.9853
L4.8192 42.1677
" />
<path d="M4.8192 42.1677
L4.6603 42.2830
" />
<path d="M4.6603 42.2830
L4.5626 42.3254
" />
<path d="M4.5626 42.3254
L4.4955 42.3312
" />
<path d="M4.4955 42.3312
L4.3919 42.3065
" />
<path d="M4.3919 42.3065
L4.3190 42.2453
" />
<path d="M4.3190 42.2453
L4.2766 42.1476
" />
<path d="M4.2766 42.1476
L4.2708 42.0805
" />
<path d="M4.2708 42.0805
L4.2955 41.9769
" />
<path d="M4.2955 41.9769
L4.3815 41.8004
" />
<path d="M4.3815 41.8004
L4.5345 41.6180
" />
<path d="M4.5345 41.6180
L4.6934 41.5027
" />
<path d="M4.6934 41.5027
L4.7911 41.4604
" />
<path d="M4.7911 41.4604
L4.8582 41.4545
" />
<path d="M4.8582 41.4545
L4.9618 41.4792
" />
</g><g transform="rotate(30.000000 3.8000 48.1000)">
<text x="3.8000" y="48.6000"
textLength="3.1548" font-size="1.3333" lengthAdjust="spacingAndGlyphs"
text-anchor="middle" opacity="0">C21</text>
</g>
<g class="stroked-text"><desc>C21</desc>
<path d="M3.0635 48.0900
L2.9984 48.1074
" />
<path d="M2.9984 48.1074
L2.8509 48.0772
" />
<path d="M2.8509 48.0772
L2.7684 48.0296
" />
<path d="M2.7684 48.0296
L2.6685 47.9169
" />
<path d="M2.6685 47.9169
L2.6337 47.7868
" />
<path d="M2.6337 47.7868
L2.6400 47.6805
" />
<path d="M2.6400 47.6805
L2.6940 47.4918
" />
<path d="M2.6940 47.4918
L2.7655 47.3681
" />
<path d="M2.7655 47.3681
L2.9019 47.2269
" />
<path d="M2.9019 47.2269
L2.9908 47.1682
" />
<path d="M2.9908 47.1682
L3.1209 47.1334
" />
<path d="M3.1209 47.1334
L3.2684 47.1636
" />
<path d="M3.2684 47.1636
L3.3509 47.2112
" />
<path d="M3.3509 47.2112
L3.4508 47.3239
" />
<path d="M3.4508 47.3239
L3.4682 47.3889
" />
<path d="M3.7982 47.5794
L3.8632 47.5620
" />
<path d="M3.8632 47.5620
L3.9695 47.5683
" />
<path d="M3.9695 47.5683
L4.1757 47.6874
" />
<path d="M4.1757 47.6874
L4.2344 47.7762
" />
<path d="M4.2344 47.7762
L4.2518 47.8413
" />
<path d="M4.2518 47.8413
L4.2454 47.9476
" />
<path d="M4.2454 47.9476
L4.1978 48.0301
" />
<path d="M4.1978 48.0301
L4.0851 48.1300
" />
<path d="M4.0851 48.1300
L3.3045 48.3391
" />
<path d="M3.3045 48.3391
L3.8406 48.6486
" />
<path d="M4.6654 49.1248
L4.1706 48.8391
" />
<path d="M4.4180 48.9820
L4.9180 48.1160
" />
<path d="M4.9180 48.1160
L4.7641 48.1921
" />
<path d="M4.7641 48.1921
L4.6340 48.2269
" />
<path d="M4.6340 48.2269
L4.5277 48.2205
" />
</g><g transform="rotate(-90.000000 21.7000 27.4000)">
<text x="21.7000" y="27.9000"
textLength="2.2024" font-size="1.3333" lengthAdjust="spacingAndGlyphs"
text-anchor="middle" opacity="0">D5</text>
</g>
<g class="stroked-text"><desc>D5</desc>
<path d="M22.1548 28.1381
L21.1548 28.1381
" />
<path d="M21.1548 28.1381
L21.1548 27.9000
" />
<path d="M21.1548 27.9000
L21.2024 27.7571
" />
<path d="M21.2024 27.7571
L21.2977 27.6619
" />
<path d="M21.2977 27.6619
L21.3929 27.6143
" />
<path d="M21.3929 27.6143
L21.5834 27.5667
" />
<path d="M21.5834 27.5667
L21.7262 27.5667
" />
<path d="M21.7262 27.5667
L21.9167 27.6143
" />
<path d="M21.9167 27.6143
L22.0120 27.6619
" />
<path d="M22.0120 27.6619
L22.1072 27.7571
" />
<path d="M22.1072 27.7571
L22.1548 27.9000
" />
<path d="M22.1548 27.9000
L22.1548 28.1381
" />
<path d="M21.1548 26.6619
L21.1548 27.1381
" />
<path d="M21.1548 27.1381
L21.6310 27.1857
" />
<path d="M21.6310 27.1857
L21.5834 27.1381
" />
<path d="M21.5834 27.1381
L21.5358 27.0429
" />
<path d="M21.5358 27.0429
L21.5358 26.8048
" />
<path d="M21.5358 26.8048
L21.5834 26.7095
" />
<path d="M21.5834 26.7095
L21.6310 26.6619
" />
<path d="M21.6310 26.6619
L21.7262 26.6143
" />
<path d="M21.7262 26.6143
L21.9643 26.6143
" />
<path d="M21.9643 26.6143
L22.0596 26.6619
" />
<path d="M22.0596 26.6619
L22.1072 26.7095
" />
<path d="M22.1072 26.7095
L22.1548 26.8048
" />
<path d="M22.1548 26.8048
L22.1548 27.0429
" />
<path d="M22.1548 27.0429
L22.1072 27.1381
" />
<path d="M22.1072 27.1381
L22.0596 27.1857
" />
</g><g transform="rotate(85.000000 14.3000 38.0000)">
<text x="14.3000" y="38.5000"
textLength="3.1548" font-size="1.3333" lengthAdjust="spacingAndGlyphs"
text-anchor="middle" opacity="0">C10</text>
</g>
<g class="stroked-text"><desc>C10</desc>
<path d="M13.8858 37.3909
L13.8342 37.3476
" />
<path d="M13.8342 37.3476
L13.7743 37.2095
" />
<path d="M13.7743 37.2095
L13.7660 37.1146
" />
<path d="M13.7660 37.1146
L13.8010 36.9681
" />
<path d="M13.8010 36.9681
L13.8875 36.8650
" />
<path d="M13.8875 36.8650
L13.9783 36.8092
" />
<path d="M13.9783 36.8092
L14.1639 36.7452
" />
<path d="M14.1639 36.7452
L14.3062 36.7327
" />
<path d="M14.3062 36.7327
L14.5001 36.7636
" />
<path d="M14.5001 36.7636
L14.5991 36.8027
" />
<path d="M14.5991 36.8027
L14.7023 36.8893
" />
<path d="M14.7023 36.8893
L14.7622 37.0274
" />
<path d="M14.7622 37.0274
L14.7705 37.1223
" />
<path d="M14.7705 37.1223
L14.7355 37.2688
" />
<path d="M14.7355 37.2688
L14.6922 37.3204
" />
<path d="M13.8739 38.3480
L13.8241 37.7787
" />
<path d="M13.8490 38.0634
L14.8452 37.9762
" />
<path d="M14.8452 37.9762
L14.6946 37.8938
" />
<path d="M14.6946 37.8938
L14.5914 37.8072
" />
<path d="M14.5914 37.8072
L14.5357 37.7165
" />
<path d="M14.9240 38.8775
L14.9323 38.9724
" />
<path d="M14.9323 38.9724
L14.8932 39.0714
" />
<path d="M14.8932 39.0714
L14.8499 39.1230
" />
<path d="M14.8499 39.1230
L14.7592 39.1788
" />
<path d="M14.7592 39.1788
L14.5736 39.2428
" />
<path d="M14.5736 39.2428
L14.3364 39.2635
" />
<path d="M14.3364 39.2635
L14.1425 39.2327
" />
<path d="M14.1425 39.2327
L14.0435 39.1936
" />
<path d="M14.0435 39.1936
L13.9919 39.1503
" />
<path d="M13.9919 39.1503
L13.9361 39.0596
" />
<path d="M13.9361 39.0596
L13.9278 38.9647
" />
<path d="M13.9278 38.9647
L13.9670 38.8657
" />
<path d="M13.9670 38.8657
L14.0103 38.8141
" />
<path d="M14.0103 38.8141
L14.1010 38.7583
" />
<path d="M14.1010 38.7583
L14.2866 38.6943
" />
<path d="M14.2866 38.6943
L14.5238 38.6735
" />
<path d="M14.5238 38.6735
L14.7177 38.7044
" />
<path d="M14.7177 38.7044
L14.8167 38.7435
" />
<path d="M14.8167 38.7435
L14.8683 38.7868
" />
<path d="M14.8683 38.7868
L14.9240 38.8775
" />
</g><g transform="rotate(30.000000 10.4000 36.4000)">
<text x="10.4000" y="36.9000"
textLength="3.1548" font-size="1.3333" lengthAdjust="spacingAndGlyphs"
text-anchor="middle" opacity="0">D12</text>
</g>
<g class="stroked-text"><desc>D12</desc>
<path d="M9.1210 36.1867
L9.6210 35.3207
" />
<path d="M9.6210 35.3207
L9.8272 35.4398
" />
<path d="M9.8272 35.4398
L9.9271 35.5524
" />
<path d="M9.9271 35.5524
L9.9620 35.6825
" />
<path d="M9.9620 35.6825
L9.9556 35.7888
" />
<path d="M9.9556 35.7888
L9.9016 35.9776
" />
<path d="M9.9016 35.9776
L9.8301 36.1013
" />
<path d="M9.8301 36.1013
L9.6937 36.2425
" />
<path d="M9.6937 36.2425
L9.6048 36.3011
" />
<path d="M9.6048 36.3011
L9.4747 36.3360
" />
<path d="M9.4747 36.3360
L9.3272 36.3058
" />
<path d="M9.3272 36.3058
L9.1210 36.1867
" />
<path d="M10.4406 36.9486
L9.9458 36.6629
" />
<path d="M10.1932 36.8058
L10.6932 35.9398
" />
<path d="M10.6932 35.9398
L10.5393 36.0159
" />
<path d="M10.5393 36.0159
L10.4092 36.0507
" />
<path d="M10.4092 36.0507
L10.3029 36.0443
" />
<path d="M11.2229 36.3556
L11.2880 36.3381
" />
<path d="M11.2880 36.3381
L11.3943 36.3445
" />
<path d="M11.3943 36.3445
L11.6005 36.4636
" />
<path d="M11.6005 36.4636
L11.6591 36.5524
" />
<path d="M11.6591 36.5524
L11.6766 36.6175
" />
<path d="M11.6766 36.6175
L11.6702 36.7238
" />
<path d="M11.6702 36.7238
L11.6226 36.8062
" />
<path d="M11.6226 36.8062
L11.5099 36.9062
" />
<path d="M11.5099 36.9062
L10.7293 37.1153
" />
<path d="M10.7293 37.1153
L11.2654 37.4248
" />
</g><g transform="rotate(-45.000000 4.0000 14.9000)">
<text x="4.0000" y="15.4000"
textLength="3.1548" font-size="1.3333" lengthAdjust="spacingAndGlyphs"
text-anchor="middle" opacity="0">D17</text>
</g>
<g class="stroked-text"><desc>D17</desc>
<path d="M3.4630 16.0802
L2.7559 15.3731
" />
<path d="M2.7559 15.3731
L2.9242 15.2048
" />
<path d="M2.9242 15.2048
L3.0589 15.1374
" />
<path d="M3.0589 15.1374
L3.1936 15.1374
" />
<path d="M3.1936 15.1374
L3.2946 15.1711
" />
<path d="M3.2946 15.1711
L3.4630 15.2721
" />
<path d="M3.4630 15.2721
L3.5640 15.3731
" />
<path d="M3.5640 15.3731
L3.6650 15.5415
" />
<path d="M3.6650 15.5415
L3.6987 15.6425
" />
<path d="M3.6987 15.6425
L3.6987 15.7772
" />
<path d="M3.6987 15.7772
L3.6313 15.9119
" />
<path d="M3.6313 15.9119
L3.4630 16.0802
" />
<path d="M4.5405 15.0027
L4.1364 15.4068
" />
<path d="M4.3384 15.2048
L3.6313 14.4977
" />
<path d="M3.6313 14.4977
L3.6650 14.6660
" />
<path d="M3.6650 14.6660
L3.6650 14.8007
" />
<path d="M3.6650 14.8007
L3.6313 14.9017
" />
<path d="M4.0691 14.0599
L4.5405 13.5885
" />
<path d="M4.5405 13.5885
L4.9445 14.5987
" />
</g></g>
<g style="fill:none; 
stroke:#000000; stroke-width:0.1000; stroke-opacity:1; 
stroke-linecap:round; stroke-linejoin:round;">
<text x="7.1254" y="33.4902"
textLength="4.1000" font-size="1.3333" lengthAdjust="spacingAndGlyphs"
text-anchor="middle" opacity="0">GND3</text>
<g class="stroked-text"><desc>GND3</desc>
<path d="M5.8873 32.4952
L5.7921 32.4476
" />
<path d="M5.7921 32.4476
L5.6492 32.4476
" />
<path d="M5.6492 32.4476
L5.5064 32.4952
" />
<path d="M5.5064 32.4952
L5.4111 32.5905
" />
<path d="M5.4111 32.5905
L5.3635 32.6857
" />
<path d="M5.3635 32.6857
L5.3159 32.8762
" />
<path d="M5.3159 32.8762
L5.3159 33.0190
" />
<path d="M5.3159 33.0190
L5.3635 33.2095
" />
<path d="M5.3635 33.2095
L5.4111 33.3048
" />
<path d="M5.4111 33.3048
L5.5064 33.4000
" />
<path d="M5.5064 33.4000
L5.6492 33.4476
" />
<path d="M5.6492 33.4476
L5.7444 33.4476
" />
<path d="M5.7444 33.4476
L5.8873 33.4000
" />
<path d="M5.8873 33.4000
L5.9349 33.3524
" />
<path d="M5.9349 33.3524
L5.9349 33.0190
" />
<path d="M5.9349 33.0190
L5.7444 33.0190
" />
<path d="M6.3635 33.4476
L6.3635 32.4476
" />
<path d="M6.3635 32.4476
L6.9349 33.4476
" />
<path d="M6.9349 33.4476
L6.9349 32.4476
" />
<path d="M7.4111 33.4476
L7.4111 32.4476
" />
<path d="M7.4111 32.4476
L7.6492 32.4476
" />
<path d="M7.6492 32.4476
L7.7921 32.4952
" />
<path d="M7.7921 32.4952
L7.8873 32.5905
" />
<path d="M7.8873 32.5905
L7.9349 32.6857
" />
<path d="M7.9349 32.6857
L7.9825 32.8762
" />
<path d="M7.9825 32.8762
L7.9825 33.0190
" />
<path d="M7.9825 33.0190
L7.9349 33.2095
" />
<path d="M7.9349 33.2095
L7.8873 33.3048
" />
<path d="M7.8873 33.3048
L7.7921 33.4000
" />
<path d="M7.7921 33.4000
L7.6492 33.4476
" />
<path d="M7.6492 33.4476
L7.4111 33.4476
" />
<path d="M8.3159 32.4476
L8.9349 32.4476
" />
<path d="M8.9349 32.4476
L8.6016 32.8286
" />
<path d="M8.6016 32.8286
L8.7444 32.8286
" />
<path d="M8.7444 32.8286
L8.8397 32.8762
" />
<path d="M8.8397 32.8762
L8.8873 32.9238
" />
<path d="M8.8873 32.9238
L8.9349 33.0190
" />
<path d="M8.9349 33.0190
L8.9349 33.2571
" />
<path d="M8.9349 33.2571
L8.8873 33.3524
" />
<path d="M8.8873 33.3524
L8.8397 33.4000
" />
<path d="M8.8397 33.4000
L8.7444 33.4476
" />
<path d="M8.7444 33.4476
L8.4587 33.4476
" />
<path d="M8.4587 33.4476
L8.3635 33.4000
" />
<path d="M8.3635 33.4000
L8.3159 33.3524
" />
</g></g>
<g style="fill:none; 
stroke:#000000; stroke-width:0.1500; stroke-opacity:1; 
stroke-linecap:round; stroke-linejoin:round;">
<g transform="rotate(30.000000 10.8000 32.0000)">
<text x="10.8000" y="32.5000"
textLength="3.1548" font-size="1.3333" lengthAdjust="spacingAndGlyphs"
text-anchor="middle" opacity="0">C12</text>
</g>
<g class="stroked-text"><desc>C12</desc>
<path d="M10.0635 31.9900
L9.9984 32.0074
" />
<path d="M9.9984 32.0074
L9.8509 31.9772
" />
<path d="M9.8509 31.9772
L9.7684 31.9296
" />
<path d="M9.7684 31.9296
L9.6685 31.8169
" />
<path d="M9.6685 31.8169
L9.6337 31.6868
" />
<path d="M9.6337 31.6868
L9.6400 31.5805
" />
<path d="M9.6400 31.5805
L9.6940 31.3918
" />
<path d="M9.6940 31.3918
L9.7655 31.2681
" />
<path d="M9.7655 31.2681
L9.9019 31.1269
" />
<path d="M9.9019 31.1269
L9.9908 31.0682
" />
<path d="M9.9908 31.0682
L10.1209 31.0334
" />
<path d="M10.1209 31.0334
L10.2684 31.0636
" />
<path d="M10.2684 31.0636
L10.3509 31.1112
" />
<path d="M10.3509 31.1112
L10.4508 31.2239
" />
<path d="M10.4508 31.2239
L10.4682 31.2889
" />
<path d="M10.8406 32.5486
L10.3458 32.2629
" />
<path d="M10.5932 32.4058
L11.0932 31.5398
" />
<path d="M11.0932 31.5398
L10.9393 31.6159
" />
<path d="M10.9393 31.6159
L10.8092 31.6507
" />
<path d="M10.8092 31.6507
L10.7029 31.6443
" />
<path d="M11.6229 31.9556
L11.6880 31.9381
" />
<path d="M11.6880 31.9381
L11.7943 31.9445
" />
<path d="M11.7943 31.9445
L12.0005 32.0636
" />
<path d="M12.0005 32.0636
L12.0591 32.1524
" />
<path d="M12.0591 32.1524
L12.0766 32.2175
" />
<path d="M12.0766 32.2175
L12.0702 32.3238
" />
<path d="M12.0702 32.3238
L12.0226 32.4062
" />
<path d="M12.0226 32.4062
L11.9099 32.5062
" />
<path d="M11.9099 32.5062
L11.1293 32.7153
" />
<path d="M11.1293 32.7153
L11.6654 33.0248
" />
</g><g transform="rotate(15.000000 29.4366 31.5553)">
<text x="29.4366" y="32.0553"
textLength="2.2024" font-size="1.3333" lengthAdjust="spacingAndGlyphs"
text-anchor="middle" opacity="0">C3</text>
</g>
<g class="stroked-text"><desc>C3</desc>
<path d="M29.1825 31.8595
L29.1242 31.8932
" />
<path d="M29.1242 31.8932
L28.9739 31.9022
" />
<path d="M28.9739 31.9022
L28.8819 31.8775
" />
<path d="M28.8819 31.8775
L28.7562 31.7946
" />
<path d="M28.7562 31.7946
L28.6889 31.6779
" />
<path d="M28.6889 31.6779
L28.6675 31.5736
" />
<path d="M28.6675 31.5736
L28.6709 31.3773
" />
<path d="M28.6709 31.3773
L28.7078 31.2393
" />
<path d="M28.7078 31.2393
L28.8031 31.0676
" />
<path d="M28.8031 31.0676
L28.8738 30.9880
" />
<path d="M28.8738 30.9880
L28.9904 30.9206
" />
<path d="M28.9904 30.9206
L29.1407 30.9116
" />
<path d="M29.1407 30.9116
L29.2327 30.9363
" />
<path d="M29.2327 30.9363
L29.3584 31.0192
" />
<path d="M29.3584 31.0192
L29.3921 31.0775
" />
<path d="M29.7387 31.0718
L30.3366 31.2320
" />
<path d="M30.3366 31.2320
L29.9161 31.5137
" />
<path d="M29.9161 31.5137
L30.0540 31.5507
" />
<path d="M30.0540 31.5507
L30.1337 31.6214
" />
<path d="M30.1337 31.6214
L30.1674 31.6797
" />
<path d="M30.1674 31.6797
L30.1887 31.7840
" />
<path d="M30.1887 31.7840
L30.1271 32.0140
" />
<path d="M30.1271 32.0140
L30.0565 32.0937
" />
<path d="M30.0565 32.0937
L29.9981 32.1273
" />
<path d="M29.9981 32.1273
L29.8938 32.1487
" />
<path d="M29.8938 32.1487
L29.6178 32.0747
" />
<path d="M29.6178 32.0747
L29.5382 32.0041
" />
<path d="M29.5382 32.0041
L29.5045 31.9458
" />
</g><g transform="rotate(30.000000 16.6146 25.5171)">
<text x="16.6146" y="26.0171"
textLength="2.2024" font-size="1.3333" lengthAdjust="spacingAndGlyphs"
text-anchor="middle" opacity="0">D8</text>
</g>
<g class="stroked-text"><desc>D8</desc>
<path d="M15.7480 25.5419
L16.2480 24.6759
" />
<path d="M16.2480 24.6759
L16.4542 24.7949
" />
<path d="M16.4542 24.7949
L16.5541 24.9076
" />
<path d="M16.5541 24.9076
L16.5890 25.0377
" />
<path d="M16.5890 25.0377
L16.5826 25.1440
" />
<path d="M16.5826 25.1440
L16.5286 25.3327
" />
<path d="M16.5286 25.3327
L16.4572 25.4564
" />
<path d="M16.4572 25.4564
L16.3207 25.5976
" />
<path d="M16.3207 25.5976
L16.2318 25.6563
" />
<path d="M16.2318 25.6563
L16.1017 25.6911
" />
<path d="M16.1017 25.6911
L15.9542 25.6609
" />
<path d="M15.9542 25.6609
L15.7480 25.5419
" />
<path d="M17.0235 25.6184
L16.9648 25.5296
" />
<path d="M16.9648 25.5296
L16.9474 25.4645
" />
<path d="M16.9474 25.4645
L16.9537 25.3582
" />
<path d="M16.9537 25.3582
L16.9775 25.3170
" />
<path d="M16.9775 25.3170
L17.0664 25.2583
" />
<path d="M17.0664 25.2583
L17.1315 25.2409
" />
<path d="M17.1315 25.2409
L17.2377 25.2473
" />
<path d="M17.2377 25.2473
L17.4027 25.3425
" />
<path d="M17.4027 25.3425
L17.4614 25.4314
" />
<path d="M17.4614 25.4314
L17.4788 25.4964
" />
<path d="M17.4788 25.4964
L17.4724 25.6027
" />
<path d="M17.4724 25.6027
L17.4486 25.6440
" />
<path d="M17.4486 25.6440
L17.3597 25.7026
" />
<path d="M17.3597 25.7026
L17.2947 25.7201
" />
<path d="M17.2947 25.7201
L17.1884 25.7137
" />
<path d="M17.1884 25.7137
L17.0235 25.6184
" />
<path d="M17.0235 25.6184
L16.9172 25.6121
" />
<path d="M16.9172 25.6121
L16.8521 25.6295
" />
<path d="M16.8521 25.6295
L16.7633 25.6882
" />
<path d="M16.7633 25.6882
L16.6680 25.8531
" />
<path d="M16.6680 25.8531
L16.6616 25.9594
" />
<path d="M16.6616 25.9594
L16.6791 26.0245
" />
<path d="M16.6791 26.0245
L16.7377 26.1133
" />
<path d="M16.7377 26.1133
L16.9027 26.2086
" />
<path d="M16.9027 26.2086
L17.0090 26.2149
" />
<path d="M17.0090 26.2149
L17.0740 26.1975
" />
<path d="M17.0740 26.1975
L17.1629 26.1388
" />
<path d="M17.1629 26.1388
L17.2581 25.9739
" />
<path d="M17.2581 25.9739
L17.2645 25.8676
" />
<path d="M17.2645 25.8676
L17.2471 25.8025
" />
<path d="M17.2471 25.8025
L17.1884 25.7137
" />
</g></g>
<g style="fill:none; 
stroke:#000000; stroke-width:0.1000; stroke-opacity:1; 
stroke-linecap:round; stroke-linejoin:round;">
<text x="7.1254" y="18.9902"
textLength="3.4333" font-size="1.3333" lengthAdjust="spacingAndGlyphs"
text-anchor="middle" opacity="0">VIN2</text>
<g class="stroked-text"><desc>VIN2</desc>
<path d="M5.5540 17.9476
L5.8873 18.9476
" />
<path d="M5.8873 18.9476
L6.2206 17.9476
" />
<path d="M6.5540 18.9476
L6.5540 17.9476
" />
<path d="M7.0302 18.9476
L7.0302 17.9476
" />
<path d="M7.0302 17.9476
L7.6016 18.9476
" />
<path d="M7.6016 18.9476
L7.6016 17.9476
" />
<path d="M8.0302 18.0429
L8.0778 17.9952
" />
<path d="M8.0778 17.9952
L8.1730 17.9476
" />
<path d="M8.1730 17.9476
L8.4111 17.9476
" />
<path d="M8.4111 17.9476
L8.5064 17.9952
" />
<path d="M8.5064 17.9952
L8.5540 18.0429
" />
<path d="M8.5540 18.0429
L8.6016 18.1381
" />
<path d="M8.6016 18.1381
L8.6016 18.2333
" />
<path d="M8.6016 18.2333
L8.5540 18.3762
" />
<path d="M8.5540 18.3762
L7.9825 18.9476
" />
<path d="M7.9825 18.9476
L8.6016 18.9476
" />
</g></g>
<g style="fill:none; 
stroke:#000000; stroke-width:0.1500; stroke-opacity:1; 
stroke-linecap:round; stroke-linejoin:round;">
<g transform="rotate(70.000000 9.5000 13.9000)">
<text x="9.5000" y="14.4000"
textLength="3.1548" font-size="1.3333" lengthAdjust="spacingAndGlyphs"
text-anchor="middle" opacity="0">D15</text>
</g>
<g class="stroked-text"><desc>D15</desc>
<path d="M8.6573 12.9145
L9.5970 12.5725
" />
<path d="M9.5970 12.5725
L9.6784 12.7962
" />
<path d="M9.6784 12.7962
L9.6825 12.9467
" />
<path d="M9.6825 12.9467
L9.6256 13.0688
" />
<path d="M9.6256 13.0688
L9.5524 13.1461
" />
<path d="M9.5524 13.1461
L9.3897 13.2560
" />
<path d="M9.3897 13.2560
L9.2555 13.3049
" />
<path d="M9.2555 13.3049
L9.0602 13.3253
" />
<path d="M9.0602 13.3253
L8.9544 13.3131
" />
<path d="M8.9544 13.3131
L8.8323 13.2562
" />
<path d="M8.8323 13.2562
L8.7387 13.1382
" />
<path d="M8.7387 13.1382
L8.6573 12.9145
" />
<path d="M9.1785 14.3464
L8.9830 13.8094
" />
<path d="M9.0808 14.0779
L10.0204 13.7359
" />
<path d="M10.0204 13.7359
L9.8536 13.6953
" />
<path d="M9.8536 13.6953
L9.7316 13.6384
" />
<path d="M9.7316 13.6384
L9.6542 13.5651
" />
<path d="M10.4276 14.8546
L10.2647 14.4071
" />
<path d="M10.2647 14.4071
L9.8010 14.5252
" />
<path d="M9.8010 14.5252
L9.8620 14.5537
" />
<path d="M9.8620 14.5537
L9.9393 14.6269
" />
<path d="M9.9393 14.6269
L10.0208 14.8506
" />
<path d="M10.0208 14.8506
L10.0086 14.9564
" />
<path d="M10.0086 14.9564
L9.9801 15.0175
" />
<path d="M9.9801 15.0175
L9.9069 15.0948
" />
<path d="M9.9069 15.0948
L9.6832 15.1762
" />
<path d="M9.6832 15.1762
L9.5774 15.1640
" />
<path d="M9.5774 15.1640
L9.5164 15.1356
" />
<path d="M9.5164 15.1356
L9.4391 15.0624
" />
<path d="M9.4391 15.0624
L9.3576 14.8386
" />
<path d="M9.3576 14.8386
L9.3698 14.7329
" />
<path d="M9.3698 14.7329
L9.3983 14.6718
" />
</g><g transform="rotate(30.000000 16.8643 24.0554)">
<text x="16.8643" y="24.5554"
textLength="2.2024" font-size="1.3333" lengthAdjust="spacingAndGlyphs"
text-anchor="middle" opacity="0">C8</text>
</g>
<g class="stroked-text"><desc>C8</desc>
<path d="M16.5402 24.2835
L16.4751 24.3009
" />
<path d="M16.4751 24.3009
L16.3276 24.2707
" />
<path d="M16.3276 24.2707
L16.2451 24.2231
" />
<path d="M16.2451 24.2231
L16.1452 24.1104
" />
<path d="M16.1452 24.1104
L16.1104 23.9803
" />
<path d="M16.1104 23.9803
L16.1167 23.8741
" />
<path d="M16.1167 23.8741
L16.1707 23.6853
" />
<path d="M16.1707 23.6853
L16.2422 23.5616
" />
<path d="M16.2422 23.5616
L16.3786 23.4204
" />
<path d="M16.3786 23.4204
L16.4675 23.3618
" />
<path d="M16.4675 23.3618
L16.5976 23.3269
" />
<path d="M16.5976 23.3269
L16.7451 23.3571
" />
<path d="M16.7451 23.3571
L16.8276 23.4047
" />
<path d="M16.8276 23.4047
L16.9275 23.5174
" />
<path d="M16.9275 23.5174
L16.9449 23.5824
" />
<path d="M17.2731 24.1568
L17.2145 24.0679
" />
<path d="M17.2145 24.0679
L17.1970 24.0029
" />
<path d="M17.1970 24.0029
L17.2034 23.8966
" />
<path d="M17.2034 23.8966
L17.2272 23.8554
" />
<path d="M17.2272 23.8554
L17.3161 23.7967
" />
<path d="M17.3161 23.7967
L17.3811 23.7793
" />
<path d="M17.3811 23.7793
L17.4874 23.7857
" />
<path d="M17.4874 23.7857
L17.6524 23.8809
" />
<path d="M17.6524 23.8809
L17.7111 23.9697
" />
<path d="M17.7111 23.9697
L17.7285 24.0348
" />
<path d="M17.7285 24.0348
L17.7221 24.1411
" />
<path d="M17.7221 24.1411
L17.6983 24.1823
" />
<path d="M17.6983 24.1823
L17.6094 24.2410
" />
<path d="M17.6094 24.2410
L17.5444 24.2584
" />
<path d="M17.5444 24.2584
L17.4381 24.2520
" />
<path d="M17.4381 24.2520
L17.2731 24.1568
" />
<path d="M17.2731 24.1568
L17.1669 24.1504
" />
<path d="M17.1669 24.1504
L17.1018 24.1679
" />
<path d="M17.1018 24.1679
L17.0130 24.2265
" />
<path d="M17.0130 24.2265
L16.9177 24.3915
" />
<path d="M16.9177 24.3915
L16.9113 24.4978
" />
<path d="M16.9113 24.4978
L16.9288 24.5628
" />
<path d="M16.9288 24.5628
L16.9874 24.6517
" />
<path d="M16.9874 24.6517
L17.1524 24.7469
" />
<path d="M17.1524 24.7469
L17.2587 24.7533
" />
<path d="M17.2587 24.7533
L17.3237 24.7359
" />
<path d="M17.3237 24.7359
L17.4126 24.6772
" />
<path d="M17.4126 24.6772
L17.5078 24.5122
" />
<path d="M17.5078 24.5122
L17.5142 24.4059
" />
<path d="M17.5142 24.4059
L17.4968 24.3409
" />
<path d="M17.4968 24.3409
L17.4381 24.2520
" />
</g><g transform="rotate(-90.000000 40.3000 27.1000)">
<text x="40.3000" y="27.6000"
textLength="2.2024" font-size="1.3333" lengthAdjust="spacingAndGlyphs"
text-anchor="middle" opacity="0">D1</text>
</g>
<g class="stroked-text"><desc>D1</desc>
<path d="M40.7548 27.8381
L39.7548 27.8381
" />
<path d="M39.7548 27.8381
L39.7548 27.6000
" />
<path d="M39.7548 27.6000
L39.8024 27.4571
" />
<path d="M39.8024 27.4571
L39.8977 27.3619
" />
<path d="M39.8977 27.3619
L39.9929 27.3143
" />
<path d="M39.9929 27.3143
L40.1834 27.2667
" />
<path d="M40.1834 27.2667
L40.3262 27.2667
" />
<path d="M40.3262 27.2667
L40.5167 27.3143
" />
<path d="M40.5167 27.3143
L40.6120 27.3619
" />
<path d="M40.6120 27.3619
L40.7072 27.4571
" />
<path d="M40.7072 27.4571
L40.7548 27.6000
" />
<path d="M40.7548 27.6000
L40.7548 27.8381
" />
<path d="M40.7548 26.3143
L40.7548 26.8857
" />
<path d="M40.7548 26.6000
L39.7548 26.6000
" />
<path d="M39.7548 26.6000
L39.8977 26.6952
" />
<path d="M39.8977 26.6952
L39.9929 26.7905
" />
<path d="M39.9929 26.7905
L40.0405 26.8857
" />
</g><g transform="rotate(50.000000 27.0000 21.1000)">
<text x="27.0000" y="21.6000"
textLength="2.2024" font-size="1.3333" lengthAdjust="spacingAndGlyphs"
text-anchor="middle" opacity="0">C6</text>
</g>
<g class="stroked-text"><desc>C6</desc>
<path d="M26.6174 21.2035
L26.5503 21.1976
" />
<path d="M26.5503 21.1976
L26.4220 21.1188
" />
<path d="M26.4220 21.1188
L26.3608 21.0458
" />
<path d="M26.3608 21.0458
L26.3055 20.9058
" />
<path d="M26.3055 20.9058
L26.3172 20.7716
" />
<path d="M26.3172 20.7716
L26.3595 20.6739
" />
<path d="M26.3595 20.6739
L26.4748 20.5150
" />
<path d="M26.4748 20.5150
L26.5843 20.4232
" />
<path d="M26.5843 20.4232
L26.7608 20.3372
" />
<path d="M26.7608 20.3372
L26.8644 20.3125
" />
<path d="M26.8644 20.3125
L26.9985 20.3242
" />
<path d="M26.9985 20.3242
L27.1268 20.4030
" />
<path d="M27.1268 20.4030
L27.1881 20.4760
" />
<path d="M27.1881 20.4760
L27.2434 20.6160
" />
<path d="M27.2434 20.6160
L27.2375 20.6831
" />
<path d="M27.8615 21.2785
L27.7390 21.1326
" />
<path d="M27.7390 21.1326
L27.6413 21.0902
" />
<path d="M27.6413 21.0902
L27.5742 21.0844
" />
<path d="M27.5742 21.0844
L27.4036 21.1032
" />
<path d="M27.4036 21.1032
L27.2271 21.1892
" />
<path d="M27.2271 21.1892
L26.9352 21.4341
" />
<path d="M26.9352 21.4341
L26.8929 21.5318
" />
<path d="M26.8929 21.5318
L26.8870 21.5989
" />
<path d="M26.8870 21.5989
L26.9118 21.7024
" />
<path d="M26.9118 21.7024
L27.0342 21.8483
" />
<path d="M27.0342 21.8483
L27.1319 21.8907
" />
<path d="M27.1319 21.8907
L27.1990 21.8965
" />
<path d="M27.1990 21.8965
L27.3025 21.8718
" />
<path d="M27.3025 21.8718
L27.4849 21.7188
" />
<path d="M27.4849 21.7188
L27.5273 21.6211
" />
<path d="M27.5273 21.6211
L27.5332 21.5540
" />
<path d="M27.5332 21.5540
L27.5084 21.4504
" />
<path d="M27.5084 21.4504
L27.3860 21.3045
" />
<path d="M27.3860 21.3045
L27.2883 21.2622
" />
<path d="M27.2883 21.2622
L27.2212 21.2563
" />
<path d="M27.2212 21.2563
L27.1176 21.2810
" />
</g><g transform="rotate(-45.000000 7.2000 19.0000)">
<text x="7.2000" y="19.5000"
textLength="3.1548" font-size="1.3333" lengthAdjust="spacingAndGlyphs"
text-anchor="middle" opacity="0">C17</text>
</g>
<g class="stroked-text"><desc>C17</desc>
<path d="M6.9997 19.7088
L6.9997 19.7762
" />
<path d="M6.9997 19.7762
L6.9323 19.9109
" />
<path d="M6.9323 19.9109
L6.8650 19.9782
" />
<path d="M6.8650 19.9782
L6.7303 20.0455
" />
<path d="M6.7303 20.0455
L6.5956 20.0455
" />
<path d="M6.5956 20.0455
L6.4946 20.0119
" />
<path d="M6.4946 20.0119
L6.3263 19.9109
" />
<path d="M6.3263 19.9109
L6.2252 19.8098
" />
<path d="M6.2252 19.8098
L6.1242 19.6415
" />
<path d="M6.1242 19.6415
L6.0906 19.5405
" />
<path d="M6.0906 19.5405
L6.0906 19.4058
" />
<path d="M6.0906 19.4058
L6.1579 19.2711
" />
<path d="M6.1579 19.2711
L6.2252 19.2038
" />
<path d="M6.2252 19.2038
L6.3599 19.1364
" />
<path d="M6.3599 19.1364
L6.4273 19.1364
" />
<path d="M7.7405 19.1027
L7.3364 19.5068
" />
<path d="M7.5384 19.3048
L6.8313 18.5977
" />
<path d="M6.8313 18.5977
L6.8650 18.7660
" />
<path d="M6.8650 18.7660
L6.8650 18.9007
" />
<path d="M6.8650 18.9007
L6.8313 19.0017
" />
<path d="M7.2691 18.1599
L7.7405 17.6885
" />
<path d="M7.7405 17.6885
L8.1445 18.6987
" />
</g><g transform="rotate(-45.000000 23.6808 33.8202)">
<text x="23.6808" y="34.3202"
textLength="2.2024" font-size="1.3333" lengthAdjust="spacingAndGlyphs"
text-anchor="middle" opacity="0">C4</text>
</g>
<g class="stroked-text"><desc>C4</desc>
<path d="M23.8172 34.1924
L23.8172 34.2597
" />
<path d="M23.8172 34.2597
L23.7499 34.3944
" />
<path d="M23.7499 34.3944
L23.6826 34.4617
" />
<path d="M23.6826 34.4617
L23.5479 34.5291
" />
<path d="M23.5479 34.5291
L23.4132 34.5291
" />
<path d="M23.4132 34.5291
L23.3122 34.4954
" />
<path d="M23.3122 34.4954
L23.1438 34.3944
" />
<path d="M23.1438 34.3944
L23.0428 34.2934
" />
<path d="M23.0428 34.2934
L22.9418 34.1250
" />
<path d="M22.9418 34.1250
L22.9081 34.0240
" />
<path d="M22.9081 34.0240
L22.9081 33.8893
" />
<path d="M22.9081 33.8893
L22.9754 33.7546
" />
<path d="M22.9754 33.7546
L23.0428 33.6873
" />
<path d="M23.0428 33.6873
L23.1775 33.6199
" />
<path d="M23.1775 33.6199
L23.2448 33.6199
" />
<path d="M24.0193 33.1822
L24.4907 33.6536
" />
<path d="M23.5815 33.0812
L23.9183 33.7546
" />
<path d="M23.9183 33.7546
L24.3560 33.3169
" />
</g><g transform="rotate(15.000000 10.3000 43.7000)">
<text x="10.3000" y="44.2000"
textLength="3.1548" font-size="1.3333" lengthAdjust="spacingAndGlyphs"
text-anchor="middle" opacity="0">D11</text>
</g>
<g class="stroked-text"><desc>D11</desc>
<path d="M9.0094 43.8250
L9.2682 42.8591
" />
<path d="M9.2682 42.8591
L9.4982 42.9207
" />
<path d="M9.4982 42.9207
L9.6238 43.0037
" />
<path d="M9.6238 43.0037
L9.6912 43.1204
" />
<path d="M9.6912 43.1204
L9.7125 43.2247
" />
<path d="M9.7125 43.2247
L9.7092 43.4210
" />
<path d="M9.7092 43.4210
L9.6723 43.5590
" />
<path d="M9.6723 43.5590
L9.5770 43.7306
" />
<path d="M9.5770 43.7306
L9.5063 43.8103
" />
<path d="M9.5063 43.8103
L9.3897 43.8776
" />
<path d="M9.3897 43.8776
L9.2394 43.8867
" />
<path d="M9.2394 43.8867
L9.0094 43.8250
" />
<path d="M10.4813 44.2194
L9.9293 44.0715
" />
<path d="M10.2053 44.1455
L10.4641 43.1796
" />
<path d="M10.4641 43.1796
L10.3351 43.2929
" />
<path d="M10.3351 43.2929
L10.2185 43.3602
" />
<path d="M10.2185 43.3602
L10.1142 43.3816
" />
<path d="M11.4012 44.4659
L10.8492 44.3180
" />
<path d="M11.1252 44.3920
L11.3840 43.4261
" />
<path d="M11.3840 43.4261
L11.2551 43.5394
" />
<path d="M11.2551 43.5394
L11.1384 43.6067
" />
<path d="M11.1384 43.6067
L11.0341 43.6281
" />
</g><g transform="rotate(-90.000000 27.1000 27.6000)">
<text x="27.1000" y="28.1000"
textLength="2.2024" font-size="1.3333" lengthAdjust="spacingAndGlyphs"
text-anchor="middle" opacity="0">C5</text>
</g>
<g class="stroked-text"><desc>C5</desc>
<path d="M27.4596 27.7667
L27.5072 27.8143
" />
<path d="M27.5072 27.8143
L27.5548 27.9571
" />
<path d="M27.5548 27.9571
L27.5548 28.0524
" />
<path d="M27.5548 28.0524
L27.5072 28.1952
" />
<path d="M27.5072 28.1952
L27.4120 28.2905
" />
<path d="M27.4120 28.2905
L27.3167 28.3381
" />
<path d="M27.3167 28.3381
L27.1262 28.3857
" />
<path d="M27.1262 28.3857
L26.9834 28.3857
" />
<path d="M26.9834 28.3857
L26.7929 28.3381
" />
<path d="M26.7929 28.3381
L26.6977 28.2905
" />
<path d="M26.6977 28.2905
L26.6024 28.1952
" />
<path d="M26.6024 28.1952
L26.5548 28.0524
" />
<path d="M26.5548 28.0524
L26.5548 27.9571
" />
<path d="M26.5548 27.9571
L26.6024 27.8143
" />
<path d="M26.6024 27.8143
L26.6501 27.7667
" />
<path d="M26.5548 26.8619
L26.5548 27.3381
" />
<path d="M26.5548 27.3381
L27.0310 27.3857
" />
<path d="M27.0310 27.3857
L26.9834 27.3381
" />
<path d="M26.9834 27.3381
L26.9358 27.2429
" />
<path d="M26.9358 27.2429
L26.9358 27.0048
" />
<path d="M26.9358 27.0048
L26.9834 26.9095
" />
<path d="M26.9834 26.9095
L27.0310 26.8619
" />
<path d="M27.0310 26.8619
L27.1262 26.8143
" />
<path d="M27.1262 26.8143
L27.3643 26.8143
" />
<path d="M27.3643 26.8143
L27.4596 26.8619
" />
<path d="M27.4596 26.8619
L27.5072 26.9095
" />
<path d="M27.5072 26.9095
L27.5548 27.0048
" />
<path d="M27.5548 27.0048
L27.5548 27.2429
" />
<path d="M27.5548 27.2429
L27.5072 27.3381
" />
<path d="M27.5072 27.3381
L27.4596 27.3857
" />
</g><g transform="rotate(15.000000 5.7000 21.8000)">
<text x="5.7000" y="22.3000"
textLength="3.1548" font-size="1.3333" lengthAdjust="spacingAndGlyphs"
text-anchor="middle" opacity="0">D18</text>
</g>
<g class="stroked-text"><desc>D18</desc>
<path d="M4.4094 21.9250
L4.6682 20.9591
" />
<path d="M4.6682 20.9591
L4.8982 21.0207
" />
<path d="M4.8982 21.0207
L5.0238 21.1037
" />
<path d="M5.0238 21.1037
L5.0912 21.2204
" />
<path d="M5.0912 21.2204
L5.1125 21.3247
" />
<path d="M5.1125 21.3247
L5.1092 21.5210
" />
<path d="M5.1092 21.5210
L5.0723 21.6590
" />
<path d="M5.0723 21.6590
L4.9770 21.8306
" />
<path d="M4.9770 21.8306
L4.9063 21.9103
" />
<path d="M4.9063 21.9103
L4.7897 21.9776
" />
<path d="M4.7897 21.9776
L4.6394 21.9867
" />
<path d="M4.6394 21.9867
L4.4094 21.9250
" />
<path d="M5.8813 22.3194
L5.3293 22.1715
" />
<path d="M5.6053 22.2455
L5.8641 21.2796
" />
<path d="M5.8641 21.2796
L5.7351 21.3929
" />
<path d="M5.7351 21.3929
L5.6185 21.4602
" />
<path d="M5.6185 21.4602
L5.5142 21.4816
" />
<path d="M6.5811 21.9154
L6.5014 21.8447
" />
<path d="M6.5014 21.8447
L6.4678 21.7864
" />
<path d="M6.4678 21.7864
L6.4464 21.6821
" />
<path d="M6.4464 21.6821
L6.4588 21.6361
" />
<path d="M6.4588 21.6361
L6.5294 21.5564
" />
<path d="M6.5294 21.5564
L6.5877 21.5227
" />
<path d="M6.5877 21.5227
L6.6920 21.5014
" />
<path d="M6.6920 21.5014
L6.8760 21.5507
" />
<path d="M6.8760 21.5507
L6.9557 21.6213
" />
<path d="M6.9557 21.6213
L6.9894 21.6797
" />
<path d="M6.9894 21.6797
L7.0107 21.7840
" />
<path d="M7.0107 21.7840
L6.9984 21.8300
" />
<path d="M6.9984 21.8300
L6.9277 21.9097
" />
<path d="M6.9277 21.9097
L6.8694 21.9433
" />
<path d="M6.8694 21.9433
L6.7651 21.9647
" />
<path d="M6.7651 21.9647
L6.5811 21.9154
" />
<path d="M6.5811 21.9154
L6.4768 21.9367
" />
<path d="M6.4768 21.9367
L6.4185 21.9704
" />
<path d="M6.4185 21.9704
L6.3478 22.0501
" />
<path d="M6.3478 22.0501
L6.2985 22.2340
" />
<path d="M6.2985 22.2340
L6.3199 22.3384
" />
<path d="M6.3199 22.3384
L6.3535 22.3967
" />
<path d="M6.3535 22.3967
L6.4332 22.4673
" />
<path d="M6.4332 22.4673
L6.6172 22.5166
" />
<path d="M6.6172 22.5166
L6.7215 22.4953
" />
<path d="M6.7215 22.4953
L6.7798 22.4616
" />
<path d="M6.7798 22.4616
L6.8505 22.3819
" />
<path d="M6.8505 22.3819
L6.8998 22.1980
" />
<path d="M6.8998 22.1980
L6.8784 22.0936
" />
<path d="M6.8784 22.0936
L6.8448 22.0353
" />
<path d="M6.8448 22.0353
L6.7651 21.9647
" />
</g></g>
<g style="fill:none; 
stroke:#000000; stroke-width:0.1000; stroke-opacity:1; 
stroke-linecap:round; stroke-linejoin:round;">
<text x="26.1254" y="22.8000"
textLength="3.4333" font-size="1.3333" lengthAdjust="spacingAndGlyphs"
text-anchor="middle" opacity="0">VIN1</text>
<g class="stroked-text"><desc>VIN1</desc>
<path d="M24.5540 21.7574
L24.8873 22.7574
" />
<path d="M24.8873 22.7574
L25.2206 21.7574
" />
<path d="M25.5540 22.7574
L25.5540 21.7574
" />
<path d="M26.0302 22.7574
L26.0302 21.7574
" />
<path d="M26.0302 21.7574
L26.6016 22.7574
" />
<path d="M26.6016 22.7574
L26.6016 21.7574
" />
<path d="M27.6016 22.7574
L27.0302 22.7574
" />
<path d="M27.3159 22.7574
L27.3159 21.7574
" />
<path d="M27.3159 21.7574
L27.2206 21.9003
" />
<path d="M27.2206 21.9003
L27.1254 21.9955
" />
<path d="M27.1254 21.9955
L27.0302 22.0431
" />
</g></g>
<g style="fill:none; 
stroke:#000000; stroke-width:0.1200; stroke-opacity:1; 
stroke-linecap:round; stroke-linejoin:round;">
<path d="M33.3364 27.7200
L33.6436 27.7200
" />
<path d="M33.3364 28.4800
L33.6436 28.4800
" />
<path d="M22.0327 34.7759
L22.4924 35.2355
" />
<path d="M22.0327 34.7759
L24.0409 32.7677
" />
<path d="M23.6591 36.4023
L25.6673 34.3941
" />
<path d="M37.8400 27.9078
L37.8400 27.6922
" />
<path d="M38.5600 27.9078
L38.5600 27.6922
" />
</g>
<g style="fill:none; 
stroke:#000000; stroke-width:0.1000; stroke-opacity:1; 
stroke-linecap:round; stroke-linejoin:round;">
<circle cx="12.8000" cy="38.4000" r="0.9705" /> 
<path style="fill:none; 
stroke:#000000; stroke-width:0.1000; stroke-opacity:1; 
stroke-linecap:round; stroke-linejoin:round;fill:none"
d="M 30.0618,26.4618
31.7382,26.4618
31.7382,28.1382
30.0618,28.1382
Z" /> 
</g>
<g style="fill:none; 
stroke:#000000; stroke-width:0.1200; stroke-opacity:1; 
stroke-linecap:round; stroke-linejoin:round;">
<path d="M10.2292 25.9650
L10.2292 28.8050
" />
<path d="M12.5292 25.9650
L11.8792 25.9650
" />
<path d="M12.5292 25.9650
L12.5292 28.8050
" />
<path d="M4.4818 7.1433
L4.3052 7.2670
" />
<path d="M4.8948 7.7330
L4.7182 7.8567
" />
<path d="M22.0563 19.8364
L23.8818 22.0120
" />
<path d="M23.8182 18.3580
L23.3203 18.7758
" />
<path d="M23.8182 18.3580
L25.6437 20.5336
" />
<path d="M4.0027 25.7198
L4.2110 25.7756
" />
<path d="M4.1890 25.0244
L4.3973 25.0802
" />
<path d="M9.6643 19.7114
L11.2932 22.0378
" />
<path d="M11.5483 18.3922
L11.0159 18.7650
" />
<path d="M11.5483 18.3922
L13.1773 20.7186
" />
<path d="M15.3310 31.2894
L15.4222 31.4849
" />
<path d="M15.9836 30.9852
L16.0747 31.1806
" />
<path d="M6.0849 29.4187
L3.4162 30.3900
" />
<path d="M6.8715 31.5800
L4.2028 32.5513
" />
<path d="M6.8715 31.5800
L6.6492 30.9692
" />
<path d="M15.5642 15.5313
L15.5267 15.7437
" />
<path d="M16.2733 15.6563
L16.2358 15.8687
" />
<path d="M16.2355 17.7837
L16.7287 14.9869
" />
<path d="M16.2355 17.7837
L16.8756 17.8966
" />
<path d="M18.5006 18.1831
L18.9937 15.3863
" />
<path d="M31.1594 32.4633
L28.4161 31.7283
" />
<path d="M31.1594 32.4633
L31.3276 31.8355
" />
<path d="M31.7546 30.2417
L29.0114 29.5067
" />
<path d="M16.5928 39.6998
L16.3452 36.8706
" />
<path d="M16.5928 39.6998
L17.2403 39.6432
" />
<path d="M18.8840 39.4994
L18.6365 36.6702
" />
<path d="M17.1725 32.7580
L15.9722 30.1841
" />
<path d="M17.1725 32.7580
L17.7616 32.4833
" />
<path d="M19.2570 31.7859
L18.0568 29.2120
" />
<path d="M27.8434 23.5836
L27.8808 23.7960
" />
<path d="M28.5525 23.4586
L28.5899 23.6710
" />
<path d="M5.0755 32.5986
L5.2782 32.5248
" />
<path d="M5.3218 33.2752
L5.5245 33.2014
" />
<path d="M5.4924 39.9787
L3.3169 38.1532
" />
<path d="M5.4924 39.9787
L5.9102 39.4808
" />
<path d="M6.9708 38.2168
L4.7953 36.3913
" />
<path d="M12.9986 13.0245
L12.9248 12.8218
" />
<path d="M13.6752 12.7782
L13.6014 12.5755
" />
<path d="M29.1994 25.3831
L28.7063 22.5863
" />
<path d="M29.1994 25.3831
L29.8396 25.2703
" />
<path d="M31.4645 24.9837
L30.9713 22.1869
" />
</g>
<g style="fill:none; 
stroke:#000000; stroke-width:0.1000; stroke-opacity:1; 
stroke-linecap:round; stroke-linejoin:round;">
<circle cx="13.5000" cy="16.4000" r="0.9705" /> 
</g>
<g style="fill:none; 
stroke:#000000; stroke-width:0.1200; stroke-opacity:1; 
stroke-linecap:round; stroke-linejoin:round;">
<path d="M12.2110 40.4756
L12.0027 40.4198
" />
<path d="M12.3973 39.7802
L12.1890 39.7244
" />
<path d="M13.0670 19.8948
L12.9433 19.7182
" />
<path d="M13.6567 19.4818
L13.5330 19.3052
" />
<path d="M3.3210 9.2575
L3.6939 9.7899
" />
<path d="M3.3210 9.2575
L5.6474 7.6285
" />
<path d="M4.6403 11.1415
L6.9667 9.5125
" />
<path d="M5.7986 47.0909
L3.3391 45.6709
" />
<path d="M5.7986 47.0909
L6.1236 46.5280
" />
<path d="M6.9486 45.0991
L4.4891 43.6791
" />
<path d="M12.9400 28.0278
L12.9400 27.8122
" />
<path d="M13.6600 28.0278
L13.6600 27.8122
" />
</g>
<g style="fill:none; 
stroke:#000000; stroke-width:0.1000; stroke-opacity:1; 
stroke-linecap:round; stroke-linejoin:round;">
<circle cx="25.6000" cy="31.0000" r="0.9705" /> 
<path style="fill:none; 
stroke:#000000; stroke-width:0.1000; stroke-opacity:1; 
stroke-linecap:round; stroke-linejoin:round;fill:none"
d="M 6.4618,40.9364
8.1382,40.9364
8.1382,42.6128
6.4618,42.6128
Z" /> 
</g>
<g style="fill:none; 
stroke:#000000; stroke-width:0.1200; stroke-opacity:1; 
stroke-linecap:round; stroke-linejoin:round;">
<path d="M3.2860 39.5065
L3.4512 39.6451
" />
<path d="M3.7488 38.9549
L3.9140 39.0935
" />
<path d="M3.7266 46.9579
L3.9134 47.0657
" />
<path d="M4.0866 46.3343
L4.2734 46.4421
" />
<path d="M25.0000 25.9650
L25.0000 28.8050
" />
<path d="M25.0000 25.9650
L24.3500 25.9650
" />
<path d="M22.7000 25.9650
L22.7000 28.8050
" />
<path d="M15.2901 37.7458
L15.3089 37.9606
" />
<path d="M16.0074 37.6830
L16.0262 37.8979
" />
<path d="M9.5745 34.8709
L12.0340 36.2909
" />
<path d="M10.7245 32.8791
L10.3995 33.4420
" />
<path d="M10.7245 32.8791
L13.1840 34.2991
" />
<path d="M5.3348 14.7677
L3.3266 16.7759
" />
<path d="M6.9611 16.3941
L4.9529 18.4023
" />
<path d="M6.9611 16.3941
L6.5015 15.9345
" />
</g>
<g style="fill:none; 
stroke:#000000; stroke-width:0.1000; stroke-opacity:1; 
stroke-linecap:round; stroke-linejoin:round;">
<circle cx="7.1000" cy="35.2000" r="0.9705" /> 
</g>
<g style="fill:none; 
stroke:#000000; stroke-width:0.1200; stroke-opacity:1; 
stroke-linecap:round; stroke-linejoin:round;">
<path d="M12.7977 33.5257
L12.6109 33.4179
" />
<path d="M13.1577 32.9021
L12.9709 32.7943
" />
<path d="M28.9390 32.9956
L29.1473 33.0514
" />
<path d="M29.1254 32.3001
L29.3337 32.3559
" />
<path d="M18.2694 25.4909
L15.8099 24.0709
" />
<path d="M18.2694 25.4909
L18.5944 24.9280
" />
<path d="M19.4194 23.4991
L16.9599 22.0791
" />
</g>
<g style="fill:none; 
stroke:#000000; stroke-width:0.1000; stroke-opacity:1; 
stroke-linecap:round; stroke-linejoin:round;">
<circle cx="7.1000" cy="20.7000" r="0.9705" /> 
</g>
<g style="fill:none; 
stroke:#000000; stroke-width:0.1200; stroke-opacity:1; 
stroke-linecap:round; stroke-linejoin:round;">
<path d="M9.8187 12.0797
L10.7900 14.7485
" />
<path d="M11.9800 11.2931
L11.3692 11.5154
" />
<path d="M11.9800 11.2931
L12.9513 13.9618
" />
<path d="M16.0109 25.3179
L16.1977 25.4257
" />
<path d="M16.3709 24.6943
L16.5577 24.8021
" />
<path d="M35.1708 25.9650
L35.1708 28.8050
" />
<path d="M37.4708 25.9650
L36.8208 25.9650
" />
<path d="M37.4708 25.9650
L37.4708 28.8050
" />
<path d="M25.4935 19.8140
L25.3549 19.6488
" />
<path d="M26.0451 19.3512
L25.9065 19.1860
" />
<path d="M5.7692 18.1217
L5.9217 17.9692
" />
<path d="M6.2783 18.6308
L6.4308 18.4783
" />
<path d="M22.6823 32.6692
L22.5298 32.8217
" />
<path d="M23.1914 33.1783
L23.0389 33.3308
" />
<path d="M9.7100 42.5283
L12.4532 43.2633
" />
<path d="M10.3053 40.3067
L10.1370 40.9345
" />
<path d="M10.3053 40.3067
L13.0485 41.0417
" />
<path d="M25.3400 28.1078
L25.3400 27.8922
" />
<path d="M26.0600 28.1078
L26.0600 27.8922
" />
<path d="M6.2178 25.2633
L3.4746 24.5283
" />
<path d="M6.2178 25.2633
L6.3861 24.6355
" />
<path d="M6.8131 23.0417
L4.0699 22.3067
" />
</g>
<g style="fill:none; 
stroke:#000000; stroke-width:0.1000; stroke-opacity:1; 
stroke-linecap:round; stroke-linejoin:round;">
<circle cx="26.1000" cy="23.8000" r="0.9705" /> 
</g>
<g style="fill:none; 
stroke:#000000; stroke-width:0.2000; stroke-opacity:1; 
stroke-linecap:round; stroke-linejoin:round;">
<path d="M3.6553 4.8229
L3.7440 4.8683
" />
<path d="M2.7878 4.8445
L2.8787 4.8035
" />
<path d="M3.1693 50.0328
L3.0704 50.0204
" />
<path d="M41.7328 27.2360
L41.7428 27.3352
" />
<path d="M3.1693 4.7372
L3.2689 4.7347
" />
<path d="M3.7440 49.9017
L3.6553 49.9471
" />
<path d="M41.2440 26.5190
L41.3277 26.5731
" />
<path d="M3.5625 49.9836
L3.4665 50.0106
" />
<path d="M3.2689 4.7347
L3.3683 4.7421
" />
<path d="M2.5458 49.7515
L2.4780 49.6784
" />
<path d="M2.2638 5.5362
L2.2884 5.4396
" />
<path d="M3.0704 50.0204
L2.9732 49.9983
" />
<path d="M2.7878 49.9255
L2.7015 49.8757
" />
<path d="M2.5458 5.0185
L2.6205 4.9525
" />
<path d="M3.6553 49.9471
L3.5625 49.9836
" />
<path d="M2.2884 49.3304
L2.2638 49.2338
" />
<path d="M2.3225 5.3459
L2.3658 5.2561
" />
<path d="M41.6837 27.7270
L41.6450 27.8189
" />
<path d="M3.3683 4.7421
L3.4665 4.7594
" />
<path d="M3.2689 50.0353
L3.1693 50.0328
" />
<path d="M41.6450 26.9511
L41.6837 27.0430
" />
<path d="M3.4665 50.0106
L3.3683 50.0279
" />
<path d="M41.4057 28.1348
L41.3277 28.1969
" />
<path d="M2.3225 49.4241
L2.2884 49.3304
" />
<path d="M41.5973 27.9064
L41.5411 27.9888
" />
<path d="M2.2884 5.4396
L2.3225 5.3459
" />
<path d="M3.3683 50.0279
L3.2689 50.0353
" />
<path d="M2.3658 49.5139
L2.3225 49.4241
" />
<path d="M3.7440 4.8683
L41.2440 26.5190
" />
<path d="M41.3277 26.5731
L41.4057 26.6352
" />
<path d="M41.7131 27.6318
L41.6837 27.7270
" />
<path d="M41.3277 28.1969
L41.2440 28.2510
" />
<path d="M2.2638 49.2338
L2.2490 49.1352
" />
<path d="M2.6205 4.9525
L2.7015 4.8943
" />
<path d="M41.4057 26.6352
L41.4771 26.7048
" />
<path d="M2.2490 5.6348
L2.2638 5.5362
" />
<path d="M2.8787 49.9665
L2.7878 49.9255
" />
<path d="M2.8787 4.8035
L2.9732 4.7717
" />
<path d="M41.7428 27.4348
L41.7328 27.5340
" />
<path d="M2.2440 49.0356
L2.2440 5.7344
" />
<path d="M41.6837 27.0430
L41.7131 27.1382
" />
<path d="M2.9732 4.7717
L3.0704 4.7496
" />
<path d="M2.9732 49.9983
L2.8787 49.9665
" />
<path d="M41.7328 27.5340
L41.7131 27.6318
" />
<path d="M2.4178 49.5990
L2.3658 49.5139
" />
<path d="M2.2490 49.1352
L2.2440 49.0356
" />
<path d="M41.5411 27.9888
L41.4771 28.0652
" />
<path d="M2.2440 5.7344
L2.2490 5.6348
" />
<path d="M41.4771 28.0652
L41.4057 28.1348
" />
<path d="M2.3658 5.2561
L2.4178 5.1710
" />
<path d="M41.6450 27.8189
L41.5973 27.9064
" />
<path d="M2.7015 49.8757
L2.6205 49.8175
" />
<path d="M41.7428 27.3352
L41.7428 27.4348
" />
<path d="M2.4780 49.6784
L2.4178 49.5990
" />
<path d="M41.5973 26.8636
L41.6450 26.9511
" />
<path d="M3.5625 4.7864
L3.6553 4.8229
" />
<path d="M2.4780 5.0916
L2.5458 5.0185
" />
<path d="M41.4771 26.7048
L41.5411 26.7812
" />
<path d="M2.6205 49.8175
L2.5458 49.7515
" />
<path d="M41.7131 27.1382
L41.7328 27.2360
" />
<path d="M3.0704 4.7496
L3.1693 4.7372
" />
<path d="M41.5411 26.7812
L41.5973 26.8636
" />
<path d="M2.7015 4.8943
L2.7878 4.8445
" />
<path d="M41.2440 28.2510
L3.7440 49.9017
" />
<path d="M2.4178 5.1710
L2.4780 5.0916
" />
<path d="M3.4665 4.7594
L3.5625 4.7864
" />
</g> 
</svg>
