<?xml version="1.0" standalone="no"?>
 <!DOCTYPE svg PUBLIC "-//W3C//DTD SVG 1.1//EN" 
 "http://www.w3.org/Graphics/SVG/1.1/DTD/svg11.dtd"> 
<svg
  xmlns:svg="http://www.w3.org/2000/svg"
  xmlns="http://www.w3.org/2000/svg"
  xmlns:xlink="http://www.w3.org/1999/xlink"
  version="1.1"
  width="48.3870mm" height="54.1782mm" viewBox="0.0000 0.0000 48.3870 54.1782">
<title>SVG Image created as Plato_A1-F_Mask.svg date 2024/04/29 03:21:22 </title>
  <desc>Image generated by PCBNEW </desc>
<g style="fill:#000000; fill-opacity:1.0000;stroke:#000000; stroke-opacity:1.0000;
stroke-linecap:round; stroke-linejoin:round;"
 transform="translate(0 0) scale(1 1)">
<path style="fill:#000000; fill-opacity:1.0000; stroke:none;fill-rule:evenodd;"
d="M 32.7100,27.9150
32.7203,27.8633
32.7495,27.8195
32.7933,27.7903
32.8450,27.7800
33.1150,27.7800
33.1667,27.7903
33.2105,27.8195
33.2397,27.8633
33.2500,27.9150
33.2500,28.2850
33.2397,28.3367
33.2105,28.3805
33.1667,28.4097
33.1150,28.4200
32.8450,28.4200
32.7933,28.4097
32.7495,28.3805
32.7203,28.3367
32.7100,28.2850
Z" /> 
<path style="fill:#000000; fill-opacity:1.0000; stroke:none;fill-rule:evenodd;"
d="M 33.7300,27.9150
33.7403,27.8633
33.7695,27.8195
33.8133,27.7903
33.8650,27.7800
34.1350,27.7800
34.1867,27.7903
34.2305,27.8195
34.2597,27.8633
34.2700,27.9150
34.2700,28.2850
34.2597,28.3367
34.2305,28.3805
34.1867,28.4097
34.1350,28.4200
33.8650,28.4200
33.8133,28.4097
33.7695,28.3805
33.7403,28.3367
33.7300,28.2850
Z" /> 
<path style="fill:#000000; fill-opacity:1.0000; stroke:none;fill-rule:evenodd;"
d="M 22.8141,35.3381
22.3191,34.8431
22.8141,34.3481
23.3091,34.8431
Z" /> 
<path style="fill:#000000; fill-opacity:1.0000; stroke:none;fill-rule:evenodd;"
d="M 23.5919,36.1159
23.0969,35.6209
23.5919,35.1259
24.0869,35.6209
Z" /> 
<path style="fill:#000000; fill-opacity:1.0000; stroke:none;fill-rule:evenodd;"
d="M 24.8859,34.8219
24.3909,34.3269
24.8859,33.8319
25.3809,34.3269
Z" /> 
<path style="fill:#000000; fill-opacity:1.0000; stroke:none;fill-rule:evenodd;"
d="M 24.1081,34.0441
23.6131,33.5491
24.1081,33.0541
24.6031,33.5491
Z" /> 
<path style="fill:#000000; fill-opacity:1.0000; stroke:none;fill-rule:evenodd;"
d="M 38.0300,28.5600
37.9764,28.5493
37.9310,28.5190
37.9007,28.4736
37.8900,28.4200
37.8900,28.1400
37.9007,28.0864
37.9310,28.0410
37.9764,28.0107
38.0300,28.0000
38.3700,28.0000
38.4236,28.0107
38.4690,28.0410
38.4993,28.0864
38.5100,28.1400
38.5100,28.4200
38.4993,28.4736
38.4690,28.5190
38.4236,28.5493
38.3700,28.5600
Z" /> 
<path style="fill:#000000; fill-opacity:1.0000; stroke:none;fill-rule:evenodd;"
d="M 38.0300,27.6000
37.9764,27.5893
37.9310,27.5590
37.9007,27.5136
37.8900,27.4600
37.8900,27.1800
37.9007,27.1264
37.9310,27.0810
37.9764,27.0507
38.0300,27.0400
38.3700,27.0400
38.4236,27.0507
38.4690,27.0810
38.4993,27.1264
38.5100,27.1800
38.5100,27.4600
38.4993,27.5136
38.4690,27.5590
38.4236,27.5893
38.3700,27.6000
Z" /> 
</g>
<g style="fill:#000000; fill-opacity:1.0000; stroke:none;">
<circle cx="12.8000" cy="38.4000" r="0.7620" /> 
</g>
<g style="fill:#000000; fill-opacity:1.0000; stroke:none;">
<circle cx="30.9000" cy="27.3000" r="0.7620" /> 
<path style="fill:#000000; fill-opacity:1.0000; stroke:none;fill-rule:evenodd;"
d="M 11.5792,26.1200
12.2792,26.1200
12.2792,26.8200
11.5792,26.8200
Z" /> 
<path style="fill:#000000; fill-opacity:1.0000; stroke:none;fill-rule:evenodd;"
d="M 10.4792,26.1200
11.1792,26.1200
11.1792,26.8200
10.4792,26.8200
Z" /> 
<path style="fill:#000000; fill-opacity:1.0000; stroke:none;fill-rule:evenodd;"
d="M 10.4792,27.9500
11.1792,27.9500
11.1792,28.6500
10.4792,28.6500
Z" /> 
<path style="fill:#000000; fill-opacity:1.0000; stroke:none;fill-rule:evenodd;"
d="M 11.5792,27.9500
12.2792,27.9500
12.2792,28.6500
11.5792,28.6500
Z" /> 
<path style="fill:#000000; fill-opacity:1.0000; stroke:none;fill-rule:evenodd;"
d="M 5.3201,7.2033
5.3421,7.2533
5.3433,7.3079
5.3235,7.3589
5.2857,7.3983
5.0563,7.5589
5.0063,7.5809
4.9517,7.5821
4.9008,7.5623
4.8613,7.5245
4.6663,7.2460
4.6443,7.1960
4.6431,7.1414
4.6629,7.0905
4.7007,7.0510
4.9301,6.8904
4.9801,6.8684
5.0347,6.8673
5.0856,6.8871
5.1250,6.9248
Z" /> 
<path style="fill:#000000; fill-opacity:1.0000; stroke:none;fill-rule:evenodd;"
d="M 4.5337,7.7540
4.5557,7.8040
4.5569,7.8586
4.5371,7.9095
4.4993,7.9490
4.2699,8.1096
4.2199,8.1316
4.1653,8.1327
4.1144,8.1129
4.0750,8.0752
3.8799,7.7967
3.8579,7.7467
3.8567,7.6921
3.8765,7.6411
3.9143,7.6017
4.1437,7.4411
4.1937,7.4191
4.2483,7.4179
4.2992,7.4377
4.3387,7.4755
Z" /> 
<path style="fill:#000000; fill-opacity:1.0000; stroke:none;fill-rule:evenodd;"
d="M 23.1901,19.0874
23.7263,18.6374
24.1763,19.1737
23.6400,19.6236
Z" /> 
<path style="fill:#000000; fill-opacity:1.0000; stroke:none;fill-rule:evenodd;"
d="M 22.3474,19.7945
22.8837,19.3445
23.3336,19.8807
22.7974,20.3307
Z" /> 
<path style="fill:#000000; fill-opacity:1.0000; stroke:none;fill-rule:evenodd;"
d="M 23.5237,21.1963
24.0600,20.7464
24.5099,21.2826
23.9737,21.7326
Z" /> 
<path style="fill:#000000; fill-opacity:1.0000; stroke:none;fill-rule:evenodd;"
d="M 24.3664,20.4893
24.9026,20.0393
25.3526,20.5755
24.8163,21.0255
Z" /> 
<path style="fill:#000000; fill-opacity:1.0000; stroke:none;fill-rule:evenodd;"
d="M 3.5099,25.0391
3.5341,24.9901
3.5751,24.9541
3.6269,24.9365
3.6814,24.9401
3.9518,25.0126
4.0008,25.0367
4.0368,25.0778
4.0544,25.1295
4.0508,25.1840
3.9628,25.5124
3.9387,25.5614
3.8976,25.5975
3.8459,25.6150
3.7914,25.6114
3.5209,25.5390
3.4719,25.5148
3.4359,25.4737
3.4183,25.4220
3.4219,25.3675
Z" /> 
<path style="fill:#000000; fill-opacity:1.0000; stroke:none;fill-rule:evenodd;"
d="M 4.4372,25.2876
4.4613,25.2386
4.5024,25.2025
4.5541,25.1850
4.6086,25.1886
4.8791,25.2610
4.9281,25.2852
4.9641,25.3263
4.9817,25.3780
4.9781,25.4325
4.8901,25.7609
4.8659,25.8099
4.8249,25.8459
4.7731,25.8635
4.7186,25.8599
4.4482,25.7874
4.3992,25.7633
4.3632,25.7222
4.3456,25.6705
4.3492,25.6160
Z" /> 
<path style="fill:#000000; fill-opacity:1.0000; stroke:none;fill-rule:evenodd;"
d="M 10.8590,19.0641
11.4324,18.6626
11.8339,19.2360
11.2605,19.6375
Z" /> 
<path style="fill:#000000; fill-opacity:1.0000; stroke:none;fill-rule:evenodd;"
d="M 9.9580,19.6950
10.5314,19.2935
10.9329,19.8669
10.3595,20.2684
Z" /> 
<path style="fill:#000000; fill-opacity:1.0000; stroke:none;fill-rule:evenodd;"
d="M 11.0076,21.1940
11.5810,20.7925
11.9825,21.3659
11.4091,21.7674
Z" /> 
<path style="fill:#000000; fill-opacity:1.0000; stroke:none;fill-rule:evenodd;"
d="M 11.9087,20.5631
12.4821,20.1616
12.8836,20.7350
12.3102,21.1365
Z" /> 
<path style="fill:#000000; fill-opacity:1.0000; stroke:none;fill-rule:evenodd;"
d="M 15.5357,30.4744
15.5888,30.4614
15.6428,30.4697
15.6895,30.4981
15.7218,30.5421
15.8401,30.7959
15.8531,30.8489
15.8448,30.9029
15.8165,30.9496
15.7724,30.9819
15.4643,31.1256
15.4112,31.1386
15.3572,31.1303
15.3105,31.1019
15.2782,31.0579
15.1599,30.8041
15.1469,30.7511
15.1552,30.6971
15.1835,30.6504
15.2276,30.6181
Z" /> 
<path style="fill:#000000; fill-opacity:1.0000; stroke:none;fill-rule:evenodd;"
d="M 15.9415,31.3444
15.9945,31.3315
16.0485,31.3398
16.0952,31.3681
16.1275,31.4122
16.2458,31.6659
16.2588,31.7190
16.2505,31.7730
16.2222,31.8197
16.1781,31.8520
15.8700,31.9957
15.8169,32.0087
15.7629,32.0003
15.7162,31.9720
15.6839,31.9280
15.5656,31.6742
15.5526,31.6211
15.5609,31.5671
15.5893,31.5204
15.6333,31.4881
Z" /> 
<path style="fill:#000000; fill-opacity:1.0000; stroke:none;fill-rule:evenodd;"
d="M 6.4010,30.7403
6.6404,31.3981
5.9826,31.6375
5.7432,30.9797
Z" /> 
<path style="fill:#000000; fill-opacity:1.0000; stroke:none;fill-rule:evenodd;"
d="M 6.0247,29.7066
6.2642,30.3644
5.6064,30.6038
5.3670,29.9460
Z" /> 
<path style="fill:#000000; fill-opacity:1.0000; stroke:none;fill-rule:evenodd;"
d="M 4.3051,30.3325
4.5445,30.9903
3.8867,31.2297
3.6473,30.5719
Z" /> 
<path style="fill:#000000; fill-opacity:1.0000; stroke:none;fill-rule:evenodd;"
d="M 4.6813,31.3662
4.9207,32.0240
4.2630,32.2634
4.0235,31.6056
Z" /> 
<path style="fill:#000000; fill-opacity:1.0000; stroke:none;fill-rule:evenodd;"
d="M 16.1994,14.9811
16.2503,15.0009
16.2898,15.0386
16.3118,15.0886
16.3130,15.1433
16.2643,15.4190
16.2445,15.4699
16.2068,15.5094
16.1568,15.5314
16.1021,15.5326
15.7673,15.4735
15.7164,15.4537
15.6769,15.4159
15.6549,15.3659
15.6537,15.3113
15.7024,15.0356
15.7222,14.9847
15.7599,14.9452
15.8099,14.9232
15.8646,14.9220
Z" /> 
<path style="fill:#000000; fill-opacity:1.0000; stroke:none;fill-rule:evenodd;"
d="M 16.0327,15.9265
16.0836,15.9463
16.1231,15.9841
16.1451,16.0341
16.1462,16.0887
16.0976,16.3644
16.0778,16.4153
16.0401,16.4548
15.9901,16.4768
15.9354,16.4780
15.6006,16.4189
15.5497,16.3991
15.5102,16.3614
15.4882,16.3114
15.4870,16.2568
15.5357,15.9810
15.5555,15.9301
15.5932,15.8906
15.6432,15.8686
15.6979,15.8674
Z" /> 
<path style="fill:#000000; fill-opacity:1.0000; stroke:none;fill-rule:evenodd;"
d="M 17.1980,17.7961
16.5086,17.6745
16.6302,16.9851
17.3195,17.1067
Z" /> 
<path style="fill:#000000; fill-opacity:1.0000; stroke:none;fill-rule:evenodd;"
d="M 18.2813,17.9871
17.5919,17.8655
17.7135,17.1761
18.4028,17.2977
Z" /> 
<path style="fill:#000000; fill-opacity:1.0000; stroke:none;fill-rule:evenodd;"
d="M 18.5991,16.1849
17.9097,16.0633
18.0312,15.3739
18.7206,15.4955
Z" /> 
<path style="fill:#000000; fill-opacity:1.0000; stroke:none;fill-rule:evenodd;"
d="M 17.5158,15.9939
16.8264,15.8723
16.9480,15.1829
17.6373,15.3045
Z" /> 
<path style="fill:#000000; fill-opacity:1.0000; stroke:none;fill-rule:evenodd;"
d="M 31.2555,31.5056
31.0743,32.1817
30.3982,32.0006
30.5794,31.3244
Z" /> 
<path style="fill:#000000; fill-opacity:1.0000; stroke:none;fill-rule:evenodd;"
d="M 31.5402,30.4431
31.3590,31.1192
30.6829,30.9380
30.8641,30.2619
Z" /> 
<path style="fill:#000000; fill-opacity:1.0000; stroke:none;fill-rule:evenodd;"
d="M 29.7726,29.9694
29.5914,30.6456
28.9153,30.4644
29.0964,29.7883
Z" /> 
<path style="fill:#000000; fill-opacity:1.0000; stroke:none;fill-rule:evenodd;"
d="M 29.4879,31.0320
29.3067,31.7081
28.6305,31.5269
28.8117,30.8508
Z" /> 
<path style="fill:#000000; fill-opacity:1.0000; stroke:none;fill-rule:evenodd;"
d="M 17.5256,39.4626
16.8283,39.5236
16.7673,38.8263
17.4646,38.7653
Z" /> 
<path style="fill:#000000; fill-opacity:1.0000; stroke:none;fill-rule:evenodd;"
d="M 18.6214,39.3667
17.9241,39.4278
17.8631,38.7304
18.5604,38.6694
Z" /> 
<path style="fill:#000000; fill-opacity:1.0000; stroke:none;fill-rule:evenodd;"
d="M 18.4619,37.5437
17.7646,37.6047
17.7036,36.9074
18.4009,36.8464
Z" /> 
<path style="fill:#000000; fill-opacity:1.0000; stroke:none;fill-rule:evenodd;"
d="M 17.3661,37.6396
16.6688,37.7006
16.6078,37.0033
17.3051,36.9422
Z" /> 
<path style="fill:#000000; fill-opacity:1.0000; stroke:none;fill-rule:evenodd;"
d="M 17.9680,32.2160
17.3336,32.5118
17.0377,31.8774
17.6721,31.5816
Z" /> 
<path style="fill:#000000; fill-opacity:1.0000; stroke:none;fill-rule:evenodd;"
d="M 18.9649,31.7511
18.3305,32.0470
18.0347,31.4125
18.6691,31.1167
Z" /> 
<path style="fill:#000000; fill-opacity:1.0000; stroke:none;fill-rule:evenodd;"
d="M 18.1915,30.0926
17.5571,30.3884
17.2613,29.7540
17.8957,29.4582
Z" /> 
<path style="fill:#000000; fill-opacity:1.0000; stroke:none;fill-rule:evenodd;"
d="M 17.1946,30.5575
16.5602,30.8533
16.2643,30.2189
16.8987,29.9230
Z" /> 
<path style="fill:#000000; fill-opacity:1.0000; stroke:none;fill-rule:evenodd;"
d="M 28.2521,22.8493
28.3067,22.8505
28.3567,22.8725
28.3945,22.9120
28.4143,22.9629
28.4629,23.2386
28.4617,23.2932
28.4397,23.3432
28.4002,23.3810
28.3493,23.4008
28.0145,23.4598
27.9599,23.4587
27.9099,23.4367
27.8721,23.3972
27.8523,23.3463
27.8037,23.0705
27.8049,23.0159
27.8269,22.9659
27.8663,22.9282
27.9173,22.9084
Z" /> 
<path style="fill:#000000; fill-opacity:1.0000; stroke:none;fill-rule:evenodd;"
d="M 28.4188,23.7947
28.4734,23.7959
28.5234,23.8179
28.5612,23.8574
28.5810,23.9083
28.6296,24.1840
28.6284,24.2387
28.6064,24.2887
28.5669,24.3264
28.5160,24.3462
28.1812,24.4053
28.1266,24.4041
28.0766,24.3821
28.0388,24.3426
28.0190,24.2917
27.9704,24.0160
27.9716,23.9613
27.9936,23.9113
28.0330,23.8736
28.0840,23.8538
Z" /> 
<path style="fill:#000000; fill-opacity:1.0000; stroke:none;fill-rule:evenodd;"
d="M 4.5277,33.0002
4.5194,32.9462
4.5324,32.8931
4.5647,32.8491
4.6114,32.8207
4.8745,32.7250
4.9285,32.7167
4.9815,32.7297
5.0256,32.7620
5.0539,32.8087
5.1702,33.1282
5.1785,33.1821
5.1655,33.2352
5.1332,33.2793
5.0865,33.3076
4.8234,33.4034
4.7694,33.4117
4.7164,33.3987
4.6723,33.3664
4.6440,33.3197
Z" /> 
<path style="fill:#000000; fill-opacity:1.0000; stroke:none;fill-rule:evenodd;"
d="M 5.4298,32.6718
5.4215,32.6179
5.4345,32.5648
5.4668,32.5207
5.5135,32.4924
5.7766,32.3966
5.8306,32.3883
5.8836,32.4013
5.9277,32.4336
5.9560,32.4803
6.0723,32.7998
6.0806,32.8538
6.0676,32.9069
6.0353,32.9509
5.9886,32.9793
5.7255,33.0750
5.6715,33.0833
5.6185,33.0703
5.5744,33.0380
5.5461,32.9913
Z" /> 
<path style="fill:#000000; fill-opacity:1.0000; stroke:none;fill-rule:evenodd;"
d="M 5.9843,39.1513
5.5344,39.6876
4.9982,39.2376
5.4481,38.7014
Z" /> 
<path style="fill:#000000; fill-opacity:1.0000; stroke:none;fill-rule:evenodd;"
d="M 6.6914,38.3087
6.2415,38.8449
5.7052,38.3950
6.1552,37.8587
Z" /> 
<path style="fill:#000000; fill-opacity:1.0000; stroke:none;fill-rule:evenodd;"
d="M 5.2895,37.1324
4.8396,37.6686
4.3034,37.2187
4.7533,36.6824
Z" /> 
<path style="fill:#000000; fill-opacity:1.0000; stroke:none;fill-rule:evenodd;"
d="M 4.5825,37.9750
4.1325,38.5113
3.5963,38.0613
4.0462,37.5251
Z" /> 
<path style="fill:#000000; fill-opacity:1.0000; stroke:none;fill-rule:evenodd;"
d="M 13.4002,13.5723
13.3462,13.5806
13.2931,13.5676
13.2491,13.5353
13.2207,13.4886
13.1250,13.2255
13.1167,13.1715
13.1297,13.1185
13.1620,13.0744
13.2087,13.0461
13.5282,12.9298
13.5821,12.9215
13.6352,12.9345
13.6793,12.9668
13.7076,13.0135
13.8034,13.2766
13.8117,13.3306
13.7987,13.3836
13.7664,13.4277
13.7197,13.4560
Z" /> 
<path style="fill:#000000; fill-opacity:1.0000; stroke:none;fill-rule:evenodd;"
d="M 13.0718,12.6702
13.0179,12.6785
12.9648,12.6655
12.9207,12.6332
12.8924,12.5865
12.7966,12.3234
12.7883,12.2694
12.8013,12.2164
12.8336,12.1723
12.8803,12.1440
13.1998,12.0277
13.2538,12.0194
13.3069,12.0324
13.3509,12.0647
13.3793,12.1114
13.4750,12.3745
13.4833,12.4285
13.4703,12.4815
13.4380,12.5256
13.3913,12.5539
Z" /> 
<path style="fill:#000000; fill-opacity:1.0000; stroke:none;fill-rule:evenodd;"
d="M 30.1081,25.0655
29.4187,25.1871
29.2972,24.4977
29.9865,24.3761
Z" /> 
<path style="fill:#000000; fill-opacity:1.0000; stroke:none;fill-rule:evenodd;"
d="M 31.1914,24.8745
30.5020,24.9961
30.3805,24.3067
31.0698,24.1851
Z" /> 
<path style="fill:#000000; fill-opacity:1.0000; stroke:none;fill-rule:evenodd;"
d="M 30.8736,23.0723
30.1842,23.1939
30.0627,22.5045
30.7520,22.3829
Z" /> 
<path style="fill:#000000; fill-opacity:1.0000; stroke:none;fill-rule:evenodd;"
d="M 29.7903,23.2633
29.1009,23.3849
28.9794,22.6955
29.6688,22.5739
Z" /> 
</g>
<g style="fill:#000000; fill-opacity:1.0000; stroke:none;">
<circle cx="13.5000" cy="16.4000" r="0.7620" /> 
<path style="fill:#000000; fill-opacity:1.0000; stroke:none;fill-rule:evenodd;"
d="M 12.8901,40.4609
12.8659,40.5099
12.8249,40.5459
12.7731,40.5635
12.7186,40.5599
12.4482,40.4874
12.3992,40.4633
12.3632,40.4222
12.3456,40.3705
12.3492,40.3160
12.4372,39.9876
12.4613,39.9386
12.5024,39.9025
12.5541,39.8850
12.6086,39.8886
12.8791,39.9610
12.9281,39.9852
12.9641,40.0263
12.9817,40.0780
12.9781,40.1325
Z" /> 
<path style="fill:#000000; fill-opacity:1.0000; stroke:none;fill-rule:evenodd;"
d="M 11.9628,40.2124
11.9387,40.2614
11.8976,40.2975
11.8459,40.3150
11.7914,40.3114
11.5209,40.2390
11.4719,40.2148
11.4359,40.1737
11.4183,40.1220
11.4219,40.0675
11.5099,39.7391
11.5341,39.6901
11.5751,39.6541
11.6269,39.6365
11.6814,39.6401
11.9518,39.7126
12.0008,39.7367
12.0368,39.7778
12.0544,39.8295
12.0508,39.8840
Z" /> 
<path style="fill:#000000; fill-opacity:1.0000; stroke:none;fill-rule:evenodd;"
d="M 13.5967,20.3201
13.5467,20.3421
13.4921,20.3433
13.4411,20.3235
13.4017,20.2857
13.2411,20.0563
13.2191,20.0063
13.2179,19.9517
13.2377,19.9008
13.2755,19.8613
13.5540,19.6663
13.6040,19.6443
13.6586,19.6431
13.7095,19.6629
13.7490,19.7007
13.9096,19.9301
13.9316,19.9801
13.9327,20.0347
13.9129,20.0856
13.8752,20.1250
Z" /> 
<path style="fill:#000000; fill-opacity:1.0000; stroke:none;fill-rule:evenodd;"
d="M 13.0460,19.5337
12.9960,19.5557
12.9414,19.5569
12.8905,19.5371
12.8510,19.4993
12.6904,19.2699
12.6684,19.2199
12.6673,19.1653
12.6871,19.1144
12.7248,19.0750
13.0033,18.8799
13.0533,18.8579
13.1079,18.8567
13.1589,18.8765
13.1983,18.9143
13.3589,19.1437
13.3809,19.1937
13.3821,19.2483
13.3623,19.2992
13.3245,19.3387
Z" /> 
<path style="fill:#000000; fill-opacity:1.0000; stroke:none;fill-rule:evenodd;"
d="M 3.9929,9.9467
3.5914,9.3733
4.1648,8.9718
4.5663,9.5452
Z" /> 
<path style="fill:#000000; fill-opacity:1.0000; stroke:none;fill-rule:evenodd;"
d="M 4.6238,10.8478
4.2223,10.2744
4.7957,9.8729
5.1973,10.4463
Z" /> 
<path style="fill:#000000; fill-opacity:1.0000; stroke:none;fill-rule:evenodd;"
d="M 6.1229,9.7982
5.7214,9.2248
6.2948,8.8233
6.6963,9.3967
Z" /> 
<path style="fill:#000000; fill-opacity:1.0000; stroke:none;fill-rule:evenodd;"
d="M 5.4920,8.8971
5.0905,8.3237
5.6639,7.9222
6.0654,8.4956
Z" /> 
<path style="fill:#000000; fill-opacity:1.0000; stroke:none;fill-rule:evenodd;"
d="M 6.1394,46.1907
5.7894,46.7969
5.1832,46.4469
5.5332,45.8407
Z" /> 
<path style="fill:#000000; fill-opacity:1.0000; stroke:none;fill-rule:evenodd;"
d="M 6.6894,45.2381
6.3394,45.8443
5.7332,45.4943
6.0832,44.8881
Z" /> 
<path style="fill:#000000; fill-opacity:1.0000; stroke:none;fill-rule:evenodd;"
d="M 5.1045,44.3231
4.7545,44.9293
4.1483,44.5793
4.4983,43.9731
Z" /> 
<path style="fill:#000000; fill-opacity:1.0000; stroke:none;fill-rule:evenodd;"
d="M 4.5545,45.2757
4.2045,45.8819
3.5983,45.5319
3.9483,44.9257
Z" /> 
<path style="fill:#000000; fill-opacity:1.0000; stroke:none;fill-rule:evenodd;"
d="M 13.1300,28.6800
13.0764,28.6693
13.0310,28.6390
13.0007,28.5936
12.9900,28.5400
12.9900,28.2600
13.0007,28.2064
13.0310,28.1610
13.0764,28.1307
13.1300,28.1200
13.4700,28.1200
13.5236,28.1307
13.5690,28.1610
13.5993,28.2064
13.6100,28.2600
13.6100,28.5400
13.5993,28.5936
13.5690,28.6390
13.5236,28.6693
13.4700,28.6800
Z" /> 
<path style="fill:#000000; fill-opacity:1.0000; stroke:none;fill-rule:evenodd;"
d="M 13.1300,27.7200
13.0764,27.7093
13.0310,27.6790
13.0007,27.6336
12.9900,27.5800
12.9900,27.3000
13.0007,27.2464
13.0310,27.2010
13.0764,27.1707
13.1300,27.1600
13.4700,27.1600
13.5236,27.1707
13.5690,27.2010
13.5993,27.2464
13.6100,27.3000
13.6100,27.5800
13.5993,27.6336
13.5690,27.6790
13.5236,27.7093
13.4700,27.7200
Z" /> 
</g>
<g style="fill:#000000; fill-opacity:1.0000; stroke:none;">
<circle cx="25.6000" cy="31.0000" r="0.7620" /> 
</g>
<g style="fill:#000000; fill-opacity:1.0000; stroke:none;">
<circle cx="7.3000" cy="41.7746" r="0.7620" /> 
<path style="fill:#000000; fill-opacity:1.0000; stroke:none;fill-rule:evenodd;"
d="M 3.1271,38.6813
3.1697,38.6471
3.2221,38.6318
3.2764,38.6377
3.3243,38.6640
3.5388,38.8440
3.5730,38.8866
3.5883,38.9390
3.5823,38.9933
3.5561,39.0412
3.3375,39.3017
3.2949,39.3359
3.2425,39.3511
3.1882,39.3452
3.1403,39.3189
2.9258,39.1389
2.8916,39.0963
2.8763,39.0439
2.8823,38.9896
2.9085,38.9417
Z" /> 
<path style="fill:#000000; fill-opacity:1.0000; stroke:none;fill-rule:evenodd;"
d="M 3.8625,39.2983
3.9051,39.2641
3.9575,39.2489
4.0118,39.2548
4.0597,39.2811
4.2742,39.4611
4.3084,39.5037
4.3237,39.5561
4.3177,39.6104
4.2915,39.6583
4.0729,39.9187
4.0303,39.9529
3.9779,39.9682
3.9236,39.9623
3.8757,39.9360
3.6612,39.7560
3.6270,39.7134
3.6117,39.6610
3.6177,39.6067
3.6439,39.5588
Z" /> 
<path style="fill:#000000; fill-opacity:1.0000; stroke:none;fill-rule:evenodd;"
d="M 3.4268,46.1728
3.4628,46.1317
3.5118,46.1075
3.5663,46.1040
3.6181,46.1215
3.8606,46.2615
3.9016,46.2975
3.9258,46.3465
3.9294,46.4010
3.9118,46.4528
3.7418,46.7472
3.7058,46.7883
3.6568,46.8125
3.6023,46.8160
3.5506,46.7985
3.3081,46.6585
3.2670,46.6225
3.2428,46.5735
3.2393,46.5190
3.2568,46.4672
Z" /> 
<path style="fill:#000000; fill-opacity:1.0000; stroke:none;fill-rule:evenodd;"
d="M 4.2582,46.6528
4.2942,46.6117
4.3432,46.5875
4.3977,46.5840
4.4494,46.6015
4.6919,46.7415
4.7330,46.7775
4.7572,46.8265
4.7607,46.8810
4.7432,46.9328
4.5732,47.2272
4.5372,47.2683
4.4882,47.2925
4.4337,47.2960
4.3819,47.2785
4.1394,47.1385
4.0984,47.1025
4.0742,47.0535
4.0706,46.9990
4.0882,46.9472
Z" /> 
<path style="fill:#000000; fill-opacity:1.0000; stroke:none;fill-rule:evenodd;"
d="M 24.0500,27.9500
24.7500,27.9500
24.7500,28.6500
24.0500,28.6500
Z" /> 
<path style="fill:#000000; fill-opacity:1.0000; stroke:none;fill-rule:evenodd;"
d="M 22.9500,27.9500
23.6500,27.9500
23.6500,28.6500
22.9500,28.6500
Z" /> 
<path style="fill:#000000; fill-opacity:1.0000; stroke:none;fill-rule:evenodd;"
d="M 22.9500,26.1200
23.6500,26.1200
23.6500,26.8200
22.9500,26.8200
Z" /> 
<path style="fill:#000000; fill-opacity:1.0000; stroke:none;fill-rule:evenodd;"
d="M 24.0500,26.1200
24.7500,26.1200
24.7500,26.8200
24.0500,26.8200
Z" /> 
<path style="fill:#000000; fill-opacity:1.0000; stroke:none;fill-rule:evenodd;"
d="M 15.7613,37.0499
15.8156,37.0558
15.8635,37.0821
15.8977,37.1247
15.9129,37.1772
15.9374,37.4561
15.9314,37.5104
15.9051,37.5583
15.8625,37.5925
15.8101,37.6078
15.4714,37.6374
15.4171,37.6315
15.3692,37.6052
15.3350,37.5626
15.3197,37.5101
15.2953,37.2312
15.3013,37.1769
15.3275,37.1290
15.3701,37.0948
15.4226,37.0795
Z" /> 
<path style="fill:#000000; fill-opacity:1.0000; stroke:none;fill-rule:evenodd;"
d="M 15.8449,38.0062
15.8992,38.0122
15.9471,38.0385
15.9813,38.0811
15.9966,38.1335
16.0210,38.4124
16.0151,38.4667
15.9888,38.5146
15.9462,38.5488
15.8938,38.5641
15.5551,38.5938
15.5008,38.5878
15.4529,38.5615
15.4187,38.5189
15.4034,38.4665
15.3790,38.1876
15.3849,38.1332
15.4112,38.0854
15.4538,38.0512
15.5062,38.0359
Z" /> 
<path style="fill:#000000; fill-opacity:1.0000; stroke:none;fill-rule:evenodd;"
d="M 10.3837,33.7793
10.7337,33.1731
11.3399,33.5231
10.9899,34.1293
Z" /> 
<path style="fill:#000000; fill-opacity:1.0000; stroke:none;fill-rule:evenodd;"
d="M 9.8337,34.7319
10.1837,34.1257
10.7899,34.4757
10.4399,35.0819
Z" /> 
<path style="fill:#000000; fill-opacity:1.0000; stroke:none;fill-rule:evenodd;"
d="M 11.4185,35.6469
11.7685,35.0407
12.3748,35.3907
12.0248,35.9969
Z" /> 
<path style="fill:#000000; fill-opacity:1.0000; stroke:none;fill-rule:evenodd;"
d="M 11.9685,34.6943
12.3185,34.0881
12.9248,34.4381
12.5748,35.0443
Z" /> 
<path style="fill:#000000; fill-opacity:1.0000; stroke:none;fill-rule:evenodd;"
d="M 6.1798,15.8319
6.6747,16.3269
6.1798,16.8219
5.6848,16.3269
Z" /> 
<path style="fill:#000000; fill-opacity:1.0000; stroke:none;fill-rule:evenodd;"
d="M 5.4019,15.0541
5.8969,15.5491
5.4019,16.0441
4.9070,15.5491
Z" /> 
<path style="fill:#000000; fill-opacity:1.0000; stroke:none;fill-rule:evenodd;"
d="M 4.1079,16.3481
4.6029,16.8431
4.1079,17.3381
3.6130,16.8431
Z" /> 
<path style="fill:#000000; fill-opacity:1.0000; stroke:none;fill-rule:evenodd;"
d="M 4.8858,17.1259
5.3807,17.6209
4.8858,18.1159
4.3908,17.6209
Z" /> 
</g>
<g style="fill:#000000; fill-opacity:1.0000; stroke:none;">
<circle cx="7.1000" cy="35.2000" r="0.7620" /> 
<path style="fill:#000000; fill-opacity:1.0000; stroke:none;fill-rule:evenodd;"
d="M 13.4575,33.6872
13.4215,33.7283
13.3725,33.7525
13.3180,33.7560
13.2662,33.7385
13.0238,33.5985
12.9827,33.5625
12.9585,33.5135
12.9550,33.4590
12.9725,33.4072
13.1425,33.1128
13.1785,33.0717
13.2275,33.0475
13.2820,33.0440
13.3338,33.0615
13.5762,33.2015
13.6173,33.2375
13.6415,33.2865
13.6450,33.3410
13.6275,33.3928
Z" /> 
<path style="fill:#000000; fill-opacity:1.0000; stroke:none;fill-rule:evenodd;"
d="M 12.6261,33.2072
12.5901,33.2483
12.5411,33.2725
12.4866,33.2760
12.4349,33.2585
12.1924,33.1185
12.1513,33.0825
12.1271,33.0335
12.1236,32.9790
12.1411,32.9272
12.3111,32.6328
12.3471,32.5917
12.3961,32.5675
12.4506,32.5640
12.5024,32.5815
12.7449,32.7215
12.7859,32.7575
12.8101,32.8065
12.8137,32.8610
12.7961,32.9128
Z" /> 
<path style="fill:#000000; fill-opacity:1.0000; stroke:none;fill-rule:evenodd;"
d="M 28.4463,32.3149
28.4704,32.2659
28.5115,32.2298
28.5632,32.2123
28.6177,32.2159
28.8882,32.2883
28.9372,32.3125
28.9732,32.3536
28.9907,32.4053
28.9872,32.4598
28.8992,32.7882
28.8750,32.8372
28.8339,32.8732
28.7822,32.8908
28.7277,32.8872
28.4572,32.8147
28.4083,32.7906
28.3722,32.7495
28.3547,32.6978
28.3583,32.6433
Z" /> 
<path style="fill:#000000; fill-opacity:1.0000; stroke:none;fill-rule:evenodd;"
d="M 29.3735,32.5633
29.3977,32.5143
29.4388,32.4783
29.4905,32.4608
29.5450,32.4643
29.8155,32.5368
29.8645,32.5610
29.9005,32.6020
29.9180,32.6538
29.9145,32.7083
29.8265,33.0367
29.8023,33.0857
29.7612,33.1217
29.7095,33.1392
29.6550,33.1357
29.3845,33.0632
29.3355,33.0390
29.2995,32.9980
29.2820,32.9462
29.2855,32.8917
Z" /> 
<path style="fill:#000000; fill-opacity:1.0000; stroke:none;fill-rule:evenodd;"
d="M 18.6101,24.5907
18.2601,25.1969
17.6539,24.8469
18.0039,24.2407
Z" /> 
<path style="fill:#000000; fill-opacity:1.0000; stroke:none;fill-rule:evenodd;"
d="M 19.1601,23.6381
18.8101,24.2443
18.2039,23.8943
18.5539,23.2881
Z" /> 
<path style="fill:#000000; fill-opacity:1.0000; stroke:none;fill-rule:evenodd;"
d="M 17.5753,22.7231
17.2253,23.3293
16.6191,22.9793
16.9691,22.3731
Z" /> 
<path style="fill:#000000; fill-opacity:1.0000; stroke:none;fill-rule:evenodd;"
d="M 17.0253,23.6757
16.6753,24.2819
16.0691,23.9319
16.4191,23.3257
Z" /> 
</g>
<g style="fill:#000000; fill-opacity:1.0000; stroke:none;">
<circle cx="7.1000" cy="20.7000" r="0.7620" /> 
<path style="fill:#000000; fill-opacity:1.0000; stroke:none;fill-rule:evenodd;"
d="M 11.1403,11.7637
11.7981,11.5242
12.0375,12.1820
11.3797,12.4214
Z" /> 
<path style="fill:#000000; fill-opacity:1.0000; stroke:none;fill-rule:evenodd;"
d="M 10.1066,12.1399
10.7644,11.9005
11.0038,12.5582
10.3460,12.7977
Z" /> 
<path style="fill:#000000; fill-opacity:1.0000; stroke:none;fill-rule:evenodd;"
d="M 10.7325,13.8595
11.3903,13.6201
11.6297,14.2779
10.9719,14.5173
Z" /> 
<path style="fill:#000000; fill-opacity:1.0000; stroke:none;fill-rule:evenodd;"
d="M 11.7662,13.4833
12.4240,13.2439
12.6634,13.9017
12.0056,14.1411
Z" /> 
<path style="fill:#000000; fill-opacity:1.0000; stroke:none;fill-rule:evenodd;"
d="M 15.7111,24.5328
15.7471,24.4917
15.7961,24.4675
15.8506,24.4640
15.9024,24.4815
16.1449,24.6215
16.1859,24.6575
16.2101,24.7065
16.2137,24.7610
16.1961,24.8128
16.0261,25.1072
15.9901,25.1483
15.9411,25.1725
15.8866,25.1760
15.8349,25.1585
15.5924,25.0185
15.5513,24.9825
15.5271,24.9335
15.5236,24.8790
15.5411,24.8272
Z" /> 
<path style="fill:#000000; fill-opacity:1.0000; stroke:none;fill-rule:evenodd;"
d="M 16.5425,25.0128
16.5785,24.9717
16.6275,24.9475
16.6820,24.9440
16.7338,24.9615
16.9762,25.1015
17.0173,25.1375
17.0415,25.1865
17.0450,25.2410
17.0275,25.2928
16.8575,25.5872
16.8215,25.6283
16.7725,25.6525
16.7180,25.6560
16.6662,25.6385
16.4238,25.4985
16.3827,25.4625
16.3585,25.4135
16.3550,25.3590
16.3725,25.3072
Z" /> 
<path style="fill:#000000; fill-opacity:1.0000; stroke:none;fill-rule:evenodd;"
d="M 36.5208,26.1200
37.2208,26.1200
37.2208,26.8200
36.5208,26.8200
Z" /> 
<path style="fill:#000000; fill-opacity:1.0000; stroke:none;fill-rule:evenodd;"
d="M 35.4208,26.1200
36.1208,26.1200
36.1208,26.8200
35.4208,26.8200
Z" /> 
<path style="fill:#000000; fill-opacity:1.0000; stroke:none;fill-rule:evenodd;"
d="M 35.4208,27.9500
36.1208,27.9500
36.1208,28.6500
35.4208,28.6500
Z" /> 
<path style="fill:#000000; fill-opacity:1.0000; stroke:none;fill-rule:evenodd;"
d="M 36.5208,27.9500
37.2208,27.9500
37.2208,28.6500
36.5208,28.6500
Z" /> 
<path style="fill:#000000; fill-opacity:1.0000; stroke:none;fill-rule:evenodd;"
d="M 26.0583,20.1915
26.0104,20.2177
25.9561,20.2237
25.9037,20.2084
25.8611,20.1742
25.6811,19.9597
25.6548,19.9118
25.6489,19.8575
25.6641,19.8051
25.6983,19.7625
25.9588,19.5439
26.0067,19.5177
26.0610,19.5117
26.1134,19.5270
26.1560,19.5612
26.3360,19.7757
26.3623,19.8236
26.3682,19.8779
26.3529,19.9303
26.3187,19.9729
Z" /> 
<path style="fill:#000000; fill-opacity:1.0000; stroke:none;fill-rule:evenodd;"
d="M 25.4412,19.4561
25.3933,19.4823
25.3390,19.4883
25.2866,19.4730
25.2440,19.4388
25.0640,19.2243
25.0377,19.1764
25.0318,19.1221
25.0471,19.0697
25.0813,19.0271
25.3417,18.8085
25.3896,18.7823
25.4439,18.7763
25.4963,18.7916
25.5389,18.8258
25.7189,19.0403
25.7452,19.0882
25.7511,19.1425
25.7359,19.1949
25.7017,19.2375
Z" /> 
<path style="fill:#000000; fill-opacity:1.0000; stroke:none;fill-rule:evenodd;"
d="M 5.4424,18.7172
5.4120,18.6718
5.4014,18.6182
5.4120,18.5646
5.4424,18.5192
5.6404,18.3212
5.6858,18.2909
5.7394,18.2802
5.7930,18.2909
5.8384,18.3212
6.0788,18.5616
6.1091,18.6070
6.1198,18.6606
6.1091,18.7142
6.0788,18.7596
5.8808,18.9576
5.8354,18.9880
5.7818,18.9986
5.7282,18.9880
5.6828,18.9576
Z" /> 
<path style="fill:#000000; fill-opacity:1.0000; stroke:none;fill-rule:evenodd;"
d="M 6.1212,18.0384
6.0909,17.9930
6.0802,17.9394
6.0909,17.8858
6.1212,17.8404
6.3192,17.6424
6.3646,17.6120
6.4182,17.6014
6.4718,17.6120
6.5172,17.6424
6.7576,17.8828
6.7880,17.9282
6.7986,17.9818
6.7880,18.0354
6.7576,18.0808
6.5596,18.2788
6.5142,18.3091
6.4606,18.3198
6.4070,18.3091
6.3616,18.2788
Z" /> 
<path style="fill:#000000; fill-opacity:1.0000; stroke:none;fill-rule:evenodd;"
d="M 23.5182,32.5828
23.5485,32.6282
23.5592,32.6818
23.5485,32.7354
23.5182,32.7808
23.3202,32.9788
23.2748,33.0091
23.2212,33.0198
23.1676,33.0091
23.1222,32.9788
22.8818,32.7384
22.8515,32.6930
22.8408,32.6394
22.8515,32.5858
22.8818,32.5404
23.0798,32.3424
23.1252,32.3120
23.1788,32.3014
23.2324,32.3120
23.2778,32.3424
Z" /> 
<path style="fill:#000000; fill-opacity:1.0000; stroke:none;fill-rule:evenodd;"
d="M 22.8394,33.2616
22.8697,33.3070
22.8804,33.3606
22.8697,33.4142
22.8394,33.4596
22.6414,33.6576
22.5960,33.6880
22.5424,33.6986
22.4888,33.6880
22.4434,33.6576
22.2030,33.4172
22.1726,33.3718
22.1620,33.3182
22.1726,33.2646
22.2030,33.2192
22.4010,33.0212
22.4464,32.9909
22.5000,32.9802
22.5535,32.9909
22.5990,33.0212
Z" /> 
<path style="fill:#000000; fill-opacity:1.0000; stroke:none;fill-rule:evenodd;"
d="M 10.2091,41.2644
10.3903,40.5883
11.0664,40.7694
10.8852,41.4456
Z" /> 
<path style="fill:#000000; fill-opacity:1.0000; stroke:none;fill-rule:evenodd;"
d="M 9.9244,42.3269
10.1056,41.6508
10.7817,41.8320
10.6005,42.5081
Z" /> 
<path style="fill:#000000; fill-opacity:1.0000; stroke:none;fill-rule:evenodd;"
d="M 11.6920,42.8006
11.8732,42.1244
12.5494,42.3056
12.3682,42.9817
Z" /> 
<path style="fill:#000000; fill-opacity:1.0000; stroke:none;fill-rule:evenodd;"
d="M 11.9767,41.7380
12.1579,41.0619
12.8341,41.2431
12.6529,41.9192
Z" /> 
<path style="fill:#000000; fill-opacity:1.0000; stroke:none;fill-rule:evenodd;"
d="M 25.5300,28.7600
25.4764,28.7493
25.4310,28.7190
25.4007,28.6736
25.3900,28.6200
25.3900,28.3400
25.4007,28.2864
25.4310,28.2410
25.4764,28.2107
25.5300,28.2000
25.8700,28.2000
25.9236,28.2107
25.9690,28.2410
25.9993,28.2864
26.0100,28.3400
26.0100,28.6200
25.9993,28.6736
25.9690,28.7190
25.9236,28.7493
25.8700,28.7600
Z" /> 
<path style="fill:#000000; fill-opacity:1.0000; stroke:none;fill-rule:evenodd;"
d="M 25.5300,27.8000
25.4764,27.7893
25.4310,27.7590
25.4007,27.7136
25.3900,27.6600
25.3900,27.3800
25.4007,27.3264
25.4310,27.2810
25.4764,27.2507
25.5300,27.2400
25.8700,27.2400
25.9236,27.2507
25.9690,27.2810
25.9993,27.3264
26.0100,27.3800
26.0100,27.6600
25.9993,27.7136
25.9690,27.7590
25.9236,27.7893
25.8700,27.8000
Z" /> 
<path style="fill:#000000; fill-opacity:1.0000; stroke:none;fill-rule:evenodd;"
d="M 6.3140,24.3056
6.1328,24.9817
5.4567,24.8006
5.6378,24.1244
Z" /> 
<path style="fill:#000000; fill-opacity:1.0000; stroke:none;fill-rule:evenodd;"
d="M 6.5987,23.2431
6.4175,23.9192
5.7414,23.7380
5.9225,23.0619
Z" /> 
<path style="fill:#000000; fill-opacity:1.0000; stroke:none;fill-rule:evenodd;"
d="M 4.8310,22.7694
4.6499,23.4456
3.9737,23.2644
4.1549,22.5883
Z" /> 
<path style="fill:#000000; fill-opacity:1.0000; stroke:none;fill-rule:evenodd;"
d="M 4.5463,23.8320
4.3652,24.5081
3.6890,24.3269
3.8702,23.6508
Z" /> 
</g>
<g style="fill:#000000; fill-opacity:1.0000; stroke:none;">
<circle cx="26.1000" cy="23.8000" r="0.7620" /> 
</g>
<g style="fill:none; 
stroke:#000000; stroke-width:0.2000; stroke-opacity:1; 
stroke-linecap:round; stroke-linejoin:round;">
<path d="M3.6553 4.8229
L3.7440 4.8683
" />
<path d="M2.7878 4.8445
L2.8787 4.8035
" />
<path d="M3.1693 50.0328
L3.0704 50.0204
" />
<path d="M41.7328 27.2360
L41.7428 27.3352
" />
<path d="M3.1693 4.7372
L3.2689 4.7347
" />
<path d="M3.7440 49.9017
L3.6553 49.9471
" />
<path d="M41.2440 26.5190
L41.3277 26.5731
" />
<path d="M3.5625 49.9836
L3.4665 50.0106
" />
<path d="M3.2689 4.7347
L3.3683 4.7421
" />
<path d="M2.5458 49.7515
L2.4780 49.6784
" />
<path d="M2.2638 5.5362
L2.2884 5.4396
" />
<path d="M3.0704 50.0204
L2.9732 49.9983
" />
<path d="M2.7878 49.9255
L2.7015 49.8757
" />
<path d="M2.5458 5.0185
L2.6205 4.9525
" />
<path d="M3.6553 49.9471
L3.5625 49.9836
" />
<path d="M2.2884 49.3304
L2.2638 49.2338
" />
<path d="M2.3225 5.3459
L2.3658 5.2561
" />
<path d="M41.6837 27.7270
L41.6450 27.8189
" />
<path d="M3.3683 4.7421
L3.4665 4.7594
" />
<path d="M3.2689 50.0353
L3.1693 50.0328
" />
<path d="M41.6450 26.9511
L41.6837 27.0430
" />
<path d="M3.4665 50.0106
L3.3683 50.0279
" />
<path d="M41.4057 28.1348
L41.3277 28.1969
" />
<path d="M2.3225 49.4241
L2.2884 49.3304
" />
<path d="M41.5973 27.9064
L41.5411 27.9888
" />
<path d="M2.2884 5.4396
L2.3225 5.3459
" />
<path d="M3.3683 50.0279
L3.2689 50.0353
" />
<path d="M2.3658 49.5139
L2.3225 49.4241
" />
<path d="M3.7440 4.8683
L41.2440 26.5190
" />
<path d="M41.3277 26.5731
L41.4057 26.6352
" />
<path d="M41.7131 27.6318
L41.6837 27.7270
" />
<path d="M41.3277 28.1969
L41.2440 28.2510
" />
<path d="M2.2638 49.2338
L2.2490 49.1352
" />
<path d="M2.6205 4.9525
L2.7015 4.8943
" />
<path d="M41.4057 26.6352
L41.4771 26.7048
" />
<path d="M2.2490 5.6348
L2.2638 5.5362
" />
<path d="M2.8787 49.9665
L2.7878 49.9255
" />
<path d="M2.8787 4.8035
L2.9732 4.7717
" />
<path d="M41.7428 27.4348
L41.7328 27.5340
" />
<path d="M2.2440 49.0356
L2.2440 5.7344
" />
<path d="M41.6837 27.0430
L41.7131 27.1382
" />
<path d="M2.9732 4.7717
L3.0704 4.7496
" />
<path d="M2.9732 49.9983
L2.8787 49.9665
" />
<path d="M41.7328 27.5340
L41.7131 27.6318
" />
<path d="M2.4178 49.5990
L2.3658 49.5139
" />
<path d="M2.2490 49.1352
L2.2440 49.0356
" />
<path d="M41.5411 27.9888
L41.4771 28.0652
" />
<path d="M2.2440 5.7344
L2.2490 5.6348
" />
<path d="M41.4771 28.0652
L41.4057 28.1348
" />
<path d="M2.3658 5.2561
L2.4178 5.1710
" />
<path d="M41.6450 27.8189
L41.5973 27.9064
" />
<path d="M2.7015 49.8757
L2.6205 49.8175
" />
<path d="M41.7428 27.3352
L41.7428 27.4348
" />
<path d="M2.4780 49.6784
L2.4178 49.5990
" />
<path d="M41.5973 26.8636
L41.6450 26.9511
" />
<path d="M3.5625 4.7864
L3.6553 4.8229
" />
<path d="M2.4780 5.0916
L2.5458 5.0185
" />
<path d="M41.4771 26.7048
L41.5411 26.7812
" />
<path d="M2.6205 49.8175
L2.5458 49.7515
" />
<path d="M41.7131 27.1382
L41.7328 27.2360
" />
<path d="M3.0704 4.7496
L3.1693 4.7372
" />
<path d="M41.5411 26.7812
L41.5973 26.8636
" />
<path d="M2.7015 4.8943
L2.7878 4.8445
" />
<path d="M41.2440 28.2510
L3.7440 49.9017
" />
<path d="M2.4178 5.1710
L2.4780 5.0916
" />
<path d="M3.4665 4.7594
L3.5625 4.7864
" />
</g> 
</svg>
