<?xml version="1.0" standalone="no"?>
 <!DOCTYPE svg PUBLIC "-//W3C//DTD SVG 1.1//EN" 
 "http://www.w3.org/Graphics/SVG/1.1/DTD/svg11.dtd"> 
<svg
  xmlns:svg="http://www.w3.org/2000/svg"
  xmlns="http://www.w3.org/2000/svg"
  xmlns:xlink="http://www.w3.org/1999/xlink"
  version="1.1"
  width="31.1912mm" height="35.8394mm" viewBox="0.0000 0.0000 31.1912 35.8394">
<title>SVG Image created as Plato_A1-B_Paste.svg date 2024/04/29 00:24:34 </title>
  <desc>Image generated by PCBNEW </desc>
<g style="fill:#000000; fill-opacity:1.0000;stroke:#000000; stroke-opacity:1.0000;
stroke-linecap:round; stroke-linejoin:round;"
 transform="translate(0 0) scale(1 1)">
</g>
<g style="fill:none; 
stroke:#000000; stroke-width:0.2000; stroke-opacity:1; 
stroke-linecap:round; stroke-linejoin:round;">
<path d="M31.0505 17.7034
L31.0698 17.7493
" />
<path d="M0.4646 35.7222
L0.4173 35.7063
" />
<path d="M31.0266 17.6596
L31.0505 17.7034
" />
<path d="M31.0845 17.7970
L31.0944 17.8458
" />
<path d="M0.5132 35.7333
L0.4646 35.7222
" />
<path d="M0.6125 0.1000
L0.6622 0.1037
" />
<path d="M30.9986 17.6185
L31.0266 17.6596
" />
<path d="M0.6125 35.7407
L0.5626 35.7395
" />
<path d="M0.1000 0.5998
L0.1025 0.5501
" />
<path d="M0.1099 35.3399
L0.1025 35.2906
" />
<path d="M0.1025 35.2906
L0.1000 35.2409
" />
<path d="M0.3719 0.1549
L0.4173 0.1344
" />
<path d="M30.9665 17.5803
L30.9986 17.6185
" />
<path d="M30.8919 17.5144
L30.9308 17.5455
" />
<path d="M31.0698 17.7493
L31.0845 17.7970
" />
<path d="M31.0994 17.9453
L31.0944 17.9949
" />
<path d="M0.1025 0.5501
L0.1099 0.5008
" />
<path d="M0.7113 0.1124
L0.7592 0.1259
" />
<path d="M31.0944 17.9949
L31.0845 18.0437
" />
<path d="M0.5132 0.1074
L0.5626 0.1012
" />
<path d="M0.8056 35.6966
L0.7592 35.7148
" />
<path d="M0.1393 35.4351
L0.1222 35.3882
" />
<path d="M0.8500 0.1668
L30.8500 17.4873
" />
<path d="M31.0994 17.8954
L31.0994 17.9453
" />
<path d="M0.8056 0.1441
L0.8500 0.1668
" />
<path d="M0.7592 35.7148
L0.7113 35.7283
" />
<path d="M0.3719 35.6858
L0.3287 35.6609
" />
<path d="M0.1869 35.5225
L0.1609 35.4800
" />
<path d="M31.0944 17.8458
L31.0994 17.8954
" />
<path d="M31.0505 18.1373
L31.0266 18.1811
" />
<path d="M30.8919 18.3263
L30.8500 18.3534
" />
<path d="M0.5626 35.7395
L0.5132 35.7333
" />
<path d="M0.6622 35.7370
L0.6125 35.7407
" />
<path d="M0.8500 35.6739
L0.8056 35.6966
" />
<path d="M30.9986 18.2223
L30.9665 18.2604
" />
<path d="M0.4173 0.1344
L0.4646 0.1185
" />
<path d="M31.0845 18.0437
L31.0698 18.0914
" />
<path d="M0.1393 0.4056
L0.1609 0.3607
" />
<path d="M0.6622 0.1037
L0.7113 0.1124
" />
<path d="M0.2170 0.2785
L0.2509 0.2419
" />
<path d="M31.0266 18.1811
L30.9986 18.2223
" />
<path d="M0.5626 0.1012
L0.6125 0.1000
" />
<path d="M0.1869 0.3182
L0.2170 0.2785
" />
<path d="M0.1222 35.3882
L0.1099 35.3399
" />
<path d="M30.8500 18.3534
L0.8500 35.6739
" />
<path d="M0.3287 35.6609
L0.2883 35.6318
" />
<path d="M0.3287 0.1798
L0.3719 0.1549
" />
<path d="M0.1000 35.2409
L0.1000 0.5998
" />
<path d="M30.9308 18.2952
L30.8919 18.3263
" />
<path d="M0.7113 35.7283
L0.6622 35.7370
" />
<path d="M0.1099 0.5008
L0.1222 0.4525
" />
<path d="M0.2509 35.5988
L0.2170 35.5623
" />
<path d="M0.2883 35.6318
L0.2509 35.5988
" />
<path d="M0.7592 0.1259
L0.8056 0.1441
" />
<path d="M31.0698 18.0914
L31.0505 18.1373
" />
<path d="M30.9308 17.5455
L30.9665 17.5803
" />
<path d="M0.2509 0.2419
L0.2883 0.2089
" />
<path d="M0.1609 35.4800
L0.1393 35.4351
" />
<path d="M30.9665 18.2604
L30.9308 18.2952
" />
<path d="M0.1609 0.3607
L0.1869 0.3182
" />
<path d="M0.2170 35.5623
L0.1869 35.5225
" />
<path d="M0.4646 0.1185
L0.5132 0.1074
" />
<path d="M0.2883 0.2089
L0.3287 0.1798
" />
<path d="M30.8500 17.4873
L30.8919 17.5144
" />
<path d="M0.4173 35.7063
L0.3719 35.6858
" />
<path d="M0.1222 0.4525
L0.1393 0.4056
" />
</g> 
</svg>
