<?xml version="1.0" standalone="no"?>
 <!DOCTYPE svg PUBLIC "-//W3C//DTD SVG 1.1//EN" 
 "http://www.w3.org/Graphics/SVG/1.1/DTD/svg11.dtd"> 
<svg
  xmlns:svg="http://www.w3.org/2000/svg"
  xmlns="http://www.w3.org/2000/svg"
  xmlns:xlink="http://www.w3.org/1999/xlink"
  version="1.1"
  width="31.1912mm" height="35.8394mm" viewBox="0.0000 0.0000 31.1912 35.8394">
<title>SVG Image created as Plato_A1-F_Cu.svg date 2024/04/29 00:24:34 </title>
  <desc>Image generated by PCBNEW </desc>
<g style="fill:#000000; fill-opacity:1.0000;stroke:#000000; stroke-opacity:1.0000;
stroke-linecap:round; stroke-linejoin:round;"
 transform="translate(0 0) scale(1 1)">
<path style="fill:#000000; fill-opacity:1.0000; stroke:none;fill-rule:evenodd;"
d="M 1.3372,5.4750
1.3372,3.7750
3.0372,3.7750
3.0372,5.4750
Z" /> 
</g>
<g style="fill:#000000; fill-opacity:1.0000; stroke:none;">
<circle cx="2.1872" cy="7.1650" r="0.8500" /> 
<circle cx="2.1872" cy="9.7050" r="0.8500" /> 
<path style="fill:#000000; fill-opacity:1.0000; stroke:none;fill-rule:evenodd;"
d="M 5.0970,8.2938
4.7470,7.6876
5.3532,7.3376
5.7032,7.9438
Z" /> 
<path style="fill:#000000; fill-opacity:1.0000; stroke:none;fill-rule:evenodd;"
d="M 5.6470,9.2464
5.2970,8.6402
5.9032,8.2902
6.2532,8.8964
Z" /> 
<path style="fill:#000000; fill-opacity:1.0000; stroke:none;fill-rule:evenodd;"
d="M 7.2318,8.3314
6.8818,7.7252
7.4881,7.3752
7.8381,7.9814
Z" /> 
<path style="fill:#000000; fill-opacity:1.0000; stroke:none;fill-rule:evenodd;"
d="M 6.6818,7.3788
6.3318,6.7726
6.9381,6.4226
7.2881,7.0288
Z" /> 
<path style="fill:#000000; fill-opacity:1.0000; stroke:none;fill-rule:evenodd;"
d="M 1.3372,26.6750
1.3372,24.9750
3.0372,24.9750
3.0372,26.6750
Z" /> 
<circle cx="2.1872" cy="28.3650" r="0.8500" /> 
<circle cx="2.1872" cy="30.9050" r="0.8500" /> 
<path style="fill:#000000; fill-opacity:1.0000; stroke:none;fill-rule:evenodd;"
d="M 11.9471,23.9687
11.7659,23.2926
12.4421,23.1114
12.6232,23.7876
Z" /> 
<path style="fill:#000000; fill-opacity:1.0000; stroke:none;fill-rule:evenodd;"
d="M 12.2318,25.0312
12.0506,24.3551
12.7268,24.1739
12.9079,24.8501
Z" /> 
<path style="fill:#000000; fill-opacity:1.0000; stroke:none;fill-rule:evenodd;"
d="M 13.9994,24.5576
13.8183,23.8815
14.4944,23.7003
14.6756,24.3764
Z" /> 
<path style="fill:#000000; fill-opacity:1.0000; stroke:none;fill-rule:evenodd;"
d="M 13.7147,23.4951
13.5336,22.8189
14.2097,22.6378
14.3909,23.3139
Z" /> 
<path style="fill:#000000; fill-opacity:1.0000; stroke:none;fill-rule:evenodd;"
d="M 13.9738,16.8704
13.4788,17.3654
12.9839,16.8704
13.4788,16.3754
Z" /> 
<path style="fill:#000000; fill-opacity:1.0000; stroke:none;fill-rule:evenodd;"
d="M 14.7516,16.0926
14.2567,16.5876
13.7617,16.0926
14.2567,15.5976
Z" /> 
<path style="fill:#000000; fill-opacity:1.0000; stroke:none;fill-rule:evenodd;"
d="M 13.4576,14.7986
12.9627,15.2936
12.4677,14.7986
12.9627,14.3036
Z" /> 
<path style="fill:#000000; fill-opacity:1.0000; stroke:none;fill-rule:evenodd;"
d="M 12.6798,15.5764
12.1848,16.0714
11.6899,15.5764
12.1848,15.0814
Z" /> 
<path style="fill:#000000; fill-opacity:1.0000; stroke:none;fill-rule:evenodd;"
d="M 9.9566,16.5695
10.6566,16.5695
10.6566,17.2695
9.9566,17.2695
Z" /> 
<path style="fill:#000000; fill-opacity:1.0000; stroke:none;fill-rule:evenodd;"
d="M 8.8566,16.5695
9.5566,16.5695
9.5566,17.2695
8.8566,17.2695
Z" /> 
<path style="fill:#000000; fill-opacity:1.0000; stroke:none;fill-rule:evenodd;"
d="M 8.8566,18.3995
9.5566,18.3995
9.5566,19.0995
8.8566,19.0995
Z" /> 
<path style="fill:#000000; fill-opacity:1.0000; stroke:none;fill-rule:evenodd;"
d="M 9.9566,18.3995
10.6566,18.3995
10.6566,19.0995
9.9566,19.0995
Z" /> 
<path style="fill:#000000; fill-opacity:1.0000; stroke:none;fill-rule:evenodd;"
d="M 8.5456,25.4179
8.6671,24.7285
9.3565,24.8501
9.2350,25.5394
Z" /> 
<path style="fill:#000000; fill-opacity:1.0000; stroke:none;fill-rule:evenodd;"
d="M 8.3546,26.5012
8.4761,25.8118
9.1655,25.9334
9.0439,26.6227
Z" /> 
<path style="fill:#000000; fill-opacity:1.0000; stroke:none;fill-rule:evenodd;"
d="M 10.1568,26.8189
10.2783,26.1296
10.9677,26.2511
10.8461,26.9405
Z" /> 
<path style="fill:#000000; fill-opacity:1.0000; stroke:none;fill-rule:evenodd;"
d="M 10.3478,25.7357
10.4693,25.0463
11.1587,25.1678
11.0372,25.8572
Z" /> 
<path style="fill:#000000; fill-opacity:1.0000; stroke:none;fill-rule:evenodd;"
d="M 6.6459,21.0655
6.0115,21.3613
5.7156,20.7269
6.3501,20.4311
Z" /> 
<path style="fill:#000000; fill-opacity:1.0000; stroke:none;fill-rule:evenodd;"
d="M 7.6428,20.6006
7.0084,20.8965
6.7126,20.2620
7.3470,19.9662
Z" /> 
<path style="fill:#000000; fill-opacity:1.0000; stroke:none;fill-rule:evenodd;"
d="M 6.8694,18.9421
6.2350,19.2379
5.9392,18.6035
6.5736,18.3077
Z" /> 
<path style="fill:#000000; fill-opacity:1.0000; stroke:none;fill-rule:evenodd;"
d="M 5.8725,19.4070
5.2381,19.7028
4.9423,19.0684
5.5767,18.7725
Z" /> 
<path style="fill:#000000; fill-opacity:1.0000; stroke:none;fill-rule:evenodd;"
d="M 19.6284,21.0046
18.9522,20.8235
19.1334,20.1473
19.8095,20.3285
Z" /> 
<path style="fill:#000000; fill-opacity:1.0000; stroke:none;fill-rule:evenodd;"
d="M 20.6909,21.2893
20.0147,21.1082
20.1959,20.4320
20.8720,20.6132
Z" /> 
<path style="fill:#000000; fill-opacity:1.0000; stroke:none;fill-rule:evenodd;"
d="M 21.1645,19.5217
20.4884,19.3405
20.6695,18.6644
21.3457,18.8455
Z" /> 
<path style="fill:#000000; fill-opacity:1.0000; stroke:none;fill-rule:evenodd;"
d="M 20.1020,19.2370
19.4258,19.0558
19.6070,18.3797
20.2832,18.5608
Z" /> 
<path style="fill:#000000; fill-opacity:1.0000; stroke:none;fill-rule:evenodd;"
d="M 23.4131,19.0995
22.7131,19.0995
22.7131,18.3995
23.4131,18.3995
Z" /> 
<path style="fill:#000000; fill-opacity:1.0000; stroke:none;fill-rule:evenodd;"
d="M 24.5130,19.0995
23.8130,19.0995
23.8130,18.3995
24.5130,18.3995
Z" /> 
<path style="fill:#000000; fill-opacity:1.0000; stroke:none;fill-rule:evenodd;"
d="M 24.5130,17.2695
23.8130,17.2695
23.8130,16.5695
24.5130,16.5695
Z" /> 
<path style="fill:#000000; fill-opacity:1.0000; stroke:none;fill-rule:evenodd;"
d="M 23.4131,17.2695
22.7131,17.2695
22.7131,16.5695
23.4131,16.5695
Z" /> 
<path style="fill:#000000; fill-opacity:1.0000; stroke:none;fill-rule:evenodd;"
d="M 12.1004,11.2139
12.3399,10.5561
12.9976,10.7955
12.7582,11.4533
Z" /> 
<path style="fill:#000000; fill-opacity:1.0000; stroke:none;fill-rule:evenodd;"
d="M 11.7242,12.2476
11.9636,11.5898
12.6214,11.8292
12.3820,12.4870
Z" /> 
<path style="fill:#000000; fill-opacity:1.0000; stroke:none;fill-rule:evenodd;"
d="M 13.4439,12.8735
13.6833,12.2157
14.3411,12.4551
14.1016,13.1129
Z" /> 
<path style="fill:#000000; fill-opacity:1.0000; stroke:none;fill-rule:evenodd;"
d="M 13.8201,11.8398
14.0595,11.1820
14.7173,11.4214
14.4779,12.0792
Z" /> 
<path style="fill:#000000; fill-opacity:1.0000; stroke:none;fill-rule:evenodd;"
d="M 7.3285,11.0814
7.8234,11.5764
7.3285,12.0714
6.8335,11.5764
Z" /> 
<path style="fill:#000000; fill-opacity:1.0000; stroke:none;fill-rule:evenodd;"
d="M 6.5506,10.3036
7.0456,10.7986
6.5506,11.2936
6.0557,10.7986
Z" /> 
<path style="fill:#000000; fill-opacity:1.0000; stroke:none;fill-rule:evenodd;"
d="M 5.2566,11.5976
5.7516,12.0926
5.2566,12.5876
4.7617,12.0926
Z" /> 
<path style="fill:#000000; fill-opacity:1.0000; stroke:none;fill-rule:evenodd;"
d="M 6.0344,12.3754
6.5294,12.8704
6.0344,13.3654
5.5395,12.8704
Z" /> 
<path style="fill:#000000; fill-opacity:1.0000; stroke:none;fill-rule:evenodd;"
d="M 8.4830,9.9687
8.3018,9.2926
8.9780,9.1114
9.1591,9.7876
Z" /> 
<path style="fill:#000000; fill-opacity:1.0000; stroke:none;fill-rule:evenodd;"
d="M 8.7677,11.0312
8.5865,10.3551
9.2627,10.1739
9.4438,10.8501
Z" /> 
<path style="fill:#000000; fill-opacity:1.0000; stroke:none;fill-rule:evenodd;"
d="M 10.5353,10.5576
10.3542,9.8815
11.0303,9.7003
11.2115,10.3764
Z" /> 
<path style="fill:#000000; fill-opacity:1.0000; stroke:none;fill-rule:evenodd;"
d="M 10.2506,9.4951
10.0695,8.8189
10.7456,8.6378
10.9268,9.3139
Z" /> 
<path style="fill:#000000; fill-opacity:1.0000; stroke:none;fill-rule:evenodd;"
d="M 5.6719,16.9548
5.0142,16.7154
5.2536,16.0576
5.9114,16.2970
Z" /> 
<path style="fill:#000000; fill-opacity:1.0000; stroke:none;fill-rule:evenodd;"
d="M 6.7056,17.3310
6.0478,17.0916
6.2872,16.4338
6.9450,16.6732
Z" /> 
<path style="fill:#000000; fill-opacity:1.0000; stroke:none;fill-rule:evenodd;"
d="M 7.3315,15.6114
6.6737,15.3720
6.9131,14.7142
7.5709,14.9536
Z" /> 
<path style="fill:#000000; fill-opacity:1.0000; stroke:none;fill-rule:evenodd;"
d="M 6.2978,15.2352
5.6401,14.9958
5.8795,14.3380
6.5373,14.5774
Z" /> 
<path style="fill:#000000; fill-opacity:1.0000; stroke:none;fill-rule:evenodd;"
d="M 20.1717,17.1150
19.4823,17.2366
19.3607,16.5472
20.0501,16.4256
Z" /> 
<path style="fill:#000000; fill-opacity:1.0000; stroke:none;fill-rule:evenodd;"
d="M 21.2549,16.9240
20.5656,17.0456
20.4440,16.3562
21.1334,16.2346
Z" /> 
<path style="fill:#000000; fill-opacity:1.0000; stroke:none;fill-rule:evenodd;"
d="M 20.9372,15.1218
20.2478,15.2434
20.1262,14.5540
20.8156,14.4324
Z" /> 
<path style="fill:#000000; fill-opacity:1.0000; stroke:none;fill-rule:evenodd;"
d="M 19.8539,15.3128
19.1645,15.4344
19.0430,14.7450
19.7323,14.6235
Z" /> 
<path style="fill:#000000; fill-opacity:1.0000; stroke:none;fill-rule:evenodd;"
d="M 9.4033,12.6035
10.0377,12.3077
10.3335,12.9421
9.6991,13.2379
Z" /> 
<path style="fill:#000000; fill-opacity:1.0000; stroke:none;fill-rule:evenodd;"
d="M 8.4064,13.0684
9.0408,12.7725
9.3366,13.4070
8.7022,13.7028
Z" /> 
<path style="fill:#000000; fill-opacity:1.0000; stroke:none;fill-rule:evenodd;"
d="M 9.1797,14.7269
9.8142,14.4311
10.1100,15.0655
9.4756,15.3613
Z" /> 
<path style="fill:#000000; fill-opacity:1.0000; stroke:none;fill-rule:evenodd;"
d="M 10.1767,14.2620
10.8111,13.9662
11.1069,14.6006
10.4725,14.8965
Z" /> 
<path style="fill:#000000; fill-opacity:1.0000; stroke:none;fill-rule:evenodd;"
d="M 7.1330,24.8008
6.6831,25.3371
6.1468,24.8871
6.5968,24.3509
Z" /> 
<path style="fill:#000000; fill-opacity:1.0000; stroke:none;fill-rule:evenodd;"
d="M 7.8401,23.9582
7.3901,24.4944
6.8539,24.0445
7.3039,23.5082
Z" /> 
<path style="fill:#000000; fill-opacity:1.0000; stroke:none;fill-rule:evenodd;"
d="M 6.4382,22.7819
5.9883,23.3181
5.4521,22.8682
5.9020,22.3319
Z" /> 
<path style="fill:#000000; fill-opacity:1.0000; stroke:none;fill-rule:evenodd;"
d="M 5.7312,23.6245
5.2812,24.1608
4.7450,23.7108
5.1949,23.1746
Z" /> 
<path style="fill:#000000; fill-opacity:1.0000; stroke:none;fill-rule:evenodd;"
d="M 16.1231,12.6836
16.6965,12.2821
17.0980,12.8555
16.5246,13.2570
Z" /> 
<path style="fill:#000000; fill-opacity:1.0000; stroke:none;fill-rule:evenodd;"
d="M 15.2220,13.3145
15.7954,12.9130
16.1969,13.4864
15.6235,13.8879
Z" /> 
<path style="fill:#000000; fill-opacity:1.0000; stroke:none;fill-rule:evenodd;"
d="M 16.2717,14.8135
16.8451,14.4120
17.2466,14.9854
16.6732,15.3869
Z" /> 
<path style="fill:#000000; fill-opacity:1.0000; stroke:none;fill-rule:evenodd;"
d="M 17.1727,14.1826
17.7462,13.7811
18.1477,14.3545
17.5743,14.7560
Z" /> 
<path style="fill:#000000; fill-opacity:1.0000; stroke:none;fill-rule:evenodd;"
d="M 8.6363,21.2139
8.8758,20.5561
9.5335,20.7955
9.2941,21.4533
Z" /> 
<path style="fill:#000000; fill-opacity:1.0000; stroke:none;fill-rule:evenodd;"
d="M 8.2601,22.2476
8.4995,21.5898
9.1573,21.8292
8.9179,22.4870
Z" /> 
<path style="fill:#000000; fill-opacity:1.0000; stroke:none;fill-rule:evenodd;"
d="M 9.9798,22.8735
10.2192,22.2157
10.8770,22.4551
10.6375,23.1129
Z" /> 
<path style="fill:#000000; fill-opacity:1.0000; stroke:none;fill-rule:evenodd;"
d="M 10.3560,21.8398
10.5954,21.1820
11.2532,21.4214
11.0138,22.0792
Z" /> 
<path style="fill:#000000; fill-opacity:1.0000; stroke:none;fill-rule:evenodd;"
d="M 16.8848,16.5695
17.5848,16.5695
17.5848,17.2695
16.8848,17.2695
Z" /> 
<path style="fill:#000000; fill-opacity:1.0000; stroke:none;fill-rule:evenodd;"
d="M 15.7848,16.5695
16.4848,16.5695
16.4848,17.2695
15.7848,17.2695
Z" /> 
<path style="fill:#000000; fill-opacity:1.0000; stroke:none;fill-rule:evenodd;"
d="M 15.7848,18.3995
16.4848,18.3995
16.4848,19.0995
15.7848,19.0995
Z" /> 
<path style="fill:#000000; fill-opacity:1.0000; stroke:none;fill-rule:evenodd;"
d="M 16.8848,18.3995
17.5848,18.3995
17.5848,19.0995
16.8848,19.0995
Z" /> 
<path style="fill:#000000; fill-opacity:1.0000; stroke:none;fill-rule:evenodd;"
d="M 15.8444,20.8682
16.2943,20.3319
16.8305,20.7819
16.3806,21.3181
Z" /> 
<path style="fill:#000000; fill-opacity:1.0000; stroke:none;fill-rule:evenodd;"
d="M 15.1373,21.7108
15.5872,21.1746
16.1235,21.6245
15.6735,22.1608
Z" /> 
<path style="fill:#000000; fill-opacity:1.0000; stroke:none;fill-rule:evenodd;"
d="M 16.5392,22.8871
16.9891,22.3509
17.5253,22.8008
17.0754,23.3371
Z" /> 
<path style="fill:#000000; fill-opacity:1.0000; stroke:none;fill-rule:evenodd;"
d="M 17.2462,22.0445
17.6962,21.5082
18.2324,21.9582
17.7825,22.4944
Z" /> 
<path style="fill:#000000; fill-opacity:1.0000; stroke:none;fill-rule:evenodd;"
d="M 7.3545,28.5504
7.0587,29.1848
6.4243,28.8890
6.7201,28.2545
Z" /> 
<path style="fill:#000000; fill-opacity:1.0000; stroke:none;fill-rule:evenodd;"
d="M 7.8194,27.5534
7.5235,28.1879
6.8891,27.8920
7.1850,27.2576
Z" /> 
<path style="fill:#000000; fill-opacity:1.0000; stroke:none;fill-rule:evenodd;"
d="M 6.1608,26.7800
5.8650,27.4145
5.2306,27.1186
5.5264,26.4842
Z" /> 
<path style="fill:#000000; fill-opacity:1.0000; stroke:none;fill-rule:evenodd;"
d="M 5.6960,27.7770
5.4001,28.4114
4.7657,28.1156
5.0615,27.4812
Z" /> 
<path style="fill:#000000; fill-opacity:1.0000; stroke:none;fill-rule:evenodd;"
d="M 12.1231,20.4944
11.6732,19.9582
12.2094,19.5082
12.6594,20.0445
Z" /> 
<path style="fill:#000000; fill-opacity:1.0000; stroke:none;fill-rule:evenodd;"
d="M 12.8302,21.3371
12.3803,20.8008
12.9165,20.3509
13.3664,20.8871
Z" /> 
<path style="fill:#000000; fill-opacity:1.0000; stroke:none;fill-rule:evenodd;"
d="M 14.2321,20.1608
13.7821,19.6245
14.3183,19.1746
14.7683,19.7108
Z" /> 
<path style="fill:#000000; fill-opacity:1.0000; stroke:none;fill-rule:evenodd;"
d="M 13.5250,19.3181
13.0751,18.7819
13.6113,18.3319
14.0612,18.8682
Z" /> 
</g>
<g style="fill:none; 
stroke:#000000; stroke-width:0.2000; stroke-opacity:1; 
stroke-linecap:round; stroke-linejoin:round;">
<path d="M12.3064 8.5124
L14.8706 11.0766
" />
<path d="M1.0372 6.0150
L1.0372 3.4750
" />
<path d="M1.0372 3.4750
L4.2869 3.4750
" />
<path d="M4.1678 3.4750
L6.8153 6.1226
" />
<path d="M14.8706 11.0766
L17.0032 11.0766
" />
<path d="M19.3510 13.4244
L21.2331 13.4244
" />
<path d="M17.0032 11.0766
L19.3510 13.4244
" />
<path d="M21.2331 13.4244
L24.1630 16.3543
" />
<path d="M2.1872 7.1650
L1.0372 6.0150
" />
<path d="M24.1630 16.3543
L24.1630 16.9195
" />
<path d="M11.0445 8.5124
L12.3064 8.5124
" />
<path d="M8.6547 6.1226
L11.0445 8.5124
" />
<path d="M6.8153 6.1226
L8.6547 6.1226
" />
</g>
<g style="fill:none; 
stroke:#000000; stroke-width:0.5080; stroke-opacity:1; 
stroke-linecap:round; stroke-linejoin:round;">
<path d="M12.4793 25.9494
L10.3975 28.0312
" />
<path d="M13.7446 25.9494
L15.6304 24.0637
" />
<path d="M15.3308 20.2235
L15.3904 20.2830
" />
<path d="M20.4434 20.8607
L22.9099 20.8607
" />
<path d="M8.0916 24.7459
L8.0916 25.8762
" />
<path d="M14.2567 14.8533
L15.7095 13.4004
" />
<path d="M8.0916 25.8762
L8.4326 26.2173
" />
<path d="M15.7095 16.4941
L16.1348 16.9195
" />
<path d="M7.3470 20.6006
L7.1777 20.4313
" />
<path d="M17.6027 24.0637
L20.4434 21.2230
" />
<path d="M7.3470 24.0013
L8.0916 24.7459
" />
<path d="M5.7751 10.0231
L6.5506 10.7986
" />
<path d="M14.2567 16.0926
L14.2567 14.8533
" />
<path d="M15.7095 13.4004
L15.7095 16.4941
" />
<path d="M15.3904 20.2830
L15.3904 21.4277
" />
<path d="M24.1630 19.6075
L24.1630 18.7495
" />
<path d="M15.6304 24.0637
L15.6304 21.6677
" />
<path d="M5.7751 8.7683
L5.7751 10.0231
" />
<path d="M6.5506 10.7986
L6.7466 10.6026
" />
<path d="M8.7087 22.0384
L8.7087 22.6396
" />
<path d="M15.3308 16.7235
L15.3308 20.2235
" />
<path d="M2.1872 9.7050
L0.8832 11.0090
" />
<path d="M10.3975 28.0312
L7.6627 28.0312
" />
<path d="M10.3975 28.0312
L8.8543 28.0312
" />
<path d="M8.7257 16.4386
L9.2066 16.9195
" />
<path d="M8.7087 22.6396
L7.3470 24.0013
" />
<path d="M22.9099 20.8607
L24.1630 19.6075
" />
<path d="M7.4411 17.8271
L7.4411 20.1680
" />
<path d="M5.9805 30.9050
L2.0681 30.9050
" />
<path d="M9.0152 10.6026
L8.8715 10.7463
" />
<path d="M7.1777 20.4313
L7.1777 20.5074
" />
<path d="M7.1777 20.5074
L8.7087 22.0384
" />
<path d="M12.4793 24.6026
L12.4793 25.9494
" />
<path d="M15.6348 16.4195
L15.3079 16.0926
" />
<path d="M8.4026 19.2064
L7.1777 20.4313
" />
<path d="M0.8832 29.6010
L2.1872 30.9050
" />
<path d="M8.8715 13.6829
L8.7257 13.8286
" />
<path d="M6.5335 16.9195
L6.4964 16.8824
" />
<path d="M15.3079 16.0926
L14.2567 16.0926
" />
<path d="M9.2066 16.9195
L6.5335 16.9195
" />
<path d="M8.4326 26.2173
L8.7600 26.2173
" />
<path d="M12.4793 25.9494
L13.7446 25.9494
" />
<path d="M8.4026 17.7235
L8.4026 19.2064
" />
<path d="M15.6304 24.0637
L17.6027 24.0637
" />
<path d="M0.8832 11.0090
L0.8832 29.6010
" />
<path d="M15.7095 16.4941
L15.6348 16.4195
" />
<path d="M6.4964 16.8824
L7.4411 17.8271
" />
<path d="M8.7257 13.8286
L8.7257 16.4386
" />
<path d="M20.4434 21.2230
L20.4434 20.8607
" />
<path d="M8.8715 13.2377
L8.8715 13.6829
" />
<path d="M15.6348 16.4195
L15.3308 16.7235
" />
<path d="M8.8715 10.7463
L8.8715 13.2377
" />
<path d="M9.2066 16.9195
L8.4026 17.7235
" />
<path d="M8.8543 28.0312
L5.9805 30.9050
" />
<path d="M6.7466 10.6026
L9.0152 10.6026
" />
<path d="M15.3904 21.4277
L15.6304 21.6677
" />
<path d="M7.4411 20.1680
L7.1777 20.4313
" />
<path d="M7.3470 24.0013
L7.3470 20.6006
" />
<path d="M7.6627 28.0312
L7.3543 27.7227
" />
</g>
<g style="fill:none; 
stroke:#000000; stroke-width:0.2000; stroke-opacity:1; 
stroke-linecap:round; stroke-linejoin:round;">
<path d="M21.5549 17.2414
L21.5549 15.8611
" />
<path d="M21.5549 15.8611
L20.5317 14.8379
" />
<path d="M23.0631 18.7495
L21.5549 17.2414
" />
</g>
<g style="fill:none; 
stroke:#000000; stroke-width:0.5080; stroke-opacity:1; 
stroke-linecap:round; stroke-linejoin:round;">
<path d="M6.6148 27.3067
L5.9752 27.9463
" />
<path d="M2.0681 25.8250
L4.5602 23.3330
" />
<path d="M19.1216 13.9784
L19.1348 13.9784
" />
<path d="M2.0681 4.6250
L4.5343 4.6250
" />
<path d="M11.9160 21.6306
L13.3518 23.0664
" />
<path d="M17.7393 19.2540
L17.2348 18.7495
" />
<path d="M6.5537 6.6445
L4.9099 6.6445
" />
<path d="M10.8046 18.8220
L10.8046 21.6306
" />
<path d="M12.1848 15.5764
L12.1848 17.4417
" />
<path d="M12.1848 15.5764
L10.7875 14.1791
" />
<path d="M5.9752 27.9463
L5.2308 27.9463
" />
<path d="M10.7533 23.6392
L10.7533 25.4517
" />
<path d="M17.9503 13.9784
L17.6602 14.2686
" />
<path d="M19.6348 13.9784
L19.1348 13.9784
" />
<path d="M19.6348 14.8425
L19.4484 15.0289
" />
<path d="M12.0769 9.0664
L14.2687 11.2582
" />
<path d="M9.6348 26.6739
L8.9855 27.3232
" />
<path d="M19.1348 13.9784
L19.4484 14.2920
" />
<path d="M4.5602 22.9898
L5.2381 23.6677
" />
<path d="M8.9855 27.3232
L8.2312 27.3232
" />
<path d="M10.7875 14.2856
L10.6418 14.4313
" />
<path d="M14.2687 11.2582
L14.2687 11.6306
" />
<path d="M5.1348 13.9195
L4.5602 14.4942
" />
<path d="M21.0037 13.9784
L19.6348 13.9784
" />
<path d="M5.1348 13.4195
L5.4854 13.4195
" />
<path d="M5.1348 13.8328
L5.1348 13.9195
" />
<path d="M6.7307 26.8036
L6.6148 26.9195
" />
<path d="M13.3518 23.0664
L13.9622 23.0664
" />
<path d="M12.1848 17.4417
L13.5681 18.8250
" />
<path d="M4.9099 6.6445
L4.2930 7.2613
" />
<path d="M5.4854 13.4195
L6.0344 12.8704
" />
<path d="M4.5602 18.3905
L5.4074 19.2377
" />
<path d="M19.4484 14.2920
L19.4484 15.0289
" />
<path d="M18.9067 15.5706
L18.9067 17.8606
" />
<path d="M10.3141 25.4517
L9.6348 26.1310
" />
<path d="M11.9160 22.4765
L10.7533 23.6392
" />
<path d="M6.8100 6.9007
L6.5537 6.6445
" />
<path d="M7.7116 26.8036
L6.7307 26.8036
" />
<path d="M10.5808 11.6731
L10.5808 11.9195
" />
<path d="M12.0769 9.0664
L13.1126 10.1021
" />
<path d="M4.2930 7.2613
L4.2930 12.5777
" />
<path d="M10.8046 21.6306
L11.9160 21.6306
" />
<path d="M5.1348 13.8328
L6.0887 14.7866
" />
<path d="M23.0631 16.0615
L23.0631 16.9195
" />
<path d="M4.5602 27.2756
L5.2308 27.9463
" />
<path d="M19.6348 13.9784
L19.6348 14.8425
" />
<path d="M10.7533 25.4517
L10.3141 25.4517
" />
<path d="M18.1238 17.8606
L17.2348 18.7495
" />
<path d="M10.7875 12.1262
L10.7875 14.2856
" />
<path d="M13.1126 10.1021
L12.1518 10.1021
" />
<path d="M18.9067 17.8606
L19.8545 18.8083
" />
<path d="M23.0631 16.9195
L23.0631 16.0378
" />
<path d="M10.4981 9.0664
L12.0769 9.0664
" />
<path d="M23.0631 16.0378
L23.0631 16.4115
" />
<path d="M4.5602 18.3905
L4.5602 22.9898
" />
<path d="M4.5602 22.9898
L4.5602 27.2756
" />
<path d="M4.2930 12.5777
L5.1348 13.4195
" />
<path d="M10.8771 18.7495
L10.8046 18.8220
" />
<path d="M5.1348 13.4195
L5.1348 13.8328
" />
<path d="M4.5602 23.3330
L4.5602 22.9898
" />
<path d="M8.3324 6.9007
L6.8100 6.9007
" />
<path d="M4.5343 4.6250
L6.8100 6.9007
" />
<path d="M17.7393 22.0013
L17.7393 19.2540
" />
<path d="M10.4981 9.0664
L8.3324 6.9007
" />
<path d="M23.0631 16.0378
L21.0037 13.9784
" />
<path d="M16.7737 11.6306
L14.2687 11.6306
" />
<path d="M19.1348 13.9784
L17.9503 13.9784
" />
<path d="M16.7737 11.6306
L19.1216 13.9784
" />
<path d="M9.6348 26.1310
L9.6348 26.6739
" />
<path d="M10.7875 14.1791
L10.7875 12.1262
" />
<path d="M4.5602 14.4942
L4.5602 18.3905
" />
<path d="M12.1848 17.4417
L10.8771 18.7495
" />
<path d="M12.1518 10.1021
L10.5808 11.6731
" />
<path d="M19.4484 15.0289
L18.9067 15.5706
" />
<path d="M8.2312 27.3232
L7.7116 26.8036
" />
<path d="M10.5808 11.9195
L10.7875 12.1262
" />
<path d="M6.6148 26.9195
L6.6148 27.3067
" />
<path d="M11.9160 21.6306
L11.9160 22.4765
" />
<path d="M10.8771 18.7495
L10.3066 18.7495
" />
<path d="M18.9067 17.8606
L18.1238 17.8606
" />
</g>
<g style="fill:none; 
stroke:#000000; stroke-width:0.2000; stroke-opacity:1; 
stroke-linecap:round; stroke-linejoin:round;">
<path d="M20.9170 17.9819
L20.9170 19.0930
" />
<path d="M19.7662 16.8311
L20.9170 17.9819
" />
<path d="M17.8572 22.8440
L19.3809 21.3203
" />
<path d="M17.0322 22.8440
L17.8572 22.8440
" />
<path d="M19.3809 21.3203
L19.3809 20.5760
" />
<path d="M16.3375 18.9521
L16.1348 18.7495
" />
<path d="M16.3375 20.8250
L16.3375 18.9521
" />
<path d="M16.6106 12.7695
L16.3593 12.5182
" />
<path d="M14.0385 12.5182
L13.8925 12.6643
" />
<path d="M16.3593 12.5182
L14.0385 12.5182
" />
<path d="M13.5905 22.3378
L14.3340 22.3378
" />
<path d="M13.4986 22.4297
L13.5905 22.3378
" />
<path d="M14.2096 24.0916
L14.2469 24.1289
" />
<path d="M14.3340 22.3378
L14.6909 22.6947
" />
<path d="M14.6909 22.6947
L14.6909 23.4382
" />
<path d="M14.2096 23.9195
L14.2096 24.0916
" />
<path d="M12.1663 20.0013
L11.9178 20.2498
" />
<path d="M14.6909 23.4382
L14.2096 23.9195
" />
<path d="M11.9178 20.2498
L11.9178 20.8490
" />
<path d="M11.9178 20.8490
L13.4986 22.4297
" />
<path d="M8.9511 24.1416
L10.4284 22.6643
" />
<path d="M8.9511 25.1340
L8.9511 24.1416
" />
<path d="M11.4587 24.2759
L11.4587 25.9940
" />
<path d="M12.1946 23.5401
L11.4587 24.2759
" />
<path d="M11.4587 25.9940
L10.9176 26.5350
" />
<path d="M10.9176 26.5350
L10.5622 26.5350
" />
<path d="M9.0849 18.8712
L9.2066 18.7495
" />
<path d="M9.0849 21.0047
L9.0849 18.8712
" />
<path d="M10.3066 15.5580
L10.3066 16.9195
" />
<path d="M9.6449 14.8962
L10.3066 15.5580
" />
<path d="M8.7305 9.2238
L8.7305 9.5401
" />
<path d="M7.3600 7.8533
L8.7305 9.2238
" />
<path d="M4.9689 11.8049
L5.2566 12.0926
" />
<path d="M5.2251 7.8157
L4.9689 8.0719
" />
<path d="M4.9689 8.0719
L4.9689 11.8049
" />
<path d="M6.4043 18.7728
L5.4628 17.8312
" />
<path d="M5.4628 17.8312
L5.4628 16.5062
" />
<path d="M5.9451 22.8250
L5.9451 21.1318
" />
<path d="M5.9451 21.1318
L6.1808 20.8962
" />
<path d="M2.1872 28.3650
L2.5419 28.7197
" />
<path d="M2.4228 28.7197
L6.8894 28.7197
" />
<path d="M16.7591 16.4438
L17.2348 16.9195
" />
<path d="M16.7591 14.8995
L16.7591 16.4438
" />
<path d="M12.5490 11.0047
L12.2640 11.2898
" />
<path d="M11.8394 11.2898
L11.4242 11.7049
" />
<path d="M11.4242 12.3718
L11.6348 12.5825
" />
<path d="M11.4242 11.7049
L11.4242 12.3718
" />
<path d="M12.2640 11.2898
L11.8394 11.2898
" />
<path d="M11.6348 12.5825
L11.6348 13.4708
" />
<path d="M11.6348 13.4708
L12.9627 14.7986
" />
<path d="M14.5236 17.9152
L14.5236 19.4192
" />
<path d="M13.4788 16.8704
L14.5236 17.9152
" />
<path d="M14.5236 19.4192
L14.2752 19.6677
" />
<path d="M9.8684 11.0433
L10.7828 10.1289
" />
<path d="M9.8684 12.7728
L9.8684 11.0433
" />
<path d="M7.3285 11.5764
L7.3285 14.9567
" />
<path d="M7.3285 14.9567
L7.1223 15.1628
" />
<path d="M5.6957 25.7882
L6.6399 24.8440
" />
<path d="M5.6957 26.9493
L5.6957 25.7882
" />
</g>
<g style="fill:#FFFFFF; fill-opacity:1.0000; stroke:none;">
<circle cx="2.1872" cy="4.6250" r="0.5000" /> 
</g>
<g style="fill:#FFFFFF; fill-opacity:1.0000; stroke:none;">
<circle cx="2.1872" cy="7.1650" r="0.5000" /> 
</g>
<g style="fill:#FFFFFF; fill-opacity:1.0000; stroke:none;">
<circle cx="2.1872" cy="9.7050" r="0.5000" /> 
</g>
<g style="fill:#FFFFFF; fill-opacity:1.0000; stroke:none;">
<circle cx="2.1872" cy="25.8250" r="0.5000" /> 
</g>
<g style="fill:#FFFFFF; fill-opacity:1.0000; stroke:none;">
<circle cx="2.1872" cy="28.3650" r="0.5000" /> 
</g>
<g style="fill:#FFFFFF; fill-opacity:1.0000; stroke:none;">
<circle cx="2.1872" cy="30.9050" r="0.5000" /> 
</g>
<g style="fill:none; 
stroke:#000000; stroke-width:0.2000; stroke-opacity:1; 
stroke-linecap:round; stroke-linejoin:round;">
<path d="M31.0505 17.7034
L31.0698 17.7493
" />
<path d="M0.4646 35.7222
L0.4173 35.7063
" />
<path d="M31.0266 17.6596
L31.0505 17.7034
" />
<path d="M31.0845 17.7970
L31.0944 17.8458
" />
<path d="M0.5132 35.7333
L0.4646 35.7222
" />
<path d="M0.6125 0.1000
L0.6622 0.1037
" />
<path d="M30.9986 17.6185
L31.0266 17.6596
" />
<path d="M0.6125 35.7407
L0.5626 35.7395
" />
<path d="M0.1000 0.5998
L0.1025 0.5501
" />
<path d="M0.1099 35.3399
L0.1025 35.2906
" />
<path d="M0.1025 35.2906
L0.1000 35.2409
" />
<path d="M0.3719 0.1549
L0.4173 0.1344
" />
<path d="M30.9665 17.5803
L30.9986 17.6185
" />
<path d="M30.8919 17.5144
L30.9308 17.5455
" />
<path d="M31.0698 17.7493
L31.0845 17.7970
" />
<path d="M31.0994 17.9453
L31.0944 17.9949
" />
<path d="M0.1025 0.5501
L0.1099 0.5008
" />
<path d="M0.7113 0.1124
L0.7592 0.1259
" />
<path d="M31.0944 17.9949
L31.0845 18.0437
" />
<path d="M0.5132 0.1074
L0.5626 0.1012
" />
<path d="M0.8056 35.6966
L0.7592 35.7148
" />
<path d="M0.1393 35.4351
L0.1222 35.3882
" />
<path d="M0.8500 0.1668
L30.8500 17.4873
" />
<path d="M31.0994 17.8954
L31.0994 17.9453
" />
<path d="M0.8056 0.1441
L0.8500 0.1668
" />
<path d="M0.7592 35.7148
L0.7113 35.7283
" />
<path d="M0.3719 35.6858
L0.3287 35.6609
" />
<path d="M0.1869 35.5225
L0.1609 35.4800
" />
<path d="M31.0944 17.8458
L31.0994 17.8954
" />
<path d="M31.0505 18.1373
L31.0266 18.1811
" />
<path d="M30.8919 18.3263
L30.8500 18.3534
" />
<path d="M0.5626 35.7395
L0.5132 35.7333
" />
<path d="M0.6622 35.7370
L0.6125 35.7407
" />
<path d="M0.8500 35.6739
L0.8056 35.6966
" />
<path d="M30.9986 18.2223
L30.9665 18.2604
" />
<path d="M0.4173 0.1344
L0.4646 0.1185
" />
<path d="M31.0845 18.0437
L31.0698 18.0914
" />
<path d="M0.1393 0.4056
L0.1609 0.3607
" />
<path d="M0.6622 0.1037
L0.7113 0.1124
" />
<path d="M0.2170 0.2785
L0.2509 0.2419
" />
<path d="M31.0266 18.1811
L30.9986 18.2223
" />
<path d="M0.5626 0.1012
L0.6125 0.1000
" />
<path d="M0.1869 0.3182
L0.2170 0.2785
" />
<path d="M0.1222 35.3882
L0.1099 35.3399
" />
<path d="M30.8500 18.3534
L0.8500 35.6739
" />
<path d="M0.3287 35.6609
L0.2883 35.6318
" />
<path d="M0.3287 0.1798
L0.3719 0.1549
" />
<path d="M0.1000 35.2409
L0.1000 0.5998
" />
<path d="M30.9308 18.2952
L30.8919 18.3263
" />
<path d="M0.7113 35.7283
L0.6622 35.7370
" />
<path d="M0.1099 0.5008
L0.1222 0.4525
" />
<path d="M0.2509 35.5988
L0.2170 35.5623
" />
<path d="M0.2883 35.6318
L0.2509 35.5988
" />
<path d="M0.7592 0.1259
L0.8056 0.1441
" />
<path d="M31.0698 18.0914
L31.0505 18.1373
" />
<path d="M30.9308 17.5455
L30.9665 17.5803
" />
<path d="M0.2509 0.2419
L0.2883 0.2089
" />
<path d="M0.1609 35.4800
L0.1393 35.4351
" />
<path d="M30.9665 18.2604
L30.9308 18.2952
" />
<path d="M0.1609 0.3607
L0.1869 0.3182
" />
<path d="M0.2170 35.5623
L0.1869 35.5225
" />
<path d="M0.4646 0.1185
L0.5132 0.1074
" />
<path d="M0.2883 0.2089
L0.3287 0.1798
" />
<path d="M30.8500 17.4873
L30.8919 17.5144
" />
<path d="M0.4173 35.7063
L0.3719 35.6858
" />
<path d="M0.1222 0.4525
L0.1393 0.4056
" />
</g> 
</svg>
