<?xml version="1.0" encoding="utf-8" standalone="no"?>
<!DOCTYPE svg PUBLIC "-//W3C//DTD SVG 1.1//EN"
  "http://www.w3.org/Graphics/SVG/1.1/DTD/svg11.dtd">
<svg xmlns:xlink="http://www.w3.org/1999/xlink" width="460.8pt" height="345.6pt" viewBox="0 0 460.8 345.6" xmlns="http://www.w3.org/2000/svg" version="1.1">
 <metadata>
  <rdf:RDF xmlns:dc="http://purl.org/dc/elements/1.1/" xmlns:cc="http://creativecommons.org/ns#" xmlns:rdf="http://www.w3.org/1999/02/22-rdf-syntax-ns#">
   <cc:Work>
    <dc:type rdf:resource="http://purl.org/dc/dcmitype/StillImage"/>
    <dc:date>2024-04-30T00:30:36.318621</dc:date>
    <dc:format>image/svg+xml</dc:format>
    <dc:creator>
     <cc:Agent>
      <dc:title>Matplotlib v3.8.2, https://matplotlib.org/</dc:title>
     </cc:Agent>
    </dc:creator>
   </cc:Work>
  </rdf:RDF>
 </metadata>
 <defs>
  <style type="text/css">*{stroke-linejoin: round; stroke-linecap: butt}</style>
 </defs>
 <g id="figure_1">
  <g id="patch_1">
   <path d="M 0 345.6 
L 460.8 345.6 
L 460.8 0 
L 0 0 
z
" style="fill: #ffffff"/>
  </g>
  <g id="axes_1">
   <g id="patch_2">
    <path d="M 115.29797 307.584 
L 357.02203 307.584 
L 357.02203 41.472 
L 115.29797 41.472 
z
" style="fill: #ffffff"/>
   </g>
   <g id="patch_3">
    <path d="M 159.438885 269.185714 
L 159.065946 269.37691 
L 158.675822 269.530022 
L 158.272392 269.643529 
L 157.859665 269.716304 
L 157.441743 269.747623 
L 157.02278 269.737175 
L 156.606938 269.685063 
L 156.198352 269.591806 
L 155.801081 269.45833 
L 155.419075 269.285962 
L 155.056129 269.076415 
L 154.71585 268.831772 
L 154.401622 268.554463 
L 154.116565 268.247246 
L 153.863515 267.913172 
L 153.644984 267.555563 
L 153.463146 267.177973 
L 153.319808 266.784153 
L 153.216393 266.378019 
L 153.153931 265.963606 
L 153.13304 265.545033 
L 153.13304 83.510967 
L 153.153931 83.092394 
L 153.216393 82.677981 
L 153.319808 82.271847 
L 153.463146 81.878027 
L 153.644984 81.500437 
L 153.863515 81.142828 
L 154.116565 80.808754 
L 154.401622 80.501537 
L 154.71585 80.224228 
L 155.056129 79.979585 
L 155.419075 79.770038 
L 155.801081 79.59767 
L 156.198352 79.464194 
L 156.606938 79.370937 
L 157.02278 79.318825 
L 157.441743 79.308377 
L 157.859665 79.339696 
L 158.272392 79.412471 
L 158.675822 79.525978 
L 159.065946 79.67909 
L 159.438885 79.870286 
L 317.085011 170.887319 
L 317.437061 171.114697 
L 317.764722 171.375997 
L 318.064737 171.668624 
L 318.334126 171.989669 
L 318.57021 172.33594 
L 318.770643 172.703998 
L 318.933434 173.090183 
L 319.056964 173.490657 
L 319.140006 173.901442 
L 319.181734 174.318453 
L 319.181734 174.737547 
L 319.140006 175.154558 
L 319.056964 175.565343 
L 318.933434 175.965817 
L 318.770643 176.352002 
L 318.57021 176.72006 
L 318.334126 177.066331 
L 318.064737 177.387376 
L 317.764722 177.680003 
L 317.437061 177.941303 
L 317.085011 178.168681 
z
" clip-path="url(#pc3cc1856b9)" style="fill: #add8e6; opacity: 0.5; stroke: #0000ff; stroke-linejoin: miter"/>
   </g>
   <g id="patch_4">
    <path d="M 312.560946 174.528 
L 312.488072 176.011394 
L 312.27015 177.480502 
L 311.90928 178.921176 
L 311.408937 180.319542 
L 310.77394 181.662131 
L 310.010403 182.936016 
L 309.12568 184.128926 
L 308.128292 185.229374 
L 307.027844 186.226762 
L 305.834934 187.111484 
L 304.56105 187.875021 
L 303.21846 188.510019 
L 301.820095 189.010362 
L 300.379421 189.371232 
L 298.910313 189.589154 
L 297.426918 189.662028 
L 295.943524 189.589154 
L 294.474416 189.371232 
L 293.033742 189.010362 
L 291.635377 188.510019 
L 290.292787 187.875021 
L 289.018903 187.111484 
L 287.825993 186.226762 
L 286.725545 185.229374 
L 285.728157 184.128926 
L 284.843434 182.936016 
L 284.079897 181.662131 
L 283.4449 180.319542 
L 282.944557 178.921176 
L 282.583686 177.480502 
L 282.365765 176.011394 
L 282.29289 174.528 
L 282.365765 173.044606 
L 282.583686 171.575498 
L 282.944557 170.134824 
L 283.4449 168.736458 
L 284.079897 167.393869 
L 284.843434 166.119984 
L 285.728157 164.927074 
L 286.725545 163.826626 
L 287.825993 162.829238 
L 289.018903 161.944516 
L 290.292787 161.180979 
L 291.635377 160.545981 
L 293.033742 160.045638 
L 294.474416 159.684768 
L 295.943524 159.466846 
L 297.426918 159.393972 
L 298.910313 159.466846 
L 300.379421 159.684768 
L 301.820095 160.045638 
L 303.21846 160.545981 
L 304.56105 161.180979 
L 305.834934 161.944516 
L 307.027844 162.829238 
L 308.128292 163.826626 
L 309.12568 164.927074 
L 310.010403 166.119984 
L 310.77394 167.393869 
L 311.408937 168.736458 
L 311.90928 170.134824 
L 312.27015 171.575498 
L 312.488072 173.044606 
z
" clip-path="url(#pc3cc1856b9)" style="fill: #ff0000; opacity: 0.5; stroke: #000000; stroke-linejoin: miter"/>
   </g>
   <g id="patch_5">
    <path d="M 286.348041 189.662028 
L 286.275166 191.145422 
L 286.057245 192.61453 
L 285.696375 194.055205 
L 285.196032 195.45357 
L 284.561034 196.79616 
L 283.797497 198.070044 
L 282.912775 199.262954 
L 281.915387 200.363402 
L 280.814939 201.36079 
L 279.622028 202.245513 
L 278.348144 203.009049 
L 277.005555 203.644047 
L 275.607189 204.14439 
L 274.166515 204.50526 
L 272.697407 204.723182 
L 271.214013 204.796056 
L 269.730619 204.723182 
L 268.26151 204.50526 
L 266.820836 204.14439 
L 265.422471 203.644047 
L 264.079881 203.009049 
L 262.805997 202.245513 
L 261.613087 201.36079 
L 260.512639 200.363402 
L 259.515251 199.262954 
L 258.630528 198.070044 
L 257.866992 196.79616 
L 257.231994 195.45357 
L 256.731651 194.055205 
L 256.370781 192.61453 
L 256.152859 191.145422 
L 256.079985 189.662028 
L 256.152859 188.178634 
L 256.370781 186.709526 
L 256.731651 185.268852 
L 257.231994 183.870486 
L 257.866992 182.527897 
L 258.630528 181.254013 
L 259.515251 180.061102 
L 260.512639 178.960654 
L 261.613087 177.963266 
L 262.805997 177.078544 
L 264.079881 176.315007 
L 265.422471 175.680009 
L 266.820836 175.179666 
L 268.26151 174.818796 
L 269.730619 174.600874 
L 271.214013 174.528 
L 272.697407 174.600874 
L 274.166515 174.818796 
L 275.607189 175.179666 
L 277.005555 175.680009 
L 278.348144 176.315007 
L 279.622028 177.078544 
L 280.814939 177.963266 
L 281.915387 178.960654 
L 282.912775 180.061102 
L 283.797497 181.254013 
L 284.561034 182.527897 
L 285.196032 183.870486 
L 285.696375 185.268852 
L 286.057245 186.709526 
L 286.275166 188.178634 
z
" clip-path="url(#pc3cc1856b9)" style="fill: #ff0000; opacity: 0.5; stroke: #000000; stroke-linejoin: miter"/>
   </g>
   <g id="patch_6">
    <path d="M 286.348041 159.393972 
L 286.275166 160.877366 
L 286.057245 162.346474 
L 285.696375 163.787148 
L 285.196032 165.185514 
L 284.561034 166.528103 
L 283.797497 167.801987 
L 282.912775 168.994898 
L 281.915387 170.095346 
L 280.814939 171.092734 
L 279.622028 171.977456 
L 278.348144 172.740993 
L 277.005555 173.375991 
L 275.607189 173.876334 
L 274.166515 174.237204 
L 272.697407 174.455126 
L 271.214013 174.528 
L 269.730619 174.455126 
L 268.26151 174.237204 
L 266.820836 173.876334 
L 265.422471 173.375991 
L 264.079881 172.740993 
L 262.805997 171.977456 
L 261.613087 171.092734 
L 260.512639 170.095346 
L 259.515251 168.994898 
L 258.630528 167.801987 
L 257.866992 166.528103 
L 257.231994 165.185514 
L 256.731651 163.787148 
L 256.370781 162.346474 
L 256.152859 160.877366 
L 256.079985 159.393972 
L 256.152859 157.910578 
L 256.370781 156.44147 
L 256.731651 155.000795 
L 257.231994 153.60243 
L 257.866992 152.25984 
L 258.630528 150.985956 
L 259.515251 149.793046 
L 260.512639 148.692598 
L 261.613087 147.69521 
L 262.805997 146.810487 
L 264.079881 146.046951 
L 265.422471 145.411953 
L 266.820836 144.91161 
L 268.26151 144.55074 
L 269.730619 144.332818 
L 271.214013 144.259944 
L 272.697407 144.332818 
L 274.166515 144.55074 
L 275.607189 144.91161 
L 277.005555 145.411953 
L 278.348144 146.046951 
L 279.622028 146.810487 
L 280.814939 147.69521 
L 281.915387 148.692598 
L 282.912775 149.793046 
L 283.797497 150.985956 
L 284.561034 152.25984 
L 285.196032 153.60243 
L 285.696375 155.000795 
L 286.057245 156.44147 
L 286.275166 157.910578 
z
" clip-path="url(#pc3cc1856b9)" style="fill: #ff0000; opacity: 0.5; stroke: #000000; stroke-linejoin: miter"/>
   </g>
   <g id="patch_7">
    <path d="M 260.135135 144.259944 
L 260.062261 145.743338 
L 259.844339 147.212446 
L 259.483469 148.65312 
L 258.983126 150.051486 
L 258.348129 151.394075 
L 257.584592 152.667959 
L 256.699869 153.86087 
L 255.702481 154.961318 
L 254.602033 155.958706 
L 253.409123 156.843428 
L 252.135239 157.606965 
L 250.792649 158.241963 
L 249.394284 158.742306 
L 247.95361 159.103176 
L 246.484501 159.321097 
L 245.001107 159.393972 
L 243.517713 159.321097 
L 242.048605 159.103176 
L 240.607931 158.742306 
L 239.209566 158.241963 
L 237.866976 157.606965 
L 236.593092 156.843428 
L 235.400182 155.958706 
L 234.299733 154.961318 
L 233.302345 153.86087 
L 232.417623 152.667959 
L 231.654086 151.394075 
L 231.019089 150.051486 
L 230.518745 148.65312 
L 230.157875 147.212446 
L 229.939954 145.743338 
L 229.867079 144.259944 
L 229.939954 142.77655 
L 230.157875 141.307441 
L 230.518745 139.866767 
L 231.019089 138.468402 
L 231.654086 137.125812 
L 232.417623 135.851928 
L 233.302345 134.659018 
L 234.299733 133.55857 
L 235.400182 132.561182 
L 236.593092 131.676459 
L 237.866976 130.912923 
L 239.209566 130.277925 
L 240.607931 129.777582 
L 242.048605 129.416712 
L 243.517713 129.19879 
L 245.001107 129.125916 
L 246.484501 129.19879 
L 247.95361 129.416712 
L 249.394284 129.777582 
L 250.792649 130.277925 
L 252.135239 130.912923 
L 253.409123 131.676459 
L 254.602033 132.561182 
L 255.702481 133.55857 
L 256.699869 134.659018 
L 257.584592 135.851928 
L 258.348129 137.125812 
L 258.983126 138.468402 
L 259.483469 139.866767 
L 259.844339 141.307441 
L 260.062261 142.77655 
z
" clip-path="url(#pc3cc1856b9)" style="fill: #ff0000; opacity: 0.5; stroke: #000000; stroke-linejoin: miter"/>
   </g>
   <g id="patch_8">
    <path d="M 260.135135 174.528 
L 260.062261 176.011394 
L 259.844339 177.480502 
L 259.483469 178.921176 
L 258.983126 180.319542 
L 258.348129 181.662131 
L 257.584592 182.936016 
L 256.699869 184.128926 
L 255.702481 185.229374 
L 254.602033 186.226762 
L 253.409123 187.111484 
L 252.135239 187.875021 
L 250.792649 188.510019 
L 249.394284 189.010362 
L 247.95361 189.371232 
L 246.484501 189.589154 
L 245.001107 189.662028 
L 243.517713 189.589154 
L 242.048605 189.371232 
L 240.607931 189.010362 
L 239.209566 188.510019 
L 237.866976 187.875021 
L 236.593092 187.111484 
L 235.400182 186.226762 
L 234.299733 185.229374 
L 233.302345 184.128926 
L 232.417623 182.936016 
L 231.654086 181.662131 
L 231.019089 180.319542 
L 230.518745 178.921176 
L 230.157875 177.480502 
L 229.939954 176.011394 
L 229.867079 174.528 
L 229.939954 173.044606 
L 230.157875 171.575498 
L 230.518745 170.134824 
L 231.019089 168.736458 
L 231.654086 167.393869 
L 232.417623 166.119984 
L 233.302345 164.927074 
L 234.299733 163.826626 
L 235.400182 162.829238 
L 236.593092 161.944516 
L 237.866976 161.180979 
L 239.209566 160.545981 
L 240.607931 160.045638 
L 242.048605 159.684768 
L 243.517713 159.466846 
L 245.001107 159.393972 
L 246.484501 159.466846 
L 247.95361 159.684768 
L 249.394284 160.045638 
L 250.792649 160.545981 
L 252.135239 161.180979 
L 253.409123 161.944516 
L 254.602033 162.829238 
L 255.702481 163.826626 
L 256.699869 164.927074 
L 257.584592 166.119984 
L 258.348129 167.393869 
L 258.983126 168.736458 
L 259.483469 170.134824 
L 259.844339 171.575498 
L 260.062261 173.044606 
z
" clip-path="url(#pc3cc1856b9)" style="fill: #ff0000; opacity: 0.5; stroke: #000000; stroke-linejoin: miter"/>
   </g>
   <g id="patch_9">
    <path d="M 260.135135 204.796056 
L 260.062261 206.27945 
L 259.844339 207.748559 
L 259.483469 209.189233 
L 258.983126 210.587598 
L 258.348129 211.930188 
L 257.584592 213.204072 
L 256.699869 214.396982 
L 255.702481 215.49743 
L 254.602033 216.494818 
L 253.409123 217.379541 
L 252.135239 218.143077 
L 250.792649 218.778075 
L 249.394284 219.278418 
L 247.95361 219.639288 
L 246.484501 219.85721 
L 245.001107 219.930084 
L 243.517713 219.85721 
L 242.048605 219.639288 
L 240.607931 219.278418 
L 239.209566 218.778075 
L 237.866976 218.143077 
L 236.593092 217.379541 
L 235.400182 216.494818 
L 234.299733 215.49743 
L 233.302345 214.396982 
L 232.417623 213.204072 
L 231.654086 211.930188 
L 231.019089 210.587598 
L 230.518745 209.189233 
L 230.157875 207.748559 
L 229.939954 206.27945 
L 229.867079 204.796056 
L 229.939954 203.312662 
L 230.157875 201.843554 
L 230.518745 200.40288 
L 231.019089 199.004514 
L 231.654086 197.661925 
L 232.417623 196.388041 
L 233.302345 195.19513 
L 234.299733 194.094682 
L 235.400182 193.097294 
L 236.593092 192.212572 
L 237.866976 191.449035 
L 239.209566 190.814037 
L 240.607931 190.313694 
L 242.048605 189.952824 
L 243.517713 189.734903 
L 245.001107 189.662028 
L 246.484501 189.734903 
L 247.95361 189.952824 
L 249.394284 190.313694 
L 250.792649 190.814037 
L 252.135239 191.449035 
L 253.409123 192.212572 
L 254.602033 193.097294 
L 255.702481 194.094682 
L 256.699869 195.19513 
L 257.584592 196.388041 
L 258.348129 197.661925 
L 258.983126 199.004514 
L 259.483469 200.40288 
L 259.844339 201.843554 
L 260.062261 203.312662 
z
" clip-path="url(#pc3cc1856b9)" style="fill: #ff0000; opacity: 0.5; stroke: #000000; stroke-linejoin: miter"/>
   </g>
   <g id="patch_10">
    <path d="M 233.92223 219.930084 
L 233.849355 221.413478 
L 233.631434 222.882587 
L 233.270564 224.323261 
L 232.770221 225.721626 
L 232.135223 227.064216 
L 231.371686 228.3381 
L 230.486964 229.53101 
L 229.489576 230.631458 
L 228.389128 231.628846 
L 227.196217 232.513569 
L 225.922333 233.277105 
L 224.579744 233.912103 
L 223.181378 234.412446 
L 221.740704 234.773316 
L 220.271596 234.991238 
L 218.788202 235.064112 
L 217.304808 234.991238 
L 215.835699 234.773316 
L 214.395025 234.412446 
L 212.99666 233.912103 
L 211.65407 233.277105 
L 210.380186 232.513569 
L 209.187276 231.628846 
L 208.086828 230.631458 
L 207.08944 229.53101 
L 206.204717 228.3381 
L 205.441181 227.064216 
L 204.806183 225.721626 
L 204.30584 224.323261 
L 203.94497 222.882587 
L 203.727048 221.413478 
L 203.654174 219.930084 
L 203.727048 218.44669 
L 203.94497 216.977582 
L 204.30584 215.536908 
L 204.806183 214.138542 
L 205.441181 212.795953 
L 206.204717 211.522069 
L 207.08944 210.329158 
L 208.086828 209.22871 
L 209.187276 208.231322 
L 210.380186 207.3466 
L 211.65407 206.583063 
L 212.99666 205.948065 
L 214.395025 205.447722 
L 215.835699 205.086852 
L 217.304808 204.868931 
L 218.788202 204.796056 
L 220.271596 204.868931 
L 221.740704 205.086852 
L 223.181378 205.447722 
L 224.579744 205.948065 
L 225.922333 206.583063 
L 227.196217 207.3466 
L 228.389128 208.231322 
L 229.489576 209.22871 
L 230.486964 210.329158 
L 231.371686 211.522069 
L 232.135223 212.795953 
L 232.770221 214.138542 
L 233.270564 215.536908 
L 233.631434 216.977582 
L 233.849355 218.44669 
z
" clip-path="url(#pc3cc1856b9)" style="fill: #ff0000; opacity: 0.5; stroke: #000000; stroke-linejoin: miter"/>
   </g>
   <g id="patch_11">
    <path d="M 233.92223 189.662028 
L 233.849355 191.145422 
L 233.631434 192.61453 
L 233.270564 194.055205 
L 232.770221 195.45357 
L 232.135223 196.79616 
L 231.371686 198.070044 
L 230.486964 199.262954 
L 229.489576 200.363402 
L 228.389128 201.36079 
L 227.196217 202.245513 
L 225.922333 203.009049 
L 224.579744 203.644047 
L 223.181378 204.14439 
L 221.740704 204.50526 
L 220.271596 204.723182 
L 218.788202 204.796056 
L 217.304808 204.723182 
L 215.835699 204.50526 
L 214.395025 204.14439 
L 212.99666 203.644047 
L 211.65407 203.009049 
L 210.380186 202.245513 
L 209.187276 201.36079 
L 208.086828 200.363402 
L 207.08944 199.262954 
L 206.204717 198.070044 
L 205.441181 196.79616 
L 204.806183 195.45357 
L 204.30584 194.055205 
L 203.94497 192.61453 
L 203.727048 191.145422 
L 203.654174 189.662028 
L 203.727048 188.178634 
L 203.94497 186.709526 
L 204.30584 185.268852 
L 204.806183 183.870486 
L 205.441181 182.527897 
L 206.204717 181.254013 
L 207.08944 180.061102 
L 208.086828 178.960654 
L 209.187276 177.963266 
L 210.380186 177.078544 
L 211.65407 176.315007 
L 212.99666 175.680009 
L 214.395025 175.179666 
L 215.835699 174.818796 
L 217.304808 174.600874 
L 218.788202 174.528 
L 220.271596 174.600874 
L 221.740704 174.818796 
L 223.181378 175.179666 
L 224.579744 175.680009 
L 225.922333 176.315007 
L 227.196217 177.078544 
L 228.389128 177.963266 
L 229.489576 178.960654 
L 230.486964 180.061102 
L 231.371686 181.254013 
L 232.135223 182.527897 
L 232.770221 183.870486 
L 233.270564 185.268852 
L 233.631434 186.709526 
L 233.849355 188.178634 
z
" clip-path="url(#pc3cc1856b9)" style="fill: #ff0000; opacity: 0.5; stroke: #000000; stroke-linejoin: miter"/>
   </g>
   <g id="patch_12">
    <path d="M 233.92223 159.393972 
L 233.849355 160.877366 
L 233.631434 162.346474 
L 233.270564 163.787148 
L 232.770221 165.185514 
L 232.135223 166.528103 
L 231.371686 167.801987 
L 230.486964 168.994898 
L 229.489576 170.095346 
L 228.389128 171.092734 
L 227.196217 171.977456 
L 225.922333 172.740993 
L 224.579744 173.375991 
L 223.181378 173.876334 
L 221.740704 174.237204 
L 220.271596 174.455126 
L 218.788202 174.528 
L 217.304808 174.455126 
L 215.835699 174.237204 
L 214.395025 173.876334 
L 212.99666 173.375991 
L 211.65407 172.740993 
L 210.380186 171.977456 
L 209.187276 171.092734 
L 208.086828 170.095346 
L 207.08944 168.994898 
L 206.204717 167.801987 
L 205.441181 166.528103 
L 204.806183 165.185514 
L 204.30584 163.787148 
L 203.94497 162.346474 
L 203.727048 160.877366 
L 203.654174 159.393972 
L 203.727048 157.910578 
L 203.94497 156.44147 
L 204.30584 155.000795 
L 204.806183 153.60243 
L 205.441181 152.25984 
L 206.204717 150.985956 
L 207.08944 149.793046 
L 208.086828 148.692598 
L 209.187276 147.69521 
L 210.380186 146.810487 
L 211.65407 146.046951 
L 212.99666 145.411953 
L 214.395025 144.91161 
L 215.835699 144.55074 
L 217.304808 144.332818 
L 218.788202 144.259944 
L 220.271596 144.332818 
L 221.740704 144.55074 
L 223.181378 144.91161 
L 224.579744 145.411953 
L 225.922333 146.046951 
L 227.196217 146.810487 
L 228.389128 147.69521 
L 229.489576 148.692598 
L 230.486964 149.793046 
L 231.371686 150.985956 
L 232.135223 152.25984 
L 232.770221 153.60243 
L 233.270564 155.000795 
L 233.631434 156.44147 
L 233.849355 157.910578 
z
" clip-path="url(#pc3cc1856b9)" style="fill: #ff0000; opacity: 0.5; stroke: #000000; stroke-linejoin: miter"/>
   </g>
   <g id="patch_13">
    <path d="M 233.92223 129.125916 
L 233.849355 130.60931 
L 233.631434 132.078418 
L 233.270564 133.519092 
L 232.770221 134.917458 
L 232.135223 136.260047 
L 231.371686 137.533931 
L 230.486964 138.726842 
L 229.489576 139.82729 
L 228.389128 140.824678 
L 227.196217 141.7094 
L 225.922333 142.472937 
L 224.579744 143.107935 
L 223.181378 143.608278 
L 221.740704 143.969148 
L 220.271596 144.187069 
L 218.788202 144.259944 
L 217.304808 144.187069 
L 215.835699 143.969148 
L 214.395025 143.608278 
L 212.99666 143.107935 
L 211.65407 142.472937 
L 210.380186 141.7094 
L 209.187276 140.824678 
L 208.086828 139.82729 
L 207.08944 138.726842 
L 206.204717 137.533931 
L 205.441181 136.260047 
L 204.806183 134.917458 
L 204.30584 133.519092 
L 203.94497 132.078418 
L 203.727048 130.60931 
L 203.654174 129.125916 
L 203.727048 127.642522 
L 203.94497 126.173413 
L 204.30584 124.732739 
L 204.806183 123.334374 
L 205.441181 121.991784 
L 206.204717 120.7179 
L 207.08944 119.52499 
L 208.086828 118.424542 
L 209.187276 117.427154 
L 210.380186 116.542431 
L 211.65407 115.778895 
L 212.99666 115.143897 
L 214.395025 114.643554 
L 215.835699 114.282684 
L 217.304808 114.064762 
L 218.788202 113.991888 
L 220.271596 114.064762 
L 221.740704 114.282684 
L 223.181378 114.643554 
L 224.579744 115.143897 
L 225.922333 115.778895 
L 227.196217 116.542431 
L 228.389128 117.427154 
L 229.489576 118.424542 
L 230.486964 119.52499 
L 231.371686 120.7179 
L 232.135223 121.991784 
L 232.770221 123.334374 
L 233.270564 124.732739 
L 233.631434 126.173413 
L 233.849355 127.642522 
z
" clip-path="url(#pc3cc1856b9)" style="fill: #ff0000; opacity: 0.5; stroke: #000000; stroke-linejoin: miter"/>
   </g>
   <g id="patch_14">
    <path d="M 207.709324 113.991888 
L 207.63645 115.475282 
L 207.418528 116.94439 
L 207.057658 118.385064 
L 206.557315 119.78343 
L 205.922317 121.126019 
L 205.158781 122.399903 
L 204.274058 123.592813 
L 203.27667 124.693262 
L 202.176222 125.69065 
L 200.983312 126.575372 
L 199.709428 127.338909 
L 198.366838 127.973906 
L 196.968473 128.47425 
L 195.527799 128.83512 
L 194.05869 129.053041 
L 192.575296 129.125916 
L 191.091902 129.053041 
L 189.622794 128.83512 
L 188.18212 128.47425 
L 186.783754 127.973906 
L 185.441165 127.338909 
L 184.167281 126.575372 
L 182.97437 125.69065 
L 181.873922 124.693262 
L 180.876534 123.592813 
L 179.991812 122.399903 
L 179.228275 121.126019 
L 178.593277 119.78343 
L 178.092934 118.385064 
L 177.732064 116.94439 
L 177.514143 115.475282 
L 177.441268 113.991888 
L 177.514143 112.508494 
L 177.732064 111.039385 
L 178.092934 109.598711 
L 178.593277 108.200346 
L 179.228275 106.857756 
L 179.991812 105.583872 
L 180.876534 104.390962 
L 181.873922 103.290514 
L 182.97437 102.293126 
L 184.167281 101.408403 
L 185.441165 100.644867 
L 186.783754 100.009869 
L 188.18212 99.509526 
L 189.622794 99.148656 
L 191.091902 98.930734 
L 192.575296 98.85786 
L 194.05869 98.930734 
L 195.527799 99.148656 
L 196.968473 99.509526 
L 198.366838 100.009869 
L 199.709428 100.644867 
L 200.983312 101.408403 
L 202.176222 102.293126 
L 203.27667 103.290514 
L 204.274058 104.390962 
L 205.158781 105.583872 
L 205.922317 106.857756 
L 206.557315 108.200346 
L 207.057658 109.598711 
L 207.418528 111.039385 
L 207.63645 112.508494 
z
" clip-path="url(#pc3cc1856b9)" style="fill: #ff0000; opacity: 0.5; stroke: #000000; stroke-linejoin: miter"/>
   </g>
   <g id="patch_15">
    <path d="M 207.709324 144.259944 
L 207.63645 145.743338 
L 207.418528 147.212446 
L 207.057658 148.65312 
L 206.557315 150.051486 
L 205.922317 151.394075 
L 205.158781 152.667959 
L 204.274058 153.86087 
L 203.27667 154.961318 
L 202.176222 155.958706 
L 200.983312 156.843428 
L 199.709428 157.606965 
L 198.366838 158.241963 
L 196.968473 158.742306 
L 195.527799 159.103176 
L 194.05869 159.321097 
L 192.575296 159.393972 
L 191.091902 159.321097 
L 189.622794 159.103176 
L 188.18212 158.742306 
L 186.783754 158.241963 
L 185.441165 157.606965 
L 184.167281 156.843428 
L 182.97437 155.958706 
L 181.873922 154.961318 
L 180.876534 153.86087 
L 179.991812 152.667959 
L 179.228275 151.394075 
L 178.593277 150.051486 
L 178.092934 148.65312 
L 177.732064 147.212446 
L 177.514143 145.743338 
L 177.441268 144.259944 
L 177.514143 142.77655 
L 177.732064 141.307441 
L 178.092934 139.866767 
L 178.593277 138.468402 
L 179.228275 137.125812 
L 179.991812 135.851928 
L 180.876534 134.659018 
L 181.873922 133.55857 
L 182.97437 132.561182 
L 184.167281 131.676459 
L 185.441165 130.912923 
L 186.783754 130.277925 
L 188.18212 129.777582 
L 189.622794 129.416712 
L 191.091902 129.19879 
L 192.575296 129.125916 
L 194.05869 129.19879 
L 195.527799 129.416712 
L 196.968473 129.777582 
L 198.366838 130.277925 
L 199.709428 130.912923 
L 200.983312 131.676459 
L 202.176222 132.561182 
L 203.27667 133.55857 
L 204.274058 134.659018 
L 205.158781 135.851928 
L 205.922317 137.125812 
L 206.557315 138.468402 
L 207.057658 139.866767 
L 207.418528 141.307441 
L 207.63645 142.77655 
z
" clip-path="url(#pc3cc1856b9)" style="fill: #ff0000; opacity: 0.5; stroke: #000000; stroke-linejoin: miter"/>
   </g>
   <g id="patch_16">
    <path d="M 207.709324 174.528 
L 207.63645 176.011394 
L 207.418528 177.480502 
L 207.057658 178.921176 
L 206.557315 180.319542 
L 205.922317 181.662131 
L 205.158781 182.936016 
L 204.274058 184.128926 
L 203.27667 185.229374 
L 202.176222 186.226762 
L 200.983312 187.111484 
L 199.709428 187.875021 
L 198.366838 188.510019 
L 196.968473 189.010362 
L 195.527799 189.371232 
L 194.05869 189.589154 
L 192.575296 189.662028 
L 191.091902 189.589154 
L 189.622794 189.371232 
L 188.18212 189.010362 
L 186.783754 188.510019 
L 185.441165 187.875021 
L 184.167281 187.111484 
L 182.97437 186.226762 
L 181.873922 185.229374 
L 180.876534 184.128926 
L 179.991812 182.936016 
L 179.228275 181.662131 
L 178.593277 180.319542 
L 178.092934 178.921176 
L 177.732064 177.480502 
L 177.514143 176.011394 
L 177.441268 174.528 
L 177.514143 173.044606 
L 177.732064 171.575498 
L 178.092934 170.134824 
L 178.593277 168.736458 
L 179.228275 167.393869 
L 179.991812 166.119984 
L 180.876534 164.927074 
L 181.873922 163.826626 
L 182.97437 162.829238 
L 184.167281 161.944516 
L 185.441165 161.180979 
L 186.783754 160.545981 
L 188.18212 160.045638 
L 189.622794 159.684768 
L 191.091902 159.466846 
L 192.575296 159.393972 
L 194.05869 159.466846 
L 195.527799 159.684768 
L 196.968473 160.045638 
L 198.366838 160.545981 
L 199.709428 161.180979 
L 200.983312 161.944516 
L 202.176222 162.829238 
L 203.27667 163.826626 
L 204.274058 164.927074 
L 205.158781 166.119984 
L 205.922317 167.393869 
L 206.557315 168.736458 
L 207.057658 170.134824 
L 207.418528 171.575498 
L 207.63645 173.044606 
z
" clip-path="url(#pc3cc1856b9)" style="fill: #ff0000; opacity: 0.5; stroke: #000000; stroke-linejoin: miter"/>
   </g>
   <g id="patch_17">
    <path d="M 207.709324 204.796056 
L 207.63645 206.27945 
L 207.418528 207.748559 
L 207.057658 209.189233 
L 206.557315 210.587598 
L 205.922317 211.930188 
L 205.158781 213.204072 
L 204.274058 214.396982 
L 203.27667 215.49743 
L 202.176222 216.494818 
L 200.983312 217.379541 
L 199.709428 218.143077 
L 198.366838 218.778075 
L 196.968473 219.278418 
L 195.527799 219.639288 
L 194.05869 219.85721 
L 192.575296 219.930084 
L 191.091902 219.85721 
L 189.622794 219.639288 
L 188.18212 219.278418 
L 186.783754 218.778075 
L 185.441165 218.143077 
L 184.167281 217.379541 
L 182.97437 216.494818 
L 181.873922 215.49743 
L 180.876534 214.396982 
L 179.991812 213.204072 
L 179.228275 211.930188 
L 178.593277 210.587598 
L 178.092934 209.189233 
L 177.732064 207.748559 
L 177.514143 206.27945 
L 177.441268 204.796056 
L 177.514143 203.312662 
L 177.732064 201.843554 
L 178.092934 200.40288 
L 178.593277 199.004514 
L 179.228275 197.661925 
L 179.991812 196.388041 
L 180.876534 195.19513 
L 181.873922 194.094682 
L 182.97437 193.097294 
L 184.167281 192.212572 
L 185.441165 191.449035 
L 186.783754 190.814037 
L 188.18212 190.313694 
L 189.622794 189.952824 
L 191.091902 189.734903 
L 192.575296 189.662028 
L 194.05869 189.734903 
L 195.527799 189.952824 
L 196.968473 190.313694 
L 198.366838 190.814037 
L 199.709428 191.449035 
L 200.983312 192.212572 
L 202.176222 193.097294 
L 203.27667 194.094682 
L 204.274058 195.19513 
L 205.158781 196.388041 
L 205.922317 197.661925 
L 206.557315 199.004514 
L 207.057658 200.40288 
L 207.418528 201.843554 
L 207.63645 203.312662 
z
" clip-path="url(#pc3cc1856b9)" style="fill: #ff0000; opacity: 0.5; stroke: #000000; stroke-linejoin: miter"/>
   </g>
   <g id="patch_18">
    <path d="M 207.709324 235.064112 
L 207.63645 236.547506 
L 207.418528 238.016615 
L 207.057658 239.457289 
L 206.557315 240.855654 
L 205.922317 242.198244 
L 205.158781 243.472128 
L 204.274058 244.665038 
L 203.27667 245.765486 
L 202.176222 246.762874 
L 200.983312 247.647597 
L 199.709428 248.411133 
L 198.366838 249.046131 
L 196.968473 249.546474 
L 195.527799 249.907344 
L 194.05869 250.125266 
L 192.575296 250.19814 
L 191.091902 250.125266 
L 189.622794 249.907344 
L 188.18212 249.546474 
L 186.783754 249.046131 
L 185.441165 248.411133 
L 184.167281 247.647597 
L 182.97437 246.762874 
L 181.873922 245.765486 
L 180.876534 244.665038 
L 179.991812 243.472128 
L 179.228275 242.198244 
L 178.593277 240.855654 
L 178.092934 239.457289 
L 177.732064 238.016615 
L 177.514143 236.547506 
L 177.441268 235.064112 
L 177.514143 233.580718 
L 177.732064 232.11161 
L 178.092934 230.670936 
L 178.593277 229.27257 
L 179.228275 227.929981 
L 179.991812 226.656097 
L 180.876534 225.463187 
L 181.873922 224.362738 
L 182.97437 223.36535 
L 184.167281 222.480628 
L 185.441165 221.717091 
L 186.783754 221.082094 
L 188.18212 220.58175 
L 189.622794 220.22088 
L 191.091902 220.002959 
L 192.575296 219.930084 
L 194.05869 220.002959 
L 195.527799 220.22088 
L 196.968473 220.58175 
L 198.366838 221.082094 
L 199.709428 221.717091 
L 200.983312 222.480628 
L 202.176222 223.36535 
L 203.27667 224.362738 
L 204.274058 225.463187 
L 205.158781 226.656097 
L 205.922317 227.929981 
L 206.557315 229.27257 
L 207.057658 230.670936 
L 207.418528 232.11161 
L 207.63645 233.580718 
z
" clip-path="url(#pc3cc1856b9)" style="fill: #ff0000; opacity: 0.5; stroke: #000000; stroke-linejoin: miter"/>
   </g>
   <g id="patch_19">
    <path d="M 181.496419 250.19814 
L 181.423544 251.681535 
L 181.205623 253.150643 
L 180.844753 254.591317 
L 180.344409 255.989682 
L 179.709412 257.332272 
L 178.945875 258.606156 
L 178.061153 259.799066 
L 177.063765 260.899514 
L 175.963316 261.896902 
L 174.770406 262.781625 
L 173.496522 263.545162 
L 172.153933 264.180159 
L 170.755567 264.680502 
L 169.314893 265.041372 
L 167.845785 265.259294 
L 166.362391 265.332168 
L 164.878997 265.259294 
L 163.409888 265.041372 
L 161.969214 264.680502 
L 160.570849 264.180159 
L 159.228259 263.545162 
L 157.954375 262.781625 
L 156.761465 261.896902 
L 155.661017 260.899514 
L 154.663629 259.799066 
L 153.778906 258.606156 
L 153.01537 257.332272 
L 152.380372 255.989682 
L 151.880029 254.591317 
L 151.519159 253.150643 
L 151.301237 251.681535 
L 151.228363 250.19814 
L 151.301237 248.714746 
L 151.519159 247.245638 
L 151.880029 245.804964 
L 152.380372 244.406599 
L 153.01537 243.064009 
L 153.778906 241.790125 
L 154.663629 240.597215 
L 155.661017 239.496766 
L 156.761465 238.499378 
L 157.954375 237.614656 
L 159.228259 236.851119 
L 160.570849 236.216122 
L 161.969214 235.715778 
L 163.409888 235.354908 
L 164.878997 235.136987 
L 166.362391 235.064112 
L 167.845785 235.136987 
L 169.314893 235.354908 
L 170.755567 235.715778 
L 172.153933 236.216122 
L 173.496522 236.851119 
L 174.770406 237.614656 
L 175.963316 238.499378 
L 177.063765 239.496766 
L 178.061153 240.597215 
L 178.945875 241.790125 
L 179.709412 243.064009 
L 180.344409 244.406599 
L 180.844753 245.804964 
L 181.205623 247.245638 
L 181.423544 248.714746 
z
" clip-path="url(#pc3cc1856b9)" style="fill: #ff0000; opacity: 0.5; stroke: #000000; stroke-linejoin: miter"/>
   </g>
   <g id="patch_20">
    <path d="M 181.496419 219.930084 
L 181.423544 221.413478 
L 181.205623 222.882587 
L 180.844753 224.323261 
L 180.344409 225.721626 
L 179.709412 227.064216 
L 178.945875 228.3381 
L 178.061153 229.53101 
L 177.063765 230.631458 
L 175.963316 231.628846 
L 174.770406 232.513569 
L 173.496522 233.277105 
L 172.153933 233.912103 
L 170.755567 234.412446 
L 169.314893 234.773316 
L 167.845785 234.991238 
L 166.362391 235.064112 
L 164.878997 234.991238 
L 163.409888 234.773316 
L 161.969214 234.412446 
L 160.570849 233.912103 
L 159.228259 233.277105 
L 157.954375 232.513569 
L 156.761465 231.628846 
L 155.661017 230.631458 
L 154.663629 229.53101 
L 153.778906 228.3381 
L 153.01537 227.064216 
L 152.380372 225.721626 
L 151.880029 224.323261 
L 151.519159 222.882587 
L 151.301237 221.413478 
L 151.228363 219.930084 
L 151.301237 218.44669 
L 151.519159 216.977582 
L 151.880029 215.536908 
L 152.380372 214.138542 
L 153.01537 212.795953 
L 153.778906 211.522069 
L 154.663629 210.329158 
L 155.661017 209.22871 
L 156.761465 208.231322 
L 157.954375 207.3466 
L 159.228259 206.583063 
L 160.570849 205.948065 
L 161.969214 205.447722 
L 163.409888 205.086852 
L 164.878997 204.868931 
L 166.362391 204.796056 
L 167.845785 204.868931 
L 169.314893 205.086852 
L 170.755567 205.447722 
L 172.153933 205.948065 
L 173.496522 206.583063 
L 174.770406 207.3466 
L 175.963316 208.231322 
L 177.063765 209.22871 
L 178.061153 210.329158 
L 178.945875 211.522069 
L 179.709412 212.795953 
L 180.344409 214.138542 
L 180.844753 215.536908 
L 181.205623 216.977582 
L 181.423544 218.44669 
z
" clip-path="url(#pc3cc1856b9)" style="fill: #ff0000; opacity: 0.5; stroke: #000000; stroke-linejoin: miter"/>
   </g>
   <g id="patch_21">
    <path d="M 181.496419 189.662028 
L 181.423544 191.145422 
L 181.205623 192.61453 
L 180.844753 194.055205 
L 180.344409 195.45357 
L 179.709412 196.79616 
L 178.945875 198.070044 
L 178.061153 199.262954 
L 177.063765 200.363402 
L 175.963316 201.36079 
L 174.770406 202.245513 
L 173.496522 203.009049 
L 172.153933 203.644047 
L 170.755567 204.14439 
L 169.314893 204.50526 
L 167.845785 204.723182 
L 166.362391 204.796056 
L 164.878997 204.723182 
L 163.409888 204.50526 
L 161.969214 204.14439 
L 160.570849 203.644047 
L 159.228259 203.009049 
L 157.954375 202.245513 
L 156.761465 201.36079 
L 155.661017 200.363402 
L 154.663629 199.262954 
L 153.778906 198.070044 
L 153.01537 196.79616 
L 152.380372 195.45357 
L 151.880029 194.055205 
L 151.519159 192.61453 
L 151.301237 191.145422 
L 151.228363 189.662028 
L 151.301237 188.178634 
L 151.519159 186.709526 
L 151.880029 185.268852 
L 152.380372 183.870486 
L 153.01537 182.527897 
L 153.778906 181.254013 
L 154.663629 180.061102 
L 155.661017 178.960654 
L 156.761465 177.963266 
L 157.954375 177.078544 
L 159.228259 176.315007 
L 160.570849 175.680009 
L 161.969214 175.179666 
L 163.409888 174.818796 
L 164.878997 174.600874 
L 166.362391 174.528 
L 167.845785 174.600874 
L 169.314893 174.818796 
L 170.755567 175.179666 
L 172.153933 175.680009 
L 173.496522 176.315007 
L 174.770406 177.078544 
L 175.963316 177.963266 
L 177.063765 178.960654 
L 178.061153 180.061102 
L 178.945875 181.254013 
L 179.709412 182.527897 
L 180.344409 183.870486 
L 180.844753 185.268852 
L 181.205623 186.709526 
L 181.423544 188.178634 
z
" clip-path="url(#pc3cc1856b9)" style="fill: #ff0000; opacity: 0.5; stroke: #000000; stroke-linejoin: miter"/>
   </g>
   <g id="patch_22">
    <path d="M 181.496419 159.393972 
L 181.423544 160.877366 
L 181.205623 162.346474 
L 180.844753 163.787148 
L 180.344409 165.185514 
L 179.709412 166.528103 
L 178.945875 167.801987 
L 178.061153 168.994898 
L 177.063765 170.095346 
L 175.963316 171.092734 
L 174.770406 171.977456 
L 173.496522 172.740993 
L 172.153933 173.375991 
L 170.755567 173.876334 
L 169.314893 174.237204 
L 167.845785 174.455126 
L 166.362391 174.528 
L 164.878997 174.455126 
L 163.409888 174.237204 
L 161.969214 173.876334 
L 160.570849 173.375991 
L 159.228259 172.740993 
L 157.954375 171.977456 
L 156.761465 171.092734 
L 155.661017 170.095346 
L 154.663629 168.994898 
L 153.778906 167.801987 
L 153.01537 166.528103 
L 152.380372 165.185514 
L 151.880029 163.787148 
L 151.519159 162.346474 
L 151.301237 160.877366 
L 151.228363 159.393972 
L 151.301237 157.910578 
L 151.519159 156.44147 
L 151.880029 155.000795 
L 152.380372 153.60243 
L 153.01537 152.25984 
L 153.778906 150.985956 
L 154.663629 149.793046 
L 155.661017 148.692598 
L 156.761465 147.69521 
L 157.954375 146.810487 
L 159.228259 146.046951 
L 160.570849 145.411953 
L 161.969214 144.91161 
L 163.409888 144.55074 
L 164.878997 144.332818 
L 166.362391 144.259944 
L 167.845785 144.332818 
L 169.314893 144.55074 
L 170.755567 144.91161 
L 172.153933 145.411953 
L 173.496522 146.046951 
L 174.770406 146.810487 
L 175.963316 147.69521 
L 177.063765 148.692598 
L 178.061153 149.793046 
L 178.945875 150.985956 
L 179.709412 152.25984 
L 180.344409 153.60243 
L 180.844753 155.000795 
L 181.205623 156.44147 
L 181.423544 157.910578 
z
" clip-path="url(#pc3cc1856b9)" style="fill: #ff0000; opacity: 0.5; stroke: #000000; stroke-linejoin: miter"/>
   </g>
   <g id="patch_23">
    <path d="M 181.496419 129.125916 
L 181.423544 130.60931 
L 181.205623 132.078418 
L 180.844753 133.519092 
L 180.344409 134.917458 
L 179.709412 136.260047 
L 178.945875 137.533931 
L 178.061153 138.726842 
L 177.063765 139.82729 
L 175.963316 140.824678 
L 174.770406 141.7094 
L 173.496522 142.472937 
L 172.153933 143.107935 
L 170.755567 143.608278 
L 169.314893 143.969148 
L 167.845785 144.187069 
L 166.362391 144.259944 
L 164.878997 144.187069 
L 163.409888 143.969148 
L 161.969214 143.608278 
L 160.570849 143.107935 
L 159.228259 142.472937 
L 157.954375 141.7094 
L 156.761465 140.824678 
L 155.661017 139.82729 
L 154.663629 138.726842 
L 153.778906 137.533931 
L 153.01537 136.260047 
L 152.380372 134.917458 
L 151.880029 133.519092 
L 151.519159 132.078418 
L 151.301237 130.60931 
L 151.228363 129.125916 
L 151.301237 127.642522 
L 151.519159 126.173413 
L 151.880029 124.732739 
L 152.380372 123.334374 
L 153.01537 121.991784 
L 153.778906 120.7179 
L 154.663629 119.52499 
L 155.661017 118.424542 
L 156.761465 117.427154 
L 157.954375 116.542431 
L 159.228259 115.778895 
L 160.570849 115.143897 
L 161.969214 114.643554 
L 163.409888 114.282684 
L 164.878997 114.064762 
L 166.362391 113.991888 
L 167.845785 114.064762 
L 169.314893 114.282684 
L 170.755567 114.643554 
L 172.153933 115.143897 
L 173.496522 115.778895 
L 174.770406 116.542431 
L 175.963316 117.427154 
L 177.063765 118.424542 
L 178.061153 119.52499 
L 178.945875 120.7179 
L 179.709412 121.991784 
L 180.344409 123.334374 
L 180.844753 124.732739 
L 181.205623 126.173413 
L 181.423544 127.642522 
z
" clip-path="url(#pc3cc1856b9)" style="fill: #ff0000; opacity: 0.5; stroke: #000000; stroke-linejoin: miter"/>
   </g>
   <g id="patch_24">
    <path d="M 181.496419 98.85786 
L 181.423544 100.341254 
L 181.205623 101.810362 
L 180.844753 103.251036 
L 180.344409 104.649401 
L 179.709412 105.991991 
L 178.945875 107.265875 
L 178.061153 108.458785 
L 177.063765 109.559234 
L 175.963316 110.556622 
L 174.770406 111.441344 
L 173.496522 112.204881 
L 172.153933 112.839878 
L 170.755567 113.340222 
L 169.314893 113.701092 
L 167.845785 113.919013 
L 166.362391 113.991888 
L 164.878997 113.919013 
L 163.409888 113.701092 
L 161.969214 113.340222 
L 160.570849 112.839878 
L 159.228259 112.204881 
L 157.954375 111.441344 
L 156.761465 110.556622 
L 155.661017 109.559234 
L 154.663629 108.458785 
L 153.778906 107.265875 
L 153.01537 105.991991 
L 152.380372 104.649401 
L 151.880029 103.251036 
L 151.519159 101.810362 
L 151.301237 100.341254 
L 151.228363 98.85786 
L 151.301237 97.374465 
L 151.519159 95.905357 
L 151.880029 94.464683 
L 152.380372 93.066318 
L 153.01537 91.723728 
L 153.778906 90.449844 
L 154.663629 89.256934 
L 155.661017 88.156486 
L 156.761465 87.159098 
L 157.954375 86.274375 
L 159.228259 85.510838 
L 160.570849 84.875841 
L 161.969214 84.375498 
L 163.409888 84.014628 
L 164.878997 83.796706 
L 166.362391 83.723832 
L 167.845785 83.796706 
L 169.314893 84.014628 
L 170.755567 84.375498 
L 172.153933 84.875841 
L 173.496522 85.510838 
L 174.770406 86.274375 
L 175.963316 87.159098 
L 177.063765 88.156486 
L 178.061153 89.256934 
L 178.945875 90.449844 
L 179.709412 91.723728 
L 180.344409 93.066318 
L 180.844753 94.464683 
L 181.205623 95.905357 
L 181.423544 97.374465 
z
" clip-path="url(#pc3cc1856b9)" style="fill: #ff0000; opacity: 0.5; stroke: #000000; stroke-linejoin: miter"/>
   </g>
   <g id="patch_25">
    <path d="M 286.917177 174.528 
L 286.884788 175.187286 
L 286.787934 175.840223 
L 286.627547 176.480523 
L 286.405173 177.102019 
L 286.122951 177.698725 
L 285.783602 178.264896 
L 285.390392 178.795078 
L 284.947108 179.284166 
L 284.45802 179.72745 
L 283.927838 180.12066 
L 283.361667 180.460009 
L 282.764961 180.742231 
L 282.143465 180.964605 
L 281.503165 181.124992 
L 280.850228 181.221846 
L 280.190942 181.254235 
L 279.531656 181.221846 
L 278.878719 181.124992 
L 278.238419 180.964605 
L 277.616923 180.742231 
L 277.020217 180.460009 
L 276.454046 180.12066 
L 275.923864 179.72745 
L 275.434776 179.284166 
L 274.991492 178.795078 
L 274.598282 178.264896 
L 274.258933 177.698725 
L 273.976711 177.102019 
L 273.754337 176.480523 
L 273.59395 175.840223 
L 273.497096 175.187286 
L 273.464707 174.528 
L 273.497096 173.868714 
L 273.59395 173.215777 
L 273.754337 172.575477 
L 273.976711 171.953981 
L 274.258933 171.357275 
L 274.598282 170.791104 
L 274.991492 170.260922 
L 275.434776 169.771834 
L 275.923864 169.32855 
L 276.454046 168.93534 
L 277.020217 168.595991 
L 277.616923 168.313769 
L 278.238419 168.091395 
L 278.878719 167.931008 
L 279.531656 167.834154 
L 280.190942 167.801765 
L 280.850228 167.834154 
L 281.503165 167.931008 
L 282.143465 168.091395 
L 282.764961 168.313769 
L 283.361667 168.595991 
L 283.927838 168.93534 
L 284.45802 169.32855 
L 284.947108 169.771834 
L 285.390392 170.260922 
L 285.783602 170.791104 
L 286.122951 171.357275 
L 286.405173 171.953981 
L 286.627547 172.575477 
L 286.787934 173.215777 
L 286.884788 173.868714 
z
" clip-path="url(#pc3cc1856b9)" style="fill: #ff0000; opacity: 0.5; stroke: #000000; stroke-linejoin: miter"/>
   </g>
   <g id="patch_26">
    <path d="M 260.704271 189.662028 
L 260.671883 190.321314 
L 260.575028 190.974251 
L 260.414642 191.614551 
L 260.192267 192.236047 
L 259.910046 192.832753 
L 259.570696 193.398924 
L 259.177486 193.929106 
L 258.734203 194.418194 
L 258.245115 194.861478 
L 257.714932 195.254688 
L 257.148762 195.594037 
L 256.552055 195.876259 
L 255.930559 196.098633 
L 255.29026 196.25902 
L 254.637323 196.355874 
L 253.978036 196.388263 
L 253.31875 196.355874 
L 252.665813 196.25902 
L 252.025514 196.098633 
L 251.404018 195.876259 
L 250.807311 195.594037 
L 250.241141 195.254688 
L 249.710958 194.861478 
L 249.22187 194.418194 
L 248.778587 193.929106 
L 248.385377 193.398924 
L 248.046027 192.832753 
L 247.763806 192.236047 
L 247.541431 191.614551 
L 247.381044 190.974251 
L 247.28419 190.321314 
L 247.251802 189.662028 
L 247.28419 189.002742 
L 247.381044 188.349805 
L 247.541431 187.709505 
L 247.763806 187.088009 
L 248.046027 186.491303 
L 248.385377 185.925132 
L 248.778587 185.39495 
L 249.22187 184.905862 
L 249.710958 184.462578 
L 250.241141 184.069368 
L 250.807311 183.730019 
L 251.404018 183.447798 
L 252.025514 183.225423 
L 252.665813 183.065036 
L 253.31875 182.968182 
L 253.978036 182.935793 
L 254.637323 182.968182 
L 255.29026 183.065036 
L 255.930559 183.225423 
L 256.552055 183.447798 
L 257.148762 183.730019 
L 257.714932 184.069368 
L 258.245115 184.462578 
L 258.734203 184.905862 
L 259.177486 185.39495 
L 259.570696 185.925132 
L 259.910046 186.491303 
L 260.192267 187.088009 
L 260.414642 187.709505 
L 260.575028 188.349805 
L 260.671883 189.002742 
z
" clip-path="url(#pc3cc1856b9)" style="fill: #ff0000; opacity: 0.5; stroke: #000000; stroke-linejoin: miter"/>
   </g>
   <g id="patch_27">
    <path d="M 260.704271 159.393972 
L 260.671883 160.053258 
L 260.575028 160.706195 
L 260.414642 161.346495 
L 260.192267 161.967991 
L 259.910046 162.564697 
L 259.570696 163.130868 
L 259.177486 163.66105 
L 258.734203 164.150138 
L 258.245115 164.593422 
L 257.714932 164.986632 
L 257.148762 165.325981 
L 256.552055 165.608202 
L 255.930559 165.830577 
L 255.29026 165.990964 
L 254.637323 166.087818 
L 253.978036 166.120207 
L 253.31875 166.087818 
L 252.665813 165.990964 
L 252.025514 165.830577 
L 251.404018 165.608202 
L 250.807311 165.325981 
L 250.241141 164.986632 
L 249.710958 164.593422 
L 249.22187 164.150138 
L 248.778587 163.66105 
L 248.385377 163.130868 
L 248.046027 162.564697 
L 247.763806 161.967991 
L 247.541431 161.346495 
L 247.381044 160.706195 
L 247.28419 160.053258 
L 247.251802 159.393972 
L 247.28419 158.734686 
L 247.381044 158.081749 
L 247.541431 157.441449 
L 247.763806 156.819953 
L 248.046027 156.223247 
L 248.385377 155.657076 
L 248.778587 155.126894 
L 249.22187 154.637806 
L 249.710958 154.194522 
L 250.241141 153.801312 
L 250.807311 153.461963 
L 251.404018 153.179741 
L 252.025514 152.957367 
L 252.665813 152.79698 
L 253.31875 152.700126 
L 253.978036 152.667737 
L 254.637323 152.700126 
L 255.29026 152.79698 
L 255.930559 152.957367 
L 256.552055 153.179741 
L 257.148762 153.461963 
L 257.714932 153.801312 
L 258.245115 154.194522 
L 258.734203 154.637806 
L 259.177486 155.126894 
L 259.570696 155.657076 
L 259.910046 156.223247 
L 260.192267 156.819953 
L 260.414642 157.441449 
L 260.575028 158.081749 
L 260.671883 158.734686 
z
" clip-path="url(#pc3cc1856b9)" style="fill: #ff0000; opacity: 0.5; stroke: #000000; stroke-linejoin: miter"/>
   </g>
   <g id="patch_28">
    <path d="M 234.491366 144.259944 
L 234.458977 144.91923 
L 234.362123 145.572167 
L 234.201736 146.212467 
L 233.979361 146.833962 
L 233.69714 147.430669 
L 233.357791 147.99684 
L 232.964581 148.527022 
L 232.521297 149.01611 
L 232.032209 149.459394 
L 231.502027 149.852604 
L 230.935856 150.191953 
L 230.33915 150.474174 
L 229.717654 150.696549 
L 229.077354 150.856936 
L 228.424417 150.95379 
L 227.765131 150.986179 
L 227.105845 150.95379 
L 226.452908 150.856936 
L 225.812608 150.696549 
L 225.191112 150.474174 
L 224.594406 150.191953 
L 224.028235 149.852604 
L 223.498053 149.459394 
L 223.008965 149.01611 
L 222.565681 148.527022 
L 222.172471 147.99684 
L 221.833122 147.430669 
L 221.5509 146.833962 
L 221.328526 146.212467 
L 221.168139 145.572167 
L 221.071285 144.91923 
L 221.038896 144.259944 
L 221.071285 143.600658 
L 221.168139 142.947721 
L 221.328526 142.307421 
L 221.5509 141.685925 
L 221.833122 141.089219 
L 222.172471 140.523048 
L 222.565681 139.992866 
L 223.008965 139.503778 
L 223.498053 139.060494 
L 224.028235 138.667284 
L 224.594406 138.327934 
L 225.191112 138.045713 
L 225.812608 137.823339 
L 226.452908 137.662952 
L 227.105845 137.566098 
L 227.765131 137.533709 
L 228.424417 137.566098 
L 229.077354 137.662952 
L 229.717654 137.823339 
L 230.33915 138.045713 
L 230.935856 138.327934 
L 231.502027 138.667284 
L 232.032209 139.060494 
L 232.521297 139.503778 
L 232.964581 139.992866 
L 233.357791 140.523048 
L 233.69714 141.089219 
L 233.979361 141.685925 
L 234.201736 142.307421 
L 234.362123 142.947721 
L 234.458977 143.600658 
z
" clip-path="url(#pc3cc1856b9)" style="fill: #ff0000; opacity: 0.5; stroke: #000000; stroke-linejoin: miter"/>
   </g>
   <g id="patch_29">
    <path d="M 234.491366 174.528 
L 234.458977 175.187286 
L 234.362123 175.840223 
L 234.201736 176.480523 
L 233.979361 177.102019 
L 233.69714 177.698725 
L 233.357791 178.264896 
L 232.964581 178.795078 
L 232.521297 179.284166 
L 232.032209 179.72745 
L 231.502027 180.12066 
L 230.935856 180.460009 
L 230.33915 180.742231 
L 229.717654 180.964605 
L 229.077354 181.124992 
L 228.424417 181.221846 
L 227.765131 181.254235 
L 227.105845 181.221846 
L 226.452908 181.124992 
L 225.812608 180.964605 
L 225.191112 180.742231 
L 224.594406 180.460009 
L 224.028235 180.12066 
L 223.498053 179.72745 
L 223.008965 179.284166 
L 222.565681 178.795078 
L 222.172471 178.264896 
L 221.833122 177.698725 
L 221.5509 177.102019 
L 221.328526 176.480523 
L 221.168139 175.840223 
L 221.071285 175.187286 
L 221.038896 174.528 
L 221.071285 173.868714 
L 221.168139 173.215777 
L 221.328526 172.575477 
L 221.5509 171.953981 
L 221.833122 171.357275 
L 222.172471 170.791104 
L 222.565681 170.260922 
L 223.008965 169.771834 
L 223.498053 169.32855 
L 224.028235 168.93534 
L 224.594406 168.595991 
L 225.191112 168.313769 
L 225.812608 168.091395 
L 226.452908 167.931008 
L 227.105845 167.834154 
L 227.765131 167.801765 
L 228.424417 167.834154 
L 229.077354 167.931008 
L 229.717654 168.091395 
L 230.33915 168.313769 
L 230.935856 168.595991 
L 231.502027 168.93534 
L 232.032209 169.32855 
L 232.521297 169.771834 
L 232.964581 170.260922 
L 233.357791 170.791104 
L 233.69714 171.357275 
L 233.979361 171.953981 
L 234.201736 172.575477 
L 234.362123 173.215777 
L 234.458977 173.868714 
z
" clip-path="url(#pc3cc1856b9)" style="fill: #ff0000; opacity: 0.5; stroke: #000000; stroke-linejoin: miter"/>
   </g>
   <g id="patch_30">
    <path d="M 234.491366 204.796056 
L 234.458977 205.455342 
L 234.362123 206.108279 
L 234.201736 206.748579 
L 233.979361 207.370075 
L 233.69714 207.966781 
L 233.357791 208.532952 
L 232.964581 209.063134 
L 232.521297 209.552222 
L 232.032209 209.995506 
L 231.502027 210.388716 
L 230.935856 210.728066 
L 230.33915 211.010287 
L 229.717654 211.232661 
L 229.077354 211.393048 
L 228.424417 211.489902 
L 227.765131 211.522291 
L 227.105845 211.489902 
L 226.452908 211.393048 
L 225.812608 211.232661 
L 225.191112 211.010287 
L 224.594406 210.728066 
L 224.028235 210.388716 
L 223.498053 209.995506 
L 223.008965 209.552222 
L 222.565681 209.063134 
L 222.172471 208.532952 
L 221.833122 207.966781 
L 221.5509 207.370075 
L 221.328526 206.748579 
L 221.168139 206.108279 
L 221.071285 205.455342 
L 221.038896 204.796056 
L 221.071285 204.13677 
L 221.168139 203.483833 
L 221.328526 202.843533 
L 221.5509 202.222038 
L 221.833122 201.625331 
L 222.172471 201.05916 
L 222.565681 200.528978 
L 223.008965 200.03989 
L 223.498053 199.596606 
L 224.028235 199.203396 
L 224.594406 198.864047 
L 225.191112 198.581826 
L 225.812608 198.359451 
L 226.452908 198.199064 
L 227.105845 198.10221 
L 227.765131 198.069821 
L 228.424417 198.10221 
L 229.077354 198.199064 
L 229.717654 198.359451 
L 230.33915 198.581826 
L 230.935856 198.864047 
L 231.502027 199.203396 
L 232.032209 199.596606 
L 232.521297 200.03989 
L 232.964581 200.528978 
L 233.357791 201.05916 
L 233.69714 201.625331 
L 233.979361 202.222038 
L 234.201736 202.843533 
L 234.362123 203.483833 
L 234.458977 204.13677 
z
" clip-path="url(#pc3cc1856b9)" style="fill: #ff0000; opacity: 0.5; stroke: #000000; stroke-linejoin: miter"/>
   </g>
   <g id="patch_31">
    <path d="M 208.27846 219.930084 
L 208.246071 220.589371 
L 208.149217 221.242308 
L 207.988831 221.882607 
L 207.766456 222.504103 
L 207.484235 223.100809 
L 207.144885 223.66698 
L 206.751675 224.197162 
L 206.308392 224.68625 
L 205.819303 225.129534 
L 205.289121 225.522744 
L 204.72295 225.862094 
L 204.126244 226.144315 
L 203.504748 226.36669 
L 202.864449 226.527076 
L 202.211512 226.62393 
L 201.552225 226.656319 
L 200.892939 226.62393 
L 200.240002 226.527076 
L 199.599703 226.36669 
L 198.978207 226.144315 
L 198.3815 225.862094 
L 197.81533 225.522744 
L 197.285147 225.129534 
L 196.796059 224.68625 
L 196.352776 224.197162 
L 195.959566 223.66698 
L 195.620216 223.100809 
L 195.337995 222.504103 
L 195.11562 221.882607 
L 194.955233 221.242308 
L 194.858379 220.589371 
L 194.825991 219.930084 
L 194.858379 219.270798 
L 194.955233 218.617861 
L 195.11562 217.977561 
L 195.337995 217.356066 
L 195.620216 216.759359 
L 195.959566 216.193188 
L 196.352776 215.663006 
L 196.796059 215.173918 
L 197.285147 214.730634 
L 197.81533 214.337424 
L 198.3815 213.998075 
L 198.978207 213.715854 
L 199.599703 213.493479 
L 200.240002 213.333092 
L 200.892939 213.236238 
L 201.552225 213.20385 
L 202.211512 213.236238 
L 202.864449 213.333092 
L 203.504748 213.493479 
L 204.126244 213.715854 
L 204.72295 213.998075 
L 205.289121 214.337424 
L 205.819303 214.730634 
L 206.308392 215.173918 
L 206.751675 215.663006 
L 207.144885 216.193188 
L 207.484235 216.759359 
L 207.766456 217.356066 
L 207.988831 217.977561 
L 208.149217 218.617861 
L 208.246071 219.270798 
z
" clip-path="url(#pc3cc1856b9)" style="fill: #ff0000; opacity: 0.5; stroke: #000000; stroke-linejoin: miter"/>
   </g>
   <g id="patch_32">
    <path d="M 208.27846 189.662028 
L 208.246071 190.321314 
L 208.149217 190.974251 
L 207.988831 191.614551 
L 207.766456 192.236047 
L 207.484235 192.832753 
L 207.144885 193.398924 
L 206.751675 193.929106 
L 206.308392 194.418194 
L 205.819303 194.861478 
L 205.289121 195.254688 
L 204.72295 195.594037 
L 204.126244 195.876259 
L 203.504748 196.098633 
L 202.864449 196.25902 
L 202.211512 196.355874 
L 201.552225 196.388263 
L 200.892939 196.355874 
L 200.240002 196.25902 
L 199.599703 196.098633 
L 198.978207 195.876259 
L 198.3815 195.594037 
L 197.81533 195.254688 
L 197.285147 194.861478 
L 196.796059 194.418194 
L 196.352776 193.929106 
L 195.959566 193.398924 
L 195.620216 192.832753 
L 195.337995 192.236047 
L 195.11562 191.614551 
L 194.955233 190.974251 
L 194.858379 190.321314 
L 194.825991 189.662028 
L 194.858379 189.002742 
L 194.955233 188.349805 
L 195.11562 187.709505 
L 195.337995 187.088009 
L 195.620216 186.491303 
L 195.959566 185.925132 
L 196.352776 185.39495 
L 196.796059 184.905862 
L 197.285147 184.462578 
L 197.81533 184.069368 
L 198.3815 183.730019 
L 198.978207 183.447798 
L 199.599703 183.225423 
L 200.240002 183.065036 
L 200.892939 182.968182 
L 201.552225 182.935793 
L 202.211512 182.968182 
L 202.864449 183.065036 
L 203.504748 183.225423 
L 204.126244 183.447798 
L 204.72295 183.730019 
L 205.289121 184.069368 
L 205.819303 184.462578 
L 206.308392 184.905862 
L 206.751675 185.39495 
L 207.144885 185.925132 
L 207.484235 186.491303 
L 207.766456 187.088009 
L 207.988831 187.709505 
L 208.149217 188.349805 
L 208.246071 189.002742 
z
" clip-path="url(#pc3cc1856b9)" style="fill: #ff0000; opacity: 0.5; stroke: #000000; stroke-linejoin: miter"/>
   </g>
   <g id="patch_33">
    <path d="M 208.27846 159.393972 
L 208.246071 160.053258 
L 208.149217 160.706195 
L 207.988831 161.346495 
L 207.766456 161.967991 
L 207.484235 162.564697 
L 207.144885 163.130868 
L 206.751675 163.66105 
L 206.308392 164.150138 
L 205.819303 164.593422 
L 205.289121 164.986632 
L 204.72295 165.325981 
L 204.126244 165.608202 
L 203.504748 165.830577 
L 202.864449 165.990964 
L 202.211512 166.087818 
L 201.552225 166.120207 
L 200.892939 166.087818 
L 200.240002 165.990964 
L 199.599703 165.830577 
L 198.978207 165.608202 
L 198.3815 165.325981 
L 197.81533 164.986632 
L 197.285147 164.593422 
L 196.796059 164.150138 
L 196.352776 163.66105 
L 195.959566 163.130868 
L 195.620216 162.564697 
L 195.337995 161.967991 
L 195.11562 161.346495 
L 194.955233 160.706195 
L 194.858379 160.053258 
L 194.825991 159.393972 
L 194.858379 158.734686 
L 194.955233 158.081749 
L 195.11562 157.441449 
L 195.337995 156.819953 
L 195.620216 156.223247 
L 195.959566 155.657076 
L 196.352776 155.126894 
L 196.796059 154.637806 
L 197.285147 154.194522 
L 197.81533 153.801312 
L 198.3815 153.461963 
L 198.978207 153.179741 
L 199.599703 152.957367 
L 200.240002 152.79698 
L 200.892939 152.700126 
L 201.552225 152.667737 
L 202.211512 152.700126 
L 202.864449 152.79698 
L 203.504748 152.957367 
L 204.126244 153.179741 
L 204.72295 153.461963 
L 205.289121 153.801312 
L 205.819303 154.194522 
L 206.308392 154.637806 
L 206.751675 155.126894 
L 207.144885 155.657076 
L 207.484235 156.223247 
L 207.766456 156.819953 
L 207.988831 157.441449 
L 208.149217 158.081749 
L 208.246071 158.734686 
z
" clip-path="url(#pc3cc1856b9)" style="fill: #ff0000; opacity: 0.5; stroke: #000000; stroke-linejoin: miter"/>
   </g>
   <g id="patch_34">
    <path d="M 208.27846 129.125916 
L 208.246071 129.785202 
L 208.149217 130.438139 
L 207.988831 131.078439 
L 207.766456 131.699934 
L 207.484235 132.296641 
L 207.144885 132.862812 
L 206.751675 133.392994 
L 206.308392 133.882082 
L 205.819303 134.325366 
L 205.289121 134.718576 
L 204.72295 135.057925 
L 204.126244 135.340146 
L 203.504748 135.562521 
L 202.864449 135.722908 
L 202.211512 135.819762 
L 201.552225 135.85215 
L 200.892939 135.819762 
L 200.240002 135.722908 
L 199.599703 135.562521 
L 198.978207 135.340146 
L 198.3815 135.057925 
L 197.81533 134.718576 
L 197.285147 134.325366 
L 196.796059 133.882082 
L 196.352776 133.392994 
L 195.959566 132.862812 
L 195.620216 132.296641 
L 195.337995 131.699934 
L 195.11562 131.078439 
L 194.955233 130.438139 
L 194.858379 129.785202 
L 194.825991 129.125916 
L 194.858379 128.466629 
L 194.955233 127.813692 
L 195.11562 127.173393 
L 195.337995 126.551897 
L 195.620216 125.955191 
L 195.959566 125.38902 
L 196.352776 124.858838 
L 196.796059 124.36975 
L 197.285147 123.926466 
L 197.81533 123.533256 
L 198.3815 123.193906 
L 198.978207 122.911685 
L 199.599703 122.68931 
L 200.240002 122.528924 
L 200.892939 122.43207 
L 201.552225 122.399681 
L 202.211512 122.43207 
L 202.864449 122.528924 
L 203.504748 122.68931 
L 204.126244 122.911685 
L 204.72295 123.193906 
L 205.289121 123.533256 
L 205.819303 123.926466 
L 206.308392 124.36975 
L 206.751675 124.858838 
L 207.144885 125.38902 
L 207.484235 125.955191 
L 207.766456 126.551897 
L 207.988831 127.173393 
L 208.149217 127.813692 
L 208.246071 128.466629 
z
" clip-path="url(#pc3cc1856b9)" style="fill: #ff0000; opacity: 0.5; stroke: #000000; stroke-linejoin: miter"/>
   </g>
   <g id="patch_35">
    <path d="M 182.065555 113.991888 
L 182.033166 114.651174 
L 181.936312 115.304111 
L 181.775925 115.944411 
L 181.55355 116.565906 
L 181.271329 117.162613 
L 180.93198 117.728783 
L 180.53877 118.258966 
L 180.095486 118.748054 
L 179.606398 119.191337 
L 179.076216 119.584547 
L 178.510045 119.923897 
L 177.913338 120.206118 
L 177.291843 120.428493 
L 176.651543 120.58888 
L 175.998606 120.685734 
L 175.33932 120.718122 
L 174.680034 120.685734 
L 174.027097 120.58888 
L 173.386797 120.428493 
L 172.765301 120.206118 
L 172.168595 119.923897 
L 171.602424 119.584547 
L 171.072242 119.191337 
L 170.583154 118.748054 
L 170.13987 118.258966 
L 169.74666 117.728783 
L 169.40731 117.162613 
L 169.125089 116.565906 
L 168.902715 115.944411 
L 168.742328 115.304111 
L 168.645474 114.651174 
L 168.613085 113.991888 
L 168.645474 113.332601 
L 168.742328 112.679664 
L 168.902715 112.039365 
L 169.125089 111.417869 
L 169.40731 110.821163 
L 169.74666 110.254992 
L 170.13987 109.72481 
L 170.583154 109.235722 
L 171.072242 108.792438 
L 171.602424 108.399228 
L 172.168595 108.059878 
L 172.765301 107.777657 
L 173.386797 107.555282 
L 174.027097 107.394896 
L 174.680034 107.298042 
L 175.33932 107.265653 
L 175.998606 107.298042 
L 176.651543 107.394896 
L 177.291843 107.555282 
L 177.913338 107.777657 
L 178.510045 108.059878 
L 179.076216 108.399228 
L 179.606398 108.792438 
L 180.095486 109.235722 
L 180.53877 109.72481 
L 180.93198 110.254992 
L 181.271329 110.821163 
L 181.55355 111.417869 
L 181.775925 112.039365 
L 181.936312 112.679664 
L 182.033166 113.332601 
z
" clip-path="url(#pc3cc1856b9)" style="fill: #ff0000; opacity: 0.5; stroke: #000000; stroke-linejoin: miter"/>
   </g>
   <g id="patch_36">
    <path d="M 182.065555 144.259944 
L 182.033166 144.91923 
L 181.936312 145.572167 
L 181.775925 146.212467 
L 181.55355 146.833962 
L 181.271329 147.430669 
L 180.93198 147.99684 
L 180.53877 148.527022 
L 180.095486 149.01611 
L 179.606398 149.459394 
L 179.076216 149.852604 
L 178.510045 150.191953 
L 177.913338 150.474174 
L 177.291843 150.696549 
L 176.651543 150.856936 
L 175.998606 150.95379 
L 175.33932 150.986179 
L 174.680034 150.95379 
L 174.027097 150.856936 
L 173.386797 150.696549 
L 172.765301 150.474174 
L 172.168595 150.191953 
L 171.602424 149.852604 
L 171.072242 149.459394 
L 170.583154 149.01611 
L 170.13987 148.527022 
L 169.74666 147.99684 
L 169.40731 147.430669 
L 169.125089 146.833962 
L 168.902715 146.212467 
L 168.742328 145.572167 
L 168.645474 144.91923 
L 168.613085 144.259944 
L 168.645474 143.600658 
L 168.742328 142.947721 
L 168.902715 142.307421 
L 169.125089 141.685925 
L 169.40731 141.089219 
L 169.74666 140.523048 
L 170.13987 139.992866 
L 170.583154 139.503778 
L 171.072242 139.060494 
L 171.602424 138.667284 
L 172.168595 138.327934 
L 172.765301 138.045713 
L 173.386797 137.823339 
L 174.027097 137.662952 
L 174.680034 137.566098 
L 175.33932 137.533709 
L 175.998606 137.566098 
L 176.651543 137.662952 
L 177.291843 137.823339 
L 177.913338 138.045713 
L 178.510045 138.327934 
L 179.076216 138.667284 
L 179.606398 139.060494 
L 180.095486 139.503778 
L 180.53877 139.992866 
L 180.93198 140.523048 
L 181.271329 141.089219 
L 181.55355 141.685925 
L 181.775925 142.307421 
L 181.936312 142.947721 
L 182.033166 143.600658 
z
" clip-path="url(#pc3cc1856b9)" style="fill: #ff0000; opacity: 0.5; stroke: #000000; stroke-linejoin: miter"/>
   </g>
   <g id="patch_37">
    <path d="M 182.065555 174.528 
L 182.033166 175.187286 
L 181.936312 175.840223 
L 181.775925 176.480523 
L 181.55355 177.102019 
L 181.271329 177.698725 
L 180.93198 178.264896 
L 180.53877 178.795078 
L 180.095486 179.284166 
L 179.606398 179.72745 
L 179.076216 180.12066 
L 178.510045 180.460009 
L 177.913338 180.742231 
L 177.291843 180.964605 
L 176.651543 181.124992 
L 175.998606 181.221846 
L 175.33932 181.254235 
L 174.680034 181.221846 
L 174.027097 181.124992 
L 173.386797 180.964605 
L 172.765301 180.742231 
L 172.168595 180.460009 
L 171.602424 180.12066 
L 171.072242 179.72745 
L 170.583154 179.284166 
L 170.13987 178.795078 
L 169.74666 178.264896 
L 169.40731 177.698725 
L 169.125089 177.102019 
L 168.902715 176.480523 
L 168.742328 175.840223 
L 168.645474 175.187286 
L 168.613085 174.528 
L 168.645474 173.868714 
L 168.742328 173.215777 
L 168.902715 172.575477 
L 169.125089 171.953981 
L 169.40731 171.357275 
L 169.74666 170.791104 
L 170.13987 170.260922 
L 170.583154 169.771834 
L 171.072242 169.32855 
L 171.602424 168.93534 
L 172.168595 168.595991 
L 172.765301 168.313769 
L 173.386797 168.091395 
L 174.027097 167.931008 
L 174.680034 167.834154 
L 175.33932 167.801765 
L 175.998606 167.834154 
L 176.651543 167.931008 
L 177.291843 168.091395 
L 177.913338 168.313769 
L 178.510045 168.595991 
L 179.076216 168.93534 
L 179.606398 169.32855 
L 180.095486 169.771834 
L 180.53877 170.260922 
L 180.93198 170.791104 
L 181.271329 171.357275 
L 181.55355 171.953981 
L 181.775925 172.575477 
L 181.936312 173.215777 
L 182.033166 173.868714 
z
" clip-path="url(#pc3cc1856b9)" style="fill: #ff0000; opacity: 0.5; stroke: #000000; stroke-linejoin: miter"/>
   </g>
   <g id="patch_38">
    <path d="M 182.065555 204.796056 
L 182.033166 205.455342 
L 181.936312 206.108279 
L 181.775925 206.748579 
L 181.55355 207.370075 
L 181.271329 207.966781 
L 180.93198 208.532952 
L 180.53877 209.063134 
L 180.095486 209.552222 
L 179.606398 209.995506 
L 179.076216 210.388716 
L 178.510045 210.728066 
L 177.913338 211.010287 
L 177.291843 211.232661 
L 176.651543 211.393048 
L 175.998606 211.489902 
L 175.33932 211.522291 
L 174.680034 211.489902 
L 174.027097 211.393048 
L 173.386797 211.232661 
L 172.765301 211.010287 
L 172.168595 210.728066 
L 171.602424 210.388716 
L 171.072242 209.995506 
L 170.583154 209.552222 
L 170.13987 209.063134 
L 169.74666 208.532952 
L 169.40731 207.966781 
L 169.125089 207.370075 
L 168.902715 206.748579 
L 168.742328 206.108279 
L 168.645474 205.455342 
L 168.613085 204.796056 
L 168.645474 204.13677 
L 168.742328 203.483833 
L 168.902715 202.843533 
L 169.125089 202.222038 
L 169.40731 201.625331 
L 169.74666 201.05916 
L 170.13987 200.528978 
L 170.583154 200.03989 
L 171.072242 199.596606 
L 171.602424 199.203396 
L 172.168595 198.864047 
L 172.765301 198.581826 
L 173.386797 198.359451 
L 174.027097 198.199064 
L 174.680034 198.10221 
L 175.33932 198.069821 
L 175.998606 198.10221 
L 176.651543 198.199064 
L 177.291843 198.359451 
L 177.913338 198.581826 
L 178.510045 198.864047 
L 179.076216 199.203396 
L 179.606398 199.596606 
L 180.095486 200.03989 
L 180.53877 200.528978 
L 180.93198 201.05916 
L 181.271329 201.625331 
L 181.55355 202.222038 
L 181.775925 202.843533 
L 181.936312 203.483833 
L 182.033166 204.13677 
z
" clip-path="url(#pc3cc1856b9)" style="fill: #ff0000; opacity: 0.5; stroke: #000000; stroke-linejoin: miter"/>
   </g>
   <g id="patch_39">
    <path d="M 182.065555 235.064112 
L 182.033166 235.723399 
L 181.936312 236.376336 
L 181.775925 237.016635 
L 181.55355 237.638131 
L 181.271329 238.234837 
L 180.93198 238.801008 
L 180.53877 239.33119 
L 180.095486 239.820278 
L 179.606398 240.263562 
L 179.076216 240.656772 
L 178.510045 240.996122 
L 177.913338 241.278343 
L 177.291843 241.500718 
L 176.651543 241.661104 
L 175.998606 241.757958 
L 175.33932 241.790347 
L 174.680034 241.757958 
L 174.027097 241.661104 
L 173.386797 241.500718 
L 172.765301 241.278343 
L 172.168595 240.996122 
L 171.602424 240.656772 
L 171.072242 240.263562 
L 170.583154 239.820278 
L 170.13987 239.33119 
L 169.74666 238.801008 
L 169.40731 238.234837 
L 169.125089 237.638131 
L 168.902715 237.016635 
L 168.742328 236.376336 
L 168.645474 235.723399 
L 168.613085 235.064112 
L 168.645474 234.404826 
L 168.742328 233.751889 
L 168.902715 233.111589 
L 169.125089 232.490094 
L 169.40731 231.893387 
L 169.74666 231.327217 
L 170.13987 230.797034 
L 170.583154 230.307946 
L 171.072242 229.864663 
L 171.602424 229.471453 
L 172.168595 229.132103 
L 172.765301 228.849882 
L 173.386797 228.627507 
L 174.027097 228.46712 
L 174.680034 228.370266 
L 175.33932 228.337878 
L 175.998606 228.370266 
L 176.651543 228.46712 
L 177.291843 228.627507 
L 177.913338 228.849882 
L 178.510045 229.132103 
L 179.076216 229.471453 
L 179.606398 229.864663 
L 180.095486 230.307946 
L 180.53877 230.797034 
L 180.93198 231.327217 
L 181.271329 231.893387 
L 181.55355 232.490094 
L 181.775925 233.111589 
L 181.936312 233.751889 
L 182.033166 234.404826 
z
" clip-path="url(#pc3cc1856b9)" style="fill: #ff0000; opacity: 0.5; stroke: #000000; stroke-linejoin: miter"/>
   </g>
   <g id="matplotlib.axis_1">
    <g id="xtick_1">
     <g id="line2d_1">
      <defs>
       <path id="m937686c914" d="M 0 0 
L 0 3.5 
" style="stroke: #000000; stroke-width: 0.8"/>
      </defs>
      <g>
       <use xlink:href="#m937686c914" x="125.807712" y="307.584" style="stroke: #000000; stroke-width: 0.8"/>
      </g>
     </g>
     <g id="text_1">
      <!-- 20 -->
      <g transform="translate(115.255368 322.182437) scale(0.1 -0.1)">
       <defs>
        <path id="DejaVuSans-2212" d="M 678 2272 
L 4684 2272 
L 4684 1741 
L 678 1741 
L 678 2272 
z
" transform="scale(0.015625)"/>
        <path id="DejaVuSans-32" d="M 1228 531 
L 3431 531 
L 3431 0 
L 469 0 
L 469 531 
Q 828 903 1448 1529 
Q 2069 2156 2228 2338 
Q 2531 2678 2651 2914 
Q 2772 3150 2772 3378 
Q 2772 3750 2511 3984 
Q 2250 4219 1831 4219 
Q 1534 4219 1204 4116 
Q 875 4013 500 3803 
L 500 4441 
Q 881 4594 1212 4672 
Q 1544 4750 1819 4750 
Q 2544 4750 2975 4387 
Q 3406 4025 3406 3419 
Q 3406 3131 3298 2873 
Q 3191 2616 2906 2266 
Q 2828 2175 2409 1742 
Q 1991 1309 1228 531 
z
" transform="scale(0.015625)"/>
        <path id="DejaVuSans-30" d="M 2034 4250 
Q 1547 4250 1301 3770 
Q 1056 3291 1056 2328 
Q 1056 1369 1301 889 
Q 1547 409 2034 409 
Q 2525 409 2770 889 
Q 3016 1369 3016 2328 
Q 3016 3291 2770 3770 
Q 2525 4250 2034 4250 
z
M 2034 4750 
Q 2819 4750 3233 4129 
Q 3647 3509 3647 2328 
Q 3647 1150 3233 529 
Q 2819 -91 2034 -91 
Q 1250 -91 836 529 
Q 422 1150 422 2328 
Q 422 3509 836 4129 
Q 1250 4750 2034 4750 
z
" transform="scale(0.015625)"/>
       </defs>
       <use xlink:href="#DejaVuSans-2212"/>
       <use xlink:href="#DejaVuSans-32" x="83.789062"/>
       <use xlink:href="#DejaVuSans-30" x="147.412109"/>
      </g>
     </g>
    </g>
    <g id="xtick_2">
     <g id="line2d_2">
      <g>
       <use xlink:href="#m937686c914" x="167.846679" y="307.584" style="stroke: #000000; stroke-width: 0.8"/>
      </g>
     </g>
     <g id="text_2">
      <!-- 10 -->
      <g transform="translate(157.294335 322.182437) scale(0.1 -0.1)">
       <defs>
        <path id="DejaVuSans-31" d="M 794 531 
L 1825 531 
L 1825 4091 
L 703 3866 
L 703 4441 
L 1819 4666 
L 2450 4666 
L 2450 531 
L 3481 531 
L 3481 0 
L 794 0 
L 794 531 
z
" transform="scale(0.015625)"/>
       </defs>
       <use xlink:href="#DejaVuSans-2212"/>
       <use xlink:href="#DejaVuSans-31" x="83.789062"/>
       <use xlink:href="#DejaVuSans-30" x="147.412109"/>
      </g>
     </g>
    </g>
    <g id="xtick_3">
     <g id="line2d_3">
      <g>
       <use xlink:href="#m937686c914" x="209.885646" y="307.584" style="stroke: #000000; stroke-width: 0.8"/>
      </g>
     </g>
     <g id="text_3">
      <!-- 0 -->
      <g transform="translate(206.704396 322.182437) scale(0.1 -0.1)">
       <use xlink:href="#DejaVuSans-30"/>
      </g>
     </g>
    </g>
    <g id="xtick_4">
     <g id="line2d_4">
      <g>
       <use xlink:href="#m937686c914" x="251.924613" y="307.584" style="stroke: #000000; stroke-width: 0.8"/>
      </g>
     </g>
     <g id="text_4">
      <!-- 10 -->
      <g transform="translate(245.562113 322.182437) scale(0.1 -0.1)">
       <use xlink:href="#DejaVuSans-31"/>
       <use xlink:href="#DejaVuSans-30" x="63.623047"/>
      </g>
     </g>
    </g>
    <g id="xtick_5">
     <g id="line2d_5">
      <g>
       <use xlink:href="#m937686c914" x="293.963579" y="307.584" style="stroke: #000000; stroke-width: 0.8"/>
      </g>
     </g>
     <g id="text_5">
      <!-- 20 -->
      <g transform="translate(287.601079 322.182437) scale(0.1 -0.1)">
       <use xlink:href="#DejaVuSans-32"/>
       <use xlink:href="#DejaVuSans-30" x="63.623047"/>
      </g>
     </g>
    </g>
    <g id="xtick_6">
     <g id="line2d_6">
      <g>
       <use xlink:href="#m937686c914" x="336.002546" y="307.584" style="stroke: #000000; stroke-width: 0.8"/>
      </g>
     </g>
     <g id="text_6">
      <!-- 30 -->
      <g transform="translate(329.640046 322.182437) scale(0.1 -0.1)">
       <defs>
        <path id="DejaVuSans-33" d="M 2597 2516 
Q 3050 2419 3304 2112 
Q 3559 1806 3559 1356 
Q 3559 666 3084 287 
Q 2609 -91 1734 -91 
Q 1441 -91 1130 -33 
Q 819 25 488 141 
L 488 750 
Q 750 597 1062 519 
Q 1375 441 1716 441 
Q 2309 441 2620 675 
Q 2931 909 2931 1356 
Q 2931 1769 2642 2001 
Q 2353 2234 1838 2234 
L 1294 2234 
L 1294 2753 
L 1863 2753 
Q 2328 2753 2575 2939 
Q 2822 3125 2822 3475 
Q 2822 3834 2567 4026 
Q 2313 4219 1838 4219 
Q 1578 4219 1281 4162 
Q 984 4106 628 3988 
L 628 4550 
Q 988 4650 1302 4700 
Q 1616 4750 1894 4750 
Q 2613 4750 3031 4423 
Q 3450 4097 3450 3541 
Q 3450 3153 3228 2886 
Q 3006 2619 2597 2516 
z
" transform="scale(0.015625)"/>
       </defs>
       <use xlink:href="#DejaVuSans-33"/>
       <use xlink:href="#DejaVuSans-30" x="63.623047"/>
      </g>
     </g>
    </g>
   </g>
   <g id="matplotlib.axis_2">
    <g id="ytick_1">
     <g id="line2d_7">
      <defs>
       <path id="m64e3a288df" d="M 0 0 
L -3.5 0 
" style="stroke: #000000; stroke-width: 0.8"/>
      </defs>
      <g>
       <use xlink:href="#m64e3a288df" x="115.29797" y="300.644901" style="stroke: #000000; stroke-width: 0.8"/>
      </g>
     </g>
     <g id="text_7">
      <!-- 30 -->
      <g transform="translate(87.193283 304.444119) scale(0.1 -0.1)">
       <use xlink:href="#DejaVuSans-2212"/>
       <use xlink:href="#DejaVuSans-33" x="83.789062"/>
       <use xlink:href="#DejaVuSans-30" x="147.412109"/>
      </g>
     </g>
    </g>
    <g id="ytick_2">
     <g id="line2d_8">
      <g>
       <use xlink:href="#m64e3a288df" x="115.29797" y="258.605934" style="stroke: #000000; stroke-width: 0.8"/>
      </g>
     </g>
     <g id="text_8">
      <!-- 20 -->
      <g transform="translate(87.193283 262.405152) scale(0.1 -0.1)">
       <use xlink:href="#DejaVuSans-2212"/>
       <use xlink:href="#DejaVuSans-32" x="83.789062"/>
       <use xlink:href="#DejaVuSans-30" x="147.412109"/>
      </g>
     </g>
    </g>
    <g id="ytick_3">
     <g id="line2d_9">
      <g>
       <use xlink:href="#m64e3a288df" x="115.29797" y="216.566967" style="stroke: #000000; stroke-width: 0.8"/>
      </g>
     </g>
     <g id="text_9">
      <!-- 10 -->
      <g transform="translate(87.193283 220.366186) scale(0.1 -0.1)">
       <use xlink:href="#DejaVuSans-2212"/>
       <use xlink:href="#DejaVuSans-31" x="83.789062"/>
       <use xlink:href="#DejaVuSans-30" x="147.412109"/>
      </g>
     </g>
    </g>
    <g id="ytick_4">
     <g id="line2d_10">
      <g>
       <use xlink:href="#m64e3a288df" x="115.29797" y="174.528" style="stroke: #000000; stroke-width: 0.8"/>
      </g>
     </g>
     <g id="text_10">
      <!-- 0 -->
      <g transform="translate(101.93547 178.327219) scale(0.1 -0.1)">
       <use xlink:href="#DejaVuSans-30"/>
      </g>
     </g>
    </g>
    <g id="ytick_5">
     <g id="line2d_11">
      <g>
       <use xlink:href="#m64e3a288df" x="115.29797" y="132.489033" style="stroke: #000000; stroke-width: 0.8"/>
      </g>
     </g>
     <g id="text_11">
      <!-- 10 -->
      <g transform="translate(95.57297 136.288252) scale(0.1 -0.1)">
       <use xlink:href="#DejaVuSans-31"/>
       <use xlink:href="#DejaVuSans-30" x="63.623047"/>
      </g>
     </g>
    </g>
    <g id="ytick_6">
     <g id="line2d_12">
      <g>
       <use xlink:href="#m64e3a288df" x="115.29797" y="90.450066" style="stroke: #000000; stroke-width: 0.8"/>
      </g>
     </g>
     <g id="text_12">
      <!-- 20 -->
      <g transform="translate(95.57297 94.249285) scale(0.1 -0.1)">
       <use xlink:href="#DejaVuSans-32"/>
       <use xlink:href="#DejaVuSans-30" x="63.623047"/>
      </g>
     </g>
    </g>
    <g id="ytick_7">
     <g id="line2d_13">
      <g>
       <use xlink:href="#m64e3a288df" x="115.29797" y="48.411099" style="stroke: #000000; stroke-width: 0.8"/>
      </g>
     </g>
     <g id="text_13">
      <!-- 30 -->
      <g transform="translate(95.57297 52.210318) scale(0.1 -0.1)">
       <use xlink:href="#DejaVuSans-33"/>
       <use xlink:href="#DejaVuSans-30" x="63.623047"/>
      </g>
     </g>
    </g>
   </g>
   <g id="patch_40">
    <path d="M 115.29797 307.584 
L 115.29797 41.472 
" style="fill: none; stroke: #000000; stroke-width: 0.8; stroke-linejoin: miter; stroke-linecap: square"/>
   </g>
   <g id="patch_41">
    <path d="M 357.02203 307.584 
L 357.02203 41.472 
" style="fill: none; stroke: #000000; stroke-width: 0.8; stroke-linejoin: miter; stroke-linecap: square"/>
   </g>
   <g id="patch_42">
    <path d="M 115.29797 307.584 
L 357.02203 307.584 
" style="fill: none; stroke: #000000; stroke-width: 0.8; stroke-linejoin: miter; stroke-linecap: square"/>
   </g>
   <g id="patch_43">
    <path d="M 115.29797 41.472 
L 357.02203 41.472 
" style="fill: none; stroke: #000000; stroke-width: 0.8; stroke-linejoin: miter; stroke-linecap: square"/>
   </g>
   <g id="text_14">
    <!-- Plato_A1 Design -->
    <g transform="translate(187.630313 35.472) scale(0.12 -0.12)">
     <defs>
      <path id="DejaVuSans-50" d="M 1259 4147 
L 1259 2394 
L 2053 2394 
Q 2494 2394 2734 2622 
Q 2975 2850 2975 3272 
Q 2975 3691 2734 3919 
Q 2494 4147 2053 4147 
L 1259 4147 
z
M 628 4666 
L 2053 4666 
Q 2838 4666 3239 4311 
Q 3641 3956 3641 3272 
Q 3641 2581 3239 2228 
Q 2838 1875 2053 1875 
L 1259 1875 
L 1259 0 
L 628 0 
L 628 4666 
z
" transform="scale(0.015625)"/>
      <path id="DejaVuSans-6c" d="M 603 4863 
L 1178 4863 
L 1178 0 
L 603 0 
L 603 4863 
z
" transform="scale(0.015625)"/>
      <path id="DejaVuSans-61" d="M 2194 1759 
Q 1497 1759 1228 1600 
Q 959 1441 959 1056 
Q 959 750 1161 570 
Q 1363 391 1709 391 
Q 2188 391 2477 730 
Q 2766 1069 2766 1631 
L 2766 1759 
L 2194 1759 
z
M 3341 1997 
L 3341 0 
L 2766 0 
L 2766 531 
Q 2569 213 2275 61 
Q 1981 -91 1556 -91 
Q 1019 -91 701 211 
Q 384 513 384 1019 
Q 384 1609 779 1909 
Q 1175 2209 1959 2209 
L 2766 2209 
L 2766 2266 
Q 2766 2663 2505 2880 
Q 2244 3097 1772 3097 
Q 1472 3097 1187 3025 
Q 903 2953 641 2809 
L 641 3341 
Q 956 3463 1253 3523 
Q 1550 3584 1831 3584 
Q 2591 3584 2966 3190 
Q 3341 2797 3341 1997 
z
" transform="scale(0.015625)"/>
      <path id="DejaVuSans-74" d="M 1172 4494 
L 1172 3500 
L 2356 3500 
L 2356 3053 
L 1172 3053 
L 1172 1153 
Q 1172 725 1289 603 
Q 1406 481 1766 481 
L 2356 481 
L 2356 0 
L 1766 0 
Q 1100 0 847 248 
Q 594 497 594 1153 
L 594 3053 
L 172 3053 
L 172 3500 
L 594 3500 
L 594 4494 
L 1172 4494 
z
" transform="scale(0.015625)"/>
      <path id="DejaVuSans-6f" d="M 1959 3097 
Q 1497 3097 1228 2736 
Q 959 2375 959 1747 
Q 959 1119 1226 758 
Q 1494 397 1959 397 
Q 2419 397 2687 759 
Q 2956 1122 2956 1747 
Q 2956 2369 2687 2733 
Q 2419 3097 1959 3097 
z
M 1959 3584 
Q 2709 3584 3137 3096 
Q 3566 2609 3566 1747 
Q 3566 888 3137 398 
Q 2709 -91 1959 -91 
Q 1206 -91 779 398 
Q 353 888 353 1747 
Q 353 2609 779 3096 
Q 1206 3584 1959 3584 
z
" transform="scale(0.015625)"/>
      <path id="DejaVuSans-5f" d="M 3263 -1063 
L 3263 -1509 
L -63 -1509 
L -63 -1063 
L 3263 -1063 
z
" transform="scale(0.015625)"/>
      <path id="DejaVuSans-41" d="M 2188 4044 
L 1331 1722 
L 3047 1722 
L 2188 4044 
z
M 1831 4666 
L 2547 4666 
L 4325 0 
L 3669 0 
L 3244 1197 
L 1141 1197 
L 716 0 
L 50 0 
L 1831 4666 
z
" transform="scale(0.015625)"/>
      <path id="DejaVuSans-20" transform="scale(0.015625)"/>
      <path id="DejaVuSans-44" d="M 1259 4147 
L 1259 519 
L 2022 519 
Q 2988 519 3436 956 
Q 3884 1394 3884 2338 
Q 3884 3275 3436 3711 
Q 2988 4147 2022 4147 
L 1259 4147 
z
M 628 4666 
L 1925 4666 
Q 3281 4666 3915 4102 
Q 4550 3538 4550 2338 
Q 4550 1131 3912 565 
Q 3275 0 1925 0 
L 628 0 
L 628 4666 
z
" transform="scale(0.015625)"/>
      <path id="DejaVuSans-65" d="M 3597 1894 
L 3597 1613 
L 953 1613 
Q 991 1019 1311 708 
Q 1631 397 2203 397 
Q 2534 397 2845 478 
Q 3156 559 3463 722 
L 3463 178 
Q 3153 47 2828 -22 
Q 2503 -91 2169 -91 
Q 1331 -91 842 396 
Q 353 884 353 1716 
Q 353 2575 817 3079 
Q 1281 3584 2069 3584 
Q 2775 3584 3186 3129 
Q 3597 2675 3597 1894 
z
M 3022 2063 
Q 3016 2534 2758 2815 
Q 2500 3097 2075 3097 
Q 1594 3097 1305 2825 
Q 1016 2553 972 2059 
L 3022 2063 
z
" transform="scale(0.015625)"/>
      <path id="DejaVuSans-73" d="M 2834 3397 
L 2834 2853 
Q 2591 2978 2328 3040 
Q 2066 3103 1784 3103 
Q 1356 3103 1142 2972 
Q 928 2841 928 2578 
Q 928 2378 1081 2264 
Q 1234 2150 1697 2047 
L 1894 2003 
Q 2506 1872 2764 1633 
Q 3022 1394 3022 966 
Q 3022 478 2636 193 
Q 2250 -91 1575 -91 
Q 1294 -91 989 -36 
Q 684 19 347 128 
L 347 722 
Q 666 556 975 473 
Q 1284 391 1588 391 
Q 1994 391 2212 530 
Q 2431 669 2431 922 
Q 2431 1156 2273 1281 
Q 2116 1406 1581 1522 
L 1381 1569 
Q 847 1681 609 1914 
Q 372 2147 372 2553 
Q 372 3047 722 3315 
Q 1072 3584 1716 3584 
Q 2034 3584 2315 3537 
Q 2597 3491 2834 3397 
z
" transform="scale(0.015625)"/>
      <path id="DejaVuSans-69" d="M 603 3500 
L 1178 3500 
L 1178 0 
L 603 0 
L 603 3500 
z
M 603 4863 
L 1178 4863 
L 1178 4134 
L 603 4134 
L 603 4863 
z
" transform="scale(0.015625)"/>
      <path id="DejaVuSans-67" d="M 2906 1791 
Q 2906 2416 2648 2759 
Q 2391 3103 1925 3103 
Q 1463 3103 1205 2759 
Q 947 2416 947 1791 
Q 947 1169 1205 825 
Q 1463 481 1925 481 
Q 2391 481 2648 825 
Q 2906 1169 2906 1791 
z
M 3481 434 
Q 3481 -459 3084 -895 
Q 2688 -1331 1869 -1331 
Q 1566 -1331 1297 -1286 
Q 1028 -1241 775 -1147 
L 775 -588 
Q 1028 -725 1275 -790 
Q 1522 -856 1778 -856 
Q 2344 -856 2625 -561 
Q 2906 -266 2906 331 
L 2906 616 
Q 2728 306 2450 153 
Q 2172 0 1784 0 
Q 1141 0 747 490 
Q 353 981 353 1791 
Q 353 2603 747 3093 
Q 1141 3584 1784 3584 
Q 2172 3584 2450 3431 
Q 2728 3278 2906 2969 
L 2906 3500 
L 3481 3500 
L 3481 434 
z
" transform="scale(0.015625)"/>
      <path id="DejaVuSans-6e" d="M 3513 2113 
L 3513 0 
L 2938 0 
L 2938 2094 
Q 2938 2591 2744 2837 
Q 2550 3084 2163 3084 
Q 1697 3084 1428 2787 
Q 1159 2491 1159 1978 
L 1159 0 
L 581 0 
L 581 3500 
L 1159 3500 
L 1159 2956 
Q 1366 3272 1645 3428 
Q 1925 3584 2291 3584 
Q 2894 3584 3203 3211 
Q 3513 2838 3513 2113 
z
" transform="scale(0.015625)"/>
     </defs>
     <use xlink:href="#DejaVuSans-50"/>
     <use xlink:href="#DejaVuSans-6c" x="60.302734"/>
     <use xlink:href="#DejaVuSans-61" x="88.085938"/>
     <use xlink:href="#DejaVuSans-74" x="149.365234"/>
     <use xlink:href="#DejaVuSans-6f" x="188.574219"/>
     <use xlink:href="#DejaVuSans-5f" x="249.755859"/>
     <use xlink:href="#DejaVuSans-41" x="299.755859"/>
     <use xlink:href="#DejaVuSans-31" x="368.164062"/>
     <use xlink:href="#DejaVuSans-20" x="431.787109"/>
     <use xlink:href="#DejaVuSans-44" x="463.574219"/>
     <use xlink:href="#DejaVuSans-65" x="540.576172"/>
     <use xlink:href="#DejaVuSans-73" x="602.099609"/>
     <use xlink:href="#DejaVuSans-69" x="654.199219"/>
     <use xlink:href="#DejaVuSans-67" x="681.982422"/>
     <use xlink:href="#DejaVuSans-6e" x="745.458984"/>
    </g>
   </g>
  </g>
 </g>
 <defs>
  <clipPath id="pc3cc1856b9">
   <rect x="115.29797" y="41.472" width="241.724059" height="266.112"/>
  </clipPath>
 </defs>
</svg>
