<?xml version="1.0" standalone="no"?>
 <!DOCTYPE svg PUBLIC "-//W3C//DTD SVG 1.1//EN" 
 "http://www.w3.org/Graphics/SVG/1.1/DTD/svg11.dtd"> 
<svg
  xmlns:svg="http://www.w3.org/2000/svg"
  xmlns="http://www.w3.org/2000/svg"
  xmlns:xlink="http://www.w3.org/1999/xlink"
  version="1.1"
  width="31.1912mm" height="35.8394mm" viewBox="0.0000 0.0000 31.1912 35.8394">
<title>SVG Image created as Plato_A1-F_Silkscreen.svg date 2024/04/29 00:24:34 </title>
  <desc>Image generated by PCBNEW </desc>
<g style="fill:#000000; fill-opacity:1.0000;stroke:#000000; stroke-opacity:1.0000;
stroke-linecap:round; stroke-linejoin:round;"
 transform="translate(0 0) scale(1 1)">
</g>
<g style="fill:none; 
stroke:#000000; stroke-width:0.1000; stroke-opacity:1; 
stroke-linecap:round; stroke-linejoin:round;">
<g transform="rotate(-90.000000 3.0602 17.8271)">
<text x="3.0602" y="17.8271"
textLength="7.1476" font-size="1.3333" lengthAdjust="spacingAndGlyphs"
text-anchor="middle" opacity="0">PLATO_A1</text>
</g>
<g class="stroked-text"><desc>PLATO_A1</desc>
<path d="M2.9326 21.1128
L1.9326 21.1128
" />
<path d="M1.9326 21.1128
L1.9326 20.7318
" />
<path d="M1.9326 20.7318
L1.9802 20.6366
" />
<path d="M1.9802 20.6366
L2.0278 20.5890
" />
<path d="M2.0278 20.5890
L2.1231 20.5414
" />
<path d="M2.1231 20.5414
L2.2659 20.5414
" />
<path d="M2.2659 20.5414
L2.3612 20.5890
" />
<path d="M2.3612 20.5890
L2.4088 20.6366
" />
<path d="M2.4088 20.6366
L2.4564 20.7318
" />
<path d="M2.4564 20.7318
L2.4564 21.1128
" />
<path d="M2.9326 19.6366
L2.9326 20.1128
" />
<path d="M2.9326 20.1128
L1.9326 20.1128
" />
<path d="M2.6469 19.3509
L2.6469 18.8747
" />
<path d="M2.9326 19.4461
L1.9326 19.1128
" />
<path d="M1.9326 19.1128
L2.9326 18.7795
" />
<path d="M1.9326 18.5890
L1.9326 18.0176
" />
<path d="M2.9326 18.3033
L1.9326 18.3033
" />
<path d="M1.9326 17.4938
L1.9326 17.3033
" />
<path d="M1.9326 17.3033
L1.9802 17.2080
" />
<path d="M1.9802 17.2080
L2.0754 17.1128
" />
<path d="M2.0754 17.1128
L2.2659 17.0652
" />
<path d="M2.2659 17.0652
L2.5993 17.0652
" />
<path d="M2.5993 17.0652
L2.7897 17.1128
" />
<path d="M2.7897 17.1128
L2.8850 17.2080
" />
<path d="M2.8850 17.2080
L2.9326 17.3033
" />
<path d="M2.9326 17.3033
L2.9326 17.4938
" />
<path d="M2.9326 17.4938
L2.8850 17.5890
" />
<path d="M2.8850 17.5890
L2.7897 17.6842
" />
<path d="M2.7897 17.6842
L2.5993 17.7318
" />
<path d="M2.5993 17.7318
L2.2659 17.7318
" />
<path d="M2.2659 17.7318
L2.0754 17.6842
" />
<path d="M2.0754 17.6842
L1.9802 17.5890
" />
<path d="M1.9802 17.5890
L1.9326 17.4938
" />
<path d="M3.0278 16.8747
L3.0278 16.1128
" />
<path d="M2.6469 15.9223
L2.6469 15.4461
" />
<path d="M2.9326 16.0176
L1.9326 15.6842
" />
<path d="M1.9326 15.6842
L2.9326 15.3509
" />
<path d="M2.9326 14.4938
L2.9326 15.0652
" />
<path d="M2.9326 14.7795
L1.9326 14.7795
" />
<path d="M1.9326 14.7795
L2.0754 14.8747
" />
<path d="M2.0754 14.8747
L2.1707 14.9699
" />
<path d="M2.1707 14.9699
L2.2183 15.0652
" />
</g></g>
<g style="fill:none; 
stroke:#000000; stroke-width:0.1500; stroke-opacity:1; 
stroke-linecap:round; stroke-linejoin:round;">
<text x="2.4013" y="12.7542"
textLength="1.9643" font-size="1.3333" lengthAdjust="spacingAndGlyphs"
text-anchor="middle" opacity="0">J1</text>
<g class="stroked-text"><desc>J1</desc>
<path d="M2.0680 11.7090
L2.0680 12.4233
" />
<path d="M2.0680 12.4233
L2.0204 12.5662
" />
<path d="M2.0204 12.5662
L1.9251 12.6614
" />
<path d="M1.9251 12.6614
L1.7823 12.7090
" />
<path d="M1.7823 12.7090
L1.6870 12.7090
" />
<path d="M3.0680 12.7090
L2.4966 12.7090
" />
<path d="M2.7823 12.7090
L2.7823 11.7090
" />
<path d="M2.7823 11.7090
L2.6870 11.8519
" />
<path d="M2.6870 11.8519
L2.5918 11.9471
" />
<path d="M2.5918 11.9471
L2.4966 11.9947
" />
</g><text x="2.1872" y="23.9950"
textLength="1.9643" font-size="1.3333" lengthAdjust="spacingAndGlyphs"
text-anchor="middle" opacity="0">J2</text>
<g class="stroked-text"><desc>J2</desc>
<path d="M1.8539 22.9498
L1.8539 23.6641
" />
<path d="M1.8539 23.6641
L1.8063 23.8070
" />
<path d="M1.8063 23.8070
L1.7110 23.9022
" />
<path d="M1.7110 23.9022
L1.5682 23.9498
" />
<path d="M1.5682 23.9498
L1.4729 23.9498
" />
<path d="M2.2825 23.0451
L2.3301 22.9975
" />
<path d="M2.3301 22.9975
L2.4253 22.9498
" />
<path d="M2.4253 22.9498
L2.6634 22.9498
" />
<path d="M2.6634 22.9498
L2.7587 22.9975
" />
<path d="M2.7587 22.9975
L2.8063 23.0451
" />
<path d="M2.8063 23.0451
L2.8539 23.1403
" />
<path d="M2.8539 23.1403
L2.8539 23.2356
" />
<path d="M2.8539 23.2356
L2.8063 23.3784
" />
<path d="M2.8063 23.3784
L2.2348 23.9498
" />
<path d="M2.2348 23.9498
L2.8539 23.9498
" />
</g></g>
<g style="fill:none; 
stroke:#000000; stroke-width:0.1200; stroke-opacity:1; 
stroke-linecap:round; stroke-linejoin:round;">
<path d="M0.8572 3.2950
L2.1872 3.2950
" />
<path d="M0.8572 4.6250
L0.8572 3.2950
" />
<path d="M0.8572 5.8950
L0.8572 11.0350
" />
<path d="M0.8572 5.8950
L3.5172 5.8950
" />
<path d="M0.8572 11.0350
L3.5172 11.0350
" />
<path d="M3.5172 5.8950
L3.5172 11.0350
" />
<path d="M4.4878 7.5486
L4.8128 8.1115
" />
<path d="M4.4878 7.5486
L6.9473 6.1286
" />
<path d="M5.6378 9.5404
L8.0973 8.1204
" />
<path d="M0.8572 24.4950
L2.1872 24.4950
" />
<path d="M0.8572 25.8250
L0.8572 24.4950
" />
<path d="M0.8572 27.0950
L0.8572 32.2350
" />
<path d="M0.8572 27.0950
L3.5172 27.0950
" />
<path d="M0.8572 32.2350
L3.5172 32.2350
" />
<path d="M3.5172 27.0950
L3.5172 32.2350
" />
<path d="M11.5515 23.0912
L11.7197 23.7191
" />
<path d="M11.5515 23.0912
L14.2947 22.3562
" />
<path d="M12.1468 25.3128
L14.8900 24.5778
" />
<path d="M13.4117 17.6518
L11.4035 15.6436
" />
<path d="M13.4117 17.6518
L13.8713 17.1921
" />
<path d="M15.0380 16.0254
L13.0298 14.0172
" />
<path d="M8.6066 16.4145
L8.6066 19.2545
" />
<path d="M10.9066 16.4145
L10.2566 16.4145
" />
<path d="M10.9066 16.4145
L10.9066 19.2545
" />
<path d="M8.1585 26.7205
L10.9554 27.2136
" />
<path d="M8.5579 24.4554
L8.4450 25.0955
" />
<path d="M8.5579 24.4554
L11.3548 24.9486
" />
<path d="M5.8504 21.6075
L4.6502 19.0336
" />
<path d="M5.8504 21.6075
L6.4395 21.3328
" />
<path d="M7.9349 20.6354
L6.7347 18.0615
" />
<path d="M18.6706 20.9085
L19.2985 21.0767
" />
<path d="M18.6706 20.9085
L19.4057 18.1652
" />
<path d="M20.8922 21.5038
L21.6273 18.7605
" />
<path d="M22.4630 19.2545
L22.4631 16.4145
" />
<path d="M22.4630 19.2545
L23.1130 19.2545
" />
<path d="M24.7630 19.2545
L24.7631 16.4145
" />
<path d="M11.4931 12.4295
L14.1618 13.4008
" />
<path d="M12.2797 10.2682
L12.0574 10.8790
" />
<path d="M12.2797 10.2682
L14.9484 11.2395
" />
<path d="M6.4835 10.0172
L4.4753 12.0254
" />
<path d="M8.1098 11.6436
L6.1016 13.6518
" />
<path d="M8.1098 11.6436
L7.6502 11.1840
" />
<path d="M8.0874 9.0912
L8.2556 9.7191
" />
<path d="M8.0874 9.0912
L10.8306 8.3562
" />
<path d="M8.6827 11.3128
L11.4259 10.5778
" />
<path d="M4.7262 16.7755
L5.3370 16.9979
" />
<path d="M4.7262 16.7755
L5.6976 14.1068
" />
<path d="M6.8875 17.5622
L7.8589 14.8935
" />
<path d="M19.2630 17.4326
L18.7698 14.6358
" />
<path d="M19.2630 17.4326
L19.9031 17.3198
" />
<path d="M21.5281 17.0332
L21.0349 14.2364
" />
<path d="M8.1143 13.0336
L9.3145 15.6075
" />
<path d="M10.1988 12.0615
L9.6097 12.3362
" />
<path d="M10.1988 12.0615
L11.3990 14.6354
" />
<path d="M6.6411 25.6282
L4.4656 23.8027
" />
<path d="M6.6411 25.6282
L7.0589 25.1303
" />
<path d="M8.1195 23.8663
L5.9440 22.0408
" />
<path d="M14.9283 13.3309
L16.5573 15.6573
" />
<path d="M16.8124 12.0117
L16.2799 12.3845
" />
<path d="M16.8124 12.0117
L18.4413 14.3381
" />
<path d="M8.0290 22.4295
L10.6977 23.4008
" />
<path d="M8.8156 20.2682
L8.5933 20.8790
" />
<path d="M8.8156 20.2682
L11.4843 21.2395
" />
<path d="M15.5348 16.4145
L15.5348 19.2545
" />
<path d="M17.8348 16.4145
L17.1848 16.4145
" />
<path d="M17.8348 16.4145
L17.8348 19.2545
" />
<path d="M14.8579 21.8027
L17.0334 23.6282
" />
<path d="M16.3363 20.0408
L15.9185 20.5387
" />
<path d="M16.3363 20.0408
L18.5118 21.8663
" />
<path d="M7.0935 29.4769
L4.5196 28.2766
" />
<path d="M7.0935 29.4769
L7.3682 28.8878
" />
<path d="M8.0655 27.3924
L5.4916 26.1921
" />
<path d="M11.3938 19.8663
L11.8116 20.3642
" />
<path d="M11.3938 19.8663
L13.5693 18.0408
" />
<path d="M12.8722 21.6282
L15.0477 19.8027
" />
</g>
<g style="fill:none; 
stroke:#000000; stroke-width:0.2000; stroke-opacity:1; 
stroke-linecap:round; stroke-linejoin:round;">
<path d="M31.0505 17.7034
L31.0698 17.7493
" />
<path d="M0.4646 35.7222
L0.4173 35.7063
" />
<path d="M31.0266 17.6596
L31.0505 17.7034
" />
<path d="M31.0845 17.7970
L31.0944 17.8458
" />
<path d="M0.5132 35.7333
L0.4646 35.7222
" />
<path d="M0.6125 0.1000
L0.6622 0.1037
" />
<path d="M30.9986 17.6185
L31.0266 17.6596
" />
<path d="M0.6125 35.7407
L0.5626 35.7395
" />
<path d="M0.1000 0.5998
L0.1025 0.5501
" />
<path d="M0.1099 35.3399
L0.1025 35.2906
" />
<path d="M0.1025 35.2906
L0.1000 35.2409
" />
<path d="M0.3719 0.1549
L0.4173 0.1344
" />
<path d="M30.9665 17.5803
L30.9986 17.6185
" />
<path d="M30.8919 17.5144
L30.9308 17.5455
" />
<path d="M31.0698 17.7493
L31.0845 17.7970
" />
<path d="M31.0994 17.9453
L31.0944 17.9949
" />
<path d="M0.1025 0.5501
L0.1099 0.5008
" />
<path d="M0.7113 0.1124
L0.7592 0.1259
" />
<path d="M31.0944 17.9949
L31.0845 18.0437
" />
<path d="M0.5132 0.1074
L0.5626 0.1012
" />
<path d="M0.8056 35.6966
L0.7592 35.7148
" />
<path d="M0.1393 35.4351
L0.1222 35.3882
" />
<path d="M0.8500 0.1668
L30.8500 17.4873
" />
<path d="M31.0994 17.8954
L31.0994 17.9453
" />
<path d="M0.8056 0.1441
L0.8500 0.1668
" />
<path d="M0.7592 35.7148
L0.7113 35.7283
" />
<path d="M0.3719 35.6858
L0.3287 35.6609
" />
<path d="M0.1869 35.5225
L0.1609 35.4800
" />
<path d="M31.0944 17.8458
L31.0994 17.8954
" />
<path d="M31.0505 18.1373
L31.0266 18.1811
" />
<path d="M30.8919 18.3263
L30.8500 18.3534
" />
<path d="M0.5626 35.7395
L0.5132 35.7333
" />
<path d="M0.6622 35.7370
L0.6125 35.7407
" />
<path d="M0.8500 35.6739
L0.8056 35.6966
" />
<path d="M30.9986 18.2223
L30.9665 18.2604
" />
<path d="M0.4173 0.1344
L0.4646 0.1185
" />
<path d="M31.0845 18.0437
L31.0698 18.0914
" />
<path d="M0.1393 0.4056
L0.1609 0.3607
" />
<path d="M0.6622 0.1037
L0.7113 0.1124
" />
<path d="M0.2170 0.2785
L0.2509 0.2419
" />
<path d="M31.0266 18.1811
L30.9986 18.2223
" />
<path d="M0.5626 0.1012
L0.6125 0.1000
" />
<path d="M0.1869 0.3182
L0.2170 0.2785
" />
<path d="M0.1222 35.3882
L0.1099 35.3399
" />
<path d="M30.8500 18.3534
L0.8500 35.6739
" />
<path d="M0.3287 35.6609
L0.2883 35.6318
" />
<path d="M0.3287 0.1798
L0.3719 0.1549
" />
<path d="M0.1000 35.2409
L0.1000 0.5998
" />
<path d="M30.9308 18.2952
L30.8919 18.3263
" />
<path d="M0.7113 35.7283
L0.6622 35.7370
" />
<path d="M0.1099 0.5008
L0.1222 0.4525
" />
<path d="M0.2509 35.5988
L0.2170 35.5623
" />
<path d="M0.2883 35.6318
L0.2509 35.5988
" />
<path d="M0.7592 0.1259
L0.8056 0.1441
" />
<path d="M31.0698 18.0914
L31.0505 18.1373
" />
<path d="M30.9308 17.5455
L30.9665 17.5803
" />
<path d="M0.2509 0.2419
L0.2883 0.2089
" />
<path d="M0.1609 35.4800
L0.1393 35.4351
" />
<path d="M30.9665 18.2604
L30.9308 18.2952
" />
<path d="M0.1609 0.3607
L0.1869 0.3182
" />
<path d="M0.2170 35.5623
L0.1869 35.5225
" />
<path d="M0.4646 0.1185
L0.5132 0.1074
" />
<path d="M0.2883 0.2089
L0.3287 0.1798
" />
<path d="M30.8500 17.4873
L30.8919 17.5144
" />
<path d="M0.4173 35.7063
L0.3719 35.6858
" />
<path d="M0.1222 0.4525
L0.1393 0.4056
" />
</g> 
</svg>
