<?xml version="1.0" standalone="no"?>
 <!DOCTYPE svg PUBLIC "-//W3C//DTD SVG 1.1//EN" 
 "http://www.w3.org/Graphics/SVG/1.1/DTD/svg11.dtd"> 
<svg
  xmlns:svg="http://www.w3.org/2000/svg"
  xmlns="http://www.w3.org/2000/svg"
  xmlns:xlink="http://www.w3.org/1999/xlink"
  version="1.1"
  width="31.1912mm" height="35.8394mm" viewBox="0.0000 0.0000 31.1912 35.8394">
<title>SVG Image created as Plato_A1-F_Courtyard.svg date 2024/04/29 00:24:34 </title>
  <desc>Image generated by PCBNEW </desc>
<g style="fill:#000000; fill-opacity:1.0000;stroke:#000000; stroke-opacity:1.0000;
stroke-linecap:round; stroke-linejoin:round;"
 transform="translate(0 0) scale(1 1)">
</g>
<g style="fill:none; 
stroke:#000000; stroke-width:0.0500; stroke-opacity:1; 
stroke-linecap:round; stroke-linejoin:round;">
<path d="M0.3872 2.8250
L0.3872 11.4750
" />
<path d="M0.3872 11.4750
L3.9872 11.4750
" />
<path d="M3.9872 2.8250
L0.3872 2.8250
" />
<path d="M3.9872 11.4750
L3.9872 2.8250
" />
<path d="M4.3512 7.5120
L5.6012 9.6770
" />
<path d="M5.6012 9.6770
L8.2339 8.1570
" />
<path d="M6.9839 5.9920
L4.3512 7.5120
" />
<path d="M8.2339 8.1570
L6.9839 5.9920
" />
<path d="M0.3872 24.0250
L0.3872 32.6750
" />
<path d="M0.3872 32.6750
L3.9872 32.6750
" />
<path d="M3.9872 24.0250
L0.3872 24.0250
" />
<path d="M3.9872 32.6750
L3.9872 24.0250
" />
<path d="M11.4290 23.0205
L12.0761 25.4353
" />
<path d="M12.0761 25.4353
L15.0125 24.6485
" />
<path d="M14.3654 22.2337
L11.4290 23.0205
" />
<path d="M15.0125 24.6485
L14.3654 22.2337
" />
<path d="M11.2621 15.6436
L13.4117 17.7932
" />
<path d="M13.0298 13.8758
L11.2621 15.6436
" />
<path d="M13.4117 17.7932
L15.1794 16.0254
" />
<path d="M15.1794 16.0254
L13.0298 13.8758
" />
<path d="M8.5066 16.3145
L8.5066 19.3545
" />
<path d="M8.5066 19.3545
L11.0066 19.3545
" />
<path d="M11.0066 16.3145
L8.5066 16.3145
" />
<path d="M11.0066 19.3545
L11.0066 16.3145
" />
<path d="M8.0427 26.8016
L11.0365 27.3295
" />
<path d="M8.4768 24.3395
L8.0427 26.8016
" />
<path d="M11.0365 27.3295
L11.4706 24.8674
" />
<path d="M11.4706 24.8674
L8.4768 24.3395
" />
<path d="M4.5173 18.9852
L5.8020 21.7404
" />
<path d="M5.8020 21.7404
L8.0678 20.6838
" />
<path d="M6.7830 17.9286
L4.5173 18.9852
" />
<path d="M8.0678 20.6838
L6.7830 17.9286
" />
<path d="M18.5481 20.9792
L20.9630 21.6262
" />
<path d="M19.3349 18.0428
L18.5481 20.9792
" />
<path d="M20.9630 21.6262
L21.7498 18.6898
" />
<path d="M21.7498 18.6898
L19.3349 18.0428
" />
<path d="M22.3630 16.3145
L22.3631 19.3545
" />
<path d="M22.3631 19.3545
L24.8630 19.3545
" />
<path d="M24.8630 16.3145
L22.3630 16.3145
" />
<path d="M24.8630 19.3545
L24.8630 16.3145
" />
<path d="M11.3649 12.4892
L14.2216 13.5290
" />
<path d="M12.2199 10.1400
L11.3649 12.4892
" />
<path d="M14.2216 13.5290
L15.0766 11.1798
" />
<path d="M15.0766 11.1798
L12.2199 10.1400
" />
<path d="M4.3339 12.0254
L6.1016 13.7932
" />
<path d="M6.1016 13.7932
L8.2512 11.6436
" />
<path d="M6.4835 9.8758
L4.3339 12.0254
" />
<path d="M8.2512 11.6436
L6.4835 9.8758
" />
<path d="M7.9649 9.0205
L8.6120 11.4353
" />
<path d="M8.6120 11.4353
L11.5484 10.6485
" />
<path d="M10.9013 8.2337
L7.9649 9.0205
" />
<path d="M11.5484 10.6485
L10.9013 8.2337
" />
<path d="M4.5981 16.8353
L6.9473 17.6904
" />
<path d="M5.6378 13.9786
L4.5981 16.8353
" />
<path d="M6.9473 17.6904
L7.9870 14.8337
" />
<path d="M7.9870 14.8337
L5.6378 13.9786
" />
<path d="M18.6540 14.5547
L19.1819 17.5485
" />
<path d="M19.1819 17.5485
L21.6439 17.1144
" />
<path d="M21.1160 14.1205
L18.6540 14.5547
" />
<path d="M21.6439 17.1144
L21.1160 14.1205
" />
<path d="M7.9814 12.9852
L9.2661 15.7404
" />
<path d="M9.2661 15.7404
L11.5319 14.6838
" />
<path d="M10.2471 11.9286
L7.9814 12.9852
" />
<path d="M11.5319 14.6838
L10.2471 11.9286
" />
<path d="M4.3247 23.8150
L6.6534 25.7691
" />
<path d="M5.9316 21.8999
L4.3247 23.8150
" />
<path d="M6.6534 25.7691
L8.2604 23.8540
" />
<path d="M8.2604 23.8540
L5.9316 21.8999
" />
<path d="M14.7891 13.3064
L16.5327 15.7966
" />
<path d="M16.5327 15.7966
L18.5806 14.3626
" />
<path d="M16.8370 11.8724
L14.7891 13.3064
" />
<path d="M18.5806 14.3626
L16.8370 11.8724
" />
<path d="M7.9008 22.4892
L10.7575 23.5290
" />
<path d="M8.7558 20.1400
L7.9008 22.4892
" />
<path d="M10.7575 23.5290
L11.6125 21.1798
" />
<path d="M11.6125 21.1798
L8.7558 20.1400
" />
<path d="M15.4348 16.3145
L15.4348 19.3545
" />
<path d="M15.4348 19.3545
L17.9348 19.3545
" />
<path d="M17.9348 16.3145
L15.4348 16.3145
" />
<path d="M17.9348 19.3545
L17.9348 16.3145
" />
<path d="M14.7170 21.8150
L17.0458 23.7691
" />
<path d="M16.3239 19.8999
L14.7170 21.8150
" />
<path d="M17.0458 23.7691
L18.6527 21.8540
" />
<path d="M18.6527 21.8540
L16.3239 19.8999
" />
<path d="M4.3867 28.3250
L7.1419 29.6098
" />
<path d="M5.4432 26.0592
L4.3867 28.3250
" />
<path d="M7.1419 29.6098
L8.1984 27.3440
" />
<path d="M8.1984 27.3440
L5.4432 26.0592
" />
<path d="M11.2529 19.8540
L12.8598 21.7691
" />
<path d="M12.8598 21.7691
L15.1886 19.8150
" />
<path d="M13.5816 17.8999
L11.2529 19.8540
" />
<path d="M15.1886 19.8150
L13.5816 17.8999
" />
</g>
<g style="fill:none; 
stroke:#000000; stroke-width:0.2000; stroke-opacity:1; 
stroke-linecap:round; stroke-linejoin:round;">
<path d="M31.0505 17.7034
L31.0698 17.7493
" />
<path d="M0.4646 35.7222
L0.4173 35.7063
" />
<path d="M31.0266 17.6596
L31.0505 17.7034
" />
<path d="M31.0845 17.7970
L31.0944 17.8458
" />
<path d="M0.5132 35.7333
L0.4646 35.7222
" />
<path d="M0.6125 0.1000
L0.6622 0.1037
" />
<path d="M30.9986 17.6185
L31.0266 17.6596
" />
<path d="M0.6125 35.7407
L0.5626 35.7395
" />
<path d="M0.1000 0.5998
L0.1025 0.5501
" />
<path d="M0.1099 35.3399
L0.1025 35.2906
" />
<path d="M0.1025 35.2906
L0.1000 35.2409
" />
<path d="M0.3719 0.1549
L0.4173 0.1344
" />
<path d="M30.9665 17.5803
L30.9986 17.6185
" />
<path d="M30.8919 17.5144
L30.9308 17.5455
" />
<path d="M31.0698 17.7493
L31.0845 17.7970
" />
<path d="M31.0994 17.9453
L31.0944 17.9949
" />
<path d="M0.1025 0.5501
L0.1099 0.5008
" />
<path d="M0.7113 0.1124
L0.7592 0.1259
" />
<path d="M31.0944 17.9949
L31.0845 18.0437
" />
<path d="M0.5132 0.1074
L0.5626 0.1012
" />
<path d="M0.8056 35.6966
L0.7592 35.7148
" />
<path d="M0.1393 35.4351
L0.1222 35.3882
" />
<path d="M0.8500 0.1668
L30.8500 17.4873
" />
<path d="M31.0994 17.8954
L31.0994 17.9453
" />
<path d="M0.8056 0.1441
L0.8500 0.1668
" />
<path d="M0.7592 35.7148
L0.7113 35.7283
" />
<path d="M0.3719 35.6858
L0.3287 35.6609
" />
<path d="M0.1869 35.5225
L0.1609 35.4800
" />
<path d="M31.0944 17.8458
L31.0994 17.8954
" />
<path d="M31.0505 18.1373
L31.0266 18.1811
" />
<path d="M30.8919 18.3263
L30.8500 18.3534
" />
<path d="M0.5626 35.7395
L0.5132 35.7333
" />
<path d="M0.6622 35.7370
L0.6125 35.7407
" />
<path d="M0.8500 35.6739
L0.8056 35.6966
" />
<path d="M30.9986 18.2223
L30.9665 18.2604
" />
<path d="M0.4173 0.1344
L0.4646 0.1185
" />
<path d="M31.0845 18.0437
L31.0698 18.0914
" />
<path d="M0.1393 0.4056
L0.1609 0.3607
" />
<path d="M0.6622 0.1037
L0.7113 0.1124
" />
<path d="M0.2170 0.2785
L0.2509 0.2419
" />
<path d="M31.0266 18.1811
L30.9986 18.2223
" />
<path d="M0.5626 0.1012
L0.6125 0.1000
" />
<path d="M0.1869 0.3182
L0.2170 0.2785
" />
<path d="M0.1222 35.3882
L0.1099 35.3399
" />
<path d="M30.8500 18.3534
L0.8500 35.6739
" />
<path d="M0.3287 35.6609
L0.2883 35.6318
" />
<path d="M0.3287 0.1798
L0.3719 0.1549
" />
<path d="M0.1000 35.2409
L0.1000 0.5998
" />
<path d="M30.9308 18.2952
L30.8919 18.3263
" />
<path d="M0.7113 35.7283
L0.6622 35.7370
" />
<path d="M0.1099 0.5008
L0.1222 0.4525
" />
<path d="M0.2509 35.5988
L0.2170 35.5623
" />
<path d="M0.2883 35.6318
L0.2509 35.5988
" />
<path d="M0.7592 0.1259
L0.8056 0.1441
" />
<path d="M31.0698 18.0914
L31.0505 18.1373
" />
<path d="M30.9308 17.5455
L30.9665 17.5803
" />
<path d="M0.2509 0.2419
L0.2883 0.2089
" />
<path d="M0.1609 35.4800
L0.1393 35.4351
" />
<path d="M30.9665 18.2604
L30.9308 18.2952
" />
<path d="M0.1609 0.3607
L0.1869 0.3182
" />
<path d="M0.2170 35.5623
L0.1869 35.5225
" />
<path d="M0.4646 0.1185
L0.5132 0.1074
" />
<path d="M0.2883 0.2089
L0.3287 0.1798
" />
<path d="M30.8500 17.4873
L30.8919 17.5144
" />
<path d="M0.4173 35.7063
L0.3719 35.6858
" />
<path d="M0.1222 0.4525
L0.1393 0.4056
" />
</g> 
</svg>
