<?xml version="1.0" encoding="utf-8" standalone="no"?>
<!DOCTYPE svg PUBLIC "-//W3C//DTD SVG 1.1//EN"
  "http://www.w3.org/Graphics/SVG/1.1/DTD/svg11.dtd">
<svg xmlns:xlink="http://www.w3.org/1999/xlink" width="460.8pt" height="345.6pt" viewBox="0 0 460.8 345.6" xmlns="http://www.w3.org/2000/svg" version="1.1">
 <metadata>
  <rdf:RDF xmlns:dc="http://purl.org/dc/elements/1.1/" xmlns:cc="http://creativecommons.org/ns#" xmlns:rdf="http://www.w3.org/1999/02/22-rdf-syntax-ns#">
   <cc:Work>
    <dc:type rdf:resource="http://purl.org/dc/dcmitype/StillImage"/>
    <dc:date>2024-04-29T00:46:52.240591</dc:date>
    <dc:format>image/svg+xml</dc:format>
    <dc:creator>
     <cc:Agent>
      <dc:title>Matplotlib v3.8.2, https://matplotlib.org/</dc:title>
     </cc:Agent>
    </dc:creator>
   </cc:Work>
  </rdf:RDF>
 </metadata>
 <defs>
  <style type="text/css">*{stroke-linejoin: round; stroke-linecap: butt}</style>
 </defs>
 <g id="figure_1">
  <g id="patch_1">
   <path d="M 0 345.6 
L 460.8 345.6 
L 460.8 0 
L 0 0 
z
" style="fill: #ffffff"/>
  </g>
  <g id="axes_1">
   <g id="patch_2">
    <path d="M 114.40531 307.584 
L 357.91469 307.584 
L 357.91469 41.472 
L 114.40531 41.472 
z
" style="fill: #ffffff"/>
   </g>
   <g id="patch_3">
    <path d="M 164.324733 260.990977 
L 164.108708 261.101726 
L 163.882731 261.190416 
L 163.649045 261.256165 
L 163.409974 261.298319 
L 163.167894 261.316461 
L 162.925211 261.310409 
L 162.684336 261.280223 
L 162.447664 261.226204 
L 162.217546 261.148889 
L 161.99627 261.049045 
L 161.786035 260.927666 
L 161.58893 260.785957 
L 161.406914 260.625327 
L 161.241796 260.447372 
L 161.095217 260.253861 
L 160.968634 260.046717 
L 160.863305 259.827999 
L 160.780276 259.59988 
L 160.720374 259.364628 
L 160.684193 259.124581 
L 160.672092 258.882124 
L 160.672092 90.173876 
L 160.684193 89.931419 
L 160.720374 89.691372 
L 160.780276 89.45612 
L 160.863305 89.228001 
L 160.968634 89.009283 
L 161.095217 88.802139 
L 161.241796 88.608628 
L 161.406914 88.430673 
L 161.58893 88.270043 
L 161.786035 88.128334 
L 161.99627 88.006955 
L 162.217546 87.907111 
L 162.447664 87.829796 
L 162.684336 87.775777 
L 162.925211 87.745591 
L 163.167894 87.739539 
L 163.409974 87.757681 
L 163.649045 87.799835 
L 163.882731 87.865584 
L 164.108708 87.954274 
L 164.324733 88.065023 
L 310.430361 172.419147 
L 310.634285 172.550855 
L 310.824081 172.702212 
L 310.997864 172.871716 
L 311.153907 173.05768 
L 311.290658 173.258256 
L 311.406758 173.471452 
L 311.501054 173.695149 
L 311.572608 173.927123 
L 311.62071 174.165068 
L 311.644881 174.406621 
L 311.644881 174.649379 
L 311.62071 174.890932 
L 311.572608 175.128877 
L 311.501054 175.360851 
L 311.406758 175.584548 
L 311.290658 175.797744 
L 311.153907 175.99832 
L 310.997864 176.184284 
L 310.824081 176.353788 
L 310.634285 176.505145 
L 310.430361 176.636853 
z
" clip-path="url(#pd3cd7394cc)" style="fill: #add8e6; opacity: 0.5; stroke: #0000ff; stroke-linejoin: miter"/>
   </g>
   <g id="patch_4">
    <path d="M 294.884965 174.528 
L 294.825399 175.740499 
L 294.647274 176.941321 
L 294.352305 178.118902 
L 293.943334 179.2619 
L 293.424298 180.359308 
L 292.800198 181.400557 
L 292.077042 182.37562 
L 291.261795 183.275106 
L 290.362309 184.090353 
L 289.387246 184.813509 
L 288.345997 185.43761 
L 287.248588 185.956645 
L 286.10559 186.365617 
L 284.92801 186.660585 
L 283.727188 186.83871 
L 282.514689 186.898277 
L 281.302189 186.83871 
L 280.101367 186.660585 
L 278.923787 186.365617 
L 277.780789 185.956645 
L 276.683381 185.43761 
L 275.642131 184.813509 
L 274.667068 184.090353 
L 273.767582 183.275106 
L 272.952335 182.37562 
L 272.22918 181.400557 
L 271.605079 180.359308 
L 271.086043 179.2619 
L 270.677072 178.118902 
L 270.382103 176.941321 
L 270.203978 175.740499 
L 270.144412 174.528 
L 270.203978 173.315501 
L 270.382103 172.114679 
L 270.677072 170.937098 
L 271.086043 169.7941 
L 271.605079 168.696692 
L 272.22918 167.655443 
L 272.952335 166.68038 
L 273.767582 165.780894 
L 274.667068 164.965647 
L 275.642131 164.242491 
L 276.683381 163.61839 
L 277.780789 163.099355 
L 278.923787 162.690383 
L 280.101367 162.395415 
L 281.302189 162.21729 
L 282.514689 162.157723 
L 283.727188 162.21729 
L 284.92801 162.395415 
L 286.10559 162.690383 
L 287.248588 163.099355 
L 288.345997 163.61839 
L 289.387246 164.242491 
L 290.362309 164.965647 
L 291.261795 165.780894 
L 292.077042 166.68038 
L 292.800198 167.655443 
L 293.424298 168.696692 
L 293.943334 169.7941 
L 294.352305 170.937098 
L 294.647274 172.114679 
L 294.825399 173.315501 
z
" clip-path="url(#pd3cd7394cc)" style="fill: #ff0000; opacity: 0.5; stroke: #000000; stroke-linejoin: miter"/>
   </g>
   <g id="patch_5">
    <path d="M 273.459018 186.898277 
L 273.399451 188.110776 
L 273.221326 189.311598 
L 272.926358 190.489178 
L 272.517386 191.632176 
L 271.998351 192.729585 
L 271.37425 193.770834 
L 270.651094 194.745897 
L 269.835848 195.645383 
L 268.936361 196.46063 
L 267.961299 197.183786 
L 266.920049 197.807886 
L 265.822641 198.326922 
L 264.679643 198.735893 
L 263.502062 199.030862 
L 262.30124 199.208987 
L 261.088741 199.268553 
L 259.876242 199.208987 
L 258.67542 199.030862 
L 257.497839 198.735893 
L 256.354841 198.326922 
L 255.257433 197.807886 
L 254.216184 197.183786 
L 253.241121 196.46063 
L 252.341635 195.645383 
L 251.526388 194.745897 
L 250.803232 193.770834 
L 250.179131 192.729585 
L 249.660096 191.632176 
L 249.251125 190.489178 
L 248.956156 189.311598 
L 248.778031 188.110776 
L 248.718465 186.898277 
L 248.778031 185.685777 
L 248.956156 184.484955 
L 249.251125 183.307375 
L 249.660096 182.164377 
L 250.179131 181.066969 
L 250.803232 180.025719 
L 251.526388 179.050656 
L 252.341635 178.15117 
L 253.241121 177.335923 
L 254.216184 176.612768 
L 255.257433 175.988667 
L 256.354841 175.469631 
L 257.497839 175.06066 
L 258.67542 174.765691 
L 259.876242 174.587566 
L 261.088741 174.528 
L 262.30124 174.587566 
L 263.502062 174.765691 
L 264.679643 175.06066 
L 265.822641 175.469631 
L 266.920049 175.988667 
L 267.961299 176.612768 
L 268.936361 177.335923 
L 269.835848 178.15117 
L 270.651094 179.050656 
L 271.37425 180.025719 
L 271.998351 181.066969 
L 272.517386 182.164377 
L 272.926358 183.307375 
L 273.221326 184.484955 
L 273.399451 185.685777 
z
" clip-path="url(#pd3cd7394cc)" style="fill: #ff0000; opacity: 0.5; stroke: #000000; stroke-linejoin: miter"/>
   </g>
   <g id="patch_6">
    <path d="M 273.459018 162.157723 
L 273.399451 163.370223 
L 273.221326 164.571045 
L 272.926358 165.748625 
L 272.517386 166.891623 
L 271.998351 167.989031 
L 271.37425 169.030281 
L 270.651094 170.005344 
L 269.835848 170.90483 
L 268.936361 171.720077 
L 267.961299 172.443232 
L 266.920049 173.067333 
L 265.822641 173.586369 
L 264.679643 173.99534 
L 263.502062 174.290309 
L 262.30124 174.468434 
L 261.088741 174.528 
L 259.876242 174.468434 
L 258.67542 174.290309 
L 257.497839 173.99534 
L 256.354841 173.586369 
L 255.257433 173.067333 
L 254.216184 172.443232 
L 253.241121 171.720077 
L 252.341635 170.90483 
L 251.526388 170.005344 
L 250.803232 169.030281 
L 250.179131 167.989031 
L 249.660096 166.891623 
L 249.251125 165.748625 
L 248.956156 164.571045 
L 248.778031 163.370223 
L 248.718465 162.157723 
L 248.778031 160.945224 
L 248.956156 159.744402 
L 249.251125 158.566822 
L 249.660096 157.423824 
L 250.179131 156.326415 
L 250.803232 155.285166 
L 251.526388 154.310103 
L 252.341635 153.410617 
L 253.241121 152.59537 
L 254.216184 151.872214 
L 255.257433 151.248114 
L 256.354841 150.729078 
L 257.497839 150.320107 
L 258.67542 150.025138 
L 259.876242 149.847013 
L 261.088741 149.787447 
L 262.30124 149.847013 
L 263.502062 150.025138 
L 264.679643 150.320107 
L 265.822641 150.729078 
L 266.920049 151.248114 
L 267.961299 151.872214 
L 268.936361 152.59537 
L 269.835848 153.410617 
L 270.651094 154.310103 
L 271.37425 155.285166 
L 271.998351 156.326415 
L 272.517386 157.423824 
L 272.926358 158.566822 
L 273.221326 159.744402 
L 273.399451 160.945224 
z
" clip-path="url(#pd3cd7394cc)" style="fill: #ff0000; opacity: 0.5; stroke: #000000; stroke-linejoin: miter"/>
   </g>
   <g id="patch_7">
    <path d="M 252.03307 149.787447 
L 251.973504 150.999946 
L 251.795379 152.200768 
L 251.50041 153.378349 
L 251.091439 154.521347 
L 250.572404 155.618755 
L 249.948303 156.660004 
L 249.225147 157.635067 
L 248.4099 158.534553 
L 247.510414 159.3498 
L 246.535351 160.072956 
L 245.494102 160.697057 
L 244.396694 161.216092 
L 243.253695 161.625064 
L 242.076115 161.920032 
L 240.875293 162.098157 
L 239.662794 162.157723 
L 238.450295 162.098157 
L 237.249472 161.920032 
L 236.071892 161.625064 
L 234.928894 161.216092 
L 233.831486 160.697057 
L 232.790236 160.072956 
L 231.815173 159.3498 
L 230.915687 158.534553 
L 230.100441 157.635067 
L 229.377285 156.660004 
L 228.753184 155.618755 
L 228.234148 154.521347 
L 227.825177 153.378349 
L 227.530208 152.200768 
L 227.352083 150.999946 
L 227.292517 149.787447 
L 227.352083 148.574948 
L 227.530208 147.374126 
L 227.825177 146.196545 
L 228.234148 145.053547 
L 228.753184 143.956139 
L 229.377285 142.91489 
L 230.100441 141.939827 
L 230.915687 141.040341 
L 231.815173 140.225094 
L 232.790236 139.501938 
L 233.831486 138.877837 
L 234.928894 138.358802 
L 236.071892 137.94983 
L 237.249472 137.654862 
L 238.450295 137.476737 
L 239.662794 137.41717 
L 240.875293 137.476737 
L 242.076115 137.654862 
L 243.253695 137.94983 
L 244.396694 138.358802 
L 245.494102 138.877837 
L 246.535351 139.501938 
L 247.510414 140.225094 
L 248.4099 141.040341 
L 249.225147 141.939827 
L 249.948303 142.91489 
L 250.572404 143.956139 
L 251.091439 145.053547 
L 251.50041 146.196545 
L 251.795379 147.374126 
L 251.973504 148.574948 
z
" clip-path="url(#pd3cd7394cc)" style="fill: #ff0000; opacity: 0.5; stroke: #000000; stroke-linejoin: miter"/>
   </g>
   <g id="patch_8">
    <path d="M 252.03307 174.528 
L 251.973504 175.740499 
L 251.795379 176.941321 
L 251.50041 178.118902 
L 251.091439 179.2619 
L 250.572404 180.359308 
L 249.948303 181.400557 
L 249.225147 182.37562 
L 248.4099 183.275106 
L 247.510414 184.090353 
L 246.535351 184.813509 
L 245.494102 185.43761 
L 244.396694 185.956645 
L 243.253695 186.365617 
L 242.076115 186.660585 
L 240.875293 186.83871 
L 239.662794 186.898277 
L 238.450295 186.83871 
L 237.249472 186.660585 
L 236.071892 186.365617 
L 234.928894 185.956645 
L 233.831486 185.43761 
L 232.790236 184.813509 
L 231.815173 184.090353 
L 230.915687 183.275106 
L 230.100441 182.37562 
L 229.377285 181.400557 
L 228.753184 180.359308 
L 228.234148 179.2619 
L 227.825177 178.118902 
L 227.530208 176.941321 
L 227.352083 175.740499 
L 227.292517 174.528 
L 227.352083 173.315501 
L 227.530208 172.114679 
L 227.825177 170.937098 
L 228.234148 169.7941 
L 228.753184 168.696692 
L 229.377285 167.655443 
L 230.100441 166.68038 
L 230.915687 165.780894 
L 231.815173 164.965647 
L 232.790236 164.242491 
L 233.831486 163.61839 
L 234.928894 163.099355 
L 236.071892 162.690383 
L 237.249472 162.395415 
L 238.450295 162.21729 
L 239.662794 162.157723 
L 240.875293 162.21729 
L 242.076115 162.395415 
L 243.253695 162.690383 
L 244.396694 163.099355 
L 245.494102 163.61839 
L 246.535351 164.242491 
L 247.510414 164.965647 
L 248.4099 165.780894 
L 249.225147 166.68038 
L 249.948303 167.655443 
L 250.572404 168.696692 
L 251.091439 169.7941 
L 251.50041 170.937098 
L 251.795379 172.114679 
L 251.973504 173.315501 
z
" clip-path="url(#pd3cd7394cc)" style="fill: #ff0000; opacity: 0.5; stroke: #000000; stroke-linejoin: miter"/>
   </g>
   <g id="patch_9">
    <path d="M 252.03307 199.268553 
L 251.973504 200.481052 
L 251.795379 201.681874 
L 251.50041 202.859455 
L 251.091439 204.002453 
L 250.572404 205.099861 
L 249.948303 206.14111 
L 249.225147 207.116173 
L 248.4099 208.015659 
L 247.510414 208.830906 
L 246.535351 209.554062 
L 245.494102 210.178163 
L 244.396694 210.697198 
L 243.253695 211.10617 
L 242.076115 211.401138 
L 240.875293 211.579263 
L 239.662794 211.63883 
L 238.450295 211.579263 
L 237.249472 211.401138 
L 236.071892 211.10617 
L 234.928894 210.697198 
L 233.831486 210.178163 
L 232.790236 209.554062 
L 231.815173 208.830906 
L 230.915687 208.015659 
L 230.100441 207.116173 
L 229.377285 206.14111 
L 228.753184 205.099861 
L 228.234148 204.002453 
L 227.825177 202.859455 
L 227.530208 201.681874 
L 227.352083 200.481052 
L 227.292517 199.268553 
L 227.352083 198.056054 
L 227.530208 196.855232 
L 227.825177 195.677651 
L 228.234148 194.534653 
L 228.753184 193.437245 
L 229.377285 192.395996 
L 230.100441 191.420933 
L 230.915687 190.521447 
L 231.815173 189.7062 
L 232.790236 188.983044 
L 233.831486 188.358943 
L 234.928894 187.839908 
L 236.071892 187.430936 
L 237.249472 187.135968 
L 238.450295 186.957843 
L 239.662794 186.898277 
L 240.875293 186.957843 
L 242.076115 187.135968 
L 243.253695 187.430936 
L 244.396694 187.839908 
L 245.494102 188.358943 
L 246.535351 188.983044 
L 247.510414 189.7062 
L 248.4099 190.521447 
L 249.225147 191.420933 
L 249.948303 192.395996 
L 250.572404 193.437245 
L 251.091439 194.534653 
L 251.50041 195.677651 
L 251.795379 196.855232 
L 251.973504 198.056054 
z
" clip-path="url(#pd3cd7394cc)" style="fill: #ff0000; opacity: 0.5; stroke: #000000; stroke-linejoin: miter"/>
   </g>
   <g id="patch_10">
    <path d="M 230.607123 211.63883 
L 230.547556 212.851329 
L 230.369431 214.052151 
L 230.074463 215.229731 
L 229.665491 216.372729 
L 229.146456 217.470138 
L 228.522355 218.511387 
L 227.799199 219.48645 
L 226.983953 220.385936 
L 226.084467 221.201183 
L 225.109404 221.924339 
L 224.068154 222.54844 
L 222.970746 223.067475 
L 221.827748 223.476446 
L 220.650167 223.771415 
L 219.449345 223.94954 
L 218.236846 224.009106 
L 217.024347 223.94954 
L 215.823525 223.771415 
L 214.645944 223.476446 
L 213.502946 223.067475 
L 212.405538 222.54844 
L 211.364289 221.924339 
L 210.389226 221.201183 
L 209.48974 220.385936 
L 208.674493 219.48645 
L 207.951337 218.511387 
L 207.327236 217.470138 
L 206.808201 216.372729 
L 206.39923 215.229731 
L 206.104261 214.052151 
L 205.926136 212.851329 
L 205.86657 211.63883 
L 205.926136 210.42633 
L 206.104261 209.225508 
L 206.39923 208.047928 
L 206.808201 206.90493 
L 207.327236 205.807522 
L 207.951337 204.766272 
L 208.674493 203.791209 
L 209.48974 202.891723 
L 210.389226 202.076477 
L 211.364289 201.353321 
L 212.405538 200.72922 
L 213.502946 200.210184 
L 214.645944 199.801213 
L 215.823525 199.506244 
L 217.024347 199.328119 
L 218.236846 199.268553 
L 219.449345 199.328119 
L 220.650167 199.506244 
L 221.827748 199.801213 
L 222.970746 200.210184 
L 224.068154 200.72922 
L 225.109404 201.353321 
L 226.084467 202.076477 
L 226.983953 202.891723 
L 227.799199 203.791209 
L 228.522355 204.766272 
L 229.146456 205.807522 
L 229.665491 206.90493 
L 230.074463 208.047928 
L 230.369431 209.225508 
L 230.547556 210.42633 
z
" clip-path="url(#pd3cd7394cc)" style="fill: #ff0000; opacity: 0.5; stroke: #000000; stroke-linejoin: miter"/>
   </g>
   <g id="patch_11">
    <path d="M 230.607123 186.898277 
L 230.547556 188.110776 
L 230.369431 189.311598 
L 230.074463 190.489178 
L 229.665491 191.632176 
L 229.146456 192.729585 
L 228.522355 193.770834 
L 227.799199 194.745897 
L 226.983953 195.645383 
L 226.084467 196.46063 
L 225.109404 197.183786 
L 224.068154 197.807886 
L 222.970746 198.326922 
L 221.827748 198.735893 
L 220.650167 199.030862 
L 219.449345 199.208987 
L 218.236846 199.268553 
L 217.024347 199.208987 
L 215.823525 199.030862 
L 214.645944 198.735893 
L 213.502946 198.326922 
L 212.405538 197.807886 
L 211.364289 197.183786 
L 210.389226 196.46063 
L 209.48974 195.645383 
L 208.674493 194.745897 
L 207.951337 193.770834 
L 207.327236 192.729585 
L 206.808201 191.632176 
L 206.39923 190.489178 
L 206.104261 189.311598 
L 205.926136 188.110776 
L 205.86657 186.898277 
L 205.926136 185.685777 
L 206.104261 184.484955 
L 206.39923 183.307375 
L 206.808201 182.164377 
L 207.327236 181.066969 
L 207.951337 180.025719 
L 208.674493 179.050656 
L 209.48974 178.15117 
L 210.389226 177.335923 
L 211.364289 176.612768 
L 212.405538 175.988667 
L 213.502946 175.469631 
L 214.645944 175.06066 
L 215.823525 174.765691 
L 217.024347 174.587566 
L 218.236846 174.528 
L 219.449345 174.587566 
L 220.650167 174.765691 
L 221.827748 175.06066 
L 222.970746 175.469631 
L 224.068154 175.988667 
L 225.109404 176.612768 
L 226.084467 177.335923 
L 226.983953 178.15117 
L 227.799199 179.050656 
L 228.522355 180.025719 
L 229.146456 181.066969 
L 229.665491 182.164377 
L 230.074463 183.307375 
L 230.369431 184.484955 
L 230.547556 185.685777 
z
" clip-path="url(#pd3cd7394cc)" style="fill: #ff0000; opacity: 0.5; stroke: #000000; stroke-linejoin: miter"/>
   </g>
   <g id="patch_12">
    <path d="M 230.607123 162.157723 
L 230.547556 163.370223 
L 230.369431 164.571045 
L 230.074463 165.748625 
L 229.665491 166.891623 
L 229.146456 167.989031 
L 228.522355 169.030281 
L 227.799199 170.005344 
L 226.983953 170.90483 
L 226.084467 171.720077 
L 225.109404 172.443232 
L 224.068154 173.067333 
L 222.970746 173.586369 
L 221.827748 173.99534 
L 220.650167 174.290309 
L 219.449345 174.468434 
L 218.236846 174.528 
L 217.024347 174.468434 
L 215.823525 174.290309 
L 214.645944 173.99534 
L 213.502946 173.586369 
L 212.405538 173.067333 
L 211.364289 172.443232 
L 210.389226 171.720077 
L 209.48974 170.90483 
L 208.674493 170.005344 
L 207.951337 169.030281 
L 207.327236 167.989031 
L 206.808201 166.891623 
L 206.39923 165.748625 
L 206.104261 164.571045 
L 205.926136 163.370223 
L 205.86657 162.157723 
L 205.926136 160.945224 
L 206.104261 159.744402 
L 206.39923 158.566822 
L 206.808201 157.423824 
L 207.327236 156.326415 
L 207.951337 155.285166 
L 208.674493 154.310103 
L 209.48974 153.410617 
L 210.389226 152.59537 
L 211.364289 151.872214 
L 212.405538 151.248114 
L 213.502946 150.729078 
L 214.645944 150.320107 
L 215.823525 150.025138 
L 217.024347 149.847013 
L 218.236846 149.787447 
L 219.449345 149.847013 
L 220.650167 150.025138 
L 221.827748 150.320107 
L 222.970746 150.729078 
L 224.068154 151.248114 
L 225.109404 151.872214 
L 226.084467 152.59537 
L 226.983953 153.410617 
L 227.799199 154.310103 
L 228.522355 155.285166 
L 229.146456 156.326415 
L 229.665491 157.423824 
L 230.074463 158.566822 
L 230.369431 159.744402 
L 230.547556 160.945224 
z
" clip-path="url(#pd3cd7394cc)" style="fill: #ff0000; opacity: 0.5; stroke: #000000; stroke-linejoin: miter"/>
   </g>
   <g id="patch_13">
    <path d="M 230.607123 137.41717 
L 230.547556 138.62967 
L 230.369431 139.830492 
L 230.074463 141.008072 
L 229.665491 142.15107 
L 229.146456 143.248478 
L 228.522355 144.289728 
L 227.799199 145.264791 
L 226.983953 146.164277 
L 226.084467 146.979523 
L 225.109404 147.702679 
L 224.068154 148.32678 
L 222.970746 148.845816 
L 221.827748 149.254787 
L 220.650167 149.549756 
L 219.449345 149.727881 
L 218.236846 149.787447 
L 217.024347 149.727881 
L 215.823525 149.549756 
L 214.645944 149.254787 
L 213.502946 148.845816 
L 212.405538 148.32678 
L 211.364289 147.702679 
L 210.389226 146.979523 
L 209.48974 146.164277 
L 208.674493 145.264791 
L 207.951337 144.289728 
L 207.327236 143.248478 
L 206.808201 142.15107 
L 206.39923 141.008072 
L 206.104261 139.830492 
L 205.926136 138.62967 
L 205.86657 137.41717 
L 205.926136 136.204671 
L 206.104261 135.003849 
L 206.39923 133.826269 
L 206.808201 132.683271 
L 207.327236 131.585862 
L 207.951337 130.544613 
L 208.674493 129.56955 
L 209.48974 128.670064 
L 210.389226 127.854817 
L 211.364289 127.131661 
L 212.405538 126.50756 
L 213.502946 125.988525 
L 214.645944 125.579554 
L 215.823525 125.284585 
L 217.024347 125.10646 
L 218.236846 125.046894 
L 219.449345 125.10646 
L 220.650167 125.284585 
L 221.827748 125.579554 
L 222.970746 125.988525 
L 224.068154 126.50756 
L 225.109404 127.131661 
L 226.084467 127.854817 
L 226.983953 128.670064 
L 227.799199 129.56955 
L 228.522355 130.544613 
L 229.146456 131.585862 
L 229.665491 132.683271 
L 230.074463 133.826269 
L 230.369431 135.003849 
L 230.547556 136.204671 
z
" clip-path="url(#pd3cd7394cc)" style="fill: #ff0000; opacity: 0.5; stroke: #000000; stroke-linejoin: miter"/>
   </g>
   <g id="patch_14">
    <path d="M 209.181175 125.046894 
L 209.121609 126.259393 
L 208.943484 127.460215 
L 208.648515 128.637796 
L 208.239544 129.780794 
L 207.720509 130.878202 
L 207.096408 131.919451 
L 206.373252 132.894514 
L 205.558005 133.794 
L 204.658519 134.609247 
L 203.683456 135.332403 
L 202.642207 135.956504 
L 201.544799 136.475539 
L 200.4018 136.88451 
L 199.22422 137.179479 
L 198.023398 137.357604 
L 196.810899 137.41717 
L 195.5984 137.357604 
L 194.397577 137.179479 
L 193.219997 136.88451 
L 192.076999 136.475539 
L 190.979591 135.956504 
L 189.938341 135.332403 
L 188.963278 134.609247 
L 188.063792 133.794 
L 187.248546 132.894514 
L 186.52539 131.919451 
L 185.901289 130.878202 
L 185.382253 129.780794 
L 184.973282 128.637796 
L 184.678314 127.460215 
L 184.500188 126.259393 
L 184.440622 125.046894 
L 184.500188 123.834395 
L 184.678314 122.633573 
L 184.973282 121.455992 
L 185.382253 120.312994 
L 185.901289 119.215586 
L 186.52539 118.174336 
L 187.248546 117.199273 
L 188.063792 116.299787 
L 188.963278 115.484541 
L 189.938341 114.761385 
L 190.979591 114.137284 
L 192.076999 113.618249 
L 193.219997 113.209277 
L 194.397577 112.914309 
L 195.5984 112.736184 
L 196.810899 112.676617 
L 198.023398 112.736184 
L 199.22422 112.914309 
L 200.4018 113.209277 
L 201.544799 113.618249 
L 202.642207 114.137284 
L 203.683456 114.761385 
L 204.658519 115.484541 
L 205.558005 116.299787 
L 206.373252 117.199273 
L 207.096408 118.174336 
L 207.720509 119.215586 
L 208.239544 120.312994 
L 208.648515 121.455992 
L 208.943484 122.633573 
L 209.121609 123.834395 
z
" clip-path="url(#pd3cd7394cc)" style="fill: #ff0000; opacity: 0.5; stroke: #000000; stroke-linejoin: miter"/>
   </g>
   <g id="patch_15">
    <path d="M 209.181175 149.787447 
L 209.121609 150.999946 
L 208.943484 152.200768 
L 208.648515 153.378349 
L 208.239544 154.521347 
L 207.720509 155.618755 
L 207.096408 156.660004 
L 206.373252 157.635067 
L 205.558005 158.534553 
L 204.658519 159.3498 
L 203.683456 160.072956 
L 202.642207 160.697057 
L 201.544799 161.216092 
L 200.4018 161.625064 
L 199.22422 161.920032 
L 198.023398 162.098157 
L 196.810899 162.157723 
L 195.5984 162.098157 
L 194.397577 161.920032 
L 193.219997 161.625064 
L 192.076999 161.216092 
L 190.979591 160.697057 
L 189.938341 160.072956 
L 188.963278 159.3498 
L 188.063792 158.534553 
L 187.248546 157.635067 
L 186.52539 156.660004 
L 185.901289 155.618755 
L 185.382253 154.521347 
L 184.973282 153.378349 
L 184.678314 152.200768 
L 184.500188 150.999946 
L 184.440622 149.787447 
L 184.500188 148.574948 
L 184.678314 147.374126 
L 184.973282 146.196545 
L 185.382253 145.053547 
L 185.901289 143.956139 
L 186.52539 142.91489 
L 187.248546 141.939827 
L 188.063792 141.040341 
L 188.963278 140.225094 
L 189.938341 139.501938 
L 190.979591 138.877837 
L 192.076999 138.358802 
L 193.219997 137.94983 
L 194.397577 137.654862 
L 195.5984 137.476737 
L 196.810899 137.41717 
L 198.023398 137.476737 
L 199.22422 137.654862 
L 200.4018 137.94983 
L 201.544799 138.358802 
L 202.642207 138.877837 
L 203.683456 139.501938 
L 204.658519 140.225094 
L 205.558005 141.040341 
L 206.373252 141.939827 
L 207.096408 142.91489 
L 207.720509 143.956139 
L 208.239544 145.053547 
L 208.648515 146.196545 
L 208.943484 147.374126 
L 209.121609 148.574948 
z
" clip-path="url(#pd3cd7394cc)" style="fill: #ff0000; opacity: 0.5; stroke: #000000; stroke-linejoin: miter"/>
   </g>
   <g id="patch_16">
    <path d="M 209.181175 174.528 
L 209.121609 175.740499 
L 208.943484 176.941321 
L 208.648515 178.118902 
L 208.239544 179.2619 
L 207.720509 180.359308 
L 207.096408 181.400557 
L 206.373252 182.37562 
L 205.558005 183.275106 
L 204.658519 184.090353 
L 203.683456 184.813509 
L 202.642207 185.43761 
L 201.544799 185.956645 
L 200.4018 186.365617 
L 199.22422 186.660585 
L 198.023398 186.83871 
L 196.810899 186.898277 
L 195.5984 186.83871 
L 194.397577 186.660585 
L 193.219997 186.365617 
L 192.076999 185.956645 
L 190.979591 185.43761 
L 189.938341 184.813509 
L 188.963278 184.090353 
L 188.063792 183.275106 
L 187.248546 182.37562 
L 186.52539 181.400557 
L 185.901289 180.359308 
L 185.382253 179.2619 
L 184.973282 178.118902 
L 184.678314 176.941321 
L 184.500188 175.740499 
L 184.440622 174.528 
L 184.500188 173.315501 
L 184.678314 172.114679 
L 184.973282 170.937098 
L 185.382253 169.7941 
L 185.901289 168.696692 
L 186.52539 167.655443 
L 187.248546 166.68038 
L 188.063792 165.780894 
L 188.963278 164.965647 
L 189.938341 164.242491 
L 190.979591 163.61839 
L 192.076999 163.099355 
L 193.219997 162.690383 
L 194.397577 162.395415 
L 195.5984 162.21729 
L 196.810899 162.157723 
L 198.023398 162.21729 
L 199.22422 162.395415 
L 200.4018 162.690383 
L 201.544799 163.099355 
L 202.642207 163.61839 
L 203.683456 164.242491 
L 204.658519 164.965647 
L 205.558005 165.780894 
L 206.373252 166.68038 
L 207.096408 167.655443 
L 207.720509 168.696692 
L 208.239544 169.7941 
L 208.648515 170.937098 
L 208.943484 172.114679 
L 209.121609 173.315501 
z
" clip-path="url(#pd3cd7394cc)" style="fill: #ff0000; opacity: 0.5; stroke: #000000; stroke-linejoin: miter"/>
   </g>
   <g id="patch_17">
    <path d="M 209.181175 199.268553 
L 209.121609 200.481052 
L 208.943484 201.681874 
L 208.648515 202.859455 
L 208.239544 204.002453 
L 207.720509 205.099861 
L 207.096408 206.14111 
L 206.373252 207.116173 
L 205.558005 208.015659 
L 204.658519 208.830906 
L 203.683456 209.554062 
L 202.642207 210.178163 
L 201.544799 210.697198 
L 200.4018 211.10617 
L 199.22422 211.401138 
L 198.023398 211.579263 
L 196.810899 211.63883 
L 195.5984 211.579263 
L 194.397577 211.401138 
L 193.219997 211.10617 
L 192.076999 210.697198 
L 190.979591 210.178163 
L 189.938341 209.554062 
L 188.963278 208.830906 
L 188.063792 208.015659 
L 187.248546 207.116173 
L 186.52539 206.14111 
L 185.901289 205.099861 
L 185.382253 204.002453 
L 184.973282 202.859455 
L 184.678314 201.681874 
L 184.500188 200.481052 
L 184.440622 199.268553 
L 184.500188 198.056054 
L 184.678314 196.855232 
L 184.973282 195.677651 
L 185.382253 194.534653 
L 185.901289 193.437245 
L 186.52539 192.395996 
L 187.248546 191.420933 
L 188.063792 190.521447 
L 188.963278 189.7062 
L 189.938341 188.983044 
L 190.979591 188.358943 
L 192.076999 187.839908 
L 193.219997 187.430936 
L 194.397577 187.135968 
L 195.5984 186.957843 
L 196.810899 186.898277 
L 198.023398 186.957843 
L 199.22422 187.135968 
L 200.4018 187.430936 
L 201.544799 187.839908 
L 202.642207 188.358943 
L 203.683456 188.983044 
L 204.658519 189.7062 
L 205.558005 190.521447 
L 206.373252 191.420933 
L 207.096408 192.395996 
L 207.720509 193.437245 
L 208.239544 194.534653 
L 208.648515 195.677651 
L 208.943484 196.855232 
L 209.121609 198.056054 
z
" clip-path="url(#pd3cd7394cc)" style="fill: #ff0000; opacity: 0.5; stroke: #000000; stroke-linejoin: miter"/>
   </g>
   <g id="patch_18">
    <path d="M 209.181175 224.009106 
L 209.121609 225.221605 
L 208.943484 226.422427 
L 208.648515 227.600008 
L 208.239544 228.743006 
L 207.720509 229.840414 
L 207.096408 230.881664 
L 206.373252 231.856727 
L 205.558005 232.756213 
L 204.658519 233.571459 
L 203.683456 234.294615 
L 202.642207 234.918716 
L 201.544799 235.437751 
L 200.4018 235.846723 
L 199.22422 236.141691 
L 198.023398 236.319816 
L 196.810899 236.379383 
L 195.5984 236.319816 
L 194.397577 236.141691 
L 193.219997 235.846723 
L 192.076999 235.437751 
L 190.979591 234.918716 
L 189.938341 234.294615 
L 188.963278 233.571459 
L 188.063792 232.756213 
L 187.248546 231.856727 
L 186.52539 230.881664 
L 185.901289 229.840414 
L 185.382253 228.743006 
L 184.973282 227.600008 
L 184.678314 226.422427 
L 184.500188 225.221605 
L 184.440622 224.009106 
L 184.500188 222.796607 
L 184.678314 221.595785 
L 184.973282 220.418204 
L 185.382253 219.275206 
L 185.901289 218.177798 
L 186.52539 217.136549 
L 187.248546 216.161486 
L 188.063792 215.262 
L 188.963278 214.446753 
L 189.938341 213.723597 
L 190.979591 213.099496 
L 192.076999 212.580461 
L 193.219997 212.17149 
L 194.397577 211.876521 
L 195.5984 211.698396 
L 196.810899 211.63883 
L 198.023398 211.698396 
L 199.22422 211.876521 
L 200.4018 212.17149 
L 201.544799 212.580461 
L 202.642207 213.099496 
L 203.683456 213.723597 
L 204.658519 214.446753 
L 205.558005 215.262 
L 206.373252 216.161486 
L 207.096408 217.136549 
L 207.720509 218.177798 
L 208.239544 219.275206 
L 208.648515 220.418204 
L 208.943484 221.595785 
L 209.121609 222.796607 
z
" clip-path="url(#pd3cd7394cc)" style="fill: #ff0000; opacity: 0.5; stroke: #000000; stroke-linejoin: miter"/>
   </g>
   <g id="patch_19">
    <path d="M 187.755228 236.379383 
L 187.695662 237.591882 
L 187.517536 238.792704 
L 187.222568 239.970284 
L 186.813597 241.113283 
L 186.294561 242.210691 
L 185.67046 243.25194 
L 184.947304 244.227003 
L 184.132058 245.126489 
L 183.232572 245.941736 
L 182.257509 246.664892 
L 181.216259 247.288993 
L 180.118851 247.808028 
L 178.975853 248.216999 
L 177.798272 248.511968 
L 176.59745 248.690093 
L 175.384951 248.749659 
L 174.172452 248.690093 
L 172.97163 248.511968 
L 171.79405 248.216999 
L 170.651051 247.808028 
L 169.553643 247.288993 
L 168.512394 246.664892 
L 167.537331 245.941736 
L 166.637845 245.126489 
L 165.822598 244.227003 
L 165.099442 243.25194 
L 164.475341 242.210691 
L 163.956306 241.113283 
L 163.547335 239.970284 
L 163.252366 238.792704 
L 163.074241 237.591882 
L 163.014675 236.379383 
L 163.074241 235.166884 
L 163.252366 233.966061 
L 163.547335 232.788481 
L 163.956306 231.645483 
L 164.475341 230.548075 
L 165.099442 229.506825 
L 165.822598 228.531762 
L 166.637845 227.632276 
L 167.537331 226.81703 
L 168.512394 226.093874 
L 169.553643 225.469773 
L 170.651051 224.950737 
L 171.79405 224.541766 
L 172.97163 224.246798 
L 174.172452 224.068672 
L 175.384951 224.009106 
L 176.59745 224.068672 
L 177.798272 224.246798 
L 178.975853 224.541766 
L 180.118851 224.950737 
L 181.216259 225.469773 
L 182.257509 226.093874 
L 183.232572 226.81703 
L 184.132058 227.632276 
L 184.947304 228.531762 
L 185.67046 229.506825 
L 186.294561 230.548075 
L 186.813597 231.645483 
L 187.222568 232.788481 
L 187.517536 233.966061 
L 187.695662 235.166884 
z
" clip-path="url(#pd3cd7394cc)" style="fill: #ff0000; opacity: 0.5; stroke: #000000; stroke-linejoin: miter"/>
   </g>
   <g id="patch_20">
    <path d="M 187.755228 211.63883 
L 187.695662 212.851329 
L 187.517536 214.052151 
L 187.222568 215.229731 
L 186.813597 216.372729 
L 186.294561 217.470138 
L 185.67046 218.511387 
L 184.947304 219.48645 
L 184.132058 220.385936 
L 183.232572 221.201183 
L 182.257509 221.924339 
L 181.216259 222.54844 
L 180.118851 223.067475 
L 178.975853 223.476446 
L 177.798272 223.771415 
L 176.59745 223.94954 
L 175.384951 224.009106 
L 174.172452 223.94954 
L 172.97163 223.771415 
L 171.79405 223.476446 
L 170.651051 223.067475 
L 169.553643 222.54844 
L 168.512394 221.924339 
L 167.537331 221.201183 
L 166.637845 220.385936 
L 165.822598 219.48645 
L 165.099442 218.511387 
L 164.475341 217.470138 
L 163.956306 216.372729 
L 163.547335 215.229731 
L 163.252366 214.052151 
L 163.074241 212.851329 
L 163.014675 211.63883 
L 163.074241 210.42633 
L 163.252366 209.225508 
L 163.547335 208.047928 
L 163.956306 206.90493 
L 164.475341 205.807522 
L 165.099442 204.766272 
L 165.822598 203.791209 
L 166.637845 202.891723 
L 167.537331 202.076477 
L 168.512394 201.353321 
L 169.553643 200.72922 
L 170.651051 200.210184 
L 171.79405 199.801213 
L 172.97163 199.506244 
L 174.172452 199.328119 
L 175.384951 199.268553 
L 176.59745 199.328119 
L 177.798272 199.506244 
L 178.975853 199.801213 
L 180.118851 200.210184 
L 181.216259 200.72922 
L 182.257509 201.353321 
L 183.232572 202.076477 
L 184.132058 202.891723 
L 184.947304 203.791209 
L 185.67046 204.766272 
L 186.294561 205.807522 
L 186.813597 206.90493 
L 187.222568 208.047928 
L 187.517536 209.225508 
L 187.695662 210.42633 
z
" clip-path="url(#pd3cd7394cc)" style="fill: #ff0000; opacity: 0.5; stroke: #000000; stroke-linejoin: miter"/>
   </g>
   <g id="patch_21">
    <path d="M 187.755228 186.898277 
L 187.695662 188.110776 
L 187.517536 189.311598 
L 187.222568 190.489178 
L 186.813597 191.632176 
L 186.294561 192.729585 
L 185.67046 193.770834 
L 184.947304 194.745897 
L 184.132058 195.645383 
L 183.232572 196.46063 
L 182.257509 197.183786 
L 181.216259 197.807886 
L 180.118851 198.326922 
L 178.975853 198.735893 
L 177.798272 199.030862 
L 176.59745 199.208987 
L 175.384951 199.268553 
L 174.172452 199.208987 
L 172.97163 199.030862 
L 171.79405 198.735893 
L 170.651051 198.326922 
L 169.553643 197.807886 
L 168.512394 197.183786 
L 167.537331 196.46063 
L 166.637845 195.645383 
L 165.822598 194.745897 
L 165.099442 193.770834 
L 164.475341 192.729585 
L 163.956306 191.632176 
L 163.547335 190.489178 
L 163.252366 189.311598 
L 163.074241 188.110776 
L 163.014675 186.898277 
L 163.074241 185.685777 
L 163.252366 184.484955 
L 163.547335 183.307375 
L 163.956306 182.164377 
L 164.475341 181.066969 
L 165.099442 180.025719 
L 165.822598 179.050656 
L 166.637845 178.15117 
L 167.537331 177.335923 
L 168.512394 176.612768 
L 169.553643 175.988667 
L 170.651051 175.469631 
L 171.79405 175.06066 
L 172.97163 174.765691 
L 174.172452 174.587566 
L 175.384951 174.528 
L 176.59745 174.587566 
L 177.798272 174.765691 
L 178.975853 175.06066 
L 180.118851 175.469631 
L 181.216259 175.988667 
L 182.257509 176.612768 
L 183.232572 177.335923 
L 184.132058 178.15117 
L 184.947304 179.050656 
L 185.67046 180.025719 
L 186.294561 181.066969 
L 186.813597 182.164377 
L 187.222568 183.307375 
L 187.517536 184.484955 
L 187.695662 185.685777 
z
" clip-path="url(#pd3cd7394cc)" style="fill: #ff0000; opacity: 0.5; stroke: #000000; stroke-linejoin: miter"/>
   </g>
   <g id="patch_22">
    <path d="M 187.755228 162.157723 
L 187.695662 163.370223 
L 187.517536 164.571045 
L 187.222568 165.748625 
L 186.813597 166.891623 
L 186.294561 167.989031 
L 185.67046 169.030281 
L 184.947304 170.005344 
L 184.132058 170.90483 
L 183.232572 171.720077 
L 182.257509 172.443232 
L 181.216259 173.067333 
L 180.118851 173.586369 
L 178.975853 173.99534 
L 177.798272 174.290309 
L 176.59745 174.468434 
L 175.384951 174.528 
L 174.172452 174.468434 
L 172.97163 174.290309 
L 171.79405 173.99534 
L 170.651051 173.586369 
L 169.553643 173.067333 
L 168.512394 172.443232 
L 167.537331 171.720077 
L 166.637845 170.90483 
L 165.822598 170.005344 
L 165.099442 169.030281 
L 164.475341 167.989031 
L 163.956306 166.891623 
L 163.547335 165.748625 
L 163.252366 164.571045 
L 163.074241 163.370223 
L 163.014675 162.157723 
L 163.074241 160.945224 
L 163.252366 159.744402 
L 163.547335 158.566822 
L 163.956306 157.423824 
L 164.475341 156.326415 
L 165.099442 155.285166 
L 165.822598 154.310103 
L 166.637845 153.410617 
L 167.537331 152.59537 
L 168.512394 151.872214 
L 169.553643 151.248114 
L 170.651051 150.729078 
L 171.79405 150.320107 
L 172.97163 150.025138 
L 174.172452 149.847013 
L 175.384951 149.787447 
L 176.59745 149.847013 
L 177.798272 150.025138 
L 178.975853 150.320107 
L 180.118851 150.729078 
L 181.216259 151.248114 
L 182.257509 151.872214 
L 183.232572 152.59537 
L 184.132058 153.410617 
L 184.947304 154.310103 
L 185.67046 155.285166 
L 186.294561 156.326415 
L 186.813597 157.423824 
L 187.222568 158.566822 
L 187.517536 159.744402 
L 187.695662 160.945224 
z
" clip-path="url(#pd3cd7394cc)" style="fill: #ff0000; opacity: 0.5; stroke: #000000; stroke-linejoin: miter"/>
   </g>
   <g id="patch_23">
    <path d="M 187.755228 137.41717 
L 187.695662 138.62967 
L 187.517536 139.830492 
L 187.222568 141.008072 
L 186.813597 142.15107 
L 186.294561 143.248478 
L 185.67046 144.289728 
L 184.947304 145.264791 
L 184.132058 146.164277 
L 183.232572 146.979523 
L 182.257509 147.702679 
L 181.216259 148.32678 
L 180.118851 148.845816 
L 178.975853 149.254787 
L 177.798272 149.549756 
L 176.59745 149.727881 
L 175.384951 149.787447 
L 174.172452 149.727881 
L 172.97163 149.549756 
L 171.79405 149.254787 
L 170.651051 148.845816 
L 169.553643 148.32678 
L 168.512394 147.702679 
L 167.537331 146.979523 
L 166.637845 146.164277 
L 165.822598 145.264791 
L 165.099442 144.289728 
L 164.475341 143.248478 
L 163.956306 142.15107 
L 163.547335 141.008072 
L 163.252366 139.830492 
L 163.074241 138.62967 
L 163.014675 137.41717 
L 163.074241 136.204671 
L 163.252366 135.003849 
L 163.547335 133.826269 
L 163.956306 132.683271 
L 164.475341 131.585862 
L 165.099442 130.544613 
L 165.822598 129.56955 
L 166.637845 128.670064 
L 167.537331 127.854817 
L 168.512394 127.131661 
L 169.553643 126.50756 
L 170.651051 125.988525 
L 171.79405 125.579554 
L 172.97163 125.284585 
L 174.172452 125.10646 
L 175.384951 125.046894 
L 176.59745 125.10646 
L 177.798272 125.284585 
L 178.975853 125.579554 
L 180.118851 125.988525 
L 181.216259 126.50756 
L 182.257509 127.131661 
L 183.232572 127.854817 
L 184.132058 128.670064 
L 184.947304 129.56955 
L 185.67046 130.544613 
L 186.294561 131.585862 
L 186.813597 132.683271 
L 187.222568 133.826269 
L 187.517536 135.003849 
L 187.695662 136.204671 
z
" clip-path="url(#pd3cd7394cc)" style="fill: #ff0000; opacity: 0.5; stroke: #000000; stroke-linejoin: miter"/>
   </g>
   <g id="patch_24">
    <path d="M 187.755228 112.676617 
L 187.695662 113.889116 
L 187.517536 115.089939 
L 187.222568 116.267519 
L 186.813597 117.410517 
L 186.294561 118.507925 
L 185.67046 119.549175 
L 184.947304 120.524238 
L 184.132058 121.423724 
L 183.232572 122.23897 
L 182.257509 122.962126 
L 181.216259 123.586227 
L 180.118851 124.105263 
L 178.975853 124.514234 
L 177.798272 124.809202 
L 176.59745 124.987328 
L 175.384951 125.046894 
L 174.172452 124.987328 
L 172.97163 124.809202 
L 171.79405 124.514234 
L 170.651051 124.105263 
L 169.553643 123.586227 
L 168.512394 122.962126 
L 167.537331 122.23897 
L 166.637845 121.423724 
L 165.822598 120.524238 
L 165.099442 119.549175 
L 164.475341 118.507925 
L 163.956306 117.410517 
L 163.547335 116.267519 
L 163.252366 115.089939 
L 163.074241 113.889116 
L 163.014675 112.676617 
L 163.074241 111.464118 
L 163.252366 110.263296 
L 163.547335 109.085716 
L 163.956306 107.942717 
L 164.475341 106.845309 
L 165.099442 105.80406 
L 165.822598 104.828997 
L 166.637845 103.929511 
L 167.537331 103.114264 
L 168.512394 102.391108 
L 169.553643 101.767007 
L 170.651051 101.247972 
L 171.79405 100.839001 
L 172.97163 100.544032 
L 174.172452 100.365907 
L 175.384951 100.306341 
L 176.59745 100.365907 
L 177.798272 100.544032 
L 178.975853 100.839001 
L 180.118851 101.247972 
L 181.216259 101.767007 
L 182.257509 102.391108 
L 183.232572 103.114264 
L 184.132058 103.929511 
L 184.947304 104.828997 
L 185.67046 105.80406 
L 186.294561 106.845309 
L 186.813597 107.942717 
L 187.222568 109.085716 
L 187.517536 110.263296 
L 187.695662 111.464118 
z
" clip-path="url(#pd3cd7394cc)" style="fill: #ff0000; opacity: 0.5; stroke: #000000; stroke-linejoin: miter"/>
   </g>
   <g id="matplotlib.axis_1">
    <g id="xtick_1">
     <g id="line2d_1">
      <defs>
       <path id="mb8fed909c9" d="M 0 0 
L 0 3.5 
" style="stroke: #000000; stroke-width: 0.8"/>
      </defs>
      <g>
       <use xlink:href="#mb8fed909c9" x="114.40531" y="307.584" style="stroke: #000000; stroke-width: 0.8"/>
      </g>
     </g>
     <g id="text_1">
      <!-- −20 -->
      <g transform="translate(103.852966 322.182437) scale(0.1 -0.1)">
       <defs>
        <path id="DejaVuSans-2212" d="M 678 2272 
L 4684 2272 
L 4684 1741 
L 678 1741 
L 678 2272 
z
" transform="scale(0.015625)"/>
        <path id="DejaVuSans-32" d="M 1228 531 
L 3431 531 
L 3431 0 
L 469 0 
L 469 531 
Q 828 903 1448 1529 
Q 2069 2156 2228 2338 
Q 2531 2678 2651 2914 
Q 2772 3150 2772 3378 
Q 2772 3750 2511 3984 
Q 2250 4219 1831 4219 
Q 1534 4219 1204 4116 
Q 875 4013 500 3803 
L 500 4441 
Q 881 4594 1212 4672 
Q 1544 4750 1819 4750 
Q 2544 4750 2975 4387 
Q 3406 4025 3406 3419 
Q 3406 3131 3298 2873 
Q 3191 2616 2906 2266 
Q 2828 2175 2409 1742 
Q 1991 1309 1228 531 
z
" transform="scale(0.015625)"/>
        <path id="DejaVuSans-30" d="M 2034 4250 
Q 1547 4250 1301 3770 
Q 1056 3291 1056 2328 
Q 1056 1369 1301 889 
Q 1547 409 2034 409 
Q 2525 409 2770 889 
Q 3016 1369 3016 2328 
Q 3016 3291 2770 3770 
Q 2525 4250 2034 4250 
z
M 2034 4750 
Q 2819 4750 3233 4129 
Q 3647 3509 3647 2328 
Q 3647 1150 3233 529 
Q 2819 -91 2034 -91 
Q 1250 -91 836 529 
Q 422 1150 422 2328 
Q 422 3509 836 4129 
Q 1250 4750 2034 4750 
z
" transform="scale(0.015625)"/>
       </defs>
       <use xlink:href="#DejaVuSans-2212"/>
       <use xlink:href="#DejaVuSans-32" x="83.789062"/>
       <use xlink:href="#DejaVuSans-30" x="147.412109"/>
      </g>
     </g>
    </g>
    <g id="xtick_2">
     <g id="line2d_2">
      <g>
       <use xlink:href="#mb8fed909c9" x="163.107186" y="307.584" style="stroke: #000000; stroke-width: 0.8"/>
      </g>
     </g>
     <g id="text_2">
      <!-- −10 -->
      <g transform="translate(152.554842 322.182437) scale(0.1 -0.1)">
       <defs>
        <path id="DejaVuSans-31" d="M 794 531 
L 1825 531 
L 1825 4091 
L 703 3866 
L 703 4441 
L 1819 4666 
L 2450 4666 
L 2450 531 
L 3481 531 
L 3481 0 
L 794 0 
L 794 531 
z
" transform="scale(0.015625)"/>
       </defs>
       <use xlink:href="#DejaVuSans-2212"/>
       <use xlink:href="#DejaVuSans-31" x="83.789062"/>
       <use xlink:href="#DejaVuSans-30" x="147.412109"/>
      </g>
     </g>
    </g>
    <g id="xtick_3">
     <g id="line2d_3">
      <g>
       <use xlink:href="#mb8fed909c9" x="211.809062" y="307.584" style="stroke: #000000; stroke-width: 0.8"/>
      </g>
     </g>
     <g id="text_3">
      <!-- 0 -->
      <g transform="translate(208.627812 322.182437) scale(0.1 -0.1)">
       <use xlink:href="#DejaVuSans-30"/>
      </g>
     </g>
    </g>
    <g id="xtick_4">
     <g id="line2d_4">
      <g>
       <use xlink:href="#mb8fed909c9" x="260.510938" y="307.584" style="stroke: #000000; stroke-width: 0.8"/>
      </g>
     </g>
     <g id="text_4">
      <!-- 10 -->
      <g transform="translate(254.148438 322.182437) scale(0.1 -0.1)">
       <use xlink:href="#DejaVuSans-31"/>
       <use xlink:href="#DejaVuSans-30" x="63.623047"/>
      </g>
     </g>
    </g>
    <g id="xtick_5">
     <g id="line2d_5">
      <g>
       <use xlink:href="#mb8fed909c9" x="309.212814" y="307.584" style="stroke: #000000; stroke-width: 0.8"/>
      </g>
     </g>
     <g id="text_5">
      <!-- 20 -->
      <g transform="translate(302.850314 322.182437) scale(0.1 -0.1)">
       <use xlink:href="#DejaVuSans-32"/>
       <use xlink:href="#DejaVuSans-30" x="63.623047"/>
      </g>
     </g>
    </g>
    <g id="xtick_6">
     <g id="line2d_6">
      <g>
       <use xlink:href="#mb8fed909c9" x="357.91469" y="307.584" style="stroke: #000000; stroke-width: 0.8"/>
      </g>
     </g>
     <g id="text_6">
      <!-- 30 -->
      <g transform="translate(351.55219 322.182437) scale(0.1 -0.1)">
       <defs>
        <path id="DejaVuSans-33" d="M 2597 2516 
Q 3050 2419 3304 2112 
Q 3559 1806 3559 1356 
Q 3559 666 3084 287 
Q 2609 -91 1734 -91 
Q 1441 -91 1130 -33 
Q 819 25 488 141 
L 488 750 
Q 750 597 1062 519 
Q 1375 441 1716 441 
Q 2309 441 2620 675 
Q 2931 909 2931 1356 
Q 2931 1769 2642 2001 
Q 2353 2234 1838 2234 
L 1294 2234 
L 1294 2753 
L 1863 2753 
Q 2328 2753 2575 2939 
Q 2822 3125 2822 3475 
Q 2822 3834 2567 4026 
Q 2313 4219 1838 4219 
Q 1578 4219 1281 4162 
Q 984 4106 628 3988 
L 628 4550 
Q 988 4650 1302 4700 
Q 1616 4750 1894 4750 
Q 2613 4750 3031 4423 
Q 3450 4097 3450 3541 
Q 3450 3153 3228 2886 
Q 3006 2619 2597 2516 
z
" transform="scale(0.015625)"/>
       </defs>
       <use xlink:href="#DejaVuSans-33"/>
       <use xlink:href="#DejaVuSans-30" x="63.623047"/>
      </g>
     </g>
    </g>
   </g>
   <g id="matplotlib.axis_2">
    <g id="ytick_1">
     <g id="line2d_7">
      <defs>
       <path id="m19ab321852" d="M 0 0 
L -3.5 0 
" style="stroke: #000000; stroke-width: 0.8"/>
      </defs>
      <g>
       <use xlink:href="#m19ab321852" x="114.40531" y="271.931752" style="stroke: #000000; stroke-width: 0.8"/>
      </g>
     </g>
     <g id="text_7">
      <!-- −20 -->
      <g transform="translate(86.300622 275.730971) scale(0.1 -0.1)">
       <use xlink:href="#DejaVuSans-2212"/>
       <use xlink:href="#DejaVuSans-32" x="83.789062"/>
       <use xlink:href="#DejaVuSans-30" x="147.412109"/>
      </g>
     </g>
    </g>
    <g id="ytick_2">
     <g id="line2d_8">
      <g>
       <use xlink:href="#m19ab321852" x="114.40531" y="223.229876" style="stroke: #000000; stroke-width: 0.8"/>
      </g>
     </g>
     <g id="text_8">
      <!-- −10 -->
      <g transform="translate(86.300622 227.029095) scale(0.1 -0.1)">
       <use xlink:href="#DejaVuSans-2212"/>
       <use xlink:href="#DejaVuSans-31" x="83.789062"/>
       <use xlink:href="#DejaVuSans-30" x="147.412109"/>
      </g>
     </g>
    </g>
    <g id="ytick_3">
     <g id="line2d_9">
      <g>
       <use xlink:href="#m19ab321852" x="114.40531" y="174.528" style="stroke: #000000; stroke-width: 0.8"/>
      </g>
     </g>
     <g id="text_9">
      <!-- 0 -->
      <g transform="translate(101.04281 178.327219) scale(0.1 -0.1)">
       <use xlink:href="#DejaVuSans-30"/>
      </g>
     </g>
    </g>
    <g id="ytick_4">
     <g id="line2d_10">
      <g>
       <use xlink:href="#m19ab321852" x="114.40531" y="125.826124" style="stroke: #000000; stroke-width: 0.8"/>
      </g>
     </g>
     <g id="text_10">
      <!-- 10 -->
      <g transform="translate(94.68031 129.625343) scale(0.1 -0.1)">
       <use xlink:href="#DejaVuSans-31"/>
       <use xlink:href="#DejaVuSans-30" x="63.623047"/>
      </g>
     </g>
    </g>
    <g id="ytick_5">
     <g id="line2d_11">
      <g>
       <use xlink:href="#m19ab321852" x="114.40531" y="77.124248" style="stroke: #000000; stroke-width: 0.8"/>
      </g>
     </g>
     <g id="text_11">
      <!-- 20 -->
      <g transform="translate(94.68031 80.923466) scale(0.1 -0.1)">
       <use xlink:href="#DejaVuSans-32"/>
       <use xlink:href="#DejaVuSans-30" x="63.623047"/>
      </g>
     </g>
    </g>
   </g>
   <g id="patch_25">
    <path d="M 114.40531 307.584 
L 114.40531 41.472 
" style="fill: none; stroke: #000000; stroke-width: 0.8; stroke-linejoin: miter; stroke-linecap: square"/>
   </g>
   <g id="patch_26">
    <path d="M 357.91469 307.584 
L 357.91469 41.472 
" style="fill: none; stroke: #000000; stroke-width: 0.8; stroke-linejoin: miter; stroke-linecap: square"/>
   </g>
   <g id="patch_27">
    <path d="M 114.40531 307.584 
L 357.91469 307.584 
" style="fill: none; stroke: #000000; stroke-width: 0.8; stroke-linejoin: miter; stroke-linecap: square"/>
   </g>
   <g id="patch_28">
    <path d="M 114.40531 41.472 
L 357.91469 41.472 
" style="fill: none; stroke: #000000; stroke-width: 0.8; stroke-linejoin: miter; stroke-linecap: square"/>
   </g>
   <g id="text_12">
    <!-- Plato_A1 Design -->
    <g transform="translate(187.630312 35.472) scale(0.12 -0.12)">
     <defs>
      <path id="DejaVuSans-50" d="M 1259 4147 
L 1259 2394 
L 2053 2394 
Q 2494 2394 2734 2622 
Q 2975 2850 2975 3272 
Q 2975 3691 2734 3919 
Q 2494 4147 2053 4147 
L 1259 4147 
z
M 628 4666 
L 2053 4666 
Q 2838 4666 3239 4311 
Q 3641 3956 3641 3272 
Q 3641 2581 3239 2228 
Q 2838 1875 2053 1875 
L 1259 1875 
L 1259 0 
L 628 0 
L 628 4666 
z
" transform="scale(0.015625)"/>
      <path id="DejaVuSans-6c" d="M 603 4863 
L 1178 4863 
L 1178 0 
L 603 0 
L 603 4863 
z
" transform="scale(0.015625)"/>
      <path id="DejaVuSans-61" d="M 2194 1759 
Q 1497 1759 1228 1600 
Q 959 1441 959 1056 
Q 959 750 1161 570 
Q 1363 391 1709 391 
Q 2188 391 2477 730 
Q 2766 1069 2766 1631 
L 2766 1759 
L 2194 1759 
z
M 3341 1997 
L 3341 0 
L 2766 0 
L 2766 531 
Q 2569 213 2275 61 
Q 1981 -91 1556 -91 
Q 1019 -91 701 211 
Q 384 513 384 1019 
Q 384 1609 779 1909 
Q 1175 2209 1959 2209 
L 2766 2209 
L 2766 2266 
Q 2766 2663 2505 2880 
Q 2244 3097 1772 3097 
Q 1472 3097 1187 3025 
Q 903 2953 641 2809 
L 641 3341 
Q 956 3463 1253 3523 
Q 1550 3584 1831 3584 
Q 2591 3584 2966 3190 
Q 3341 2797 3341 1997 
z
" transform="scale(0.015625)"/>
      <path id="DejaVuSans-74" d="M 1172 4494 
L 1172 3500 
L 2356 3500 
L 2356 3053 
L 1172 3053 
L 1172 1153 
Q 1172 725 1289 603 
Q 1406 481 1766 481 
L 2356 481 
L 2356 0 
L 1766 0 
Q 1100 0 847 248 
Q 594 497 594 1153 
L 594 3053 
L 172 3053 
L 172 3500 
L 594 3500 
L 594 4494 
L 1172 4494 
z
" transform="scale(0.015625)"/>
      <path id="DejaVuSans-6f" d="M 1959 3097 
Q 1497 3097 1228 2736 
Q 959 2375 959 1747 
Q 959 1119 1226 758 
Q 1494 397 1959 397 
Q 2419 397 2687 759 
Q 2956 1122 2956 1747 
Q 2956 2369 2687 2733 
Q 2419 3097 1959 3097 
z
M 1959 3584 
Q 2709 3584 3137 3096 
Q 3566 2609 3566 1747 
Q 3566 888 3137 398 
Q 2709 -91 1959 -91 
Q 1206 -91 779 398 
Q 353 888 353 1747 
Q 353 2609 779 3096 
Q 1206 3584 1959 3584 
z
" transform="scale(0.015625)"/>
      <path id="DejaVuSans-5f" d="M 3263 -1063 
L 3263 -1509 
L -63 -1509 
L -63 -1063 
L 3263 -1063 
z
" transform="scale(0.015625)"/>
      <path id="DejaVuSans-41" d="M 2188 4044 
L 1331 1722 
L 3047 1722 
L 2188 4044 
z
M 1831 4666 
L 2547 4666 
L 4325 0 
L 3669 0 
L 3244 1197 
L 1141 1197 
L 716 0 
L 50 0 
L 1831 4666 
z
" transform="scale(0.015625)"/>
      <path id="DejaVuSans-20" transform="scale(0.015625)"/>
      <path id="DejaVuSans-44" d="M 1259 4147 
L 1259 519 
L 2022 519 
Q 2988 519 3436 956 
Q 3884 1394 3884 2338 
Q 3884 3275 3436 3711 
Q 2988 4147 2022 4147 
L 1259 4147 
z
M 628 4666 
L 1925 4666 
Q 3281 4666 3915 4102 
Q 4550 3538 4550 2338 
Q 4550 1131 3912 565 
Q 3275 0 1925 0 
L 628 0 
L 628 4666 
z
" transform="scale(0.015625)"/>
      <path id="DejaVuSans-65" d="M 3597 1894 
L 3597 1613 
L 953 1613 
Q 991 1019 1311 708 
Q 1631 397 2203 397 
Q 2534 397 2845 478 
Q 3156 559 3463 722 
L 3463 178 
Q 3153 47 2828 -22 
Q 2503 -91 2169 -91 
Q 1331 -91 842 396 
Q 353 884 353 1716 
Q 353 2575 817 3079 
Q 1281 3584 2069 3584 
Q 2775 3584 3186 3129 
Q 3597 2675 3597 1894 
z
M 3022 2063 
Q 3016 2534 2758 2815 
Q 2500 3097 2075 3097 
Q 1594 3097 1305 2825 
Q 1016 2553 972 2059 
L 3022 2063 
z
" transform="scale(0.015625)"/>
      <path id="DejaVuSans-73" d="M 2834 3397 
L 2834 2853 
Q 2591 2978 2328 3040 
Q 2066 3103 1784 3103 
Q 1356 3103 1142 2972 
Q 928 2841 928 2578 
Q 928 2378 1081 2264 
Q 1234 2150 1697 2047 
L 1894 2003 
Q 2506 1872 2764 1633 
Q 3022 1394 3022 966 
Q 3022 478 2636 193 
Q 2250 -91 1575 -91 
Q 1294 -91 989 -36 
Q 684 19 347 128 
L 347 722 
Q 666 556 975 473 
Q 1284 391 1588 391 
Q 1994 391 2212 530 
Q 2431 669 2431 922 
Q 2431 1156 2273 1281 
Q 2116 1406 1581 1522 
L 1381 1569 
Q 847 1681 609 1914 
Q 372 2147 372 2553 
Q 372 3047 722 3315 
Q 1072 3584 1716 3584 
Q 2034 3584 2315 3537 
Q 2597 3491 2834 3397 
z
" transform="scale(0.015625)"/>
      <path id="DejaVuSans-69" d="M 603 3500 
L 1178 3500 
L 1178 0 
L 603 0 
L 603 3500 
z
M 603 4863 
L 1178 4863 
L 1178 4134 
L 603 4134 
L 603 4863 
z
" transform="scale(0.015625)"/>
      <path id="DejaVuSans-67" d="M 2906 1791 
Q 2906 2416 2648 2759 
Q 2391 3103 1925 3103 
Q 1463 3103 1205 2759 
Q 947 2416 947 1791 
Q 947 1169 1205 825 
Q 1463 481 1925 481 
Q 2391 481 2648 825 
Q 2906 1169 2906 1791 
z
M 3481 434 
Q 3481 -459 3084 -895 
Q 2688 -1331 1869 -1331 
Q 1566 -1331 1297 -1286 
Q 1028 -1241 775 -1147 
L 775 -588 
Q 1028 -725 1275 -790 
Q 1522 -856 1778 -856 
Q 2344 -856 2625 -561 
Q 2906 -266 2906 331 
L 2906 616 
Q 2728 306 2450 153 
Q 2172 0 1784 0 
Q 1141 0 747 490 
Q 353 981 353 1791 
Q 353 2603 747 3093 
Q 1141 3584 1784 3584 
Q 2172 3584 2450 3431 
Q 2728 3278 2906 2969 
L 2906 3500 
L 3481 3500 
L 3481 434 
z
" transform="scale(0.015625)"/>
      <path id="DejaVuSans-6e" d="M 3513 2113 
L 3513 0 
L 2938 0 
L 2938 2094 
Q 2938 2591 2744 2837 
Q 2550 3084 2163 3084 
Q 1697 3084 1428 2787 
Q 1159 2491 1159 1978 
L 1159 0 
L 581 0 
L 581 3500 
L 1159 3500 
L 1159 2956 
Q 1366 3272 1645 3428 
Q 1925 3584 2291 3584 
Q 2894 3584 3203 3211 
Q 3513 2838 3513 2113 
z
" transform="scale(0.015625)"/>
     </defs>
     <use xlink:href="#DejaVuSans-50"/>
     <use xlink:href="#DejaVuSans-6c" x="60.302734"/>
     <use xlink:href="#DejaVuSans-61" x="88.085938"/>
     <use xlink:href="#DejaVuSans-74" x="149.365234"/>
     <use xlink:href="#DejaVuSans-6f" x="188.574219"/>
     <use xlink:href="#DejaVuSans-5f" x="249.755859"/>
     <use xlink:href="#DejaVuSans-41" x="299.755859"/>
     <use xlink:href="#DejaVuSans-31" x="368.164062"/>
     <use xlink:href="#DejaVuSans-20" x="431.787109"/>
     <use xlink:href="#DejaVuSans-44" x="463.574219"/>
     <use xlink:href="#DejaVuSans-65" x="540.576172"/>
     <use xlink:href="#DejaVuSans-73" x="602.099609"/>
     <use xlink:href="#DejaVuSans-69" x="654.199219"/>
     <use xlink:href="#DejaVuSans-67" x="681.982422"/>
     <use xlink:href="#DejaVuSans-6e" x="745.458984"/>
    </g>
   </g>
  </g>
 </g>
 <defs>
  <clipPath id="pd3cd7394cc">
   <rect x="114.40531" y="41.472" width="243.509381" height="266.112"/>
  </clipPath>
 </defs>
</svg>
