<?xml version="1.0" standalone="no"?>
 <!DOCTYPE svg PUBLIC "-//W3C//DTD SVG 1.1//EN" 
 "http://www.w3.org/Graphics/SVG/1.1/DTD/svg11.dtd"> 
<svg
  xmlns:svg="http://www.w3.org/2000/svg"
  xmlns="http://www.w3.org/2000/svg"
  xmlns:xlink="http://www.w3.org/1999/xlink"
  version="1.1"
  width="31.1912mm" height="35.8394mm" viewBox="0.0000 0.0000 31.1912 35.8394">
<title>SVG Image created as Plato_A1-B_Silkscreen.svg date 2024/04/29 00:24:34 </title>
  <desc>Image generated by PCBNEW </desc>
<g style="fill:#000000; fill-opacity:1.0000;stroke:#000000; stroke-opacity:1.0000;
stroke-linecap:round; stroke-linejoin:round;"
 transform="translate(0 0) scale(1 1)">
</g>
<g style="fill:none; 
stroke:#000000; stroke-width:0.1000; stroke-opacity:1; 
stroke-linecap:round; stroke-linejoin:round;">
<text x="1.0602" y="13.8873"
transform="scale(-1 1) translate(-2.120330 0)"
textLength="7.1476" font-size="1.3333" lengthAdjust="spacingAndGlyphs"
text-anchor="end" opacity="0">PLATO_A1</text>
<g class="stroked-text"><desc>PLATO_A1</desc>
<path d="M7.9355 13.7597
L7.9355 12.7597
" />
<path d="M7.9355 12.7597
L7.5545 12.7597
" />
<path d="M7.5545 12.7597
L7.4593 12.8073
" />
<path d="M7.4593 12.8073
L7.4117 12.8550
" />
<path d="M7.4117 12.8550
L7.3640 12.9502
" />
<path d="M7.3640 12.9502
L7.3640 13.0931
" />
<path d="M7.3640 13.0931
L7.4117 13.1883
" />
<path d="M7.4117 13.1883
L7.4593 13.2359
" />
<path d="M7.4593 13.2359
L7.5545 13.2835
" />
<path d="M7.5545 13.2835
L7.9355 13.2835
" />
<path d="M6.4593 13.7597
L6.9355 13.7597
" />
<path d="M6.9355 13.7597
L6.9355 12.7597
" />
<path d="M6.1736 13.4740
L5.6974 13.4740
" />
<path d="M6.2688 13.7597
L5.9355 12.7597
" />
<path d="M5.9355 12.7597
L5.6021 13.7597
" />
<path d="M5.4117 12.7597
L4.8402 12.7597
" />
<path d="M5.1260 13.7597
L5.1260 12.7597
" />
<path d="M4.3164 12.7597
L4.1260 12.7597
" />
<path d="M4.1260 12.7597
L4.0307 12.8073
" />
<path d="M4.0307 12.8073
L3.9355 12.9026
" />
<path d="M3.9355 12.9026
L3.8879 13.0931
" />
<path d="M3.8879 13.0931
L3.8879 13.4264
" />
<path d="M3.8879 13.4264
L3.9355 13.6169
" />
<path d="M3.9355 13.6169
L4.0307 13.7121
" />
<path d="M4.0307 13.7121
L4.1260 13.7597
" />
<path d="M4.1260 13.7597
L4.3164 13.7597
" />
<path d="M4.3164 13.7597
L4.4117 13.7121
" />
<path d="M4.4117 13.7121
L4.5069 13.6169
" />
<path d="M4.5069 13.6169
L4.5545 13.4264
" />
<path d="M4.5545 13.4264
L4.5545 13.0931
" />
<path d="M4.5545 13.0931
L4.5069 12.9026
" />
<path d="M4.5069 12.9026
L4.4117 12.8073
" />
<path d="M4.4117 12.8073
L4.3164 12.7597
" />
<path d="M3.6974 13.8550
L2.9355 13.8550
" />
<path d="M2.7450 13.4740
L2.2688 13.4740
" />
<path d="M2.8402 13.7597
L2.5069 12.7597
" />
<path d="M2.5069 12.7597
L2.1736 13.7597
" />
<path d="M1.3164 13.7597
L1.8879 13.7597
" />
<path d="M1.6021 13.7597
L1.6021 12.7597
" />
<path d="M1.6021 12.7597
L1.6974 12.9026
" />
<path d="M1.6974 12.9026
L1.7926 12.9978
" />
<path d="M1.7926 12.9978
L1.8879 13.0454
" />
</g><text x="1.0602" y="15.4973"
transform="scale(-1 1) translate(-2.120330 0)"
textLength="9.7667" font-size="1.3333" lengthAdjust="spacingAndGlyphs"
text-anchor="end" opacity="0">APRIL 12024</text>
<g class="stroked-text"><desc>APRIL 12024</desc>
<path d="M10.6021 15.0840
L10.1260 15.0840
" />
<path d="M10.6974 15.3697
L10.3640 14.3697
" />
<path d="M10.3640 14.3697
L10.0307 15.3697
" />
<path d="M9.6974 15.3697
L9.6974 14.3697
" />
<path d="M9.6974 14.3697
L9.3164 14.3697
" />
<path d="M9.3164 14.3697
L9.2212 14.4173
" />
<path d="M9.2212 14.4173
L9.1736 14.4649
" />
<path d="M9.1736 14.4649
L9.1260 14.5601
" />
<path d="M9.1260 14.5601
L9.1260 14.7030
" />
<path d="M9.1260 14.7030
L9.1736 14.7982
" />
<path d="M9.1736 14.7982
L9.2212 14.8459
" />
<path d="M9.2212 14.8459
L9.3164 14.8935
" />
<path d="M9.3164 14.8935
L9.6974 14.8935
" />
<path d="M8.1260 15.3697
L8.4593 14.8935
" />
<path d="M8.6974 15.3697
L8.6974 14.3697
" />
<path d="M8.6974 14.3697
L8.3164 14.3697
" />
<path d="M8.3164 14.3697
L8.2212 14.4173
" />
<path d="M8.2212 14.4173
L8.1736 14.4649
" />
<path d="M8.1736 14.4649
L8.1260 14.5601
" />
<path d="M8.1260 14.5601
L8.1260 14.7030
" />
<path d="M8.1260 14.7030
L8.1736 14.7982
" />
<path d="M8.1736 14.7982
L8.2212 14.8459
" />
<path d="M8.2212 14.8459
L8.3164 14.8935
" />
<path d="M8.3164 14.8935
L8.6974 14.8935
" />
<path d="M7.6974 15.3697
L7.6974 14.3697
" />
<path d="M6.7450 15.3697
L7.2212 15.3697
" />
<path d="M7.2212 15.3697
L7.2212 14.3697
" />
<path d="M5.1260 15.3697
L5.6974 15.3697
" />
<path d="M5.4117 15.3697
L5.4117 14.3697
" />
<path d="M5.4117 14.3697
L5.5069 14.5125
" />
<path d="M5.5069 14.5125
L5.6021 14.6078
" />
<path d="M5.6021 14.6078
L5.6974 14.6554
" />
<path d="M4.7450 14.4649
L4.6974 14.4173
" />
<path d="M4.6974 14.4173
L4.6021 14.3697
" />
<path d="M4.6021 14.3697
L4.3640 14.3697
" />
<path d="M4.3640 14.3697
L4.2688 14.4173
" />
<path d="M4.2688 14.4173
L4.2212 14.4649
" />
<path d="M4.2212 14.4649
L4.1736 14.5601
" />
<path d="M4.1736 14.5601
L4.1736 14.6554
" />
<path d="M4.1736 14.6554
L4.2212 14.7982
" />
<path d="M4.2212 14.7982
L4.7926 15.3697
" />
<path d="M4.7926 15.3697
L4.1736 15.3697
" />
<path d="M3.5545 14.3697
L3.4593 14.3697
" />
<path d="M3.4593 14.3697
L3.3640 14.4173
" />
<path d="M3.3640 14.4173
L3.3164 14.4649
" />
<path d="M3.3164 14.4649
L3.2688 14.5601
" />
<path d="M3.2688 14.5601
L3.2212 14.7506
" />
<path d="M3.2212 14.7506
L3.2212 14.9887
" />
<path d="M3.2212 14.9887
L3.2688 15.1792
" />
<path d="M3.2688 15.1792
L3.3164 15.2744
" />
<path d="M3.3164 15.2744
L3.3640 15.3221
" />
<path d="M3.3640 15.3221
L3.4593 15.3697
" />
<path d="M3.4593 15.3697
L3.5545 15.3697
" />
<path d="M3.5545 15.3697
L3.6498 15.3221
" />
<path d="M3.6498 15.3221
L3.6974 15.2744
" />
<path d="M3.6974 15.2744
L3.7450 15.1792
" />
<path d="M3.7450 15.1792
L3.7926 14.9887
" />
<path d="M3.7926 14.9887
L3.7926 14.7506
" />
<path d="M3.7926 14.7506
L3.7450 14.5601
" />
<path d="M3.7450 14.5601
L3.6974 14.4649
" />
<path d="M3.6974 14.4649
L3.6498 14.4173
" />
<path d="M3.6498 14.4173
L3.5545 14.3697
" />
<path d="M2.8402 14.4649
L2.7926 14.4173
" />
<path d="M2.7926 14.4173
L2.6974 14.3697
" />
<path d="M2.6974 14.3697
L2.4593 14.3697
" />
<path d="M2.4593 14.3697
L2.3640 14.4173
" />
<path d="M2.3640 14.4173
L2.3164 14.4649
" />
<path d="M2.3164 14.4649
L2.2688 14.5601
" />
<path d="M2.2688 14.5601
L2.2688 14.6554
" />
<path d="M2.2688 14.6554
L2.3164 14.7982
" />
<path d="M2.3164 14.7982
L2.8879 15.3697
" />
<path d="M2.8879 15.3697
L2.2688 15.3697
" />
<path d="M1.4117 14.7030
L1.4117 15.3697
" />
<path d="M1.6498 14.3221
L1.8879 15.0363
" />
<path d="M1.8879 15.0363
L1.2688 15.0363
" />
</g><text x="1.0602" y="17.1072"
transform="scale(-1 1) translate(-2.120330 0)"
textLength="16.2429" font-size="1.3333" lengthAdjust="spacingAndGlyphs"
text-anchor="end" opacity="0">SZC SUPERLUMINOUS</text>
<g class="stroked-text"><desc>SZC SUPERLUMINOUS</desc>
<path d="M17.0783 16.9320
L16.9355 16.9796
" />
<path d="M16.9355 16.9796
L16.6974 16.9796
" />
<path d="M16.6974 16.9796
L16.6021 16.9320
" />
<path d="M16.6021 16.9320
L16.5545 16.8844
" />
<path d="M16.5545 16.8844
L16.5069 16.7891
" />
<path d="M16.5069 16.7891
L16.5069 16.6939
" />
<path d="M16.5069 16.6939
L16.5545 16.5987
" />
<path d="M16.5545 16.5987
L16.6021 16.5510
" />
<path d="M16.6021 16.5510
L16.6974 16.5034
" />
<path d="M16.6974 16.5034
L16.8879 16.4558
" />
<path d="M16.8879 16.4558
L16.9831 16.4082
" />
<path d="M16.9831 16.4082
L17.0307 16.3606
" />
<path d="M17.0307 16.3606
L17.0783 16.2653
" />
<path d="M17.0783 16.2653
L17.0783 16.1701
" />
<path d="M17.0783 16.1701
L17.0307 16.0749
" />
<path d="M17.0307 16.0749
L16.9831 16.0272
" />
<path d="M16.9831 16.0272
L16.8879 15.9796
" />
<path d="M16.8879 15.9796
L16.6498 15.9796
" />
<path d="M16.6498 15.9796
L16.5069 16.0272
" />
<path d="M16.1736 15.9796
L15.5069 15.9796
" />
<path d="M15.5069 15.9796
L16.1736 16.9796
" />
<path d="M16.1736 16.9796
L15.5069 16.9796
" />
<path d="M14.5545 16.8844
L14.6021 16.9320
" />
<path d="M14.6021 16.9320
L14.7450 16.9796
" />
<path d="M14.7450 16.9796
L14.8402 16.9796
" />
<path d="M14.8402 16.9796
L14.9831 16.9320
" />
<path d="M14.9831 16.9320
L15.0783 16.8368
" />
<path d="M15.0783 16.8368
L15.1260 16.7415
" />
<path d="M15.1260 16.7415
L15.1736 16.5510
" />
<path d="M15.1736 16.5510
L15.1736 16.4082
" />
<path d="M15.1736 16.4082
L15.1260 16.2177
" />
<path d="M15.1260 16.2177
L15.0783 16.1225
" />
<path d="M15.0783 16.1225
L14.9831 16.0272
" />
<path d="M14.9831 16.0272
L14.8402 15.9796
" />
<path d="M14.8402 15.9796
L14.7450 15.9796
" />
<path d="M14.7450 15.9796
L14.6021 16.0272
" />
<path d="M14.6021 16.0272
L14.5545 16.0749
" />
<path d="M13.4117 16.9320
L13.2688 16.9796
" />
<path d="M13.2688 16.9796
L13.0307 16.9796
" />
<path d="M13.0307 16.9796
L12.9355 16.9320
" />
<path d="M12.9355 16.9320
L12.8879 16.8844
" />
<path d="M12.8879 16.8844
L12.8402 16.7891
" />
<path d="M12.8402 16.7891
L12.8402 16.6939
" />
<path d="M12.8402 16.6939
L12.8879 16.5987
" />
<path d="M12.8879 16.5987
L12.9355 16.5510
" />
<path d="M12.9355 16.5510
L13.0307 16.5034
" />
<path d="M13.0307 16.5034
L13.2212 16.4558
" />
<path d="M13.2212 16.4558
L13.3164 16.4082
" />
<path d="M13.3164 16.4082
L13.3640 16.3606
" />
<path d="M13.3640 16.3606
L13.4117 16.2653
" />
<path d="M13.4117 16.2653
L13.4117 16.1701
" />
<path d="M13.4117 16.1701
L13.3640 16.0749
" />
<path d="M13.3640 16.0749
L13.3164 16.0272
" />
<path d="M13.3164 16.0272
L13.2212 15.9796
" />
<path d="M13.2212 15.9796
L12.9831 15.9796
" />
<path d="M12.9831 15.9796
L12.8402 16.0272
" />
<path d="M12.4117 15.9796
L12.4117 16.7891
" />
<path d="M12.4117 16.7891
L12.3640 16.8844
" />
<path d="M12.3640 16.8844
L12.3164 16.9320
" />
<path d="M12.3164 16.9320
L12.2212 16.9796
" />
<path d="M12.2212 16.9796
L12.0307 16.9796
" />
<path d="M12.0307 16.9796
L11.9355 16.9320
" />
<path d="M11.9355 16.9320
L11.8879 16.8844
" />
<path d="M11.8879 16.8844
L11.8402 16.7891
" />
<path d="M11.8402 16.7891
L11.8402 15.9796
" />
<path d="M11.3640 16.9796
L11.3640 15.9796
" />
<path d="M11.3640 15.9796
L10.9831 15.9796
" />
<path d="M10.9831 15.9796
L10.8879 16.0272
" />
<path d="M10.8879 16.0272
L10.8402 16.0749
" />
<path d="M10.8402 16.0749
L10.7926 16.1701
" />
<path d="M10.7926 16.1701
L10.7926 16.3130
" />
<path d="M10.7926 16.3130
L10.8402 16.4082
" />
<path d="M10.8402 16.4082
L10.8879 16.4558
" />
<path d="M10.8879 16.4558
L10.9831 16.5034
" />
<path d="M10.9831 16.5034
L11.3640 16.5034
" />
<path d="M10.3640 16.4558
L10.0307 16.4558
" />
<path d="M9.8879 16.9796
L10.3640 16.9796
" />
<path d="M10.3640 16.9796
L10.3640 15.9796
" />
<path d="M10.3640 15.9796
L9.8879 15.9796
" />
<path d="M8.8879 16.9796
L9.2212 16.5034
" />
<path d="M9.4593 16.9796
L9.4593 15.9796
" />
<path d="M9.4593 15.9796
L9.0783 15.9796
" />
<path d="M9.0783 15.9796
L8.9831 16.0272
" />
<path d="M8.9831 16.0272
L8.9355 16.0749
" />
<path d="M8.9355 16.0749
L8.8879 16.1701
" />
<path d="M8.8879 16.1701
L8.8879 16.3130
" />
<path d="M8.8879 16.3130
L8.9355 16.4082
" />
<path d="M8.9355 16.4082
L8.9831 16.4558
" />
<path d="M8.9831 16.4558
L9.0783 16.5034
" />
<path d="M9.0783 16.5034
L9.4593 16.5034
" />
<path d="M7.9831 16.9796
L8.4593 16.9796
" />
<path d="M8.4593 16.9796
L8.4593 15.9796
" />
<path d="M7.6498 15.9796
L7.6498 16.7891
" />
<path d="M7.6498 16.7891
L7.6021 16.8844
" />
<path d="M7.6021 16.8844
L7.5545 16.9320
" />
<path d="M7.5545 16.9320
L7.4593 16.9796
" />
<path d="M7.4593 16.9796
L7.2688 16.9796
" />
<path d="M7.2688 16.9796
L7.1736 16.9320
" />
<path d="M7.1736 16.9320
L7.1260 16.8844
" />
<path d="M7.1260 16.8844
L7.0783 16.7891
" />
<path d="M7.0783 16.7891
L7.0783 15.9796
" />
<path d="M6.6021 16.9796
L6.6021 15.9796
" />
<path d="M6.6021 15.9796
L6.2688 16.6939
" />
<path d="M6.2688 16.6939
L5.9355 15.9796
" />
<path d="M5.9355 15.9796
L5.9355 16.9796
" />
<path d="M5.4593 16.9796
L5.4593 15.9796
" />
<path d="M4.9831 16.9796
L4.9831 15.9796
" />
<path d="M4.9831 15.9796
L4.4117 16.9796
" />
<path d="M4.4117 16.9796
L4.4117 15.9796
" />
<path d="M3.7450 15.9796
L3.5545 15.9796
" />
<path d="M3.5545 15.9796
L3.4593 16.0272
" />
<path d="M3.4593 16.0272
L3.3640 16.1225
" />
<path d="M3.3640 16.1225
L3.3164 16.3130
" />
<path d="M3.3164 16.3130
L3.3164 16.6463
" />
<path d="M3.3164 16.6463
L3.3640 16.8368
" />
<path d="M3.3640 16.8368
L3.4593 16.9320
" />
<path d="M3.4593 16.9320
L3.5545 16.9796
" />
<path d="M3.5545 16.9796
L3.7450 16.9796
" />
<path d="M3.7450 16.9796
L3.8402 16.9320
" />
<path d="M3.8402 16.9320
L3.9355 16.8368
" />
<path d="M3.9355 16.8368
L3.9831 16.6463
" />
<path d="M3.9831 16.6463
L3.9831 16.3130
" />
<path d="M3.9831 16.3130
L3.9355 16.1225
" />
<path d="M3.9355 16.1225
L3.8402 16.0272
" />
<path d="M3.8402 16.0272
L3.7450 15.9796
" />
<path d="M2.8879 15.9796
L2.8879 16.7891
" />
<path d="M2.8879 16.7891
L2.8402 16.8844
" />
<path d="M2.8402 16.8844
L2.7926 16.9320
" />
<path d="M2.7926 16.9320
L2.6974 16.9796
" />
<path d="M2.6974 16.9796
L2.5069 16.9796
" />
<path d="M2.5069 16.9796
L2.4117 16.9320
" />
<path d="M2.4117 16.9320
L2.3640 16.8844
" />
<path d="M2.3640 16.8844
L2.3164 16.7891
" />
<path d="M2.3164 16.7891
L2.3164 15.9796
" />
<path d="M1.8879 16.9320
L1.7450 16.9796
" />
<path d="M1.7450 16.9796
L1.5069 16.9796
" />
<path d="M1.5069 16.9796
L1.4117 16.9320
" />
<path d="M1.4117 16.9320
L1.3640 16.8844
" />
<path d="M1.3640 16.8844
L1.3164 16.7891
" />
<path d="M1.3164 16.7891
L1.3164 16.6939
" />
<path d="M1.3164 16.6939
L1.3640 16.5987
" />
<path d="M1.3640 16.5987
L1.4117 16.5510
" />
<path d="M1.4117 16.5510
L1.5069 16.5034
" />
<path d="M1.5069 16.5034
L1.6974 16.4558
" />
<path d="M1.6974 16.4558
L1.7926 16.4082
" />
<path d="M1.7926 16.4082
L1.8402 16.3606
" />
<path d="M1.8402 16.3606
L1.8879 16.2653
" />
<path d="M1.8879 16.2653
L1.8879 16.1701
" />
<path d="M1.8879 16.1701
L1.8402 16.0749
" />
<path d="M1.8402 16.0749
L1.7926 16.0272
" />
<path d="M1.7926 16.0272
L1.6974 15.9796
" />
<path d="M1.6974 15.9796
L1.4593 15.9796
" />
<path d="M1.4593 15.9796
L1.3164 16.0272
" />
</g><text x="1.0602" y="18.7171"
transform="scale(-1 1) translate(-2.120330 0)"
textLength="26.5762" font-size="1.3333" lengthAdjust="spacingAndGlyphs"
text-anchor="end" opacity="0">https://github.com/koopero/Plato</text>
<g class="stroked-text"><desc>https://github.com/koopero/Plato</desc>
<path d="M27.3641 18.5896
L27.3641 17.5896
" />
<path d="M26.9355 18.5896
L26.9355 18.0658
" />
<path d="M26.9355 18.0658
L26.9831 17.9705
" />
<path d="M26.9831 17.9705
L27.0783 17.9229
" />
<path d="M27.0783 17.9229
L27.2212 17.9229
" />
<path d="M27.2212 17.9229
L27.3164 17.9705
" />
<path d="M27.3164 17.9705
L27.3641 18.0181
" />
<path d="M26.6021 17.9229
L26.2212 17.9229
" />
<path d="M26.4593 17.5896
L26.4593 18.4467
" />
<path d="M26.4593 18.4467
L26.4117 18.5419
" />
<path d="M26.4117 18.5419
L26.3164 18.5896
" />
<path d="M26.3164 18.5896
L26.2212 18.5896
" />
<path d="M26.0307 17.9229
L25.6498 17.9229
" />
<path d="M25.8879 17.5896
L25.8879 18.4467
" />
<path d="M25.8879 18.4467
L25.8402 18.5419
" />
<path d="M25.8402 18.5419
L25.7450 18.5896
" />
<path d="M25.7450 18.5896
L25.6498 18.5896
" />
<path d="M25.3164 17.9229
L25.3164 18.9229
" />
<path d="M25.3164 17.9705
L25.2212 17.9229
" />
<path d="M25.2212 17.9229
L25.0307 17.9229
" />
<path d="M25.0307 17.9229
L24.9355 17.9705
" />
<path d="M24.9355 17.9705
L24.8879 18.0181
" />
<path d="M24.8879 18.0181
L24.8402 18.1134
" />
<path d="M24.8402 18.1134
L24.8402 18.3991
" />
<path d="M24.8402 18.3991
L24.8879 18.4943
" />
<path d="M24.8879 18.4943
L24.9355 18.5419
" />
<path d="M24.9355 18.5419
L25.0307 18.5896
" />
<path d="M25.0307 18.5896
L25.2212 18.5896
" />
<path d="M25.2212 18.5896
L25.3164 18.5419
" />
<path d="M24.4593 18.5419
L24.3640 18.5896
" />
<path d="M24.3640 18.5896
L24.1736 18.5896
" />
<path d="M24.1736 18.5896
L24.0783 18.5419
" />
<path d="M24.0783 18.5419
L24.0307 18.4467
" />
<path d="M24.0307 18.4467
L24.0307 18.3991
" />
<path d="M24.0307 18.3991
L24.0783 18.3038
" />
<path d="M24.0783 18.3038
L24.1736 18.2562
" />
<path d="M24.1736 18.2562
L24.3164 18.2562
" />
<path d="M24.3164 18.2562
L24.4117 18.2086
" />
<path d="M24.4117 18.2086
L24.4593 18.1134
" />
<path d="M24.4593 18.1134
L24.4593 18.0658
" />
<path d="M24.4593 18.0658
L24.4117 17.9705
" />
<path d="M24.4117 17.9705
L24.3164 17.9229
" />
<path d="M24.3164 17.9229
L24.1736 17.9229
" />
<path d="M24.1736 17.9229
L24.0783 17.9705
" />
<path d="M23.6021 18.4943
L23.5545 18.5419
" />
<path d="M23.5545 18.5419
L23.6021 18.5896
" />
<path d="M23.6021 18.5896
L23.6498 18.5419
" />
<path d="M23.6498 18.5419
L23.6021 18.4943
" />
<path d="M23.6021 18.4943
L23.6021 18.5896
" />
<path d="M23.6021 17.9705
L23.5545 18.0181
" />
<path d="M23.5545 18.0181
L23.6021 18.0658
" />
<path d="M23.6021 18.0658
L23.6498 18.0181
" />
<path d="M23.6498 18.0181
L23.6021 17.9705
" />
<path d="M23.6021 17.9705
L23.6021 18.0658
" />
<path d="M22.4117 17.5419
L23.2688 18.8277
" />
<path d="M21.3641 17.5419
L22.2212 18.8277
" />
<path d="M20.6021 17.9229
L20.6021 18.7324
" />
<path d="M20.6021 18.7324
L20.6498 18.8277
" />
<path d="M20.6498 18.8277
L20.6974 18.8753
" />
<path d="M20.6974 18.8753
L20.7926 18.9229
" />
<path d="M20.7926 18.9229
L20.9355 18.9229
" />
<path d="M20.9355 18.9229
L21.0307 18.8753
" />
<path d="M20.6021 18.5419
L20.6974 18.5896
" />
<path d="M20.6974 18.5896
L20.8879 18.5896
" />
<path d="M20.8879 18.5896
L20.9831 18.5419
" />
<path d="M20.9831 18.5419
L21.0307 18.4943
" />
<path d="M21.0307 18.4943
L21.0783 18.3991
" />
<path d="M21.0783 18.3991
L21.0783 18.1134
" />
<path d="M21.0783 18.1134
L21.0307 18.0181
" />
<path d="M21.0307 18.0181
L20.9831 17.9705
" />
<path d="M20.9831 17.9705
L20.8879 17.9229
" />
<path d="M20.8879 17.9229
L20.6974 17.9229
" />
<path d="M20.6974 17.9229
L20.6021 17.9705
" />
<path d="M20.1260 18.5896
L20.1260 17.9229
" />
<path d="M20.1260 17.5896
L20.1736 17.6372
" />
<path d="M20.1736 17.6372
L20.1260 17.6848
" />
<path d="M20.1260 17.6848
L20.0783 17.6372
" />
<path d="M20.0783 17.6372
L20.1260 17.5896
" />
<path d="M20.1260 17.5896
L20.1260 17.6848
" />
<path d="M19.7926 17.9229
L19.4117 17.9229
" />
<path d="M19.6498 17.5896
L19.6498 18.4467
" />
<path d="M19.6498 18.4467
L19.6021 18.5419
" />
<path d="M19.6021 18.5419
L19.5069 18.5896
" />
<path d="M19.5069 18.5896
L19.4117 18.5896
" />
<path d="M19.0783 18.5896
L19.0783 17.5896
" />
<path d="M18.6498 18.5896
L18.6498 18.0658
" />
<path d="M18.6498 18.0658
L18.6974 17.9705
" />
<path d="M18.6974 17.9705
L18.7926 17.9229
" />
<path d="M18.7926 17.9229
L18.9355 17.9229
" />
<path d="M18.9355 17.9229
L19.0307 17.9705
" />
<path d="M19.0307 17.9705
L19.0783 18.0181
" />
<path d="M17.7450 17.9229
L17.7450 18.5896
" />
<path d="M18.1736 17.9229
L18.1736 18.4467
" />
<path d="M18.1736 18.4467
L18.1260 18.5419
" />
<path d="M18.1260 18.5419
L18.0307 18.5896
" />
<path d="M18.0307 18.5896
L17.8879 18.5896
" />
<path d="M17.8879 18.5896
L17.7926 18.5419
" />
<path d="M17.7926 18.5419
L17.7450 18.4943
" />
<path d="M17.2688 18.5896
L17.2688 17.5896
" />
<path d="M17.2688 17.9705
L17.1736 17.9229
" />
<path d="M17.1736 17.9229
L16.9831 17.9229
" />
<path d="M16.9831 17.9229
L16.8879 17.9705
" />
<path d="M16.8879 17.9705
L16.8402 18.0181
" />
<path d="M16.8402 18.0181
L16.7926 18.1134
" />
<path d="M16.7926 18.1134
L16.7926 18.3991
" />
<path d="M16.7926 18.3991
L16.8402 18.4943
" />
<path d="M16.8402 18.4943
L16.8879 18.5419
" />
<path d="M16.8879 18.5419
L16.9831 18.5896
" />
<path d="M16.9831 18.5896
L17.1736 18.5896
" />
<path d="M17.1736 18.5896
L17.2688 18.5419
" />
<path d="M16.3640 18.4943
L16.3164 18.5419
" />
<path d="M16.3164 18.5419
L16.3640 18.5896
" />
<path d="M16.3640 18.5896
L16.4117 18.5419
" />
<path d="M16.4117 18.5419
L16.3640 18.4943
" />
<path d="M16.3640 18.4943
L16.3640 18.5896
" />
<path d="M15.4593 18.5419
L15.5545 18.5896
" />
<path d="M15.5545 18.5896
L15.7450 18.5896
" />
<path d="M15.7450 18.5896
L15.8402 18.5419
" />
<path d="M15.8402 18.5419
L15.8879 18.4943
" />
<path d="M15.8879 18.4943
L15.9355 18.3991
" />
<path d="M15.9355 18.3991
L15.9355 18.1134
" />
<path d="M15.9355 18.1134
L15.8879 18.0181
" />
<path d="M15.8879 18.0181
L15.8402 17.9705
" />
<path d="M15.8402 17.9705
L15.7450 17.9229
" />
<path d="M15.7450 17.9229
L15.5545 17.9229
" />
<path d="M15.5545 17.9229
L15.4593 17.9705
" />
<path d="M14.8879 18.5896
L14.9831 18.5419
" />
<path d="M14.9831 18.5419
L15.0307 18.4943
" />
<path d="M15.0307 18.4943
L15.0783 18.3991
" />
<path d="M15.0783 18.3991
L15.0783 18.1134
" />
<path d="M15.0783 18.1134
L15.0307 18.0181
" />
<path d="M15.0307 18.0181
L14.9831 17.9705
" />
<path d="M14.9831 17.9705
L14.8879 17.9229
" />
<path d="M14.8879 17.9229
L14.7450 17.9229
" />
<path d="M14.7450 17.9229
L14.6498 17.9705
" />
<path d="M14.6498 17.9705
L14.6021 18.0181
" />
<path d="M14.6021 18.0181
L14.5545 18.1134
" />
<path d="M14.5545 18.1134
L14.5545 18.3991
" />
<path d="M14.5545 18.3991
L14.6021 18.4943
" />
<path d="M14.6021 18.4943
L14.6498 18.5419
" />
<path d="M14.6498 18.5419
L14.7450 18.5896
" />
<path d="M14.7450 18.5896
L14.8879 18.5896
" />
<path d="M14.1260 18.5896
L14.1260 17.9229
" />
<path d="M14.1260 18.0181
L14.0783 17.9705
" />
<path d="M14.0783 17.9705
L13.9831 17.9229
" />
<path d="M13.9831 17.9229
L13.8402 17.9229
" />
<path d="M13.8402 17.9229
L13.7450 17.9705
" />
<path d="M13.7450 17.9705
L13.6974 18.0658
" />
<path d="M13.6974 18.0658
L13.6974 18.5896
" />
<path d="M13.6974 18.0658
L13.6498 17.9705
" />
<path d="M13.6498 17.9705
L13.5545 17.9229
" />
<path d="M13.5545 17.9229
L13.4117 17.9229
" />
<path d="M13.4117 17.9229
L13.3164 17.9705
" />
<path d="M13.3164 17.9705
L13.2688 18.0658
" />
<path d="M13.2688 18.0658
L13.2688 18.5896
" />
<path d="M12.0783 17.5419
L12.9355 18.8277
" />
<path d="M11.7450 18.5896
L11.7450 17.5896
" />
<path d="M11.6498 18.2086
L11.3641 18.5896
" />
<path d="M11.3641 17.9229
L11.7450 18.3038
" />
<path d="M10.7926 18.5896
L10.8879 18.5419
" />
<path d="M10.8879 18.5419
L10.9355 18.4943
" />
<path d="M10.9355 18.4943
L10.9831 18.3991
" />
<path d="M10.9831 18.3991
L10.9831 18.1134
" />
<path d="M10.9831 18.1134
L10.9355 18.0181
" />
<path d="M10.9355 18.0181
L10.8879 17.9705
" />
<path d="M10.8879 17.9705
L10.7926 17.9229
" />
<path d="M10.7926 17.9229
L10.6498 17.9229
" />
<path d="M10.6498 17.9229
L10.5545 17.9705
" />
<path d="M10.5545 17.9705
L10.5069 18.0181
" />
<path d="M10.5069 18.0181
L10.4593 18.1134
" />
<path d="M10.4593 18.1134
L10.4593 18.3991
" />
<path d="M10.4593 18.3991
L10.5069 18.4943
" />
<path d="M10.5069 18.4943
L10.5545 18.5419
" />
<path d="M10.5545 18.5419
L10.6498 18.5896
" />
<path d="M10.6498 18.5896
L10.7926 18.5896
" />
<path d="M9.8879 18.5896
L9.9831 18.5419
" />
<path d="M9.9831 18.5419
L10.0307 18.4943
" />
<path d="M10.0307 18.4943
L10.0783 18.3991
" />
<path d="M10.0783 18.3991
L10.0783 18.1134
" />
<path d="M10.0783 18.1134
L10.0307 18.0181
" />
<path d="M10.0307 18.0181
L9.9831 17.9705
" />
<path d="M9.9831 17.9705
L9.8879 17.9229
" />
<path d="M9.8879 17.9229
L9.7450 17.9229
" />
<path d="M9.7450 17.9229
L9.6498 17.9705
" />
<path d="M9.6498 17.9705
L9.6021 18.0181
" />
<path d="M9.6021 18.0181
L9.5545 18.1134
" />
<path d="M9.5545 18.1134
L9.5545 18.3991
" />
<path d="M9.5545 18.3991
L9.6021 18.4943
" />
<path d="M9.6021 18.4943
L9.6498 18.5419
" />
<path d="M9.6498 18.5419
L9.7450 18.5896
" />
<path d="M9.7450 18.5896
L9.8879 18.5896
" />
<path d="M9.1260 17.9229
L9.1260 18.9229
" />
<path d="M9.1260 17.9705
L9.0307 17.9229
" />
<path d="M9.0307 17.9229
L8.8402 17.9229
" />
<path d="M8.8402 17.9229
L8.7450 17.9705
" />
<path d="M8.7450 17.9705
L8.6974 18.0181
" />
<path d="M8.6974 18.0181
L8.6498 18.1134
" />
<path d="M8.6498 18.1134
L8.6498 18.3991
" />
<path d="M8.6498 18.3991
L8.6974 18.4943
" />
<path d="M8.6974 18.4943
L8.7450 18.5419
" />
<path d="M8.7450 18.5419
L8.8402 18.5896
" />
<path d="M8.8402 18.5896
L9.0307 18.5896
" />
<path d="M9.0307 18.5896
L9.1260 18.5419
" />
<path d="M7.8402 18.5419
L7.9355 18.5896
" />
<path d="M7.9355 18.5896
L8.1260 18.5896
" />
<path d="M8.1260 18.5896
L8.2212 18.5419
" />
<path d="M8.2212 18.5419
L8.2688 18.4467
" />
<path d="M8.2688 18.4467
L8.2688 18.0658
" />
<path d="M8.2688 18.0658
L8.2212 17.9705
" />
<path d="M8.2212 17.9705
L8.1260 17.9229
" />
<path d="M8.1260 17.9229
L7.9355 17.9229
" />
<path d="M7.9355 17.9229
L7.8402 17.9705
" />
<path d="M7.8402 17.9705
L7.7926 18.0658
" />
<path d="M7.7926 18.0658
L7.7926 18.1610
" />
<path d="M7.7926 18.1610
L8.2688 18.2562
" />
<path d="M7.3640 18.5896
L7.3640 17.9229
" />
<path d="M7.3640 18.1134
L7.3164 18.0181
" />
<path d="M7.3164 18.0181
L7.2688 17.9705
" />
<path d="M7.2688 17.9705
L7.1736 17.9229
" />
<path d="M7.1736 17.9229
L7.0783 17.9229
" />
<path d="M6.6021 18.5896
L6.6974 18.5419
" />
<path d="M6.6974 18.5419
L6.7450 18.4943
" />
<path d="M6.7450 18.4943
L6.7926 18.3991
" />
<path d="M6.7926 18.3991
L6.7926 18.1134
" />
<path d="M6.7926 18.1134
L6.7450 18.0181
" />
<path d="M6.7450 18.0181
L6.6974 17.9705
" />
<path d="M6.6974 17.9705
L6.6021 17.9229
" />
<path d="M6.6021 17.9229
L6.4593 17.9229
" />
<path d="M6.4593 17.9229
L6.3640 17.9705
" />
<path d="M6.3640 17.9705
L6.3164 18.0181
" />
<path d="M6.3164 18.0181
L6.2688 18.1134
" />
<path d="M6.2688 18.1134
L6.2688 18.3991
" />
<path d="M6.2688 18.3991
L6.3164 18.4943
" />
<path d="M6.3164 18.4943
L6.3640 18.5419
" />
<path d="M6.3640 18.5419
L6.4593 18.5896
" />
<path d="M6.4593 18.5896
L6.6021 18.5896
" />
<path d="M5.1260 17.5419
L5.9831 18.8277
" />
<path d="M4.7926 18.5896
L4.7926 17.5896
" />
<path d="M4.7926 17.5896
L4.4117 17.5896
" />
<path d="M4.4117 17.5896
L4.3164 17.6372
" />
<path d="M4.3164 17.6372
L4.2688 17.6848
" />
<path d="M4.2688 17.6848
L4.2212 17.7800
" />
<path d="M4.2212 17.7800
L4.2212 17.9229
" />
<path d="M4.2212 17.9229
L4.2688 18.0181
" />
<path d="M4.2688 18.0181
L4.3164 18.0658
" />
<path d="M4.3164 18.0658
L4.4117 18.1134
" />
<path d="M4.4117 18.1134
L4.7926 18.1134
" />
<path d="M3.6498 18.5896
L3.7450 18.5419
" />
<path d="M3.7450 18.5419
L3.7926 18.4467
" />
<path d="M3.7926 18.4467
L3.7926 17.5896
" />
<path d="M2.8402 18.5896
L2.8402 18.0658
" />
<path d="M2.8402 18.0658
L2.8879 17.9705
" />
<path d="M2.8879 17.9705
L2.9831 17.9229
" />
<path d="M2.9831 17.9229
L3.1736 17.9229
" />
<path d="M3.1736 17.9229
L3.2688 17.9705
" />
<path d="M2.8402 18.5419
L2.9355 18.5896
" />
<path d="M2.9355 18.5896
L3.1736 18.5896
" />
<path d="M3.1736 18.5896
L3.2688 18.5419
" />
<path d="M3.2688 18.5419
L3.3164 18.4467
" />
<path d="M3.3164 18.4467
L3.3164 18.3515
" />
<path d="M3.3164 18.3515
L3.2688 18.2562
" />
<path d="M3.2688 18.2562
L3.1736 18.2086
" />
<path d="M3.1736 18.2086
L2.9355 18.2086
" />
<path d="M2.9355 18.2086
L2.8402 18.1610
" />
<path d="M2.5069 17.9229
L2.1260 17.9229
" />
<path d="M2.3640 17.5896
L2.3640 18.4467
" />
<path d="M2.3640 18.4467
L2.3164 18.5419
" />
<path d="M2.3164 18.5419
L2.2212 18.5896
" />
<path d="M2.2212 18.5896
L2.1260 18.5896
" />
<path d="M1.6498 18.5896
L1.7450 18.5419
" />
<path d="M1.7450 18.5419
L1.7926 18.4943
" />
<path d="M1.7926 18.4943
L1.8402 18.3991
" />
<path d="M1.8402 18.3991
L1.8402 18.1134
" />
<path d="M1.8402 18.1134
L1.7926 18.0181
" />
<path d="M1.7926 18.0181
L1.7450 17.9705
" />
<path d="M1.7450 17.9705
L1.6498 17.9229
" />
<path d="M1.6498 17.9229
L1.5069 17.9229
" />
<path d="M1.5069 17.9229
L1.4117 17.9705
" />
<path d="M1.4117 17.9705
L1.3640 18.0181
" />
<path d="M1.3640 18.0181
L1.3164 18.1134
" />
<path d="M1.3164 18.1134
L1.3164 18.3991
" />
<path d="M1.3164 18.3991
L1.3640 18.4943
" />
<path d="M1.3640 18.4943
L1.4117 18.5419
" />
<path d="M1.4117 18.5419
L1.5069 18.5896
" />
<path d="M1.5069 18.5896
L1.6498 18.5896
" />
</g><text x="1.0602" y="20.3271"
transform="scale(-1 1) translate(-2.120330 0)"
textLength="10.3857" font-size="1.3333" lengthAdjust="spacingAndGlyphs"
text-anchor="end" opacity="0">JLCJLCJLCJLC</text>
<g class="stroked-text"><desc>JLCJLCJLCJLC</desc>
<path d="M10.8879 19.1995
L10.8879 19.9138
" />
<path d="M10.8879 19.9138
L10.9355 20.0566
" />
<path d="M10.9355 20.0566
L11.0307 20.1519
" />
<path d="M11.0307 20.1519
L11.1736 20.1995
" />
<path d="M11.1736 20.1995
L11.2688 20.1995
" />
<path d="M9.9355 20.1995
L10.4117 20.1995
" />
<path d="M10.4117 20.1995
L10.4117 19.1995
" />
<path d="M9.0307 20.1043
L9.0783 20.1519
" />
<path d="M9.0783 20.1519
L9.2212 20.1995
" />
<path d="M9.2212 20.1995
L9.3164 20.1995
" />
<path d="M9.3164 20.1995
L9.4593 20.1519
" />
<path d="M9.4593 20.1519
L9.5545 20.0566
" />
<path d="M9.5545 20.0566
L9.6021 19.9614
" />
<path d="M9.6021 19.9614
L9.6498 19.7709
" />
<path d="M9.6498 19.7709
L9.6498 19.6281
" />
<path d="M9.6498 19.6281
L9.6021 19.4376
" />
<path d="M9.6021 19.4376
L9.5545 19.3424
" />
<path d="M9.5545 19.3424
L9.4593 19.2471
" />
<path d="M9.4593 19.2471
L9.3164 19.1995
" />
<path d="M9.3164 19.1995
L9.2212 19.1995
" />
<path d="M9.2212 19.1995
L9.0783 19.2471
" />
<path d="M9.0783 19.2471
L9.0307 19.2947
" />
<path d="M8.3164 19.1995
L8.3164 19.9138
" />
<path d="M8.3164 19.9138
L8.3640 20.0566
" />
<path d="M8.3640 20.0566
L8.4593 20.1519
" />
<path d="M8.4593 20.1519
L8.6021 20.1995
" />
<path d="M8.6021 20.1995
L8.6974 20.1995
" />
<path d="M7.3640 20.1995
L7.8402 20.1995
" />
<path d="M7.8402 20.1995
L7.8402 19.1995
" />
<path d="M6.4593 20.1043
L6.5069 20.1519
" />
<path d="M6.5069 20.1519
L6.6498 20.1995
" />
<path d="M6.6498 20.1995
L6.7450 20.1995
" />
<path d="M6.7450 20.1995
L6.8879 20.1519
" />
<path d="M6.8879 20.1519
L6.9831 20.0566
" />
<path d="M6.9831 20.0566
L7.0307 19.9614
" />
<path d="M7.0307 19.9614
L7.0783 19.7709
" />
<path d="M7.0783 19.7709
L7.0783 19.6281
" />
<path d="M7.0783 19.6281
L7.0307 19.4376
" />
<path d="M7.0307 19.4376
L6.9831 19.3424
" />
<path d="M6.9831 19.3424
L6.8879 19.2471
" />
<path d="M6.8879 19.2471
L6.7450 19.1995
" />
<path d="M6.7450 19.1995
L6.6498 19.1995
" />
<path d="M6.6498 19.1995
L6.5069 19.2471
" />
<path d="M6.5069 19.2471
L6.4593 19.2947
" />
<path d="M5.7450 19.1995
L5.7450 19.9138
" />
<path d="M5.7450 19.9138
L5.7926 20.0566
" />
<path d="M5.7926 20.0566
L5.8879 20.1519
" />
<path d="M5.8879 20.1519
L6.0307 20.1995
" />
<path d="M6.0307 20.1995
L6.1260 20.1995
" />
<path d="M4.7926 20.1995
L5.2688 20.1995
" />
<path d="M5.2688 20.1995
L5.2688 19.1995
" />
<path d="M3.8879 20.1043
L3.9355 20.1519
" />
<path d="M3.9355 20.1519
L4.0783 20.1995
" />
<path d="M4.0783 20.1995
L4.1736 20.1995
" />
<path d="M4.1736 20.1995
L4.3164 20.1519
" />
<path d="M4.3164 20.1519
L4.4117 20.0566
" />
<path d="M4.4117 20.0566
L4.4593 19.9614
" />
<path d="M4.4593 19.9614
L4.5069 19.7709
" />
<path d="M4.5069 19.7709
L4.5069 19.6281
" />
<path d="M4.5069 19.6281
L4.4593 19.4376
" />
<path d="M4.4593 19.4376
L4.4117 19.3424
" />
<path d="M4.4117 19.3424
L4.3164 19.2471
" />
<path d="M4.3164 19.2471
L4.1736 19.1995
" />
<path d="M4.1736 19.1995
L4.0783 19.1995
" />
<path d="M4.0783 19.1995
L3.9355 19.2471
" />
<path d="M3.9355 19.2471
L3.8879 19.2947
" />
<path d="M3.1736 19.1995
L3.1736 19.9138
" />
<path d="M3.1736 19.9138
L3.2212 20.0566
" />
<path d="M3.2212 20.0566
L3.3164 20.1519
" />
<path d="M3.3164 20.1519
L3.4593 20.1995
" />
<path d="M3.4593 20.1995
L3.5545 20.1995
" />
<path d="M2.2212 20.1995
L2.6974 20.1995
" />
<path d="M2.6974 20.1995
L2.6974 19.1995
" />
<path d="M1.3164 20.1043
L1.3640 20.1519
" />
<path d="M1.3640 20.1519
L1.5069 20.1995
" />
<path d="M1.5069 20.1995
L1.6021 20.1995
" />
<path d="M1.6021 20.1995
L1.7450 20.1519
" />
<path d="M1.7450 20.1519
L1.8402 20.0566
" />
<path d="M1.8402 20.0566
L1.8879 19.9614
" />
<path d="M1.8879 19.9614
L1.9355 19.7709
" />
<path d="M1.9355 19.7709
L1.9355 19.6281
" />
<path d="M1.9355 19.6281
L1.8879 19.4376
" />
<path d="M1.8879 19.4376
L1.8402 19.3424
" />
<path d="M1.8402 19.3424
L1.7450 19.2471
" />
<path d="M1.7450 19.2471
L1.6021 19.1995
" />
<path d="M1.6021 19.1995
L1.5069 19.1995
" />
<path d="M1.5069 19.1995
L1.3640 19.2471
" />
<path d="M1.3640 19.2471
L1.3164 19.2947
" />
</g><text x="5.4411" y="28.8271"
transform="scale(-1 1) translate(-10.882156 0)"
textLength="3.9571" font-size="1.3333" lengthAdjust="spacingAndGlyphs"
text-anchor="middle" opacity="0">DOUT</text>
<g class="stroked-text"><desc>DOUT</desc>
<path d="M7.1316 28.7845
L7.1316 27.7845
" />
<path d="M7.1316 27.7845
L6.8935 27.7845
" />
<path d="M6.8935 27.7845
L6.7506 27.8321
" />
<path d="M6.7506 27.8321
L6.6554 27.9274
" />
<path d="M6.6554 27.9274
L6.6077 28.0226
" />
<path d="M6.6077 28.0226
L6.5601 28.2131
" />
<path d="M6.5601 28.2131
L6.5601 28.3559
" />
<path d="M6.5601 28.3559
L6.6077 28.5464
" />
<path d="M6.6077 28.5464
L6.6554 28.6416
" />
<path d="M6.6554 28.6416
L6.7506 28.7369
" />
<path d="M6.7506 28.7369
L6.8935 28.7845
" />
<path d="M6.8935 28.7845
L7.1316 28.7845
" />
<path d="M5.9411 27.7845
L5.7506 27.7845
" />
<path d="M5.7506 27.7845
L5.6554 27.8321
" />
<path d="M5.6554 27.8321
L5.5601 27.9274
" />
<path d="M5.5601 27.9274
L5.5125 28.1178
" />
<path d="M5.5125 28.1178
L5.5125 28.4512
" />
<path d="M5.5125 28.4512
L5.5601 28.6416
" />
<path d="M5.5601 28.6416
L5.6554 28.7369
" />
<path d="M5.6554 28.7369
L5.7506 28.7845
" />
<path d="M5.7506 28.7845
L5.9411 28.7845
" />
<path d="M5.9411 28.7845
L6.0363 28.7369
" />
<path d="M6.0363 28.7369
L6.1316 28.6416
" />
<path d="M6.1316 28.6416
L6.1792 28.4512
" />
<path d="M6.1792 28.4512
L6.1792 28.1178
" />
<path d="M6.1792 28.1178
L6.1316 27.9274
" />
<path d="M6.1316 27.9274
L6.0363 27.8321
" />
<path d="M6.0363 27.8321
L5.9411 27.7845
" />
<path d="M5.0839 27.7845
L5.0839 28.5940
" />
<path d="M5.0839 28.5940
L5.0363 28.6893
" />
<path d="M5.0363 28.6893
L4.9887 28.7369
" />
<path d="M4.9887 28.7369
L4.8935 28.7845
" />
<path d="M4.8935 28.7845
L4.7030 28.7845
" />
<path d="M4.7030 28.7845
L4.6077 28.7369
" />
<path d="M4.6077 28.7369
L4.5601 28.6893
" />
<path d="M4.5601 28.6893
L4.5125 28.5940
" />
<path d="M4.5125 28.5940
L4.5125 27.7845
" />
<path d="M4.1792 27.7845
L3.6077 27.7845
" />
<path d="M3.8935 28.7845
L3.8935 27.7845
" />
</g><text x="5.4411" y="5.3271"
transform="scale(-1 1) translate(-10.882156 0)"
textLength="1.9095" font-size="1.3333" lengthAdjust="spacingAndGlyphs"
text-anchor="middle" opacity="0">5V</text>
<g class="stroked-text"><desc>5V</desc>
<path d="M5.6316 4.2845
L6.1077 4.2845
" />
<path d="M6.1077 4.2845
L6.1554 4.7607
" />
<path d="M6.1554 4.7607
L6.1077 4.7131
" />
<path d="M6.1077 4.7131
L6.0125 4.6655
" />
<path d="M6.0125 4.6655
L5.7744 4.6655
" />
<path d="M5.7744 4.6655
L5.6792 4.7131
" />
<path d="M5.6792 4.7131
L5.6316 4.7607
" />
<path d="M5.6316 4.7607
L5.5839 4.8559
" />
<path d="M5.5839 4.8559
L5.5839 5.0940
" />
<path d="M5.5839 5.0940
L5.6316 5.1893
" />
<path d="M5.6316 5.1893
L5.6792 5.2369
" />
<path d="M5.6792 5.2369
L5.7744 5.2845
" />
<path d="M5.7744 5.2845
L6.0125 5.2845
" />
<path d="M6.0125 5.2845
L6.1077 5.2369
" />
<path d="M6.1077 5.2369
L6.1554 5.1893
" />
<path d="M5.2982 4.2845
L4.9649 5.2845
" />
<path d="M4.9649 5.2845
L4.6316 4.2845
" />
</g><text x="5.4411" y="10.3271"
transform="scale(-1 1) translate(-10.882156 0)"
textLength="3.1476" font-size="1.3333" lengthAdjust="spacingAndGlyphs"
text-anchor="middle" opacity="0">GND</text>
<g class="stroked-text"><desc>GND</desc>
<path d="M6.2030 9.3321
L6.2982 9.2845
" />
<path d="M6.2982 9.2845
L6.4411 9.2845
" />
<path d="M6.4411 9.2845
L6.5839 9.3321
" />
<path d="M6.5839 9.3321
L6.6792 9.4274
" />
<path d="M6.6792 9.4274
L6.7268 9.5226
" />
<path d="M6.7268 9.5226
L6.7744 9.7131
" />
<path d="M6.7744 9.7131
L6.7744 9.8559
" />
<path d="M6.7744 9.8559
L6.7268 10.0464
" />
<path d="M6.7268 10.0464
L6.6792 10.1416
" />
<path d="M6.6792 10.1416
L6.5839 10.2369
" />
<path d="M6.5839 10.2369
L6.4411 10.2845
" />
<path d="M6.4411 10.2845
L6.3458 10.2845
" />
<path d="M6.3458 10.2845
L6.2030 10.2369
" />
<path d="M6.2030 10.2369
L6.1554 10.1893
" />
<path d="M6.1554 10.1893
L6.1554 9.8559
" />
<path d="M6.1554 9.8559
L6.3458 9.8559
" />
<path d="M5.7268 10.2845
L5.7268 9.2845
" />
<path d="M5.7268 9.2845
L5.1554 10.2845
" />
<path d="M5.1554 10.2845
L5.1554 9.2845
" />
<path d="M4.6792 10.2845
L4.6792 9.2845
" />
<path d="M4.6792 9.2845
L4.4411 9.2845
" />
<path d="M4.4411 9.2845
L4.2982 9.3321
" />
<path d="M4.2982 9.3321
L4.2030 9.4274
" />
<path d="M4.2030 9.4274
L4.1554 9.5226
" />
<path d="M4.1554 9.5226
L4.1077 9.7131
" />
<path d="M4.1077 9.7131
L4.1077 9.8559
" />
<path d="M4.1077 9.8559
L4.1554 10.0464
" />
<path d="M4.1554 10.0464
L4.2030 10.1416
" />
<path d="M4.2030 10.1416
L4.2982 10.2369
" />
<path d="M4.2982 10.2369
L4.4411 10.2845
" />
<path d="M4.4411 10.2845
L4.6792 10.2845
" />
</g><text x="5.4411" y="26.3271"
transform="scale(-1 1) translate(-10.882156 0)"
textLength="1.9095" font-size="1.3333" lengthAdjust="spacingAndGlyphs"
text-anchor="middle" opacity="0">5V</text>
<g class="stroked-text"><desc>5V</desc>
<path d="M5.6316 25.2845
L6.1077 25.2845
" />
<path d="M6.1077 25.2845
L6.1554 25.7607
" />
<path d="M6.1554 25.7607
L6.1077 25.7131
" />
<path d="M6.1077 25.7131
L6.0125 25.6655
" />
<path d="M6.0125 25.6655
L5.7744 25.6655
" />
<path d="M5.7744 25.6655
L5.6792 25.7131
" />
<path d="M5.6792 25.7131
L5.6316 25.7607
" />
<path d="M5.6316 25.7607
L5.5839 25.8559
" />
<path d="M5.5839 25.8559
L5.5839 26.0940
" />
<path d="M5.5839 26.0940
L5.6316 26.1893
" />
<path d="M5.6316 26.1893
L5.6792 26.2369
" />
<path d="M5.6792 26.2369
L5.7744 26.2845
" />
<path d="M5.7744 26.2845
L6.0125 26.2845
" />
<path d="M6.0125 26.2845
L6.1077 26.2369
" />
<path d="M6.1077 26.2369
L6.1554 26.1893
" />
<path d="M5.2982 25.2845
L4.9649 26.2845
" />
<path d="M4.9649 26.2845
L4.6316 25.2845
" />
</g><text x="5.4411" y="31.3271"
transform="scale(-1 1) translate(-10.882156 0)"
textLength="3.1476" font-size="1.3333" lengthAdjust="spacingAndGlyphs"
text-anchor="middle" opacity="0">GND</text>
<g class="stroked-text"><desc>GND</desc>
<path d="M6.2030 30.3321
L6.2982 30.2845
" />
<path d="M6.2982 30.2845
L6.4411 30.2845
" />
<path d="M6.4411 30.2845
L6.5839 30.3321
" />
<path d="M6.5839 30.3321
L6.6792 30.4274
" />
<path d="M6.6792 30.4274
L6.7268 30.5226
" />
<path d="M6.7268 30.5226
L6.7744 30.7131
" />
<path d="M6.7744 30.7131
L6.7744 30.8559
" />
<path d="M6.7744 30.8559
L6.7268 31.0464
" />
<path d="M6.7268 31.0464
L6.6792 31.1416
" />
<path d="M6.6792 31.1416
L6.5839 31.2369
" />
<path d="M6.5839 31.2369
L6.4411 31.2845
" />
<path d="M6.4411 31.2845
L6.3458 31.2845
" />
<path d="M6.3458 31.2845
L6.2030 31.2369
" />
<path d="M6.2030 31.2369
L6.1554 31.1893
" />
<path d="M6.1554 31.1893
L6.1554 30.8559
" />
<path d="M6.1554 30.8559
L6.3458 30.8559
" />
<path d="M5.7268 31.2845
L5.7268 30.2845
" />
<path d="M5.7268 30.2845
L5.1554 31.2845
" />
<path d="M5.1554 31.2845
L5.1554 30.2845
" />
<path d="M4.6792 31.2845
L4.6792 30.2845
" />
<path d="M4.6792 30.2845
L4.4411 30.2845
" />
<path d="M4.4411 30.2845
L4.2982 30.3321
" />
<path d="M4.2982 30.3321
L4.2030 30.4274
" />
<path d="M4.2030 30.4274
L4.1554 30.5226
" />
<path d="M4.1554 30.5226
L4.1077 30.7131
" />
<path d="M4.1077 30.7131
L4.1077 30.8559
" />
<path d="M4.1077 30.8559
L4.1554 31.0464
" />
<path d="M4.1554 31.0464
L4.2030 31.1416
" />
<path d="M4.2030 31.1416
L4.2982 31.2369
" />
<path d="M4.2982 31.2369
L4.4411 31.2845
" />
<path d="M4.4411 31.2845
L4.6792 31.2845
" />
</g><text x="5.4411" y="7.8271"
transform="scale(-1 1) translate(-10.882156 0)"
textLength="2.6238" font-size="1.3333" lengthAdjust="spacingAndGlyphs"
text-anchor="middle" opacity="0">DIN</text>
<g class="stroked-text"><desc>DIN</desc>
<path d="M6.4649 7.7845
L6.4649 6.7845
" />
<path d="M6.4649 6.7845
L6.2268 6.7845
" />
<path d="M6.2268 6.7845
L6.0839 6.8321
" />
<path d="M6.0839 6.8321
L5.9887 6.9274
" />
<path d="M5.9887 6.9274
L5.9411 7.0226
" />
<path d="M5.9411 7.0226
L5.8935 7.2131
" />
<path d="M5.8935 7.2131
L5.8935 7.3559
" />
<path d="M5.8935 7.3559
L5.9411 7.5464
" />
<path d="M5.9411 7.5464
L5.9887 7.6416
" />
<path d="M5.9887 7.6416
L6.0839 7.7369
" />
<path d="M6.0839 7.7369
L6.2268 7.7845
" />
<path d="M6.2268 7.7845
L6.4649 7.7845
" />
<path d="M5.4649 7.7845
L5.4649 6.7845
" />
<path d="M4.9887 7.7845
L4.9887 6.7845
" />
<path d="M4.9887 6.7845
L4.4173 7.7845
" />
<path d="M4.4173 7.7845
L4.4173 6.7845
" />
</g></g>
<g style="fill:none; 
stroke:#000000; stroke-width:0.2000; stroke-opacity:1; 
stroke-linecap:round; stroke-linejoin:round;">
<path d="M31.0505 17.7034
L31.0698 17.7493
" />
<path d="M0.4646 35.7222
L0.4173 35.7063
" />
<path d="M31.0266 17.6596
L31.0505 17.7034
" />
<path d="M31.0845 17.7970
L31.0944 17.8458
" />
<path d="M0.5132 35.7333
L0.4646 35.7222
" />
<path d="M0.6125 0.1000
L0.6622 0.1037
" />
<path d="M30.9986 17.6185
L31.0266 17.6596
" />
<path d="M0.6125 35.7407
L0.5626 35.7395
" />
<path d="M0.1000 0.5998
L0.1025 0.5501
" />
<path d="M0.1099 35.3399
L0.1025 35.2906
" />
<path d="M0.1025 35.2906
L0.1000 35.2409
" />
<path d="M0.3719 0.1549
L0.4173 0.1344
" />
<path d="M30.9665 17.5803
L30.9986 17.6185
" />
<path d="M30.8919 17.5144
L30.9308 17.5455
" />
<path d="M31.0698 17.7493
L31.0845 17.7970
" />
<path d="M31.0994 17.9453
L31.0944 17.9949
" />
<path d="M0.1025 0.5501
L0.1099 0.5008
" />
<path d="M0.7113 0.1124
L0.7592 0.1259
" />
<path d="M31.0944 17.9949
L31.0845 18.0437
" />
<path d="M0.5132 0.1074
L0.5626 0.1012
" />
<path d="M0.8056 35.6966
L0.7592 35.7148
" />
<path d="M0.1393 35.4351
L0.1222 35.3882
" />
<path d="M0.8500 0.1668
L30.8500 17.4873
" />
<path d="M31.0994 17.8954
L31.0994 17.9453
" />
<path d="M0.8056 0.1441
L0.8500 0.1668
" />
<path d="M0.7592 35.7148
L0.7113 35.7283
" />
<path d="M0.3719 35.6858
L0.3287 35.6609
" />
<path d="M0.1869 35.5225
L0.1609 35.4800
" />
<path d="M31.0944 17.8458
L31.0994 17.8954
" />
<path d="M31.0505 18.1373
L31.0266 18.1811
" />
<path d="M30.8919 18.3263
L30.8500 18.3534
" />
<path d="M0.5626 35.7395
L0.5132 35.7333
" />
<path d="M0.6622 35.7370
L0.6125 35.7407
" />
<path d="M0.8500 35.6739
L0.8056 35.6966
" />
<path d="M30.9986 18.2223
L30.9665 18.2604
" />
<path d="M0.4173 0.1344
L0.4646 0.1185
" />
<path d="M31.0845 18.0437
L31.0698 18.0914
" />
<path d="M0.1393 0.4056
L0.1609 0.3607
" />
<path d="M0.6622 0.1037
L0.7113 0.1124
" />
<path d="M0.2170 0.2785
L0.2509 0.2419
" />
<path d="M31.0266 18.1811
L30.9986 18.2223
" />
<path d="M0.5626 0.1012
L0.6125 0.1000
" />
<path d="M0.1869 0.3182
L0.2170 0.2785
" />
<path d="M0.1222 35.3882
L0.1099 35.3399
" />
<path d="M30.8500 18.3534
L0.8500 35.6739
" />
<path d="M0.3287 35.6609
L0.2883 35.6318
" />
<path d="M0.3287 0.1798
L0.3719 0.1549
" />
<path d="M0.1000 35.2409
L0.1000 0.5998
" />
<path d="M30.9308 18.2952
L30.8919 18.3263
" />
<path d="M0.7113 35.7283
L0.6622 35.7370
" />
<path d="M0.1099 0.5008
L0.1222 0.4525
" />
<path d="M0.2509 35.5988
L0.2170 35.5623
" />
<path d="M0.2883 35.6318
L0.2509 35.5988
" />
<path d="M0.7592 0.1259
L0.8056 0.1441
" />
<path d="M31.0698 18.0914
L31.0505 18.1373
" />
<path d="M30.9308 17.5455
L30.9665 17.5803
" />
<path d="M0.2509 0.2419
L0.2883 0.2089
" />
<path d="M0.1609 35.4800
L0.1393 35.4351
" />
<path d="M30.9665 18.2604
L30.9308 18.2952
" />
<path d="M0.1609 0.3607
L0.1869 0.3182
" />
<path d="M0.2170 35.5623
L0.1869 35.5225
" />
<path d="M0.4646 0.1185
L0.5132 0.1074
" />
<path d="M0.2883 0.2089
L0.3287 0.1798
" />
<path d="M30.8500 17.4873
L30.8919 17.5144
" />
<path d="M0.4173 35.7063
L0.3719 35.6858
" />
<path d="M0.1222 0.4525
L0.1393 0.4056
" />
</g> 
</svg>
