<?xml version="1.0" standalone="no"?>
 <!DOCTYPE svg PUBLIC "-//W3C//DTD SVG 1.1//EN" 
 "http://www.w3.org/Graphics/SVG/1.1/DTD/svg11.dtd"> 
<svg
  xmlns:svg="http://www.w3.org/2000/svg"
  xmlns="http://www.w3.org/2000/svg"
  xmlns:xlink="http://www.w3.org/1999/xlink"
  version="1.1"
  width="1069.3654mm" height="565.6834mm" viewBox="0.0000 0.0000 1069.3654 565.6834">
<title>SVG Image created as Plato_A2-F_Courtyard.svg date 2024/05/01 23:10:35 </title>
  <desc>Image generated by PCBNEW </desc>
<g style="fill:#000000; fill-opacity:1.0000;stroke:#000000; stroke-opacity:1.0000;
stroke-linecap:round; stroke-linejoin:round;"
 transform="translate(0 0) scale(1 1)">
</g>
<g style="fill:none; 
stroke:#000000; stroke-width:0.0500; stroke-opacity:1; 
stroke-linecap:round; stroke-linejoin:round;">
<circle cx="7.7503" cy="34.7590" r="1.2500" /> 
<circle cx="22.7503" cy="8.7782" r="1.2500" /> 
<circle cx="25.7503" cy="13.9744" r="1.3363" /> 
<circle cx="19.7503" cy="13.9744" r="1.3363" /> 
<circle cx="34.7503" cy="29.5629" r="1.3363" /> 
<circle cx="31.7503" cy="34.7590" r="1.3363" /> 
<circle cx="13.7503" cy="34.7590" r="1.3363" /> 
<circle cx="10.7503" cy="29.5629" r="1.3363" /> 
<path d="M3.2303 35.2411
L3.2303 37.7411
" />
<path d="M3.2303 37.7411
L6.2703 37.7411
" />
<path d="M6.2703 35.2411
L3.2303 35.2411
" />
<path d="M6.2703 37.7411
L6.2703 35.2411
" />
<path d="M9.2303 35.2411
L9.2303 37.7411
" />
<path d="M9.2303 37.7411
L12.2703 37.7411
" />
<path d="M12.2703 35.2411
L9.2303 35.2411
" />
<path d="M12.2703 37.7411
L12.2703 35.2411
" />
<path d="M15.2303 35.2411
L15.2303 37.7411
" />
<path d="M15.2303 37.7411
L18.2703 37.7411
" />
<path d="M18.2703 35.2411
L15.2303 35.2411
" />
<path d="M18.2703 37.7411
L18.2703 35.2411
" />
<path d="M21.2303 35.2411
L21.2303 37.7411
" />
<path d="M21.2303 37.7411
L24.2703 37.7411
" />
<path d="M24.2703 35.2411
L21.2303 35.2411
" />
<path d="M24.2703 37.7411
L24.2703 35.2411
" />
<path d="M27.2303 35.2411
L27.2303 37.7411
" />
<path d="M27.2303 37.7411
L30.2703 37.7411
" />
<path d="M30.2703 35.2411
L27.2303 35.2411
" />
<path d="M30.2703 37.7411
L30.2703 35.2411
" />
<path d="M33.2303 35.2411
L33.2303 37.7411
" />
<path d="M33.2303 37.7411
L36.2703 37.7411
" />
<path d="M36.2703 35.2411
L33.2303 35.2411
" />
<path d="M36.2703 37.7411
L36.2703 35.2411
" />
<path d="M39.2303 35.2411
L39.2303 37.7411
" />
<path d="M39.2303 37.7411
L42.2703 37.7411
" />
<path d="M42.2703 35.2411
L39.2303 35.2411
" />
<path d="M42.2703 37.7411
L42.2703 35.2411
" />
<path d="M39.2703 32.5449
L39.2703 30.0449
" />
<path d="M39.2703 30.0449
L36.2303 30.0449
" />
<path d="M36.2303 32.5449
L39.2703 32.5449
" />
<path d="M36.2303 30.0449
L36.2303 32.5449
" />
<path d="M33.2703 32.5449
L33.2703 30.0449
" />
<path d="M33.2703 30.0449
L30.2303 30.0449
" />
<path d="M30.2303 32.5449
L33.2703 32.5449
" />
<path d="M30.2303 30.0449
L30.2303 32.5449
" />
<path d="M27.2703 32.5449
L27.2703 30.0449
" />
<path d="M27.2703 30.0449
L24.2303 30.0449
" />
<path d="M24.2303 32.5449
L27.2703 32.5449
" />
<path d="M24.2303 30.0449
L24.2303 32.5449
" />
<path d="M21.2703 32.5449
L21.2703 30.0449
" />
<path d="M21.2703 30.0449
L18.2303 30.0449
" />
<path d="M18.2303 32.5449
L21.2703 32.5449
" />
<path d="M18.2303 30.0449
L18.2303 32.5449
" />
<path d="M15.2703 32.5449
L15.2703 30.0449
" />
<path d="M15.2703 30.0449
L12.2303 30.0449
" />
<path d="M12.2303 32.5449
L15.2703 32.5449
" />
<path d="M12.2303 30.0449
L12.2303 32.5449
" />
<path d="M9.2703 32.5449
L9.2703 30.0449
" />
<path d="M9.2703 30.0449
L6.2303 30.0449
" />
<path d="M6.2303 32.5449
L9.2703 32.5449
" />
<path d="M6.2303 30.0449
L6.2303 32.5449
" />
<path d="M9.2303 24.8488
L9.2303 27.3488
" />
<path d="M9.2303 27.3488
L12.2703 27.3488
" />
<path d="M12.2703 24.8488
L9.2303 24.8488
" />
<path d="M12.2703 27.3488
L12.2703 24.8488
" />
<path d="M15.2303 24.8488
L15.2303 27.3488
" />
<path d="M15.2303 27.3488
L18.2703 27.3488
" />
<path d="M18.2703 24.8488
L15.2303 24.8488
" />
<path d="M18.2703 27.3488
L18.2703 24.8488
" />
<path d="M21.2303 24.8488
L21.2303 27.3488
" />
<path d="M21.2303 27.3488
L24.2703 27.3488
" />
<path d="M24.2703 24.8488
L21.2303 24.8488
" />
<path d="M24.2703 27.3488
L24.2703 24.8488
" />
<path d="M27.2303 24.8488
L27.2303 27.3488
" />
<path d="M27.2303 27.3488
L30.2703 27.3488
" />
<path d="M30.2703 24.8488
L27.2303 24.8488
" />
<path d="M30.2703 27.3488
L30.2703 24.8488
" />
<path d="M33.2303 24.8488
L33.2303 27.3488
" />
<path d="M33.2303 27.3488
L36.2703 27.3488
" />
<path d="M36.2703 24.8488
L33.2303 24.8488
" />
<path d="M36.2703 27.3488
L36.2703 24.8488
" />
<path d="M33.2703 22.1526
L33.2703 19.6526
" />
<path d="M33.2703 19.6526
L30.2303 19.6526
" />
<path d="M30.2303 22.1526
L33.2703 22.1526
" />
<path d="M30.2303 19.6526
L30.2303 22.1526
" />
<path d="M27.2703 22.1526
L27.2703 19.6526
" />
<path d="M27.2703 19.6526
L24.2303 19.6526
" />
<path d="M24.2303 22.1526
L27.2703 22.1526
" />
<path d="M24.2303 19.6526
L24.2303 22.1526
" />
<path d="M21.2703 22.1526
L21.2703 19.6526
" />
<path d="M21.2703 19.6526
L18.2303 19.6526
" />
<path d="M18.2303 22.1526
L21.2703 22.1526
" />
<path d="M18.2303 19.6526
L18.2303 22.1526
" />
<path d="M15.2703 22.1526
L15.2703 19.6526
" />
<path d="M15.2703 19.6526
L12.2303 19.6526
" />
<path d="M12.2303 22.1526
L15.2703 22.1526
" />
<path d="M12.2303 19.6526
L12.2303 22.1526
" />
<path d="M15.2303 14.4565
L15.2303 16.9565
" />
<path d="M15.2303 16.9565
L18.2703 16.9565
" />
<path d="M18.2703 14.4565
L15.2303 14.4565
" />
<path d="M18.2703 16.9565
L18.2703 14.4565
" />
<path d="M21.2303 14.4565
L21.2303 16.9565
" />
<path d="M21.2303 16.9565
L24.2703 16.9565
" />
<path d="M24.2703 14.4565
L21.2303 14.4565
" />
<path d="M24.2703 16.9565
L24.2703 14.4565
" />
<path d="M27.2303 14.4565
L27.2303 16.9565
" />
<path d="M27.2303 16.9565
L30.2703 16.9565
" />
<path d="M30.2703 14.4565
L27.2303 14.4565
" />
<path d="M30.2703 16.9565
L30.2703 14.4565
" />
<path d="M27.2703 11.7603
L27.2703 9.2603
" />
<path d="M27.2703 9.2603
L24.2303 9.2603
" />
<path d="M24.2303 11.7603
L27.2703 11.7603
" />
<path d="M24.2303 9.2603
L24.2303 11.7603
" />
<path d="M21.2703 11.7603
L21.2703 9.2603
" />
<path d="M21.2703 9.2603
L18.2303 9.2603
" />
<path d="M18.2303 11.7603
L21.2703 11.7603
" />
<path d="M18.2303 9.2603
L18.2303 11.7603
" />
<path d="M21.2303 4.0641
L21.2303 6.5641
" />
<path d="M21.2303 6.5641
L24.2703 6.5641
" />
<path d="M24.2703 4.0641
L21.2303 4.0641
" />
<path d="M24.2703 6.5641
L24.2703 4.0641
" />
<circle cx="16.7503" cy="29.5629" r="1.0000" /> 
<path d="M24.8403 18.4426
L26.6603 18.4426
" />
<path d="M24.8403 19.3626
L24.8403 18.4426
" />
<path d="M26.6603 18.4426
L26.6603 19.3626
" />
<path d="M26.6603 19.3626
L24.8403 19.3626
" />
<path d="M7.3403 28.8349
L9.1603 28.8349
" />
<path d="M7.3403 29.7549
L7.3403 28.8349
" />
<path d="M9.1603 28.8349
L9.1603 29.7549
" />
<path d="M9.1603 29.7549
L7.3403 29.7549
" />
<circle cx="22.7503" cy="29.5629" r="1.0000" /> 
<path d="M9.8403 23.6388
L11.6603 23.6388
" />
<path d="M9.8403 24.5588
L9.8403 23.6388
" />
<path d="M11.6603 23.6388
L11.6603 24.5588
" />
<path d="M11.6603 24.5588
L9.8403 24.5588
" />
<path d="M19.3403 8.2388
L21.1603 8.2388
" />
<path d="M19.3403 9.1588
L19.3403 8.2388
" />
<path d="M21.1603 8.2388
L21.1603 9.1588
" />
<path d="M21.1603 9.1588
L19.3403 9.1588
" />
<circle cx="25.7503" cy="24.3667" r="1.0000" /> 
<path d="M9.8403 34.0311
L11.6603 34.0311
" />
<path d="M9.8403 34.9511
L9.8403 34.0311
" />
<path d="M11.6603 34.0311
L11.6603 34.9511
" />
<path d="M11.6603 34.9511
L9.8403 34.9511
" />
<path d="M3.8403 34.0311
L5.6603 34.0311
" />
<path d="M3.8403 34.9511
L3.8403 34.0311
" />
<path d="M5.6603 34.0311
L5.6603 34.9511
" />
<path d="M5.6603 34.9511
L3.8403 34.9511
" />
<path d="M24.8403 28.8349
L26.6603 28.8349
" />
<path d="M24.8403 29.7549
L24.8403 28.8349
" />
<path d="M26.6603 28.8349
L26.6603 29.7549
" />
<path d="M26.6603 29.7549
L24.8403 29.7549
" />
<circle cx="16.7503" cy="19.1706" r="1.0000" /> 
<path d="M30.8403 28.8349
L32.6603 28.8349
" />
<path d="M30.8403 29.7549
L30.8403 28.8349
" />
<path d="M32.6603 28.8349
L32.6603 29.7549
" />
<path d="M32.6603 29.7549
L30.8403 29.7549
" />
<path d="M39.3403 33.8388
L41.1603 33.8388
" />
<path d="M39.3403 34.7588
L39.3403 33.8388
" />
<path d="M41.1603 33.8388
L41.1603 34.7588
" />
<path d="M41.1603 34.7588
L39.3403 34.7588
" />
<circle cx="19.7503" cy="24.3667" r="1.0000" /> 
<path d="M18.8403 28.8349
L20.6603 28.8349
" />
<path d="M18.8403 29.7549
L18.8403 28.8349
" />
<path d="M20.6603 28.8349
L20.6603 29.7549
" />
<path d="M20.6603 29.7549
L18.8403 29.7549
" />
<path d="M15.8403 13.2465
L17.6603 13.2465
" />
<path d="M15.8403 14.1665
L15.8403 13.2465
" />
<path d="M17.6603 13.2465
L17.6603 14.1665
" />
<path d="M17.6603 14.1665
L15.8403 14.1665
" />
<path d="M27.8403 13.2465
L29.6603 13.2465
" />
<path d="M27.8403 14.1665
L27.8403 13.2465
" />
<path d="M29.6603 13.2465
L29.6603 14.1665
" />
<path d="M29.6603 14.1665
L27.8403 14.1665
" />
<circle cx="28.7503" cy="29.5629" r="1.0000" /> 
<path d="M15.7303 32.0088
L17.7703 32.0088
" />
<path d="M15.7303 33.5888
L15.7303 32.0088
" />
<path d="M17.7703 32.0088
L17.7703 33.5888
" />
<path d="M17.7703 33.5888
L15.7303 33.5888
" />
<path d="M30.7303 26.9088
L32.7703 26.9088
" />
<path d="M30.7303 28.4888
L30.7303 26.9088
" />
<path d="M32.7703 26.9088
L32.7703 28.4888
" />
<path d="M32.7703 28.4888
L30.7303 28.4888
" />
<path d="M24.3803 5.8688
L25.3203 5.8688
" />
<path d="M24.3803 7.7288
L24.3803 5.8688
" />
<path d="M25.3203 5.8688
L25.3203 7.7288
" />
<path d="M25.3203 7.7288
L24.3803 7.7288
" />
<circle cx="37.7503" cy="34.7590" r="1.0000" /> 
<circle cx="31.7503" cy="24.3667" r="1.0000" /> 
<path d="M15.8403 23.6388
L17.6603 23.6388
" />
<path d="M15.8403 24.5588
L15.8403 23.6388
" />
<path d="M17.6603 23.6388
L17.6603 24.5588
" />
<path d="M17.6603 24.5588
L15.8403 24.5588
" />
<path d="M27.8403 23.6388
L29.6603 23.6388
" />
<path d="M27.8403 24.5588
L27.8403 23.6388
" />
<path d="M29.6603 23.6388
L29.6603 24.5588
" />
<path d="M29.6603 24.5588
L27.8403 24.5588
" />
<path d="M27.8403 34.0311
L29.6603 34.0311
" />
<path d="M27.8403 34.9511
L27.8403 34.0311
" />
<path d="M29.6603 34.0311
L29.6603 34.9511
" />
<path d="M29.6603 34.9511
L27.8403 34.9511
" />
<path d="M12.8403 18.4426
L14.6603 18.4426
" />
<path d="M12.8403 19.3626
L12.8403 18.4426
" />
<path d="M14.6603 18.4426
L14.6603 19.3626
" />
<path d="M14.6603 19.3626
L12.8403 19.3626
" />
<path d="M21.8403 13.2465
L23.6603 13.2465
" />
<path d="M21.8403 14.1665
L21.8403 13.2465
" />
<path d="M23.6603 13.2465
L23.6603 14.1665
" />
<path d="M23.6603 14.1665
L21.8403 14.1665
" />
<path d="M33.8403 34.0311
L35.6603 34.0311
" />
<path d="M33.8403 34.9511
L33.8403 34.0311
" />
<path d="M35.6603 34.0311
L35.6603 34.9511
" />
<path d="M35.6603 34.9511
L33.8403 34.9511
" />
<path d="M18.8403 18.4426
L20.6603 18.4426
" />
<path d="M18.8403 19.3626
L18.8403 18.4426
" />
<path d="M20.6603 18.4426
L20.6603 19.3626
" />
<path d="M20.6603 19.3626
L18.8403 19.3626
" />
<path d="M33.8403 23.6388
L35.6603 23.6388
" />
<path d="M33.8403 24.5588
L33.8403 23.6388
" />
<path d="M35.6603 23.6388
L35.6603 24.5588
" />
<path d="M35.6603 24.5588
L33.8403 24.5588
" />
<circle cx="22.7503" cy="19.1706" r="1.0000" /> 
<path d="M21.8403 34.0311
L23.6603 34.0311
" />
<path d="M21.8403 34.9511
L21.8403 34.0311
" />
<path d="M23.6603 34.0311
L23.6603 34.9511
" />
<path d="M23.6603 34.9511
L21.8403 34.9511
" />
<path d="M24.8403 8.0503
L26.6603 8.0503
" />
<path d="M24.8403 8.9703
L24.8403 8.0503
" />
<path d="M26.6603 8.0503
L26.6603 8.9703
" />
<path d="M26.6603 8.9703
L24.8403 8.9703
" />
<circle cx="28.7503" cy="19.1706" r="1.0000" /> 
<path d="M18.7303 16.3088
L20.7703 16.3088
" />
<path d="M18.7303 17.8888
L18.7303 16.3088
" />
<path d="M20.7703 16.3088
L20.7703 17.8888
" />
<path d="M20.7703 17.8888
L18.7303 17.8888
" />
<path d="M36.8403 28.8349
L38.6603 28.8349
" />
<path d="M36.8403 29.7549
L36.8403 28.8349
" />
<path d="M38.6603 28.8349
L38.6603 29.7549
" />
<path d="M38.6603 29.7549
L36.8403 29.7549
" />
<circle cx="13.7503" cy="24.3667" r="1.0000" /> 
<path d="M30.8403 18.4426
L32.6603 18.4426
" />
<path d="M30.8403 19.3626
L30.8403 18.4426
" />
<path d="M32.6603 18.4426
L32.6603 19.3626
" />
<path d="M32.6603 19.3626
L30.8403 19.3626
" />
<path d="M21.8403 23.6388
L23.6603 23.6388
" />
<path d="M21.8403 24.5588
L21.8403 23.6388
" />
<path d="M23.6603 23.6388
L23.6603 24.5588
" />
<path d="M23.6603 24.5588
L21.8403 24.5588
" />
<path d="M21.8403 2.8541
L23.6603 2.8541
" />
<path d="M21.8403 3.7741
L21.8403 2.8541
" />
<path d="M23.6603 2.8541
L23.6603 3.7741
" />
<path d="M23.6603 3.7741
L21.8403 3.7741
" />
<circle cx="25.7503" cy="34.7590" r="1.0000" /> 
<circle cx="19.7503" cy="34.7590" r="1.0000" /> 
<path d="M12.8403 28.8349
L14.6603 28.8349
" />
<path d="M12.8403 29.7549
L12.8403 28.8349
" />
<path d="M14.6603 28.8349
L14.6603 29.7549
" />
<path d="M14.6603 29.7549
L12.8403 29.7549
" />
<path d="M15.8403 34.0311
L17.6603 34.0311
" />
<path d="M15.8403 34.9511
L15.8403 34.0311
" />
<path d="M17.6603 34.0311
L17.6603 34.9511
" />
<path d="M17.6603 34.9511
L15.8403 34.9511
" />
</g> 
</svg>
