<?xml version="1.0" encoding="utf-8" standalone="no"?>
<!DOCTYPE svg PUBLIC "-//W3C//DTD SVG 1.1//EN"
  "http://www.w3.org/Graphics/SVG/1.1/DTD/svg11.dtd">
<svg xmlns:xlink="http://www.w3.org/1999/xlink" width="460.8pt" height="345.6pt" viewBox="0 0 460.8 345.6" xmlns="http://www.w3.org/2000/svg" version="1.1">
 <metadata>
  <rdf:RDF xmlns:dc="http://purl.org/dc/elements/1.1/" xmlns:cc="http://creativecommons.org/ns#" xmlns:rdf="http://www.w3.org/1999/02/22-rdf-syntax-ns#">
   <cc:Work>
    <dc:type rdf:resource="http://purl.org/dc/dcmitype/StillImage"/>
    <dc:date>2024-05-01T15:15:25.507828</dc:date>
    <dc:format>image/svg+xml</dc:format>
    <dc:creator>
     <cc:Agent>
      <dc:title>Matplotlib v3.8.2, https://matplotlib.org/</dc:title>
     </cc:Agent>
    </dc:creator>
   </cc:Work>
  </rdf:RDF>
 </metadata>
 <defs>
  <style type="text/css">*{stroke-linejoin: round; stroke-linecap: butt}</style>
 </defs>
 <g id="figure_1">
  <g id="patch_1">
   <path d="M 0 345.6 
L 460.8 345.6 
L 460.8 0 
L 0 0 
z
" style="fill: #ffffff"/>
  </g>
  <g id="axes_1">
   <g id="patch_2">
    <path d="M 89.324739 307.584 
L 382.995261 307.584 
L 382.995261 41.472 
L 89.324739 41.472 
z
" style="fill: #ffffff"/>
   </g>
   <g id="patch_3">
    <path d="M 232.350748 92.055273 
L 232.588654 91.686922 
L 232.862053 91.34409 
L 233.168229 91.030183 
L 233.504139 90.748322 
L 233.866444 90.501307 
L 234.251543 90.291593 
L 234.655609 90.121265 
L 235.074626 89.992015 
L 235.504431 89.905128 
L 235.940751 89.861468 
L 236.379249 89.861468 
L 236.815569 89.905128 
L 237.245374 89.992015 
L 237.664391 90.121265 
L 238.068457 90.291593 
L 238.453556 90.501307 
L 238.815861 90.748322 
L 239.151771 91.030183 
L 239.457947 91.34409 
L 239.731346 91.686922 
L 239.969252 92.055273 
L 335.200555 257.000727 
L 335.400603 257.390935 
L 335.560804 257.799122 
L 335.679567 258.221232 
L 335.755712 258.653069 
L 335.788481 259.090341 
L 335.777549 259.528704 
L 335.723024 259.963799 
L 335.625449 260.391304 
L 335.485793 260.806969 
L 335.305444 261.206663 
L 335.086195 261.586414 
L 334.830224 261.942448 
L 334.540075 262.271226 
L 334.218633 262.569481 
L 333.869091 262.834249 
L 333.494924 263.062898 
L 333.099851 263.253155 
L 332.687797 263.40313 
L 332.262857 263.511333 
L 331.829256 263.576688 
L 331.391303 263.598545 
L 140.928697 263.598545 
L 140.490744 263.576688 
L 140.057143 263.511333 
L 139.632203 263.40313 
L 139.220149 263.253155 
L 138.825076 263.062898 
L 138.450909 262.834249 
L 138.101367 262.569481 
L 137.779925 262.271226 
L 137.489776 261.942448 
L 137.233805 261.586414 
L 137.014556 261.206663 
L 136.834207 260.806969 
L 136.694551 260.391304 
L 136.596976 259.963799 
L 136.542451 259.528704 
L 136.531519 259.090341 
L 136.564288 258.653069 
L 136.640433 258.221232 
L 136.759196 257.799122 
L 136.919397 257.390935 
L 137.119445 257.000727 
z
" clip-path="url(#p8be1258096)" style="fill: #add8e6; opacity: 0.5; stroke: #0000ff; stroke-linejoin: miter"/>
   </g>
   <g id="patch_4">
    <path d="M 231.761455 117.194677 
L 240.558545 117.194677 
L 240.558545 108.397586 
L 231.761455 108.397586 
z
" clip-path="url(#p8be1258096)" style="fill: #ffffff; stroke: #000000; stroke-linejoin: miter"/>
   </g>
   <g id="patch_5">
    <path d="M 218.565818 140.050189 
L 227.362909 140.050189 
L 227.362909 131.253099 
L 218.565818 131.253099 
z
" clip-path="url(#p8be1258096)" style="fill: #ffffff; stroke: #000000; stroke-linejoin: miter"/>
   </g>
   <g id="patch_6">
    <path d="M 244.957091 140.050189 
L 253.754182 140.050189 
L 253.754182 131.253099 
L 244.957091 131.253099 
z
" clip-path="url(#p8be1258096)" style="fill: #ffffff; stroke: #000000; stroke-linejoin: miter"/>
   </g>
   <g id="patch_7">
    <path d="M 258.152727 162.905702 
L 266.949818 162.905702 
L 266.949818 154.108611 
L 258.152727 154.108611 
z
" clip-path="url(#p8be1258096)" style="fill: #ffffff; stroke: #000000; stroke-linejoin: miter"/>
   </g>
   <g id="patch_8">
    <path d="M 231.761455 162.905702 
L 240.558545 162.905702 
L 240.558545 154.108611 
L 231.761455 154.108611 
z
" clip-path="url(#p8be1258096)" style="fill: #ffffff; stroke: #000000; stroke-linejoin: miter"/>
   </g>
   <g id="patch_9">
    <path d="M 205.370182 162.905702 
L 214.167273 162.905702 
L 214.167273 154.108611 
L 205.370182 154.108611 
z
" clip-path="url(#p8be1258096)" style="fill: #ffffff; stroke: #000000; stroke-linejoin: miter"/>
   </g>
   <g id="patch_10">
    <path d="M 192.174545 185.761215 
L 200.971636 185.761215 
L 200.971636 176.964124 
L 192.174545 176.964124 
z
" clip-path="url(#p8be1258096)" style="fill: #ffffff; stroke: #000000; stroke-linejoin: miter"/>
   </g>
   <g id="patch_11">
    <path d="M 218.565818 185.761215 
L 227.362909 185.761215 
L 227.362909 176.964124 
L 218.565818 176.964124 
z
" clip-path="url(#p8be1258096)" style="fill: #ffffff; stroke: #000000; stroke-linejoin: miter"/>
   </g>
   <g id="patch_12">
    <path d="M 244.957091 185.761215 
L 253.754182 185.761215 
L 253.754182 176.964124 
L 244.957091 176.964124 
z
" clip-path="url(#p8be1258096)" style="fill: #ffffff; stroke: #000000; stroke-linejoin: miter"/>
   </g>
   <g id="patch_13">
    <path d="M 271.348364 185.761215 
L 280.145455 185.761215 
L 280.145455 176.964124 
L 271.348364 176.964124 
z
" clip-path="url(#p8be1258096)" style="fill: #ffffff; stroke: #000000; stroke-linejoin: miter"/>
   </g>
   <g id="patch_14">
    <path d="M 284.544 208.616727 
L 293.341091 208.616727 
L 293.341091 199.819636 
L 284.544 199.819636 
z
" clip-path="url(#p8be1258096)" style="fill: #ffffff; stroke: #000000; stroke-linejoin: miter"/>
   </g>
   <g id="patch_15">
    <path d="M 258.152727 208.616727 
L 266.949818 208.616727 
L 266.949818 199.819636 
L 258.152727 199.819636 
z
" clip-path="url(#p8be1258096)" style="fill: #ffffff; stroke: #000000; stroke-linejoin: miter"/>
   </g>
   <g id="patch_16">
    <path d="M 231.761455 208.616727 
L 240.558545 208.616727 
L 240.558545 199.819636 
L 231.761455 199.819636 
z
" clip-path="url(#p8be1258096)" style="fill: #ffffff; stroke: #000000; stroke-linejoin: miter"/>
   </g>
   <g id="patch_17">
    <path d="M 205.370182 208.616727 
L 214.167273 208.616727 
L 214.167273 199.819636 
L 205.370182 199.819636 
z
" clip-path="url(#p8be1258096)" style="fill: #ffffff; stroke: #000000; stroke-linejoin: miter"/>
   </g>
   <g id="patch_18">
    <path d="M 178.978909 208.616727 
L 187.776 208.616727 
L 187.776 199.819636 
L 178.978909 199.819636 
z
" clip-path="url(#p8be1258096)" style="fill: #ffffff; stroke: #000000; stroke-linejoin: miter"/>
   </g>
   <g id="patch_19">
    <path d="M 165.783273 231.47224 
L 174.580364 231.47224 
L 174.580364 222.675149 
L 165.783273 222.675149 
z
" clip-path="url(#p8be1258096)" style="fill: #ffffff; stroke: #000000; stroke-linejoin: miter"/>
   </g>
   <g id="patch_20">
    <path d="M 192.174545 231.47224 
L 200.971636 231.47224 
L 200.971636 222.675149 
L 192.174545 222.675149 
z
" clip-path="url(#p8be1258096)" style="fill: #ffffff; stroke: #000000; stroke-linejoin: miter"/>
   </g>
   <g id="patch_21">
    <path d="M 218.565818 231.47224 
L 227.362909 231.47224 
L 227.362909 222.675149 
L 218.565818 222.675149 
z
" clip-path="url(#p8be1258096)" style="fill: #ffffff; stroke: #000000; stroke-linejoin: miter"/>
   </g>
   <g id="patch_22">
    <path d="M 244.957091 231.47224 
L 253.754182 231.47224 
L 253.754182 222.675149 
L 244.957091 222.675149 
z
" clip-path="url(#p8be1258096)" style="fill: #ffffff; stroke: #000000; stroke-linejoin: miter"/>
   </g>
   <g id="patch_23">
    <path d="M 271.348364 231.47224 
L 280.145455 231.47224 
L 280.145455 222.675149 
L 271.348364 222.675149 
z
" clip-path="url(#p8be1258096)" style="fill: #ffffff; stroke: #000000; stroke-linejoin: miter"/>
   </g>
   <g id="patch_24">
    <path d="M 297.739636 231.47224 
L 306.536727 231.47224 
L 306.536727 222.675149 
L 297.739636 222.675149 
z
" clip-path="url(#p8be1258096)" style="fill: #ffffff; stroke: #000000; stroke-linejoin: miter"/>
   </g>
   <g id="patch_25">
    <path d="M 310.935273 254.327753 
L 319.732364 254.327753 
L 319.732364 245.530662 
L 310.935273 245.530662 
z
" clip-path="url(#p8be1258096)" style="fill: #ffffff; stroke: #000000; stroke-linejoin: miter"/>
   </g>
   <g id="patch_26">
    <path d="M 284.544 254.327753 
L 293.341091 254.327753 
L 293.341091 245.530662 
L 284.544 245.530662 
z
" clip-path="url(#p8be1258096)" style="fill: #ffffff; stroke: #000000; stroke-linejoin: miter"/>
   </g>
   <g id="patch_27">
    <path d="M 258.152727 254.327753 
L 266.949818 254.327753 
L 266.949818 245.530662 
L 258.152727 245.530662 
z
" clip-path="url(#p8be1258096)" style="fill: #ffffff; stroke: #000000; stroke-linejoin: miter"/>
   </g>
   <g id="patch_28">
    <path d="M 231.761455 254.327753 
L 240.558545 254.327753 
L 240.558545 245.530662 
L 231.761455 245.530662 
z
" clip-path="url(#p8be1258096)" style="fill: #ffffff; stroke: #000000; stroke-linejoin: miter"/>
   </g>
   <g id="patch_29">
    <path d="M 205.370182 254.327753 
L 214.167273 254.327753 
L 214.167273 245.530662 
L 205.370182 245.530662 
z
" clip-path="url(#p8be1258096)" style="fill: #ffffff; stroke: #000000; stroke-linejoin: miter"/>
   </g>
   <g id="patch_30">
    <path d="M 178.978909 254.327753 
L 187.776 254.327753 
L 187.776 245.530662 
L 178.978909 245.530662 
z
" clip-path="url(#p8be1258096)" style="fill: #ffffff; stroke: #000000; stroke-linejoin: miter"/>
   </g>
   <g id="patch_31">
    <path d="M 152.587636 254.327753 
L 161.384727 254.327753 
L 161.384727 245.530662 
L 152.587636 245.530662 
z
" clip-path="url(#p8be1258096)" style="fill: #ffffff; stroke: #000000; stroke-linejoin: miter"/>
   </g>
   <g id="patch_32">
    <path d="M 232.157324 106.154328 
L 240.162676 106.154328 
L 240.162676 101.843753 
L 232.157324 101.843753 
z
" clip-path="url(#p8be1258096)" style="fill: #00ffff; stroke: #000000; stroke-linejoin: miter"/>
   </g>
   <g id="patch_33">
    <path d="M 218.961687 129.00984 
L 226.96704 129.00984 
L 226.96704 124.699266 
L 218.961687 124.699266 
z
" clip-path="url(#p8be1258096)" style="fill: #00ffff; stroke: #000000; stroke-linejoin: miter"/>
   </g>
   <g id="patch_34">
    <path d="M 245.35296 129.00984 
L 253.358313 129.00984 
L 253.358313 124.699266 
L 245.35296 124.699266 
z
" clip-path="url(#p8be1258096)" style="fill: #00ffff; stroke: #000000; stroke-linejoin: miter"/>
   </g>
   <g id="patch_35">
    <path d="M 258.548596 151.865353 
L 266.553949 151.865353 
L 266.553949 147.554778 
L 258.548596 147.554778 
z
" clip-path="url(#p8be1258096)" style="fill: #00ffff; stroke: #000000; stroke-linejoin: miter"/>
   </g>
   <g id="patch_36">
    <path d="M 232.157324 151.865353 
L 240.162676 151.865353 
L 240.162676 147.554778 
L 232.157324 147.554778 
z
" clip-path="url(#p8be1258096)" style="fill: #00ffff; stroke: #000000; stroke-linejoin: miter"/>
   </g>
   <g id="patch_37">
    <path d="M 205.766051 151.865353 
L 213.771404 151.865353 
L 213.771404 147.554778 
L 205.766051 147.554778 
z
" clip-path="url(#p8be1258096)" style="fill: #00ffff; stroke: #000000; stroke-linejoin: miter"/>
   </g>
   <g id="patch_38">
    <path d="M 192.570415 174.720866 
L 200.575767 174.720866 
L 200.575767 170.410291 
L 192.570415 170.410291 
z
" clip-path="url(#p8be1258096)" style="fill: #00ffff; stroke: #000000; stroke-linejoin: miter"/>
   </g>
   <g id="patch_39">
    <path d="M 218.961687 174.720866 
L 226.96704 174.720866 
L 226.96704 170.410291 
L 218.961687 170.410291 
z
" clip-path="url(#p8be1258096)" style="fill: #00ffff; stroke: #000000; stroke-linejoin: miter"/>
   </g>
   <g id="patch_40">
    <path d="M 245.35296 174.720866 
L 253.358313 174.720866 
L 253.358313 170.410291 
L 245.35296 170.410291 
z
" clip-path="url(#p8be1258096)" style="fill: #00ffff; stroke: #000000; stroke-linejoin: miter"/>
   </g>
   <g id="patch_41">
    <path d="M 271.744233 174.720866 
L 279.749585 174.720866 
L 279.749585 170.410291 
L 271.744233 170.410291 
z
" clip-path="url(#p8be1258096)" style="fill: #00ffff; stroke: #000000; stroke-linejoin: miter"/>
   </g>
   <g id="patch_42">
    <path d="M 284.939869 197.576378 
L 292.945222 197.576378 
L 292.945222 193.265804 
L 284.939869 193.265804 
z
" clip-path="url(#p8be1258096)" style="fill: #00ffff; stroke: #000000; stroke-linejoin: miter"/>
   </g>
   <g id="patch_43">
    <path d="M 258.548596 197.576378 
L 266.553949 197.576378 
L 266.553949 193.265804 
L 258.548596 193.265804 
z
" clip-path="url(#p8be1258096)" style="fill: #00ffff; stroke: #000000; stroke-linejoin: miter"/>
   </g>
   <g id="patch_44">
    <path d="M 232.157324 197.576378 
L 240.162676 197.576378 
L 240.162676 193.265804 
L 232.157324 193.265804 
z
" clip-path="url(#p8be1258096)" style="fill: #00ffff; stroke: #000000; stroke-linejoin: miter"/>
   </g>
   <g id="patch_45">
    <path d="M 205.766051 197.576378 
L 213.771404 197.576378 
L 213.771404 193.265804 
L 205.766051 193.265804 
z
" clip-path="url(#p8be1258096)" style="fill: #00ffff; stroke: #000000; stroke-linejoin: miter"/>
   </g>
   <g id="patch_46">
    <path d="M 179.374778 197.576378 
L 187.380131 197.576378 
L 187.380131 193.265804 
L 179.374778 193.265804 
z
" clip-path="url(#p8be1258096)" style="fill: #00ffff; stroke: #000000; stroke-linejoin: miter"/>
   </g>
   <g id="patch_47">
    <path d="M 166.179142 220.431891 
L 174.184495 220.431891 
L 174.184495 216.121316 
L 166.179142 216.121316 
z
" clip-path="url(#p8be1258096)" style="fill: #00ffff; stroke: #000000; stroke-linejoin: miter"/>
   </g>
   <g id="patch_48">
    <path d="M 192.570415 220.431891 
L 200.575767 220.431891 
L 200.575767 216.121316 
L 192.570415 216.121316 
z
" clip-path="url(#p8be1258096)" style="fill: #00ffff; stroke: #000000; stroke-linejoin: miter"/>
   </g>
   <g id="patch_49">
    <path d="M 218.961687 220.431891 
L 226.96704 220.431891 
L 226.96704 216.121316 
L 218.961687 216.121316 
z
" clip-path="url(#p8be1258096)" style="fill: #00ffff; stroke: #000000; stroke-linejoin: miter"/>
   </g>
   <g id="patch_50">
    <path d="M 245.35296 220.431891 
L 253.358313 220.431891 
L 253.358313 216.121316 
L 245.35296 216.121316 
z
" clip-path="url(#p8be1258096)" style="fill: #00ffff; stroke: #000000; stroke-linejoin: miter"/>
   </g>
   <g id="patch_51">
    <path d="M 271.744233 220.431891 
L 279.749585 220.431891 
L 279.749585 216.121316 
L 271.744233 216.121316 
z
" clip-path="url(#p8be1258096)" style="fill: #00ffff; stroke: #000000; stroke-linejoin: miter"/>
   </g>
   <g id="patch_52">
    <path d="M 298.135505 220.431891 
L 306.140858 220.431891 
L 306.140858 216.121316 
L 298.135505 216.121316 
z
" clip-path="url(#p8be1258096)" style="fill: #00ffff; stroke: #000000; stroke-linejoin: miter"/>
   </g>
   <g id="patch_53">
    <path d="M 311.331142 243.287403 
L 319.336495 243.287403 
L 319.336495 238.976829 
L 311.331142 238.976829 
z
" clip-path="url(#p8be1258096)" style="fill: #00ffff; stroke: #000000; stroke-linejoin: miter"/>
   </g>
   <g id="patch_54">
    <path d="M 284.939869 243.287403 
L 292.945222 243.287403 
L 292.945222 238.976829 
L 284.939869 238.976829 
z
" clip-path="url(#p8be1258096)" style="fill: #00ffff; stroke: #000000; stroke-linejoin: miter"/>
   </g>
   <g id="patch_55">
    <path d="M 258.548596 243.287403 
L 266.553949 243.287403 
L 266.553949 238.976829 
L 258.548596 238.976829 
z
" clip-path="url(#p8be1258096)" style="fill: #00ffff; stroke: #000000; stroke-linejoin: miter"/>
   </g>
   <g id="patch_56">
    <path d="M 232.157324 243.287403 
L 240.162676 243.287403 
L 240.162676 238.976829 
L 232.157324 238.976829 
z
" clip-path="url(#p8be1258096)" style="fill: #00ffff; stroke: #000000; stroke-linejoin: miter"/>
   </g>
   <g id="patch_57">
    <path d="M 205.766051 243.287403 
L 213.771404 243.287403 
L 213.771404 238.976829 
L 205.766051 238.976829 
z
" clip-path="url(#p8be1258096)" style="fill: #00ffff; stroke: #000000; stroke-linejoin: miter"/>
   </g>
   <g id="patch_58">
    <path d="M 179.374778 243.287403 
L 187.380131 243.287403 
L 187.380131 238.976829 
L 179.374778 238.976829 
z
" clip-path="url(#p8be1258096)" style="fill: #00ffff; stroke: #000000; stroke-linejoin: miter"/>
   </g>
   <g id="patch_59">
    <path d="M 152.983505 243.287403 
L 160.988858 243.287403 
L 160.988858 238.976829 
L 152.983505 238.976829 
z
" clip-path="url(#p8be1258096)" style="fill: #00ffff; stroke: #000000; stroke-linejoin: miter"/>
   </g>
   <g id="patch_60">
    <path d="M 237.831447 128.03314 
L 237.823399 128.19697 
L 237.799331 128.359223 
L 237.759475 128.518335 
L 237.704216 128.672775 
L 237.634085 128.821055 
L 237.549758 128.961746 
L 237.452046 129.093495 
L 237.341892 129.215031 
L 237.220355 129.325186 
L 237.088606 129.422897 
L 236.947915 129.507225 
L 236.799635 129.577356 
L 236.645196 129.632615 
L 236.486083 129.672471 
L 236.32383 129.696539 
L 236.16 129.704587 
L 235.99617 129.696539 
L 235.833917 129.672471 
L 235.674804 129.632615 
L 235.520365 129.577356 
L 235.372085 129.507225 
L 235.231394 129.422897 
L 235.099645 129.325186 
L 234.978108 129.215031 
L 234.867954 129.093495 
L 234.770242 128.961746 
L 234.685915 128.821055 
L 234.615784 128.672775 
L 234.560525 128.518335 
L 234.520669 128.359223 
L 234.496601 128.19697 
L 234.488553 128.03314 
L 234.496601 127.869309 
L 234.520669 127.707057 
L 234.560525 127.547944 
L 234.615784 127.393505 
L 234.685915 127.245225 
L 234.770242 127.104533 
L 234.867954 126.972785 
L 234.978108 126.851248 
L 235.099645 126.741094 
L 235.231394 126.643382 
L 235.372085 126.559055 
L 235.520365 126.488924 
L 235.674804 126.433664 
L 235.833917 126.393809 
L 235.99617 126.369741 
L 236.16 126.361692 
L 236.32383 126.369741 
L 236.486083 126.393809 
L 236.645196 126.433664 
L 236.799635 126.488924 
L 236.947915 126.559055 
L 237.088606 126.643382 
L 237.220355 126.741094 
L 237.341892 126.851248 
L 237.452046 126.972785 
L 237.549758 127.104533 
L 237.634085 127.245225 
L 237.704216 127.393505 
L 237.759475 127.547944 
L 237.799331 127.707057 
L 237.823399 127.869309 
z
" clip-path="url(#p8be1258096)" style="fill: #ff0000; opacity: 0.5; stroke: #000000; stroke-linejoin: miter"/>
   </g>
   <g id="patch_61">
    <path d="M 224.635811 150.888652 
L 224.627762 151.052483 
L 224.603695 151.214736 
L 224.563839 151.373848 
L 224.50858 151.528288 
L 224.438449 151.676567 
L 224.354121 151.817259 
L 224.25641 151.949007 
L 224.146255 152.070544 
L 224.024719 152.180699 
L 223.89297 152.27841 
L 223.752278 152.362737 
L 223.603999 152.432868 
L 223.449559 152.488128 
L 223.290447 152.527983 
L 223.128194 152.552051 
L 222.964364 152.5601 
L 222.800533 152.552051 
L 222.63828 152.527983 
L 222.479168 152.488128 
L 222.324728 152.432868 
L 222.176449 152.362737 
L 222.035757 152.27841 
L 221.904009 152.180699 
L 221.782472 152.070544 
L 221.672317 151.949007 
L 221.574606 151.817259 
L 221.490279 151.676567 
L 221.420148 151.528288 
L 221.364888 151.373848 
L 221.325033 151.214736 
L 221.300965 151.052483 
L 221.292916 150.888652 
L 221.300965 150.724822 
L 221.325033 150.562569 
L 221.364888 150.403457 
L 221.420148 150.249017 
L 221.490279 150.100738 
L 221.574606 149.960046 
L 221.672317 149.828297 
L 221.782472 149.706761 
L 221.904009 149.596606 
L 222.035757 149.498895 
L 222.176449 149.414567 
L 222.324728 149.344436 
L 222.479168 149.289177 
L 222.63828 149.249321 
L 222.800533 149.225254 
L 222.964364 149.217205 
L 223.128194 149.225254 
L 223.290447 149.249321 
L 223.449559 149.289177 
L 223.603999 149.344436 
L 223.752278 149.414567 
L 223.89297 149.498895 
L 224.024719 149.596606 
L 224.146255 149.706761 
L 224.25641 149.828297 
L 224.354121 149.960046 
L 224.438449 150.100738 
L 224.50858 150.249017 
L 224.563839 150.403457 
L 224.603695 150.562569 
L 224.627762 150.724822 
z
" clip-path="url(#p8be1258096)" style="fill: #ff0000; opacity: 0.5; stroke: #000000; stroke-linejoin: miter"/>
   </g>
   <g id="patch_62">
    <path d="M 251.027084 150.888652 
L 251.019035 151.052483 
L 250.994967 151.214736 
L 250.955112 151.373848 
L 250.899852 151.528288 
L 250.829721 151.676567 
L 250.745394 151.817259 
L 250.647683 151.949007 
L 250.537528 152.070544 
L 250.415991 152.180699 
L 250.284243 152.27841 
L 250.143551 152.362737 
L 249.995272 152.432868 
L 249.840832 152.488128 
L 249.68172 152.527983 
L 249.519467 152.552051 
L 249.355636 152.5601 
L 249.191806 152.552051 
L 249.029553 152.527983 
L 248.870441 152.488128 
L 248.716001 152.432868 
L 248.567722 152.362737 
L 248.42703 152.27841 
L 248.295281 152.180699 
L 248.173745 152.070544 
L 248.06359 151.949007 
L 247.965879 151.817259 
L 247.881551 151.676567 
L 247.81142 151.528288 
L 247.756161 151.373848 
L 247.716305 151.214736 
L 247.692238 151.052483 
L 247.684189 150.888652 
L 247.692238 150.724822 
L 247.716305 150.562569 
L 247.756161 150.403457 
L 247.81142 150.249017 
L 247.881551 150.100738 
L 247.965879 149.960046 
L 248.06359 149.828297 
L 248.173745 149.706761 
L 248.295281 149.596606 
L 248.42703 149.498895 
L 248.567722 149.414567 
L 248.716001 149.344436 
L 248.870441 149.289177 
L 249.029553 149.249321 
L 249.191806 149.225254 
L 249.355636 149.217205 
L 249.519467 149.225254 
L 249.68172 149.249321 
L 249.840832 149.289177 
L 249.995272 149.344436 
L 250.143551 149.414567 
L 250.284243 149.498895 
L 250.415991 149.596606 
L 250.537528 149.706761 
L 250.647683 149.828297 
L 250.745394 149.960046 
L 250.829721 150.100738 
L 250.899852 150.249017 
L 250.955112 150.403457 
L 250.994967 150.562569 
L 251.019035 150.724822 
z
" clip-path="url(#p8be1258096)" style="fill: #ff0000; opacity: 0.5; stroke: #000000; stroke-linejoin: miter"/>
   </g>
   <g id="patch_63">
    <path d="M 264.970473 173.744165 
L 264.958824 173.981288 
L 264.923988 174.216127 
L 264.866303 174.446422 
L 264.786322 174.669953 
L 264.684817 174.884568 
L 264.562764 175.0882 
L 264.42134 175.278889 
L 264.261905 175.454798 
L 264.085997 175.614232 
L 263.895308 175.755656 
L 263.691676 175.877709 
L 263.47706 175.979214 
L 263.253529 176.059195 
L 263.023235 176.116881 
L 262.788396 176.151716 
L 262.551273 176.163365 
L 262.31415 176.151716 
L 262.07931 176.116881 
L 261.849016 176.059195 
L 261.625485 175.979214 
L 261.41087 175.877709 
L 261.207237 175.755656 
L 261.016548 175.614232 
L 260.84064 175.454798 
L 260.681206 175.278889 
L 260.539781 175.0882 
L 260.417729 174.884568 
L 260.316223 174.669953 
L 260.236243 174.446422 
L 260.178557 174.216127 
L 260.143722 173.981288 
L 260.132073 173.744165 
L 260.143722 173.507042 
L 260.178557 173.272202 
L 260.236243 173.041908 
L 260.316223 172.818377 
L 260.417729 172.603762 
L 260.539781 172.400129 
L 260.681206 172.209441 
L 260.84064 172.033532 
L 261.016548 171.874098 
L 261.207237 171.732674 
L 261.41087 171.610621 
L 261.625485 171.509116 
L 261.849016 171.429135 
L 262.07931 171.371449 
L 262.31415 171.336614 
L 262.551273 171.324965 
L 262.788396 171.336614 
L 263.023235 171.371449 
L 263.253529 171.429135 
L 263.47706 171.509116 
L 263.691676 171.610621 
L 263.895308 171.732674 
L 264.085997 171.874098 
L 264.261905 172.033532 
L 264.42134 172.209441 
L 264.562764 172.400129 
L 264.684817 172.603762 
L 264.786322 172.818377 
L 264.866303 173.041908 
L 264.923988 173.272202 
L 264.958824 173.507042 
z
" clip-path="url(#p8be1258096)" style="fill: #008000; opacity: 0.5; stroke: #000000; stroke-linejoin: miter"/>
   </g>
   <g id="patch_64">
    <path d="M 238.5792 173.744165 
L 238.567551 173.981288 
L 238.532716 174.216127 
L 238.47503 174.446422 
L 238.395049 174.669953 
L 238.293544 174.884568 
L 238.171491 175.0882 
L 238.030067 175.278889 
L 237.870633 175.454798 
L 237.694724 175.614232 
L 237.504036 175.755656 
L 237.300403 175.877709 
L 237.085788 175.979214 
L 236.862257 176.059195 
L 236.631963 176.116881 
L 236.397123 176.151716 
L 236.16 176.163365 
L 235.922877 176.151716 
L 235.688037 176.116881 
L 235.457743 176.059195 
L 235.234212 175.979214 
L 235.019597 175.877709 
L 234.815964 175.755656 
L 234.625276 175.614232 
L 234.449367 175.454798 
L 234.289933 175.278889 
L 234.148509 175.0882 
L 234.026456 174.884568 
L 233.924951 174.669953 
L 233.84497 174.446422 
L 233.787284 174.216127 
L 233.752449 173.981288 
L 233.7408 173.744165 
L 233.752449 173.507042 
L 233.787284 173.272202 
L 233.84497 173.041908 
L 233.924951 172.818377 
L 234.026456 172.603762 
L 234.148509 172.400129 
L 234.289933 172.209441 
L 234.449367 172.033532 
L 234.625276 171.874098 
L 234.815964 171.732674 
L 235.019597 171.610621 
L 235.234212 171.509116 
L 235.457743 171.429135 
L 235.688037 171.371449 
L 235.922877 171.336614 
L 236.16 171.324965 
L 236.397123 171.336614 
L 236.631963 171.371449 
L 236.862257 171.429135 
L 237.085788 171.509116 
L 237.300403 171.610621 
L 237.504036 171.732674 
L 237.694724 171.874098 
L 237.870633 172.033532 
L 238.030067 172.209441 
L 238.171491 172.400129 
L 238.293544 172.603762 
L 238.395049 172.818377 
L 238.47503 173.041908 
L 238.532716 173.272202 
L 238.567551 173.507042 
z
" clip-path="url(#p8be1258096)" style="fill: #008000; opacity: 0.5; stroke: #000000; stroke-linejoin: miter"/>
   </g>
   <g id="patch_65">
    <path d="M 212.187927 173.744165 
L 212.176278 173.981288 
L 212.141443 174.216127 
L 212.083757 174.446422 
L 212.003777 174.669953 
L 211.902271 174.884568 
L 211.780219 175.0882 
L 211.638794 175.278889 
L 211.47936 175.454798 
L 211.303452 175.614232 
L 211.112763 175.755656 
L 210.90913 175.877709 
L 210.694515 175.979214 
L 210.470984 176.059195 
L 210.24069 176.116881 
L 210.00585 176.151716 
L 209.768727 176.163365 
L 209.531604 176.151716 
L 209.296765 176.116881 
L 209.066471 176.059195 
L 208.84294 175.979214 
L 208.628324 175.877709 
L 208.424692 175.755656 
L 208.234003 175.614232 
L 208.058095 175.454798 
L 207.89866 175.278889 
L 207.757236 175.0882 
L 207.635183 174.884568 
L 207.533678 174.669953 
L 207.453697 174.446422 
L 207.396012 174.216127 
L 207.361176 173.981288 
L 207.349527 173.744165 
L 207.361176 173.507042 
L 207.396012 173.272202 
L 207.453697 173.041908 
L 207.533678 172.818377 
L 207.635183 172.603762 
L 207.757236 172.400129 
L 207.89866 172.209441 
L 208.058095 172.033532 
L 208.234003 171.874098 
L 208.424692 171.732674 
L 208.628324 171.610621 
L 208.84294 171.509116 
L 209.066471 171.429135 
L 209.296765 171.371449 
L 209.531604 171.336614 
L 209.768727 171.324965 
L 210.00585 171.336614 
L 210.24069 171.371449 
L 210.470984 171.429135 
L 210.694515 171.509116 
L 210.90913 171.610621 
L 211.112763 171.732674 
L 211.303452 171.874098 
L 211.47936 172.033532 
L 211.638794 172.209441 
L 211.780219 172.400129 
L 211.902271 172.603762 
L 212.003777 172.818377 
L 212.083757 173.041908 
L 212.141443 173.272202 
L 212.176278 173.507042 
z
" clip-path="url(#p8be1258096)" style="fill: #008000; opacity: 0.5; stroke: #000000; stroke-linejoin: miter"/>
   </g>
   <g id="patch_66">
    <path d="M 198.992291 196.599678 
L 198.980642 196.836801 
L 198.945807 197.07164 
L 198.888121 197.301934 
L 198.80814 197.525465 
L 198.706635 197.740081 
L 198.584582 197.943713 
L 198.443158 198.134402 
L 198.283724 198.31031 
L 198.107815 198.469745 
L 197.917126 198.611169 
L 197.713494 198.733222 
L 197.498879 198.834727 
L 197.275348 198.914708 
L 197.045053 198.972393 
L 196.810214 199.007229 
L 196.573091 199.018878 
L 196.335968 199.007229 
L 196.101128 198.972393 
L 195.870834 198.914708 
L 195.647303 198.834727 
L 195.432688 198.733222 
L 195.229055 198.611169 
L 195.038367 198.469745 
L 194.862458 198.31031 
L 194.703024 198.134402 
L 194.5616 197.943713 
L 194.439547 197.740081 
L 194.338042 197.525465 
L 194.258061 197.301934 
L 194.200375 197.07164 
L 194.16554 196.836801 
L 194.153891 196.599678 
L 194.16554 196.362555 
L 194.200375 196.127715 
L 194.258061 195.897421 
L 194.338042 195.67389 
L 194.439547 195.459275 
L 194.5616 195.255642 
L 194.703024 195.064953 
L 194.862458 194.889045 
L 195.038367 194.729611 
L 195.229055 194.588186 
L 195.432688 194.466134 
L 195.647303 194.364628 
L 195.870834 194.284648 
L 196.101128 194.226962 
L 196.335968 194.192127 
L 196.573091 194.180478 
L 196.810214 194.192127 
L 197.045053 194.226962 
L 197.275348 194.284648 
L 197.498879 194.364628 
L 197.713494 194.466134 
L 197.917126 194.588186 
L 198.107815 194.729611 
L 198.283724 194.889045 
L 198.443158 195.064953 
L 198.584582 195.255642 
L 198.706635 195.459275 
L 198.80814 195.67389 
L 198.888121 195.897421 
L 198.945807 196.127715 
L 198.980642 196.362555 
z
" clip-path="url(#p8be1258096)" style="fill: #008000; opacity: 0.5; stroke: #000000; stroke-linejoin: miter"/>
   </g>
   <g id="patch_67">
    <path d="M 225.383564 196.599678 
L 225.371915 196.836801 
L 225.337079 197.07164 
L 225.279394 197.301934 
L 225.199413 197.525465 
L 225.097908 197.740081 
L 224.975855 197.943713 
L 224.834431 198.134402 
L 224.674996 198.31031 
L 224.499088 198.469745 
L 224.308399 198.611169 
L 224.104767 198.733222 
L 223.890151 198.834727 
L 223.66662 198.914708 
L 223.436326 198.972393 
L 223.201487 199.007229 
L 222.964364 199.018878 
L 222.727241 199.007229 
L 222.492401 198.972393 
L 222.262107 198.914708 
L 222.038576 198.834727 
L 221.823961 198.733222 
L 221.620328 198.611169 
L 221.429639 198.469745 
L 221.253731 198.31031 
L 221.094297 198.134402 
L 220.952872 197.943713 
L 220.83082 197.740081 
L 220.729314 197.525465 
L 220.649334 197.301934 
L 220.591648 197.07164 
L 220.556813 196.836801 
L 220.545164 196.599678 
L 220.556813 196.362555 
L 220.591648 196.127715 
L 220.649334 195.897421 
L 220.729314 195.67389 
L 220.83082 195.459275 
L 220.952872 195.255642 
L 221.094297 195.064953 
L 221.253731 194.889045 
L 221.429639 194.729611 
L 221.620328 194.588186 
L 221.823961 194.466134 
L 222.038576 194.364628 
L 222.262107 194.284648 
L 222.492401 194.226962 
L 222.727241 194.192127 
L 222.964364 194.180478 
L 223.201487 194.192127 
L 223.436326 194.226962 
L 223.66662 194.284648 
L 223.890151 194.364628 
L 224.104767 194.466134 
L 224.308399 194.588186 
L 224.499088 194.729611 
L 224.674996 194.889045 
L 224.834431 195.064953 
L 224.975855 195.255642 
L 225.097908 195.459275 
L 225.199413 195.67389 
L 225.279394 195.897421 
L 225.337079 196.127715 
L 225.371915 196.362555 
z
" clip-path="url(#p8be1258096)" style="fill: #008000; opacity: 0.5; stroke: #000000; stroke-linejoin: miter"/>
   </g>
   <g id="patch_68">
    <path d="M 251.774836 196.599678 
L 251.763187 196.836801 
L 251.728352 197.07164 
L 251.670666 197.301934 
L 251.590686 197.525465 
L 251.48918 197.740081 
L 251.367128 197.943713 
L 251.225703 198.134402 
L 251.066269 198.31031 
L 250.890361 198.469745 
L 250.699672 198.611169 
L 250.496039 198.733222 
L 250.281424 198.834727 
L 250.057893 198.914708 
L 249.827599 198.972393 
L 249.592759 199.007229 
L 249.355636 199.018878 
L 249.118513 199.007229 
L 248.883674 198.972393 
L 248.65338 198.914708 
L 248.429849 198.834727 
L 248.215233 198.733222 
L 248.011601 198.611169 
L 247.820912 198.469745 
L 247.645004 198.31031 
L 247.485569 198.134402 
L 247.344145 197.943713 
L 247.222092 197.740081 
L 247.120587 197.525465 
L 247.040606 197.301934 
L 246.982921 197.07164 
L 246.948085 196.836801 
L 246.936436 196.599678 
L 246.948085 196.362555 
L 246.982921 196.127715 
L 247.040606 195.897421 
L 247.120587 195.67389 
L 247.222092 195.459275 
L 247.344145 195.255642 
L 247.485569 195.064953 
L 247.645004 194.889045 
L 247.820912 194.729611 
L 248.011601 194.588186 
L 248.215233 194.466134 
L 248.429849 194.364628 
L 248.65338 194.284648 
L 248.883674 194.226962 
L 249.118513 194.192127 
L 249.355636 194.180478 
L 249.592759 194.192127 
L 249.827599 194.226962 
L 250.057893 194.284648 
L 250.281424 194.364628 
L 250.496039 194.466134 
L 250.699672 194.588186 
L 250.890361 194.729611 
L 251.066269 194.889045 
L 251.225703 195.064953 
L 251.367128 195.255642 
L 251.48918 195.459275 
L 251.590686 195.67389 
L 251.670666 195.897421 
L 251.728352 196.127715 
L 251.763187 196.362555 
z
" clip-path="url(#p8be1258096)" style="fill: #008000; opacity: 0.5; stroke: #000000; stroke-linejoin: miter"/>
   </g>
   <g id="patch_69">
    <path d="M 278.166109 196.599678 
L 278.15446 196.836801 
L 278.119625 197.07164 
L 278.061939 197.301934 
L 277.981958 197.525465 
L 277.880453 197.740081 
L 277.7584 197.943713 
L 277.616976 198.134402 
L 277.457542 198.31031 
L 277.281633 198.469745 
L 277.090945 198.611169 
L 276.887312 198.733222 
L 276.672697 198.834727 
L 276.449166 198.914708 
L 276.218872 198.972393 
L 275.984032 199.007229 
L 275.746909 199.018878 
L 275.509786 199.007229 
L 275.274947 198.972393 
L 275.044652 198.914708 
L 274.821121 198.834727 
L 274.606506 198.733222 
L 274.402874 198.611169 
L 274.212185 198.469745 
L 274.036276 198.31031 
L 273.876842 198.134402 
L 273.735418 197.943713 
L 273.613365 197.740081 
L 273.51186 197.525465 
L 273.431879 197.301934 
L 273.374193 197.07164 
L 273.339358 196.836801 
L 273.327709 196.599678 
L 273.339358 196.362555 
L 273.374193 196.127715 
L 273.431879 195.897421 
L 273.51186 195.67389 
L 273.613365 195.459275 
L 273.735418 195.255642 
L 273.876842 195.064953 
L 274.036276 194.889045 
L 274.212185 194.729611 
L 274.402874 194.588186 
L 274.606506 194.466134 
L 274.821121 194.364628 
L 275.044652 194.284648 
L 275.274947 194.226962 
L 275.509786 194.192127 
L 275.746909 194.180478 
L 275.984032 194.192127 
L 276.218872 194.226962 
L 276.449166 194.284648 
L 276.672697 194.364628 
L 276.887312 194.466134 
L 277.090945 194.588186 
L 277.281633 194.729611 
L 277.457542 194.889045 
L 277.616976 195.064953 
L 277.7584 195.255642 
L 277.880453 195.459275 
L 277.981958 195.67389 
L 278.061939 195.897421 
L 278.119625 196.127715 
L 278.15446 196.362555 
z
" clip-path="url(#p8be1258096)" style="fill: #008000; opacity: 0.5; stroke: #000000; stroke-linejoin: miter"/>
   </g>
   <g id="patch_70">
    <path d="M 290.613993 219.45519 
L 290.605944 219.619021 
L 290.581876 219.781273 
L 290.542021 219.940386 
L 290.486761 220.094825 
L 290.41663 220.243105 
L 290.332303 220.383797 
L 290.234592 220.515545 
L 290.124437 220.637082 
L 290.0029 220.747236 
L 289.871152 220.844948 
L 289.73046 220.929275 
L 289.582181 220.999406 
L 289.427741 221.054666 
L 289.268629 221.094521 
L 289.106376 221.118589 
L 288.942545 221.126638 
L 288.778715 221.118589 
L 288.616462 221.094521 
L 288.45735 221.054666 
L 288.30291 220.999406 
L 288.154631 220.929275 
L 288.013939 220.844948 
L 287.882191 220.747236 
L 287.760654 220.637082 
L 287.650499 220.515545 
L 287.552788 220.383797 
L 287.468461 220.243105 
L 287.39833 220.094825 
L 287.34307 219.940386 
L 287.303215 219.781273 
L 287.279147 219.619021 
L 287.271098 219.45519 
L 287.279147 219.29136 
L 287.303215 219.129107 
L 287.34307 218.969995 
L 287.39833 218.815555 
L 287.468461 218.667275 
L 287.552788 218.526584 
L 287.650499 218.394835 
L 287.760654 218.273299 
L 287.882191 218.163144 
L 288.013939 218.065433 
L 288.154631 217.981105 
L 288.30291 217.910974 
L 288.45735 217.855715 
L 288.616462 217.815859 
L 288.778715 217.791791 
L 288.942545 217.783743 
L 289.106376 217.791791 
L 289.268629 217.815859 
L 289.427741 217.855715 
L 289.582181 217.910974 
L 289.73046 217.981105 
L 289.871152 218.065433 
L 290.0029 218.163144 
L 290.124437 218.273299 
L 290.234592 218.394835 
L 290.332303 218.526584 
L 290.41663 218.667275 
L 290.486761 218.815555 
L 290.542021 218.969995 
L 290.581876 219.129107 
L 290.605944 219.29136 
z
" clip-path="url(#p8be1258096)" style="fill: #ff0000; opacity: 0.5; stroke: #000000; stroke-linejoin: miter"/>
   </g>
   <g id="patch_71">
    <path d="M 264.970473 219.45519 
L 264.958824 219.692313 
L 264.923988 219.927153 
L 264.866303 220.157447 
L 264.786322 220.380978 
L 264.684817 220.595593 
L 264.562764 220.799226 
L 264.42134 220.989914 
L 264.261905 221.165823 
L 264.085997 221.325257 
L 263.895308 221.466682 
L 263.691676 221.588734 
L 263.47706 221.69024 
L 263.253529 221.77022 
L 263.023235 221.827906 
L 262.788396 221.862741 
L 262.551273 221.87439 
L 262.31415 221.862741 
L 262.07931 221.827906 
L 261.849016 221.77022 
L 261.625485 221.69024 
L 261.41087 221.588734 
L 261.207237 221.466682 
L 261.016548 221.325257 
L 260.84064 221.165823 
L 260.681206 220.989914 
L 260.539781 220.799226 
L 260.417729 220.595593 
L 260.316223 220.380978 
L 260.236243 220.157447 
L 260.178557 219.927153 
L 260.143722 219.692313 
L 260.132073 219.45519 
L 260.143722 219.218067 
L 260.178557 218.983228 
L 260.236243 218.752934 
L 260.316223 218.529402 
L 260.417729 218.314787 
L 260.539781 218.111155 
L 260.681206 217.920466 
L 260.84064 217.744558 
L 261.016548 217.585123 
L 261.207237 217.443699 
L 261.41087 217.321646 
L 261.625485 217.220141 
L 261.849016 217.14016 
L 262.07931 217.082474 
L 262.31415 217.047639 
L 262.551273 217.03599 
L 262.788396 217.047639 
L 263.023235 217.082474 
L 263.253529 217.14016 
L 263.47706 217.220141 
L 263.691676 217.321646 
L 263.895308 217.443699 
L 264.085997 217.585123 
L 264.261905 217.744558 
L 264.42134 217.920466 
L 264.562764 218.111155 
L 264.684817 218.314787 
L 264.786322 218.529402 
L 264.866303 218.752934 
L 264.923988 218.983228 
L 264.958824 219.218067 
z
" clip-path="url(#p8be1258096)" style="fill: #008000; opacity: 0.5; stroke: #000000; stroke-linejoin: miter"/>
   </g>
   <g id="patch_72">
    <path d="M 238.5792 219.45519 
L 238.567551 219.692313 
L 238.532716 219.927153 
L 238.47503 220.157447 
L 238.395049 220.380978 
L 238.293544 220.595593 
L 238.171491 220.799226 
L 238.030067 220.989914 
L 237.870633 221.165823 
L 237.694724 221.325257 
L 237.504036 221.466682 
L 237.300403 221.588734 
L 237.085788 221.69024 
L 236.862257 221.77022 
L 236.631963 221.827906 
L 236.397123 221.862741 
L 236.16 221.87439 
L 235.922877 221.862741 
L 235.688037 221.827906 
L 235.457743 221.77022 
L 235.234212 221.69024 
L 235.019597 221.588734 
L 234.815964 221.466682 
L 234.625276 221.325257 
L 234.449367 221.165823 
L 234.289933 220.989914 
L 234.148509 220.799226 
L 234.026456 220.595593 
L 233.924951 220.380978 
L 233.84497 220.157447 
L 233.787284 219.927153 
L 233.752449 219.692313 
L 233.7408 219.45519 
L 233.752449 219.218067 
L 233.787284 218.983228 
L 233.84497 218.752934 
L 233.924951 218.529402 
L 234.026456 218.314787 
L 234.148509 218.111155 
L 234.289933 217.920466 
L 234.449367 217.744558 
L 234.625276 217.585123 
L 234.815964 217.443699 
L 235.019597 217.321646 
L 235.234212 217.220141 
L 235.457743 217.14016 
L 235.688037 217.082474 
L 235.922877 217.047639 
L 236.16 217.03599 
L 236.397123 217.047639 
L 236.631963 217.082474 
L 236.862257 217.14016 
L 237.085788 217.220141 
L 237.300403 217.321646 
L 237.504036 217.443699 
L 237.694724 217.585123 
L 237.870633 217.744558 
L 238.030067 217.920466 
L 238.171491 218.111155 
L 238.293544 218.314787 
L 238.395049 218.529402 
L 238.47503 218.752934 
L 238.532716 218.983228 
L 238.567551 219.218067 
z
" clip-path="url(#p8be1258096)" style="fill: #008000; opacity: 0.5; stroke: #000000; stroke-linejoin: miter"/>
   </g>
   <g id="patch_73">
    <path d="M 212.187927 219.45519 
L 212.176278 219.692313 
L 212.141443 219.927153 
L 212.083757 220.157447 
L 212.003777 220.380978 
L 211.902271 220.595593 
L 211.780219 220.799226 
L 211.638794 220.989914 
L 211.47936 221.165823 
L 211.303452 221.325257 
L 211.112763 221.466682 
L 210.90913 221.588734 
L 210.694515 221.69024 
L 210.470984 221.77022 
L 210.24069 221.827906 
L 210.00585 221.862741 
L 209.768727 221.87439 
L 209.531604 221.862741 
L 209.296765 221.827906 
L 209.066471 221.77022 
L 208.84294 221.69024 
L 208.628324 221.588734 
L 208.424692 221.466682 
L 208.234003 221.325257 
L 208.058095 221.165823 
L 207.89866 220.989914 
L 207.757236 220.799226 
L 207.635183 220.595593 
L 207.533678 220.380978 
L 207.453697 220.157447 
L 207.396012 219.927153 
L 207.361176 219.692313 
L 207.349527 219.45519 
L 207.361176 219.218067 
L 207.396012 218.983228 
L 207.453697 218.752934 
L 207.533678 218.529402 
L 207.635183 218.314787 
L 207.757236 218.111155 
L 207.89866 217.920466 
L 208.058095 217.744558 
L 208.234003 217.585123 
L 208.424692 217.443699 
L 208.628324 217.321646 
L 208.84294 217.220141 
L 209.066471 217.14016 
L 209.296765 217.082474 
L 209.531604 217.047639 
L 209.768727 217.03599 
L 210.00585 217.047639 
L 210.24069 217.082474 
L 210.470984 217.14016 
L 210.694515 217.220141 
L 210.90913 217.321646 
L 211.112763 217.443699 
L 211.303452 217.585123 
L 211.47936 217.744558 
L 211.638794 217.920466 
L 211.780219 218.111155 
L 211.902271 218.314787 
L 212.003777 218.529402 
L 212.083757 218.752934 
L 212.141443 218.983228 
L 212.176278 219.218067 
z
" clip-path="url(#p8be1258096)" style="fill: #008000; opacity: 0.5; stroke: #000000; stroke-linejoin: miter"/>
   </g>
   <g id="patch_74">
    <path d="M 185.048902 219.45519 
L 185.040853 219.619021 
L 185.016785 219.781273 
L 184.97693 219.940386 
L 184.92167 220.094825 
L 184.851539 220.243105 
L 184.767212 220.383797 
L 184.669501 220.515545 
L 184.559346 220.637082 
L 184.437809 220.747236 
L 184.306061 220.844948 
L 184.165369 220.929275 
L 184.01709 220.999406 
L 183.86265 221.054666 
L 183.703538 221.094521 
L 183.541285 221.118589 
L 183.377455 221.126638 
L 183.213624 221.118589 
L 183.051371 221.094521 
L 182.892259 221.054666 
L 182.737819 220.999406 
L 182.58954 220.929275 
L 182.448848 220.844948 
L 182.3171 220.747236 
L 182.195563 220.637082 
L 182.085408 220.515545 
L 181.987697 220.383797 
L 181.90337 220.243105 
L 181.833239 220.094825 
L 181.777979 219.940386 
L 181.738124 219.781273 
L 181.714056 219.619021 
L 181.706007 219.45519 
L 181.714056 219.29136 
L 181.738124 219.129107 
L 181.777979 218.969995 
L 181.833239 218.815555 
L 181.90337 218.667275 
L 181.987697 218.526584 
L 182.085408 218.394835 
L 182.195563 218.273299 
L 182.3171 218.163144 
L 182.448848 218.065433 
L 182.58954 217.981105 
L 182.737819 217.910974 
L 182.892259 217.855715 
L 183.051371 217.815859 
L 183.213624 217.791791 
L 183.377455 217.783743 
L 183.541285 217.791791 
L 183.703538 217.815859 
L 183.86265 217.855715 
L 184.01709 217.910974 
L 184.165369 217.981105 
L 184.306061 218.065433 
L 184.437809 218.163144 
L 184.559346 218.273299 
L 184.669501 218.394835 
L 184.767212 218.526584 
L 184.851539 218.667275 
L 184.92167 218.815555 
L 184.97693 218.969995 
L 185.016785 219.129107 
L 185.040853 219.29136 
z
" clip-path="url(#p8be1258096)" style="fill: #ff0000; opacity: 0.5; stroke: #000000; stroke-linejoin: miter"/>
   </g>
   <g id="patch_75">
    <path d="M 171.853265 242.310703 
L 171.845217 242.474533 
L 171.821149 242.636786 
L 171.781293 242.795898 
L 171.726034 242.950338 
L 171.655903 243.098618 
L 171.571576 243.239309 
L 171.473864 243.371058 
L 171.36371 243.492595 
L 171.242173 243.602749 
L 171.110425 243.70046 
L 170.969733 243.784788 
L 170.821453 243.854919 
L 170.667014 243.910178 
L 170.507901 243.950034 
L 170.345649 243.974102 
L 170.181818 243.98215 
L 170.017988 243.974102 
L 169.855735 243.950034 
L 169.696623 243.910178 
L 169.542183 243.854919 
L 169.393903 243.784788 
L 169.253212 243.70046 
L 169.121463 243.602749 
L 168.999926 243.492595 
L 168.889772 243.371058 
L 168.792061 243.239309 
L 168.707733 243.098618 
L 168.637602 242.950338 
L 168.582343 242.795898 
L 168.542487 242.636786 
L 168.518419 242.474533 
L 168.510371 242.310703 
L 168.518419 242.146872 
L 168.542487 241.98462 
L 168.582343 241.825507 
L 168.637602 241.671068 
L 168.707733 241.522788 
L 168.792061 241.382097 
L 168.889772 241.250348 
L 168.999926 241.128811 
L 169.121463 241.018657 
L 169.253212 240.920945 
L 169.393903 240.836618 
L 169.542183 240.766487 
L 169.696623 240.711228 
L 169.855735 240.671372 
L 170.017988 240.647304 
L 170.181818 240.639256 
L 170.345649 240.647304 
L 170.507901 240.671372 
L 170.667014 240.711228 
L 170.821453 240.766487 
L 170.969733 240.836618 
L 171.110425 240.920945 
L 171.242173 241.018657 
L 171.36371 241.128811 
L 171.473864 241.250348 
L 171.571576 241.382097 
L 171.655903 241.522788 
L 171.726034 241.671068 
L 171.781293 241.825507 
L 171.821149 241.98462 
L 171.845217 242.146872 
z
" clip-path="url(#p8be1258096)" style="fill: #ff0000; opacity: 0.5; stroke: #000000; stroke-linejoin: miter"/>
   </g>
   <g id="patch_76">
    <path d="M 198.244538 242.310703 
L 198.23649 242.474533 
L 198.212422 242.636786 
L 198.172566 242.795898 
L 198.117307 242.950338 
L 198.047176 243.098618 
L 197.962849 243.239309 
L 197.865137 243.371058 
L 197.754983 243.492595 
L 197.633446 243.602749 
L 197.501697 243.70046 
L 197.361006 243.784788 
L 197.212726 243.854919 
L 197.058286 243.910178 
L 196.899174 243.950034 
L 196.736921 243.974102 
L 196.573091 243.98215 
L 196.40926 243.974102 
L 196.247008 243.950034 
L 196.087895 243.910178 
L 195.933456 243.854919 
L 195.785176 243.784788 
L 195.644485 243.70046 
L 195.512736 243.602749 
L 195.391199 243.492595 
L 195.281045 243.371058 
L 195.183333 243.239309 
L 195.099006 243.098618 
L 195.028875 242.950338 
L 194.973616 242.795898 
L 194.93376 242.636786 
L 194.909692 242.474533 
L 194.901644 242.310703 
L 194.909692 242.146872 
L 194.93376 241.98462 
L 194.973616 241.825507 
L 195.028875 241.671068 
L 195.099006 241.522788 
L 195.183333 241.382097 
L 195.281045 241.250348 
L 195.391199 241.128811 
L 195.512736 241.018657 
L 195.644485 240.920945 
L 195.785176 240.836618 
L 195.933456 240.766487 
L 196.087895 240.711228 
L 196.247008 240.671372 
L 196.40926 240.647304 
L 196.573091 240.639256 
L 196.736921 240.647304 
L 196.899174 240.671372 
L 197.058286 240.711228 
L 197.212726 240.766487 
L 197.361006 240.836618 
L 197.501697 240.920945 
L 197.633446 241.018657 
L 197.754983 241.128811 
L 197.865137 241.250348 
L 197.962849 241.382097 
L 198.047176 241.522788 
L 198.117307 241.671068 
L 198.172566 241.825507 
L 198.212422 241.98462 
L 198.23649 242.146872 
z
" clip-path="url(#p8be1258096)" style="fill: #ff0000; opacity: 0.5; stroke: #000000; stroke-linejoin: miter"/>
   </g>
   <g id="patch_77">
    <path d="M 225.383564 242.310703 
L 225.371915 242.547826 
L 225.337079 242.782665 
L 225.279394 243.01296 
L 225.199413 243.236491 
L 225.097908 243.451106 
L 224.975855 243.654738 
L 224.834431 243.845427 
L 224.674996 244.021336 
L 224.499088 244.18077 
L 224.308399 244.322194 
L 224.104767 244.444247 
L 223.890151 244.545752 
L 223.66662 244.625733 
L 223.436326 244.683419 
L 223.201487 244.718254 
L 222.964364 244.729903 
L 222.727241 244.718254 
L 222.492401 244.683419 
L 222.262107 244.625733 
L 222.038576 244.545752 
L 221.823961 244.444247 
L 221.620328 244.322194 
L 221.429639 244.18077 
L 221.253731 244.021336 
L 221.094297 243.845427 
L 220.952872 243.654738 
L 220.83082 243.451106 
L 220.729314 243.236491 
L 220.649334 243.01296 
L 220.591648 242.782665 
L 220.556813 242.547826 
L 220.545164 242.310703 
L 220.556813 242.07358 
L 220.591648 241.83874 
L 220.649334 241.608446 
L 220.729314 241.384915 
L 220.83082 241.1703 
L 220.952872 240.966667 
L 221.094297 240.775979 
L 221.253731 240.60007 
L 221.429639 240.440636 
L 221.620328 240.299212 
L 221.823961 240.177159 
L 222.038576 240.075653 
L 222.262107 239.995673 
L 222.492401 239.937987 
L 222.727241 239.903152 
L 222.964364 239.891503 
L 223.201487 239.903152 
L 223.436326 239.937987 
L 223.66662 239.995673 
L 223.890151 240.075653 
L 224.104767 240.177159 
L 224.308399 240.299212 
L 224.499088 240.440636 
L 224.674996 240.60007 
L 224.834431 240.775979 
L 224.975855 240.966667 
L 225.097908 241.1703 
L 225.199413 241.384915 
L 225.279394 241.608446 
L 225.337079 241.83874 
L 225.371915 242.07358 
z
" clip-path="url(#p8be1258096)" style="fill: #008000; opacity: 0.5; stroke: #000000; stroke-linejoin: miter"/>
   </g>
   <g id="patch_78">
    <path d="M 251.774836 242.310703 
L 251.763187 242.547826 
L 251.728352 242.782665 
L 251.670666 243.01296 
L 251.590686 243.236491 
L 251.48918 243.451106 
L 251.367128 243.654738 
L 251.225703 243.845427 
L 251.066269 244.021336 
L 250.890361 244.18077 
L 250.699672 244.322194 
L 250.496039 244.444247 
L 250.281424 244.545752 
L 250.057893 244.625733 
L 249.827599 244.683419 
L 249.592759 244.718254 
L 249.355636 244.729903 
L 249.118513 244.718254 
L 248.883674 244.683419 
L 248.65338 244.625733 
L 248.429849 244.545752 
L 248.215233 244.444247 
L 248.011601 244.322194 
L 247.820912 244.18077 
L 247.645004 244.021336 
L 247.485569 243.845427 
L 247.344145 243.654738 
L 247.222092 243.451106 
L 247.120587 243.236491 
L 247.040606 243.01296 
L 246.982921 242.782665 
L 246.948085 242.547826 
L 246.936436 242.310703 
L 246.948085 242.07358 
L 246.982921 241.83874 
L 247.040606 241.608446 
L 247.120587 241.384915 
L 247.222092 241.1703 
L 247.344145 240.966667 
L 247.485569 240.775979 
L 247.645004 240.60007 
L 247.820912 240.440636 
L 248.011601 240.299212 
L 248.215233 240.177159 
L 248.429849 240.075653 
L 248.65338 239.995673 
L 248.883674 239.937987 
L 249.118513 239.903152 
L 249.355636 239.891503 
L 249.592759 239.903152 
L 249.827599 239.937987 
L 250.057893 239.995673 
L 250.281424 240.075653 
L 250.496039 240.177159 
L 250.699672 240.299212 
L 250.890361 240.440636 
L 251.066269 240.60007 
L 251.225703 240.775979 
L 251.367128 240.966667 
L 251.48918 241.1703 
L 251.590686 241.384915 
L 251.670666 241.608446 
L 251.728352 241.83874 
L 251.763187 242.07358 
z
" clip-path="url(#p8be1258096)" style="fill: #008000; opacity: 0.5; stroke: #000000; stroke-linejoin: miter"/>
   </g>
   <g id="patch_79">
    <path d="M 277.418356 242.310703 
L 277.410308 242.474533 
L 277.38624 242.636786 
L 277.346384 242.795898 
L 277.291125 242.950338 
L 277.220994 243.098618 
L 277.136667 243.239309 
L 277.038955 243.371058 
L 276.928801 243.492595 
L 276.807264 243.602749 
L 276.675515 243.70046 
L 276.534824 243.784788 
L 276.386544 243.854919 
L 276.232105 243.910178 
L 276.072992 243.950034 
L 275.91074 243.974102 
L 275.746909 243.98215 
L 275.583079 243.974102 
L 275.420826 243.950034 
L 275.261714 243.910178 
L 275.107274 243.854919 
L 274.958994 243.784788 
L 274.818303 243.70046 
L 274.686554 243.602749 
L 274.565017 243.492595 
L 274.454863 243.371058 
L 274.357151 243.239309 
L 274.272824 243.098618 
L 274.202693 242.950338 
L 274.147434 242.795898 
L 274.107578 242.636786 
L 274.08351 242.474533 
L 274.075462 242.310703 
L 274.08351 242.146872 
L 274.107578 241.98462 
L 274.147434 241.825507 
L 274.202693 241.671068 
L 274.272824 241.522788 
L 274.357151 241.382097 
L 274.454863 241.250348 
L 274.565017 241.128811 
L 274.686554 241.018657 
L 274.818303 240.920945 
L 274.958994 240.836618 
L 275.107274 240.766487 
L 275.261714 240.711228 
L 275.420826 240.671372 
L 275.583079 240.647304 
L 275.746909 240.639256 
L 275.91074 240.647304 
L 276.072992 240.671372 
L 276.232105 240.711228 
L 276.386544 240.766487 
L 276.534824 240.836618 
L 276.675515 240.920945 
L 276.807264 241.018657 
L 276.928801 241.128811 
L 277.038955 241.250348 
L 277.136667 241.382097 
L 277.220994 241.522788 
L 277.291125 241.671068 
L 277.346384 241.825507 
L 277.38624 241.98462 
L 277.410308 242.146872 
z
" clip-path="url(#p8be1258096)" style="fill: #ff0000; opacity: 0.5; stroke: #000000; stroke-linejoin: miter"/>
   </g>
   <g id="patch_80">
    <path d="M 304.557382 242.310703 
L 304.545733 242.547826 
L 304.510898 242.782665 
L 304.453212 243.01296 
L 304.373231 243.236491 
L 304.271726 243.451106 
L 304.149673 243.654738 
L 304.008249 243.845427 
L 303.848815 244.021336 
L 303.672906 244.18077 
L 303.482217 244.322194 
L 303.278585 244.444247 
L 303.06397 244.545752 
L 302.840439 244.625733 
L 302.610144 244.683419 
L 302.375305 244.718254 
L 302.138182 244.729903 
L 301.901059 244.718254 
L 301.666219 244.683419 
L 301.435925 244.625733 
L 301.212394 244.545752 
L 300.997779 244.444247 
L 300.794146 244.322194 
L 300.603458 244.18077 
L 300.427549 244.021336 
L 300.268115 243.845427 
L 300.126691 243.654738 
L 300.004638 243.451106 
L 299.903132 243.236491 
L 299.823152 243.01296 
L 299.765466 242.782665 
L 299.730631 242.547826 
L 299.718982 242.310703 
L 299.730631 242.07358 
L 299.765466 241.83874 
L 299.823152 241.608446 
L 299.903132 241.384915 
L 300.004638 241.1703 
L 300.126691 240.966667 
L 300.268115 240.775979 
L 300.427549 240.60007 
L 300.603458 240.440636 
L 300.794146 240.299212 
L 300.997779 240.177159 
L 301.212394 240.075653 
L 301.435925 239.995673 
L 301.666219 239.937987 
L 301.901059 239.903152 
L 302.138182 239.891503 
L 302.375305 239.903152 
L 302.610144 239.937987 
L 302.840439 239.995673 
L 303.06397 240.075653 
L 303.278585 240.177159 
L 303.482217 240.299212 
L 303.672906 240.440636 
L 303.848815 240.60007 
L 304.008249 240.775979 
L 304.149673 240.966667 
L 304.271726 241.1703 
L 304.373231 241.384915 
L 304.453212 241.608446 
L 304.510898 241.83874 
L 304.545733 242.07358 
z
" clip-path="url(#p8be1258096)" style="fill: #008000; opacity: 0.5; stroke: #000000; stroke-linejoin: miter"/>
   </g>
   <g id="matplotlib.axis_1">
    <g id="xtick_1">
     <g id="line2d_1">
      <defs>
       <path id="ma468b276a2" d="M 0 0 
L 0 3.5 
" style="stroke: #000000; stroke-width: 0.8"/>
      </defs>
      <g>
       <use xlink:href="#ma468b276a2" x="104.203636" y="307.584" style="stroke: #000000; stroke-width: 0.8"/>
      </g>
     </g>
     <g id="text_1">
      <!-- 30 -->
      <g transform="translate(93.651293 322.182437) scale(0.1 -0.1)">
       <defs>
        <path id="DejaVuSans-2212" d="M 678 2272 
L 4684 2272 
L 4684 1741 
L 678 1741 
L 678 2272 
z
" transform="scale(0.015625)"/>
        <path id="DejaVuSans-33" d="M 2597 2516 
Q 3050 2419 3304 2112 
Q 3559 1806 3559 1356 
Q 3559 666 3084 287 
Q 2609 -91 1734 -91 
Q 1441 -91 1130 -33 
Q 819 25 488 141 
L 488 750 
Q 750 597 1062 519 
Q 1375 441 1716 441 
Q 2309 441 2620 675 
Q 2931 909 2931 1356 
Q 2931 1769 2642 2001 
Q 2353 2234 1838 2234 
L 1294 2234 
L 1294 2753 
L 1863 2753 
Q 2328 2753 2575 2939 
Q 2822 3125 2822 3475 
Q 2822 3834 2567 4026 
Q 2313 4219 1838 4219 
Q 1578 4219 1281 4162 
Q 984 4106 628 3988 
L 628 4550 
Q 988 4650 1302 4700 
Q 1616 4750 1894 4750 
Q 2613 4750 3031 4423 
Q 3450 4097 3450 3541 
Q 3450 3153 3228 2886 
Q 3006 2619 2597 2516 
z
" transform="scale(0.015625)"/>
        <path id="DejaVuSans-30" d="M 2034 4250 
Q 1547 4250 1301 3770 
Q 1056 3291 1056 2328 
Q 1056 1369 1301 889 
Q 1547 409 2034 409 
Q 2525 409 2770 889 
Q 3016 1369 3016 2328 
Q 3016 3291 2770 3770 
Q 2525 4250 2034 4250 
z
M 2034 4750 
Q 2819 4750 3233 4129 
Q 3647 3509 3647 2328 
Q 3647 1150 3233 529 
Q 2819 -91 2034 -91 
Q 1250 -91 836 529 
Q 422 1150 422 2328 
Q 422 3509 836 4129 
Q 1250 4750 2034 4750 
z
" transform="scale(0.015625)"/>
       </defs>
       <use xlink:href="#DejaVuSans-2212"/>
       <use xlink:href="#DejaVuSans-33" x="83.789062"/>
       <use xlink:href="#DejaVuSans-30" x="147.412109"/>
      </g>
     </g>
    </g>
    <g id="xtick_2">
     <g id="line2d_2">
      <g>
       <use xlink:href="#ma468b276a2" x="148.189091" y="307.584" style="stroke: #000000; stroke-width: 0.8"/>
      </g>
     </g>
     <g id="text_2">
      <!-- 20 -->
      <g transform="translate(137.636747 322.182437) scale(0.1 -0.1)">
       <defs>
        <path id="DejaVuSans-32" d="M 1228 531 
L 3431 531 
L 3431 0 
L 469 0 
L 469 531 
Q 828 903 1448 1529 
Q 2069 2156 2228 2338 
Q 2531 2678 2651 2914 
Q 2772 3150 2772 3378 
Q 2772 3750 2511 3984 
Q 2250 4219 1831 4219 
Q 1534 4219 1204 4116 
Q 875 4013 500 3803 
L 500 4441 
Q 881 4594 1212 4672 
Q 1544 4750 1819 4750 
Q 2544 4750 2975 4387 
Q 3406 4025 3406 3419 
Q 3406 3131 3298 2873 
Q 3191 2616 2906 2266 
Q 2828 2175 2409 1742 
Q 1991 1309 1228 531 
z
" transform="scale(0.015625)"/>
       </defs>
       <use xlink:href="#DejaVuSans-2212"/>
       <use xlink:href="#DejaVuSans-32" x="83.789062"/>
       <use xlink:href="#DejaVuSans-30" x="147.412109"/>
      </g>
     </g>
    </g>
    <g id="xtick_3">
     <g id="line2d_3">
      <g>
       <use xlink:href="#ma468b276a2" x="192.174545" y="307.584" style="stroke: #000000; stroke-width: 0.8"/>
      </g>
     </g>
     <g id="text_3">
      <!-- 10 -->
      <g transform="translate(181.622202 322.182437) scale(0.1 -0.1)">
       <defs>
        <path id="DejaVuSans-31" d="M 794 531 
L 1825 531 
L 1825 4091 
L 703 3866 
L 703 4441 
L 1819 4666 
L 2450 4666 
L 2450 531 
L 3481 531 
L 3481 0 
L 794 0 
L 794 531 
z
" transform="scale(0.015625)"/>
       </defs>
       <use xlink:href="#DejaVuSans-2212"/>
       <use xlink:href="#DejaVuSans-31" x="83.789062"/>
       <use xlink:href="#DejaVuSans-30" x="147.412109"/>
      </g>
     </g>
    </g>
    <g id="xtick_4">
     <g id="line2d_4">
      <g>
       <use xlink:href="#ma468b276a2" x="236.16" y="307.584" style="stroke: #000000; stroke-width: 0.8"/>
      </g>
     </g>
     <g id="text_4">
      <!-- 0 -->
      <g transform="translate(232.97875 322.182437) scale(0.1 -0.1)">
       <use xlink:href="#DejaVuSans-30"/>
      </g>
     </g>
    </g>
    <g id="xtick_5">
     <g id="line2d_5">
      <g>
       <use xlink:href="#ma468b276a2" x="280.145455" y="307.584" style="stroke: #000000; stroke-width: 0.8"/>
      </g>
     </g>
     <g id="text_5">
      <!-- 10 -->
      <g transform="translate(273.782955 322.182437) scale(0.1 -0.1)">
       <use xlink:href="#DejaVuSans-31"/>
       <use xlink:href="#DejaVuSans-30" x="63.623047"/>
      </g>
     </g>
    </g>
    <g id="xtick_6">
     <g id="line2d_6">
      <g>
       <use xlink:href="#ma468b276a2" x="324.130909" y="307.584" style="stroke: #000000; stroke-width: 0.8"/>
      </g>
     </g>
     <g id="text_6">
      <!-- 20 -->
      <g transform="translate(317.768409 322.182437) scale(0.1 -0.1)">
       <use xlink:href="#DejaVuSans-32"/>
       <use xlink:href="#DejaVuSans-30" x="63.623047"/>
      </g>
     </g>
    </g>
    <g id="xtick_7">
     <g id="line2d_7">
      <g>
       <use xlink:href="#ma468b276a2" x="368.116364" y="307.584" style="stroke: #000000; stroke-width: 0.8"/>
      </g>
     </g>
     <g id="text_7">
      <!-- 30 -->
      <g transform="translate(361.753864 322.182437) scale(0.1 -0.1)">
       <use xlink:href="#DejaVuSans-33"/>
       <use xlink:href="#DejaVuSans-30" x="63.623047"/>
      </g>
     </g>
    </g>
   </g>
   <g id="matplotlib.axis_2">
    <g id="ytick_1">
     <g id="line2d_8">
      <defs>
       <path id="m7a9972ff39" d="M 0 0 
L -3.5 0 
" style="stroke: #000000; stroke-width: 0.8"/>
      </defs>
      <g>
       <use xlink:href="#m7a9972ff39" x="89.324739" y="292.189091" style="stroke: #000000; stroke-width: 0.8"/>
      </g>
     </g>
     <g id="text_8">
      <!-- 20 -->
      <g transform="translate(61.220051 295.98831) scale(0.1 -0.1)">
       <use xlink:href="#DejaVuSans-2212"/>
       <use xlink:href="#DejaVuSans-32" x="83.789062"/>
       <use xlink:href="#DejaVuSans-30" x="147.412109"/>
      </g>
     </g>
    </g>
    <g id="ytick_2">
     <g id="line2d_9">
      <g>
       <use xlink:href="#m7a9972ff39" x="89.324739" y="248.203636" style="stroke: #000000; stroke-width: 0.8"/>
      </g>
     </g>
     <g id="text_9">
      <!-- 10 -->
      <g transform="translate(61.220051 252.002855) scale(0.1 -0.1)">
       <use xlink:href="#DejaVuSans-2212"/>
       <use xlink:href="#DejaVuSans-31" x="83.789062"/>
       <use xlink:href="#DejaVuSans-30" x="147.412109"/>
      </g>
     </g>
    </g>
    <g id="ytick_3">
     <g id="line2d_10">
      <g>
       <use xlink:href="#m7a9972ff39" x="89.324739" y="204.218182" style="stroke: #000000; stroke-width: 0.8"/>
      </g>
     </g>
     <g id="text_10">
      <!-- 0 -->
      <g transform="translate(75.962239 208.017401) scale(0.1 -0.1)">
       <use xlink:href="#DejaVuSans-30"/>
      </g>
     </g>
    </g>
    <g id="ytick_4">
     <g id="line2d_11">
      <g>
       <use xlink:href="#m7a9972ff39" x="89.324739" y="160.232727" style="stroke: #000000; stroke-width: 0.8"/>
      </g>
     </g>
     <g id="text_11">
      <!-- 10 -->
      <g transform="translate(69.599739 164.031946) scale(0.1 -0.1)">
       <use xlink:href="#DejaVuSans-31"/>
       <use xlink:href="#DejaVuSans-30" x="63.623047"/>
      </g>
     </g>
    </g>
    <g id="ytick_5">
     <g id="line2d_12">
      <g>
       <use xlink:href="#m7a9972ff39" x="89.324739" y="116.247273" style="stroke: #000000; stroke-width: 0.8"/>
      </g>
     </g>
     <g id="text_12">
      <!-- 20 -->
      <g transform="translate(69.599739 120.046491) scale(0.1 -0.1)">
       <use xlink:href="#DejaVuSans-32"/>
       <use xlink:href="#DejaVuSans-30" x="63.623047"/>
      </g>
     </g>
    </g>
    <g id="ytick_6">
     <g id="line2d_13">
      <g>
       <use xlink:href="#m7a9972ff39" x="89.324739" y="72.261818" style="stroke: #000000; stroke-width: 0.8"/>
      </g>
     </g>
     <g id="text_13">
      <!-- 30 -->
      <g transform="translate(69.599739 76.061037) scale(0.1 -0.1)">
       <use xlink:href="#DejaVuSans-33"/>
       <use xlink:href="#DejaVuSans-30" x="63.623047"/>
      </g>
     </g>
    </g>
   </g>
   <g id="patch_81">
    <path d="M 89.324739 307.584 
L 89.324739 41.472 
" style="fill: none; stroke: #000000; stroke-width: 0.8; stroke-linejoin: miter; stroke-linecap: square"/>
   </g>
   <g id="patch_82">
    <path d="M 382.995261 307.584 
L 382.995261 41.472 
" style="fill: none; stroke: #000000; stroke-width: 0.8; stroke-linejoin: miter; stroke-linecap: square"/>
   </g>
   <g id="patch_83">
    <path d="M 89.324739 307.584 
L 382.995261 307.584 
" style="fill: none; stroke: #000000; stroke-width: 0.8; stroke-linejoin: miter; stroke-linecap: square"/>
   </g>
   <g id="patch_84">
    <path d="M 89.324739 41.472 
L 382.995261 41.472 
" style="fill: none; stroke: #000000; stroke-width: 0.8; stroke-linejoin: miter; stroke-linecap: square"/>
   </g>
   <g id="text_14">
    <!-- Plato_A2 Design -->
    <g transform="translate(187.630312 35.472) scale(0.12 -0.12)">
     <defs>
      <path id="DejaVuSans-50" d="M 1259 4147 
L 1259 2394 
L 2053 2394 
Q 2494 2394 2734 2622 
Q 2975 2850 2975 3272 
Q 2975 3691 2734 3919 
Q 2494 4147 2053 4147 
L 1259 4147 
z
M 628 4666 
L 2053 4666 
Q 2838 4666 3239 4311 
Q 3641 3956 3641 3272 
Q 3641 2581 3239 2228 
Q 2838 1875 2053 1875 
L 1259 1875 
L 1259 0 
L 628 0 
L 628 4666 
z
" transform="scale(0.015625)"/>
      <path id="DejaVuSans-6c" d="M 603 4863 
L 1178 4863 
L 1178 0 
L 603 0 
L 603 4863 
z
" transform="scale(0.015625)"/>
      <path id="DejaVuSans-61" d="M 2194 1759 
Q 1497 1759 1228 1600 
Q 959 1441 959 1056 
Q 959 750 1161 570 
Q 1363 391 1709 391 
Q 2188 391 2477 730 
Q 2766 1069 2766 1631 
L 2766 1759 
L 2194 1759 
z
M 3341 1997 
L 3341 0 
L 2766 0 
L 2766 531 
Q 2569 213 2275 61 
Q 1981 -91 1556 -91 
Q 1019 -91 701 211 
Q 384 513 384 1019 
Q 384 1609 779 1909 
Q 1175 2209 1959 2209 
L 2766 2209 
L 2766 2266 
Q 2766 2663 2505 2880 
Q 2244 3097 1772 3097 
Q 1472 3097 1187 3025 
Q 903 2953 641 2809 
L 641 3341 
Q 956 3463 1253 3523 
Q 1550 3584 1831 3584 
Q 2591 3584 2966 3190 
Q 3341 2797 3341 1997 
z
" transform="scale(0.015625)"/>
      <path id="DejaVuSans-74" d="M 1172 4494 
L 1172 3500 
L 2356 3500 
L 2356 3053 
L 1172 3053 
L 1172 1153 
Q 1172 725 1289 603 
Q 1406 481 1766 481 
L 2356 481 
L 2356 0 
L 1766 0 
Q 1100 0 847 248 
Q 594 497 594 1153 
L 594 3053 
L 172 3053 
L 172 3500 
L 594 3500 
L 594 4494 
L 1172 4494 
z
" transform="scale(0.015625)"/>
      <path id="DejaVuSans-6f" d="M 1959 3097 
Q 1497 3097 1228 2736 
Q 959 2375 959 1747 
Q 959 1119 1226 758 
Q 1494 397 1959 397 
Q 2419 397 2687 759 
Q 2956 1122 2956 1747 
Q 2956 2369 2687 2733 
Q 2419 3097 1959 3097 
z
M 1959 3584 
Q 2709 3584 3137 3096 
Q 3566 2609 3566 1747 
Q 3566 888 3137 398 
Q 2709 -91 1959 -91 
Q 1206 -91 779 398 
Q 353 888 353 1747 
Q 353 2609 779 3096 
Q 1206 3584 1959 3584 
z
" transform="scale(0.015625)"/>
      <path id="DejaVuSans-5f" d="M 3263 -1063 
L 3263 -1509 
L -63 -1509 
L -63 -1063 
L 3263 -1063 
z
" transform="scale(0.015625)"/>
      <path id="DejaVuSans-41" d="M 2188 4044 
L 1331 1722 
L 3047 1722 
L 2188 4044 
z
M 1831 4666 
L 2547 4666 
L 4325 0 
L 3669 0 
L 3244 1197 
L 1141 1197 
L 716 0 
L 50 0 
L 1831 4666 
z
" transform="scale(0.015625)"/>
      <path id="DejaVuSans-20" transform="scale(0.015625)"/>
      <path id="DejaVuSans-44" d="M 1259 4147 
L 1259 519 
L 2022 519 
Q 2988 519 3436 956 
Q 3884 1394 3884 2338 
Q 3884 3275 3436 3711 
Q 2988 4147 2022 4147 
L 1259 4147 
z
M 628 4666 
L 1925 4666 
Q 3281 4666 3915 4102 
Q 4550 3538 4550 2338 
Q 4550 1131 3912 565 
Q 3275 0 1925 0 
L 628 0 
L 628 4666 
z
" transform="scale(0.015625)"/>
      <path id="DejaVuSans-65" d="M 3597 1894 
L 3597 1613 
L 953 1613 
Q 991 1019 1311 708 
Q 1631 397 2203 397 
Q 2534 397 2845 478 
Q 3156 559 3463 722 
L 3463 178 
Q 3153 47 2828 -22 
Q 2503 -91 2169 -91 
Q 1331 -91 842 396 
Q 353 884 353 1716 
Q 353 2575 817 3079 
Q 1281 3584 2069 3584 
Q 2775 3584 3186 3129 
Q 3597 2675 3597 1894 
z
M 3022 2063 
Q 3016 2534 2758 2815 
Q 2500 3097 2075 3097 
Q 1594 3097 1305 2825 
Q 1016 2553 972 2059 
L 3022 2063 
z
" transform="scale(0.015625)"/>
      <path id="DejaVuSans-73" d="M 2834 3397 
L 2834 2853 
Q 2591 2978 2328 3040 
Q 2066 3103 1784 3103 
Q 1356 3103 1142 2972 
Q 928 2841 928 2578 
Q 928 2378 1081 2264 
Q 1234 2150 1697 2047 
L 1894 2003 
Q 2506 1872 2764 1633 
Q 3022 1394 3022 966 
Q 3022 478 2636 193 
Q 2250 -91 1575 -91 
Q 1294 -91 989 -36 
Q 684 19 347 128 
L 347 722 
Q 666 556 975 473 
Q 1284 391 1588 391 
Q 1994 391 2212 530 
Q 2431 669 2431 922 
Q 2431 1156 2273 1281 
Q 2116 1406 1581 1522 
L 1381 1569 
Q 847 1681 609 1914 
Q 372 2147 372 2553 
Q 372 3047 722 3315 
Q 1072 3584 1716 3584 
Q 2034 3584 2315 3537 
Q 2597 3491 2834 3397 
z
" transform="scale(0.015625)"/>
      <path id="DejaVuSans-69" d="M 603 3500 
L 1178 3500 
L 1178 0 
L 603 0 
L 603 3500 
z
M 603 4863 
L 1178 4863 
L 1178 4134 
L 603 4134 
L 603 4863 
z
" transform="scale(0.015625)"/>
      <path id="DejaVuSans-67" d="M 2906 1791 
Q 2906 2416 2648 2759 
Q 2391 3103 1925 3103 
Q 1463 3103 1205 2759 
Q 947 2416 947 1791 
Q 947 1169 1205 825 
Q 1463 481 1925 481 
Q 2391 481 2648 825 
Q 2906 1169 2906 1791 
z
M 3481 434 
Q 3481 -459 3084 -895 
Q 2688 -1331 1869 -1331 
Q 1566 -1331 1297 -1286 
Q 1028 -1241 775 -1147 
L 775 -588 
Q 1028 -725 1275 -790 
Q 1522 -856 1778 -856 
Q 2344 -856 2625 -561 
Q 2906 -266 2906 331 
L 2906 616 
Q 2728 306 2450 153 
Q 2172 0 1784 0 
Q 1141 0 747 490 
Q 353 981 353 1791 
Q 353 2603 747 3093 
Q 1141 3584 1784 3584 
Q 2172 3584 2450 3431 
Q 2728 3278 2906 2969 
L 2906 3500 
L 3481 3500 
L 3481 434 
z
" transform="scale(0.015625)"/>
      <path id="DejaVuSans-6e" d="M 3513 2113 
L 3513 0 
L 2938 0 
L 2938 2094 
Q 2938 2591 2744 2837 
Q 2550 3084 2163 3084 
Q 1697 3084 1428 2787 
Q 1159 2491 1159 1978 
L 1159 0 
L 581 0 
L 581 3500 
L 1159 3500 
L 1159 2956 
Q 1366 3272 1645 3428 
Q 1925 3584 2291 3584 
Q 2894 3584 3203 3211 
Q 3513 2838 3513 2113 
z
" transform="scale(0.015625)"/>
     </defs>
     <use xlink:href="#DejaVuSans-50"/>
     <use xlink:href="#DejaVuSans-6c" x="60.302734"/>
     <use xlink:href="#DejaVuSans-61" x="88.085938"/>
     <use xlink:href="#DejaVuSans-74" x="149.365234"/>
     <use xlink:href="#DejaVuSans-6f" x="188.574219"/>
     <use xlink:href="#DejaVuSans-5f" x="249.755859"/>
     <use xlink:href="#DejaVuSans-41" x="299.755859"/>
     <use xlink:href="#DejaVuSans-32" x="368.164062"/>
     <use xlink:href="#DejaVuSans-20" x="431.787109"/>
     <use xlink:href="#DejaVuSans-44" x="463.574219"/>
     <use xlink:href="#DejaVuSans-65" x="540.576172"/>
     <use xlink:href="#DejaVuSans-73" x="602.099609"/>
     <use xlink:href="#DejaVuSans-69" x="654.199219"/>
     <use xlink:href="#DejaVuSans-67" x="681.982422"/>
     <use xlink:href="#DejaVuSans-6e" x="745.458984"/>
    </g>
   </g>
  </g>
 </g>
 <defs>
  <clipPath id="p8be1258096">
   <rect x="89.324739" y="41.472" width="293.670523" height="266.112"/>
  </clipPath>
 </defs>
</svg>
