<?xml version='1.0' encoding='UTF-8'?>
<!DOCTYPE svg PUBLIC "-//W3C//DTD SVG 1.1//EN" "http://www.w3.org/Graphics/SVG/1.1/DTD/svg11.dtd">
<svg xmlns:svg="http://www.w3.org/2000/svg" xmlns="http://www.w3.org/2000/svg" xmlns:xlink="http://www.w3.org/1999/xlink" version="1.1" width="1069.3654mm" height="565.6834mm" viewBox="0.0000 0.0000 1069.3654 565.6834">
  <title>SVG Image created as Plato_A2-F_Cu.svg date 2024/05/02 01:56:59 </title>
  <desc>Image generated by PCBNEW </desc>
  <g style="fill:#000000; fill-opacity:1.0000;stroke:#000000; stroke-opacity:1.0000; stroke-linecap:round; stroke-linejoin:round;" transform="translate(0 0) scale(1 1)">
    <path style="fill:#000000; fill-opacity:1.0000; stroke:none;fill-rule:evenodd;" d="M 24.9903,18.7326 25.0010,18.6790 25.0313,18.6336 25.0767,18.6033 25.1303,18.5926 25.4103,18.5926 25.4639,18.6033 25.5093,18.6336 25.5397,18.6790 25.5503,18.7326 25.5503,19.0726 25.5397,19.1262 25.5093,19.1716 25.4639,19.2019 25.4103,19.2126 25.1303,19.2126 25.0767,19.2019 25.0313,19.1716 25.0010,19.1262 24.9903,19.0726 Z"/>
    <path style="fill:#000000; fill-opacity:1.0000; stroke:none;fill-rule:evenodd;" d="M 25.9503,18.7326 25.9610,18.6790 25.9913,18.6336 26.0367,18.6033 26.0903,18.5926 26.3703,18.5926 26.4239,18.6033 26.4693,18.6336 26.4997,18.6790 26.5103,18.7326 26.5103,19.0726 26.4997,19.1262 26.4693,19.1716 26.4239,19.2019 26.3703,19.2126 26.0903,19.2126 26.0367,19.2019 25.9913,19.1716 25.9610,19.1262 25.9503,19.0726 Z"/>
    <path style="fill:#000000; fill-opacity:1.0000; stroke:none;fill-rule:evenodd;" d="M 7.4903,29.1249 7.5010,29.0713 7.5313,29.0259 7.5767,28.9956 7.6303,28.9849 7.9103,28.9849 7.9639,28.9956 8.0093,29.0259 8.0397,29.0713 8.0503,29.1249 8.0503,29.4649 8.0397,29.5185 8.0093,29.5639 7.9639,29.5943 7.9103,29.6049 7.6303,29.6049 7.5767,29.5943 7.5313,29.5639 7.5010,29.5185 7.4903,29.4649 Z"/>
    <path style="fill:#000000; fill-opacity:1.0000; stroke:none;fill-rule:evenodd;" d="M 8.4503,29.1249 8.4610,29.0713 8.4913,29.0259 8.5367,28.9956 8.5903,28.9849 8.8703,28.9849 8.9239,28.9956 8.9693,29.0259 8.9997,29.0713 9.0103,29.1249 9.0103,29.4649 8.9997,29.5185 8.9693,29.5639 8.9239,29.5943 8.8703,29.6049 8.5903,29.6049 8.5367,29.5943 8.4913,29.5639 8.4610,29.5185 8.4503,29.4649 Z"/>
  </g>
  <g style="fill:#000000; fill-opacity:1.0000; stroke:none;">
    <circle cx="7.7503" cy="34.7590" r="0.7620"/>
    <path style="fill:#000000; fill-opacity:1.0000; stroke:none;fill-rule:evenodd;" d="M 21.4853,15.5065 21.4853,14.8065 22.1853,14.8065 22.1853,15.5065 Z"/>
    <path style="fill:#000000; fill-opacity:1.0000; stroke:none;fill-rule:evenodd;" d="M 21.4853,16.6065 21.4853,15.9065 22.1853,15.9065 22.1853,16.6065 Z"/>
    <path style="fill:#000000; fill-opacity:1.0000; stroke:none;fill-rule:evenodd;" d="M 23.3153,16.6065 23.3153,15.9065 24.0153,15.9065 24.0153,16.6065 Z"/>
    <path style="fill:#000000; fill-opacity:1.0000; stroke:none;fill-rule:evenodd;" d="M 23.3153,15.5065 23.3153,14.8065 24.0153,14.8065 24.0153,15.5065 Z"/>
    <path style="fill:#000000; fill-opacity:1.0000; stroke:none;fill-rule:evenodd;" d="M 21.0153,10.7103 21.0153,11.4103 20.3153,11.4103 20.3153,10.7103 Z"/>
    <path style="fill:#000000; fill-opacity:1.0000; stroke:none;fill-rule:evenodd;" d="M 21.0153,9.6103 21.0153,10.3103 20.3153,10.3103 20.3153,9.6103 Z"/>
    <path style="fill:#000000; fill-opacity:1.0000; stroke:none;fill-rule:evenodd;" d="M 19.1853,9.6103 19.1853,10.3103 18.4853,10.3103 18.4853,9.6103 Z"/>
    <path style="fill:#000000; fill-opacity:1.0000; stroke:none;fill-rule:evenodd;" d="M 19.1853,10.7103 19.1853,11.4103 18.4853,11.4103 18.4853,10.7103 Z"/>
    <path style="fill:#000000; fill-opacity:1.0000; stroke:none;fill-rule:evenodd;" d="M 3.4853,36.2911 3.4853,35.5911 4.1853,35.5911 4.1853,36.2911 Z"/>
    <path style="fill:#000000; fill-opacity:1.0000; stroke:none;fill-rule:evenodd;" d="M 3.4853,37.3911 3.4853,36.6911 4.1853,36.6911 4.1853,37.3911 Z"/>
    <path style="fill:#000000; fill-opacity:1.0000; stroke:none;fill-rule:evenodd;" d="M 5.3153,37.3911 5.3153,36.6911 6.0153,36.6911 6.0153,37.3911 Z"/>
    <path style="fill:#000000; fill-opacity:1.0000; stroke:none;fill-rule:evenodd;" d="M 5.3153,36.2911 5.3153,35.5911 6.0153,35.5911 6.0153,36.2911 Z"/>
    <path style="fill:#000000; fill-opacity:1.0000; stroke:none;fill-rule:evenodd;" d="M 15.4853,25.8988 15.4853,25.1988 16.1853,25.1988 16.1853,25.8988 Z"/>
    <path style="fill:#000000; fill-opacity:1.0000; stroke:none;fill-rule:evenodd;" d="M 15.4853,26.9988 15.4853,26.2988 16.1853,26.2988 16.1853,26.9988 Z"/>
    <path style="fill:#000000; fill-opacity:1.0000; stroke:none;fill-rule:evenodd;" d="M 17.3153,26.9988 17.3153,26.2988 18.0153,26.2988 18.0153,26.9988 Z"/>
    <path style="fill:#000000; fill-opacity:1.0000; stroke:none;fill-rule:evenodd;" d="M 17.3153,25.8988 17.3153,25.1988 18.0153,25.1988 18.0153,25.8988 Z"/>
  </g>
  <g style="fill:#000000; fill-opacity:1.0000; stroke:none;">
    <circle cx="34.7503" cy="29.5629" r="0.7620"/>
    <path style="fill:#000000; fill-opacity:1.0000; stroke:none;fill-rule:evenodd;" d="M 27.0153,10.7103 27.0153,11.4103 26.3153,11.4103 26.3153,10.7103 Z"/>
    <path style="fill:#000000; fill-opacity:1.0000; stroke:none;fill-rule:evenodd;" d="M 27.0153,9.6103 27.0153,10.3103 26.3153,10.3103 26.3153,9.6103 Z"/>
    <path style="fill:#000000; fill-opacity:1.0000; stroke:none;fill-rule:evenodd;" d="M 25.1853,9.6103 25.1853,10.3103 24.4853,10.3103 24.4853,9.6103 Z"/>
    <path style="fill:#000000; fill-opacity:1.0000; stroke:none;fill-rule:evenodd;" d="M 25.1853,10.7103 25.1853,11.4103 24.4853,11.4103 24.4853,10.7103 Z"/>
  </g>
  <g style="fill:#000000; fill-opacity:1.0000; stroke:none;">
    <circle cx="22.7503" cy="8.7782" r="0.7620"/>
    <path style="fill:#000000; fill-opacity:1.0000; stroke:none;fill-rule:evenodd;" d="M 11.5103,24.2688 11.4997,24.3223 11.4693,24.3678 11.4239,24.3981 11.3703,24.4088 11.0903,24.4088 11.0367,24.3981 10.9913,24.3678 10.9610,24.3223 10.9503,24.2688 10.9503,23.9288 10.9610,23.8752 10.9913,23.8298 11.0367,23.7994 11.0903,23.7888 11.3703,23.7888 11.4239,23.7994 11.4693,23.8298 11.4997,23.8752 11.5103,23.9288 Z"/>
    <path style="fill:#000000; fill-opacity:1.0000; stroke:none;fill-rule:evenodd;" d="M 10.5503,24.2688 10.5397,24.3223 10.5093,24.3678 10.4639,24.3981 10.4103,24.4088 10.1303,24.4088 10.0767,24.3981 10.0313,24.3678 10.0010,24.3223 9.9903,24.2688 9.9903,23.9288 10.0010,23.8752 10.0313,23.8298 10.0767,23.7994 10.1303,23.7888 10.4103,23.7888 10.4639,23.7994 10.5093,23.8298 10.5397,23.8752 10.5503,23.9288 Z"/>
  </g>
  <g style="fill:#000000; fill-opacity:1.0000; stroke:none;">
    <circle cx="31.7503" cy="34.7590" r="0.7620"/>
    <path style="fill:#000000; fill-opacity:1.0000; stroke:none;fill-rule:evenodd;" d="M 19.4903,8.5288 19.5010,8.4752 19.5313,8.4298 19.5767,8.3994 19.6303,8.3888 19.9103,8.3888 19.9639,8.3994 20.0093,8.4298 20.0397,8.4752 20.0503,8.5288 20.0503,8.8688 20.0397,8.9223 20.0093,8.9678 19.9639,8.9981 19.9103,9.0088 19.6303,9.0088 19.5767,8.9981 19.5313,8.9678 19.5010,8.9223 19.4903,8.8688 Z"/>
    <path style="fill:#000000; fill-opacity:1.0000; stroke:none;fill-rule:evenodd;" d="M 20.4503,8.5288 20.4610,8.4752 20.4913,8.4298 20.5367,8.3994 20.5903,8.3888 20.8703,8.3888 20.9239,8.3994 20.9693,8.4298 20.9997,8.4752 21.0103,8.5288 21.0103,8.8688 20.9997,8.9223 20.9693,8.9678 20.9239,8.9981 20.8703,9.0088 20.5903,9.0088 20.5367,8.9981 20.4913,8.9678 20.4610,8.9223 20.4503,8.8688 Z"/>
    <path style="fill:#000000; fill-opacity:1.0000; stroke:none;fill-rule:evenodd;" d="M 11.5103,34.6611 11.4997,34.7146 11.4693,34.7601 11.4239,34.7904 11.3703,34.8011 11.0903,34.8011 11.0367,34.7904 10.9913,34.7601 10.9610,34.7146 10.9503,34.6611 10.9503,34.3211 10.9610,34.2675 10.9913,34.2221 11.0367,34.1917 11.0903,34.1811 11.3703,34.1811 11.4239,34.1917 11.4693,34.2221 11.4997,34.2675 11.5103,34.3211 Z"/>
    <path style="fill:#000000; fill-opacity:1.0000; stroke:none;fill-rule:evenodd;" d="M 10.5503,34.6611 10.5397,34.7146 10.5093,34.7601 10.4639,34.7904 10.4103,34.8011 10.1303,34.8011 10.0767,34.7904 10.0313,34.7601 10.0010,34.7146 9.9903,34.6611 9.9903,34.3211 10.0010,34.2675 10.0313,34.2221 10.0767,34.1917 10.1303,34.1811 10.4103,34.1811 10.4639,34.1917 10.5093,34.2221 10.5397,34.2675 10.5503,34.3211 Z"/>
  </g>
  <g style="fill:#000000; fill-opacity:1.0000; stroke:none;">
    <circle cx="25.7503" cy="13.9744" r="0.7620"/>
    <path style="fill:#000000; fill-opacity:1.0000; stroke:none;fill-rule:evenodd;" d="M 5.5103,34.6611 5.4997,34.7146 5.4693,34.7601 5.4239,34.7904 5.3703,34.8011 5.0903,34.8011 5.0367,34.7904 4.9913,34.7601 4.9610,34.7146 4.9503,34.6611 4.9503,34.3211 4.9610,34.2675 4.9913,34.2221 5.0367,34.1917 5.0903,34.1811 5.3703,34.1811 5.4239,34.1917 5.4693,34.2221 5.4997,34.2675 5.5103,34.3211 Z"/>
    <path style="fill:#000000; fill-opacity:1.0000; stroke:none;fill-rule:evenodd;" d="M 4.5503,34.6611 4.5397,34.7146 4.5093,34.7601 4.4639,34.7904 4.4103,34.8011 4.1303,34.8011 4.0767,34.7904 4.0313,34.7601 4.0010,34.7146 3.9903,34.6611 3.9903,34.3211 4.0010,34.2675 4.0313,34.2221 4.0767,34.1917 4.1303,34.1811 4.4103,34.1811 4.4639,34.1917 4.5093,34.2221 4.5397,34.2675 4.5503,34.3211 Z"/>
    <path style="fill:#000000; fill-opacity:1.0000; stroke:none;fill-rule:evenodd;" d="M 24.9903,29.1249 25.0010,29.0713 25.0313,29.0259 25.0767,28.9956 25.1303,28.9849 25.4103,28.9849 25.4639,28.9956 25.5093,29.0259 25.5397,29.0713 25.5503,29.1249 25.5503,29.4649 25.5397,29.5185 25.5093,29.5639 25.4639,29.5943 25.4103,29.6049 25.1303,29.6049 25.0767,29.5943 25.0313,29.5639 25.0010,29.5185 24.9903,29.4649 Z"/>
    <path style="fill:#000000; fill-opacity:1.0000; stroke:none;fill-rule:evenodd;" d="M 25.9503,29.1249 25.9610,29.0713 25.9913,29.0259 26.0367,28.9956 26.0903,28.9849 26.3703,28.9849 26.4239,28.9956 26.4693,29.0259 26.4997,29.0713 26.5103,29.1249 26.5103,29.4649 26.4997,29.5185 26.4693,29.5639 26.4239,29.5943 26.3703,29.6049 26.0903,29.6049 26.0367,29.5943 25.9913,29.5639 25.9610,29.5185 25.9503,29.4649 Z"/>
    <path style="fill:#000000; fill-opacity:1.0000; stroke:none;fill-rule:evenodd;" d="M 39.0153,31.4949 39.0153,32.1949 38.3153,32.1949 38.3153,31.4949 Z"/>
    <path style="fill:#000000; fill-opacity:1.0000; stroke:none;fill-rule:evenodd;" d="M 39.0153,30.3949 39.0153,31.0949 38.3153,31.0949 38.3153,30.3949 Z"/>
    <path style="fill:#000000; fill-opacity:1.0000; stroke:none;fill-rule:evenodd;" d="M 37.1853,30.3949 37.1853,31.0949 36.4853,31.0949 36.4853,30.3949 Z"/>
    <path style="fill:#000000; fill-opacity:1.0000; stroke:none;fill-rule:evenodd;" d="M 37.1853,31.4949 37.1853,32.1949 36.4853,32.1949 36.4853,31.4949 Z"/>
    <path style="fill:#000000; fill-opacity:1.0000; stroke:none;fill-rule:evenodd;" d="M 27.4853,25.8988 27.4853,25.1988 28.1853,25.1988 28.1853,25.8988 Z"/>
    <path style="fill:#000000; fill-opacity:1.0000; stroke:none;fill-rule:evenodd;" d="M 27.4853,26.9988 27.4853,26.2988 28.1853,26.2988 28.1853,26.9988 Z"/>
    <path style="fill:#000000; fill-opacity:1.0000; stroke:none;fill-rule:evenodd;" d="M 29.3153,26.9988 29.3153,26.2988 30.0153,26.2988 30.0153,26.9988 Z"/>
    <path style="fill:#000000; fill-opacity:1.0000; stroke:none;fill-rule:evenodd;" d="M 29.3153,25.8988 29.3153,25.1988 30.0153,25.1988 30.0153,25.8988 Z"/>
    <path style="fill:#000000; fill-opacity:1.0000; stroke:none;fill-rule:evenodd;" d="M 30.9903,29.1249 31.0010,29.0713 31.0313,29.0259 31.0767,28.9956 31.1303,28.9849 31.4103,28.9849 31.4639,28.9956 31.5093,29.0259 31.5397,29.0713 31.5503,29.1249 31.5503,29.4649 31.5397,29.5185 31.5093,29.5639 31.4639,29.5943 31.4103,29.6049 31.1303,29.6049 31.0767,29.5943 31.0313,29.5639 31.0010,29.5185 30.9903,29.4649 Z"/>
    <path style="fill:#000000; fill-opacity:1.0000; stroke:none;fill-rule:evenodd;" d="M 31.9503,29.1249 31.9610,29.0713 31.9913,29.0259 32.0367,28.9956 32.0903,28.9849 32.3703,28.9849 32.4239,28.9956 32.4693,29.0259 32.4997,29.0713 32.5103,29.1249 32.5103,29.4649 32.4997,29.5185 32.4693,29.5639 32.4239,29.5943 32.3703,29.6049 32.0903,29.6049 32.0367,29.5943 31.9913,29.5639 31.9610,29.5185 31.9503,29.4649 Z"/>
    <path style="fill:#000000; fill-opacity:1.0000; stroke:none;fill-rule:evenodd;" d="M 41.0103,34.4688 40.9997,34.5223 40.9693,34.5678 40.9239,34.5981 40.8703,34.6088 40.5903,34.6088 40.5367,34.5981 40.4913,34.5678 40.4610,34.5223 40.4503,34.4688 40.4503,34.1288 40.4610,34.0752 40.4913,34.0298 40.5367,33.9994 40.5903,33.9888 40.8703,33.9888 40.9239,33.9994 40.9693,34.0298 40.9997,34.0752 41.0103,34.1288 Z"/>
    <path style="fill:#000000; fill-opacity:1.0000; stroke:none;fill-rule:evenodd;" d="M 40.0503,34.4688 40.0397,34.5223 40.0093,34.5678 39.9639,34.5981 39.9103,34.6088 39.6303,34.6088 39.5767,34.5981 39.5313,34.5678 39.5010,34.5223 39.4903,34.4688 39.4903,34.1288 39.5010,34.0752 39.5313,34.0298 39.5767,33.9994 39.6303,33.9888 39.9103,33.9888 39.9639,33.9994 40.0093,34.0298 40.0397,34.0752 40.0503,34.1288 Z"/>
    <path style="fill:#000000; fill-opacity:1.0000; stroke:none;fill-rule:evenodd;" d="M 18.9903,29.1249 19.0010,29.0713 19.0313,29.0259 19.0767,28.9956 19.1303,28.9849 19.4103,28.9849 19.4639,28.9956 19.5093,29.0259 19.5397,29.0713 19.5503,29.1249 19.5503,29.4649 19.5397,29.5185 19.5093,29.5639 19.4639,29.5943 19.4103,29.6049 19.1303,29.6049 19.0767,29.5943 19.0313,29.5639 19.0010,29.5185 18.9903,29.4649 Z"/>
    <path style="fill:#000000; fill-opacity:1.0000; stroke:none;fill-rule:evenodd;" d="M 19.9503,29.1249 19.9610,29.0713 19.9913,29.0259 20.0367,28.9956 20.0903,28.9849 20.3703,28.9849 20.4239,28.9956 20.4693,29.0259 20.4997,29.0713 20.5103,29.1249 20.5103,29.4649 20.4997,29.5185 20.4693,29.5639 20.4239,29.5943 20.3703,29.6049 20.0903,29.6049 20.0367,29.5943 19.9913,29.5639 19.9610,29.5185 19.9503,29.4649 Z"/>
    <path style="fill:#000000; fill-opacity:1.0000; stroke:none;fill-rule:evenodd;" d="M 17.5103,13.8765 17.4997,13.9300 17.4693,13.9754 17.4239,14.0058 17.3703,14.0165 17.0903,14.0165 17.0367,14.0058 16.9913,13.9754 16.9610,13.9300 16.9503,13.8765 16.9503,13.5365 16.9610,13.4829 16.9913,13.4375 17.0367,13.4071 17.0903,13.3965 17.3703,13.3965 17.4239,13.4071 17.4693,13.4375 17.4997,13.4829 17.5103,13.5365 Z"/>
    <path style="fill:#000000; fill-opacity:1.0000; stroke:none;fill-rule:evenodd;" d="M 16.5503,13.8765 16.5397,13.9300 16.5093,13.9754 16.4639,14.0058 16.4103,14.0165 16.1303,14.0165 16.0767,14.0058 16.0313,13.9754 16.0010,13.9300 15.9903,13.8765 15.9903,13.5365 16.0010,13.4829 16.0313,13.4375 16.0767,13.4071 16.1303,13.3965 16.4103,13.3965 16.4639,13.4071 16.5093,13.4375 16.5397,13.4829 16.5503,13.5365 Z"/>
    <path style="fill:#000000; fill-opacity:1.0000; stroke:none;fill-rule:evenodd;" d="M 15.0153,31.4949 15.0153,32.1949 14.3153,32.1949 14.3153,31.4949 Z"/>
    <path style="fill:#000000; fill-opacity:1.0000; stroke:none;fill-rule:evenodd;" d="M 15.0153,30.3949 15.0153,31.0949 14.3153,31.0949 14.3153,30.3949 Z"/>
    <path style="fill:#000000; fill-opacity:1.0000; stroke:none;fill-rule:evenodd;" d="M 13.1853,30.3949 13.1853,31.0949 12.4853,31.0949 12.4853,30.3949 Z"/>
    <path style="fill:#000000; fill-opacity:1.0000; stroke:none;fill-rule:evenodd;" d="M 13.1853,31.4949 13.1853,32.1949 12.4853,32.1949 12.4853,31.4949 Z"/>
    <path style="fill:#000000; fill-opacity:1.0000; stroke:none;fill-rule:evenodd;" d="M 29.5103,13.8765 29.4997,13.9300 29.4693,13.9754 29.4239,14.0058 29.3703,14.0165 29.0903,14.0165 29.0367,14.0058 28.9913,13.9754 28.9610,13.9300 28.9503,13.8765 28.9503,13.5365 28.9610,13.4829 28.9913,13.4375 29.0367,13.4071 29.0903,13.3965 29.3703,13.3965 29.4239,13.4071 29.4693,13.4375 29.4997,13.4829 29.5103,13.5365 Z"/>
    <path style="fill:#000000; fill-opacity:1.0000; stroke:none;fill-rule:evenodd;" d="M 28.5503,13.8765 28.5397,13.9300 28.5093,13.9754 28.4639,14.0058 28.4103,14.0165 28.1303,14.0165 28.0767,14.0058 28.0313,13.9754 28.0010,13.9300 27.9903,13.8765 27.9903,13.5365 28.0010,13.4829 28.0313,13.4375 28.0767,13.4071 28.1303,13.3965 28.4103,13.3965 28.4639,13.4071 28.5093,13.4375 28.5397,13.4829 28.5503,13.5365 Z"/>
    <path style="fill:#000000; fill-opacity:1.0000; stroke:none;fill-rule:evenodd;" d="M 21.0153,31.4949 21.0153,32.1949 20.3153,32.1949 20.3153,31.4949 Z"/>
    <path style="fill:#000000; fill-opacity:1.0000; stroke:none;fill-rule:evenodd;" d="M 21.0153,30.3949 21.0153,31.0949 20.3153,31.0949 20.3153,30.3949 Z"/>
    <path style="fill:#000000; fill-opacity:1.0000; stroke:none;fill-rule:evenodd;" d="M 19.1853,30.3949 19.1853,31.0949 18.4853,31.0949 18.4853,30.3949 Z"/>
    <path style="fill:#000000; fill-opacity:1.0000; stroke:none;fill-rule:evenodd;" d="M 19.1853,31.4949 19.1853,32.1949 18.4853,32.1949 18.4853,31.4949 Z"/>
    <path style="fill:#000000; fill-opacity:1.0000; stroke:none;fill-rule:evenodd;" d="M 15.0153,21.1026 15.0153,21.8026 14.3153,21.8026 14.3153,21.1026 Z"/>
    <path style="fill:#000000; fill-opacity:1.0000; stroke:none;fill-rule:evenodd;" d="M 15.0153,20.0026 15.0153,20.7026 14.3153,20.7026 14.3153,20.0026 Z"/>
    <path style="fill:#000000; fill-opacity:1.0000; stroke:none;fill-rule:evenodd;" d="M 13.1853,20.0026 13.1853,20.7026 12.4853,20.7026 12.4853,20.0026 Z"/>
    <path style="fill:#000000; fill-opacity:1.0000; stroke:none;fill-rule:evenodd;" d="M 13.1853,21.1026 13.1853,21.8026 12.4853,21.8026 12.4853,21.1026 Z"/>
    <path style="fill:#000000; fill-opacity:1.0000; stroke:none;fill-rule:evenodd;" d="M 15.5253,32.5488 15.5425,32.4627 15.5912,32.3897 15.6642,32.3409 15.7503,32.3238 16.2003,32.3238 16.2864,32.3409 16.3594,32.3897 16.4082,32.4627 16.4253,32.5488 16.4253,33.0488 16.4082,33.1349 16.3594,33.2079 16.2864,33.2566 16.2003,33.2738 15.7503,33.2738 15.6642,33.2566 15.5912,33.2079 15.5425,33.1349 15.5253,33.0488 Z"/>
    <path style="fill:#000000; fill-opacity:1.0000; stroke:none;fill-rule:evenodd;" d="M 17.0753,32.5488 17.0925,32.4627 17.1412,32.3897 17.2142,32.3409 17.3003,32.3238 17.7503,32.3238 17.8364,32.3409 17.9094,32.3897 17.9582,32.4627 17.9753,32.5488 17.9753,33.0488 17.9582,33.1349 17.9094,33.2079 17.8364,33.2566 17.7503,33.2738 17.3003,33.2738 17.2142,33.2566 17.1412,33.2079 17.0925,33.1349 17.0753,33.0488 Z"/>
    <path style="fill:#000000; fill-opacity:1.0000; stroke:none;fill-rule:evenodd;" d="M 9.4853,25.8988 9.4853,25.1988 10.1853,25.1988 10.1853,25.8988 Z"/>
    <path style="fill:#000000; fill-opacity:1.0000; stroke:none;fill-rule:evenodd;" d="M 9.4853,26.9988 9.4853,26.2988 10.1853,26.2988 10.1853,26.9988 Z"/>
    <path style="fill:#000000; fill-opacity:1.0000; stroke:none;fill-rule:evenodd;" d="M 11.3153,26.9988 11.3153,26.2988 12.0153,26.2988 12.0153,26.9988 Z"/>
    <path style="fill:#000000; fill-opacity:1.0000; stroke:none;fill-rule:evenodd;" d="M 11.3153,25.8988 11.3153,25.1988 12.0153,25.1988 12.0153,25.8988 Z"/>
  </g>
  <g style="fill:#000000; fill-opacity:1.0000; stroke:none;">
    <circle cx="13.7503" cy="34.7590" r="0.7620"/>
    <path style="fill:#000000; fill-opacity:1.0000; stroke:none;fill-rule:evenodd;" d="M 32.9753,27.9488 32.9582,28.0349 32.9094,28.1079 32.8364,28.1566 32.7503,28.1738 32.3003,28.1738 32.2142,28.1566 32.1412,28.1079 32.0925,28.0349 32.0753,27.9488 32.0753,27.4488 32.0925,27.3627 32.1412,27.2897 32.2142,27.2409 32.3003,27.2238 32.7503,27.2238 32.8364,27.2409 32.9094,27.2897 32.9582,27.3627 32.9753,27.4488 Z"/>
    <path style="fill:#000000; fill-opacity:1.0000; stroke:none;fill-rule:evenodd;" d="M 31.4253,27.9488 31.4082,28.0349 31.3594,28.1079 31.2864,28.1566 31.2003,28.1738 30.7503,28.1738 30.6642,28.1566 30.5912,28.1079 30.5425,28.0349 30.5253,27.9488 30.5253,27.4488 30.5425,27.3627 30.5912,27.2897 30.6642,27.2409 30.7503,27.2238 31.2003,27.2238 31.2864,27.2409 31.3594,27.2897 31.4082,27.3627 31.4253,27.4488 Z"/>
  </g>
  <g style="fill:#000000; fill-opacity:1.0000; stroke:none;">
    <circle cx="10.7503" cy="29.5629" r="0.7620"/>
    <path style="fill:#000000; fill-opacity:1.0000; stroke:none;fill-rule:evenodd;" d="M 24.6653,7.5788 24.6137,7.5685 24.5699,7.5392 24.5406,7.4954 24.5303,7.4438 24.5303,7.1738 24.5406,7.1221 24.5699,7.0783 24.6137,7.0490 24.6653,7.0388 25.0353,7.0388 25.0870,7.0490 25.1308,7.0783 25.1600,7.1221 25.1703,7.1738 25.1703,7.4438 25.1600,7.4954 25.1308,7.5392 25.0870,7.5685 25.0353,7.5788 Z"/>
    <path style="fill:#000000; fill-opacity:1.0000; stroke:none;fill-rule:evenodd;" d="M 24.6653,6.5588 24.6137,6.5485 24.5699,6.5192 24.5406,6.4754 24.5303,6.4238 24.5303,6.1538 24.5406,6.1021 24.5699,6.0583 24.6137,6.0290 24.6653,6.0188 25.0353,6.0188 25.0870,6.0290 25.1308,6.0583 25.1600,6.1021 25.1703,6.1538 25.1703,6.4238 25.1600,6.4754 25.1308,6.5192 25.0870,6.5485 25.0353,6.5588 Z"/>
    <path style="fill:#000000; fill-opacity:1.0000; stroke:none;fill-rule:evenodd;" d="M 15.4853,36.2911 15.4853,35.5911 16.1853,35.5911 16.1853,36.2911 Z"/>
    <path style="fill:#000000; fill-opacity:1.0000; stroke:none;fill-rule:evenodd;" d="M 15.4853,37.3911 15.4853,36.6911 16.1853,36.6911 16.1853,37.3911 Z"/>
    <path style="fill:#000000; fill-opacity:1.0000; stroke:none;fill-rule:evenodd;" d="M 17.3153,37.3911 17.3153,36.6911 18.0153,36.6911 18.0153,37.3911 Z"/>
    <path style="fill:#000000; fill-opacity:1.0000; stroke:none;fill-rule:evenodd;" d="M 17.3153,36.2911 17.3153,35.5911 18.0153,35.5911 18.0153,36.2911 Z"/>
    <path style="fill:#000000; fill-opacity:1.0000; stroke:none;fill-rule:evenodd;" d="M 9.4853,36.2911 9.4853,35.5911 10.1853,35.5911 10.1853,36.2911 Z"/>
    <path style="fill:#000000; fill-opacity:1.0000; stroke:none;fill-rule:evenodd;" d="M 9.4853,37.3911 9.4853,36.6911 10.1853,36.6911 10.1853,37.3911 Z"/>
    <path style="fill:#000000; fill-opacity:1.0000; stroke:none;fill-rule:evenodd;" d="M 11.3153,37.3911 11.3153,36.6911 12.0153,36.6911 12.0153,37.3911 Z"/>
    <path style="fill:#000000; fill-opacity:1.0000; stroke:none;fill-rule:evenodd;" d="M 11.3153,36.2911 11.3153,35.5911 12.0153,35.5911 12.0153,36.2911 Z"/>
    <path style="fill:#000000; fill-opacity:1.0000; stroke:none;fill-rule:evenodd;" d="M 15.4853,15.5065 15.4853,14.8065 16.1853,14.8065 16.1853,15.5065 Z"/>
    <path style="fill:#000000; fill-opacity:1.0000; stroke:none;fill-rule:evenodd;" d="M 15.4853,16.6065 15.4853,15.9065 16.1853,15.9065 16.1853,16.6065 Z"/>
    <path style="fill:#000000; fill-opacity:1.0000; stroke:none;fill-rule:evenodd;" d="M 17.3153,16.6065 17.3153,15.9065 18.0153,15.9065 18.0153,16.6065 Z"/>
    <path style="fill:#000000; fill-opacity:1.0000; stroke:none;fill-rule:evenodd;" d="M 17.3153,15.5065 17.3153,14.8065 18.0153,14.8065 18.0153,15.5065 Z"/>
    <path style="fill:#000000; fill-opacity:1.0000; stroke:none;fill-rule:evenodd;" d="M 17.5103,24.2688 17.4997,24.3223 17.4693,24.3678 17.4239,24.3981 17.3703,24.4088 17.0903,24.4088 17.0367,24.3981 16.9913,24.3678 16.9610,24.3223 16.9503,24.2688 16.9503,23.9288 16.9610,23.8752 16.9913,23.8298 17.0367,23.7994 17.0903,23.7888 17.3703,23.7888 17.4239,23.7994 17.4693,23.8298 17.4997,23.8752 17.5103,23.9288 Z"/>
    <path style="fill:#000000; fill-opacity:1.0000; stroke:none;fill-rule:evenodd;" d="M 16.5503,24.2688 16.5397,24.3223 16.5093,24.3678 16.4639,24.3981 16.4103,24.4088 16.1303,24.4088 16.0767,24.3981 16.0313,24.3678 16.0010,24.3223 15.9903,24.2688 15.9903,23.9288 16.0010,23.8752 16.0313,23.8298 16.0767,23.7994 16.1303,23.7888 16.4103,23.7888 16.4639,23.7994 16.5093,23.8298 16.5397,23.8752 16.5503,23.9288 Z"/>
    <path style="fill:#000000; fill-opacity:1.0000; stroke:none;fill-rule:evenodd;" d="M 33.4853,36.2911 33.4853,35.5911 34.1853,35.5911 34.1853,36.2911 Z"/>
    <path style="fill:#000000; fill-opacity:1.0000; stroke:none;fill-rule:evenodd;" d="M 33.4853,37.3911 33.4853,36.6911 34.1853,36.6911 34.1853,37.3911 Z"/>
    <path style="fill:#000000; fill-opacity:1.0000; stroke:none;fill-rule:evenodd;" d="M 35.3153,37.3911 35.3153,36.6911 36.0153,36.6911 36.0153,37.3911 Z"/>
    <path style="fill:#000000; fill-opacity:1.0000; stroke:none;fill-rule:evenodd;" d="M 35.3153,36.2911 35.3153,35.5911 36.0153,35.5911 36.0153,36.2911 Z"/>
    <path style="fill:#000000; fill-opacity:1.0000; stroke:none;fill-rule:evenodd;" d="M 29.5103,24.2688 29.4997,24.3223 29.4693,24.3678 29.4239,24.3981 29.3703,24.4088 29.0903,24.4088 29.0367,24.3981 28.9913,24.3678 28.9610,24.3223 28.9503,24.2688 28.9503,23.9288 28.9610,23.8752 28.9913,23.8298 29.0367,23.7994 29.0903,23.7888 29.3703,23.7888 29.4239,23.7994 29.4693,23.8298 29.4997,23.8752 29.5103,23.9288 Z"/>
    <path style="fill:#000000; fill-opacity:1.0000; stroke:none;fill-rule:evenodd;" d="M 28.5503,24.2688 28.5397,24.3223 28.5093,24.3678 28.4639,24.3981 28.4103,24.4088 28.1303,24.4088 28.0767,24.3981 28.0313,24.3678 28.0010,24.3223 27.9903,24.2688 27.9903,23.9288 28.0010,23.8752 28.0313,23.8298 28.0767,23.7994 28.1303,23.7888 28.4103,23.7888 28.4639,23.7994 28.5093,23.8298 28.5397,23.8752 28.5503,23.9288 Z"/>
    <path style="fill:#000000; fill-opacity:1.0000; stroke:none;fill-rule:evenodd;" d="M 27.0153,31.4949 27.0153,32.1949 26.3153,32.1949 26.3153,31.4949 Z"/>
    <path style="fill:#000000; fill-opacity:1.0000; stroke:none;fill-rule:evenodd;" d="M 27.0153,30.3949 27.0153,31.0949 26.3153,31.0949 26.3153,30.3949 Z"/>
    <path style="fill:#000000; fill-opacity:1.0000; stroke:none;fill-rule:evenodd;" d="M 25.1853,30.3949 25.1853,31.0949 24.4853,31.0949 24.4853,30.3949 Z"/>
    <path style="fill:#000000; fill-opacity:1.0000; stroke:none;fill-rule:evenodd;" d="M 25.1853,31.4949 25.1853,32.1949 24.4853,32.1949 24.4853,31.4949 Z"/>
    <path style="fill:#000000; fill-opacity:1.0000; stroke:none;fill-rule:evenodd;" d="M 29.5103,34.6611 29.4997,34.7146 29.4693,34.7601 29.4239,34.7904 29.3703,34.8011 29.0903,34.8011 29.0367,34.7904 28.9913,34.7601 28.9610,34.7146 28.9503,34.6611 28.9503,34.3211 28.9610,34.2675 28.9913,34.2221 29.0367,34.1917 29.0903,34.1811 29.3703,34.1811 29.4239,34.1917 29.4693,34.2221 29.4997,34.2675 29.5103,34.3211 Z"/>
    <path style="fill:#000000; fill-opacity:1.0000; stroke:none;fill-rule:evenodd;" d="M 28.5503,34.6611 28.5397,34.7146 28.5093,34.7601 28.4639,34.7904 28.4103,34.8011 28.1303,34.8011 28.0767,34.7904 28.0313,34.7601 28.0010,34.7146 27.9903,34.6611 27.9903,34.3211 28.0010,34.2675 28.0313,34.2221 28.0767,34.1917 28.1303,34.1811 28.4103,34.1811 28.4639,34.1917 28.5093,34.2221 28.5397,34.2675 28.5503,34.3211 Z"/>
    <path style="fill:#000000; fill-opacity:1.0000; stroke:none;fill-rule:evenodd;" d="M 33.4853,25.8988 33.4853,25.1988 34.1853,25.1988 34.1853,25.8988 Z"/>
    <path style="fill:#000000; fill-opacity:1.0000; stroke:none;fill-rule:evenodd;" d="M 33.4853,26.9988 33.4853,26.2988 34.1853,26.2988 34.1853,26.9988 Z"/>
    <path style="fill:#000000; fill-opacity:1.0000; stroke:none;fill-rule:evenodd;" d="M 35.3153,26.9988 35.3153,26.2988 36.0153,26.2988 36.0153,26.9988 Z"/>
    <path style="fill:#000000; fill-opacity:1.0000; stroke:none;fill-rule:evenodd;" d="M 35.3153,25.8988 35.3153,25.1988 36.0153,25.1988 36.0153,25.8988 Z"/>
    <path style="fill:#000000; fill-opacity:1.0000; stroke:none;fill-rule:evenodd;" d="M 21.4853,25.8988 21.4853,25.1988 22.1853,25.1988 22.1853,25.8988 Z"/>
    <path style="fill:#000000; fill-opacity:1.0000; stroke:none;fill-rule:evenodd;" d="M 21.4853,26.9988 21.4853,26.2988 22.1853,26.2988 22.1853,26.9988 Z"/>
    <path style="fill:#000000; fill-opacity:1.0000; stroke:none;fill-rule:evenodd;" d="M 23.3153,26.9988 23.3153,26.2988 24.0153,26.2988 24.0153,26.9988 Z"/>
    <path style="fill:#000000; fill-opacity:1.0000; stroke:none;fill-rule:evenodd;" d="M 23.3153,25.8988 23.3153,25.1988 24.0153,25.1988 24.0153,25.8988 Z"/>
    <path style="fill:#000000; fill-opacity:1.0000; stroke:none;fill-rule:evenodd;" d="M 12.9903,18.7326 13.0010,18.6790 13.0313,18.6336 13.0767,18.6033 13.1303,18.5926 13.4103,18.5926 13.4639,18.6033 13.5093,18.6336 13.5397,18.6790 13.5503,18.7326 13.5503,19.0726 13.5397,19.1262 13.5093,19.1716 13.4639,19.2019 13.4103,19.2126 13.1303,19.2126 13.0767,19.2019 13.0313,19.1716 13.0010,19.1262 12.9903,19.0726 Z"/>
    <path style="fill:#000000; fill-opacity:1.0000; stroke:none;fill-rule:evenodd;" d="M 13.9503,18.7326 13.9610,18.6790 13.9913,18.6336 14.0367,18.6033 14.0903,18.5926 14.3703,18.5926 14.4239,18.6033 14.4693,18.6336 14.4997,18.6790 14.5103,18.7326 14.5103,19.0726 14.4997,19.1262 14.4693,19.1716 14.4239,19.2019 14.3703,19.2126 14.0903,19.2126 14.0367,19.2019 13.9913,19.1716 13.9610,19.1262 13.9503,19.0726 Z"/>
    <path style="fill:#000000; fill-opacity:1.0000; stroke:none;fill-rule:evenodd;" d="M 23.5103,13.8765 23.4997,13.9300 23.4693,13.9754 23.4239,14.0058 23.3703,14.0165 23.0903,14.0165 23.0367,14.0058 22.9913,13.9754 22.9610,13.9300 22.9503,13.8765 22.9503,13.5365 22.9610,13.4829 22.9913,13.4375 23.0367,13.4071 23.0903,13.3965 23.3703,13.3965 23.4239,13.4071 23.4693,13.4375 23.4997,13.4829 23.5103,13.5365 Z"/>
    <path style="fill:#000000; fill-opacity:1.0000; stroke:none;fill-rule:evenodd;" d="M 22.5503,13.8765 22.5397,13.9300 22.5093,13.9754 22.4639,14.0058 22.4103,14.0165 22.1303,14.0165 22.0767,14.0058 22.0313,13.9754 22.0010,13.9300 21.9903,13.8765 21.9903,13.5365 22.0010,13.4829 22.0313,13.4375 22.0767,13.4071 22.1303,13.3965 22.4103,13.3965 22.4639,13.4071 22.5093,13.4375 22.5397,13.4829 22.5503,13.5365 Z"/>
    <path style="fill:#000000; fill-opacity:1.0000; stroke:none;fill-rule:evenodd;" d="M 27.0153,21.1026 27.0153,21.8026 26.3153,21.8026 26.3153,21.1026 Z"/>
    <path style="fill:#000000; fill-opacity:1.0000; stroke:none;fill-rule:evenodd;" d="M 27.0153,20.0026 27.0153,20.7026 26.3153,20.7026 26.3153,20.0026 Z"/>
    <path style="fill:#000000; fill-opacity:1.0000; stroke:none;fill-rule:evenodd;" d="M 25.1853,20.0026 25.1853,20.7026 24.4853,20.7026 24.4853,20.0026 Z"/>
    <path style="fill:#000000; fill-opacity:1.0000; stroke:none;fill-rule:evenodd;" d="M 25.1853,21.1026 25.1853,21.8026 24.4853,21.8026 24.4853,21.1026 Z"/>
    <path style="fill:#000000; fill-opacity:1.0000; stroke:none;fill-rule:evenodd;" d="M 35.5103,34.6611 35.4997,34.7146 35.4693,34.7601 35.4239,34.7904 35.3703,34.8011 35.0903,34.8011 35.0367,34.7904 34.9913,34.7601 34.9610,34.7146 34.9503,34.6611 34.9503,34.3211 34.9610,34.2675 34.9913,34.2221 35.0367,34.1917 35.0903,34.1811 35.3703,34.1811 35.4239,34.1917 35.4693,34.2221 35.4997,34.2675 35.5103,34.3211 Z"/>
    <path style="fill:#000000; fill-opacity:1.0000; stroke:none;fill-rule:evenodd;" d="M 34.5503,34.6611 34.5397,34.7146 34.5093,34.7601 34.4639,34.7904 34.4103,34.8011 34.1303,34.8011 34.0767,34.7904 34.0313,34.7601 34.0010,34.7146 33.9903,34.6611 33.9903,34.3211 34.0010,34.2675 34.0313,34.2221 34.0767,34.1917 34.1303,34.1811 34.4103,34.1811 34.4639,34.1917 34.5093,34.2221 34.5397,34.2675 34.5503,34.3211 Z"/>
    <path style="fill:#000000; fill-opacity:1.0000; stroke:none;fill-rule:evenodd;" d="M 18.9903,18.7326 19.0010,18.6790 19.0313,18.6336 19.0767,18.6033 19.1303,18.5926 19.4103,18.5926 19.4639,18.6033 19.5093,18.6336 19.5397,18.6790 19.5503,18.7326 19.5503,19.0726 19.5397,19.1262 19.5093,19.1716 19.4639,19.2019 19.4103,19.2126 19.1303,19.2126 19.0767,19.2019 19.0313,19.1716 19.0010,19.1262 18.9903,19.0726 Z"/>
    <path style="fill:#000000; fill-opacity:1.0000; stroke:none;fill-rule:evenodd;" d="M 19.9503,18.7326 19.9610,18.6790 19.9913,18.6336 20.0367,18.6033 20.0903,18.5926 20.3703,18.5926 20.4239,18.6033 20.4693,18.6336 20.4997,18.6790 20.5103,18.7326 20.5103,19.0726 20.4997,19.1262 20.4693,19.1716 20.4239,19.2019 20.3703,19.2126 20.0903,19.2126 20.0367,19.2019 19.9913,19.1716 19.9610,19.1262 19.9503,19.0726 Z"/>
    <path style="fill:#000000; fill-opacity:1.0000; stroke:none;fill-rule:evenodd;" d="M 35.5103,24.2688 35.4997,24.3223 35.4693,24.3678 35.4239,24.3981 35.3703,24.4088 35.0903,24.4088 35.0367,24.3981 34.9913,24.3678 34.9610,24.3223 34.9503,24.2688 34.9503,23.9288 34.9610,23.8752 34.9913,23.8298 35.0367,23.7994 35.0903,23.7888 35.3703,23.7888 35.4239,23.7994 35.4693,23.8298 35.4997,23.8752 35.5103,23.9288 Z"/>
    <path style="fill:#000000; fill-opacity:1.0000; stroke:none;fill-rule:evenodd;" d="M 34.5503,24.2688 34.5397,24.3223 34.5093,24.3678 34.4639,24.3981 34.4103,24.4088 34.1303,24.4088 34.0767,24.3981 34.0313,24.3678 34.0010,24.3223 33.9903,24.2688 33.9903,23.9288 34.0010,23.8752 34.0313,23.8298 34.0767,23.7994 34.1303,23.7888 34.4103,23.7888 34.4639,23.7994 34.5093,23.8298 34.5397,23.8752 34.5503,23.9288 Z"/>
  </g>
  <g style="fill:#000000; fill-opacity:1.0000; stroke:none;">
    <circle cx="19.7503" cy="13.9744" r="0.7620"/>
    <path style="fill:#000000; fill-opacity:1.0000; stroke:none;fill-rule:evenodd;" d="M 33.0153,31.4949 33.0153,32.1949 32.3153,32.1949 32.3153,31.4949 Z"/>
    <path style="fill:#000000; fill-opacity:1.0000; stroke:none;fill-rule:evenodd;" d="M 33.0153,30.3949 33.0153,31.0949 32.3153,31.0949 32.3153,30.3949 Z"/>
    <path style="fill:#000000; fill-opacity:1.0000; stroke:none;fill-rule:evenodd;" d="M 31.1853,30.3949 31.1853,31.0949 30.4853,31.0949 30.4853,30.3949 Z"/>
    <path style="fill:#000000; fill-opacity:1.0000; stroke:none;fill-rule:evenodd;" d="M 31.1853,31.4949 31.1853,32.1949 30.4853,32.1949 30.4853,31.4949 Z"/>
    <path style="fill:#000000; fill-opacity:1.0000; stroke:none;fill-rule:evenodd;" d="M 33.0153,21.1026 33.0153,21.8026 32.3153,21.8026 32.3153,21.1026 Z"/>
    <path style="fill:#000000; fill-opacity:1.0000; stroke:none;fill-rule:evenodd;" d="M 33.0153,20.0026 33.0153,20.7026 32.3153,20.7026 32.3153,20.0026 Z"/>
    <path style="fill:#000000; fill-opacity:1.0000; stroke:none;fill-rule:evenodd;" d="M 31.1853,20.0026 31.1853,20.7026 30.4853,20.7026 30.4853,20.0026 Z"/>
    <path style="fill:#000000; fill-opacity:1.0000; stroke:none;fill-rule:evenodd;" d="M 31.1853,21.1026 31.1853,21.8026 30.4853,21.8026 30.4853,21.1026 Z"/>
    <path style="fill:#000000; fill-opacity:1.0000; stroke:none;fill-rule:evenodd;" d="M 23.5103,34.6611 23.4997,34.7146 23.4693,34.7601 23.4239,34.7904 23.3703,34.8011 23.0903,34.8011 23.0367,34.7904 22.9913,34.7601 22.9610,34.7146 22.9503,34.6611 22.9503,34.3211 22.9610,34.2675 22.9913,34.2221 23.0367,34.1917 23.0903,34.1811 23.3703,34.1811 23.4239,34.1917 23.4693,34.2221 23.4997,34.2675 23.5103,34.3211 Z"/>
    <path style="fill:#000000; fill-opacity:1.0000; stroke:none;fill-rule:evenodd;" d="M 22.5503,34.6611 22.5397,34.7146 22.5093,34.7601 22.4639,34.7904 22.4103,34.8011 22.1303,34.8011 22.0767,34.7904 22.0313,34.7601 22.0010,34.7146 21.9903,34.6611 21.9903,34.3211 22.0010,34.2675 22.0313,34.2221 22.0767,34.1917 22.1303,34.1811 22.4103,34.1811 22.4639,34.1917 22.5093,34.2221 22.5397,34.2675 22.5503,34.3211 Z"/>
    <path style="fill:#000000; fill-opacity:1.0000; stroke:none;fill-rule:evenodd;" d="M 21.4853,36.2911 21.4853,35.5911 22.1853,35.5911 22.1853,36.2911 Z"/>
    <path style="fill:#000000; fill-opacity:1.0000; stroke:none;fill-rule:evenodd;" d="M 21.4853,37.3911 21.4853,36.6911 22.1853,36.6911 22.1853,37.3911 Z"/>
    <path style="fill:#000000; fill-opacity:1.0000; stroke:none;fill-rule:evenodd;" d="M 23.3153,37.3911 23.3153,36.6911 24.0153,36.6911 24.0153,37.3911 Z"/>
    <path style="fill:#000000; fill-opacity:1.0000; stroke:none;fill-rule:evenodd;" d="M 23.3153,36.2911 23.3153,35.5911 24.0153,35.5911 24.0153,36.2911 Z"/>
    <path style="fill:#000000; fill-opacity:1.0000; stroke:none;fill-rule:evenodd;" d="M 24.9903,8.3403 25.0010,8.2867 25.0313,8.2413 25.0767,8.2110 25.1303,8.2003 25.4103,8.2003 25.4639,8.2110 25.5093,8.2413 25.5397,8.2867 25.5503,8.3403 25.5503,8.6803 25.5397,8.7339 25.5093,8.7793 25.4639,8.8096 25.4103,8.8203 25.1303,8.8203 25.0767,8.8096 25.0313,8.7793 25.0010,8.7339 24.9903,8.6803 Z"/>
    <path style="fill:#000000; fill-opacity:1.0000; stroke:none;fill-rule:evenodd;" d="M 25.9503,8.3403 25.9610,8.2867 25.9913,8.2413 26.0367,8.2110 26.0903,8.2003 26.3703,8.2003 26.4239,8.2110 26.4693,8.2413 26.4997,8.2867 26.5103,8.3403 26.5103,8.6803 26.4997,8.7339 26.4693,8.7793 26.4239,8.8096 26.3703,8.8203 26.0903,8.8203 26.0367,8.8096 25.9913,8.7793 25.9610,8.7339 25.9503,8.6803 Z"/>
    <path style="fill:#000000; fill-opacity:1.0000; stroke:none;fill-rule:evenodd;" d="M 39.4853,36.2911 39.4853,35.5911 40.1853,35.5911 40.1853,36.2911 Z"/>
    <path style="fill:#000000; fill-opacity:1.0000; stroke:none;fill-rule:evenodd;" d="M 39.4853,37.3911 39.4853,36.6911 40.1853,36.6911 40.1853,37.3911 Z"/>
    <path style="fill:#000000; fill-opacity:1.0000; stroke:none;fill-rule:evenodd;" d="M 41.3153,37.3911 41.3153,36.6911 42.0153,36.6911 42.0153,37.3911 Z"/>
    <path style="fill:#000000; fill-opacity:1.0000; stroke:none;fill-rule:evenodd;" d="M 41.3153,36.2911 41.3153,35.5911 42.0153,35.5911 42.0153,36.2911 Z"/>
    <path style="fill:#000000; fill-opacity:1.0000; stroke:none;fill-rule:evenodd;" d="M 9.0153,31.4949 9.0153,32.1949 8.3153,32.1949 8.3153,31.4949 Z"/>
    <path style="fill:#000000; fill-opacity:1.0000; stroke:none;fill-rule:evenodd;" d="M 9.0153,30.3949 9.0153,31.0949 8.3153,31.0949 8.3153,30.3949 Z"/>
    <path style="fill:#000000; fill-opacity:1.0000; stroke:none;fill-rule:evenodd;" d="M 7.1853,30.3949 7.1853,31.0949 6.4853,31.0949 6.4853,30.3949 Z"/>
    <path style="fill:#000000; fill-opacity:1.0000; stroke:none;fill-rule:evenodd;" d="M 7.1853,31.4949 7.1853,32.1949 6.4853,32.1949 6.4853,31.4949 Z"/>
    <path style="fill:#000000; fill-opacity:1.0000; stroke:none;fill-rule:evenodd;" d="M 20.9753,17.3488 20.9582,17.4349 20.9094,17.5079 20.8364,17.5566 20.7503,17.5738 20.3003,17.5738 20.2142,17.5566 20.1412,17.5079 20.0925,17.4349 20.0753,17.3488 20.0753,16.8488 20.0925,16.7627 20.1412,16.6897 20.2142,16.6409 20.3003,16.6238 20.7503,16.6238 20.8364,16.6409 20.9094,16.6897 20.9582,16.7627 20.9753,16.8488 Z"/>
    <path style="fill:#000000; fill-opacity:1.0000; stroke:none;fill-rule:evenodd;" d="M 19.4253,17.3488 19.4082,17.4349 19.3594,17.5079 19.2864,17.5566 19.2003,17.5738 18.7503,17.5738 18.6642,17.5566 18.5912,17.5079 18.5425,17.4349 18.5253,17.3488 18.5253,16.8488 18.5425,16.7627 18.5912,16.6897 18.6642,16.6409 18.7503,16.6238 19.2003,16.6238 19.2864,16.6409 19.3594,16.6897 19.4082,16.7627 19.4253,16.8488 Z"/>
    <path style="fill:#000000; fill-opacity:1.0000; stroke:none;fill-rule:evenodd;" d="M 36.9903,29.1249 37.0010,29.0713 37.0313,29.0259 37.0767,28.9956 37.1303,28.9849 37.4103,28.9849 37.4639,28.9956 37.5093,29.0259 37.5397,29.0713 37.5503,29.1249 37.5503,29.4649 37.5397,29.5185 37.5093,29.5639 37.4639,29.5943 37.4103,29.6049 37.1303,29.6049 37.0767,29.5943 37.0313,29.5639 37.0010,29.5185 36.9903,29.4649 Z"/>
    <path style="fill:#000000; fill-opacity:1.0000; stroke:none;fill-rule:evenodd;" d="M 37.9503,29.1249 37.9610,29.0713 37.9913,29.0259 38.0367,28.9956 38.0903,28.9849 38.3703,28.9849 38.4239,28.9956 38.4693,29.0259 38.4997,29.0713 38.5103,29.1249 38.5103,29.4649 38.4997,29.5185 38.4693,29.5639 38.4239,29.5943 38.3703,29.6049 38.0903,29.6049 38.0367,29.5943 37.9913,29.5639 37.9610,29.5185 37.9503,29.4649 Z"/>
    <path style="fill:#000000; fill-opacity:1.0000; stroke:none;fill-rule:evenodd;" d="M 30.9903,18.7326 31.0010,18.6790 31.0313,18.6336 31.0767,18.6033 31.1303,18.5926 31.4103,18.5926 31.4639,18.6033 31.5093,18.6336 31.5397,18.6790 31.5503,18.7326 31.5503,19.0726 31.5397,19.1262 31.5093,19.1716 31.4639,19.2019 31.4103,19.2126 31.1303,19.2126 31.0767,19.2019 31.0313,19.1716 31.0010,19.1262 30.9903,19.0726 Z"/>
    <path style="fill:#000000; fill-opacity:1.0000; stroke:none;fill-rule:evenodd;" d="M 31.9503,18.7326 31.9610,18.6790 31.9913,18.6336 32.0367,18.6033 32.0903,18.5926 32.3703,18.5926 32.4239,18.6033 32.4693,18.6336 32.4997,18.6790 32.5103,18.7326 32.5103,19.0726 32.4997,19.1262 32.4693,19.1716 32.4239,19.2019 32.3703,19.2126 32.0903,19.2126 32.0367,19.2019 31.9913,19.1716 31.9610,19.1262 31.9503,19.0726 Z"/>
    <path style="fill:#000000; fill-opacity:1.0000; stroke:none;fill-rule:evenodd;" d="M 21.4853,5.1141 21.4853,4.4141 22.1853,4.4141 22.1853,5.1141 Z"/>
    <path style="fill:#000000; fill-opacity:1.0000; stroke:none;fill-rule:evenodd;" d="M 21.4853,6.2141 21.4853,5.5141 22.1853,5.5141 22.1853,6.2141 Z"/>
    <path style="fill:#000000; fill-opacity:1.0000; stroke:none;fill-rule:evenodd;" d="M 23.3153,6.2141 23.3153,5.5141 24.0153,5.5141 24.0153,6.2141 Z"/>
    <path style="fill:#000000; fill-opacity:1.0000; stroke:none;fill-rule:evenodd;" d="M 23.3153,5.1141 23.3153,4.4141 24.0153,4.4141 24.0153,5.1141 Z"/>
    <path style="fill:#000000; fill-opacity:1.0000; stroke:none;fill-rule:evenodd;" d="M 27.4853,15.5065 27.4853,14.8065 28.1853,14.8065 28.1853,15.5065 Z"/>
    <path style="fill:#000000; fill-opacity:1.0000; stroke:none;fill-rule:evenodd;" d="M 27.4853,16.6065 27.4853,15.9065 28.1853,15.9065 28.1853,16.6065 Z"/>
    <path style="fill:#000000; fill-opacity:1.0000; stroke:none;fill-rule:evenodd;" d="M 29.3153,16.6065 29.3153,15.9065 30.0153,15.9065 30.0153,16.6065 Z"/>
    <path style="fill:#000000; fill-opacity:1.0000; stroke:none;fill-rule:evenodd;" d="M 29.3153,15.5065 29.3153,14.8065 30.0153,14.8065 30.0153,15.5065 Z"/>
    <path style="fill:#000000; fill-opacity:1.0000; stroke:none;fill-rule:evenodd;" d="M 23.5103,24.2688 23.4997,24.3223 23.4693,24.3678 23.4239,24.3981 23.3703,24.4088 23.0903,24.4088 23.0367,24.3981 22.9913,24.3678 22.9610,24.3223 22.9503,24.2688 22.9503,23.9288 22.9610,23.8752 22.9913,23.8298 23.0367,23.7994 23.0903,23.7888 23.3703,23.7888 23.4239,23.7994 23.4693,23.8298 23.4997,23.8752 23.5103,23.9288 Z"/>
    <path style="fill:#000000; fill-opacity:1.0000; stroke:none;fill-rule:evenodd;" d="M 22.5503,24.2688 22.5397,24.3223 22.5093,24.3678 22.4639,24.3981 22.4103,24.4088 22.1303,24.4088 22.0767,24.3981 22.0313,24.3678 22.0010,24.3223 21.9903,24.2688 21.9903,23.9288 22.0010,23.8752 22.0313,23.8298 22.0767,23.7994 22.1303,23.7888 22.4103,23.7888 22.4639,23.7994 22.5093,23.8298 22.5397,23.8752 22.5503,23.9288 Z"/>
    <path style="fill:#000000; fill-opacity:1.0000; stroke:none;fill-rule:evenodd;" d="M 23.5103,3.4841 23.4997,3.5377 23.4693,3.5831 23.4239,3.6135 23.3703,3.6241 23.0903,3.6241 23.0367,3.6135 22.9913,3.5831 22.9610,3.5377 22.9503,3.4841 22.9503,3.1441 22.9610,3.0906 22.9913,3.0452 23.0367,3.0148 23.0903,3.0041 23.3703,3.0041 23.4239,3.0148 23.4693,3.0452 23.4997,3.0906 23.5103,3.1441 Z"/>
    <path style="fill:#000000; fill-opacity:1.0000; stroke:none;fill-rule:evenodd;" d="M 22.5503,3.4841 22.5397,3.5377 22.5093,3.5831 22.4639,3.6135 22.4103,3.6241 22.1303,3.6241 22.0767,3.6135 22.0313,3.5831 22.0010,3.5377 21.9903,3.4841 21.9903,3.1441 22.0010,3.0906 22.0313,3.0452 22.0767,3.0148 22.1303,3.0041 22.4103,3.0041 22.4639,3.0148 22.5093,3.0452 22.5397,3.0906 22.5503,3.1441 Z"/>
    <path style="fill:#000000; fill-opacity:1.0000; stroke:none;fill-rule:evenodd;" d="M 27.4853,36.2911 27.4853,35.5911 28.1853,35.5911 28.1853,36.2911 Z"/>
    <path style="fill:#000000; fill-opacity:1.0000; stroke:none;fill-rule:evenodd;" d="M 27.4853,37.3911 27.4853,36.6911 28.1853,36.6911 28.1853,37.3911 Z"/>
    <path style="fill:#000000; fill-opacity:1.0000; stroke:none;fill-rule:evenodd;" d="M 29.3153,37.3911 29.3153,36.6911 30.0153,36.6911 30.0153,37.3911 Z"/>
    <path style="fill:#000000; fill-opacity:1.0000; stroke:none;fill-rule:evenodd;" d="M 29.3153,36.2911 29.3153,35.5911 30.0153,35.5911 30.0153,36.2911 Z"/>
    <path style="fill:#000000; fill-opacity:1.0000; stroke:none;fill-rule:evenodd;" d="M 21.0153,21.1026 21.0153,21.8026 20.3153,21.8026 20.3153,21.1026 Z"/>
    <path style="fill:#000000; fill-opacity:1.0000; stroke:none;fill-rule:evenodd;" d="M 21.0153,20.0026 21.0153,20.7026 20.3153,20.7026 20.3153,20.0026 Z"/>
    <path style="fill:#000000; fill-opacity:1.0000; stroke:none;fill-rule:evenodd;" d="M 19.1853,20.0026 19.1853,20.7026 18.4853,20.7026 18.4853,20.0026 Z"/>
    <path style="fill:#000000; fill-opacity:1.0000; stroke:none;fill-rule:evenodd;" d="M 19.1853,21.1026 19.1853,21.8026 18.4853,21.8026 18.4853,21.1026 Z"/>
    <path style="fill:#000000; fill-opacity:1.0000; stroke:none;fill-rule:evenodd;" d="M 12.9903,29.1249 13.0010,29.0713 13.0313,29.0259 13.0767,28.9956 13.1303,28.9849 13.4103,28.9849 13.4639,28.9956 13.5093,29.0259 13.5397,29.0713 13.5503,29.1249 13.5503,29.4649 13.5397,29.5185 13.5093,29.5639 13.4639,29.5943 13.4103,29.6049 13.1303,29.6049 13.0767,29.5943 13.0313,29.5639 13.0010,29.5185 12.9903,29.4649 Z"/>
    <path style="fill:#000000; fill-opacity:1.0000; stroke:none;fill-rule:evenodd;" d="M 13.9503,29.1249 13.9610,29.0713 13.9913,29.0259 14.0367,28.9956 14.0903,28.9849 14.3703,28.9849 14.4239,28.9956 14.4693,29.0259 14.4997,29.0713 14.5103,29.1249 14.5103,29.4649 14.4997,29.5185 14.4693,29.5639 14.4239,29.5943 14.3703,29.6049 14.0903,29.6049 14.0367,29.5943 13.9913,29.5639 13.9610,29.5185 13.9503,29.4649 Z"/>
    <path style="fill:#000000; fill-opacity:1.0000; stroke:none;fill-rule:evenodd;" d="M 17.5103,34.6611 17.4997,34.7146 17.4693,34.7601 17.4239,34.7904 17.3703,34.8011 17.0903,34.8011 17.0367,34.7904 16.9913,34.7601 16.9610,34.7146 16.9503,34.6611 16.9503,34.3211 16.9610,34.2675 16.9913,34.2221 17.0367,34.1917 17.0903,34.1811 17.3703,34.1811 17.4239,34.1917 17.4693,34.2221 17.4997,34.2675 17.5103,34.3211 Z"/>
    <path style="fill:#000000; fill-opacity:1.0000; stroke:none;fill-rule:evenodd;" d="M 16.5503,34.6611 16.5397,34.7146 16.5093,34.7601 16.4639,34.7904 16.4103,34.8011 16.1303,34.8011 16.0767,34.7904 16.0313,34.7601 16.0010,34.7146 15.9903,34.6611 15.9903,34.3211 16.0010,34.2675 16.0313,34.2221 16.0767,34.1917 16.1303,34.1811 16.4103,34.1811 16.4639,34.1917 16.5093,34.2221 16.5397,34.2675 16.5503,34.3211 Z"/>
  </g>
  <g style="fill:#000000; fill-opacity:1.0000; stroke:none;">
    <circle cx="40.7503" cy="36.4988" r="0.3000"/>
  </g>
  <g style="fill:#000000; fill-opacity:1.0000; stroke:none;">
    <circle cx="34.7503" cy="26.0988" r="0.3000"/>
  </g>
  <g style="fill:#000000; fill-opacity:1.0000; stroke:none;">
    <circle cx="27.7503" cy="10.0988" r="0.3250"/>
  </g>
  <g style="fill:#000000; fill-opacity:1.0000; stroke:none;">
    <circle cx="15.5503" cy="30.2988" r="0.3250"/>
  </g>
  <g style="fill:#000000; fill-opacity:1.0000; stroke:none;">
    <circle cx="4.7503" cy="36.4988" r="0.3000"/>
  </g>
  <g style="fill:#000000; fill-opacity:1.0000; stroke:none;">
    <circle cx="28.7503" cy="26.0988" r="0.3000"/>
  </g>
  <g style="fill:#000000; fill-opacity:1.0000; stroke:none;">
    <circle cx="16.7503" cy="26.0988" r="0.3000"/>
  </g>
  <g style="fill:#000000; fill-opacity:1.0000; stroke:none;">
    <circle cx="34.7503" cy="36.4988" r="0.3000"/>
  </g>
  <g style="fill:#000000; fill-opacity:1.0000; stroke:none;">
    <circle cx="10.7503" cy="36.4988" r="0.3000"/>
  </g>
  <g style="fill:#000000; fill-opacity:1.0000; stroke:none;">
    <circle cx="22.7503" cy="5.2988" r="0.3000"/>
  </g>
  <g style="fill:#000000; fill-opacity:1.0000; stroke:none;">
    <circle cx="16.7503" cy="36.4988" r="0.3000"/>
  </g>
  <g style="fill:#000000; fill-opacity:1.0000; stroke:none;">
    <circle cx="30.1503" cy="17.9988" r="0.3000"/>
  </g>
  <g style="fill:#000000; fill-opacity:1.0000; stroke:none;">
    <circle cx="22.7503" cy="15.6988" r="0.3000"/>
  </g>
  <g style="fill:#000000; fill-opacity:1.0000; stroke:none;">
    <circle cx="28.7503" cy="15.6988" r="0.3000"/>
  </g>
  <g style="fill:#000000; fill-opacity:1.0000; stroke:none;">
    <circle cx="36.5503" cy="27.8988" r="0.3000"/>
  </g>
  <g style="fill:#000000; fill-opacity:1.0000; stroke:none;">
    <circle cx="16.7503" cy="15.6988" r="0.3000"/>
  </g>
  <g style="fill:#000000; fill-opacity:1.0000; stroke:none;">
    <circle cx="22.7503" cy="36.4988" r="0.3000"/>
  </g>
  <g style="fill:#000000; fill-opacity:1.0000; stroke:none;">
    <circle cx="22.7503" cy="26.0988" r="0.3000"/>
  </g>
  <g style="fill:#000000; fill-opacity:1.0000; stroke:none;">
    <circle cx="28.7503" cy="36.3988" r="0.3000"/>
  </g>
  <g style="fill:#000000; fill-opacity:1.0000; stroke:none;">
    <circle cx="17.3503" cy="31.4988" r="0.3250"/>
  </g>
  <g style="fill:#000000; fill-opacity:1.0000; stroke:none;">
    <circle cx="10.7503" cy="26.0988" r="0.3000"/>
  </g>
  <g style="fill:#000000; fill-opacity:1.0000; stroke:none;">
    <circle cx="19.7503" cy="10.3988" r="0.3000"/>
  </g>
  <g style="fill:#000000; fill-opacity:1.0000; stroke:none;">
    <circle cx="31.7503" cy="31.2988" r="0.3000"/>
  </g>
  <g style="fill:#000000; fill-opacity:1.0000; stroke:none;">
    <circle cx="19.7503" cy="31.2988" r="0.3000"/>
  </g>
  <g style="fill:#000000; fill-opacity:1.0000; stroke:none;">
    <circle cx="25.7503" cy="20.8988" r="0.3000"/>
  </g>
  <g style="fill:#000000; fill-opacity:1.0000; stroke:none;">
    <circle cx="25.7503" cy="10.4988" r="0.3000"/>
  </g>
  <g style="fill:#000000; fill-opacity:1.0000; stroke:none;">
    <circle cx="13.7503" cy="31.2988" r="0.3000"/>
  </g>
  <g style="fill:#000000; fill-opacity:1.0000; stroke:none;">
    <circle cx="37.7503" cy="31.2988" r="0.3000"/>
  </g>
  <g style="fill:#000000; fill-opacity:1.0000; stroke:none;">
    <circle cx="7.7503" cy="31.2988" r="0.3000"/>
  </g>
  <g style="fill:#000000; fill-opacity:1.0000; stroke:none;">
    <circle cx="19.7503" cy="20.8988" r="0.3000"/>
  </g>
  <g style="fill:#000000; fill-opacity:1.0000; stroke:none;">
    <circle cx="13.7503" cy="20.8988" r="0.3000"/>
  </g>
  <g style="fill:#000000; fill-opacity:1.0000; stroke:none;">
    <circle cx="31.7503" cy="20.8988" r="0.3000"/>
  </g>
  <g style="fill:#000000; fill-opacity:1.0000; stroke:none;">
    <circle cx="25.7503" cy="31.2988" r="0.3000"/>
  </g>
  <g style="fill:#000000; fill-opacity:1.0000; stroke:none;">
    <circle cx="6.1226" cy="33.5988" r="0.3250"/>
  </g>
  <g style="fill:#000000; fill-opacity:1.0000; stroke:none;">
    <circle cx="24.6503" cy="4.9988" r="0.3000"/>
  </g>
  <g style="fill:#000000; fill-opacity:1.0000; stroke:none;">
    <circle cx="17.8503" cy="17.7988" r="0.3000"/>
  </g>
  <g style="fill:none;  stroke:#000000; stroke-width:0.3000; stroke-opacity:1;  stroke-linecap:round; stroke-linejoin:round;">
    <path d="M32.2903 27.6988 L32.2903 29.2349 "/>
    <path d="M16.2353 26.6488 L16.6803 26.2038 "/>
    <path d="M4.2703 34.4911 L4.2703 34.8761 "/>
    <path d="M22.7503 26.0988 L22.5853 25.9338 "/>
    <path d="M16.2703 34.4911 L16.2703 34.8761 "/>
    <path d="M16.7503 26.0988 L16.7503 25.4116 "/>
    <path d="M28.6803 35.7339 L28.6803 35.2288 "/>
    <path d="M40.5853 35.4238 L39.7703 34.6088 "/>
    <path d="M22.6503 36.8761 L22.6503 36.5988 "/>
    <path d="M20.2303 18.9026 L20.2303 19.9176 "/>
  </g>
  <g style="fill:none;  stroke:#000000; stroke-width:0.4000; stroke-opacity:1;  stroke-linecap:round; stroke-linejoin:round;">
    <path d="M20.6653 8.7638 L20.7303 8.6988 "/>
  </g>
  <g style="fill:none;  stroke:#000000; stroke-width:0.3000; stroke-opacity:1;  stroke-linecap:round; stroke-linejoin:round;">
    <path d="M16.7926 14.3463 L16.2703 13.8240 "/>
    <path d="M22.6803 35.2111 L22.2703 34.8011 "/>
    <path d="M28.4853 16.2565 L28.6503 16.0915 "/>
  </g>
  <g style="fill:none;  stroke:#000000; stroke-width:0.4000; stroke-opacity:1;  stroke-linecap:round; stroke-linejoin:round;">
    <path d="M37.0224 27.8988 L36.5503 27.8988 "/>
  </g>
  <g style="fill:none;  stroke:#000000; stroke-width:0.3000; stroke-opacity:1;  stroke-linecap:round; stroke-linejoin:round;">
    <path d="M23.7715 28.5849 L25.6379 28.5849 "/>
    <path d="M31.4824 34.4911 L31.7503 34.7590 "/>
    <path d="M15.8353 26.6488 L16.2353 26.6488 "/>
    <path d="M34.5853 25.9338 L34.5853 24.8338 "/>
    <path d="M22.7503 15.6988 L22.5853 15.5338 "/>
    <path d="M4.5853 36.5638 L4.1080 37.0411 "/>
    <path d="M32.2903 27.6988 L32.7853 27.6988 "/>
    <path d="M26.6653 30.7449 L26.6653 29.7299 "/>
    <path d="M22.5853 5.5141 L22.5853 5.4638 "/>
    <path d="M4.7503 36.4988 L4.5853 36.5638 "/>
    <path d="M8.7303 29.2949 L8.7303 30.6799 "/>
    <path d="M26.6653 8.9453 L26.2303 8.5103 "/>
    <path d="M16.5853 27.3988 L18.9503 27.3988 "/>
    <path d="M9.8353 27.9138 L9.8353 26.6488 "/>
    <path d="M22.5853 5.1338 L22.5853 3.9391 "/>
    <path d="M22.5853 24.7338 L22.2703 24.4188 "/>
    <path d="M40.4853 37.0411 L40.5853 36.9411 "/>
    <path d="M40.5853 36.6638 L40.7503 36.4988 "/>
    <path d="M34.5853 26.2988 L34.5853 26.2638 "/>
    <path d="M16.7503 25.4116 L16.6803 25.3416 "/>
    <path d="M27.8353 16.6838 L29.1503 17.9988 "/>
    <path d="M33.8353 37.0411 L34.4853 37.0411 "/>
    <path d="M28.2703 13.8240 L28.2703 13.7065 "/>
    <path d="M40.7503 36.4988 L40.5853 36.3338 "/>
    <path d="M16.7926 15.7411 L16.7503 15.6988 "/>
    <path d="M10.6503 35.2561 L10.6503 36.3988 "/>
    <path d="M34.7503 36.4988 L34.7503 35.0886 "/>
    <path d="M22.7503 36.4988 L22.7503 35.8039 "/>
    <path d="M22.2703 24.4188 L22.2703 24.0988 "/>
    <path d="M21.8353 16.2565 L22.4853 16.2565 "/>
    <path d="M34.2353 26.6488 L34.5853 26.2988 "/>
    <path d="M9.8353 26.6488 L11.7715 28.5849 "/>
    <path d="M22.2353 5.8641 L22.5853 5.5141 "/>
  </g>
  <g style="fill:none;  stroke:#000000; stroke-width:0.4000; stroke-opacity:1;  stroke-linecap:round; stroke-linejoin:round;">
    <path d="M38.2303 29.2949 L38.2303 29.1066 "/>
  </g>
  <g style="fill:none;  stroke:#000000; stroke-width:0.3000; stroke-opacity:1;  stroke-linecap:round; stroke-linejoin:round;">
    <path d="M14.2303 17.8615 L15.8353 16.2565 "/>
    <path d="M28.6503 16.0915 L28.6503 15.7988 "/>
    <path d="M16.2703 13.8240 L16.2703 13.7065 "/>
    <path d="M32.2303 30.3099 L32.6653 30.7449 "/>
    <path d="M13.8303 28.5849 L14.2303 28.9849 "/>
    <path d="M28.2703 24.2188 L28.2703 24.0988 "/>
    <path d="M21.8353 26.6488 L23.7715 28.5849 "/>
    <path d="M22.7503 5.2988 L22.5853 5.1338 "/>
    <path d="M34.7503 26.0988 L34.5853 25.9338 "/>
    <path d="M16.7926 15.6565 L16.7926 14.3463 "/>
    <path d="M21.8353 26.6488 L22.2503 26.6488 "/>
    <path d="M22.2703 34.8011 L22.2703 34.4911 "/>
    <path d="M27.8353 16.2565 L28.4853 16.2565 "/>
    <path d="M25.1440 17.6988 L23.2776 17.6988 "/>
    <path d="M16.2103 32.7988 L16.2103 34.4311 "/>
    <path d="M26.2303 29.1774 L26.2303 29.2949 "/>
    <path d="M27.6119 9.9603 L27.7503 10.0988 "/>
    <path d="M16.7503 36.4988 L16.5853 36.6638 "/>
    <path d="M21.8353 5.8641 L22.2353 5.8641 "/>
    <path d="M22.5853 3.9391 L22.2703 3.6241 "/>
    <path d="M28.6503 14.2040 L28.2703 13.8240 "/>
    <path d="M20.2303 29.2949 L20.2303 28.6688 "/>
    <path d="M10.5003 26.6488 L9.8353 26.6488 "/>
    <path d="M26.6653 20.3526 L26.6653 19.3376 "/>
    <path d="M34.5853 24.8338 L34.2703 24.5188 "/>
    <path d="M22.7503 35.8039 L22.6803 35.7339 "/>
    <path d="M10.6803 25.0288 L10.6803 25.3416 "/>
    <path d="M28.7503 35.8039 L28.6803 35.7339 "/>
    <path d="M10.2703 24.6188 L10.6803 25.0288 "/>
    <path d="M22.5853 15.8638 L22.7503 15.6988 "/>
    <path d="M27.8353 26.6488 L28.4853 26.6488 "/>
    <path d="M26.0183 13.7065 L25.7503 13.9744 "/>
    <path d="M28.5853 26.5488 L28.5853 26.2638 "/>
    <path d="M10.6503 36.3988 L10.7503 36.4988 "/>
    <path d="M22.5853 26.2638 L22.7503 26.0988 "/>
    <path d="M10.2703 34.4911 L10.2703 34.8761 "/>
    <path d="M22.5853 25.9338 L22.5853 24.7338 "/>
    <path d="M8.7303 30.6799 L8.6653 30.7449 "/>
    <path d="M16.6803 25.3416 L16.6803 24.8188 "/>
    <path d="M22.6803 35.7339 L22.6803 35.2111 "/>
    <path d="M10.5853 36.6638 L10.5853 36.9411 "/>
    <path d="M16.7926 16.2565 L16.7926 15.7411 "/>
    <path d="M22.5853 14.5338 L22.2703 14.2188 "/>
    <path d="M16.6803 26.2038 L16.6803 26.1688 "/>
    <path d="M20.2303 18.9026 L20.2303 17.1588 "/>
    <path d="M28.6503 15.5988 L28.6503 14.2040 "/>
    <path d="M28.6803 35.2288 L28.2703 34.8188 "/>
    <path d="M14.2303 18.9026 L14.2303 17.8615 "/>
    <path d="M10.7503 26.0988 L10.7503 26.3988 "/>
    <path d="M22.2503 26.6488 L22.4853 26.6488 "/>
    <path d="M28.5853 24.5338 L28.2703 24.2188 "/>
    <path d="M32.2303 29.2949 L32.2303 30.3099 "/>
    <path d="M22.4853 16.2565 L22.5853 16.1565 "/>
    <path d="M27.8353 16.2565 L27.8353 17.2976 "/>
    <path d="M14.2303 29.2949 L14.2303 28.2538 "/>
    <path d="M10.2703 24.0988 L10.2703 24.6188 "/>
  </g>
  <g style="fill:none;  stroke:#000000; stroke-width:0.4000; stroke-opacity:1;  stroke-linecap:round; stroke-linejoin:round;">
    <path d="M17.0760 31.4988 L17.3503 31.4988 "/>
  </g>
  <g style="fill:none;  stroke:#000000; stroke-width:0.5000; stroke-opacity:1;  stroke-linecap:round; stroke-linejoin:round;">
    <path d="M15.1042 30.7449 L15.5503 30.2988 "/>
  </g>
  <g style="fill:none;  stroke:#000000; stroke-width:0.4000; stroke-opacity:1;  stroke-linecap:round; stroke-linejoin:round;">
    <path d="M21.8353 6.8988 L21.8353 5.8641 "/>
  </g>
  <g style="fill:none;  stroke:#000000; stroke-width:0.3000; stroke-opacity:1;  stroke-linecap:round; stroke-linejoin:round;">
    <path d="M16.6803 24.8188 L16.2703 24.4088 "/>
    <path d="M22.2703 3.6241 L22.2703 3.3141 "/>
    <path d="M28.7503 15.6988 L28.6503 15.5988 "/>
    <path d="M28.5853 25.9338 L28.5853 24.5338 "/>
    <path d="M26.6653 9.9603 L26.6653 8.9453 "/>
    <path d="M26.6653 9.9603 L27.6119 9.9603 "/>
    <path d="M40.5853 36.3338 L40.5853 35.4238 "/>
  </g>
  <g style="fill:none;  stroke:#000000; stroke-width:0.4000; stroke-opacity:1;  stroke-linecap:round; stroke-linejoin:round;">
    <path d="M16.2103 32.3644 L17.0760 31.4988 "/>
    <path d="M10.7503 27.5638 L9.8353 26.6488 "/>
  </g>
  <g style="fill:none;  stroke:#000000; stroke-width:0.3000; stroke-opacity:1;  stroke-linecap:round; stroke-linejoin:round;">
    <path d="M20.9930 17.0988 L21.8353 16.2565 "/>
    <path d="M32.6653 20.3526 L32.6653 19.3376 "/>
    <path d="M18.9503 27.3988 L20.2303 28.6788 "/>
    <path d="M8.7303 29.2949 L8.7303 29.0188 "/>
    <path d="M29.1503 17.9988 L30.1503 17.9988 "/>
    <path d="M23.2776 17.6988 L21.8353 16.2565 "/>
    <path d="M4.2703 34.8761 L4.7503 35.3561 "/>
    <path d="M22.2703 14.2188 L22.2703 13.7065 "/>
    <path d="M26.2303 18.9026 L26.2303 18.7850 "/>
    <path d="M20.2303 17.1588 L20.2903 17.0988 "/>
    <path d="M14.6653 19.3376 L14.2303 18.9026 "/>
    <path d="M40.5853 36.9411 L40.5853 36.6638 "/>
    <path d="M10.2703 34.8761 L10.6503 35.2561 "/>
    <path d="M22.5853 5.4638 L22.7503 5.2988 "/>
    <path d="M34.5853 26.2638 L34.7503 26.0988 "/>
    <path d="M28.2703 13.7065 L26.0183 13.7065 "/>
    <path d="M26.6653 29.7299 L26.2303 29.2949 "/>
    <path d="M20.2303 28.6688 L22.2503 26.6488 "/>
    <path d="M34.2703 34.6086 L34.2703 34.4911 "/>
    <path d="M28.7503 26.0988 L28.5853 25.9338 "/>
    <path d="M32.7853 27.6988 L33.8353 26.6488 "/>
    <path d="M11.7715 28.5849 L13.8303 28.5849 "/>
    <path d="M15.8353 16.2565 L16.7926 16.2565 "/>
    <path d="M26.6653 19.3376 L26.2303 18.9026 "/>
    <path d="M32.2903 29.2349 L32.2303 29.2949 "/>
  </g>
  <g style="fill:none;  stroke:#000000; stroke-width:0.4000; stroke-opacity:1;  stroke-linecap:round; stroke-linejoin:round;">
    <path d="M38.2303 29.1066 L37.0224 27.8988 "/>
  </g>
  <g style="fill:none;  stroke:#000000; stroke-width:0.3000; stroke-opacity:1;  stroke-linecap:round; stroke-linejoin:round;">
    <path d="M16.7503 15.6988 L16.7926 15.6565 "/>
    <path d="M28.2703 34.8188 L28.2703 34.4911 "/>
  </g>
  <g style="fill:none;  stroke:#000000; stroke-width:0.4000; stroke-opacity:1;  stroke-linecap:round; stroke-linejoin:round;">
    <path d="M20.7303 8.6988 L20.7303 8.0038 "/>
  </g>
  <g style="fill:none;  stroke:#000000; stroke-width:0.3000; stroke-opacity:1;  stroke-linecap:round; stroke-linejoin:round;">
    <path d="M34.2703 24.5188 L34.2703 24.0988 "/>
  </g>
  <g style="fill:none;  stroke:#000000; stroke-width:0.4000; stroke-opacity:1;  stroke-linecap:round; stroke-linejoin:round;">
    <path d="M10.7503 29.5629 L10.7503 27.5638 "/>
  </g>
  <g style="fill:none;  stroke:#000000; stroke-width:0.3000; stroke-opacity:1;  stroke-linecap:round; stroke-linejoin:round;">
    <path d="M10.6803 25.3416 L10.7503 25.4116 "/>
    <path d="M20.2303 30.3099 L20.6653 30.7449 "/>
    <path d="M27.8353 37.0411 L28.4853 37.0411 "/>
    <path d="M20.2303 28.6788 L20.2303 29.2949 "/>
    <path d="M28.4853 37.0411 L28.7503 36.7761 "/>
    <path d="M14.6653 30.7449 L14.6653 29.7299 "/>
    <path d="M14.6653 20.3526 L14.6653 19.3376 "/>
    <path d="M38.2303 29.2949 L38.2303 29.1774 "/>
    <path d="M4.1080 37.0411 L3.8353 37.0411 "/>
    <path d="M32.6653 19.3376 L32.2303 18.9026 "/>
    <path d="M25.6379 28.5849 L26.2303 29.1774 "/>
  </g>
  <g style="fill:none;  stroke:#000000; stroke-width:0.4000; stroke-opacity:1;  stroke-linecap:round; stroke-linejoin:round;">
    <path d="M16.2103 32.7988 L16.2103 32.3644 "/>
  </g>
  <g style="fill:none;  stroke:#000000; stroke-width:0.3000; stroke-opacity:1;  stroke-linecap:round; stroke-linejoin:round;">
    <path d="M22.4853 26.6488 L22.5853 26.5488 "/>
    <path d="M28.5853 26.2638 L28.7503 26.0988 "/>
  </g>
  <g style="fill:none;  stroke:#000000; stroke-width:0.4000; stroke-opacity:1;  stroke-linecap:round; stroke-linejoin:round;">
    <path d="M20.6653 9.9603 L20.6653 8.7638 "/>
  </g>
  <g style="fill:none;  stroke:#000000; stroke-width:0.3000; stroke-opacity:1;  stroke-linecap:round; stroke-linejoin:round;">
    <path d="M20.2903 17.0988 L20.9930 17.0988 "/>
    <path d="M10.4853 37.0411 L9.8353 37.0411 "/>
    <path d="M16.6803 26.1688 L16.7503 26.0988 "/>
    <path d="M20.2303 29.2949 L20.2303 30.3099 "/>
    <path d="M10.7503 26.3988 L10.5003 26.6488 "/>
    <path d="M14.6653 29.7299 L14.2303 29.2949 "/>
    <path d="M39.7703 34.6088 L39.7703 34.2988 "/>
    <path d="M10.7503 36.4988 L10.5853 36.6638 "/>
    <path d="M16.4080 37.0411 L15.8353 37.0411 "/>
    <path d="M38.6653 29.7299 L38.2303 29.2949 "/>
    <path d="M16.2703 34.8761 L16.7503 35.3561 "/>
    <path d="M15.8353 26.6488 L16.5853 27.3988 "/>
    <path d="M8.7303 29.0188 L9.8353 27.9138 "/>
    <path d="M30.1503 17.9988 L31.4440 17.9988 "/>
    <path d="M16.5853 36.6638 L16.5853 36.8638 "/>
    <path d="M28.4853 26.6488 L28.5853 26.5488 "/>
    <path d="M38.6653 30.7449 L38.6653 29.7299 "/>
    <path d="M31.4440 17.9988 L32.2303 18.7850 "/>
    <path d="M14.2303 28.2538 L15.8353 26.6488 "/>
    <path d="M22.6503 36.5988 L22.7503 36.4988 "/>
    <path d="M4.7503 35.3561 L4.7503 36.4988 "/>
    <path d="M28.7503 36.7761 L28.7503 35.8039 "/>
    <path d="M26.2303 28.2538 L27.8353 26.6488 "/>
    <path d="M14.2303 28.9849 L14.2303 29.2949 "/>
    <path d="M16.2703 24.4088 L16.2703 24.0988 "/>
    <path d="M10.7503 25.4116 L10.7503 26.0988 "/>
    <path d="M10.5853 36.9411 L10.4853 37.0411 "/>
    <path d="M16.5853 36.8638 L16.4080 37.0411 "/>
    <path d="M26.2303 18.7850 L25.1440 17.6988 "/>
    <path d="M27.8353 16.2565 L27.8353 16.6838 "/>
    <path d="M22.5853 16.1565 L22.5853 15.8638 "/>
    <path d="M20.2303 19.9176 L20.6653 20.3526 "/>
    <path d="M21.8353 37.0411 L22.4853 37.0411 "/>
    <path d="M26.2303 29.2949 L26.2303 28.2538 "/>
  </g>
  <g style="fill:none;  stroke:#000000; stroke-width:0.4000; stroke-opacity:1;  stroke-linecap:round; stroke-linejoin:round;">
    <path d="M20.7303 8.0038 L21.8353 6.8988 "/>
  </g>
  <g style="fill:none;  stroke:#000000; stroke-width:0.3000; stroke-opacity:1;  stroke-linecap:round; stroke-linejoin:round;">
    <path d="M39.8353 37.0411 L40.4853 37.0411 "/>
    <path d="M16.7503 35.3561 L16.7503 36.4988 "/>
    <path d="M27.8353 17.2976 L26.2303 18.9026 "/>
    <path d="M34.4853 37.0411 L34.9153 36.6111 "/>
    <path d="M33.8353 26.6488 L34.2353 26.6488 "/>
    <path d="M22.5853 15.5338 L22.5853 14.5338 "/>
    <path d="M16.2103 34.4311 L16.2703 34.4911 "/>
  </g>
  <g style="fill:none;  stroke:#000000; stroke-width:0.5000; stroke-opacity:1;  stroke-linecap:round; stroke-linejoin:round;">
    <path d="M14.6653 30.7449 L15.1042 30.7449 "/>
  </g>
  <g style="fill:none;  stroke:#000000; stroke-width:0.3000; stroke-opacity:1;  stroke-linecap:round; stroke-linejoin:round;">
    <path d="M32.2303 18.7850 L32.2303 18.9026 "/>
    <path d="M22.5853 26.5488 L22.5853 26.2638 "/>
    <path d="M34.9153 36.6111 L34.7503 36.4988 "/>
    <path d="M28.6503 15.7988 L28.7503 15.6988 "/>
    <path d="M34.7503 35.0886 L34.2703 34.6086 "/>
    <path d="M22.4853 37.0411 L22.6503 36.8761 "/>
    <path d="M18.5103 17.7988 L17.8503 17.7988 "/>
    <path d="M17.6653 34.9261 L17.2303 34.4911 "/>
    <path d="M5.6653 34.9261 L5.2303 34.4911 "/>
    <path d="M24.8353 21.4526 L24.8353 22.4938 "/>
    <path d="M37.4853 31.8449 L37.5853 31.7449 "/>
    <path d="M37.5853 29.9949 L37.2703 29.6799 "/>
    <path d="M17.2903 32.7988 L17.2903 34.4311 "/>
    <path d="M25.5853 11.8103 L24.8353 11.0603 "/>
    <path d="M25.2703 19.1188 L25.2703 18.9026 "/>
    <path d="M23.2303 13.3965 L21.6442 11.8103 "/>
    <path d="M35.6653 35.9411 L35.6653 34.9261 "/>
    <path d="M24.8353 31.8449 L24.8353 32.8861 "/>
    <path d="M11.2303 34.4911 L11.2303 35.5061 "/>
    <path d="M24.8353 21.4526 L25.4853 21.4526 "/>
    <path d="M16.1403 22.6988 L14.0815 22.6988 "/>
    <path d="M18.8353 31.8449 L19.4853 31.8449 "/>
    <path d="M13.2703 29.4125 L13.2703 29.2949 "/>
    <path d="M25.4853 11.0603 L25.5853 10.9603 "/>
    <path d="M18.8353 11.0603 L19.4853 11.0603 "/>
    <path d="M17.2303 24.0988 L17.2303 23.7888 "/>
    <path d="M31.2703 19.0202 L31.2703 18.9026 "/>
    <path d="M19.5853 10.9603 L19.5853 10.5638 "/>
    <path d="M7.7703 31.3188 L7.7503 31.2988 "/>
    <path d="M29.6653 24.5338 L29.2303 24.0988 "/>
    <path d="M40.1379 33.5888 L38.5792 33.5888 "/>
    <path d="M21.6442 11.8103 L19.5853 11.8103 "/>
    <path d="M23.6653 15.1565 L23.6653 14.1415 "/>
    <path d="M17.6653 35.9411 L17.6653 34.9261 "/>
    <path d="M36.8353 31.8449 L37.4853 31.8449 "/>
    <path d="M7.6042 31.8449 L7.7703 31.6788 "/>
    <path d="M11.2303 24.0988 L11.2303 23.0576 "/>
    <path d="M37.5853 31.4638 L37.7503 31.2988 "/>
    <path d="M28.2403 22.7988 L26.1815 22.7988 "/>
    <path d="M40.7303 34.1812 L40.1379 33.5888 "/>
    <path d="M23.6653 4.7641 L24.4157 4.7641 "/>
    <path d="M31.6035 31.4456 L31.7503 31.2988 "/>
    <path d="M36.8353 31.8449 L36.8353 32.8861 "/>
    <path d="M23.2303 24.0988 L23.2303 23.9812 "/>
    <path d="M31.6035 29.7456 L31.2703 29.4125 "/>
    <path d="M5.6653 35.9411 L5.6653 34.9261 "/>
    <path d="M25.5853 10.3338 L25.5853 8.9338 "/>
    <path d="M17.6653 14.1415 L17.2303 13.7065 "/>
    <path d="M19.6503 29.7988 L19.2703 29.4188 "/>
    <path d="M29.6653 14.1415 L29.2303 13.7065 "/>
    <path d="M7.7703 31.2788 L7.7703 29.2949 "/>
    <path d="M24.8353 32.8861 L23.2303 34.4911 "/>
    <path d="M13.2703 19.2126 L13.2703 18.9026 "/>
    <path d="M19.5853 11.8103 L18.8353 11.0603 "/>
    <path d="M19.5853 21.3526 L19.4853 21.4526 "/>
    <path d="M13.9153 31.4149 L13.7503 31.2988 "/>
    <path d="M29.2303 34.4911 L29.2303 35.5061 "/>
    <path d="M40.7303 34.2988 L40.7303 34.1812 "/>
    <path d="M41.6653 35.7138 L41.6653 35.9411 "/>
    <path d="M17.2303 23.7888 L16.1403 22.6988 "/>
    <path d="M13.6503 20.9988 L13.7503 20.8988 "/>
    <path d="M19.5853 10.5638 L19.7503 10.3988 "/>
    <path d="M12.8353 32.8861 L11.2303 34.4911 "/>
    <path d="M19.4853 31.8449 L19.6503 31.6799 "/>
    <path d="M13.6503 19.5926 L13.2703 19.2126 "/>
    <path d="M21.9479 22.6988 L20.0815 22.6988 "/>
    <path d="M23.2303 35.5061 L23.6653 35.9411 "/>
    <path d="M25.5853 10.9603 L25.5853 10.6638 "/>
    <path d="M26.1815 22.7988 L24.8353 21.4526 "/>
    <path d="M21.4517 32.5949 L19.5853 32.5949 "/>
    <path d="M24.8353 12.1015 L23.2303 13.7065 "/>
    <path d="M23.2303 23.9812 L21.9479 22.6988 "/>
    <path d="M19.5853 20.7338 L19.7503 20.8988 "/>
    <path d="M33.4517 22.2026 L31.5853 22.2026 "/>
    <path d="M29.2303 23.7888 L28.2403 22.7988 "/>
    <path d="M25.4853 31.8449 L25.5853 31.7449 "/>
    <path d="M17.2303 24.0988 L17.2303 25.1138 "/>
    <path d="M25.4853 21.4526 L25.5853 21.3526 "/>
    <path d="M19.2103 18.8426 L19.2703 18.9026 "/>
    <path d="M24.4157 4.7641 L24.6503 4.9988 "/>
    <path d="M35.2303 34.4911 L35.2303 34.1811 "/>
    <path d="M30.8353 21.4526 L30.8353 22.4938 "/>
    <path d="M23.2303 34.4911 L23.2303 34.3735 "/>
    <path d="M23.2303 13.7065 L23.2303 13.3965 "/>
    <path d="M36.8353 32.8861 L35.2303 34.4911 "/>
    <path d="M31.2703 29.4125 L31.2703 29.2949 "/>
    <path d="M25.5853 29.7338 L25.2703 29.4188 "/>
    <path d="M19.6503 31.6799 L19.6503 31.3988 "/>
    <path d="M19.5853 32.5949 L18.8353 31.8449 "/>
    <path d="M29.2303 13.5889 L27.4517 11.8103 "/>
    <path d="M7.7503 31.2988 L7.7703 31.2788 "/>
    <path d="M25.5853 32.5949 L24.8353 31.8449 "/>
    <path d="M6.8353 31.8449 L7.6042 31.8449 "/>
    <path d="M31.2103 27.6988 L31.2103 29.2349 "/>
  </g>
  <g style="fill:none;  stroke:#000000; stroke-width:0.4000; stroke-opacity:1;  stroke-linecap:round; stroke-linejoin:round;">
    <path d="M13.7503 32.7599 L12.8353 31.8449 "/>
  </g>
  <g style="fill:none;  stroke:#000000; stroke-width:0.3000; stroke-opacity:1;  stroke-linecap:round; stroke-linejoin:round;">
    <path d="M19.2103 17.0988 L19.2103 18.8426 "/>
    <path d="M13.6503 20.7988 L13.6503 19.5926 "/>
  </g>
  <g style="fill:none;  stroke:#000000; stroke-width:0.4000; stroke-opacity:1;  stroke-linecap:round; stroke-linejoin:round;">
    <path d="M13.7503 34.7590 L13.7503 32.7599 "/>
  </g>
  <g style="fill:none;  stroke:#000000; stroke-width:0.3000; stroke-opacity:1;  stroke-linecap:round; stroke-linejoin:round;">
    <path d="M19.4853 21.4526 L18.8353 21.4526 "/>
    <path d="M31.9153 19.6652 L31.2703 19.0202 "/>
    <path d="M37.7503 31.2988 L37.5853 31.1338 "/>
    <path d="M25.5853 21.3526 L25.5853 21.0638 "/>
    <path d="M29.6653 15.1565 L29.6653 14.1415 "/>
    <path d="M25.5853 8.9338 L25.2703 8.6188 "/>
    <path d="M35.2303 23.9812 L33.4517 22.2026 "/>
    <path d="M29.2303 13.7065 L29.2303 13.5889 "/>
    <path d="M18.8353 21.4526 L18.8353 22.4938 "/>
    <path d="M17.2303 25.1138 L17.6653 25.5488 "/>
    <path d="M30.8353 31.8449 L30.8353 32.8861 "/>
    <path d="M12.8353 21.4526 L13.2353 21.4526 "/>
    <path d="M12.8353 31.8449 L12.8353 32.8861 "/>
    <path d="M12.8353 31.8449 L13.4853 31.8449 "/>
    <path d="M13.7503 31.2988 L13.9153 30.0575 "/>
    <path d="M11.2303 23.0576 L12.8353 21.4526 "/>
    <path d="M11.2303 24.0988 L11.2303 25.1138 "/>
    <path d="M37.5853 31.7449 L37.5853 31.4638 "/>
    <path d="M29.2303 24.0988 L29.2303 23.7888 "/>
    <path d="M23.6653 4.7641 L23.6653 3.7491 "/>
    <path d="M31.9153 21.0226 L31.7503 20.8988 "/>
    <path d="M11.2303 25.1138 L11.6653 25.5488 "/>
    <path d="M24.8353 31.8449 L25.4853 31.8449 "/>
    <path d="M25.5853 10.6638 L25.7503 10.4988 "/>
    <path d="M18.5683 15.1565 L19.7503 13.9744 "/>
    <path d="M24.8353 22.4938 L23.2303 24.0988 "/>
    <path d="M25.7503 31.2988 L25.5853 31.1338 "/>
    <path d="M23.2303 34.4911 L23.2303 35.5061 "/>
    <path d="M30.8353 31.8449 L31.4853 31.8449 "/>
    <path d="M24.8353 11.0603 L24.8353 12.1015 "/>
    <path d="M27.6442 32.5949 L25.5853 32.5949 "/>
    <path d="M25.5853 31.4638 L25.7503 31.2988 "/>
    <path d="M13.7503 20.8988 L13.6503 20.7988 "/>
    <path d="M33.6442 32.5949 L31.5853 32.5949 "/>
    <path d="M25.5853 21.0638 L25.7503 20.8988 "/>
    <path d="M25.5853 20.7338 L25.5853 19.4338 "/>
    <path d="M13.6503 21.0376 L13.6503 20.9988 "/>
    <path d="M17.6653 15.1565 L17.6653 14.1415 "/>
    <path d="M17.6653 15.1565 L18.5683 15.1565 "/>
    <path d="M23.6653 14.1415 L23.2303 13.7065 "/>
    <path d="M25.2703 8.6188 L25.2703 8.5103 "/>
    <path d="M23.6653 25.5488 L23.6653 24.5338 "/>
    <path d="M13.2353 21.4526 L13.6503 21.0376 "/>
    <path d="M19.5853 21.0638 L19.5853 21.3526 "/>
    <path d="M19.2703 19.5188 L19.5853 19.8338 "/>
    <path d="M35.6653 24.5338 L35.2303 24.0988 "/>
    <path d="M5.2303 34.4911 L6.1226 33.5988 "/>
    <path d="M17.8815 32.7988 L18.8353 31.8449 "/>
    <path d="M19.6503 31.1988 L19.6503 29.7988 "/>
    <path d="M18.8353 22.4938 L17.2303 24.0988 "/>
    <path d="M31.4853 21.4526 L31.9153 21.0226 "/>
    <path d="M18.8353 11.0603 L18.8353 12.1015 "/>
    <path d="M38.5792 33.5888 L36.8353 31.8449 "/>
    <path d="M11.2303 35.5061 L11.6653 35.9411 "/>
    <path d="M35.6653 34.9261 L35.2303 34.4911 "/>
    <path d="M25.5853 31.7449 L25.5853 31.4638 "/>
    <path d="M25.7503 20.8988 L25.5853 20.7338 "/>
    <path d="M25.7503 10.4988 L25.5853 10.3338 "/>
    <path d="M31.6035 31.1519 L31.6035 29.7456 "/>
    <path d="M23.2303 34.3735 L21.4517 32.5949 "/>
    <path d="M18.8353 12.1015 L17.2303 13.7065 "/>
    <path d="M23.6653 24.5338 L23.2303 24.0988 "/>
    <path d="M29.6653 25.5488 L29.6653 24.5338 "/>
    <path d="M31.7503 31.2988 L31.6035 31.1519 "/>
    <path d="M19.7503 10.3988 L19.7503 8.7188 "/>
    <path d="M30.8353 21.4526 L31.4853 21.4526 "/>
    <path d="M25.5853 19.4338 L25.2703 19.1188 "/>
    <path d="M7.7703 31.6788 L7.7703 31.3188 "/>
    <path d="M19.7503 31.2988 L19.6503 31.1988 "/>
    <path d="M40.7303 34.2988 L40.7303 34.7788 "/>
    <path d="M22.8303 12.9965 L20.7283 12.9965 "/>
    <path d="M19.4853 11.0603 L19.5853 10.9603 "/>
    <path d="M17.6653 15.1565 L18.0653 15.1565 "/>
    <path d="M29.2303 35.5061 L29.6653 35.9411 "/>
    <path d="M31.7503 20.8988 L31.9153 19.6652 "/>
    <path d="M25.2703 29.4188 L25.2703 29.2949 "/>
    <path d="M35.6653 25.5488 L35.6653 24.5338 "/>
    <path d="M29.2303 34.4911 L29.2303 34.1811 "/>
    <path d="M25.5853 31.1338 L25.5853 29.7338 "/>
    <path d="M31.2103 29.2349 L31.2703 29.2949 "/>
    <path d="M17.2903 34.4311 L17.2303 34.4911 "/>
    <path d="M27.4517 11.8103 L25.5853 11.8103 "/>
    <path d="M17.2903 32.7988 L17.8815 32.7988 "/>
    <path d="M30.8353 22.4938 L29.2303 24.0988 "/>
    <path d="M19.2703 18.9026 L19.2703 19.5188 "/>
    <path d="M35.2303 24.0988 L35.2303 23.9812 "/>
    <path d="M19.6503 31.3988 L19.7503 31.2988 "/>
    <path d="M24.8353 11.0603 L25.4853 11.0603 "/>
    <path d="M20.7283 12.9965 L19.7503 13.9744 "/>
    <path d="M13.9153 30.0575 L13.2703 29.4125 "/>
    <path d="M40.7303 34.7788 L41.6653 35.7138 "/>
    <path d="M35.2303 34.1811 L33.6442 32.5949 "/>
    <path d="M13.4853 31.8449 L13.9153 31.4149 "/>
    <path d="M19.5853 19.8338 L19.5853 20.7338 "/>
    <path d="M31.5853 32.5949 L30.8353 31.8449 "/>
    <path d="M19.2103 17.0988 L18.5103 17.7988 "/>
    <path d="M31.6035 31.7268 L31.6035 31.4456 "/>
    <path d="M29.2303 34.1811 L27.6442 32.5949 "/>
    <path d="M23.2303 13.3965 L22.8303 12.9965 "/>
    <path d="M37.5853 31.1338 L37.5853 29.9949 "/>
    <path d="M37.2703 29.6799 L37.2703 29.2949 "/>
    <path d="M14.0815 22.6988 L12.8353 21.4526 "/>
    <path d="M19.2703 29.4188 L19.2703 29.2949 "/>
    <path d="M31.5853 22.2026 L30.8353 21.4526 "/>
    <path d="M19.7503 8.7188 L19.7703 8.6988 "/>
    <path d="M30.8353 32.8861 L29.2303 34.4911 "/>
    <path d="M20.0815 22.6988 L18.8353 21.4526 "/>
    <path d="M6.1503 33.5988 L6.1226 33.5988 "/>
    <path d="M31.4853 31.8449 L31.6035 31.7268 "/>
    <path d="M19.7503 20.8988 L19.5853 21.0638 "/>
    <path d="M23.6653 3.7491 L23.2303 3.3141 "/>
  </g>
  <g style="fill:none;  stroke:#000000; stroke-width:0.2500; stroke-opacity:1;  stroke-linecap:round; stroke-linejoin:round;">
    <path d="M18.8503 7.7988 L18.8503 9.9453 "/>
    <path d="M21.4853 4.7641 L21.1103 5.1391 "/>
    <path d="M21.1103 5.5388 L18.8503 7.7988 "/>
    <path d="M21.1103 5.1391 L21.1103 5.5388 "/>
    <path d="M21.8353 4.7641 L21.4853 4.7641 "/>
    <path d="M18.8503 9.9453 L18.8353 9.9603 "/>
    <path d="M23.6653 5.8641 L24.4257 5.8641 "/>
    <path d="M24.4257 5.8641 L24.8503 6.2888 "/>
    <path d="M24.4853 9.9603 L24.8353 9.9603 "/>
    <path d="M20.6653 11.0603 L23.3853 11.0603 "/>
    <path d="M23.3853 11.0603 L24.4853 9.9603 "/>
    <path d="M24.0153 16.2565 L23.6653 16.2565 "/>
    <path d="M27.8353 15.1565 L25.1153 15.1565 "/>
    <path d="M25.1153 15.1565 L24.0153 16.2565 "/>
    <path d="M18.2653 16.2565 L19.3653 15.1565 "/>
    <path d="M19.3653 15.1565 L21.8353 15.1565 "/>
    <path d="M17.6653 16.2565 L18.2653 16.2565 "/>
    <path d="M12.6153 20.1326 L12.6153 18.0265 "/>
    <path d="M12.8353 20.3526 L12.6153 20.1326 "/>
    <path d="M15.4853 15.1565 L15.8353 15.1565 "/>
    <path d="M12.6153 18.0265 L15.4853 15.1565 "/>
    <path d="M15.0153 21.4526 L14.6653 21.4526 "/>
    <path d="M16.1153 20.3526 L15.0153 21.4526 "/>
    <path d="M18.8353 20.3526 L16.1153 20.3526 "/>
    <path d="M24.8353 20.3526 L22.1153 20.3526 "/>
    <path d="M22.1153 20.3526 L21.0153 21.4526 "/>
    <path d="M21.0153 21.4526 L20.6653 21.4526 "/>
    <path d="M28.1153 20.3526 L27.0153 21.4526 "/>
    <path d="M27.0153 21.4526 L26.6653 21.4526 "/>
    <path d="M30.8353 20.3526 L28.1153 20.3526 "/>
    <path d="M30.0153 26.6488 L29.6653 26.6488 "/>
    <path d="M33.8353 25.5488 L31.1153 25.5488 "/>
    <path d="M31.1153 25.5488 L30.0153 26.6488 "/>
    <path d="M27.8353 25.5488 L25.1153 25.5488 "/>
    <path d="M25.1153 25.5488 L24.0153 26.6488 "/>
    <path d="M24.0153 26.6488 L23.6653 26.6488 "/>
    <path d="M21.4853 25.5488 L21.8353 25.5488 "/>
    <path d="M20.3853 26.6488 L21.4853 25.5488 "/>
    <path d="M17.6653 26.6488 L20.3853 26.6488 "/>
    <path d="M14.3853 26.6488 L15.4853 25.5488 "/>
    <path d="M11.6653 26.6488 L14.3853 26.6488 "/>
    <path d="M15.4853 25.5488 L15.8353 25.5488 "/>
    <path d="M9.8353 25.5488 L9.2353 25.5488 "/>
    <path d="M9.2353 25.5488 L6.8353 27.9488 "/>
    <path d="M6.8353 27.9488 L6.8353 30.7449 "/>
    <path d="M12.4853 30.7449 L12.8353 30.7449 "/>
    <path d="M8.6653 31.8449 L11.3853 31.8449 "/>
    <path d="M11.3853 31.8449 L12.4853 30.7449 "/>
    <path d="M24.4853 30.7449 L24.8353 30.7449 "/>
    <path d="M23.3853 31.8449 L24.4853 30.7449 "/>
    <path d="M20.6653 31.8449 L23.3853 31.8449 "/>
    <path d="M30.6323 30.7449 L30.8353 30.7449 "/>
    <path d="M29.5323 31.8449 L30.6323 30.7449 "/>
    <path d="M26.6653 31.8449 L29.5323 31.8449 "/>
    <path d="M32.6653 31.8449 L35.3853 31.8449 "/>
    <path d="M35.3853 31.8449 L36.4853 30.7449 "/>
    <path d="M36.4853 30.7449 L36.8353 30.7449 "/>
    <path d="M41.6653 37.0411 L42.2653 37.0411 "/>
    <path d="M42.2653 37.0411 L42.3903 36.9161 "/>
    <path d="M41.9503 35.2161 L41.9503 34.1988 "/>
    <path d="M42.3903 35.2161 L41.9503 35.2161 "/>
    <path d="M42.3903 36.9161 L42.3903 35.2161 "/>
    <path d="M41.9503 34.1988 L39.5965 31.8449 "/>
    <path d="M39.5965 31.8449 L38.6653 31.8449 "/>
    <path d="M39.8353 35.9411 L39.2353 35.9411 "/>
    <path d="M39.2353 35.9411 L38.1353 37.0411 "/>
    <path d="M38.1353 37.0411 L35.6653 37.0411 "/>
    <path d="M31.1153 35.9411 L30.0153 37.0411 "/>
    <path d="M30.0153 37.0411 L29.6653 37.0411 "/>
    <path d="M33.8353 35.9411 L31.1153 35.9411 "/>
    <path d="M19.1153 35.9411 L18.0153 37.0411 "/>
    <path d="M18.0153 37.0411 L17.6653 37.0411 "/>
    <path d="M21.8353 35.9411 L19.1153 35.9411 "/>
    <path d="M13.1153 35.9411 L12.0153 37.0411 "/>
    <path d="M12.0153 37.0411 L11.6653 37.0411 "/>
    <path d="M15.8353 35.9411 L13.1153 35.9411 "/>
    <path d="M9.8353 35.9411 L7.1153 35.9411 "/>
    <path d="M7.1153 35.9411 L6.0153 37.0411 "/>
    <path d="M6.0153 37.0411 L5.6653 37.0411 "/>
    <path d="M7.3503 32.5988 L7.7503 32.9988 "/>
    <path d="M7.7503 32.9988 L7.7503 34.7590 "/>
    <path d="M3.8353 35.9411 L3.6153 35.7211 "/>
    <path d="M3.6153 35.7211 L3.6153 34.1039 "/>
    <path d="M5.1204 32.5988 L7.3503 32.5988 "/>
    <path d="M3.6153 34.1039 L5.1204 32.5988 "/>
    <path d="M30.0586 13.5070 L30.0586 13.0070 "/>
    <path d="M30.4503 16.0715 L30.4503 13.8988 "/>
    <path d="M30.2653 16.2565 L30.4503 16.0715 "/>
    <path d="M30.4503 13.8988 L30.0586 13.5070 "/>
    <path d="M30.0586 13.0070 L28.1119 11.0603 "/>
    <path d="M29.6653 16.2565 L30.2653 16.2565 "/>
    <path d="M28.1119 11.0603 L26.6653 11.0603 "/>
    <path d="M36.3003 26.6488 L35.6653 26.6488 "/>
    <path d="M32.6653 21.4526 L33.6264 21.4526 "/>
    <path d="M33.6264 21.4526 L36.3903 24.2166 "/>
    <path d="M36.3903 26.5588 L36.3003 26.6488 "/>
    <path d="M36.3903 24.2166 L36.3903 26.5588 "/>
    <path d="M14.6653 31.8449 L15.2042 31.8449 "/>
    <path d="M15.2042 31.8449 L16.3042 30.7449 "/>
    <path d="M16.3042 30.7449 L18.8353 30.7449 "/>
    <path d="M27.8353 35.9411 L26.2153 35.9411 "/>
    <path d="M25.1153 37.0411 L23.6653 37.0411 "/>
    <path d="M26.2153 35.9411 L25.1153 37.0411 "/>
    <path d="M24.2198 7.3088 L24.8503 7.3088 "/>
    <path d="M22.7503 8.7782 L22.7503 8.6888 "/>
    <path d="M22.7503 8.7782 L24.2198 7.3088 "/>
  </g>
  <g style="fill:#FFFFFF; fill-opacity:1.0000; stroke:none;">
    <circle cx="40.7503" cy="36.4988" r="0.1500"/>
  </g>
  <g style="fill:#FFFFFF; fill-opacity:1.0000; stroke:none;">
    <circle cx="34.7503" cy="26.0988" r="0.1500"/>
  </g>
  <g style="fill:#FFFFFF; fill-opacity:1.0000; stroke:none;">
    <circle cx="27.7503" cy="10.0988" r="0.1500"/>
  </g>
  <g style="fill:#FFFFFF; fill-opacity:1.0000; stroke:none;">
    <circle cx="15.5503" cy="30.2988" r="0.1500"/>
  </g>
  <g style="fill:#FFFFFF; fill-opacity:1.0000; stroke:none;">
    <circle cx="4.7503" cy="36.4988" r="0.1500"/>
  </g>
  <g style="fill:#FFFFFF; fill-opacity:1.0000; stroke:none;">
    <circle cx="28.7503" cy="26.0988" r="0.1500"/>
  </g>
  <g style="fill:#FFFFFF; fill-opacity:1.0000; stroke:none;">
    <circle cx="16.7503" cy="26.0988" r="0.1500"/>
  </g>
  <g style="fill:#FFFFFF; fill-opacity:1.0000; stroke:none;">
    <circle cx="34.7503" cy="36.4988" r="0.1500"/>
  </g>
  <g style="fill:#FFFFFF; fill-opacity:1.0000; stroke:none;">
    <circle cx="10.7503" cy="36.4988" r="0.1500"/>
  </g>
  <g style="fill:#FFFFFF; fill-opacity:1.0000; stroke:none;">
    <circle cx="22.7503" cy="5.2988" r="0.1500"/>
  </g>
  <g style="fill:#FFFFFF; fill-opacity:1.0000; stroke:none;">
    <circle cx="16.7503" cy="36.4988" r="0.1500"/>
  </g>
  <g style="fill:#FFFFFF; fill-opacity:1.0000; stroke:none;">
    <circle cx="30.1503" cy="17.9988" r="0.1500"/>
  </g>
  <g style="fill:#FFFFFF; fill-opacity:1.0000; stroke:none;">
    <circle cx="22.7503" cy="15.6988" r="0.1500"/>
  </g>
  <g style="fill:#FFFFFF; fill-opacity:1.0000; stroke:none;">
    <circle cx="28.7503" cy="15.6988" r="0.1500"/>
  </g>
  <g style="fill:#FFFFFF; fill-opacity:1.0000; stroke:none;">
    <circle cx="36.5503" cy="27.8988" r="0.1500"/>
  </g>
  <g style="fill:#FFFFFF; fill-opacity:1.0000; stroke:none;">
    <circle cx="16.7503" cy="15.6988" r="0.1500"/>
  </g>
  <g style="fill:#FFFFFF; fill-opacity:1.0000; stroke:none;">
    <circle cx="22.7503" cy="36.4988" r="0.1500"/>
  </g>
  <g style="fill:#FFFFFF; fill-opacity:1.0000; stroke:none;">
    <circle cx="22.7503" cy="26.0988" r="0.1500"/>
  </g>
  <g style="fill:#FFFFFF; fill-opacity:1.0000; stroke:none;">
    <circle cx="28.7503" cy="36.3988" r="0.1500"/>
  </g>
  <g style="fill:#FFFFFF; fill-opacity:1.0000; stroke:none;">
    <circle cx="17.3503" cy="31.4988" r="0.1500"/>
  </g>
  <g style="fill:#FFFFFF; fill-opacity:1.0000; stroke:none;">
    <circle cx="10.7503" cy="26.0988" r="0.1500"/>
  </g>
  <g style="fill:#FFFFFF; fill-opacity:1.0000; stroke:none;">
    <circle cx="19.7503" cy="10.3988" r="0.1500"/>
  </g>
  <g style="fill:#FFFFFF; fill-opacity:1.0000; stroke:none;">
    <circle cx="31.7503" cy="31.2988" r="0.1500"/>
  </g>
  <g style="fill:#FFFFFF; fill-opacity:1.0000; stroke:none;">
    <circle cx="19.7503" cy="31.2988" r="0.1500"/>
  </g>
  <g style="fill:#FFFFFF; fill-opacity:1.0000; stroke:none;">
    <circle cx="25.7503" cy="20.8988" r="0.1500"/>
  </g>
  <g style="fill:#FFFFFF; fill-opacity:1.0000; stroke:none;">
    <circle cx="25.7503" cy="10.4988" r="0.1500"/>
  </g>
  <g style="fill:#FFFFFF; fill-opacity:1.0000; stroke:none;">
    <circle cx="13.7503" cy="31.2988" r="0.1500"/>
  </g>
  <g style="fill:#FFFFFF; fill-opacity:1.0000; stroke:none;">
    <circle cx="37.7503" cy="31.2988" r="0.1500"/>
  </g>
  <g style="fill:#FFFFFF; fill-opacity:1.0000; stroke:none;">
    <circle cx="7.7503" cy="31.2988" r="0.1500"/>
  </g>
  <g style="fill:#FFFFFF; fill-opacity:1.0000; stroke:none;">
    <circle cx="19.7503" cy="20.8988" r="0.1500"/>
  </g>
  <g style="fill:#FFFFFF; fill-opacity:1.0000; stroke:none;">
    <circle cx="13.7503" cy="20.8988" r="0.1500"/>
  </g>
  <g style="fill:#FFFFFF; fill-opacity:1.0000; stroke:none;">
    <circle cx="31.7503" cy="20.8988" r="0.1500"/>
  </g>
  <g style="fill:#FFFFFF; fill-opacity:1.0000; stroke:none;">
    <circle cx="25.7503" cy="31.2988" r="0.1500"/>
  </g>
  <g style="fill:#FFFFFF; fill-opacity:1.0000; stroke:none;">
    <circle cx="6.1226" cy="33.5988" r="0.1500"/>
  </g>
  <g style="fill:#FFFFFF; fill-opacity:1.0000; stroke:none;">
    <circle cx="24.6503" cy="4.9988" r="0.1500"/>
  </g>
  <g style="fill:#FFFFFF; fill-opacity:1.0000; stroke:none;">
    <circle cx="17.8503" cy="17.7988" r="0.1500"/>
  </g>
  <g style="fill:#FFFFFF; fill-opacity:1.0000; stroke:none;">
    <circle cx="7.7503" cy="34.7590" r="0.3810"/>
  </g>
  <g style="fill:#FFFFFF; fill-opacity:1.0000; stroke:none;">
    <circle cx="34.7503" cy="29.5629" r="0.3810"/>
  </g>
  <g style="fill:#FFFFFF; fill-opacity:1.0000; stroke:none;">
    <circle cx="22.7503" cy="8.7782" r="0.3810"/>
  </g>
  <g style="fill:#FFFFFF; fill-opacity:1.0000; stroke:none;">
    <circle cx="31.7503" cy="34.7590" r="0.3810"/>
  </g>
  <g style="fill:#FFFFFF; fill-opacity:1.0000; stroke:none;">
    <circle cx="25.7503" cy="13.9744" r="0.3810"/>
  </g>
  <g style="fill:#FFFFFF; fill-opacity:1.0000; stroke:none;">
    <circle cx="13.7503" cy="34.7590" r="0.3810"/>
  </g>
  <g style="fill:#FFFFFF; fill-opacity:1.0000; stroke:none;">
    <circle cx="10.7503" cy="29.5629" r="0.3810"/>
  </g>
  <g style="fill:#FFFFFF; fill-opacity:1.0000; stroke:none;">
    <circle cx="19.7503" cy="13.9744" r="0.3810"/>
  </g>
</svg>
