<?xml version='1.0' encoding='UTF-8'?>
<!DOCTYPE svg PUBLIC "-//W3C//DTD SVG 1.1//EN" "http://www.w3.org/Graphics/SVG/1.1/DTD/svg11.dtd">
<svg xmlns:svg="http://www.w3.org/2000/svg" xmlns="http://www.w3.org/2000/svg" xmlns:xlink="http://www.w3.org/1999/xlink" version="1.1" width="1069.3654mm" height="565.6834mm" viewBox="0.0000 0.0000 1069.3654 565.6834">
  <title>SVG Image created as Plato_A2-Edge_Cuts.svg date 2024/05/02 01:56:59 </title>
  <desc>Image generated by PCBNEW </desc>
  <g style="fill:#000000; fill-opacity:1.0000;stroke:#000000; stroke-opacity:1.0000; stroke-linecap:round; stroke-linejoin:round;" transform="translate(0 0) scale(1 1)">
</g>
  <g style="fill:none;  stroke:#000000; stroke-width:0.2000; stroke-opacity:1;  stroke-linecap:round; stroke-linejoin:round;">
    <path d="M23.3541 0.3016 L23.4305 0.3657 "/>
    <path d="M22.5036 0.1297 L22.6013 0.1099 "/>
    <path d="M0.1149 38.7724 L0.1025 38.6735 "/>
    <path d="M22.6013 0.1099 L22.7005 0.1000 "/>
    <path d="M22.0005 0.4371 L22.0702 0.3657 "/>
    <path d="M0.1248 38.3762 L0.1518 38.2803 "/>
    <path d="M45.3489 38.2803 L45.3759 38.3762 "/>
    <path d="M44.6957 39.5543 L44.5991 39.5789 "/>
    <path d="M0.3838 39.2970 L0.3179 39.2222 "/>
    <path d="M0.2098 39.0550 L0.1688 38.9641 "/>
    <path d="M0.8049 39.5543 L0.7113 39.5202 "/>
    <path d="M22.8002 0.1000 L22.8994 0.1099 "/>
    <path d="M23.0923 0.1591 L23.1842 0.1978 "/>
    <path d="M0.3179 39.2222 L0.2597 39.1413 "/>
    <path d="M0.1518 38.2803 L0.1882 38.1875 "/>
    <path d="M44.8792 39.4770 L44.7894 39.5202 "/>
    <path d="M45.2670 38.0988 L45.3125 38.1875 "/>
    <path d="M45.1168 39.2970 L45.0437 39.3648 "/>
    <path d="M22.8994 0.1099 L22.9971 0.1297 "/>
    <path d="M45.3636 38.8696 L45.3318 38.9641 "/>
    <path d="M1.0997 39.5988 L1.0001 39.5938 "/>
    <path d="M0.7113 39.5202 L0.6214 39.4770 "/>
    <path d="M45.2908 39.0550 L45.2410 39.1413 "/>
    <path d="M22.7005 0.1000 L22.8002 0.1000 "/>
    <path d="M45.2410 39.1413 L45.1828 39.2222 "/>
    <path d="M21.9384 0.5150 L22.0005 0.4371 "/>
    <path d="M45.3982 38.6735 L45.3858 38.7724 "/>
    <path d="M0.5364 39.4250 L0.4569 39.3648 "/>
    <path d="M22.0702 0.3657 L22.1465 0.3016 "/>
    <path d="M23.5001 0.4371 L23.5623 0.5150 "/>
    <path d="M0.1025 38.6735 L0.1000 38.5738 "/>
    <path d="M23.6163 0.5988 L45.2670 38.0988 "/>
    <path d="M0.1000 38.5738 L0.1074 38.4744 "/>
    <path d="M23.1842 0.1978 L23.2718 0.2455 "/>
    <path d="M22.3164 0.1978 L22.4083 0.1591 "/>
    <path d="M45.4006 38.5738 L45.3982 38.6735 "/>
    <path d="M45.0437 39.3648 L44.9643 39.4250 "/>
    <path d="M44.4010 39.5988 L1.0997 39.5988 "/>
    <path d="M45.3125 38.1875 L45.3489 38.2803 "/>
    <path d="M45.3759 38.3762 L45.3932 38.4744 "/>
    <path d="M22.9971 0.1297 L23.0923 0.1591 "/>
    <path d="M45.3932 38.4744 L45.4006 38.5738 "/>
    <path d="M0.9015 39.5789 L0.8049 39.5543 "/>
    <path d="M22.2289 0.2455 L22.3164 0.1978 "/>
    <path d="M22.4083 0.1591 L22.5036 0.1297 "/>
    <path d="M44.5991 39.5789 L44.5005 39.5938 "/>
    <path d="M23.4305 0.3657 L23.5001 0.4371 "/>
    <path d="M0.4569 39.3648 L0.3838 39.2970 "/>
    <path d="M21.8843 0.5988 L21.9384 0.5150 "/>
    <path d="M44.5005 39.5938 L44.4010 39.5988 "/>
    <path d="M45.3318 38.9641 L45.2908 39.0550 "/>
    <path d="M44.9643 39.4250 L44.8792 39.4770 "/>
    <path d="M23.5623 0.5150 L23.6163 0.5988 "/>
    <path d="M44.7894 39.5202 L44.6957 39.5543 "/>
    <path d="M0.2597 39.1413 L0.2098 39.0550 "/>
    <path d="M45.1828 39.2222 L45.1168 39.2970 "/>
    <path d="M0.6214 39.4770 L0.5364 39.4250 "/>
    <path d="M0.2337 38.0988 L21.8843 0.5988 "/>
    <path d="M0.1074 38.4744 L0.1248 38.3762 "/>
    <path d="M1.0001 39.5938 L0.9015 39.5789 "/>
    <path d="M22.1465 0.3016 L22.2289 0.2455 "/>
    <path d="M0.1688 38.9641 L0.1371 38.8696 "/>
    <path d="M0.1371 38.8696 L0.1149 38.7724 "/>
    <path d="M23.2718 0.2455 L23.3541 0.3016 "/>
    <path d="M0.1882 38.1875 L0.2337 38.0988 "/>
    <path d="M45.3858 38.7724 L45.3636 38.8696 "/>
  </g>
  <g style="fill:none;  stroke:#000000; stroke-width:0.0500; stroke-opacity:1;  stroke-linecap:round; stroke-linejoin:round;">
    <circle cx="16.7503" cy="29.5629" r="0.5200"/>
    <circle cx="22.7503" cy="29.5629" r="0.5200"/>
    <circle cx="25.7503" cy="24.3667" r="0.5200"/>
    <circle cx="16.7503" cy="19.1706" r="0.5200"/>
    <circle cx="19.7503" cy="24.3667" r="0.5200"/>
    <circle cx="28.7503" cy="29.5629" r="0.5200"/>
    <circle cx="37.7503" cy="34.7590" r="0.5200"/>
    <circle cx="31.7503" cy="24.3667" r="0.5200"/>
    <circle cx="22.7503" cy="19.1706" r="0.5200"/>
    <circle cx="28.7503" cy="19.1706" r="0.5200"/>
    <circle cx="13.7503" cy="24.3667" r="0.5200"/>
    <circle cx="25.7503" cy="34.7590" r="0.5200"/>
    <circle cx="19.7503" cy="34.7590" r="0.5200"/>
  </g>
</svg>
