<?xml version='1.0' encoding='UTF-8'?>
<!DOCTYPE svg PUBLIC "-//W3C//DTD SVG 1.1//EN" "http://www.w3.org/Graphics/SVG/1.1/DTD/svg11.dtd">
<svg xmlns:svg="http://www.w3.org/2000/svg" xmlns="http://www.w3.org/2000/svg" xmlns:xlink="http://www.w3.org/1999/xlink" version="1.1" width="1069.3654mm" height="565.6834mm" viewBox="0.0000 0.0000 1069.3654 565.6834">
  <title>SVG Image created as Plato_A2-B_Silkscreen.svg date 2024/05/02 01:56:59 </title>
  <desc>Image generated by PCBNEW </desc>
  <g style="fill:#000000; fill-opacity:1.0000;stroke:#000000; stroke-opacity:1.0000; stroke-linecap:round; stroke-linejoin:round;" transform="translate(0 0) scale(1 1)">
</g>
  <g style="fill:none;  stroke:#000000; stroke-width:0.1000; stroke-opacity:1;  stroke-linecap:round; stroke-linejoin:round;">
    <g class="stroked-text">
      <desc>+5V</desc>
      <path d="M33.3445 29.6393 L32.5826 29.6393 "/>
      <path d="M32.9636 30.0203 L32.9636 29.2584 "/>
      <path d="M31.6303 29.0203 L32.1064 29.0203 "/>
      <path d="M32.1064 29.0203 L32.1541 29.4965 "/>
      <path d="M32.1541 29.4965 L32.1064 29.4488 "/>
      <path d="M32.1064 29.4488 L32.0112 29.4012 "/>
      <path d="M32.0112 29.4012 L31.7731 29.4012 "/>
      <path d="M31.7731 29.4012 L31.6779 29.4488 "/>
      <path d="M31.6779 29.4488 L31.6303 29.4965 "/>
      <path d="M31.6303 29.4965 L31.5826 29.5917 "/>
      <path d="M31.5826 29.5917 L31.5826 29.8298 "/>
      <path d="M31.5826 29.8298 L31.6303 29.9250 "/>
      <path d="M31.6303 29.9250 L31.6779 29.9727 "/>
      <path d="M31.6779 29.9727 L31.7731 30.0203 "/>
      <path d="M31.7731 30.0203 L32.0112 30.0203 "/>
      <path d="M32.0112 30.0203 L32.1064 29.9727 "/>
      <path d="M32.1064 29.9727 L32.1541 29.9250 "/>
      <path d="M31.2969 29.0203 L30.9636 30.0203 "/>
      <path d="M30.9636 30.0203 L30.6303 29.0203 "/>
    </g>
    <g class="stroked-text">
      <desc>https://github.com/koopero/Plato</desc>
      <path d="M36.0103 27.0812 L36.0103 26.0812 "/>
      <path d="M35.5818 27.0812 L35.5818 26.5574 "/>
      <path d="M35.5818 26.5574 L35.6294 26.4621 "/>
      <path d="M35.6294 26.4621 L35.7246 26.4145 "/>
      <path d="M35.7246 26.4145 L35.8675 26.4145 "/>
      <path d="M35.8675 26.4145 L35.9627 26.4621 "/>
      <path d="M35.9627 26.4621 L36.0103 26.5097 "/>
      <path d="M35.2484 26.4145 L34.8675 26.4145 "/>
      <path d="M35.1056 26.0812 L35.1056 26.9383 "/>
      <path d="M35.1056 26.9383 L35.0579 27.0336 "/>
      <path d="M35.0579 27.0336 L34.9627 27.0812 "/>
      <path d="M34.9627 27.0812 L34.8675 27.0812 "/>
      <path d="M34.6770 26.4145 L34.2960 26.4145 "/>
      <path d="M34.5341 26.0812 L34.5341 26.9383 "/>
      <path d="M34.5341 26.9383 L34.4865 27.0336 "/>
      <path d="M34.4865 27.0336 L34.3913 27.0812 "/>
      <path d="M34.3913 27.0812 L34.2960 27.0812 "/>
      <path d="M33.9627 26.4145 L33.9627 27.4145 "/>
      <path d="M33.9627 26.4621 L33.8675 26.4145 "/>
      <path d="M33.8675 26.4145 L33.6770 26.4145 "/>
      <path d="M33.6770 26.4145 L33.5818 26.4621 "/>
      <path d="M33.5818 26.4621 L33.5341 26.5097 "/>
      <path d="M33.5341 26.5097 L33.4865 26.6050 "/>
      <path d="M33.4865 26.6050 L33.4865 26.8907 "/>
      <path d="M33.4865 26.8907 L33.5341 26.9859 "/>
      <path d="M33.5341 26.9859 L33.5818 27.0336 "/>
      <path d="M33.5818 27.0336 L33.6770 27.0812 "/>
      <path d="M33.6770 27.0812 L33.8675 27.0812 "/>
      <path d="M33.8675 27.0812 L33.9627 27.0336 "/>
      <path d="M33.1056 27.0336 L33.0103 27.0812 "/>
      <path d="M33.0103 27.0812 L32.8198 27.0812 "/>
      <path d="M32.8198 27.0812 L32.7246 27.0336 "/>
      <path d="M32.7246 27.0336 L32.6770 26.9383 "/>
      <path d="M32.6770 26.9383 L32.6770 26.8907 "/>
      <path d="M32.6770 26.8907 L32.7246 26.7955 "/>
      <path d="M32.7246 26.7955 L32.8198 26.7478 "/>
      <path d="M32.8198 26.7478 L32.9627 26.7478 "/>
      <path d="M32.9627 26.7478 L33.0579 26.7002 "/>
      <path d="M33.0579 26.7002 L33.1056 26.6050 "/>
      <path d="M33.1056 26.6050 L33.1056 26.5574 "/>
      <path d="M33.1056 26.5574 L33.0579 26.4621 "/>
      <path d="M33.0579 26.4621 L32.9627 26.4145 "/>
      <path d="M32.9627 26.4145 L32.8198 26.4145 "/>
      <path d="M32.8198 26.4145 L32.7246 26.4621 "/>
      <path d="M32.2484 26.9859 L32.2008 27.0336 "/>
      <path d="M32.2008 27.0336 L32.2484 27.0812 "/>
      <path d="M32.2484 27.0812 L32.2960 27.0336 "/>
      <path d="M32.2960 27.0336 L32.2484 26.9859 "/>
      <path d="M32.2484 26.9859 L32.2484 27.0812 "/>
      <path d="M32.2484 26.4621 L32.2008 26.5097 "/>
      <path d="M32.2008 26.5097 L32.2484 26.5574 "/>
      <path d="M32.2484 26.5574 L32.2960 26.5097 "/>
      <path d="M32.2960 26.5097 L32.2484 26.4621 "/>
      <path d="M32.2484 26.4621 L32.2484 26.5574 "/>
      <path d="M31.0579 26.0336 L31.9151 27.3193 "/>
      <path d="M30.0103 26.0336 L30.8675 27.3193 "/>
      <path d="M29.2484 26.4145 L29.2484 27.2240 "/>
      <path d="M29.2484 27.2240 L29.2960 27.3193 "/>
      <path d="M29.2960 27.3193 L29.3437 27.3669 "/>
      <path d="M29.3437 27.3669 L29.4389 27.4145 "/>
      <path d="M29.4389 27.4145 L29.5818 27.4145 "/>
      <path d="M29.5818 27.4145 L29.6770 27.3669 "/>
      <path d="M29.2484 27.0336 L29.3437 27.0812 "/>
      <path d="M29.3437 27.0812 L29.5341 27.0812 "/>
      <path d="M29.5341 27.0812 L29.6294 27.0336 "/>
      <path d="M29.6294 27.0336 L29.6770 26.9859 "/>
      <path d="M29.6770 26.9859 L29.7246 26.8907 "/>
      <path d="M29.7246 26.8907 L29.7246 26.6050 "/>
      <path d="M29.7246 26.6050 L29.6770 26.5097 "/>
      <path d="M29.6770 26.5097 L29.6294 26.4621 "/>
      <path d="M29.6294 26.4621 L29.5341 26.4145 "/>
      <path d="M29.5341 26.4145 L29.3437 26.4145 "/>
      <path d="M29.3437 26.4145 L29.2484 26.4621 "/>
      <path d="M28.7722 27.0812 L28.7722 26.4145 "/>
      <path d="M28.7722 26.0812 L28.8198 26.1288 "/>
      <path d="M28.8198 26.1288 L28.7722 26.1764 "/>
      <path d="M28.7722 26.1764 L28.7246 26.1288 "/>
      <path d="M28.7246 26.1288 L28.7722 26.0812 "/>
      <path d="M28.7722 26.0812 L28.7722 26.1764 "/>
      <path d="M28.4389 26.4145 L28.0579 26.4145 "/>
      <path d="M28.2960 26.0812 L28.2960 26.9383 "/>
      <path d="M28.2960 26.9383 L28.2484 27.0336 "/>
      <path d="M28.2484 27.0336 L28.1532 27.0812 "/>
      <path d="M28.1532 27.0812 L28.0579 27.0812 "/>
      <path d="M27.7246 27.0812 L27.7246 26.0812 "/>
      <path d="M27.2960 27.0812 L27.2960 26.5574 "/>
      <path d="M27.2960 26.5574 L27.3437 26.4621 "/>
      <path d="M27.3437 26.4621 L27.4389 26.4145 "/>
      <path d="M27.4389 26.4145 L27.5818 26.4145 "/>
      <path d="M27.5818 26.4145 L27.6770 26.4621 "/>
      <path d="M27.6770 26.4621 L27.7246 26.5097 "/>
      <path d="M26.3913 26.4145 L26.3913 27.0812 "/>
      <path d="M26.8198 26.4145 L26.8198 26.9383 "/>
      <path d="M26.8198 26.9383 L26.7722 27.0336 "/>
      <path d="M26.7722 27.0336 L26.6770 27.0812 "/>
      <path d="M26.6770 27.0812 L26.5341 27.0812 "/>
      <path d="M26.5341 27.0812 L26.4389 27.0336 "/>
      <path d="M26.4389 27.0336 L26.3913 26.9859 "/>
      <path d="M25.9151 27.0812 L25.9151 26.0812 "/>
      <path d="M25.9151 26.4621 L25.8198 26.4145 "/>
      <path d="M25.8198 26.4145 L25.6294 26.4145 "/>
      <path d="M25.6294 26.4145 L25.5341 26.4621 "/>
      <path d="M25.5341 26.4621 L25.4865 26.5097 "/>
      <path d="M25.4865 26.5097 L25.4389 26.6050 "/>
      <path d="M25.4389 26.6050 L25.4389 26.8907 "/>
      <path d="M25.4389 26.8907 L25.4865 26.9859 "/>
      <path d="M25.4865 26.9859 L25.5341 27.0336 "/>
      <path d="M25.5341 27.0336 L25.6294 27.0812 "/>
      <path d="M25.6294 27.0812 L25.8198 27.0812 "/>
      <path d="M25.8198 27.0812 L25.9151 27.0336 "/>
      <path d="M25.0103 26.9859 L24.9627 27.0336 "/>
      <path d="M24.9627 27.0336 L25.0103 27.0812 "/>
      <path d="M25.0103 27.0812 L25.0579 27.0336 "/>
      <path d="M25.0579 27.0336 L25.0103 26.9859 "/>
      <path d="M25.0103 26.9859 L25.0103 27.0812 "/>
      <path d="M24.1056 27.0336 L24.2008 27.0812 "/>
      <path d="M24.2008 27.0812 L24.3913 27.0812 "/>
      <path d="M24.3913 27.0812 L24.4865 27.0336 "/>
      <path d="M24.4865 27.0336 L24.5341 26.9859 "/>
      <path d="M24.5341 26.9859 L24.5818 26.8907 "/>
      <path d="M24.5818 26.8907 L24.5818 26.6050 "/>
      <path d="M24.5818 26.6050 L24.5341 26.5097 "/>
      <path d="M24.5341 26.5097 L24.4865 26.4621 "/>
      <path d="M24.4865 26.4621 L24.3913 26.4145 "/>
      <path d="M24.3913 26.4145 L24.2008 26.4145 "/>
      <path d="M24.2008 26.4145 L24.1056 26.4621 "/>
      <path d="M23.5341 27.0812 L23.6294 27.0336 "/>
      <path d="M23.6294 27.0336 L23.6770 26.9859 "/>
      <path d="M23.6770 26.9859 L23.7246 26.8907 "/>
      <path d="M23.7246 26.8907 L23.7246 26.6050 "/>
      <path d="M23.7246 26.6050 L23.6770 26.5097 "/>
      <path d="M23.6770 26.5097 L23.6294 26.4621 "/>
      <path d="M23.6294 26.4621 L23.5341 26.4145 "/>
      <path d="M23.5341 26.4145 L23.3913 26.4145 "/>
      <path d="M23.3913 26.4145 L23.2960 26.4621 "/>
      <path d="M23.2960 26.4621 L23.2484 26.5097 "/>
      <path d="M23.2484 26.5097 L23.2008 26.6050 "/>
      <path d="M23.2008 26.6050 L23.2008 26.8907 "/>
      <path d="M23.2008 26.8907 L23.2484 26.9859 "/>
      <path d="M23.2484 26.9859 L23.2960 27.0336 "/>
      <path d="M23.2960 27.0336 L23.3913 27.0812 "/>
      <path d="M23.3913 27.0812 L23.5341 27.0812 "/>
      <path d="M22.7722 27.0812 L22.7722 26.4145 "/>
      <path d="M22.7722 26.5097 L22.7246 26.4621 "/>
      <path d="M22.7246 26.4621 L22.6294 26.4145 "/>
      <path d="M22.6294 26.4145 L22.4865 26.4145 "/>
      <path d="M22.4865 26.4145 L22.3913 26.4621 "/>
      <path d="M22.3913 26.4621 L22.3437 26.5574 "/>
      <path d="M22.3437 26.5574 L22.3437 27.0812 "/>
      <path d="M22.3437 26.5574 L22.2960 26.4621 "/>
      <path d="M22.2960 26.4621 L22.2008 26.4145 "/>
      <path d="M22.2008 26.4145 L22.0579 26.4145 "/>
      <path d="M22.0579 26.4145 L21.9627 26.4621 "/>
      <path d="M21.9627 26.4621 L21.9151 26.5574 "/>
      <path d="M21.9151 26.5574 L21.9151 27.0812 "/>
      <path d="M20.7246 26.0336 L21.5818 27.3193 "/>
      <path d="M20.3913 27.0812 L20.3913 26.0812 "/>
      <path d="M20.2960 26.7002 L20.0103 27.0812 "/>
      <path d="M20.0103 26.4145 L20.3913 26.7955 "/>
      <path d="M19.4389 27.0812 L19.5341 27.0336 "/>
      <path d="M19.5341 27.0336 L19.5818 26.9859 "/>
      <path d="M19.5818 26.9859 L19.6294 26.8907 "/>
      <path d="M19.6294 26.8907 L19.6294 26.6050 "/>
      <path d="M19.6294 26.6050 L19.5818 26.5097 "/>
      <path d="M19.5818 26.5097 L19.5341 26.4621 "/>
      <path d="M19.5341 26.4621 L19.4389 26.4145 "/>
      <path d="M19.4389 26.4145 L19.2960 26.4145 "/>
      <path d="M19.2960 26.4145 L19.2008 26.4621 "/>
      <path d="M19.2008 26.4621 L19.1532 26.5097 "/>
      <path d="M19.1532 26.5097 L19.1056 26.6050 "/>
      <path d="M19.1056 26.6050 L19.1056 26.8907 "/>
      <path d="M19.1056 26.8907 L19.1532 26.9859 "/>
      <path d="M19.1532 26.9859 L19.2008 27.0336 "/>
      <path d="M19.2008 27.0336 L19.2960 27.0812 "/>
      <path d="M19.2960 27.0812 L19.4389 27.0812 "/>
      <path d="M18.5341 27.0812 L18.6294 27.0336 "/>
      <path d="M18.6294 27.0336 L18.6770 26.9859 "/>
      <path d="M18.6770 26.9859 L18.7246 26.8907 "/>
      <path d="M18.7246 26.8907 L18.7246 26.6050 "/>
      <path d="M18.7246 26.6050 L18.6770 26.5097 "/>
      <path d="M18.6770 26.5097 L18.6294 26.4621 "/>
      <path d="M18.6294 26.4621 L18.5341 26.4145 "/>
      <path d="M18.5341 26.4145 L18.3913 26.4145 "/>
      <path d="M18.3913 26.4145 L18.2960 26.4621 "/>
      <path d="M18.2960 26.4621 L18.2484 26.5097 "/>
      <path d="M18.2484 26.5097 L18.2008 26.6050 "/>
      <path d="M18.2008 26.6050 L18.2008 26.8907 "/>
      <path d="M18.2008 26.8907 L18.2484 26.9859 "/>
      <path d="M18.2484 26.9859 L18.2960 27.0336 "/>
      <path d="M18.2960 27.0336 L18.3913 27.0812 "/>
      <path d="M18.3913 27.0812 L18.5341 27.0812 "/>
      <path d="M17.7722 26.4145 L17.7722 27.4145 "/>
      <path d="M17.7722 26.4621 L17.6770 26.4145 "/>
      <path d="M17.6770 26.4145 L17.4865 26.4145 "/>
      <path d="M17.4865 26.4145 L17.3913 26.4621 "/>
      <path d="M17.3913 26.4621 L17.3437 26.5097 "/>
      <path d="M17.3437 26.5097 L17.2960 26.6050 "/>
      <path d="M17.2960 26.6050 L17.2960 26.8907 "/>
      <path d="M17.2960 26.8907 L17.3437 26.9859 "/>
      <path d="M17.3437 26.9859 L17.3913 27.0336 "/>
      <path d="M17.3913 27.0336 L17.4865 27.0812 "/>
      <path d="M17.4865 27.0812 L17.6770 27.0812 "/>
      <path d="M17.6770 27.0812 L17.7722 27.0336 "/>
      <path d="M16.4865 27.0336 L16.5818 27.0812 "/>
      <path d="M16.5818 27.0812 L16.7722 27.0812 "/>
      <path d="M16.7722 27.0812 L16.8675 27.0336 "/>
      <path d="M16.8675 27.0336 L16.9151 26.9383 "/>
      <path d="M16.9151 26.9383 L16.9151 26.5574 "/>
      <path d="M16.9151 26.5574 L16.8675 26.4621 "/>
      <path d="M16.8675 26.4621 L16.7722 26.4145 "/>
      <path d="M16.7722 26.4145 L16.5818 26.4145 "/>
      <path d="M16.5818 26.4145 L16.4865 26.4621 "/>
      <path d="M16.4865 26.4621 L16.4389 26.5574 "/>
      <path d="M16.4389 26.5574 L16.4389 26.6526 "/>
      <path d="M16.4389 26.6526 L16.9151 26.7478 "/>
      <path d="M16.0103 27.0812 L16.0103 26.4145 "/>
      <path d="M16.0103 26.6050 L15.9627 26.5097 "/>
      <path d="M15.9627 26.5097 L15.9151 26.4621 "/>
      <path d="M15.9151 26.4621 L15.8198 26.4145 "/>
      <path d="M15.8198 26.4145 L15.7246 26.4145 "/>
      <path d="M15.2484 27.0812 L15.3437 27.0336 "/>
      <path d="M15.3437 27.0336 L15.3913 26.9859 "/>
      <path d="M15.3913 26.9859 L15.4389 26.8907 "/>
      <path d="M15.4389 26.8907 L15.4389 26.6050 "/>
      <path d="M15.4389 26.6050 L15.3913 26.5097 "/>
      <path d="M15.3913 26.5097 L15.3437 26.4621 "/>
      <path d="M15.3437 26.4621 L15.2484 26.4145 "/>
      <path d="M15.2484 26.4145 L15.1056 26.4145 "/>
      <path d="M15.1056 26.4145 L15.0103 26.4621 "/>
      <path d="M15.0103 26.4621 L14.9627 26.5097 "/>
      <path d="M14.9627 26.5097 L14.9151 26.6050 "/>
      <path d="M14.9151 26.6050 L14.9151 26.8907 "/>
      <path d="M14.9151 26.8907 L14.9627 26.9859 "/>
      <path d="M14.9627 26.9859 L15.0103 27.0336 "/>
      <path d="M15.0103 27.0336 L15.1056 27.0812 "/>
      <path d="M15.1056 27.0812 L15.2484 27.0812 "/>
      <path d="M13.7722 26.0336 L14.6294 27.3193 "/>
      <path d="M13.4389 27.0812 L13.4389 26.0812 "/>
      <path d="M13.4389 26.0812 L13.0579 26.0812 "/>
      <path d="M13.0579 26.0812 L12.9627 26.1288 "/>
      <path d="M12.9627 26.1288 L12.9151 26.1764 "/>
      <path d="M12.9151 26.1764 L12.8675 26.2717 "/>
      <path d="M12.8675 26.2717 L12.8675 26.4145 "/>
      <path d="M12.8675 26.4145 L12.9151 26.5097 "/>
      <path d="M12.9151 26.5097 L12.9627 26.5574 "/>
      <path d="M12.9627 26.5574 L13.0579 26.6050 "/>
      <path d="M13.0579 26.6050 L13.4389 26.6050 "/>
      <path d="M12.2960 27.0812 L12.3913 27.0336 "/>
      <path d="M12.3913 27.0336 L12.4389 26.9383 "/>
      <path d="M12.4389 26.9383 L12.4389 26.0812 "/>
      <path d="M11.4865 27.0812 L11.4865 26.5574 "/>
      <path d="M11.4865 26.5574 L11.5341 26.4621 "/>
      <path d="M11.5341 26.4621 L11.6294 26.4145 "/>
      <path d="M11.6294 26.4145 L11.8198 26.4145 "/>
      <path d="M11.8198 26.4145 L11.9151 26.4621 "/>
      <path d="M11.4865 27.0336 L11.5818 27.0812 "/>
      <path d="M11.5818 27.0812 L11.8198 27.0812 "/>
      <path d="M11.8198 27.0812 L11.9151 27.0336 "/>
      <path d="M11.9151 27.0336 L11.9627 26.9383 "/>
      <path d="M11.9627 26.9383 L11.9627 26.8431 "/>
      <path d="M11.9627 26.8431 L11.9151 26.7478 "/>
      <path d="M11.9151 26.7478 L11.8198 26.7002 "/>
      <path d="M11.8198 26.7002 L11.5818 26.7002 "/>
      <path d="M11.5818 26.7002 L11.4865 26.6526 "/>
      <path d="M11.1532 26.4145 L10.7722 26.4145 "/>
      <path d="M11.0103 26.0812 L11.0103 26.9383 "/>
      <path d="M11.0103 26.9383 L10.9627 27.0336 "/>
      <path d="M10.9627 27.0336 L10.8675 27.0812 "/>
      <path d="M10.8675 27.0812 L10.7722 27.0812 "/>
      <path d="M10.2960 27.0812 L10.3913 27.0336 "/>
      <path d="M10.3913 27.0336 L10.4389 26.9859 "/>
      <path d="M10.4389 26.9859 L10.4865 26.8907 "/>
      <path d="M10.4865 26.8907 L10.4865 26.6050 "/>
      <path d="M10.4865 26.6050 L10.4389 26.5097 "/>
      <path d="M10.4389 26.5097 L10.3913 26.4621 "/>
      <path d="M10.3913 26.4621 L10.2960 26.4145 "/>
      <path d="M10.2960 26.4145 L10.1532 26.4145 "/>
      <path d="M10.1532 26.4145 L10.0579 26.4621 "/>
      <path d="M10.0579 26.4621 L10.0103 26.5097 "/>
      <path d="M10.0103 26.5097 L9.9627 26.6050 "/>
      <path d="M9.9627 26.6050 L9.9627 26.8907 "/>
      <path d="M9.9627 26.8907 L10.0103 26.9859 "/>
      <path d="M10.0103 26.9859 L10.0579 27.0336 "/>
      <path d="M10.0579 27.0336 L10.1532 27.0812 "/>
      <path d="M10.1532 27.0812 L10.2960 27.0812 "/>
    </g>
    <g class="stroked-text">
      <desc>GND</desc>
      <path d="M26.4226 15.5188 L26.5179 15.4712 "/>
      <path d="M26.5179 15.4712 L26.6607 15.4712 "/>
      <path d="M26.6607 15.4712 L26.8036 15.5188 "/>
      <path d="M26.8036 15.5188 L26.8988 15.6140 "/>
      <path d="M26.8988 15.6140 L26.9464 15.7093 "/>
      <path d="M26.9464 15.7093 L26.9941 15.8997 "/>
      <path d="M26.9941 15.8997 L26.9941 16.0426 "/>
      <path d="M26.9941 16.0426 L26.9464 16.2331 "/>
      <path d="M26.9464 16.2331 L26.8988 16.3283 "/>
      <path d="M26.8988 16.3283 L26.8036 16.4236 "/>
      <path d="M26.8036 16.4236 L26.6607 16.4712 "/>
      <path d="M26.6607 16.4712 L26.5655 16.4712 "/>
      <path d="M26.5655 16.4712 L26.4226 16.4236 "/>
      <path d="M26.4226 16.4236 L26.3750 16.3759 "/>
      <path d="M26.3750 16.3759 L26.3750 16.0426 "/>
      <path d="M26.3750 16.0426 L26.5655 16.0426 "/>
      <path d="M25.9464 16.4712 L25.9464 15.4712 "/>
      <path d="M25.9464 15.4712 L25.3750 16.4712 "/>
      <path d="M25.3750 16.4712 L25.3750 15.4712 "/>
      <path d="M24.8988 16.4712 L24.8988 15.4712 "/>
      <path d="M24.8988 15.4712 L24.6607 15.4712 "/>
      <path d="M24.6607 15.4712 L24.5179 15.5188 "/>
      <path d="M24.5179 15.5188 L24.4226 15.6140 "/>
      <path d="M24.4226 15.6140 L24.3750 15.7093 "/>
      <path d="M24.3750 15.7093 L24.3274 15.8997 "/>
      <path d="M24.3274 15.8997 L24.3274 16.0426 "/>
      <path d="M24.3274 16.0426 L24.3750 16.2331 "/>
      <path d="M24.3750 16.2331 L24.4226 16.3283 "/>
      <path d="M24.4226 16.3283 L24.5179 16.4236 "/>
      <path d="M24.5179 16.4236 L24.6607 16.4712 "/>
      <path d="M24.6607 16.4712 L24.8988 16.4712 "/>
    </g>
    <g class="stroked-text">
      <desc>DIN</desc>
      <path d="M23.7741 11.1712 L23.7741 10.1712 "/>
      <path d="M23.7741 10.1712 L23.5360 10.1712 "/>
      <path d="M23.5360 10.1712 L23.3932 10.2188 "/>
      <path d="M23.3932 10.2188 L23.2979 10.3140 "/>
      <path d="M23.2979 10.3140 L23.2503 10.4093 "/>
      <path d="M23.2503 10.4093 L23.2027 10.5997 "/>
      <path d="M23.2027 10.5997 L23.2027 10.7426 "/>
      <path d="M23.2027 10.7426 L23.2503 10.9331 "/>
      <path d="M23.2503 10.9331 L23.2979 11.0283 "/>
      <path d="M23.2979 11.0283 L23.3932 11.1236 "/>
      <path d="M23.3932 11.1236 L23.5360 11.1712 "/>
      <path d="M23.5360 11.1712 L23.7741 11.1712 "/>
      <path d="M22.7741 11.1712 L22.7741 10.1712 "/>
      <path d="M22.2979 11.1712 L22.2979 10.1712 "/>
      <path d="M22.2979 10.1712 L21.7265 11.1712 "/>
      <path d="M21.7265 11.1712 L21.7265 10.1712 "/>
    </g>
    <g class="stroked-text">
      <desc>DOUT</desc>
      <path d="M9.8068 33.2654 L9.8068 32.2654 "/>
      <path d="M9.8068 32.2654 L9.5687 32.2654 "/>
      <path d="M9.5687 32.2654 L9.4259 32.3130 "/>
      <path d="M9.4259 32.3130 L9.3306 32.4083 "/>
      <path d="M9.3306 32.4083 L9.2830 32.5035 "/>
      <path d="M9.2830 32.5035 L9.2354 32.6940 "/>
      <path d="M9.2354 32.6940 L9.2354 32.8368 "/>
      <path d="M9.2354 32.8368 L9.2830 33.0273 "/>
      <path d="M9.2830 33.0273 L9.3306 33.1225 "/>
      <path d="M9.3306 33.1225 L9.4259 33.2178 "/>
      <path d="M9.4259 33.2178 L9.5687 33.2654 "/>
      <path d="M9.5687 33.2654 L9.8068 33.2654 "/>
      <path d="M8.6163 32.2654 L8.4259 32.2654 "/>
      <path d="M8.4259 32.2654 L8.3306 32.3130 "/>
      <path d="M8.3306 32.3130 L8.2354 32.4083 "/>
      <path d="M8.2354 32.4083 L8.1878 32.5987 "/>
      <path d="M8.1878 32.5987 L8.1878 32.9321 "/>
      <path d="M8.1878 32.9321 L8.2354 33.1225 "/>
      <path d="M8.2354 33.1225 L8.3306 33.2178 "/>
      <path d="M8.3306 33.2178 L8.4259 33.2654 "/>
      <path d="M8.4259 33.2654 L8.6163 33.2654 "/>
      <path d="M8.6163 33.2654 L8.7116 33.2178 "/>
      <path d="M8.7116 33.2178 L8.8068 33.1225 "/>
      <path d="M8.8068 33.1225 L8.8544 32.9321 "/>
      <path d="M8.8544 32.9321 L8.8544 32.5987 "/>
      <path d="M8.8544 32.5987 L8.8068 32.4083 "/>
      <path d="M8.8068 32.4083 L8.7116 32.3130 "/>
      <path d="M8.7116 32.3130 L8.6163 32.2654 "/>
      <path d="M7.7592 32.2654 L7.7592 33.0749 "/>
      <path d="M7.7592 33.0749 L7.7116 33.1702 "/>
      <path d="M7.7116 33.1702 L7.6640 33.2178 "/>
      <path d="M7.6640 33.2178 L7.5687 33.2654 "/>
      <path d="M7.5687 33.2654 L7.3783 33.2654 "/>
      <path d="M7.3783 33.2654 L7.2830 33.2178 "/>
      <path d="M7.2830 33.2178 L7.2354 33.1702 "/>
      <path d="M7.2354 33.1702 L7.1878 33.0749 "/>
      <path d="M7.1878 33.0749 L7.1878 32.2654 "/>
      <path d="M6.8544 32.2654 L6.2830 32.2654 "/>
      <path d="M6.5687 33.2654 L6.5687 32.2654 "/>
    </g>
    <g class="stroked-text">
      <desc>Plato_A2</desc>
      <path d="M28.5803 22.6088 L28.5803 20.6088 "/>
      <path d="M28.5803 20.6088 L27.8184 20.6088 "/>
      <path d="M27.8184 20.6088 L27.6279 20.7040 "/>
      <path d="M27.6279 20.7040 L27.5327 20.7993 "/>
      <path d="M27.5327 20.7993 L27.4375 20.9897 "/>
      <path d="M27.4375 20.9897 L27.4375 21.2755 "/>
      <path d="M27.4375 21.2755 L27.5327 21.4659 "/>
      <path d="M27.5327 21.4659 L27.6279 21.5612 "/>
      <path d="M27.6279 21.5612 L27.8184 21.6564 "/>
      <path d="M27.8184 21.6564 L28.5803 21.6564 "/>
      <path d="M26.2946 22.6088 L26.4851 22.5136 "/>
      <path d="M26.4851 22.5136 L26.5803 22.3231 "/>
      <path d="M26.5803 22.3231 L26.5803 20.6088 "/>
      <path d="M24.6756 22.6088 L24.6756 21.5612 "/>
      <path d="M24.6756 21.5612 L24.7708 21.3707 "/>
      <path d="M24.7708 21.3707 L24.9613 21.2755 "/>
      <path d="M24.9613 21.2755 L25.3422 21.2755 "/>
      <path d="M25.3422 21.2755 L25.5327 21.3707 "/>
      <path d="M24.6756 22.5136 L24.8660 22.6088 "/>
      <path d="M24.8660 22.6088 L25.3422 22.6088 "/>
      <path d="M25.3422 22.6088 L25.5327 22.5136 "/>
      <path d="M25.5327 22.5136 L25.6279 22.3231 "/>
      <path d="M25.6279 22.3231 L25.6279 22.1326 "/>
      <path d="M25.6279 22.1326 L25.5327 21.9421 "/>
      <path d="M25.5327 21.9421 L25.3422 21.8469 "/>
      <path d="M25.3422 21.8469 L24.8660 21.8469 "/>
      <path d="M24.8660 21.8469 L24.6756 21.7517 "/>
      <path d="M24.0089 21.2755 L23.2470 21.2755 "/>
      <path d="M23.7232 20.6088 L23.7232 22.3231 "/>
      <path d="M23.7232 22.3231 L23.6279 22.5136 "/>
      <path d="M23.6279 22.5136 L23.4375 22.6088 "/>
      <path d="M23.4375 22.6088 L23.2470 22.6088 "/>
      <path d="M22.2946 22.6088 L22.4851 22.5136 "/>
      <path d="M22.4851 22.5136 L22.5803 22.4183 "/>
      <path d="M22.5803 22.4183 L22.6756 22.2278 "/>
      <path d="M22.6756 22.2278 L22.6756 21.6564 "/>
      <path d="M22.6756 21.6564 L22.5803 21.4659 "/>
      <path d="M22.5803 21.4659 L22.4851 21.3707 "/>
      <path d="M22.4851 21.3707 L22.2946 21.2755 "/>
      <path d="M22.2946 21.2755 L22.0089 21.2755 "/>
      <path d="M22.0089 21.2755 L21.8184 21.3707 "/>
      <path d="M21.8184 21.3707 L21.7232 21.4659 "/>
      <path d="M21.7232 21.4659 L21.6279 21.6564 "/>
      <path d="M21.6279 21.6564 L21.6279 22.2278 "/>
      <path d="M21.6279 22.2278 L21.7232 22.4183 "/>
      <path d="M21.7232 22.4183 L21.8184 22.5136 "/>
      <path d="M21.8184 22.5136 L22.0089 22.6088 "/>
      <path d="M22.0089 22.6088 L22.2946 22.6088 "/>
      <path d="M21.2470 22.7993 L19.7232 22.7993 "/>
      <path d="M19.3422 22.0374 L18.3898 22.0374 "/>
      <path d="M19.5327 22.6088 L18.8660 20.6088 "/>
      <path d="M18.8660 20.6088 L18.1994 22.6088 "/>
      <path d="M17.6279 20.7993 L17.5327 20.7040 "/>
      <path d="M17.5327 20.7040 L17.3422 20.6088 "/>
      <path d="M17.3422 20.6088 L16.8660 20.6088 "/>
      <path d="M16.8660 20.6088 L16.6756 20.7040 "/>
      <path d="M16.6756 20.7040 L16.5803 20.7993 "/>
      <path d="M16.5803 20.7993 L16.4851 20.9897 "/>
      <path d="M16.4851 20.9897 L16.4851 21.1802 "/>
      <path d="M16.4851 21.1802 L16.5803 21.4659 "/>
      <path d="M16.5803 21.4659 L17.7232 22.6088 "/>
      <path d="M17.7232 22.6088 L16.4851 22.6088 "/>
    </g>
    <g class="stroked-text">
      <desc>+5V</desc>
      <path d="M17.8064 34.8702 L17.0445 34.8702 "/>
      <path d="M17.4255 35.2512 L17.4255 34.4893 "/>
      <path d="M16.0922 34.2512 L16.5683 34.2512 "/>
      <path d="M16.5683 34.2512 L16.6160 34.7274 "/>
      <path d="M16.6160 34.7274 L16.5683 34.6797 "/>
      <path d="M16.5683 34.6797 L16.4731 34.6321 "/>
      <path d="M16.4731 34.6321 L16.2350 34.6321 "/>
      <path d="M16.2350 34.6321 L16.1398 34.6797 "/>
      <path d="M16.1398 34.6797 L16.0922 34.7274 "/>
      <path d="M16.0922 34.7274 L16.0445 34.8226 "/>
      <path d="M16.0445 34.8226 L16.0445 35.0607 "/>
      <path d="M16.0445 35.0607 L16.0922 35.1559 "/>
      <path d="M16.0922 35.1559 L16.1398 35.2036 "/>
      <path d="M16.1398 35.2036 L16.2350 35.2512 "/>
      <path d="M16.2350 35.2512 L16.4731 35.2512 "/>
      <path d="M16.4731 35.2512 L16.5683 35.2036 "/>
      <path d="M16.5683 35.2036 L16.6160 35.1559 "/>
      <path d="M15.7588 34.2512 L15.4255 35.2512 "/>
      <path d="M15.4255 35.2512 L15.0922 34.2512 "/>
    </g>
    <g class="stroked-text">
      <desc>GND</desc>
      <path d="M14.5026 29.1488 L14.5979 29.1012 "/>
      <path d="M14.5979 29.1012 L14.7407 29.1012 "/>
      <path d="M14.7407 29.1012 L14.8836 29.1488 "/>
      <path d="M14.8836 29.1488 L14.9788 29.2440 "/>
      <path d="M14.9788 29.2440 L15.0264 29.3393 "/>
      <path d="M15.0264 29.3393 L15.0741 29.5297 "/>
      <path d="M15.0741 29.5297 L15.0741 29.6726 "/>
      <path d="M15.0741 29.6726 L15.0264 29.8631 "/>
      <path d="M15.0264 29.8631 L14.9788 29.9583 "/>
      <path d="M14.9788 29.9583 L14.8836 30.0536 "/>
      <path d="M14.8836 30.0536 L14.7407 30.1012 "/>
      <path d="M14.7407 30.1012 L14.6455 30.1012 "/>
      <path d="M14.6455 30.1012 L14.5026 30.0536 "/>
      <path d="M14.5026 30.0536 L14.4550 30.0059 "/>
      <path d="M14.4550 30.0059 L14.4550 29.6726 "/>
      <path d="M14.4550 29.6726 L14.6455 29.6726 "/>
      <path d="M14.0264 30.1012 L14.0264 29.1012 "/>
      <path d="M14.0264 29.1012 L13.4550 30.1012 "/>
      <path d="M13.4550 30.1012 L13.4550 29.1012 "/>
      <path d="M12.9788 30.1012 L12.9788 29.1012 "/>
      <path d="M12.9788 29.1012 L12.7407 29.1012 "/>
      <path d="M12.7407 29.1012 L12.5979 29.1488 "/>
      <path d="M12.5979 29.1488 L12.5026 29.2440 "/>
      <path d="M12.5026 29.2440 L12.4550 29.3393 "/>
      <path d="M12.4550 29.3393 L12.4074 29.5297 "/>
      <path d="M12.4074 29.5297 L12.4074 29.6726 "/>
      <path d="M12.4074 29.6726 L12.4550 29.8631 "/>
      <path d="M12.4550 29.8631 L12.5026 29.9583 "/>
      <path d="M12.5026 29.9583 L12.5979 30.0536 "/>
      <path d="M12.5979 30.0536 L12.7407 30.1012 "/>
      <path d="M12.7407 30.1012 L12.9788 30.1012 "/>
    </g>
    <g class="stroked-text">
      <desc>GND</desc>
      <path d="M29.1226 34.4038 L29.2179 34.3562 "/>
      <path d="M29.2179 34.3562 L29.3607 34.3562 "/>
      <path d="M29.3607 34.3562 L29.5036 34.4038 "/>
      <path d="M29.5036 34.4038 L29.5988 34.4990 "/>
      <path d="M29.5988 34.4990 L29.6464 34.5943 "/>
      <path d="M29.6464 34.5943 L29.6941 34.7847 "/>
      <path d="M29.6941 34.7847 L29.6941 34.9276 "/>
      <path d="M29.6941 34.9276 L29.6464 35.1181 "/>
      <path d="M29.6464 35.1181 L29.5988 35.2133 "/>
      <path d="M29.5988 35.2133 L29.5036 35.3086 "/>
      <path d="M29.5036 35.3086 L29.3607 35.3562 "/>
      <path d="M29.3607 35.3562 L29.2655 35.3562 "/>
      <path d="M29.2655 35.3562 L29.1226 35.3086 "/>
      <path d="M29.1226 35.3086 L29.0750 35.2609 "/>
      <path d="M29.0750 35.2609 L29.0750 34.9276 "/>
      <path d="M29.0750 34.9276 L29.2655 34.9276 "/>
      <path d="M28.6464 35.3562 L28.6464 34.3562 "/>
      <path d="M28.6464 34.3562 L28.0750 35.3562 "/>
      <path d="M28.0750 35.3562 L28.0750 34.3562 "/>
      <path d="M27.5988 35.3562 L27.5988 34.3562 "/>
      <path d="M27.5988 34.3562 L27.3607 34.3562 "/>
      <path d="M27.3607 34.3562 L27.2179 34.4038 "/>
      <path d="M27.2179 34.4038 L27.1226 34.4990 "/>
      <path d="M27.1226 34.4990 L27.0750 34.5943 "/>
      <path d="M27.0750 34.5943 L27.0274 34.7847 "/>
      <path d="M27.0274 34.7847 L27.0274 34.9276 "/>
      <path d="M27.0274 34.9276 L27.0750 35.1181 "/>
      <path d="M27.0750 35.1181 L27.1226 35.2133 "/>
      <path d="M27.1226 35.2133 L27.2179 35.3086 "/>
      <path d="M27.2179 35.3086 L27.3607 35.3562 "/>
      <path d="M27.3607 35.3562 L27.5988 35.3562 "/>
    </g>
    <g class="stroked-text">
      <desc>+5V</desc>
      <path d="M21.0464 16.1902 L20.2845 16.1902 "/>
      <path d="M20.6655 16.5712 L20.6655 15.8093 "/>
      <path d="M19.3322 15.5712 L19.8083 15.5712 "/>
      <path d="M19.8083 15.5712 L19.8560 16.0474 "/>
      <path d="M19.8560 16.0474 L19.8083 15.9997 "/>
      <path d="M19.8083 15.9997 L19.7131 15.9521 "/>
      <path d="M19.7131 15.9521 L19.4750 15.9521 "/>
      <path d="M19.4750 15.9521 L19.3798 15.9997 "/>
      <path d="M19.3798 15.9997 L19.3322 16.0474 "/>
      <path d="M19.3322 16.0474 L19.2845 16.1426 "/>
      <path d="M19.2845 16.1426 L19.2845 16.3807 "/>
      <path d="M19.2845 16.3807 L19.3322 16.4759 "/>
      <path d="M19.3322 16.4759 L19.3798 16.5236 "/>
      <path d="M19.3798 16.5236 L19.4750 16.5712 "/>
      <path d="M19.4750 16.5712 L19.7131 16.5712 "/>
      <path d="M19.7131 16.5712 L19.8083 16.5236 "/>
      <path d="M19.8083 16.5236 L19.8560 16.4759 "/>
      <path d="M18.9988 15.5712 L18.6655 16.5712 "/>
      <path d="M18.6655 16.5712 L18.3322 15.5712 "/>
    </g>
    <g class="stroked-text">
      <desc>JLCJLCJLCJLC</desc>
      <path d="M42.6807 37.5812 L42.6807 38.2955 "/>
      <path d="M42.6807 38.2955 L42.7283 38.4383 "/>
      <path d="M42.7283 38.4383 L42.8236 38.5336 "/>
      <path d="M42.8236 38.5336 L42.9664 38.5812 "/>
      <path d="M42.9664 38.5812 L43.0617 38.5812 "/>
      <path d="M41.7283 38.5812 L42.2045 38.5812 "/>
      <path d="M42.2045 38.5812 L42.2045 37.5812 "/>
      <path d="M40.8236 38.4859 L40.8712 38.5336 "/>
      <path d="M40.8712 38.5336 L41.0141 38.5812 "/>
      <path d="M41.0141 38.5812 L41.1093 38.5812 "/>
      <path d="M41.1093 38.5812 L41.2522 38.5336 "/>
      <path d="M41.2522 38.5336 L41.3474 38.4383 "/>
      <path d="M41.3474 38.4383 L41.3950 38.3431 "/>
      <path d="M41.3950 38.3431 L41.4426 38.1526 "/>
      <path d="M41.4426 38.1526 L41.4426 38.0097 "/>
      <path d="M41.4426 38.0097 L41.3950 37.8193 "/>
      <path d="M41.3950 37.8193 L41.3474 37.7240 "/>
      <path d="M41.3474 37.7240 L41.2522 37.6288 "/>
      <path d="M41.2522 37.6288 L41.1093 37.5812 "/>
      <path d="M41.1093 37.5812 L41.0141 37.5812 "/>
      <path d="M41.0141 37.5812 L40.8712 37.6288 "/>
      <path d="M40.8712 37.6288 L40.8236 37.6764 "/>
      <path d="M40.1093 37.5812 L40.1093 38.2955 "/>
      <path d="M40.1093 38.2955 L40.1569 38.4383 "/>
      <path d="M40.1569 38.4383 L40.2522 38.5336 "/>
      <path d="M40.2522 38.5336 L40.3950 38.5812 "/>
      <path d="M40.3950 38.5812 L40.4902 38.5812 "/>
      <path d="M39.1569 38.5812 L39.6331 38.5812 "/>
      <path d="M39.6331 38.5812 L39.6331 37.5812 "/>
      <path d="M38.2522 38.4859 L38.2998 38.5336 "/>
      <path d="M38.2998 38.5336 L38.4426 38.5812 "/>
      <path d="M38.4426 38.5812 L38.5379 38.5812 "/>
      <path d="M38.5379 38.5812 L38.6807 38.5336 "/>
      <path d="M38.6807 38.5336 L38.7760 38.4383 "/>
      <path d="M38.7760 38.4383 L38.8236 38.3431 "/>
      <path d="M38.8236 38.3431 L38.8712 38.1526 "/>
      <path d="M38.8712 38.1526 L38.8712 38.0097 "/>
      <path d="M38.8712 38.0097 L38.8236 37.8193 "/>
      <path d="M38.8236 37.8193 L38.7760 37.7240 "/>
      <path d="M38.7760 37.7240 L38.6807 37.6288 "/>
      <path d="M38.6807 37.6288 L38.5379 37.5812 "/>
      <path d="M38.5379 37.5812 L38.4426 37.5812 "/>
      <path d="M38.4426 37.5812 L38.2998 37.6288 "/>
      <path d="M38.2998 37.6288 L38.2522 37.6764 "/>
      <path d="M37.5379 37.5812 L37.5379 38.2955 "/>
      <path d="M37.5379 38.2955 L37.5855 38.4383 "/>
      <path d="M37.5855 38.4383 L37.6807 38.5336 "/>
      <path d="M37.6807 38.5336 L37.8236 38.5812 "/>
      <path d="M37.8236 38.5812 L37.9188 38.5812 "/>
      <path d="M36.5855 38.5812 L37.0617 38.5812 "/>
      <path d="M37.0617 38.5812 L37.0617 37.5812 "/>
      <path d="M35.6807 38.4859 L35.7283 38.5336 "/>
      <path d="M35.7283 38.5336 L35.8712 38.5812 "/>
      <path d="M35.8712 38.5812 L35.9664 38.5812 "/>
      <path d="M35.9664 38.5812 L36.1093 38.5336 "/>
      <path d="M36.1093 38.5336 L36.2045 38.4383 "/>
      <path d="M36.2045 38.4383 L36.2522 38.3431 "/>
      <path d="M36.2522 38.3431 L36.2998 38.1526 "/>
      <path d="M36.2998 38.1526 L36.2998 38.0097 "/>
      <path d="M36.2998 38.0097 L36.2522 37.8193 "/>
      <path d="M36.2522 37.8193 L36.2045 37.7240 "/>
      <path d="M36.2045 37.7240 L36.1093 37.6288 "/>
      <path d="M36.1093 37.6288 L35.9664 37.5812 "/>
      <path d="M35.9664 37.5812 L35.8712 37.5812 "/>
      <path d="M35.8712 37.5812 L35.7283 37.6288 "/>
      <path d="M35.7283 37.6288 L35.6807 37.6764 "/>
      <path d="M34.9664 37.5812 L34.9664 38.2955 "/>
      <path d="M34.9664 38.2955 L35.0141 38.4383 "/>
      <path d="M35.0141 38.4383 L35.1093 38.5336 "/>
      <path d="M35.1093 38.5336 L35.2522 38.5812 "/>
      <path d="M35.2522 38.5812 L35.3474 38.5812 "/>
      <path d="M34.0141 38.5812 L34.4902 38.5812 "/>
      <path d="M34.4902 38.5812 L34.4902 37.5812 "/>
      <path d="M33.1093 38.4859 L33.1569 38.5336 "/>
      <path d="M33.1569 38.5336 L33.2998 38.5812 "/>
      <path d="M33.2998 38.5812 L33.3950 38.5812 "/>
      <path d="M33.3950 38.5812 L33.5379 38.5336 "/>
      <path d="M33.5379 38.5336 L33.6331 38.4383 "/>
      <path d="M33.6331 38.4383 L33.6807 38.3431 "/>
      <path d="M33.6807 38.3431 L33.7283 38.1526 "/>
      <path d="M33.7283 38.1526 L33.7283 38.0097 "/>
      <path d="M33.7283 38.0097 L33.6807 37.8193 "/>
      <path d="M33.6807 37.8193 L33.6331 37.7240 "/>
      <path d="M33.6331 37.7240 L33.5379 37.6288 "/>
      <path d="M33.5379 37.6288 L33.3950 37.5812 "/>
      <path d="M33.3950 37.5812 L33.2998 37.5812 "/>
      <path d="M33.2998 37.5812 L33.1569 37.6288 "/>
      <path d="M33.1569 37.6288 L33.1093 37.6764 "/>
    </g>
    <path style="fill:none;  stroke:#000000; stroke-width:0.1000; stroke-opacity:1;  stroke-linecap:round; stroke-linejoin:round;fill:none" d="M 9.1163,35.1250 7.3843,36.1250 6.3843,34.3930 8.1163,33.3930 Z"/>
    <circle cx="34.7503" cy="29.5629" r="1.1019"/>
    <path style="fill:none;  stroke:#000000; stroke-width:0.1000; stroke-opacity:1;  stroke-linecap:round; stroke-linejoin:round;fill:none" d="M 21.7503,7.7782 23.7503,7.7782 23.7503,9.7782 21.7503,9.7782 Z"/>
    <circle cx="31.7503" cy="34.7590" r="1.1019"/>
    <circle cx="25.7503" cy="13.9744" r="1.1019"/>
    <circle cx="13.7503" cy="34.7590" r="1.1019"/>
    <circle cx="10.7503" cy="29.5629" r="1.1019"/>
    <circle cx="19.7503" cy="13.9744" r="1.1019"/>
  </g>
</svg>
