<?xml version="1.0" standalone="no"?>
 <!DOCTYPE svg PUBLIC "-//W3C//DTD SVG 1.1//EN" 
 "http://www.w3.org/Graphics/SVG/1.1/DTD/svg11.dtd"> 
<svg
  xmlns:svg="http://www.w3.org/2000/svg"
  xmlns="http://www.w3.org/2000/svg"
  xmlns:xlink="http://www.w3.org/1999/xlink"
  version="1.1"
  width="1069.3654mm" height="565.6834mm" viewBox="0.0000 0.0000 1069.3654 565.6834">
<title>SVG Image created as Plato_A2-F_Paste.svg date 2024/05/01 23:10:35 </title>
  <desc>Image generated by PCBNEW </desc>
<g style="fill:#000000; fill-opacity:1.0000;stroke:#000000; stroke-opacity:1.0000;
stroke-linecap:round; stroke-linejoin:round;"
 transform="translate(0 0) scale(1 1)">
<path style="fill:#000000; fill-opacity:1.0000; stroke:none;fill-rule:evenodd;"
d="M 3.4853,36.2911
3.4853,35.5911
4.1853,35.5911
4.1853,36.2911
Z" /> 
<path style="fill:#000000; fill-opacity:1.0000; stroke:none;fill-rule:evenodd;"
d="M 3.4853,37.3911
3.4853,36.6911
4.1853,36.6911
4.1853,37.3911
Z" /> 
<path style="fill:#000000; fill-opacity:1.0000; stroke:none;fill-rule:evenodd;"
d="M 5.3153,37.3911
5.3153,36.6911
6.0153,36.6911
6.0153,37.3911
Z" /> 
<path style="fill:#000000; fill-opacity:1.0000; stroke:none;fill-rule:evenodd;"
d="M 5.3153,36.2911
5.3153,35.5911
6.0153,35.5911
6.0153,36.2911
Z" /> 
<path style="fill:#000000; fill-opacity:1.0000; stroke:none;fill-rule:evenodd;"
d="M 9.4853,36.2911
9.4853,35.5911
10.1853,35.5911
10.1853,36.2911
Z" /> 
<path style="fill:#000000; fill-opacity:1.0000; stroke:none;fill-rule:evenodd;"
d="M 9.4853,37.3911
9.4853,36.6911
10.1853,36.6911
10.1853,37.3911
Z" /> 
<path style="fill:#000000; fill-opacity:1.0000; stroke:none;fill-rule:evenodd;"
d="M 11.3153,37.3911
11.3153,36.6911
12.0153,36.6911
12.0153,37.3911
Z" /> 
<path style="fill:#000000; fill-opacity:1.0000; stroke:none;fill-rule:evenodd;"
d="M 11.3153,36.2911
11.3153,35.5911
12.0153,35.5911
12.0153,36.2911
Z" /> 
<path style="fill:#000000; fill-opacity:1.0000; stroke:none;fill-rule:evenodd;"
d="M 15.4853,36.2911
15.4853,35.5911
16.1853,35.5911
16.1853,36.2911
Z" /> 
<path style="fill:#000000; fill-opacity:1.0000; stroke:none;fill-rule:evenodd;"
d="M 15.4853,37.3911
15.4853,36.6911
16.1853,36.6911
16.1853,37.3911
Z" /> 
<path style="fill:#000000; fill-opacity:1.0000; stroke:none;fill-rule:evenodd;"
d="M 17.3153,37.3911
17.3153,36.6911
18.0153,36.6911
18.0153,37.3911
Z" /> 
<path style="fill:#000000; fill-opacity:1.0000; stroke:none;fill-rule:evenodd;"
d="M 17.3153,36.2911
17.3153,35.5911
18.0153,35.5911
18.0153,36.2911
Z" /> 
<path style="fill:#000000; fill-opacity:1.0000; stroke:none;fill-rule:evenodd;"
d="M 21.4853,36.2911
21.4853,35.5911
22.1853,35.5911
22.1853,36.2911
Z" /> 
<path style="fill:#000000; fill-opacity:1.0000; stroke:none;fill-rule:evenodd;"
d="M 21.4853,37.3911
21.4853,36.6911
22.1853,36.6911
22.1853,37.3911
Z" /> 
<path style="fill:#000000; fill-opacity:1.0000; stroke:none;fill-rule:evenodd;"
d="M 23.3153,37.3911
23.3153,36.6911
24.0153,36.6911
24.0153,37.3911
Z" /> 
<path style="fill:#000000; fill-opacity:1.0000; stroke:none;fill-rule:evenodd;"
d="M 23.3153,36.2911
23.3153,35.5911
24.0153,35.5911
24.0153,36.2911
Z" /> 
<path style="fill:#000000; fill-opacity:1.0000; stroke:none;fill-rule:evenodd;"
d="M 27.4853,36.2911
27.4853,35.5911
28.1853,35.5911
28.1853,36.2911
Z" /> 
<path style="fill:#000000; fill-opacity:1.0000; stroke:none;fill-rule:evenodd;"
d="M 27.4853,37.3911
27.4853,36.6911
28.1853,36.6911
28.1853,37.3911
Z" /> 
<path style="fill:#000000; fill-opacity:1.0000; stroke:none;fill-rule:evenodd;"
d="M 29.3153,37.3911
29.3153,36.6911
30.0153,36.6911
30.0153,37.3911
Z" /> 
<path style="fill:#000000; fill-opacity:1.0000; stroke:none;fill-rule:evenodd;"
d="M 29.3153,36.2911
29.3153,35.5911
30.0153,35.5911
30.0153,36.2911
Z" /> 
<path style="fill:#000000; fill-opacity:1.0000; stroke:none;fill-rule:evenodd;"
d="M 33.4853,36.2911
33.4853,35.5911
34.1853,35.5911
34.1853,36.2911
Z" /> 
<path style="fill:#000000; fill-opacity:1.0000; stroke:none;fill-rule:evenodd;"
d="M 33.4853,37.3911
33.4853,36.6911
34.1853,36.6911
34.1853,37.3911
Z" /> 
<path style="fill:#000000; fill-opacity:1.0000; stroke:none;fill-rule:evenodd;"
d="M 35.3153,37.3911
35.3153,36.6911
36.0153,36.6911
36.0153,37.3911
Z" /> 
<path style="fill:#000000; fill-opacity:1.0000; stroke:none;fill-rule:evenodd;"
d="M 35.3153,36.2911
35.3153,35.5911
36.0153,35.5911
36.0153,36.2911
Z" /> 
<path style="fill:#000000; fill-opacity:1.0000; stroke:none;fill-rule:evenodd;"
d="M 39.4853,36.2911
39.4853,35.5911
40.1853,35.5911
40.1853,36.2911
Z" /> 
<path style="fill:#000000; fill-opacity:1.0000; stroke:none;fill-rule:evenodd;"
d="M 39.4853,37.3911
39.4853,36.6911
40.1853,36.6911
40.1853,37.3911
Z" /> 
<path style="fill:#000000; fill-opacity:1.0000; stroke:none;fill-rule:evenodd;"
d="M 41.3153,37.3911
41.3153,36.6911
42.0153,36.6911
42.0153,37.3911
Z" /> 
<path style="fill:#000000; fill-opacity:1.0000; stroke:none;fill-rule:evenodd;"
d="M 41.3153,36.2911
41.3153,35.5911
42.0153,35.5911
42.0153,36.2911
Z" /> 
<path style="fill:#000000; fill-opacity:1.0000; stroke:none;fill-rule:evenodd;"
d="M 39.0153,31.4949
39.0153,32.1949
38.3153,32.1949
38.3153,31.4949
Z" /> 
<path style="fill:#000000; fill-opacity:1.0000; stroke:none;fill-rule:evenodd;"
d="M 39.0153,30.3949
39.0153,31.0949
38.3153,31.0949
38.3153,30.3949
Z" /> 
<path style="fill:#000000; fill-opacity:1.0000; stroke:none;fill-rule:evenodd;"
d="M 37.1853,30.3949
37.1853,31.0949
36.4853,31.0949
36.4853,30.3949
Z" /> 
<path style="fill:#000000; fill-opacity:1.0000; stroke:none;fill-rule:evenodd;"
d="M 37.1853,31.4949
37.1853,32.1949
36.4853,32.1949
36.4853,31.4949
Z" /> 
<path style="fill:#000000; fill-opacity:1.0000; stroke:none;fill-rule:evenodd;"
d="M 33.0153,31.4949
33.0153,32.1949
32.3153,32.1949
32.3153,31.4949
Z" /> 
<path style="fill:#000000; fill-opacity:1.0000; stroke:none;fill-rule:evenodd;"
d="M 33.0153,30.3949
33.0153,31.0949
32.3153,31.0949
32.3153,30.3949
Z" /> 
<path style="fill:#000000; fill-opacity:1.0000; stroke:none;fill-rule:evenodd;"
d="M 31.1853,30.3949
31.1853,31.0949
30.4853,31.0949
30.4853,30.3949
Z" /> 
<path style="fill:#000000; fill-opacity:1.0000; stroke:none;fill-rule:evenodd;"
d="M 31.1853,31.4949
31.1853,32.1949
30.4853,32.1949
30.4853,31.4949
Z" /> 
<path style="fill:#000000; fill-opacity:1.0000; stroke:none;fill-rule:evenodd;"
d="M 27.0153,31.4949
27.0153,32.1949
26.3153,32.1949
26.3153,31.4949
Z" /> 
<path style="fill:#000000; fill-opacity:1.0000; stroke:none;fill-rule:evenodd;"
d="M 27.0153,30.3949
27.0153,31.0949
26.3153,31.0949
26.3153,30.3949
Z" /> 
<path style="fill:#000000; fill-opacity:1.0000; stroke:none;fill-rule:evenodd;"
d="M 25.1853,30.3949
25.1853,31.0949
24.4853,31.0949
24.4853,30.3949
Z" /> 
<path style="fill:#000000; fill-opacity:1.0000; stroke:none;fill-rule:evenodd;"
d="M 25.1853,31.4949
25.1853,32.1949
24.4853,32.1949
24.4853,31.4949
Z" /> 
<path style="fill:#000000; fill-opacity:1.0000; stroke:none;fill-rule:evenodd;"
d="M 21.0153,31.4949
21.0153,32.1949
20.3153,32.1949
20.3153,31.4949
Z" /> 
<path style="fill:#000000; fill-opacity:1.0000; stroke:none;fill-rule:evenodd;"
d="M 21.0153,30.3949
21.0153,31.0949
20.3153,31.0949
20.3153,30.3949
Z" /> 
<path style="fill:#000000; fill-opacity:1.0000; stroke:none;fill-rule:evenodd;"
d="M 19.1853,30.3949
19.1853,31.0949
18.4853,31.0949
18.4853,30.3949
Z" /> 
<path style="fill:#000000; fill-opacity:1.0000; stroke:none;fill-rule:evenodd;"
d="M 19.1853,31.4949
19.1853,32.1949
18.4853,32.1949
18.4853,31.4949
Z" /> 
<path style="fill:#000000; fill-opacity:1.0000; stroke:none;fill-rule:evenodd;"
d="M 15.0153,31.4949
15.0153,32.1949
14.3153,32.1949
14.3153,31.4949
Z" /> 
<path style="fill:#000000; fill-opacity:1.0000; stroke:none;fill-rule:evenodd;"
d="M 15.0153,30.3949
15.0153,31.0949
14.3153,31.0949
14.3153,30.3949
Z" /> 
<path style="fill:#000000; fill-opacity:1.0000; stroke:none;fill-rule:evenodd;"
d="M 13.1853,30.3949
13.1853,31.0949
12.4853,31.0949
12.4853,30.3949
Z" /> 
<path style="fill:#000000; fill-opacity:1.0000; stroke:none;fill-rule:evenodd;"
d="M 13.1853,31.4949
13.1853,32.1949
12.4853,32.1949
12.4853,31.4949
Z" /> 
<path style="fill:#000000; fill-opacity:1.0000; stroke:none;fill-rule:evenodd;"
d="M 9.0153,31.4949
9.0153,32.1949
8.3153,32.1949
8.3153,31.4949
Z" /> 
<path style="fill:#000000; fill-opacity:1.0000; stroke:none;fill-rule:evenodd;"
d="M 9.0153,30.3949
9.0153,31.0949
8.3153,31.0949
8.3153,30.3949
Z" /> 
<path style="fill:#000000; fill-opacity:1.0000; stroke:none;fill-rule:evenodd;"
d="M 7.1853,30.3949
7.1853,31.0949
6.4853,31.0949
6.4853,30.3949
Z" /> 
<path style="fill:#000000; fill-opacity:1.0000; stroke:none;fill-rule:evenodd;"
d="M 7.1853,31.4949
7.1853,32.1949
6.4853,32.1949
6.4853,31.4949
Z" /> 
<path style="fill:#000000; fill-opacity:1.0000; stroke:none;fill-rule:evenodd;"
d="M 9.4853,25.8988
9.4853,25.1988
10.1853,25.1988
10.1853,25.8988
Z" /> 
<path style="fill:#000000; fill-opacity:1.0000; stroke:none;fill-rule:evenodd;"
d="M 9.4853,26.9988
9.4853,26.2988
10.1853,26.2988
10.1853,26.9988
Z" /> 
<path style="fill:#000000; fill-opacity:1.0000; stroke:none;fill-rule:evenodd;"
d="M 11.3153,26.9988
11.3153,26.2988
12.0153,26.2988
12.0153,26.9988
Z" /> 
<path style="fill:#000000; fill-opacity:1.0000; stroke:none;fill-rule:evenodd;"
d="M 11.3153,25.8988
11.3153,25.1988
12.0153,25.1988
12.0153,25.8988
Z" /> 
<path style="fill:#000000; fill-opacity:1.0000; stroke:none;fill-rule:evenodd;"
d="M 15.4853,25.8988
15.4853,25.1988
16.1853,25.1988
16.1853,25.8988
Z" /> 
<path style="fill:#000000; fill-opacity:1.0000; stroke:none;fill-rule:evenodd;"
d="M 15.4853,26.9988
15.4853,26.2988
16.1853,26.2988
16.1853,26.9988
Z" /> 
<path style="fill:#000000; fill-opacity:1.0000; stroke:none;fill-rule:evenodd;"
d="M 17.3153,26.9988
17.3153,26.2988
18.0153,26.2988
18.0153,26.9988
Z" /> 
<path style="fill:#000000; fill-opacity:1.0000; stroke:none;fill-rule:evenodd;"
d="M 17.3153,25.8988
17.3153,25.1988
18.0153,25.1988
18.0153,25.8988
Z" /> 
<path style="fill:#000000; fill-opacity:1.0000; stroke:none;fill-rule:evenodd;"
d="M 21.4853,25.8988
21.4853,25.1988
22.1853,25.1988
22.1853,25.8988
Z" /> 
<path style="fill:#000000; fill-opacity:1.0000; stroke:none;fill-rule:evenodd;"
d="M 21.4853,26.9988
21.4853,26.2988
22.1853,26.2988
22.1853,26.9988
Z" /> 
<path style="fill:#000000; fill-opacity:1.0000; stroke:none;fill-rule:evenodd;"
d="M 23.3153,26.9988
23.3153,26.2988
24.0153,26.2988
24.0153,26.9988
Z" /> 
<path style="fill:#000000; fill-opacity:1.0000; stroke:none;fill-rule:evenodd;"
d="M 23.3153,25.8988
23.3153,25.1988
24.0153,25.1988
24.0153,25.8988
Z" /> 
<path style="fill:#000000; fill-opacity:1.0000; stroke:none;fill-rule:evenodd;"
d="M 27.4853,25.8988
27.4853,25.1988
28.1853,25.1988
28.1853,25.8988
Z" /> 
<path style="fill:#000000; fill-opacity:1.0000; stroke:none;fill-rule:evenodd;"
d="M 27.4853,26.9988
27.4853,26.2988
28.1853,26.2988
28.1853,26.9988
Z" /> 
<path style="fill:#000000; fill-opacity:1.0000; stroke:none;fill-rule:evenodd;"
d="M 29.3153,26.9988
29.3153,26.2988
30.0153,26.2988
30.0153,26.9988
Z" /> 
<path style="fill:#000000; fill-opacity:1.0000; stroke:none;fill-rule:evenodd;"
d="M 29.3153,25.8988
29.3153,25.1988
30.0153,25.1988
30.0153,25.8988
Z" /> 
<path style="fill:#000000; fill-opacity:1.0000; stroke:none;fill-rule:evenodd;"
d="M 33.4853,25.8988
33.4853,25.1988
34.1853,25.1988
34.1853,25.8988
Z" /> 
<path style="fill:#000000; fill-opacity:1.0000; stroke:none;fill-rule:evenodd;"
d="M 33.4853,26.9988
33.4853,26.2988
34.1853,26.2988
34.1853,26.9988
Z" /> 
<path style="fill:#000000; fill-opacity:1.0000; stroke:none;fill-rule:evenodd;"
d="M 35.3153,26.9988
35.3153,26.2988
36.0153,26.2988
36.0153,26.9988
Z" /> 
<path style="fill:#000000; fill-opacity:1.0000; stroke:none;fill-rule:evenodd;"
d="M 35.3153,25.8988
35.3153,25.1988
36.0153,25.1988
36.0153,25.8988
Z" /> 
<path style="fill:#000000; fill-opacity:1.0000; stroke:none;fill-rule:evenodd;"
d="M 33.0153,21.1026
33.0153,21.8026
32.3153,21.8026
32.3153,21.1026
Z" /> 
<path style="fill:#000000; fill-opacity:1.0000; stroke:none;fill-rule:evenodd;"
d="M 33.0153,20.0026
33.0153,20.7026
32.3153,20.7026
32.3153,20.0026
Z" /> 
<path style="fill:#000000; fill-opacity:1.0000; stroke:none;fill-rule:evenodd;"
d="M 31.1853,20.0026
31.1853,20.7026
30.4853,20.7026
30.4853,20.0026
Z" /> 
<path style="fill:#000000; fill-opacity:1.0000; stroke:none;fill-rule:evenodd;"
d="M 31.1853,21.1026
31.1853,21.8026
30.4853,21.8026
30.4853,21.1026
Z" /> 
<path style="fill:#000000; fill-opacity:1.0000; stroke:none;fill-rule:evenodd;"
d="M 27.0153,21.1026
27.0153,21.8026
26.3153,21.8026
26.3153,21.1026
Z" /> 
<path style="fill:#000000; fill-opacity:1.0000; stroke:none;fill-rule:evenodd;"
d="M 27.0153,20.0026
27.0153,20.7026
26.3153,20.7026
26.3153,20.0026
Z" /> 
<path style="fill:#000000; fill-opacity:1.0000; stroke:none;fill-rule:evenodd;"
d="M 25.1853,20.0026
25.1853,20.7026
24.4853,20.7026
24.4853,20.0026
Z" /> 
<path style="fill:#000000; fill-opacity:1.0000; stroke:none;fill-rule:evenodd;"
d="M 25.1853,21.1026
25.1853,21.8026
24.4853,21.8026
24.4853,21.1026
Z" /> 
<path style="fill:#000000; fill-opacity:1.0000; stroke:none;fill-rule:evenodd;"
d="M 21.0153,21.1026
21.0153,21.8026
20.3153,21.8026
20.3153,21.1026
Z" /> 
<path style="fill:#000000; fill-opacity:1.0000; stroke:none;fill-rule:evenodd;"
d="M 21.0153,20.0026
21.0153,20.7026
20.3153,20.7026
20.3153,20.0026
Z" /> 
<path style="fill:#000000; fill-opacity:1.0000; stroke:none;fill-rule:evenodd;"
d="M 19.1853,20.0026
19.1853,20.7026
18.4853,20.7026
18.4853,20.0026
Z" /> 
<path style="fill:#000000; fill-opacity:1.0000; stroke:none;fill-rule:evenodd;"
d="M 19.1853,21.1026
19.1853,21.8026
18.4853,21.8026
18.4853,21.1026
Z" /> 
<path style="fill:#000000; fill-opacity:1.0000; stroke:none;fill-rule:evenodd;"
d="M 15.0153,21.1026
15.0153,21.8026
14.3153,21.8026
14.3153,21.1026
Z" /> 
<path style="fill:#000000; fill-opacity:1.0000; stroke:none;fill-rule:evenodd;"
d="M 15.0153,20.0026
15.0153,20.7026
14.3153,20.7026
14.3153,20.0026
Z" /> 
<path style="fill:#000000; fill-opacity:1.0000; stroke:none;fill-rule:evenodd;"
d="M 13.1853,20.0026
13.1853,20.7026
12.4853,20.7026
12.4853,20.0026
Z" /> 
<path style="fill:#000000; fill-opacity:1.0000; stroke:none;fill-rule:evenodd;"
d="M 13.1853,21.1026
13.1853,21.8026
12.4853,21.8026
12.4853,21.1026
Z" /> 
<path style="fill:#000000; fill-opacity:1.0000; stroke:none;fill-rule:evenodd;"
d="M 15.4853,15.5065
15.4853,14.8065
16.1853,14.8065
16.1853,15.5065
Z" /> 
<path style="fill:#000000; fill-opacity:1.0000; stroke:none;fill-rule:evenodd;"
d="M 15.4853,16.6065
15.4853,15.9065
16.1853,15.9065
16.1853,16.6065
Z" /> 
<path style="fill:#000000; fill-opacity:1.0000; stroke:none;fill-rule:evenodd;"
d="M 17.3153,16.6065
17.3153,15.9065
18.0153,15.9065
18.0153,16.6065
Z" /> 
<path style="fill:#000000; fill-opacity:1.0000; stroke:none;fill-rule:evenodd;"
d="M 17.3153,15.5065
17.3153,14.8065
18.0153,14.8065
18.0153,15.5065
Z" /> 
<path style="fill:#000000; fill-opacity:1.0000; stroke:none;fill-rule:evenodd;"
d="M 21.4853,15.5065
21.4853,14.8065
22.1853,14.8065
22.1853,15.5065
Z" /> 
<path style="fill:#000000; fill-opacity:1.0000; stroke:none;fill-rule:evenodd;"
d="M 21.4853,16.6065
21.4853,15.9065
22.1853,15.9065
22.1853,16.6065
Z" /> 
<path style="fill:#000000; fill-opacity:1.0000; stroke:none;fill-rule:evenodd;"
d="M 23.3153,16.6065
23.3153,15.9065
24.0153,15.9065
24.0153,16.6065
Z" /> 
<path style="fill:#000000; fill-opacity:1.0000; stroke:none;fill-rule:evenodd;"
d="M 23.3153,15.5065
23.3153,14.8065
24.0153,14.8065
24.0153,15.5065
Z" /> 
<path style="fill:#000000; fill-opacity:1.0000; stroke:none;fill-rule:evenodd;"
d="M 27.4853,15.5065
27.4853,14.8065
28.1853,14.8065
28.1853,15.5065
Z" /> 
<path style="fill:#000000; fill-opacity:1.0000; stroke:none;fill-rule:evenodd;"
d="M 27.4853,16.6065
27.4853,15.9065
28.1853,15.9065
28.1853,16.6065
Z" /> 
<path style="fill:#000000; fill-opacity:1.0000; stroke:none;fill-rule:evenodd;"
d="M 29.3153,16.6065
29.3153,15.9065
30.0153,15.9065
30.0153,16.6065
Z" /> 
<path style="fill:#000000; fill-opacity:1.0000; stroke:none;fill-rule:evenodd;"
d="M 29.3153,15.5065
29.3153,14.8065
30.0153,14.8065
30.0153,15.5065
Z" /> 
<path style="fill:#000000; fill-opacity:1.0000; stroke:none;fill-rule:evenodd;"
d="M 27.0153,10.7103
27.0153,11.4103
26.3153,11.4103
26.3153,10.7103
Z" /> 
<path style="fill:#000000; fill-opacity:1.0000; stroke:none;fill-rule:evenodd;"
d="M 27.0153,9.6103
27.0153,10.3103
26.3153,10.3103
26.3153,9.6103
Z" /> 
<path style="fill:#000000; fill-opacity:1.0000; stroke:none;fill-rule:evenodd;"
d="M 25.1853,9.6103
25.1853,10.3103
24.4853,10.3103
24.4853,9.6103
Z" /> 
<path style="fill:#000000; fill-opacity:1.0000; stroke:none;fill-rule:evenodd;"
d="M 25.1853,10.7103
25.1853,11.4103
24.4853,11.4103
24.4853,10.7103
Z" /> 
<path style="fill:#000000; fill-opacity:1.0000; stroke:none;fill-rule:evenodd;"
d="M 21.0153,10.7103
21.0153,11.4103
20.3153,11.4103
20.3153,10.7103
Z" /> 
<path style="fill:#000000; fill-opacity:1.0000; stroke:none;fill-rule:evenodd;"
d="M 21.0153,9.6103
21.0153,10.3103
20.3153,10.3103
20.3153,9.6103
Z" /> 
<path style="fill:#000000; fill-opacity:1.0000; stroke:none;fill-rule:evenodd;"
d="M 19.1853,9.6103
19.1853,10.3103
18.4853,10.3103
18.4853,9.6103
Z" /> 
<path style="fill:#000000; fill-opacity:1.0000; stroke:none;fill-rule:evenodd;"
d="M 19.1853,10.7103
19.1853,11.4103
18.4853,11.4103
18.4853,10.7103
Z" /> 
<path style="fill:#000000; fill-opacity:1.0000; stroke:none;fill-rule:evenodd;"
d="M 21.4853,5.1141
21.4853,4.4141
22.1853,4.4141
22.1853,5.1141
Z" /> 
<path style="fill:#000000; fill-opacity:1.0000; stroke:none;fill-rule:evenodd;"
d="M 21.4853,6.2141
21.4853,5.5141
22.1853,5.5141
22.1853,6.2141
Z" /> 
<path style="fill:#000000; fill-opacity:1.0000; stroke:none;fill-rule:evenodd;"
d="M 23.3153,6.2141
23.3153,5.5141
24.0153,5.5141
24.0153,6.2141
Z" /> 
<path style="fill:#000000; fill-opacity:1.0000; stroke:none;fill-rule:evenodd;"
d="M 23.3153,5.1141
23.3153,4.4141
24.0153,4.4141
24.0153,5.1141
Z" /> 
<path style="fill:#000000; fill-opacity:1.0000; stroke:none;fill-rule:evenodd;"
d="M 24.9903,18.7326
25.0010,18.6790
25.0313,18.6336
25.0767,18.6033
25.1303,18.5926
25.4103,18.5926
25.4639,18.6033
25.5093,18.6336
25.5397,18.6790
25.5503,18.7326
25.5503,19.0726
25.5397,19.1262
25.5093,19.1716
25.4639,19.2019
25.4103,19.2126
25.1303,19.2126
25.0767,19.2019
25.0313,19.1716
25.0010,19.1262
24.9903,19.0726
Z" /> 
<path style="fill:#000000; fill-opacity:1.0000; stroke:none;fill-rule:evenodd;"
d="M 25.9503,18.7326
25.9610,18.6790
25.9913,18.6336
26.0367,18.6033
26.0903,18.5926
26.3703,18.5926
26.4239,18.6033
26.4693,18.6336
26.4997,18.6790
26.5103,18.7326
26.5103,19.0726
26.4997,19.1262
26.4693,19.1716
26.4239,19.2019
26.3703,19.2126
26.0903,19.2126
26.0367,19.2019
25.9913,19.1716
25.9610,19.1262
25.9503,19.0726
Z" /> 
<path style="fill:#000000; fill-opacity:1.0000; stroke:none;fill-rule:evenodd;"
d="M 7.4903,29.1249
7.5010,29.0713
7.5313,29.0259
7.5767,28.9956
7.6303,28.9849
7.9103,28.9849
7.9639,28.9956
8.0093,29.0259
8.0397,29.0713
8.0503,29.1249
8.0503,29.4649
8.0397,29.5185
8.0093,29.5639
7.9639,29.5943
7.9103,29.6049
7.6303,29.6049
7.5767,29.5943
7.5313,29.5639
7.5010,29.5185
7.4903,29.4649
Z" /> 
<path style="fill:#000000; fill-opacity:1.0000; stroke:none;fill-rule:evenodd;"
d="M 8.4503,29.1249
8.4610,29.0713
8.4913,29.0259
8.5367,28.9956
8.5903,28.9849
8.8703,28.9849
8.9239,28.9956
8.9693,29.0259
8.9997,29.0713
9.0103,29.1249
9.0103,29.4649
8.9997,29.5185
8.9693,29.5639
8.9239,29.5943
8.8703,29.6049
8.5903,29.6049
8.5367,29.5943
8.4913,29.5639
8.4610,29.5185
8.4503,29.4649
Z" /> 
<path style="fill:#000000; fill-opacity:1.0000; stroke:none;fill-rule:evenodd;"
d="M 11.5103,24.2688
11.4997,24.3223
11.4693,24.3678
11.4239,24.3981
11.3703,24.4088
11.0903,24.4088
11.0367,24.3981
10.9913,24.3678
10.9610,24.3223
10.9503,24.2688
10.9503,23.9288
10.9610,23.8752
10.9913,23.8298
11.0367,23.7994
11.0903,23.7888
11.3703,23.7888
11.4239,23.7994
11.4693,23.8298
11.4997,23.8752
11.5103,23.9288
Z" /> 
<path style="fill:#000000; fill-opacity:1.0000; stroke:none;fill-rule:evenodd;"
d="M 10.5503,24.2688
10.5397,24.3223
10.5093,24.3678
10.4639,24.3981
10.4103,24.4088
10.1303,24.4088
10.0767,24.3981
10.0313,24.3678
10.0010,24.3223
9.9903,24.2688
9.9903,23.9288
10.0010,23.8752
10.0313,23.8298
10.0767,23.7994
10.1303,23.7888
10.4103,23.7888
10.4639,23.7994
10.5093,23.8298
10.5397,23.8752
10.5503,23.9288
Z" /> 
<path style="fill:#000000; fill-opacity:1.0000; stroke:none;fill-rule:evenodd;"
d="M 19.4903,8.5288
19.5010,8.4752
19.5313,8.4298
19.5767,8.3994
19.6303,8.3888
19.9103,8.3888
19.9639,8.3994
20.0093,8.4298
20.0397,8.4752
20.0503,8.5288
20.0503,8.8688
20.0397,8.9223
20.0093,8.9678
19.9639,8.9981
19.9103,9.0088
19.6303,9.0088
19.5767,8.9981
19.5313,8.9678
19.5010,8.9223
19.4903,8.8688
Z" /> 
<path style="fill:#000000; fill-opacity:1.0000; stroke:none;fill-rule:evenodd;"
d="M 20.4503,8.5288
20.4610,8.4752
20.4913,8.4298
20.5367,8.3994
20.5903,8.3888
20.8703,8.3888
20.9239,8.3994
20.9693,8.4298
20.9997,8.4752
21.0103,8.5288
21.0103,8.8688
20.9997,8.9223
20.9693,8.9678
20.9239,8.9981
20.8703,9.0088
20.5903,9.0088
20.5367,8.9981
20.4913,8.9678
20.4610,8.9223
20.4503,8.8688
Z" /> 
<path style="fill:#000000; fill-opacity:1.0000; stroke:none;fill-rule:evenodd;"
d="M 11.5103,34.6611
11.4997,34.7146
11.4693,34.7601
11.4239,34.7904
11.3703,34.8011
11.0903,34.8011
11.0367,34.7904
10.9913,34.7601
10.9610,34.7146
10.9503,34.6611
10.9503,34.3211
10.9610,34.2675
10.9913,34.2221
11.0367,34.1917
11.0903,34.1811
11.3703,34.1811
11.4239,34.1917
11.4693,34.2221
11.4997,34.2675
11.5103,34.3211
Z" /> 
<path style="fill:#000000; fill-opacity:1.0000; stroke:none;fill-rule:evenodd;"
d="M 10.5503,34.6611
10.5397,34.7146
10.5093,34.7601
10.4639,34.7904
10.4103,34.8011
10.1303,34.8011
10.0767,34.7904
10.0313,34.7601
10.0010,34.7146
9.9903,34.6611
9.9903,34.3211
10.0010,34.2675
10.0313,34.2221
10.0767,34.1917
10.1303,34.1811
10.4103,34.1811
10.4639,34.1917
10.5093,34.2221
10.5397,34.2675
10.5503,34.3211
Z" /> 
<path style="fill:#000000; fill-opacity:1.0000; stroke:none;fill-rule:evenodd;"
d="M 5.5103,34.6611
5.4997,34.7146
5.4693,34.7601
5.4239,34.7904
5.3703,34.8011
5.0903,34.8011
5.0367,34.7904
4.9913,34.7601
4.9610,34.7146
4.9503,34.6611
4.9503,34.3211
4.9610,34.2675
4.9913,34.2221
5.0367,34.1917
5.0903,34.1811
5.3703,34.1811
5.4239,34.1917
5.4693,34.2221
5.4997,34.2675
5.5103,34.3211
Z" /> 
<path style="fill:#000000; fill-opacity:1.0000; stroke:none;fill-rule:evenodd;"
d="M 4.5503,34.6611
4.5397,34.7146
4.5093,34.7601
4.4639,34.7904
4.4103,34.8011
4.1303,34.8011
4.0767,34.7904
4.0313,34.7601
4.0010,34.7146
3.9903,34.6611
3.9903,34.3211
4.0010,34.2675
4.0313,34.2221
4.0767,34.1917
4.1303,34.1811
4.4103,34.1811
4.4639,34.1917
4.5093,34.2221
4.5397,34.2675
4.5503,34.3211
Z" /> 
<path style="fill:#000000; fill-opacity:1.0000; stroke:none;fill-rule:evenodd;"
d="M 24.9903,29.1249
25.0010,29.0713
25.0313,29.0259
25.0767,28.9956
25.1303,28.9849
25.4103,28.9849
25.4639,28.9956
25.5093,29.0259
25.5397,29.0713
25.5503,29.1249
25.5503,29.4649
25.5397,29.5185
25.5093,29.5639
25.4639,29.5943
25.4103,29.6049
25.1303,29.6049
25.0767,29.5943
25.0313,29.5639
25.0010,29.5185
24.9903,29.4649
Z" /> 
<path style="fill:#000000; fill-opacity:1.0000; stroke:none;fill-rule:evenodd;"
d="M 25.9503,29.1249
25.9610,29.0713
25.9913,29.0259
26.0367,28.9956
26.0903,28.9849
26.3703,28.9849
26.4239,28.9956
26.4693,29.0259
26.4997,29.0713
26.5103,29.1249
26.5103,29.4649
26.4997,29.5185
26.4693,29.5639
26.4239,29.5943
26.3703,29.6049
26.0903,29.6049
26.0367,29.5943
25.9913,29.5639
25.9610,29.5185
25.9503,29.4649
Z" /> 
<path style="fill:#000000; fill-opacity:1.0000; stroke:none;fill-rule:evenodd;"
d="M 30.9903,29.1249
31.0010,29.0713
31.0313,29.0259
31.0767,28.9956
31.1303,28.9849
31.4103,28.9849
31.4639,28.9956
31.5093,29.0259
31.5397,29.0713
31.5503,29.1249
31.5503,29.4649
31.5397,29.5185
31.5093,29.5639
31.4639,29.5943
31.4103,29.6049
31.1303,29.6049
31.0767,29.5943
31.0313,29.5639
31.0010,29.5185
30.9903,29.4649
Z" /> 
<path style="fill:#000000; fill-opacity:1.0000; stroke:none;fill-rule:evenodd;"
d="M 31.9503,29.1249
31.9610,29.0713
31.9913,29.0259
32.0367,28.9956
32.0903,28.9849
32.3703,28.9849
32.4239,28.9956
32.4693,29.0259
32.4997,29.0713
32.5103,29.1249
32.5103,29.4649
32.4997,29.5185
32.4693,29.5639
32.4239,29.5943
32.3703,29.6049
32.0903,29.6049
32.0367,29.5943
31.9913,29.5639
31.9610,29.5185
31.9503,29.4649
Z" /> 
<path style="fill:#000000; fill-opacity:1.0000; stroke:none;fill-rule:evenodd;"
d="M 41.0103,34.4688
40.9997,34.5223
40.9693,34.5678
40.9239,34.5981
40.8703,34.6088
40.5903,34.6088
40.5367,34.5981
40.4913,34.5678
40.4610,34.5223
40.4503,34.4688
40.4503,34.1288
40.4610,34.0752
40.4913,34.0298
40.5367,33.9994
40.5903,33.9888
40.8703,33.9888
40.9239,33.9994
40.9693,34.0298
40.9997,34.0752
41.0103,34.1288
Z" /> 
<path style="fill:#000000; fill-opacity:1.0000; stroke:none;fill-rule:evenodd;"
d="M 40.0503,34.4688
40.0397,34.5223
40.0093,34.5678
39.9639,34.5981
39.9103,34.6088
39.6303,34.6088
39.5767,34.5981
39.5313,34.5678
39.5010,34.5223
39.4903,34.4688
39.4903,34.1288
39.5010,34.0752
39.5313,34.0298
39.5767,33.9994
39.6303,33.9888
39.9103,33.9888
39.9639,33.9994
40.0093,34.0298
40.0397,34.0752
40.0503,34.1288
Z" /> 
<path style="fill:#000000; fill-opacity:1.0000; stroke:none;fill-rule:evenodd;"
d="M 18.9903,29.1249
19.0010,29.0713
19.0313,29.0259
19.0767,28.9956
19.1303,28.9849
19.4103,28.9849
19.4639,28.9956
19.5093,29.0259
19.5397,29.0713
19.5503,29.1249
19.5503,29.4649
19.5397,29.5185
19.5093,29.5639
19.4639,29.5943
19.4103,29.6049
19.1303,29.6049
19.0767,29.5943
19.0313,29.5639
19.0010,29.5185
18.9903,29.4649
Z" /> 
<path style="fill:#000000; fill-opacity:1.0000; stroke:none;fill-rule:evenodd;"
d="M 19.9503,29.1249
19.9610,29.0713
19.9913,29.0259
20.0367,28.9956
20.0903,28.9849
20.3703,28.9849
20.4239,28.9956
20.4693,29.0259
20.4997,29.0713
20.5103,29.1249
20.5103,29.4649
20.4997,29.5185
20.4693,29.5639
20.4239,29.5943
20.3703,29.6049
20.0903,29.6049
20.0367,29.5943
19.9913,29.5639
19.9610,29.5185
19.9503,29.4649
Z" /> 
<path style="fill:#000000; fill-opacity:1.0000; stroke:none;fill-rule:evenodd;"
d="M 17.5103,13.8765
17.4997,13.9300
17.4693,13.9754
17.4239,14.0058
17.3703,14.0165
17.0903,14.0165
17.0367,14.0058
16.9913,13.9754
16.9610,13.9300
16.9503,13.8765
16.9503,13.5365
16.9610,13.4829
16.9913,13.4375
17.0367,13.4071
17.0903,13.3965
17.3703,13.3965
17.4239,13.4071
17.4693,13.4375
17.4997,13.4829
17.5103,13.5365
Z" /> 
<path style="fill:#000000; fill-opacity:1.0000; stroke:none;fill-rule:evenodd;"
d="M 16.5503,13.8765
16.5397,13.9300
16.5093,13.9754
16.4639,14.0058
16.4103,14.0165
16.1303,14.0165
16.0767,14.0058
16.0313,13.9754
16.0010,13.9300
15.9903,13.8765
15.9903,13.5365
16.0010,13.4829
16.0313,13.4375
16.0767,13.4071
16.1303,13.3965
16.4103,13.3965
16.4639,13.4071
16.5093,13.4375
16.5397,13.4829
16.5503,13.5365
Z" /> 
<path style="fill:#000000; fill-opacity:1.0000; stroke:none;fill-rule:evenodd;"
d="M 29.5103,13.8765
29.4997,13.9300
29.4693,13.9754
29.4239,14.0058
29.3703,14.0165
29.0903,14.0165
29.0367,14.0058
28.9913,13.9754
28.9610,13.9300
28.9503,13.8765
28.9503,13.5365
28.9610,13.4829
28.9913,13.4375
29.0367,13.4071
29.0903,13.3965
29.3703,13.3965
29.4239,13.4071
29.4693,13.4375
29.4997,13.4829
29.5103,13.5365
Z" /> 
<path style="fill:#000000; fill-opacity:1.0000; stroke:none;fill-rule:evenodd;"
d="M 28.5503,13.8765
28.5397,13.9300
28.5093,13.9754
28.4639,14.0058
28.4103,14.0165
28.1303,14.0165
28.0767,14.0058
28.0313,13.9754
28.0010,13.9300
27.9903,13.8765
27.9903,13.5365
28.0010,13.4829
28.0313,13.4375
28.0767,13.4071
28.1303,13.3965
28.4103,13.3965
28.4639,13.4071
28.5093,13.4375
28.5397,13.4829
28.5503,13.5365
Z" /> 
<path style="fill:#000000; fill-opacity:1.0000; stroke:none;fill-rule:evenodd;"
d="M 15.8803,32.3238
15.8929,32.2606
15.9287,32.2071
15.9822,32.1713
16.0453,32.1588
16.3753,32.1588
16.4385,32.1713
16.4920,32.2071
16.5278,32.2606
16.5403,32.3238
16.5403,33.2738
16.5278,33.3369
16.4920,33.3904
16.4385,33.4262
16.3753,33.4388
16.0453,33.4388
15.9822,33.4262
15.9287,33.3904
15.8929,33.3369
15.8803,33.2738
Z" /> 
<path style="fill:#000000; fill-opacity:1.0000; stroke:none;fill-rule:evenodd;"
d="M 16.9603,32.3238
16.9729,32.2606
17.0087,32.2071
17.0622,32.1713
17.1253,32.1588
17.4553,32.1588
17.5185,32.1713
17.5720,32.2071
17.6078,32.2606
17.6203,32.3238
17.6203,33.2738
17.6078,33.3369
17.5720,33.3904
17.5185,33.4262
17.4553,33.4388
17.1253,33.4388
17.0622,33.4262
17.0087,33.3904
16.9729,33.3369
16.9603,33.2738
Z" /> 
<path style="fill:#000000; fill-opacity:1.0000; stroke:none;fill-rule:evenodd;"
d="M 32.6203,28.1738
32.6078,28.2369
32.5720,28.2904
32.5185,28.3262
32.4553,28.3388
32.1253,28.3388
32.0622,28.3262
32.0087,28.2904
31.9729,28.2369
31.9603,28.1738
31.9603,27.2238
31.9729,27.1606
32.0087,27.1071
32.0622,27.0713
32.1253,27.0588
32.4553,27.0588
32.5185,27.0713
32.5720,27.1071
32.6078,27.1606
32.6203,27.2238
Z" /> 
<path style="fill:#000000; fill-opacity:1.0000; stroke:none;fill-rule:evenodd;"
d="M 31.5403,28.1738
31.5278,28.2369
31.4920,28.2904
31.4385,28.3262
31.3753,28.3388
31.0453,28.3388
30.9822,28.3262
30.9287,28.2904
30.8929,28.2369
30.8803,28.1738
30.8803,27.2238
30.8929,27.1606
30.9287,27.1071
30.9822,27.0713
31.0453,27.0588
31.3753,27.0588
31.4385,27.0713
31.4920,27.1071
31.5278,27.1606
31.5403,27.2238
Z" /> 
<path style="fill:#000000; fill-opacity:1.0000; stroke:none;fill-rule:evenodd;"
d="M 24.6653,7.5788
24.6137,7.5685
24.5699,7.5392
24.5406,7.4954
24.5303,7.4438
24.5303,7.1738
24.5406,7.1221
24.5699,7.0783
24.6137,7.0490
24.6653,7.0388
25.0353,7.0388
25.0870,7.0490
25.1308,7.0783
25.1600,7.1221
25.1703,7.1738
25.1703,7.4438
25.1600,7.4954
25.1308,7.5392
25.0870,7.5685
25.0353,7.5788
Z" /> 
<path style="fill:#000000; fill-opacity:1.0000; stroke:none;fill-rule:evenodd;"
d="M 24.6653,6.5588
24.6137,6.5485
24.5699,6.5192
24.5406,6.4754
24.5303,6.4238
24.5303,6.1538
24.5406,6.1021
24.5699,6.0583
24.6137,6.0290
24.6653,6.0188
25.0353,6.0188
25.0870,6.0290
25.1308,6.0583
25.1600,6.1021
25.1703,6.1538
25.1703,6.4238
25.1600,6.4754
25.1308,6.5192
25.0870,6.5485
25.0353,6.5588
Z" /> 
<path style="fill:#000000; fill-opacity:1.0000; stroke:none;fill-rule:evenodd;"
d="M 17.5103,24.2688
17.4997,24.3223
17.4693,24.3678
17.4239,24.3981
17.3703,24.4088
17.0903,24.4088
17.0367,24.3981
16.9913,24.3678
16.9610,24.3223
16.9503,24.2688
16.9503,23.9288
16.9610,23.8752
16.9913,23.8298
17.0367,23.7994
17.0903,23.7888
17.3703,23.7888
17.4239,23.7994
17.4693,23.8298
17.4997,23.8752
17.5103,23.9288
Z" /> 
<path style="fill:#000000; fill-opacity:1.0000; stroke:none;fill-rule:evenodd;"
d="M 16.5503,24.2688
16.5397,24.3223
16.5093,24.3678
16.4639,24.3981
16.4103,24.4088
16.1303,24.4088
16.0767,24.3981
16.0313,24.3678
16.0010,24.3223
15.9903,24.2688
15.9903,23.9288
16.0010,23.8752
16.0313,23.8298
16.0767,23.7994
16.1303,23.7888
16.4103,23.7888
16.4639,23.7994
16.5093,23.8298
16.5397,23.8752
16.5503,23.9288
Z" /> 
<path style="fill:#000000; fill-opacity:1.0000; stroke:none;fill-rule:evenodd;"
d="M 29.5103,24.2688
29.4997,24.3223
29.4693,24.3678
29.4239,24.3981
29.3703,24.4088
29.0903,24.4088
29.0367,24.3981
28.9913,24.3678
28.9610,24.3223
28.9503,24.2688
28.9503,23.9288
28.9610,23.8752
28.9913,23.8298
29.0367,23.7994
29.0903,23.7888
29.3703,23.7888
29.4239,23.7994
29.4693,23.8298
29.4997,23.8752
29.5103,23.9288
Z" /> 
<path style="fill:#000000; fill-opacity:1.0000; stroke:none;fill-rule:evenodd;"
d="M 28.5503,24.2688
28.5397,24.3223
28.5093,24.3678
28.4639,24.3981
28.4103,24.4088
28.1303,24.4088
28.0767,24.3981
28.0313,24.3678
28.0010,24.3223
27.9903,24.2688
27.9903,23.9288
28.0010,23.8752
28.0313,23.8298
28.0767,23.7994
28.1303,23.7888
28.4103,23.7888
28.4639,23.7994
28.5093,23.8298
28.5397,23.8752
28.5503,23.9288
Z" /> 
<path style="fill:#000000; fill-opacity:1.0000; stroke:none;fill-rule:evenodd;"
d="M 29.5103,34.6611
29.4997,34.7146
29.4693,34.7601
29.4239,34.7904
29.3703,34.8011
29.0903,34.8011
29.0367,34.7904
28.9913,34.7601
28.9610,34.7146
28.9503,34.6611
28.9503,34.3211
28.9610,34.2675
28.9913,34.2221
29.0367,34.1917
29.0903,34.1811
29.3703,34.1811
29.4239,34.1917
29.4693,34.2221
29.4997,34.2675
29.5103,34.3211
Z" /> 
<path style="fill:#000000; fill-opacity:1.0000; stroke:none;fill-rule:evenodd;"
d="M 28.5503,34.6611
28.5397,34.7146
28.5093,34.7601
28.4639,34.7904
28.4103,34.8011
28.1303,34.8011
28.0767,34.7904
28.0313,34.7601
28.0010,34.7146
27.9903,34.6611
27.9903,34.3211
28.0010,34.2675
28.0313,34.2221
28.0767,34.1917
28.1303,34.1811
28.4103,34.1811
28.4639,34.1917
28.5093,34.2221
28.5397,34.2675
28.5503,34.3211
Z" /> 
<path style="fill:#000000; fill-opacity:1.0000; stroke:none;fill-rule:evenodd;"
d="M 12.9903,18.7326
13.0010,18.6790
13.0313,18.6336
13.0767,18.6033
13.1303,18.5926
13.4103,18.5926
13.4639,18.6033
13.5093,18.6336
13.5397,18.6790
13.5503,18.7326
13.5503,19.0726
13.5397,19.1262
13.5093,19.1716
13.4639,19.2019
13.4103,19.2126
13.1303,19.2126
13.0767,19.2019
13.0313,19.1716
13.0010,19.1262
12.9903,19.0726
Z" /> 
<path style="fill:#000000; fill-opacity:1.0000; stroke:none;fill-rule:evenodd;"
d="M 13.9503,18.7326
13.9610,18.6790
13.9913,18.6336
14.0367,18.6033
14.0903,18.5926
14.3703,18.5926
14.4239,18.6033
14.4693,18.6336
14.4997,18.6790
14.5103,18.7326
14.5103,19.0726
14.4997,19.1262
14.4693,19.1716
14.4239,19.2019
14.3703,19.2126
14.0903,19.2126
14.0367,19.2019
13.9913,19.1716
13.9610,19.1262
13.9503,19.0726
Z" /> 
<path style="fill:#000000; fill-opacity:1.0000; stroke:none;fill-rule:evenodd;"
d="M 23.5103,13.8765
23.4997,13.9300
23.4693,13.9754
23.4239,14.0058
23.3703,14.0165
23.0903,14.0165
23.0367,14.0058
22.9913,13.9754
22.9610,13.9300
22.9503,13.8765
22.9503,13.5365
22.9610,13.4829
22.9913,13.4375
23.0367,13.4071
23.0903,13.3965
23.3703,13.3965
23.4239,13.4071
23.4693,13.4375
23.4997,13.4829
23.5103,13.5365
Z" /> 
<path style="fill:#000000; fill-opacity:1.0000; stroke:none;fill-rule:evenodd;"
d="M 22.5503,13.8765
22.5397,13.9300
22.5093,13.9754
22.4639,14.0058
22.4103,14.0165
22.1303,14.0165
22.0767,14.0058
22.0313,13.9754
22.0010,13.9300
21.9903,13.8765
21.9903,13.5365
22.0010,13.4829
22.0313,13.4375
22.0767,13.4071
22.1303,13.3965
22.4103,13.3965
22.4639,13.4071
22.5093,13.4375
22.5397,13.4829
22.5503,13.5365
Z" /> 
<path style="fill:#000000; fill-opacity:1.0000; stroke:none;fill-rule:evenodd;"
d="M 35.5103,34.6611
35.4997,34.7146
35.4693,34.7601
35.4239,34.7904
35.3703,34.8011
35.0903,34.8011
35.0367,34.7904
34.9913,34.7601
34.9610,34.7146
34.9503,34.6611
34.9503,34.3211
34.9610,34.2675
34.9913,34.2221
35.0367,34.1917
35.0903,34.1811
35.3703,34.1811
35.4239,34.1917
35.4693,34.2221
35.4997,34.2675
35.5103,34.3211
Z" /> 
<path style="fill:#000000; fill-opacity:1.0000; stroke:none;fill-rule:evenodd;"
d="M 34.5503,34.6611
34.5397,34.7146
34.5093,34.7601
34.4639,34.7904
34.4103,34.8011
34.1303,34.8011
34.0767,34.7904
34.0313,34.7601
34.0010,34.7146
33.9903,34.6611
33.9903,34.3211
34.0010,34.2675
34.0313,34.2221
34.0767,34.1917
34.1303,34.1811
34.4103,34.1811
34.4639,34.1917
34.5093,34.2221
34.5397,34.2675
34.5503,34.3211
Z" /> 
<path style="fill:#000000; fill-opacity:1.0000; stroke:none;fill-rule:evenodd;"
d="M 18.9903,18.7326
19.0010,18.6790
19.0313,18.6336
19.0767,18.6033
19.1303,18.5926
19.4103,18.5926
19.4639,18.6033
19.5093,18.6336
19.5397,18.6790
19.5503,18.7326
19.5503,19.0726
19.5397,19.1262
19.5093,19.1716
19.4639,19.2019
19.4103,19.2126
19.1303,19.2126
19.0767,19.2019
19.0313,19.1716
19.0010,19.1262
18.9903,19.0726
Z" /> 
<path style="fill:#000000; fill-opacity:1.0000; stroke:none;fill-rule:evenodd;"
d="M 19.9503,18.7326
19.9610,18.6790
19.9913,18.6336
20.0367,18.6033
20.0903,18.5926
20.3703,18.5926
20.4239,18.6033
20.4693,18.6336
20.4997,18.6790
20.5103,18.7326
20.5103,19.0726
20.4997,19.1262
20.4693,19.1716
20.4239,19.2019
20.3703,19.2126
20.0903,19.2126
20.0367,19.2019
19.9913,19.1716
19.9610,19.1262
19.9503,19.0726
Z" /> 
<path style="fill:#000000; fill-opacity:1.0000; stroke:none;fill-rule:evenodd;"
d="M 35.5103,24.2688
35.4997,24.3223
35.4693,24.3678
35.4239,24.3981
35.3703,24.4088
35.0903,24.4088
35.0367,24.3981
34.9913,24.3678
34.9610,24.3223
34.9503,24.2688
34.9503,23.9288
34.9610,23.8752
34.9913,23.8298
35.0367,23.7994
35.0903,23.7888
35.3703,23.7888
35.4239,23.7994
35.4693,23.8298
35.4997,23.8752
35.5103,23.9288
Z" /> 
<path style="fill:#000000; fill-opacity:1.0000; stroke:none;fill-rule:evenodd;"
d="M 34.5503,24.2688
34.5397,24.3223
34.5093,24.3678
34.4639,24.3981
34.4103,24.4088
34.1303,24.4088
34.0767,24.3981
34.0313,24.3678
34.0010,24.3223
33.9903,24.2688
33.9903,23.9288
34.0010,23.8752
34.0313,23.8298
34.0767,23.7994
34.1303,23.7888
34.4103,23.7888
34.4639,23.7994
34.5093,23.8298
34.5397,23.8752
34.5503,23.9288
Z" /> 
<path style="fill:#000000; fill-opacity:1.0000; stroke:none;fill-rule:evenodd;"
d="M 23.5103,34.6611
23.4997,34.7146
23.4693,34.7601
23.4239,34.7904
23.3703,34.8011
23.0903,34.8011
23.0367,34.7904
22.9913,34.7601
22.9610,34.7146
22.9503,34.6611
22.9503,34.3211
22.9610,34.2675
22.9913,34.2221
23.0367,34.1917
23.0903,34.1811
23.3703,34.1811
23.4239,34.1917
23.4693,34.2221
23.4997,34.2675
23.5103,34.3211
Z" /> 
<path style="fill:#000000; fill-opacity:1.0000; stroke:none;fill-rule:evenodd;"
d="M 22.5503,34.6611
22.5397,34.7146
22.5093,34.7601
22.4639,34.7904
22.4103,34.8011
22.1303,34.8011
22.0767,34.7904
22.0313,34.7601
22.0010,34.7146
21.9903,34.6611
21.9903,34.3211
22.0010,34.2675
22.0313,34.2221
22.0767,34.1917
22.1303,34.1811
22.4103,34.1811
22.4639,34.1917
22.5093,34.2221
22.5397,34.2675
22.5503,34.3211
Z" /> 
<path style="fill:#000000; fill-opacity:1.0000; stroke:none;fill-rule:evenodd;"
d="M 24.9903,8.3403
25.0010,8.2867
25.0313,8.2413
25.0767,8.2110
25.1303,8.2003
25.4103,8.2003
25.4639,8.2110
25.5093,8.2413
25.5397,8.2867
25.5503,8.3403
25.5503,8.6803
25.5397,8.7339
25.5093,8.7793
25.4639,8.8096
25.4103,8.8203
25.1303,8.8203
25.0767,8.8096
25.0313,8.7793
25.0010,8.7339
24.9903,8.6803
Z" /> 
<path style="fill:#000000; fill-opacity:1.0000; stroke:none;fill-rule:evenodd;"
d="M 25.9503,8.3403
25.9610,8.2867
25.9913,8.2413
26.0367,8.2110
26.0903,8.2003
26.3703,8.2003
26.4239,8.2110
26.4693,8.2413
26.4997,8.2867
26.5103,8.3403
26.5103,8.6803
26.4997,8.7339
26.4693,8.7793
26.4239,8.8096
26.3703,8.8203
26.0903,8.8203
26.0367,8.8096
25.9913,8.7793
25.9610,8.7339
25.9503,8.6803
Z" /> 
<path style="fill:#000000; fill-opacity:1.0000; stroke:none;fill-rule:evenodd;"
d="M 20.6203,17.5738
20.6078,17.6369
20.5720,17.6904
20.5185,17.7262
20.4553,17.7388
20.1253,17.7388
20.0622,17.7262
20.0087,17.6904
19.9729,17.6369
19.9603,17.5738
19.9603,16.6238
19.9729,16.5606
20.0087,16.5071
20.0622,16.4713
20.1253,16.4588
20.4553,16.4588
20.5185,16.4713
20.5720,16.5071
20.6078,16.5606
20.6203,16.6238
Z" /> 
<path style="fill:#000000; fill-opacity:1.0000; stroke:none;fill-rule:evenodd;"
d="M 19.5403,17.5738
19.5278,17.6369
19.4920,17.6904
19.4385,17.7262
19.3753,17.7388
19.0453,17.7388
18.9822,17.7262
18.9287,17.6904
18.8929,17.6369
18.8803,17.5738
18.8803,16.6238
18.8929,16.5606
18.9287,16.5071
18.9822,16.4713
19.0453,16.4588
19.3753,16.4588
19.4385,16.4713
19.4920,16.5071
19.5278,16.5606
19.5403,16.6238
Z" /> 
<path style="fill:#000000; fill-opacity:1.0000; stroke:none;fill-rule:evenodd;"
d="M 36.9903,29.1249
37.0010,29.0713
37.0313,29.0259
37.0767,28.9956
37.1303,28.9849
37.4103,28.9849
37.4639,28.9956
37.5093,29.0259
37.5397,29.0713
37.5503,29.1249
37.5503,29.4649
37.5397,29.5185
37.5093,29.5639
37.4639,29.5943
37.4103,29.6049
37.1303,29.6049
37.0767,29.5943
37.0313,29.5639
37.0010,29.5185
36.9903,29.4649
Z" /> 
<path style="fill:#000000; fill-opacity:1.0000; stroke:none;fill-rule:evenodd;"
d="M 37.9503,29.1249
37.9610,29.0713
37.9913,29.0259
38.0367,28.9956
38.0903,28.9849
38.3703,28.9849
38.4239,28.9956
38.4693,29.0259
38.4997,29.0713
38.5103,29.1249
38.5103,29.4649
38.4997,29.5185
38.4693,29.5639
38.4239,29.5943
38.3703,29.6049
38.0903,29.6049
38.0367,29.5943
37.9913,29.5639
37.9610,29.5185
37.9503,29.4649
Z" /> 
<path style="fill:#000000; fill-opacity:1.0000; stroke:none;fill-rule:evenodd;"
d="M 30.9903,18.7326
31.0010,18.6790
31.0313,18.6336
31.0767,18.6033
31.1303,18.5926
31.4103,18.5926
31.4639,18.6033
31.5093,18.6336
31.5397,18.6790
31.5503,18.7326
31.5503,19.0726
31.5397,19.1262
31.5093,19.1716
31.4639,19.2019
31.4103,19.2126
31.1303,19.2126
31.0767,19.2019
31.0313,19.1716
31.0010,19.1262
30.9903,19.0726
Z" /> 
<path style="fill:#000000; fill-opacity:1.0000; stroke:none;fill-rule:evenodd;"
d="M 31.9503,18.7326
31.9610,18.6790
31.9913,18.6336
32.0367,18.6033
32.0903,18.5926
32.3703,18.5926
32.4239,18.6033
32.4693,18.6336
32.4997,18.6790
32.5103,18.7326
32.5103,19.0726
32.4997,19.1262
32.4693,19.1716
32.4239,19.2019
32.3703,19.2126
32.0903,19.2126
32.0367,19.2019
31.9913,19.1716
31.9610,19.1262
31.9503,19.0726
Z" /> 
<path style="fill:#000000; fill-opacity:1.0000; stroke:none;fill-rule:evenodd;"
d="M 23.5103,24.2688
23.4997,24.3223
23.4693,24.3678
23.4239,24.3981
23.3703,24.4088
23.0903,24.4088
23.0367,24.3981
22.9913,24.3678
22.9610,24.3223
22.9503,24.2688
22.9503,23.9288
22.9610,23.8752
22.9913,23.8298
23.0367,23.7994
23.0903,23.7888
23.3703,23.7888
23.4239,23.7994
23.4693,23.8298
23.4997,23.8752
23.5103,23.9288
Z" /> 
<path style="fill:#000000; fill-opacity:1.0000; stroke:none;fill-rule:evenodd;"
d="M 22.5503,24.2688
22.5397,24.3223
22.5093,24.3678
22.4639,24.3981
22.4103,24.4088
22.1303,24.4088
22.0767,24.3981
22.0313,24.3678
22.0010,24.3223
21.9903,24.2688
21.9903,23.9288
22.0010,23.8752
22.0313,23.8298
22.0767,23.7994
22.1303,23.7888
22.4103,23.7888
22.4639,23.7994
22.5093,23.8298
22.5397,23.8752
22.5503,23.9288
Z" /> 
<path style="fill:#000000; fill-opacity:1.0000; stroke:none;fill-rule:evenodd;"
d="M 23.5103,3.4841
23.4997,3.5377
23.4693,3.5831
23.4239,3.6135
23.3703,3.6241
23.0903,3.6241
23.0367,3.6135
22.9913,3.5831
22.9610,3.5377
22.9503,3.4841
22.9503,3.1441
22.9610,3.0906
22.9913,3.0452
23.0367,3.0148
23.0903,3.0041
23.3703,3.0041
23.4239,3.0148
23.4693,3.0452
23.4997,3.0906
23.5103,3.1441
Z" /> 
<path style="fill:#000000; fill-opacity:1.0000; stroke:none;fill-rule:evenodd;"
d="M 22.5503,3.4841
22.5397,3.5377
22.5093,3.5831
22.4639,3.6135
22.4103,3.6241
22.1303,3.6241
22.0767,3.6135
22.0313,3.5831
22.0010,3.5377
21.9903,3.4841
21.9903,3.1441
22.0010,3.0906
22.0313,3.0452
22.0767,3.0148
22.1303,3.0041
22.4103,3.0041
22.4639,3.0148
22.5093,3.0452
22.5397,3.0906
22.5503,3.1441
Z" /> 
<path style="fill:#000000; fill-opacity:1.0000; stroke:none;fill-rule:evenodd;"
d="M 12.9903,29.1249
13.0010,29.0713
13.0313,29.0259
13.0767,28.9956
13.1303,28.9849
13.4103,28.9849
13.4639,28.9956
13.5093,29.0259
13.5397,29.0713
13.5503,29.1249
13.5503,29.4649
13.5397,29.5185
13.5093,29.5639
13.4639,29.5943
13.4103,29.6049
13.1303,29.6049
13.0767,29.5943
13.0313,29.5639
13.0010,29.5185
12.9903,29.4649
Z" /> 
<path style="fill:#000000; fill-opacity:1.0000; stroke:none;fill-rule:evenodd;"
d="M 13.9503,29.1249
13.9610,29.0713
13.9913,29.0259
14.0367,28.9956
14.0903,28.9849
14.3703,28.9849
14.4239,28.9956
14.4693,29.0259
14.4997,29.0713
14.5103,29.1249
14.5103,29.4649
14.4997,29.5185
14.4693,29.5639
14.4239,29.5943
14.3703,29.6049
14.0903,29.6049
14.0367,29.5943
13.9913,29.5639
13.9610,29.5185
13.9503,29.4649
Z" /> 
<path style="fill:#000000; fill-opacity:1.0000; stroke:none;fill-rule:evenodd;"
d="M 17.5103,34.6611
17.4997,34.7146
17.4693,34.7601
17.4239,34.7904
17.3703,34.8011
17.0903,34.8011
17.0367,34.7904
16.9913,34.7601
16.9610,34.7146
16.9503,34.6611
16.9503,34.3211
16.9610,34.2675
16.9913,34.2221
17.0367,34.1917
17.0903,34.1811
17.3703,34.1811
17.4239,34.1917
17.4693,34.2221
17.4997,34.2675
17.5103,34.3211
Z" /> 
<path style="fill:#000000; fill-opacity:1.0000; stroke:none;fill-rule:evenodd;"
d="M 16.5503,34.6611
16.5397,34.7146
16.5093,34.7601
16.4639,34.7904
16.4103,34.8011
16.1303,34.8011
16.0767,34.7904
16.0313,34.7601
16.0010,34.7146
15.9903,34.6611
15.9903,34.3211
16.0010,34.2675
16.0313,34.2221
16.0767,34.1917
16.1303,34.1811
16.4103,34.1811
16.4639,34.1917
16.5093,34.2221
16.5397,34.2675
16.5503,34.3211
Z" /> 
</g> 
</svg>
