<?xml version='1.0' encoding='UTF-8'?>
<!DOCTYPE svg PUBLIC "-//W3C//DTD SVG 1.1//EN" "http://www.w3.org/Graphics/SVG/1.1/DTD/svg11.dtd">
<svg xmlns:svg="http://www.w3.org/2000/svg" xmlns="http://www.w3.org/2000/svg" xmlns:xlink="http://www.w3.org/1999/xlink" version="1.1" width="1069.3654mm" height="565.6834mm" viewBox="0.0000 0.0000 1069.3654 565.6834">
  <title>SVG Image created as Plato_A2-B_Cu.svg date 2024/05/02 01:56:59 </title>
  <desc>Image generated by PCBNEW </desc>
  <g style="fill:#000000; fill-opacity:1.0000;stroke:#000000; stroke-opacity:1.0000; stroke-linecap:round; stroke-linejoin:round;" transform="translate(0 0) scale(1 1)">
</g>
  <g style="fill:#000000; fill-opacity:1.0000; stroke:none;">
    <circle cx="7.7503" cy="34.7590" r="0.7620"/>
  </g>
  <g style="fill:#000000; fill-opacity:1.0000; stroke:none;">
    <circle cx="34.7503" cy="29.5629" r="0.7620"/>
  </g>
  <g style="fill:#000000; fill-opacity:1.0000; stroke:none;">
    <circle cx="22.7503" cy="8.7782" r="0.7620"/>
  </g>
  <g style="fill:#000000; fill-opacity:1.0000; stroke:none;">
    <circle cx="31.7503" cy="34.7590" r="0.7620"/>
  </g>
  <g style="fill:#000000; fill-opacity:1.0000; stroke:none;">
    <circle cx="25.7503" cy="13.9744" r="0.7620"/>
  </g>
  <g style="fill:#000000; fill-opacity:1.0000; stroke:none;">
    <circle cx="13.7503" cy="34.7590" r="0.7620"/>
  </g>
  <g style="fill:#000000; fill-opacity:1.0000; stroke:none;">
    <circle cx="10.7503" cy="29.5629" r="0.7620"/>
  </g>
  <g style="fill:#000000; fill-opacity:1.0000; stroke:none;">
    <circle cx="19.7503" cy="13.9744" r="0.7620"/>
  </g>
  <g style="fill:#000000; fill-opacity:1.0000; stroke:none;">
    <circle cx="40.7503" cy="36.4988" r="0.3000"/>
  </g>
  <g style="fill:#000000; fill-opacity:1.0000; stroke:none;">
    <circle cx="34.7503" cy="26.0988" r="0.3000"/>
  </g>
  <g style="fill:#000000; fill-opacity:1.0000; stroke:none;">
    <circle cx="27.7503" cy="10.0988" r="0.3250"/>
  </g>
  <g style="fill:#000000; fill-opacity:1.0000; stroke:none;">
    <circle cx="15.5503" cy="30.2988" r="0.3250"/>
  </g>
  <g style="fill:#000000; fill-opacity:1.0000; stroke:none;">
    <circle cx="4.7503" cy="36.4988" r="0.3000"/>
  </g>
  <g style="fill:#000000; fill-opacity:1.0000; stroke:none;">
    <circle cx="28.7503" cy="26.0988" r="0.3000"/>
  </g>
  <g style="fill:#000000; fill-opacity:1.0000; stroke:none;">
    <circle cx="16.7503" cy="26.0988" r="0.3000"/>
  </g>
  <g style="fill:#000000; fill-opacity:1.0000; stroke:none;">
    <circle cx="34.7503" cy="36.4988" r="0.3000"/>
  </g>
  <g style="fill:#000000; fill-opacity:1.0000; stroke:none;">
    <circle cx="10.7503" cy="36.4988" r="0.3000"/>
  </g>
  <g style="fill:#000000; fill-opacity:1.0000; stroke:none;">
    <circle cx="22.7503" cy="5.2988" r="0.3000"/>
  </g>
  <g style="fill:#000000; fill-opacity:1.0000; stroke:none;">
    <circle cx="16.7503" cy="36.4988" r="0.3000"/>
  </g>
  <g style="fill:#000000; fill-opacity:1.0000; stroke:none;">
    <circle cx="30.1503" cy="17.9988" r="0.3000"/>
  </g>
  <g style="fill:#000000; fill-opacity:1.0000; stroke:none;">
    <circle cx="22.7503" cy="15.6988" r="0.3000"/>
  </g>
  <g style="fill:#000000; fill-opacity:1.0000; stroke:none;">
    <circle cx="28.7503" cy="15.6988" r="0.3000"/>
  </g>
  <g style="fill:#000000; fill-opacity:1.0000; stroke:none;">
    <circle cx="36.5503" cy="27.8988" r="0.3000"/>
  </g>
  <g style="fill:#000000; fill-opacity:1.0000; stroke:none;">
    <circle cx="16.7503" cy="15.6988" r="0.3000"/>
  </g>
  <g style="fill:#000000; fill-opacity:1.0000; stroke:none;">
    <circle cx="22.7503" cy="36.4988" r="0.3000"/>
  </g>
  <g style="fill:#000000; fill-opacity:1.0000; stroke:none;">
    <circle cx="22.7503" cy="26.0988" r="0.3000"/>
  </g>
  <g style="fill:#000000; fill-opacity:1.0000; stroke:none;">
    <circle cx="28.7503" cy="36.3988" r="0.3000"/>
  </g>
  <g style="fill:#000000; fill-opacity:1.0000; stroke:none;">
    <circle cx="17.3503" cy="31.4988" r="0.3250"/>
  </g>
  <g style="fill:#000000; fill-opacity:1.0000; stroke:none;">
    <circle cx="10.7503" cy="26.0988" r="0.3000"/>
  </g>
  <g style="fill:#000000; fill-opacity:1.0000; stroke:none;">
    <circle cx="19.7503" cy="10.3988" r="0.3000"/>
  </g>
  <g style="fill:#000000; fill-opacity:1.0000; stroke:none;">
    <circle cx="31.7503" cy="31.2988" r="0.3000"/>
  </g>
  <g style="fill:#000000; fill-opacity:1.0000; stroke:none;">
    <circle cx="19.7503" cy="31.2988" r="0.3000"/>
  </g>
  <g style="fill:#000000; fill-opacity:1.0000; stroke:none;">
    <circle cx="25.7503" cy="20.8988" r="0.3000"/>
  </g>
  <g style="fill:#000000; fill-opacity:1.0000; stroke:none;">
    <circle cx="25.7503" cy="10.4988" r="0.3000"/>
  </g>
  <g style="fill:#000000; fill-opacity:1.0000; stroke:none;">
    <circle cx="13.7503" cy="31.2988" r="0.3000"/>
  </g>
  <g style="fill:#000000; fill-opacity:1.0000; stroke:none;">
    <circle cx="37.7503" cy="31.2988" r="0.3000"/>
  </g>
  <g style="fill:#000000; fill-opacity:1.0000; stroke:none;">
    <circle cx="7.7503" cy="31.2988" r="0.3000"/>
  </g>
  <g style="fill:#000000; fill-opacity:1.0000; stroke:none;">
    <circle cx="19.7503" cy="20.8988" r="0.3000"/>
  </g>
  <g style="fill:#000000; fill-opacity:1.0000; stroke:none;">
    <circle cx="13.7503" cy="20.8988" r="0.3000"/>
  </g>
  <g style="fill:#000000; fill-opacity:1.0000; stroke:none;">
    <circle cx="31.7503" cy="20.8988" r="0.3000"/>
  </g>
  <g style="fill:#000000; fill-opacity:1.0000; stroke:none;">
    <circle cx="25.7503" cy="31.2988" r="0.3000"/>
  </g>
  <g style="fill:#000000; fill-opacity:1.0000; stroke:none;">
    <circle cx="6.1226" cy="33.5988" r="0.3250"/>
  </g>
  <g style="fill:#000000; fill-opacity:1.0000; stroke:none;">
    <circle cx="24.6503" cy="4.9988" r="0.3000"/>
  </g>
  <g style="fill:#000000; fill-opacity:1.0000; stroke:none;">
    <circle cx="17.8503" cy="17.7988" r="0.3000"/>
  </g>
  <g style="fill:none;  stroke:#000000; stroke-width:0.5000; stroke-opacity:1;  stroke-linecap:round; stroke-linejoin:round;">
    <path d="M33.0106 34.7590 L34.7503 36.4988 "/>
    <path d="M40.7503 36.4988 L39.0930 34.8414 "/>
    <path d="M34.7503 23.0834 L34.7503 26.0988 "/>
    <path d="M25.7503 13.9744 L25.7503 12.0988 "/>
    <path d="M16.7503 26.0988 L10.7503 26.0988 "/>
    <path d="M10.7503 29.5629 L13.2862 29.5629 "/>
    <path d="M31.7503 34.7590 L33.0106 34.7590 "/>
    <path d="M4.7503 36.4988 L10.7503 36.4988 "/>
    <path d="M30.1503 17.9988 L30.1503 17.0988 "/>
    <path d="M32.9503 19.3988 L32.9503 21.2834 "/>
    <path d="M34.6503 36.3988 L34.7503 36.4988 "/>
    <path d="M28.7503 36.3988 L30.1106 36.3988 "/>
    <path d="M16.7503 36.4988 L22.7503 36.4988 "/>
    <path d="M38.0503 33.2988 L38.5003 32.8488 "/>
    <path d="M24.0260 15.6988 L25.7503 13.9744 "/>
    <path d="M38.5003 32.8488 L38.9503 32.3988 "/>
    <path d="M30.1503 17.0988 L28.7503 15.6988 "/>
    <path d="M15.5503 30.2988 L16.7503 31.4988 "/>
    <path d="M28.7503 26.0988 L22.7503 26.0988 "/>
    <path d="M27.7503 14.6988 L28.7503 15.6988 "/>
    <path d="M22.7503 15.6988 L28.7503 15.6988 "/>
    <path d="M38.9503 30.2988 L36.5503 27.8988 "/>
    <path d="M39.0930 33.4414 L38.5003 32.8488 "/>
    <path d="M30.1503 17.9988 L31.5503 17.9988 "/>
    <path d="M36.5503 27.8988 L34.7503 26.0988 "/>
    <path d="M22.7503 15.6988 L24.0260 15.6988 "/>
    <path d="M27.0260 13.9744 L28.7503 15.6988 "/>
    <path d="M13.2862 29.5629 L16.7503 26.0988 "/>
    <path d="M28.4503 36.4988 L28.5503 36.3988 "/>
    <path d="M27.7503 10.0988 L22.9503 5.2988 "/>
    <path d="M38.9503 32.3988 L38.9503 30.2988 "/>
    <path d="M16.7503 36.4988 L10.7503 36.4988 "/>
    <path d="M32.9503 21.2834 L34.7503 23.0834 "/>
    <path d="M39.0930 34.8414 L39.0930 33.4414 "/>
    <path d="M31.5503 17.9988 L32.9503 19.3988 "/>
    <path d="M36.8110 33.2988 L38.0503 33.2988 "/>
    <path d="M22.7503 26.0988 L16.7503 26.0988 "/>
    <path d="M22.7503 36.4988 L28.4503 36.4988 "/>
    <path d="M22.7503 15.6988 L16.7503 15.6988 "/>
    <path d="M22.9503 5.2988 L22.7503 5.2988 "/>
    <path d="M28.5503 36.3988 L28.7503 36.3988 "/>
    <path d="M25.7503 12.0988 L27.7503 10.0988 "/>
    <path d="M31.7503 34.7590 L35.3507 34.7590 "/>
    <path d="M34.7503 36.4988 L40.7503 36.4988 "/>
    <path d="M16.7503 31.4988 L17.3503 31.4988 "/>
    <path d="M25.7503 13.9744 L27.0260 13.9744 "/>
    <path d="M10.7503 29.5629 L10.7503 26.0988 "/>
    <path d="M34.7503 26.0988 L28.7503 26.0988 "/>
    <path d="M28.7503 36.3988 L34.6503 36.3988 "/>
    <path d="M27.7503 10.0988 L27.7503 14.6988 "/>
    <path d="M35.3507 34.7590 L36.8110 33.2988 "/>
    <path d="M30.1106 36.3988 L31.7503 34.7590 "/>
    <path d="M13.7503 20.8988 L13.7503 17.6381 "/>
    <path d="M16.4747 13.9744 L14.8503 15.5988 "/>
    <path d="M19.7503 30.7222 L19.7503 31.2988 "/>
    <path d="M6.1226 32.9265 L7.7503 31.2988 "/>
    <path d="M16.1503 17.7988 L17.8503 17.7988 "/>
    <path d="M19.8503 10.4988 L19.7503 10.3988 "/>
    <path d="M22.2747 13.9744 L19.7503 13.9744 "/>
    <path d="M19.6610 10.3094 L19.6610 6.2881 "/>
    <path d="M23.6503 3.9988 L24.6503 4.9988 "/>
    <path d="M13.7503 31.2988 L13.7503 30.6815 "/>
    <path d="M19.7503 31.2988 L25.7503 31.2988 "/>
    <path d="M13.7503 34.7590 L13.7503 31.2988 "/>
    <path d="M13.7503 34.7590 L16.2901 34.7590 "/>
    <path d="M25.7503 20.8988 L31.7503 20.8988 "/>
    <path d="M13.7503 20.8988 L19.7503 20.8988 "/>
    <path d="M37.7503 31.2988 L31.7503 31.2988 "/>
    <path d="M13.7503 20.8988 L7.7503 26.8988 "/>
    <path d="M37.7503 31.2988 L36.4862 31.2988 "/>
    <path d="M31.7503 31.2988 L33.0144 31.2988 "/>
    <path d="M6.1226 33.5988 L6.1226 32.9265 "/>
    <path d="M19.7503 13.9744 L19.7503 10.3988 "/>
    <path d="M16.2901 34.7590 L19.7503 31.2988 "/>
    <path d="M33.2882 28.1007 L28.0217 28.1007 "/>
    <path d="M19.7503 13.9744 L16.4747 13.9744 "/>
    <path d="M14.8503 16.5381 L14.8503 15.5988 "/>
    <path d="M16.2331 28.1988 L17.2268 28.1988 "/>
    <path d="M11.2106 34.7590 L7.7503 31.2988 "/>
    <path d="M28.0217 28.1007 L25.7503 30.3721 "/>
    <path d="M19.7503 20.8988 L25.7503 20.8988 "/>
    <path d="M13.7503 34.7590 L11.2106 34.7590 "/>
    <path d="M13.7503 30.6815 L16.2331 28.1988 "/>
    <path d="M25.7503 10.4988 L19.8503 10.4988 "/>
    <path d="M25.7503 10.4988 L22.2747 13.9744 "/>
    <path d="M34.7503 29.5629 L33.2882 28.1007 "/>
    <path d="M17.2268 28.1988 L19.7503 30.7222 "/>
    <path d="M19.7503 19.6988 L17.8503 17.7988 "/>
    <path d="M19.7503 10.3988 L19.6610 10.3094 "/>
    <path d="M14.8503 16.4988 L16.1503 17.7988 "/>
    <path d="M7.7503 26.8988 L7.7503 31.2988 "/>
    <path d="M14.8503 15.5988 L14.8503 16.4988 "/>
    <path d="M25.7503 31.2988 L31.7503 31.2988 "/>
    <path d="M19.7503 20.8988 L19.7503 19.6988 "/>
    <path d="M25.7503 30.3721 L25.7503 31.2988 "/>
    <path d="M19.6610 6.2881 L21.9503 3.9988 "/>
    <path d="M13.7503 17.6381 L14.8503 16.5381 "/>
    <path d="M33.0144 31.2988 L34.7503 29.5629 "/>
    <path d="M21.9503 3.9988 L23.6503 3.9988 "/>
    <path d="M7.7503 31.2988 L13.7503 31.2988 "/>
    <path d="M36.4862 31.2988 L34.7503 29.5629 "/>
  </g>
  <g style="fill:#FFFFFF; fill-opacity:1.0000; stroke:none;">
    <circle cx="40.7503" cy="36.4988" r="0.1500"/>
  </g>
  <g style="fill:#FFFFFF; fill-opacity:1.0000; stroke:none;">
    <circle cx="34.7503" cy="26.0988" r="0.1500"/>
  </g>
  <g style="fill:#FFFFFF; fill-opacity:1.0000; stroke:none;">
    <circle cx="27.7503" cy="10.0988" r="0.1500"/>
  </g>
  <g style="fill:#FFFFFF; fill-opacity:1.0000; stroke:none;">
    <circle cx="15.5503" cy="30.2988" r="0.1500"/>
  </g>
  <g style="fill:#FFFFFF; fill-opacity:1.0000; stroke:none;">
    <circle cx="4.7503" cy="36.4988" r="0.1500"/>
  </g>
  <g style="fill:#FFFFFF; fill-opacity:1.0000; stroke:none;">
    <circle cx="28.7503" cy="26.0988" r="0.1500"/>
  </g>
  <g style="fill:#FFFFFF; fill-opacity:1.0000; stroke:none;">
    <circle cx="16.7503" cy="26.0988" r="0.1500"/>
  </g>
  <g style="fill:#FFFFFF; fill-opacity:1.0000; stroke:none;">
    <circle cx="34.7503" cy="36.4988" r="0.1500"/>
  </g>
  <g style="fill:#FFFFFF; fill-opacity:1.0000; stroke:none;">
    <circle cx="10.7503" cy="36.4988" r="0.1500"/>
  </g>
  <g style="fill:#FFFFFF; fill-opacity:1.0000; stroke:none;">
    <circle cx="22.7503" cy="5.2988" r="0.1500"/>
  </g>
  <g style="fill:#FFFFFF; fill-opacity:1.0000; stroke:none;">
    <circle cx="16.7503" cy="36.4988" r="0.1500"/>
  </g>
  <g style="fill:#FFFFFF; fill-opacity:1.0000; stroke:none;">
    <circle cx="30.1503" cy="17.9988" r="0.1500"/>
  </g>
  <g style="fill:#FFFFFF; fill-opacity:1.0000; stroke:none;">
    <circle cx="22.7503" cy="15.6988" r="0.1500"/>
  </g>
  <g style="fill:#FFFFFF; fill-opacity:1.0000; stroke:none;">
    <circle cx="28.7503" cy="15.6988" r="0.1500"/>
  </g>
  <g style="fill:#FFFFFF; fill-opacity:1.0000; stroke:none;">
    <circle cx="36.5503" cy="27.8988" r="0.1500"/>
  </g>
  <g style="fill:#FFFFFF; fill-opacity:1.0000; stroke:none;">
    <circle cx="16.7503" cy="15.6988" r="0.1500"/>
  </g>
  <g style="fill:#FFFFFF; fill-opacity:1.0000; stroke:none;">
    <circle cx="22.7503" cy="36.4988" r="0.1500"/>
  </g>
  <g style="fill:#FFFFFF; fill-opacity:1.0000; stroke:none;">
    <circle cx="22.7503" cy="26.0988" r="0.1500"/>
  </g>
  <g style="fill:#FFFFFF; fill-opacity:1.0000; stroke:none;">
    <circle cx="28.7503" cy="36.3988" r="0.1500"/>
  </g>
  <g style="fill:#FFFFFF; fill-opacity:1.0000; stroke:none;">
    <circle cx="17.3503" cy="31.4988" r="0.1500"/>
  </g>
  <g style="fill:#FFFFFF; fill-opacity:1.0000; stroke:none;">
    <circle cx="10.7503" cy="26.0988" r="0.1500"/>
  </g>
  <g style="fill:#FFFFFF; fill-opacity:1.0000; stroke:none;">
    <circle cx="19.7503" cy="10.3988" r="0.1500"/>
  </g>
  <g style="fill:#FFFFFF; fill-opacity:1.0000; stroke:none;">
    <circle cx="31.7503" cy="31.2988" r="0.1500"/>
  </g>
  <g style="fill:#FFFFFF; fill-opacity:1.0000; stroke:none;">
    <circle cx="19.7503" cy="31.2988" r="0.1500"/>
  </g>
  <g style="fill:#FFFFFF; fill-opacity:1.0000; stroke:none;">
    <circle cx="25.7503" cy="20.8988" r="0.1500"/>
  </g>
  <g style="fill:#FFFFFF; fill-opacity:1.0000; stroke:none;">
    <circle cx="25.7503" cy="10.4988" r="0.1500"/>
  </g>
  <g style="fill:#FFFFFF; fill-opacity:1.0000; stroke:none;">
    <circle cx="13.7503" cy="31.2988" r="0.1500"/>
  </g>
  <g style="fill:#FFFFFF; fill-opacity:1.0000; stroke:none;">
    <circle cx="37.7503" cy="31.2988" r="0.1500"/>
  </g>
  <g style="fill:#FFFFFF; fill-opacity:1.0000; stroke:none;">
    <circle cx="7.7503" cy="31.2988" r="0.1500"/>
  </g>
  <g style="fill:#FFFFFF; fill-opacity:1.0000; stroke:none;">
    <circle cx="19.7503" cy="20.8988" r="0.1500"/>
  </g>
  <g style="fill:#FFFFFF; fill-opacity:1.0000; stroke:none;">
    <circle cx="13.7503" cy="20.8988" r="0.1500"/>
  </g>
  <g style="fill:#FFFFFF; fill-opacity:1.0000; stroke:none;">
    <circle cx="31.7503" cy="20.8988" r="0.1500"/>
  </g>
  <g style="fill:#FFFFFF; fill-opacity:1.0000; stroke:none;">
    <circle cx="25.7503" cy="31.2988" r="0.1500"/>
  </g>
  <g style="fill:#FFFFFF; fill-opacity:1.0000; stroke:none;">
    <circle cx="6.1226" cy="33.5988" r="0.1500"/>
  </g>
  <g style="fill:#FFFFFF; fill-opacity:1.0000; stroke:none;">
    <circle cx="24.6503" cy="4.9988" r="0.1500"/>
  </g>
  <g style="fill:#FFFFFF; fill-opacity:1.0000; stroke:none;">
    <circle cx="17.8503" cy="17.7988" r="0.1500"/>
  </g>
  <g style="fill:#FFFFFF; fill-opacity:1.0000; stroke:none;">
    <circle cx="7.7503" cy="34.7590" r="0.3810"/>
  </g>
  <g style="fill:#FFFFFF; fill-opacity:1.0000; stroke:none;">
    <circle cx="34.7503" cy="29.5629" r="0.3810"/>
  </g>
  <g style="fill:#FFFFFF; fill-opacity:1.0000; stroke:none;">
    <circle cx="22.7503" cy="8.7782" r="0.3810"/>
  </g>
  <g style="fill:#FFFFFF; fill-opacity:1.0000; stroke:none;">
    <circle cx="31.7503" cy="34.7590" r="0.3810"/>
  </g>
  <g style="fill:#FFFFFF; fill-opacity:1.0000; stroke:none;">
    <circle cx="25.7503" cy="13.9744" r="0.3810"/>
  </g>
  <g style="fill:#FFFFFF; fill-opacity:1.0000; stroke:none;">
    <circle cx="13.7503" cy="34.7590" r="0.3810"/>
  </g>
  <g style="fill:#FFFFFF; fill-opacity:1.0000; stroke:none;">
    <circle cx="10.7503" cy="29.5629" r="0.3810"/>
  </g>
  <g style="fill:#FFFFFF; fill-opacity:1.0000; stroke:none;">
    <circle cx="19.7503" cy="13.9744" r="0.3810"/>
  </g>
</svg>
