<?xml version="1.0" standalone="no"?>
 <!DOCTYPE svg PUBLIC "-//W3C//DTD SVG 1.1//EN" 
 "http://www.w3.org/Graphics/SVG/1.1/DTD/svg11.dtd"> 
<svg
  xmlns:svg="http://www.w3.org/2000/svg"
  xmlns="http://www.w3.org/2000/svg"
  xmlns:xlink="http://www.w3.org/1999/xlink"
  version="1.1"
  width="1069.3654mm" height="565.6834mm" viewBox="0.0000 0.0000 1069.3654 565.6834">
<title>SVG Image created as Plato_A2-B_Courtyard.svg date 2024/05/01 23:10:35 </title>
  <desc>Image generated by PCBNEW </desc>
<g style="fill:#000000; fill-opacity:1.0000;stroke:#000000; stroke-opacity:1.0000;
stroke-linecap:round; stroke-linejoin:round;"
 transform="translate(0 0) scale(1 1)">
</g>
<g style="fill:none; 
stroke:#000000; stroke-width:0.0500; stroke-opacity:1; 
stroke-linecap:round; stroke-linejoin:round;">
<circle cx="7.7503" cy="34.7590" r="1.2500" /> 
<circle cx="22.7503" cy="8.7782" r="1.2500" /> 
<circle cx="25.7503" cy="13.9744" r="1.3567" /> 
<circle cx="19.7503" cy="13.9744" r="1.3567" /> 
<circle cx="34.7503" cy="29.5629" r="1.3567" /> 
<circle cx="31.7503" cy="34.7590" r="1.3567" /> 
<circle cx="13.7503" cy="34.7590" r="1.3567" /> 
<circle cx="10.7503" cy="29.5629" r="1.3567" /> 
<circle cx="16.7503" cy="29.5629" r="1.0000" /> 
<circle cx="22.7503" cy="29.5629" r="1.0000" /> 
<circle cx="25.7503" cy="24.3667" r="1.0000" /> 
<circle cx="16.7503" cy="19.1706" r="1.0000" /> 
<circle cx="19.7503" cy="24.3667" r="1.0000" /> 
<circle cx="28.7503" cy="29.5629" r="1.0000" /> 
<circle cx="37.7503" cy="34.7590" r="1.0000" /> 
<circle cx="31.7503" cy="24.3667" r="1.0000" /> 
<circle cx="22.7503" cy="19.1706" r="1.0000" /> 
<circle cx="28.7503" cy="19.1706" r="1.0000" /> 
<circle cx="13.7503" cy="24.3667" r="1.0000" /> 
<circle cx="25.7503" cy="34.7590" r="1.0000" /> 
<circle cx="19.7503" cy="34.7590" r="1.0000" /> 
</g> 
</svg>
